<?xml version="1.0" encoding="utf-8" standalone="no"?>
<!DOCTYPE svg PUBLIC "-//W3C//DTD SVG 1.1//EN"
  "http://www.w3.org/Graphics/SVG/1.1/DTD/svg11.dtd">
<svg xmlns:xlink="http://www.w3.org/1999/xlink" width="1152pt" height="576pt" viewBox="0 0 1152 576" xmlns="http://www.w3.org/2000/svg" version="1.1">
 <metadata>
  <rdf:RDF xmlns:dc="http://purl.org/dc/elements/1.1/" xmlns:cc="http://creativecommons.org/ns#" xmlns:rdf="http://www.w3.org/1999/02/22-rdf-syntax-ns#">
   <cc:Work>
    <dc:type rdf:resource="http://purl.org/dc/dcmitype/StillImage"/>
    <dc:date>2025-04-18T18:24:55.787343</dc:date>
    <dc:format>image/svg+xml</dc:format>
    <dc:creator>
     <cc:Agent>
      <dc:title>Matplotlib v3.9.0, https://matplotlib.org/</dc:title>
     </cc:Agent>
    </dc:creator>
   </cc:Work>
  </rdf:RDF>
 </metadata>
 <defs>
  <style type="text/css">*{stroke-linejoin: round; stroke-linecap: butt}</style>
 </defs>
 <g id="figure_1">
  <g id="patch_1">
   <path d="M 0 576 
L 1152 576 
L 1152 0 
L 0 0 
z
" style="fill: #ffffff"/>
  </g>
  <g id="axes_1">
   <g id="patch_2">
    <path d="M 38.27 548.12 
L 1141.2 548.12 
L 1141.2 10.8 
L 38.27 10.8 
z
" style="fill: #ffffff"/>
   </g>
   <g id="matplotlib.axis_1">
    <g id="xtick_1">
     <g id="line2d_1">
      <defs>
       <path id="m3f84a0d9da" d="M 0 0 
L 0 3.5 
" style="stroke: #000000; stroke-width: 0.8"/>
      </defs>
      <g>
       <use xlink:href="#m3f84a0d9da" x="88.403182" y="548.12" style="stroke: #000000; stroke-width: 0.8"/>
      </g>
     </g>
     <g id="text_1">
      <!-- 0 -->
      <g transform="translate(85.221932 562.718437) scale(0.1 -0.1)">
       <defs>
        <path id="DejaVuSans-30" d="M 2034 4250 
Q 1547 4250 1301 3770 
Q 1056 3291 1056 2328 
Q 1056 1369 1301 889 
Q 1547 409 2034 409 
Q 2525 409 2770 889 
Q 3016 1369 3016 2328 
Q 3016 3291 2770 3770 
Q 2525 4250 2034 4250 
z
M 2034 4750 
Q 2819 4750 3233 4129 
Q 3647 3509 3647 2328 
Q 3647 1150 3233 529 
Q 2819 -91 2034 -91 
Q 1250 -91 836 529 
Q 422 1150 422 2328 
Q 422 3509 836 4129 
Q 1250 4750 2034 4750 
z
" transform="scale(0.015625)"/>
       </defs>
       <use xlink:href="#DejaVuSans-30"/>
      </g>
     </g>
    </g>
    <g id="xtick_2">
     <g id="line2d_2">
      <g>
       <use xlink:href="#m3f84a0d9da" x="291.371529" y="548.12" style="stroke: #000000; stroke-width: 0.8"/>
      </g>
     </g>
     <g id="text_2">
      <!-- 50 -->
      <g transform="translate(285.009029 562.718437) scale(0.1 -0.1)">
       <defs>
        <path id="DejaVuSans-35" d="M 691 4666 
L 3169 4666 
L 3169 4134 
L 1269 4134 
L 1269 2991 
Q 1406 3038 1543 3061 
Q 1681 3084 1819 3084 
Q 2600 3084 3056 2656 
Q 3513 2228 3513 1497 
Q 3513 744 3044 326 
Q 2575 -91 1722 -91 
Q 1428 -91 1123 -41 
Q 819 9 494 109 
L 494 744 
Q 775 591 1075 516 
Q 1375 441 1709 441 
Q 2250 441 2565 725 
Q 2881 1009 2881 1497 
Q 2881 1984 2565 2268 
Q 2250 2553 1709 2553 
Q 1456 2553 1204 2497 
Q 953 2441 691 2322 
L 691 4666 
z
" transform="scale(0.015625)"/>
       </defs>
       <use xlink:href="#DejaVuSans-35"/>
       <use xlink:href="#DejaVuSans-30" x="63.623047"/>
      </g>
     </g>
    </g>
    <g id="xtick_3">
     <g id="line2d_3">
      <g>
       <use xlink:href="#m3f84a0d9da" x="494.339877" y="548.12" style="stroke: #000000; stroke-width: 0.8"/>
      </g>
     </g>
     <g id="text_3">
      <!-- 100 -->
      <g transform="translate(484.796127 562.718437) scale(0.1 -0.1)">
       <defs>
        <path id="DejaVuSans-31" d="M 794 531 
L 1825 531 
L 1825 4091 
L 703 3866 
L 703 4441 
L 1819 4666 
L 2450 4666 
L 2450 531 
L 3481 531 
L 3481 0 
L 794 0 
L 794 531 
z
" transform="scale(0.015625)"/>
       </defs>
       <use xlink:href="#DejaVuSans-31"/>
       <use xlink:href="#DejaVuSans-30" x="63.623047"/>
       <use xlink:href="#DejaVuSans-30" x="127.246094"/>
      </g>
     </g>
    </g>
    <g id="xtick_4">
     <g id="line2d_4">
      <g>
       <use xlink:href="#m3f84a0d9da" x="697.308224" y="548.12" style="stroke: #000000; stroke-width: 0.8"/>
      </g>
     </g>
     <g id="text_4">
      <!-- 150 -->
      <g transform="translate(687.764474 562.718437) scale(0.1 -0.1)">
       <use xlink:href="#DejaVuSans-31"/>
       <use xlink:href="#DejaVuSans-35" x="63.623047"/>
       <use xlink:href="#DejaVuSans-30" x="127.246094"/>
      </g>
     </g>
    </g>
    <g id="xtick_5">
     <g id="line2d_5">
      <g>
       <use xlink:href="#m3f84a0d9da" x="900.276572" y="548.12" style="stroke: #000000; stroke-width: 0.8"/>
      </g>
     </g>
     <g id="text_5">
      <!-- 200 -->
      <g transform="translate(890.732822 562.718437) scale(0.1 -0.1)">
       <defs>
        <path id="DejaVuSans-32" d="M 1228 531 
L 3431 531 
L 3431 0 
L 469 0 
L 469 531 
Q 828 903 1448 1529 
Q 2069 2156 2228 2338 
Q 2531 2678 2651 2914 
Q 2772 3150 2772 3378 
Q 2772 3750 2511 3984 
Q 2250 4219 1831 4219 
Q 1534 4219 1204 4116 
Q 875 4013 500 3803 
L 500 4441 
Q 881 4594 1212 4672 
Q 1544 4750 1819 4750 
Q 2544 4750 2975 4387 
Q 3406 4025 3406 3419 
Q 3406 3131 3298 2873 
Q 3191 2616 2906 2266 
Q 2828 2175 2409 1742 
Q 1991 1309 1228 531 
z
" transform="scale(0.015625)"/>
       </defs>
       <use xlink:href="#DejaVuSans-32"/>
       <use xlink:href="#DejaVuSans-30" x="63.623047"/>
       <use xlink:href="#DejaVuSans-30" x="127.246094"/>
      </g>
     </g>
    </g>
    <g id="xtick_6">
     <g id="line2d_6">
      <g>
       <use xlink:href="#m3f84a0d9da" x="1103.244919" y="548.12" style="stroke: #000000; stroke-width: 0.8"/>
      </g>
     </g>
     <g id="text_6">
      <!-- 250 -->
      <g transform="translate(1093.701169 562.718437) scale(0.1 -0.1)">
       <use xlink:href="#DejaVuSans-32"/>
       <use xlink:href="#DejaVuSans-35" x="63.623047"/>
       <use xlink:href="#DejaVuSans-30" x="127.246094"/>
      </g>
     </g>
    </g>
   </g>
   <g id="matplotlib.axis_2">
    <g id="ytick_1">
     <g id="line2d_7">
      <defs>
       <path id="m1726dd4717" d="M 0 0 
L -3.5 0 
" style="stroke: #000000; stroke-width: 0.8"/>
      </defs>
      <g>
       <use xlink:href="#m1726dd4717" x="38.27" y="548.12" style="stroke: #000000; stroke-width: 0.8"/>
      </g>
     </g>
     <g id="text_7">
      <!-- 0 -->
      <g transform="translate(24.9075 551.919219) scale(0.1 -0.1)">
       <use xlink:href="#DejaVuSans-30"/>
      </g>
     </g>
    </g>
    <g id="ytick_2">
     <g id="line2d_8">
      <g>
       <use xlink:href="#m1726dd4717" x="38.27" y="429.280834" style="stroke: #000000; stroke-width: 0.8"/>
      </g>
     </g>
     <g id="text_8">
      <!-- 1 -->
      <g transform="translate(24.9075 433.080053) scale(0.1 -0.1)">
       <use xlink:href="#DejaVuSans-31"/>
      </g>
     </g>
    </g>
    <g id="ytick_3">
     <g id="line2d_9">
      <g>
       <use xlink:href="#m1726dd4717" x="38.27" y="310.441668" style="stroke: #000000; stroke-width: 0.8"/>
      </g>
     </g>
     <g id="text_9">
      <!-- 2 -->
      <g transform="translate(24.9075 314.240886) scale(0.1 -0.1)">
       <use xlink:href="#DejaVuSans-32"/>
      </g>
     </g>
    </g>
    <g id="ytick_4">
     <g id="line2d_10">
      <g>
       <use xlink:href="#m1726dd4717" x="38.27" y="191.602502" style="stroke: #000000; stroke-width: 0.8"/>
      </g>
     </g>
     <g id="text_10">
      <!-- 3 -->
      <g transform="translate(24.9075 195.40172) scale(0.1 -0.1)">
       <defs>
        <path id="DejaVuSans-33" d="M 2597 2516 
Q 3050 2419 3304 2112 
Q 3559 1806 3559 1356 
Q 3559 666 3084 287 
Q 2609 -91 1734 -91 
Q 1441 -91 1130 -33 
Q 819 25 488 141 
L 488 750 
Q 750 597 1062 519 
Q 1375 441 1716 441 
Q 2309 441 2620 675 
Q 2931 909 2931 1356 
Q 2931 1769 2642 2001 
Q 2353 2234 1838 2234 
L 1294 2234 
L 1294 2753 
L 1863 2753 
Q 2328 2753 2575 2939 
Q 2822 3125 2822 3475 
Q 2822 3834 2567 4026 
Q 2313 4219 1838 4219 
Q 1578 4219 1281 4162 
Q 984 4106 628 3988 
L 628 4550 
Q 988 4650 1302 4700 
Q 1616 4750 1894 4750 
Q 2613 4750 3031 4423 
Q 3450 4097 3450 3541 
Q 3450 3153 3228 2886 
Q 3006 2619 2597 2516 
z
" transform="scale(0.015625)"/>
       </defs>
       <use xlink:href="#DejaVuSans-33"/>
      </g>
     </g>
    </g>
    <g id="ytick_5">
     <g id="line2d_11">
      <g>
       <use xlink:href="#m1726dd4717" x="38.27" y="72.763335" style="stroke: #000000; stroke-width: 0.8"/>
      </g>
     </g>
     <g id="text_11">
      <!-- 4 -->
      <g transform="translate(24.9075 76.562554) scale(0.1 -0.1)">
       <defs>
        <path id="DejaVuSans-34" d="M 2419 4116 
L 825 1625 
L 2419 1625 
L 2419 4116 
z
M 2253 4666 
L 3047 4666 
L 3047 1625 
L 3713 1625 
L 3713 1100 
L 3047 1100 
L 3047 0 
L 2419 0 
L 2419 1100 
L 313 1100 
L 313 1709 
L 2253 4666 
z
" transform="scale(0.015625)"/>
       </defs>
       <use xlink:href="#DejaVuSans-34"/>
      </g>
     </g>
    </g>
    <g id="text_12">
     <!-- milliseconds -->
     <g transform="translate(18.827812 310.324063) rotate(-90) scale(0.1 -0.1)">
      <defs>
       <path id="DejaVuSans-6d" d="M 3328 2828 
Q 3544 3216 3844 3400 
Q 4144 3584 4550 3584 
Q 5097 3584 5394 3201 
Q 5691 2819 5691 2113 
L 5691 0 
L 5113 0 
L 5113 2094 
Q 5113 2597 4934 2840 
Q 4756 3084 4391 3084 
Q 3944 3084 3684 2787 
Q 3425 2491 3425 1978 
L 3425 0 
L 2847 0 
L 2847 2094 
Q 2847 2600 2669 2842 
Q 2491 3084 2119 3084 
Q 1678 3084 1418 2786 
Q 1159 2488 1159 1978 
L 1159 0 
L 581 0 
L 581 3500 
L 1159 3500 
L 1159 2956 
Q 1356 3278 1631 3431 
Q 1906 3584 2284 3584 
Q 2666 3584 2933 3390 
Q 3200 3197 3328 2828 
z
" transform="scale(0.015625)"/>
       <path id="DejaVuSans-69" d="M 603 3500 
L 1178 3500 
L 1178 0 
L 603 0 
L 603 3500 
z
M 603 4863 
L 1178 4863 
L 1178 4134 
L 603 4134 
L 603 4863 
z
" transform="scale(0.015625)"/>
       <path id="DejaVuSans-6c" d="M 603 4863 
L 1178 4863 
L 1178 0 
L 603 0 
L 603 4863 
z
" transform="scale(0.015625)"/>
       <path id="DejaVuSans-73" d="M 2834 3397 
L 2834 2853 
Q 2591 2978 2328 3040 
Q 2066 3103 1784 3103 
Q 1356 3103 1142 2972 
Q 928 2841 928 2578 
Q 928 2378 1081 2264 
Q 1234 2150 1697 2047 
L 1894 2003 
Q 2506 1872 2764 1633 
Q 3022 1394 3022 966 
Q 3022 478 2636 193 
Q 2250 -91 1575 -91 
Q 1294 -91 989 -36 
Q 684 19 347 128 
L 347 722 
Q 666 556 975 473 
Q 1284 391 1588 391 
Q 1994 391 2212 530 
Q 2431 669 2431 922 
Q 2431 1156 2273 1281 
Q 2116 1406 1581 1522 
L 1381 1569 
Q 847 1681 609 1914 
Q 372 2147 372 2553 
Q 372 3047 722 3315 
Q 1072 3584 1716 3584 
Q 2034 3584 2315 3537 
Q 2597 3491 2834 3397 
z
" transform="scale(0.015625)"/>
       <path id="DejaVuSans-65" d="M 3597 1894 
L 3597 1613 
L 953 1613 
Q 991 1019 1311 708 
Q 1631 397 2203 397 
Q 2534 397 2845 478 
Q 3156 559 3463 722 
L 3463 178 
Q 3153 47 2828 -22 
Q 2503 -91 2169 -91 
Q 1331 -91 842 396 
Q 353 884 353 1716 
Q 353 2575 817 3079 
Q 1281 3584 2069 3584 
Q 2775 3584 3186 3129 
Q 3597 2675 3597 1894 
z
M 3022 2063 
Q 3016 2534 2758 2815 
Q 2500 3097 2075 3097 
Q 1594 3097 1305 2825 
Q 1016 2553 972 2059 
L 3022 2063 
z
" transform="scale(0.015625)"/>
       <path id="DejaVuSans-63" d="M 3122 3366 
L 3122 2828 
Q 2878 2963 2633 3030 
Q 2388 3097 2138 3097 
Q 1578 3097 1268 2742 
Q 959 2388 959 1747 
Q 959 1106 1268 751 
Q 1578 397 2138 397 
Q 2388 397 2633 464 
Q 2878 531 3122 666 
L 3122 134 
Q 2881 22 2623 -34 
Q 2366 -91 2075 -91 
Q 1284 -91 818 406 
Q 353 903 353 1747 
Q 353 2603 823 3093 
Q 1294 3584 2113 3584 
Q 2378 3584 2631 3529 
Q 2884 3475 3122 3366 
z
" transform="scale(0.015625)"/>
       <path id="DejaVuSans-6f" d="M 1959 3097 
Q 1497 3097 1228 2736 
Q 959 2375 959 1747 
Q 959 1119 1226 758 
Q 1494 397 1959 397 
Q 2419 397 2687 759 
Q 2956 1122 2956 1747 
Q 2956 2369 2687 2733 
Q 2419 3097 1959 3097 
z
M 1959 3584 
Q 2709 3584 3137 3096 
Q 3566 2609 3566 1747 
Q 3566 888 3137 398 
Q 2709 -91 1959 -91 
Q 1206 -91 779 398 
Q 353 888 353 1747 
Q 353 2609 779 3096 
Q 1206 3584 1959 3584 
z
" transform="scale(0.015625)"/>
       <path id="DejaVuSans-6e" d="M 3513 2113 
L 3513 0 
L 2938 0 
L 2938 2094 
Q 2938 2591 2744 2837 
Q 2550 3084 2163 3084 
Q 1697 3084 1428 2787 
Q 1159 2491 1159 1978 
L 1159 0 
L 581 0 
L 581 3500 
L 1159 3500 
L 1159 2956 
Q 1366 3272 1645 3428 
Q 1925 3584 2291 3584 
Q 2894 3584 3203 3211 
Q 3513 2838 3513 2113 
z
" transform="scale(0.015625)"/>
       <path id="DejaVuSans-64" d="M 2906 2969 
L 2906 4863 
L 3481 4863 
L 3481 0 
L 2906 0 
L 2906 525 
Q 2725 213 2448 61 
Q 2172 -91 1784 -91 
Q 1150 -91 751 415 
Q 353 922 353 1747 
Q 353 2572 751 3078 
Q 1150 3584 1784 3584 
Q 2172 3584 2448 3432 
Q 2725 3281 2906 2969 
z
M 947 1747 
Q 947 1113 1208 752 
Q 1469 391 1925 391 
Q 2381 391 2643 752 
Q 2906 1113 2906 1747 
Q 2906 2381 2643 2742 
Q 2381 3103 1925 3103 
Q 1469 3103 1208 2742 
Q 947 2381 947 1747 
z
" transform="scale(0.015625)"/>
      </defs>
      <use xlink:href="#DejaVuSans-6d"/>
      <use xlink:href="#DejaVuSans-69" x="97.412109"/>
      <use xlink:href="#DejaVuSans-6c" x="125.195312"/>
      <use xlink:href="#DejaVuSans-6c" x="152.978516"/>
      <use xlink:href="#DejaVuSans-69" x="180.761719"/>
      <use xlink:href="#DejaVuSans-73" x="208.544922"/>
      <use xlink:href="#DejaVuSans-65" x="260.644531"/>
      <use xlink:href="#DejaVuSans-63" x="322.167969"/>
      <use xlink:href="#DejaVuSans-6f" x="377.148438"/>
      <use xlink:href="#DejaVuSans-6e" x="438.330078"/>
      <use xlink:href="#DejaVuSans-64" x="501.708984"/>
      <use xlink:href="#DejaVuSans-73" x="565.185547"/>
     </g>
    </g>
   </g>
   <g id="line2d_12">
    <path d="M 88.403182 390.016373 
L 92.462549 385.583672 
L 96.521916 380.865758 
L 100.581283 379.320848 
L 104.64065 377.241163 
L 108.700017 371.429928 
L 112.759384 367.472584 
L 116.81875 363.94306 
L 120.878117 361.079036 
L 124.937484 360.87701 
L 128.996851 359.605431 
L 133.056218 359.213261 
L 137.115585 355.362873 
L 141.174952 352.938554 
L 145.234319 351.179734 
L 149.293686 350.953939 
L 153.353053 347.16297 
L 157.41242 346.247908 
L 161.471787 337.156712 
L 165.531154 321.683853 
L 169.590521 315.599288 
L 173.649888 282.276785 
L 177.709255 280.613037 
L 181.768622 257.510703 
L 185.827989 232.875344 
L 189.887356 227.480046 
L 193.946722 221.193454 
L 198.006089 220.694329 
L 202.065456 218.305662 
L 206.124823 204.12815 
L 210.18419 204.044962 
L 214.243557 202.298027 
L 218.302924 201.561224 
L 222.362291 197.663299 
L 226.421658 197.473156 
L 230.481025 195.654917 
L 234.540392 195.464774 
L 238.599759 193.135527 
L 242.659126 192.695822 
L 250.77786 192.256117 
L 254.837227 191.899599 
L 258.896594 190.188315 
L 262.955961 186.967774 
L 267.015328 186.635024 
L 271.074695 186.064596 
L 275.134061 183.866072 
L 279.193428 182.784635 
L 283.252795 182.024065 
L 287.312162 179.029318 
L 291.371529 178.530193 
L 299.490263 177.805274 
L 303.54963 175.642402 
L 307.608997 175.250232 
L 311.668364 174.66792 
L 315.727731 172.112878 
L 319.787098 170.734344 
L 327.905832 169.486533 
L 331.965199 169.272622 
L 336.024566 167.822784 
L 340.083933 167.490035 
L 344.1433 167.359312 
L 348.202667 166.622509 
L 356.3214 166.016429 
L 360.380767 165.95701 
L 364.440134 165.279626 
L 372.558868 165.030064 
L 376.618235 164.4121 
L 380.677602 163.390084 
L 384.736969 163.116753 
L 388.796336 163.081102 
L 392.855703 161.548076 
L 396.91507 160.858809 
L 405.033804 160.419104 
L 409.093171 159.420855 
L 417.211905 158.018553 
L 421.271272 157.460009 
L 425.330639 156.509296 
L 429.390006 155.772493 
L 433.449372 154.679173 
L 445.627473 153.657156 
L 449.68684 153.562084 
L 453.746207 152.932237 
L 457.805574 151.815149 
L 461.864941 151.494283 
L 465.924308 150.163284 
L 469.983675 149.961258 
L 478.102409 148.345045 
L 482.161776 148.012295 
L 494.339877 147.346796 
L 498.399244 146.907091 
L 502.458611 146.194056 
L 506.517978 146.087101 
L 510.577344 145.611744 
L 514.636711 144.340165 
L 518.696078 144.102487 
L 522.755445 143.722202 
L 534.933546 143.341916 
L 543.05228 141.880194 
L 547.111647 141.190927 
L 551.171014 141.024552 
L 555.230381 140.252098 
L 567.408482 140.061955 
L 575.527216 139.123126 
L 579.586583 138.837912 
L 583.64595 138.683421 
L 591.764683 137.970386 
L 595.82405 137.875315 
L 599.883417 137.138512 
L 603.942784 136.175914 
L 612.061518 136.033307 
L 620.180252 134.916219 
L 624.239619 134.833032 
L 628.298986 134.500282 
L 632.358353 133.953622 
L 640.477087 133.811015 
L 644.536454 133.656524 
L 648.595821 132.979141 
L 652.655188 132.919721 
L 656.714555 132.705811 
L 660.773922 132.135383 
L 668.892656 131.766981 
L 672.952022 131.351044 
L 677.011389 131.208437 
L 681.070756 130.079465 
L 685.130123 129.722948 
L 689.18949 129.592225 
L 693.248857 128.831654 
L 701.367591 128.748467 
L 705.426958 127.239209 
L 709.486325 126.942111 
L 717.605059 126.84704 
L 721.664426 126.324148 
L 725.723793 126.276612 
L 729.78316 125.75372 
L 733.842527 125.385318 
L 746.020628 124.993149 
L 750.079994 124.505908 
L 754.139361 123.674034 
L 766.317462 123.341285 
L 770.376829 122.794624 
L 774.436196 122.438107 
L 778.495563 122.247964 
L 782.55493 121.938982 
L 786.614297 121.487394 
L 790.673664 121.41609 
L 794.733031 121.166528 
L 798.792398 120.691171 
L 806.911132 119.99002 
L 810.970499 118.861048 
L 815.029866 118.706557 
L 819.089233 117.007157 
L 823.1486 116.947737 
L 827.207967 116.151515 
L 847.504801 115.830649 
L 851.564168 115.367176 
L 855.623535 113.917339 
L 859.682902 112.812134 
L 863.742269 112.669527 
L 867.801636 111.647511 
L 871.861003 111.21969 
L 875.92037 110.542306 
L 879.979737 110.138253 
L 888.098471 109.033049 
L 892.157838 109.021165 
L 896.217205 108.676531 
L 904.335939 108.628996 
L 908.395305 107.868425 
L 912.454672 107.559443 
L 916.514039 105.741204 
L 920.573406 104.992517 
L 936.810874 103.81601 
L 940.870241 103.471376 
L 944.929608 102.591966 
L 948.988975 102.259216 
L 953.048342 101.486762 
L 957.107709 101.082709 
L 961.167076 99.941853 
L 973.345177 98.860416 
L 977.404544 97.517534 
L 981.463911 96.008276 
L 985.523278 95.223938 
L 993.642011 94.736697 
L 997.701378 94.499019 
L 1001.760745 94.439599 
L 1005.820112 93.976127 
L 1009.879479 92.538173 
L 1013.938846 91.955861 
L 1017.998213 91.765718 
L 1022.05758 90.898192 
L 1026.116947 90.850657 
L 1030.176314 90.672398 
L 1034.235681 89.995015 
L 1038.295048 87.428089 
L 1042.354415 84.540297 
L 1046.413782 83.328137 
L 1050.473149 82.793361 
L 1054.532516 82.115978 
L 1058.591883 80.784979 
L 1062.65125 79.727311 
L 1066.710616 76.031412 
L 1070.769983 74.129986 
L 1074.82935 73.416951 
L 1078.888717 70.374668 
L 1082.948084 64.741692 
L 1087.007451 60.178268 
L 1091.066818 36.386667 
L 1091.066818 36.386667 
" clip-path="url(#p4b2fc4edc5)" style="fill: none; stroke: #1f77b4; stroke-width: 5; stroke-linecap: square"/>
   </g>
   <g id="line2d_13">
    <path d="M 88.403182 336.479329 
L 92.462549 317.334339 
L 96.521916 323.133691 
L 100.581283 328.576524 
L 104.64065 336.514981 
L 108.700017 337.025989 
L 112.759384 325.629313 
L 116.81875 335.671223 
L 120.878117 339.48596 
L 124.937484 325.379751 
L 128.996851 323.597163 
L 133.056218 320.519229 
L 137.115585 323.573396 
L 141.174952 322.729637 
L 145.234319 330.98896 
L 149.293686 327.031615 
L 153.353053 322.610798 
L 157.41242 317.298688 
L 161.471787 321.315451 
L 165.531154 318.546499 
L 169.590521 320.329086 
L 173.649888 301.445543 
L 177.709255 298.831081 
L 181.768622 291.974061 
L 185.827989 298.783546 
L 189.887356 294.754898 
L 193.946722 294.956924 
L 198.006089 288.076137 
L 202.065456 290.607411 
L 206.124823 284.249515 
L 210.18419 290.001331 
L 214.243557 286.816441 
L 218.302924 291.189723 
L 222.362291 298.058627 
L 226.421658 284.451542 
L 230.481025 291.724499 
L 234.540392 295.788799 
L 238.599759 292.045365 
L 242.659126 289.419019 
L 246.718493 286.11529 
L 250.77786 294.778666 
L 254.837227 280.399127 
L 258.896594 295.27779 
L 262.955961 294.267657 
L 267.015328 285.212113 
L 271.074695 295.408513 
L 275.134061 285.010086 
L 279.193428 287.493825 
L 283.252795 283.179963 
L 287.312162 289.466555 
L 291.371529 289.062502 
L 295.430896 282.870981 
L 299.490263 291.890874 
L 303.54963 285.223997 
L 307.608997 285.449791 
L 311.668364 288.848591 
L 315.727731 285.556746 
L 319.787098 290.72625 
L 323.846465 285.426023 
L 327.905832 286.44804 
L 331.965199 286.150942 
L 336.024566 287.006584 
L 340.083933 281.813313 
L 344.1433 279.008708 
L 348.202667 273.375732 
L 352.262033 286.17471 
L 356.3214 288.789172 
L 360.380767 280.541734 
L 364.440134 273.696598 
L 368.499501 286.792674 
L 372.558868 280.957671 
L 376.618235 281.266652 
L 380.677602 273.720365 
L 384.736969 285.877612 
L 388.796336 285.247764 
L 392.855703 283.940534 
L 396.91507 291.284794 
L 400.974437 278.949289 
L 405.033804 282.44316 
L 409.093171 281.670706 
L 413.152538 281.433027 
L 417.211905 276.049613 
L 421.271272 285.045738 
L 425.330639 289.24076 
L 429.390006 282.062875 
L 433.449372 280.838831 
L 437.508739 280.969555 
L 441.568106 286.875861 
L 445.627473 280.577385 
L 449.68684 282.490696 
L 453.746207 286.875861 
L 457.805574 276.513086 
L 461.864941 277.535103 
L 465.924308 282.894749 
L 469.983675 279.92377 
L 474.043042 283.643436 
L 478.102409 280.13768 
L 482.161776 282.253018 
L 486.221143 280.553617 
L 490.28051 279.59102 
L 494.339877 280.506082 
L 498.399244 280.589269 
L 502.458611 279.638556 
L 506.517978 281.706357 
L 510.577344 274.112535 
L 514.636711 281.302304 
L 518.696078 281.718241 
L 522.755445 283.215615 
L 526.814812 279.947538 
L 530.874179 283.762275 
L 534.933546 278.675959 
L 538.992913 286.697602 
L 543.05228 283.441409 
L 547.111647 279.781163 
L 551.171014 280.922019 
L 555.230381 273.756017 
L 559.289748 281.468679 
L 563.349115 273.839205 
L 567.408482 275.954542 
L 571.467849 281.611286 
L 575.527216 284.784292 
L 579.586583 274.659195 
L 583.64595 284.843711 
L 587.705317 282.77591 
L 591.764683 279.662324 
L 595.82405 280.52985 
L 599.883417 278.759146 
L 603.942784 280.375359 
L 608.002151 276.857719 
L 612.061518 275.752515 
L 616.120885 280.815064 
L 620.180252 277.083514 
L 624.239619 282.977936 
L 628.298986 279.507833 
L 632.358353 282.811562 
L 636.41772 280.506082 
L 640.477087 270.238378 
L 644.536454 279.674208 
L 648.595821 282.431276 
L 652.655188 274.255142 
L 656.714555 279.579136 
L 660.773922 280.517966 
L 664.833289 275.930774 
L 668.892656 279.626672 
L 672.952022 276.049613 
L 677.011389 271.343582 
L 681.070756 278.973057 
L 685.130123 278.4977 
L 689.18949 270.785038 
L 693.248857 279.068128 
L 701.367591 281.361724 
L 705.426958 281.373608 
L 709.486325 276.382363 
L 713.545692 265.282785 
L 717.605059 275.514837 
L 721.664426 274.896873 
L 725.723793 276.168452 
L 729.78316 274.813686 
L 733.842527 281.112162 
L 737.901894 272.567625 
L 741.961261 278.675959 
L 746.020628 275.716863 
L 750.079994 276.774532 
L 754.139361 274.053115 
L 758.198728 280.232752 
L 762.258095 274.528472 
L 766.317462 280.125796 
L 770.376829 281.492447 
L 774.436196 277.772781 
L 778.495563 276.715112 
L 782.55493 277.962924 
L 786.614297 271.09402 
L 790.673664 279.709859 
L 794.733031 278.295673 
L 798.792398 278.105531 
L 802.851765 275.479185 
L 806.911132 276.976559 
L 810.970499 276.501202 
L 815.029866 276.501202 
L 819.089233 277.428147 
L 823.1486 275.075132 
L 827.207967 278.818566 
L 831.267333 276.489318 
L 835.3267 278.723494 
L 839.386067 275.289042 
L 843.445434 272.722116 
L 847.504801 274.980061 
L 851.564168 276.429898 
L 855.623535 274.659195 
L 859.682902 273.411384 
L 863.742269 274.564123 
L 867.801636 281.670706 
L 871.861003 273.791669 
L 875.92037 275.598024 
L 879.979737 271.082136 
L 884.039104 279.115664 
L 888.098471 272.413135 
L 892.157838 273.245009 
L 896.217205 276.061497 
L 904.335939 269.656066 
L 908.395305 274.005579 
L 912.454672 253.802921 
L 916.514039 264.332071 
L 920.573406 273.447035 
L 924.632773 273.292544 
L 928.69214 271.189091 
L 932.751507 272.591393 
L 936.810874 270.262146 
L 940.870241 273.720365 
L 944.929608 274.884989 
L 948.988975 273.28066 
L 957.107709 271.961546 
L 961.167076 272.020965 
L 965.226443 274.064999 
L 969.28581 270.392869 
L 973.345177 280.018841 
L 977.404544 267.136676 
L 981.463911 271.355466 
L 985.523278 273.696598 
L 989.582644 276.180336 
L 993.642011 276.049613 
L 997.701378 274.207606 
L 1001.760745 272.531974 
L 1005.820112 264.664821 
L 1009.879479 269.442155 
L 1013.938846 255.454786 
L 1017.998213 270.416637 
L 1022.05758 271.676332 
L 1026.116947 272.270528 
L 1030.176314 273.304428 
L 1034.235681 273.969928 
L 1038.295048 269.763021 
L 1042.354415 270.82069 
L 1046.413782 273.054866 
L 1050.473149 271.807055 
L 1054.532516 271.866474 
L 1058.591883 268.954915 
L 1062.65125 274.267026 
L 1066.710616 271.153439 
L 1070.769983 271.890242 
L 1074.82935 256.239124 
L 1078.888717 273.149937 
L 1082.948084 271.165323 
L 1087.007451 269.596646 
L 1091.066818 271.735751 
L 1091.066818 271.735751 
" clip-path="url(#p4b2fc4edc5)" style="fill: none; stroke: #ff7f0e; stroke-width: 1.5; stroke-linecap: square"/>
   </g>
   <g id="patch_3">
    <path d="M 38.27 548.12 
L 38.27 10.8 
" style="fill: none; stroke: #000000; stroke-width: 0.8; stroke-linejoin: miter; stroke-linecap: square"/>
   </g>
   <g id="patch_4">
    <path d="M 1141.2 548.12 
L 1141.2 10.8 
" style="fill: none; stroke: #000000; stroke-width: 0.8; stroke-linejoin: miter; stroke-linecap: square"/>
   </g>
   <g id="patch_5">
    <path d="M 38.27 548.12 
L 1141.2 548.12 
" style="fill: none; stroke: #000000; stroke-width: 0.8; stroke-linejoin: miter; stroke-linecap: square"/>
   </g>
   <g id="patch_6">
    <path d="M 38.27 10.8 
L 1141.2 10.8 
" style="fill: none; stroke: #000000; stroke-width: 0.8; stroke-linejoin: miter; stroke-linecap: square"/>
   </g>
   <g id="legend_1">
    <g id="patch_7">
     <path d="M 45.27 48.15625 
L 138.327812 48.15625 
Q 140.327812 48.15625 140.327812 46.15625 
L 140.327812 17.8 
Q 140.327812 15.8 138.327812 15.8 
L 45.27 15.8 
Q 43.27 15.8 43.27 17.8 
L 43.27 46.15625 
Q 43.27 48.15625 45.27 48.15625 
z
" style="fill: #ffffff; opacity: 0.8; stroke: #cccccc; stroke-linejoin: miter"/>
    </g>
    <g id="line2d_14">
     <path d="M 47.27 23.898438 
L 57.27 23.898438 
L 67.27 23.898438 
" style="fill: none; stroke: #1f77b4; stroke-width: 5; stroke-linecap: square"/>
    </g>
    <g id="text_13">
     <!-- PNG decode -->
     <g transform="translate(75.27 27.398438) scale(0.1 -0.1)">
      <defs>
       <path id="DejaVuSans-50" d="M 1259 4147 
L 1259 2394 
L 2053 2394 
Q 2494 2394 2734 2622 
Q 2975 2850 2975 3272 
Q 2975 3691 2734 3919 
Q 2494 4147 2053 4147 
L 1259 4147 
z
M 628 4666 
L 2053 4666 
Q 2838 4666 3239 4311 
Q 3641 3956 3641 3272 
Q 3641 2581 3239 2228 
Q 2838 1875 2053 1875 
L 1259 1875 
L 1259 0 
L 628 0 
L 628 4666 
z
" transform="scale(0.015625)"/>
       <path id="DejaVuSans-4e" d="M 628 4666 
L 1478 4666 
L 3547 763 
L 3547 4666 
L 4159 4666 
L 4159 0 
L 3309 0 
L 1241 3903 
L 1241 0 
L 628 0 
L 628 4666 
z
" transform="scale(0.015625)"/>
       <path id="DejaVuSans-47" d="M 3809 666 
L 3809 1919 
L 2778 1919 
L 2778 2438 
L 4434 2438 
L 4434 434 
Q 4069 175 3628 42 
Q 3188 -91 2688 -91 
Q 1594 -91 976 548 
Q 359 1188 359 2328 
Q 359 3472 976 4111 
Q 1594 4750 2688 4750 
Q 3144 4750 3555 4637 
Q 3966 4525 4313 4306 
L 4313 3634 
Q 3963 3931 3569 4081 
Q 3175 4231 2741 4231 
Q 1884 4231 1454 3753 
Q 1025 3275 1025 2328 
Q 1025 1384 1454 906 
Q 1884 428 2741 428 
Q 3075 428 3337 486 
Q 3600 544 3809 666 
z
" transform="scale(0.015625)"/>
       <path id="DejaVuSans-20" transform="scale(0.015625)"/>
      </defs>
      <use xlink:href="#DejaVuSans-50"/>
      <use xlink:href="#DejaVuSans-4e" x="60.302734"/>
      <use xlink:href="#DejaVuSans-47" x="135.107422"/>
      <use xlink:href="#DejaVuSans-20" x="212.597656"/>
      <use xlink:href="#DejaVuSans-64" x="244.384766"/>
      <use xlink:href="#DejaVuSans-65" x="307.861328"/>
      <use xlink:href="#DejaVuSans-63" x="369.384766"/>
      <use xlink:href="#DejaVuSans-6f" x="424.365234"/>
      <use xlink:href="#DejaVuSans-64" x="485.546875"/>
      <use xlink:href="#DejaVuSans-65" x="549.023438"/>
     </g>
    </g>
    <g id="line2d_15">
     <path d="M 47.27 38.576563 
L 57.27 38.576563 
L 67.27 38.576563 
" style="fill: none; stroke: #ff7f0e; stroke-width: 1.5; stroke-linecap: square"/>
    </g>
    <g id="text_14">
     <!-- QB3 decode -->
     <g transform="translate(75.27 42.076563) scale(0.1 -0.1)">
      <defs>
       <path id="DejaVuSans-51" d="M 2522 4238 
Q 1834 4238 1429 3725 
Q 1025 3213 1025 2328 
Q 1025 1447 1429 934 
Q 1834 422 2522 422 
Q 3209 422 3611 934 
Q 4013 1447 4013 2328 
Q 4013 3213 3611 3725 
Q 3209 4238 2522 4238 
z
M 3406 84 
L 4238 -825 
L 3475 -825 
L 2784 -78 
Q 2681 -84 2626 -87 
Q 2572 -91 2522 -91 
Q 1538 -91 948 567 
Q 359 1225 359 2328 
Q 359 3434 948 4092 
Q 1538 4750 2522 4750 
Q 3503 4750 4090 4092 
Q 4678 3434 4678 2328 
Q 4678 1516 4351 937 
Q 4025 359 3406 84 
z
" transform="scale(0.015625)"/>
       <path id="DejaVuSans-42" d="M 1259 2228 
L 1259 519 
L 2272 519 
Q 2781 519 3026 730 
Q 3272 941 3272 1375 
Q 3272 1813 3026 2020 
Q 2781 2228 2272 2228 
L 1259 2228 
z
M 1259 4147 
L 1259 2741 
L 2194 2741 
Q 2656 2741 2882 2914 
Q 3109 3088 3109 3444 
Q 3109 3797 2882 3972 
Q 2656 4147 2194 4147 
L 1259 4147 
z
M 628 4666 
L 2241 4666 
Q 2963 4666 3353 4366 
Q 3744 4066 3744 3513 
Q 3744 3084 3544 2831 
Q 3344 2578 2956 2516 
Q 3422 2416 3680 2098 
Q 3938 1781 3938 1306 
Q 3938 681 3513 340 
Q 3088 0 2303 0 
L 628 0 
L 628 4666 
z
" transform="scale(0.015625)"/>
      </defs>
      <use xlink:href="#DejaVuSans-51"/>
      <use xlink:href="#DejaVuSans-42" x="78.710938"/>
      <use xlink:href="#DejaVuSans-33" x="147.314453"/>
      <use xlink:href="#DejaVuSans-20" x="210.9375"/>
      <use xlink:href="#DejaVuSans-64" x="242.724609"/>
      <use xlink:href="#DejaVuSans-65" x="306.201172"/>
      <use xlink:href="#DejaVuSans-63" x="367.724609"/>
      <use xlink:href="#DejaVuSans-6f" x="422.705078"/>
      <use xlink:href="#DejaVuSans-64" x="483.886719"/>
      <use xlink:href="#DejaVuSans-65" x="547.363281"/>
     </g>
    </g>
   </g>
  </g>
 </g>
 <defs>
  <clipPath id="p4b2fc4edc5">
   <rect x="38.27" y="10.8" width="1102.93" height="537.32"/>
  </clipPath>
 </defs>
</svg>
