<?xml version="1.0" encoding="utf-8" standalone="no"?>
<!DOCTYPE svg PUBLIC "-//W3C//DTD SVG 1.1//EN"
  "http://www.w3.org/Graphics/SVG/1.1/DTD/svg11.dtd">
<svg xmlns:xlink="http://www.w3.org/1999/xlink" width="1152pt" height="576pt" viewBox="0 0 1152 576" xmlns="http://www.w3.org/2000/svg" version="1.1">
 <metadata>
  <rdf:RDF xmlns:dc="http://purl.org/dc/elements/1.1/" xmlns:cc="http://creativecommons.org/ns#" xmlns:rdf="http://www.w3.org/1999/02/22-rdf-syntax-ns#">
   <cc:Work>
    <dc:type rdf:resource="http://purl.org/dc/dcmitype/StillImage"/>
    <dc:date>2025-04-28T13:27:37.046573</dc:date>
    <dc:format>image/svg+xml</dc:format>
    <dc:creator>
     <cc:Agent>
      <dc:title>Matplotlib v3.9.0, https://matplotlib.org/</dc:title>
     </cc:Agent>
    </dc:creator>
   </cc:Work>
  </rdf:RDF>
 </metadata>
 <defs>
  <style type="text/css">*{stroke-linejoin: round; stroke-linecap: butt}</style>
 </defs>
 <g id="figure_1">
  <g id="patch_1">
   <path d="M 0 576 
L 1152 576 
L 1152 0 
L 0 0 
z
" style="fill: #ffffff"/>
  </g>
  <g id="axes_1">
   <g id="patch_2">
    <path d="M 47.72 548.12 
L 1141.2 548.12 
L 1141.2 10.8 
L 47.72 10.8 
z
" style="fill: #ffffff"/>
   </g>
   <g id="matplotlib.axis_1">
    <g id="xtick_1">
     <g id="line2d_1">
      <defs>
       <path id="mb7fd67d1dd" d="M 0 0 
L 0 3.5 
" style="stroke: #000000; stroke-width: 0.8"/>
      </defs>
      <g>
       <use xlink:href="#mb7fd67d1dd" x="97.423636" y="548.12" style="stroke: #000000; stroke-width: 0.8"/>
      </g>
     </g>
     <g id="text_1">
      <!-- 0 -->
      <g transform="translate(94.242386 562.718437) scale(0.1 -0.1)">
       <defs>
        <path id="DejaVuSans-30" d="M 2034 4250 
Q 1547 4250 1301 3770 
Q 1056 3291 1056 2328 
Q 1056 1369 1301 889 
Q 1547 409 2034 409 
Q 2525 409 2770 889 
Q 3016 1369 3016 2328 
Q 3016 3291 2770 3770 
Q 2525 4250 2034 4250 
z
M 2034 4750 
Q 2819 4750 3233 4129 
Q 3647 3509 3647 2328 
Q 3647 1150 3233 529 
Q 2819 -91 2034 -91 
Q 1250 -91 836 529 
Q 422 1150 422 2328 
Q 422 3509 836 4129 
Q 1250 4750 2034 4750 
z
" transform="scale(0.015625)"/>
       </defs>
       <use xlink:href="#DejaVuSans-30"/>
      </g>
     </g>
    </g>
    <g id="xtick_2">
     <g id="line2d_2">
      <g>
       <use xlink:href="#mb7fd67d1dd" x="298.652933" y="548.12" style="stroke: #000000; stroke-width: 0.8"/>
      </g>
     </g>
     <g id="text_2">
      <!-- 50 -->
      <g transform="translate(292.290433 562.718437) scale(0.1 -0.1)">
       <defs>
        <path id="DejaVuSans-35" d="M 691 4666 
L 3169 4666 
L 3169 4134 
L 1269 4134 
L 1269 2991 
Q 1406 3038 1543 3061 
Q 1681 3084 1819 3084 
Q 2600 3084 3056 2656 
Q 3513 2228 3513 1497 
Q 3513 744 3044 326 
Q 2575 -91 1722 -91 
Q 1428 -91 1123 -41 
Q 819 9 494 109 
L 494 744 
Q 775 591 1075 516 
Q 1375 441 1709 441 
Q 2250 441 2565 725 
Q 2881 1009 2881 1497 
Q 2881 1984 2565 2268 
Q 2250 2553 1709 2553 
Q 1456 2553 1204 2497 
Q 953 2441 691 2322 
L 691 4666 
z
" transform="scale(0.015625)"/>
       </defs>
       <use xlink:href="#DejaVuSans-35"/>
       <use xlink:href="#DejaVuSans-30" x="63.623047"/>
      </g>
     </g>
    </g>
    <g id="xtick_3">
     <g id="line2d_3">
      <g>
       <use xlink:href="#mb7fd67d1dd" x="499.88223" y="548.12" style="stroke: #000000; stroke-width: 0.8"/>
      </g>
     </g>
     <g id="text_3">
      <!-- 100 -->
      <g transform="translate(490.33848 562.718437) scale(0.1 -0.1)">
       <defs>
        <path id="DejaVuSans-31" d="M 794 531 
L 1825 531 
L 1825 4091 
L 703 3866 
L 703 4441 
L 1819 4666 
L 2450 4666 
L 2450 531 
L 3481 531 
L 3481 0 
L 794 0 
L 794 531 
z
" transform="scale(0.015625)"/>
       </defs>
       <use xlink:href="#DejaVuSans-31"/>
       <use xlink:href="#DejaVuSans-30" x="63.623047"/>
       <use xlink:href="#DejaVuSans-30" x="127.246094"/>
      </g>
     </g>
    </g>
    <g id="xtick_4">
     <g id="line2d_4">
      <g>
       <use xlink:href="#mb7fd67d1dd" x="701.111527" y="548.12" style="stroke: #000000; stroke-width: 0.8"/>
      </g>
     </g>
     <g id="text_4">
      <!-- 150 -->
      <g transform="translate(691.567777 562.718437) scale(0.1 -0.1)">
       <use xlink:href="#DejaVuSans-31"/>
       <use xlink:href="#DejaVuSans-35" x="63.623047"/>
       <use xlink:href="#DejaVuSans-30" x="127.246094"/>
      </g>
     </g>
    </g>
    <g id="xtick_5">
     <g id="line2d_5">
      <g>
       <use xlink:href="#mb7fd67d1dd" x="902.340824" y="548.12" style="stroke: #000000; stroke-width: 0.8"/>
      </g>
     </g>
     <g id="text_5">
      <!-- 200 -->
      <g transform="translate(892.797074 562.718437) scale(0.1 -0.1)">
       <defs>
        <path id="DejaVuSans-32" d="M 1228 531 
L 3431 531 
L 3431 0 
L 469 0 
L 469 531 
Q 828 903 1448 1529 
Q 2069 2156 2228 2338 
Q 2531 2678 2651 2914 
Q 2772 3150 2772 3378 
Q 2772 3750 2511 3984 
Q 2250 4219 1831 4219 
Q 1534 4219 1204 4116 
Q 875 4013 500 3803 
L 500 4441 
Q 881 4594 1212 4672 
Q 1544 4750 1819 4750 
Q 2544 4750 2975 4387 
Q 3406 4025 3406 3419 
Q 3406 3131 3298 2873 
Q 3191 2616 2906 2266 
Q 2828 2175 2409 1742 
Q 1991 1309 1228 531 
z
" transform="scale(0.015625)"/>
       </defs>
       <use xlink:href="#DejaVuSans-32"/>
       <use xlink:href="#DejaVuSans-30" x="63.623047"/>
       <use xlink:href="#DejaVuSans-30" x="127.246094"/>
      </g>
     </g>
    </g>
    <g id="xtick_6">
     <g id="line2d_6">
      <g>
       <use xlink:href="#mb7fd67d1dd" x="1103.570121" y="548.12" style="stroke: #000000; stroke-width: 0.8"/>
      </g>
     </g>
     <g id="text_6">
      <!-- 250 -->
      <g transform="translate(1094.026371 562.718437) scale(0.1 -0.1)">
       <use xlink:href="#DejaVuSans-32"/>
       <use xlink:href="#DejaVuSans-35" x="63.623047"/>
       <use xlink:href="#DejaVuSans-30" x="127.246094"/>
      </g>
     </g>
    </g>
   </g>
   <g id="matplotlib.axis_2">
    <g id="ytick_1">
     <g id="line2d_7">
      <defs>
       <path id="m7e6876eda6" d="M 0 0 
L -3.5 0 
" style="stroke: #000000; stroke-width: 0.8"/>
      </defs>
      <g>
       <use xlink:href="#m7e6876eda6" x="47.72" y="548.12" style="stroke: #000000; stroke-width: 0.8"/>
      </g>
     </g>
     <g id="text_7">
      <!-- 0.0 -->
      <g transform="translate(24.816875 551.919219) scale(0.1 -0.1)">
       <defs>
        <path id="DejaVuSans-2e" d="M 684 794 
L 1344 794 
L 1344 0 
L 684 0 
L 684 794 
z
" transform="scale(0.015625)"/>
       </defs>
       <use xlink:href="#DejaVuSans-30"/>
       <use xlink:href="#DejaVuSans-2e" x="63.623047"/>
       <use xlink:href="#DejaVuSans-30" x="95.410156"/>
      </g>
     </g>
    </g>
    <g id="ytick_2">
     <g id="line2d_8">
      <g>
       <use xlink:href="#m7e6876eda6" x="47.72" y="486.253694" style="stroke: #000000; stroke-width: 0.8"/>
      </g>
     </g>
     <g id="text_8">
      <!-- 0.5 -->
      <g transform="translate(24.816875 490.052913) scale(0.1 -0.1)">
       <use xlink:href="#DejaVuSans-30"/>
       <use xlink:href="#DejaVuSans-2e" x="63.623047"/>
       <use xlink:href="#DejaVuSans-35" x="95.410156"/>
      </g>
     </g>
    </g>
    <g id="ytick_3">
     <g id="line2d_9">
      <g>
       <use xlink:href="#m7e6876eda6" x="47.72" y="424.387389" style="stroke: #000000; stroke-width: 0.8"/>
      </g>
     </g>
     <g id="text_9">
      <!-- 1.0 -->
      <g transform="translate(24.816875 428.186608) scale(0.1 -0.1)">
       <use xlink:href="#DejaVuSans-31"/>
       <use xlink:href="#DejaVuSans-2e" x="63.623047"/>
       <use xlink:href="#DejaVuSans-30" x="95.410156"/>
      </g>
     </g>
    </g>
    <g id="ytick_4">
     <g id="line2d_10">
      <g>
       <use xlink:href="#m7e6876eda6" x="47.72" y="362.521083" style="stroke: #000000; stroke-width: 0.8"/>
      </g>
     </g>
     <g id="text_10">
      <!-- 1.5 -->
      <g transform="translate(24.816875 366.320302) scale(0.1 -0.1)">
       <use xlink:href="#DejaVuSans-31"/>
       <use xlink:href="#DejaVuSans-2e" x="63.623047"/>
       <use xlink:href="#DejaVuSans-35" x="95.410156"/>
      </g>
     </g>
    </g>
    <g id="ytick_5">
     <g id="line2d_11">
      <g>
       <use xlink:href="#m7e6876eda6" x="47.72" y="300.654778" style="stroke: #000000; stroke-width: 0.8"/>
      </g>
     </g>
     <g id="text_11">
      <!-- 2.0 -->
      <g transform="translate(24.816875 304.453996) scale(0.1 -0.1)">
       <use xlink:href="#DejaVuSans-32"/>
       <use xlink:href="#DejaVuSans-2e" x="63.623047"/>
       <use xlink:href="#DejaVuSans-30" x="95.410156"/>
      </g>
     </g>
    </g>
    <g id="ytick_6">
     <g id="line2d_12">
      <g>
       <use xlink:href="#m7e6876eda6" x="47.72" y="238.788472" style="stroke: #000000; stroke-width: 0.8"/>
      </g>
     </g>
     <g id="text_12">
      <!-- 2.5 -->
      <g transform="translate(24.816875 242.587691) scale(0.1 -0.1)">
       <use xlink:href="#DejaVuSans-32"/>
       <use xlink:href="#DejaVuSans-2e" x="63.623047"/>
       <use xlink:href="#DejaVuSans-35" x="95.410156"/>
      </g>
     </g>
    </g>
    <g id="ytick_7">
     <g id="line2d_13">
      <g>
       <use xlink:href="#m7e6876eda6" x="47.72" y="176.922166" style="stroke: #000000; stroke-width: 0.8"/>
      </g>
     </g>
     <g id="text_13">
      <!-- 3.0 -->
      <g transform="translate(24.816875 180.721385) scale(0.1 -0.1)">
       <defs>
        <path id="DejaVuSans-33" d="M 2597 2516 
Q 3050 2419 3304 2112 
Q 3559 1806 3559 1356 
Q 3559 666 3084 287 
Q 2609 -91 1734 -91 
Q 1441 -91 1130 -33 
Q 819 25 488 141 
L 488 750 
Q 750 597 1062 519 
Q 1375 441 1716 441 
Q 2309 441 2620 675 
Q 2931 909 2931 1356 
Q 2931 1769 2642 2001 
Q 2353 2234 1838 2234 
L 1294 2234 
L 1294 2753 
L 1863 2753 
Q 2328 2753 2575 2939 
Q 2822 3125 2822 3475 
Q 2822 3834 2567 4026 
Q 2313 4219 1838 4219 
Q 1578 4219 1281 4162 
Q 984 4106 628 3988 
L 628 4550 
Q 988 4650 1302 4700 
Q 1616 4750 1894 4750 
Q 2613 4750 3031 4423 
Q 3450 4097 3450 3541 
Q 3450 3153 3228 2886 
Q 3006 2619 2597 2516 
z
" transform="scale(0.015625)"/>
       </defs>
       <use xlink:href="#DejaVuSans-33"/>
       <use xlink:href="#DejaVuSans-2e" x="63.623047"/>
       <use xlink:href="#DejaVuSans-30" x="95.410156"/>
      </g>
     </g>
    </g>
    <g id="ytick_8">
     <g id="line2d_14">
      <g>
       <use xlink:href="#m7e6876eda6" x="47.72" y="115.055861" style="stroke: #000000; stroke-width: 0.8"/>
      </g>
     </g>
     <g id="text_14">
      <!-- 3.5 -->
      <g transform="translate(24.816875 118.85508) scale(0.1 -0.1)">
       <use xlink:href="#DejaVuSans-33"/>
       <use xlink:href="#DejaVuSans-2e" x="63.623047"/>
       <use xlink:href="#DejaVuSans-35" x="95.410156"/>
      </g>
     </g>
    </g>
    <g id="ytick_9">
     <g id="line2d_15">
      <g>
       <use xlink:href="#m7e6876eda6" x="47.72" y="53.189555" style="stroke: #000000; stroke-width: 0.8"/>
      </g>
     </g>
     <g id="text_15">
      <!-- 4.0 -->
      <g transform="translate(24.816875 56.988774) scale(0.1 -0.1)">
       <defs>
        <path id="DejaVuSans-34" d="M 2419 4116 
L 825 1625 
L 2419 1625 
L 2419 4116 
z
M 2253 4666 
L 3047 4666 
L 3047 1625 
L 3713 1625 
L 3713 1100 
L 3047 1100 
L 3047 0 
L 2419 0 
L 2419 1100 
L 313 1100 
L 313 1709 
L 2253 4666 
z
" transform="scale(0.015625)"/>
       </defs>
       <use xlink:href="#DejaVuSans-34"/>
       <use xlink:href="#DejaVuSans-2e" x="63.623047"/>
       <use xlink:href="#DejaVuSans-30" x="95.410156"/>
      </g>
     </g>
    </g>
    <g id="text_16">
     <!-- milliseconds -->
     <g transform="translate(18.737187 310.324063) rotate(-90) scale(0.1 -0.1)">
      <defs>
       <path id="DejaVuSans-6d" d="M 3328 2828 
Q 3544 3216 3844 3400 
Q 4144 3584 4550 3584 
Q 5097 3584 5394 3201 
Q 5691 2819 5691 2113 
L 5691 0 
L 5113 0 
L 5113 2094 
Q 5113 2597 4934 2840 
Q 4756 3084 4391 3084 
Q 3944 3084 3684 2787 
Q 3425 2491 3425 1978 
L 3425 0 
L 2847 0 
L 2847 2094 
Q 2847 2600 2669 2842 
Q 2491 3084 2119 3084 
Q 1678 3084 1418 2786 
Q 1159 2488 1159 1978 
L 1159 0 
L 581 0 
L 581 3500 
L 1159 3500 
L 1159 2956 
Q 1356 3278 1631 3431 
Q 1906 3584 2284 3584 
Q 2666 3584 2933 3390 
Q 3200 3197 3328 2828 
z
" transform="scale(0.015625)"/>
       <path id="DejaVuSans-69" d="M 603 3500 
L 1178 3500 
L 1178 0 
L 603 0 
L 603 3500 
z
M 603 4863 
L 1178 4863 
L 1178 4134 
L 603 4134 
L 603 4863 
z
" transform="scale(0.015625)"/>
       <path id="DejaVuSans-6c" d="M 603 4863 
L 1178 4863 
L 1178 0 
L 603 0 
L 603 4863 
z
" transform="scale(0.015625)"/>
       <path id="DejaVuSans-73" d="M 2834 3397 
L 2834 2853 
Q 2591 2978 2328 3040 
Q 2066 3103 1784 3103 
Q 1356 3103 1142 2972 
Q 928 2841 928 2578 
Q 928 2378 1081 2264 
Q 1234 2150 1697 2047 
L 1894 2003 
Q 2506 1872 2764 1633 
Q 3022 1394 3022 966 
Q 3022 478 2636 193 
Q 2250 -91 1575 -91 
Q 1294 -91 989 -36 
Q 684 19 347 128 
L 347 722 
Q 666 556 975 473 
Q 1284 391 1588 391 
Q 1994 391 2212 530 
Q 2431 669 2431 922 
Q 2431 1156 2273 1281 
Q 2116 1406 1581 1522 
L 1381 1569 
Q 847 1681 609 1914 
Q 372 2147 372 2553 
Q 372 3047 722 3315 
Q 1072 3584 1716 3584 
Q 2034 3584 2315 3537 
Q 2597 3491 2834 3397 
z
" transform="scale(0.015625)"/>
       <path id="DejaVuSans-65" d="M 3597 1894 
L 3597 1613 
L 953 1613 
Q 991 1019 1311 708 
Q 1631 397 2203 397 
Q 2534 397 2845 478 
Q 3156 559 3463 722 
L 3463 178 
Q 3153 47 2828 -22 
Q 2503 -91 2169 -91 
Q 1331 -91 842 396 
Q 353 884 353 1716 
Q 353 2575 817 3079 
Q 1281 3584 2069 3584 
Q 2775 3584 3186 3129 
Q 3597 2675 3597 1894 
z
M 3022 2063 
Q 3016 2534 2758 2815 
Q 2500 3097 2075 3097 
Q 1594 3097 1305 2825 
Q 1016 2553 972 2059 
L 3022 2063 
z
" transform="scale(0.015625)"/>
       <path id="DejaVuSans-63" d="M 3122 3366 
L 3122 2828 
Q 2878 2963 2633 3030 
Q 2388 3097 2138 3097 
Q 1578 3097 1268 2742 
Q 959 2388 959 1747 
Q 959 1106 1268 751 
Q 1578 397 2138 397 
Q 2388 397 2633 464 
Q 2878 531 3122 666 
L 3122 134 
Q 2881 22 2623 -34 
Q 2366 -91 2075 -91 
Q 1284 -91 818 406 
Q 353 903 353 1747 
Q 353 2603 823 3093 
Q 1294 3584 2113 3584 
Q 2378 3584 2631 3529 
Q 2884 3475 3122 3366 
z
" transform="scale(0.015625)"/>
       <path id="DejaVuSans-6f" d="M 1959 3097 
Q 1497 3097 1228 2736 
Q 959 2375 959 1747 
Q 959 1119 1226 758 
Q 1494 397 1959 397 
Q 2419 397 2687 759 
Q 2956 1122 2956 1747 
Q 2956 2369 2687 2733 
Q 2419 3097 1959 3097 
z
M 1959 3584 
Q 2709 3584 3137 3096 
Q 3566 2609 3566 1747 
Q 3566 888 3137 398 
Q 2709 -91 1959 -91 
Q 1206 -91 779 398 
Q 353 888 353 1747 
Q 353 2609 779 3096 
Q 1206 3584 1959 3584 
z
" transform="scale(0.015625)"/>
       <path id="DejaVuSans-6e" d="M 3513 2113 
L 3513 0 
L 2938 0 
L 2938 2094 
Q 2938 2591 2744 2837 
Q 2550 3084 2163 3084 
Q 1697 3084 1428 2787 
Q 1159 2491 1159 1978 
L 1159 0 
L 581 0 
L 581 3500 
L 1159 3500 
L 1159 2956 
Q 1366 3272 1645 3428 
Q 1925 3584 2291 3584 
Q 2894 3584 3203 3211 
Q 3513 2838 3513 2113 
z
" transform="scale(0.015625)"/>
       <path id="DejaVuSans-64" d="M 2906 2969 
L 2906 4863 
L 3481 4863 
L 3481 0 
L 2906 0 
L 2906 525 
Q 2725 213 2448 61 
Q 2172 -91 1784 -91 
Q 1150 -91 751 415 
Q 353 922 353 1747 
Q 353 2572 751 3078 
Q 1150 3584 1784 3584 
Q 2172 3584 2448 3432 
Q 2725 3281 2906 2969 
z
M 947 1747 
Q 947 1113 1208 752 
Q 1469 391 1925 391 
Q 2381 391 2643 752 
Q 2906 1113 2906 1747 
Q 2906 2381 2643 2742 
Q 2381 3103 1925 3103 
Q 1469 3103 1208 2742 
Q 947 2381 947 1747 
z
" transform="scale(0.015625)"/>
      </defs>
      <use xlink:href="#DejaVuSans-6d"/>
      <use xlink:href="#DejaVuSans-69" x="97.412109"/>
      <use xlink:href="#DejaVuSans-6c" x="125.195312"/>
      <use xlink:href="#DejaVuSans-6c" x="152.978516"/>
      <use xlink:href="#DejaVuSans-69" x="180.761719"/>
      <use xlink:href="#DejaVuSans-73" x="208.544922"/>
      <use xlink:href="#DejaVuSans-65" x="260.644531"/>
      <use xlink:href="#DejaVuSans-63" x="322.167969"/>
      <use xlink:href="#DejaVuSans-6f" x="377.148438"/>
      <use xlink:href="#DejaVuSans-6e" x="438.330078"/>
      <use xlink:href="#DejaVuSans-64" x="501.708984"/>
      <use xlink:href="#DejaVuSans-73" x="565.185547"/>
     </g>
    </g>
   </g>
   <g id="line2d_16">
    <path d="M 97.423636 382.54102 
L 101.448222 381.353187 
L 105.472808 375.253169 
L 109.497394 374.288055 
L 113.52198 372.852756 
L 117.546566 364.25334 
L 121.571152 358.091456 
L 125.595738 354.973394 
L 129.620324 353.649455 
L 133.64491 353.080285 
L 137.669496 351.397521 
L 141.694082 351.16243 
L 145.718668 346.906028 
L 149.743254 345.631582 
L 153.76784 344.938679 
L 157.792425 344.567481 
L 161.817011 341.226701 
L 165.841597 341.152461 
L 169.866183 329.039039 
L 173.890769 314.611816 
L 177.915355 304.255397 
L 181.939941 272.332383 
L 185.964527 268.447179 
L 189.989113 245.927844 
L 194.013699 215.910312 
L 198.038285 215.341142 
L 202.062871 209.934027 
L 206.087457 204.081475 
L 210.112043 189.914091 
L 214.136629 189.666625 
L 218.161215 188.602525 
L 222.185801 185.855661 
L 226.210386 184.25951 
L 230.234972 183.814073 
L 234.259558 182.650986 
L 238.284144 182.428268 
L 242.30873 181.426033 
L 246.333316 181.215688 
L 250.357902 180.819744 
L 254.382488 180.572278 
L 262.43166 177.478963 
L 266.456246 176.835554 
L 270.480832 176.377743 
L 274.505418 174.880578 
L 278.530004 174.422768 
L 282.55459 171.032494 
L 286.579176 169.720928 
L 290.603762 165.947084 
L 294.628347 165.823351 
L 298.652933 165.266554 
L 302.677519 163.286833 
L 306.702105 162.284599 
L 310.726691 162.272225 
L 314.751277 161.826788 
L 322.800449 160.762687 
L 326.825035 158.337528 
L 330.849621 157.54564 
L 334.874207 157.285801 
L 338.898793 156.778497 
L 342.923379 154.266725 
L 346.947965 152.682948 
L 350.972551 152.27463 
L 354.997137 152.027165 
L 359.021722 152.002419 
L 371.09548 151.569354 
L 375.120066 150.913572 
L 379.144652 150.752719 
L 383.169238 149.094702 
L 387.193824 148.995716 
L 391.21841 148.080095 
L 395.242996 147.943989 
L 403.292168 147.028368 
L 407.316754 146.991248 
L 415.365926 146.088 
L 419.390512 143.972172 
L 423.415098 142.611113 
L 427.439683 142.524501 
L 431.464269 141.856344 
L 435.488855 141.4604 
L 439.513441 141.373787 
L 443.538027 139.703397 
L 447.562613 139.629157 
L 459.636371 138.57743 
L 463.660957 138.466071 
L 467.685543 138.156739 
L 471.710129 138.020633 
L 475.734715 137.538076 
L 479.759301 137.40197 
L 483.783887 136.610082 
L 495.857644 136.325497 
L 499.88223 136.325497 
L 503.906816 136.102778 
L 507.931402 135.496488 
L 511.955988 134.407641 
L 515.980574 132.823864 
L 520.00516 131.871123 
L 524.029746 131.499925 
L 528.054332 131.462805 
L 532.078918 129.681055 
L 536.103504 129.124259 
L 540.12809 128.208637 
L 544.152676 126.897072 
L 548.177262 126.872325 
L 564.275605 124.99159 
L 572.324777 124.496659 
L 576.349363 124.249194 
L 580.373949 123.642904 
L 588.423121 123.061361 
L 592.447707 123.036614 
L 600.496879 122.356085 
L 604.521465 121.613689 
L 608.546051 121.180625 
L 624.644395 120.797054 
L 628.66898 120.425856 
L 632.693566 120.265004 
L 636.718152 119.609221 
L 644.767324 119.534981 
L 648.79191 118.520374 
L 652.816496 117.926457 
L 656.841082 117.580006 
L 660.865668 117.369661 
L 664.890254 116.750998 
L 672.939426 116.553025 
L 676.964012 116.293187 
L 680.988598 115.179593 
L 685.013184 114.944502 
L 693.062356 114.684663 
L 697.086941 113.830908 
L 701.111527 113.719549 
L 705.136113 112.89054 
L 709.160699 112.39561 
L 713.185285 112.197638 
L 717.209871 111.331509 
L 721.234457 111.059298 
L 725.259043 110.490128 
L 729.283629 110.428261 
L 733.308215 110.255036 
L 737.332801 109.252801 
L 741.357387 108.027849 
L 745.381973 107.928862 
L 749.406559 107.557665 
L 761.480317 107.495798 
L 765.504902 107.025614 
L 773.554074 106.741029 
L 777.57866 106.246099 
L 781.603246 105.56557 
L 785.627832 105.342851 
L 797.70159 105.144879 
L 801.726176 104.365363 
L 805.750762 104.291124 
L 809.775348 104.056032 
L 813.799934 103.536355 
L 817.82452 103.276516 
L 821.849106 102.311402 
L 825.873692 101.804098 
L 829.898278 101.705112 
L 833.922863 101.296794 
L 837.947449 100.232694 
L 841.972035 100.034722 
L 850.021207 97.720922 
L 854.045793 95.295763 
L 858.070379 94.6771 
L 862.094965 94.652353 
L 866.119551 93.984197 
L 870.144137 92.573645 
L 874.168723 92.43754 
L 878.193309 92.165328 
L 882.217895 92.091088 
L 886.242481 91.633278 
L 890.267067 91.447679 
L 894.291653 90.606297 
L 898.316238 90.593924 
L 902.340824 89.987634 
L 914.414582 89.678302 
L 918.439168 89.245238 
L 922.463754 89.232865 
L 934.537512 88.403856 
L 938.562098 87.030424 
L 942.586684 86.931438 
L 946.61127 86.114803 
L 950.635856 83.726764 
L 958.685028 82.662663 
L 962.709614 82.464691 
L 966.734199 82.093493 
L 970.758785 81.487203 
L 974.783371 80.188011 
L 978.807957 79.420869 
L 982.832543 77.775225 
L 986.857129 77.441147 
L 990.881715 76.080088 
L 994.906301 75.993476 
L 998.930887 75.486172 
L 1006.980059 75.2882 
L 1011.004645 74.384952 
L 1019.053817 73.172372 
L 1023.078403 73.01152 
L 1027.102989 71.972166 
L 1031.127575 71.860806 
L 1035.15216 70.598734 
L 1039.176746 68.38392 
L 1043.201332 64.89466 
L 1047.225918 64.424476 
L 1051.250504 62.976805 
L 1055.27509 62.791206 
L 1059.299676 61.529133 
L 1063.324262 59.945356 
L 1067.348848 59.079228 
L 1071.373434 58.683283 
L 1075.39802 57.285105 
L 1079.422606 57.198492 
L 1083.447192 55.020798 
L 1087.471778 53.919578 
L 1091.496364 36.386667 
L 1091.496364 36.386667 
" clip-path="url(#p2d1b91f9dc)" style="fill: none; stroke: #1f77b4; stroke-width: 5; stroke-linecap: square"/>
   </g>
   <g id="line2d_17">
    <path d="M 97.423636 318.014463 
L 101.448222 309.563526 
L 105.472808 312.211404 
L 109.497394 318.781605 
L 113.52198 317.247321 
L 117.546566 318.348541 
L 121.571152 319.7096 
L 125.595738 305.653575 
L 129.620324 313.498223 
L 133.64491 310.615253 
L 137.669496 308.091108 
L 141.694082 307.138366 
L 145.718668 305.257631 
L 149.743254 311.555621 
L 153.76784 312.904306 
L 157.792425 308.722144 
L 161.817011 301.483786 
L 165.841597 301.842611 
L 169.866183 302.572633 
L 173.890769 297.017039 
L 177.915355 301.595145 
L 181.939941 294.307295 
L 185.964527 290.236492 
L 189.989113 282.800162 
L 194.013699 287.935065 
L 198.038285 285.94297 
L 202.062871 288.269143 
L 206.087457 280.931799 
L 210.112043 278.222055 
L 214.136629 286.462647 
L 218.161215 281.934034 
L 222.185801 282.626936 
L 226.210386 285.794491 
L 230.234972 285.720251 
L 234.259558 282.552697 
L 238.284144 281.191638 
L 242.30873 285.175828 
L 246.333316 289.89004 
L 250.357902 282.874401 
L 254.382488 283.802396 
L 258.407074 291.263472 
L 262.43166 272.926299 
L 266.456246 279.273782 
L 270.480832 275.933002 
L 274.505418 291.077874 
L 278.530004 278.828345 
L 282.55459 277.219821 
L 286.579176 288.133037 
L 290.603762 278.222055 
L 294.628347 279.323275 
L 298.652933 281.006039 
L 302.677519 278.407654 
L 306.702105 280.486362 
L 310.726691 281.661822 
L 314.751277 285.200574 
L 318.775863 275.413325 
L 326.825035 276.737264 
L 330.849621 277.083715 
L 334.874207 274.52245 
L 338.898793 273.582082 
L 342.923379 276.279453 
L 346.947965 271.057937 
L 350.972551 276.898116 
L 354.997137 278.283922 
L 359.021722 269.115335 
L 363.046308 279.013944 
L 367.070894 270.303168 
L 371.09548 273.38411 
L 375.120066 275.611297 
L 379.144652 270.736232 
L 383.169238 276.885743 
L 387.193824 277.591019 
L 391.21841 257.286497 
L 395.242996 277.44254 
L 399.267582 275.62367 
L 403.292168 275.066874 
L 407.316754 276.390813 
L 411.34134 270.414527 
L 415.365926 279.818206 
L 419.390512 277.170328 
L 423.415098 269.32568 
L 427.439683 275.648417 
L 431.464269 271.664227 
L 435.488855 269.028722 
L 439.513441 276.366066 
L 443.538027 269.610265 
L 447.562613 275.240099 
L 451.587199 273.619202 
L 455.611785 278.283922 
L 459.636371 270.105196 
L 463.660957 276.143347 
L 467.685543 274.237865 
L 471.710129 275.846389 
L 475.734715 271.10743 
L 479.759301 269.003976 
L 483.783887 266.702549 
L 487.808473 273.087152 
L 491.833059 272.876806 
L 495.857644 279.372769 
L 499.88223 277.021849 
L 503.906816 272.876806 
L 507.931402 278.568507 
L 511.955988 273.099525 
L 515.980574 272.901553 
L 520.00516 274.02752 
L 524.029746 272.505609 
L 528.054332 269.214321 
L 532.078918 278.135442 
L 536.103504 272.32001 
L 540.12809 272.183904 
L 544.152676 271.206416 
L 548.177262 268.348193 
L 552.201848 273.445976 
L 556.226434 271.441508 
L 560.25102 271.354895 
L 564.275605 268.533792 
L 568.300191 270.600126 
L 572.324777 275.141113 
L 576.349363 270.884711 
L 580.373949 267.568677 
L 584.398535 271.169296 
L 588.423121 270.04333 
L 592.447707 265.193011 
L 596.472293 268.249207 
L 600.496879 270.637246 
L 604.521465 272.221024 
L 608.546051 264.20315 
L 612.570637 269.585519 
L 616.595223 270.637246 
L 620.619809 269.201948 
L 624.644395 268.113101 
L 628.66898 271.775586 
L 632.693566 271.961185 
L 636.718152 261.047969 
L 640.742738 271.825079 
L 644.767324 271.738466 
L 648.79191 271.14455 
L 652.816496 265.588956 
L 656.841082 272.32001 
L 660.865668 277.615765 
L 664.890254 271.354895 
L 668.91484 265.626075 
L 672.939426 271.837452 
L 676.964012 269.857731 
L 680.988598 271.453881 
L 685.013184 278.605626 
L 689.03777 273.903787 
L 693.062356 268.781257 
L 697.086941 271.825079 
L 701.111527 268.707017 
L 705.136113 265.267251 
L 709.160699 274.151252 
L 713.185285 267.036627 
L 717.209871 263.770086 
L 721.234457 265.044532 
L 725.259043 258.969261 
L 729.283629 268.558538 
L 733.308215 265.786928 
L 737.332801 264.042298 
L 741.357387 265.725061 
L 745.381973 266.207619 
L 749.406559 257.90516 
L 753.431145 270.822845 
L 757.455731 271.280656 
L 761.480317 265.34149 
L 765.504902 265.9849 
L 769.529488 265.205385 
L 773.554074 269.003976 
L 777.57866 264.005178 
L 781.603246 266.813908 
L 785.627832 269.375174 
L 789.652418 260.998476 
L 793.677004 270.167062 
L 797.70159 265.465223 
L 801.726176 267.72953 
L 805.750762 266.541697 
L 809.775348 268.496672 
L 813.799934 265.786928 
L 817.82452 270.030956 
L 821.849106 267.61817 
L 825.873692 267.878009 
L 829.898278 261.530526 
L 833.922863 264.88368 
L 837.947449 267.754276 
L 841.972035 266.244738 
L 845.996621 266.900521 
L 850.021207 257.90516 
L 854.045793 267.345959 
L 858.070379 261.938844 
L 862.094965 265.811674 
L 866.119551 265.180638 
L 870.144137 262.050203 
L 874.168723 268.385313 
L 878.193309 262.03783 
L 882.217895 261.221194 
L 886.242481 262.953451 
L 890.267067 261.951217 
L 894.291653 262.248175 
L 898.316238 265.737435 
L 902.340824 262.050203 
L 906.36541 262.371908 
L 910.389996 261.691378 
L 914.414582 267.246973 
L 918.439168 259.860136 
L 922.463754 261.592392 
L 926.48834 264.908426 
L 930.512926 264.067045 
L 934.537512 262.198682 
L 938.562098 258.734169 
L 942.586684 259.934375 
L 946.61127 267.259346 
L 950.635856 263.955685 
L 954.660442 260.070481 
L 958.685028 263.163796 
L 962.709614 271.255909 
L 966.734199 270.303168 
L 970.758785 258.734169 
L 974.783371 262.668866 
L 978.807957 258.461957 
L 982.832543 262.483267 
L 986.857129 263.992805 
L 990.881715 260.429306 
L 994.906301 261.3573 
L 998.930887 257.162765 
L 1002.955473 260.454052 
L 1006.980059 262.56988 
L 1011.004645 263.70822 
L 1015.029231 259.340459 
L 1019.053817 261.679005 
L 1023.078403 260.627278 
L 1027.102989 254.63862 
L 1031.127575 258.288732 
L 1035.15216 258.672303 
L 1039.176746 264.710454 
L 1043.201332 262.916331 
L 1047.225918 264.265017 
L 1051.250504 260.33032 
L 1055.27509 260.454052 
L 1059.299676 256.073918 
L 1063.324262 259.427072 
L 1067.348848 262.03783 
L 1071.373434 270.835218 
L 1075.39802 262.260548 
L 1079.422606 261.233568 
L 1083.447192 259.352832 
L 1087.471778 260.713891 
L 1091.496364 258.919768 
L 1091.496364 258.919768 
" clip-path="url(#p2d1b91f9dc)" style="fill: none; stroke: #ff7f0e; stroke-width: 1.5; stroke-linecap: square"/>
   </g>
   <g id="patch_3">
    <path d="M 47.72 548.12 
L 47.72 10.8 
" style="fill: none; stroke: #000000; stroke-width: 0.8; stroke-linejoin: miter; stroke-linecap: square"/>
   </g>
   <g id="patch_4">
    <path d="M 1141.2 548.12 
L 1141.2 10.8 
" style="fill: none; stroke: #000000; stroke-width: 0.8; stroke-linejoin: miter; stroke-linecap: square"/>
   </g>
   <g id="patch_5">
    <path d="M 47.72 548.12 
L 1141.2 548.12 
" style="fill: none; stroke: #000000; stroke-width: 0.8; stroke-linejoin: miter; stroke-linecap: square"/>
   </g>
   <g id="patch_6">
    <path d="M 47.72 10.8 
L 1141.2 10.8 
" style="fill: none; stroke: #000000; stroke-width: 0.8; stroke-linejoin: miter; stroke-linecap: square"/>
   </g>
   <g id="legend_1">
    <g id="patch_7">
     <path d="M 54.72 48.15625 
L 147.777813 48.15625 
Q 149.777813 48.15625 149.777813 46.15625 
L 149.777813 17.8 
Q 149.777813 15.8 147.777813 15.8 
L 54.72 15.8 
Q 52.72 15.8 52.72 17.8 
L 52.72 46.15625 
Q 52.72 48.15625 54.72 48.15625 
z
" style="fill: #ffffff; opacity: 0.8; stroke: #cccccc; stroke-linejoin: miter"/>
    </g>
    <g id="line2d_18">
     <path d="M 56.72 23.898438 
L 66.72 23.898438 
L 76.72 23.898438 
" style="fill: none; stroke: #1f77b4; stroke-width: 5; stroke-linecap: square"/>
    </g>
    <g id="text_17">
     <!-- PNG decode -->
     <g transform="translate(84.72 27.398438) scale(0.1 -0.1)">
      <defs>
       <path id="DejaVuSans-50" d="M 1259 4147 
L 1259 2394 
L 2053 2394 
Q 2494 2394 2734 2622 
Q 2975 2850 2975 3272 
Q 2975 3691 2734 3919 
Q 2494 4147 2053 4147 
L 1259 4147 
z
M 628 4666 
L 2053 4666 
Q 2838 4666 3239 4311 
Q 3641 3956 3641 3272 
Q 3641 2581 3239 2228 
Q 2838 1875 2053 1875 
L 1259 1875 
L 1259 0 
L 628 0 
L 628 4666 
z
" transform="scale(0.015625)"/>
       <path id="DejaVuSans-4e" d="M 628 4666 
L 1478 4666 
L 3547 763 
L 3547 4666 
L 4159 4666 
L 4159 0 
L 3309 0 
L 1241 3903 
L 1241 0 
L 628 0 
L 628 4666 
z
" transform="scale(0.015625)"/>
       <path id="DejaVuSans-47" d="M 3809 666 
L 3809 1919 
L 2778 1919 
L 2778 2438 
L 4434 2438 
L 4434 434 
Q 4069 175 3628 42 
Q 3188 -91 2688 -91 
Q 1594 -91 976 548 
Q 359 1188 359 2328 
Q 359 3472 976 4111 
Q 1594 4750 2688 4750 
Q 3144 4750 3555 4637 
Q 3966 4525 4313 4306 
L 4313 3634 
Q 3963 3931 3569 4081 
Q 3175 4231 2741 4231 
Q 1884 4231 1454 3753 
Q 1025 3275 1025 2328 
Q 1025 1384 1454 906 
Q 1884 428 2741 428 
Q 3075 428 3337 486 
Q 3600 544 3809 666 
z
" transform="scale(0.015625)"/>
       <path id="DejaVuSans-20" transform="scale(0.015625)"/>
      </defs>
      <use xlink:href="#DejaVuSans-50"/>
      <use xlink:href="#DejaVuSans-4e" x="60.302734"/>
      <use xlink:href="#DejaVuSans-47" x="135.107422"/>
      <use xlink:href="#DejaVuSans-20" x="212.597656"/>
      <use xlink:href="#DejaVuSans-64" x="244.384766"/>
      <use xlink:href="#DejaVuSans-65" x="307.861328"/>
      <use xlink:href="#DejaVuSans-63" x="369.384766"/>
      <use xlink:href="#DejaVuSans-6f" x="424.365234"/>
      <use xlink:href="#DejaVuSans-64" x="485.546875"/>
      <use xlink:href="#DejaVuSans-65" x="549.023438"/>
     </g>
    </g>
    <g id="line2d_19">
     <path d="M 56.72 38.576563 
L 66.72 38.576563 
L 76.72 38.576563 
" style="fill: none; stroke: #ff7f0e; stroke-width: 1.5; stroke-linecap: square"/>
    </g>
    <g id="text_18">
     <!-- QB3 decode -->
     <g transform="translate(84.72 42.076563) scale(0.1 -0.1)">
      <defs>
       <path id="DejaVuSans-51" d="M 2522 4238 
Q 1834 4238 1429 3725 
Q 1025 3213 1025 2328 
Q 1025 1447 1429 934 
Q 1834 422 2522 422 
Q 3209 422 3611 934 
Q 4013 1447 4013 2328 
Q 4013 3213 3611 3725 
Q 3209 4238 2522 4238 
z
M 3406 84 
L 4238 -825 
L 3475 -825 
L 2784 -78 
Q 2681 -84 2626 -87 
Q 2572 -91 2522 -91 
Q 1538 -91 948 567 
Q 359 1225 359 2328 
Q 359 3434 948 4092 
Q 1538 4750 2522 4750 
Q 3503 4750 4090 4092 
Q 4678 3434 4678 2328 
Q 4678 1516 4351 937 
Q 4025 359 3406 84 
z
" transform="scale(0.015625)"/>
       <path id="DejaVuSans-42" d="M 1259 2228 
L 1259 519 
L 2272 519 
Q 2781 519 3026 730 
Q 3272 941 3272 1375 
Q 3272 1813 3026 2020 
Q 2781 2228 2272 2228 
L 1259 2228 
z
M 1259 4147 
L 1259 2741 
L 2194 2741 
Q 2656 2741 2882 2914 
Q 3109 3088 3109 3444 
Q 3109 3797 2882 3972 
Q 2656 4147 2194 4147 
L 1259 4147 
z
M 628 4666 
L 2241 4666 
Q 2963 4666 3353 4366 
Q 3744 4066 3744 3513 
Q 3744 3084 3544 2831 
Q 3344 2578 2956 2516 
Q 3422 2416 3680 2098 
Q 3938 1781 3938 1306 
Q 3938 681 3513 340 
Q 3088 0 2303 0 
L 628 0 
L 628 4666 
z
" transform="scale(0.015625)"/>
      </defs>
      <use xlink:href="#DejaVuSans-51"/>
      <use xlink:href="#DejaVuSans-42" x="78.710938"/>
      <use xlink:href="#DejaVuSans-33" x="147.314453"/>
      <use xlink:href="#DejaVuSans-20" x="210.9375"/>
      <use xlink:href="#DejaVuSans-64" x="242.724609"/>
      <use xlink:href="#DejaVuSans-65" x="306.201172"/>
      <use xlink:href="#DejaVuSans-63" x="367.724609"/>
      <use xlink:href="#DejaVuSans-6f" x="422.705078"/>
      <use xlink:href="#DejaVuSans-64" x="483.886719"/>
      <use xlink:href="#DejaVuSans-65" x="547.363281"/>
     </g>
    </g>
   </g>
  </g>
 </g>
 <defs>
  <clipPath id="p2d1b91f9dc">
   <rect x="47.72" y="10.8" width="1093.48" height="537.32"/>
  </clipPath>
 </defs>
</svg>
