<?xml version="1.0" encoding="utf-8" standalone="no"?>
<!DOCTYPE svg PUBLIC "-//W3C//DTD SVG 1.1//EN"
  "http://www.w3.org/Graphics/SVG/1.1/DTD/svg11.dtd">
<svg xmlns:xlink="http://www.w3.org/1999/xlink" width="1152pt" height="576pt" viewBox="0 0 1152 576" xmlns="http://www.w3.org/2000/svg" version="1.1">
 <metadata>
  <rdf:RDF xmlns:dc="http://purl.org/dc/elements/1.1/" xmlns:cc="http://creativecommons.org/ns#" xmlns:rdf="http://www.w3.org/1999/02/22-rdf-syntax-ns#">
   <cc:Work>
    <dc:type rdf:resource="http://purl.org/dc/dcmitype/StillImage"/>
    <dc:date>2025-08-18T11:47:35.064941</dc:date>
    <dc:format>image/svg+xml</dc:format>
    <dc:creator>
     <cc:Agent>
      <dc:title>Matplotlib v3.9.0, https://matplotlib.org/</dc:title>
     </cc:Agent>
    </dc:creator>
   </cc:Work>
  </rdf:RDF>
 </metadata>
 <defs>
  <style type="text/css">*{stroke-linejoin: round; stroke-linecap: butt}</style>
 </defs>
 <g id="figure_1">
  <g id="patch_1">
   <path d="M 0 576 
L 1152 576 
L 1152 0 
L 0 0 
z
" style="fill: #ffffff"/>
  </g>
  <g id="axes_1">
   <g id="patch_2">
    <path d="M 54.02 534.04 
L 1141.2 534.04 
L 1141.2 26.88 
L 54.02 26.88 
z
" style="fill: #ffffff"/>
   </g>
   <g id="matplotlib.axis_1">
    <g id="xtick_1">
     <g id="line2d_1">
      <defs>
       <path id="m03cc5070e4" d="M 0 0 
L 0 3.5 
" style="stroke: #000000; stroke-width: 0.8"/>
      </defs>
      <g>
       <use xlink:href="#m03cc5070e4" x="103.437273" y="534.04" style="stroke: #000000; stroke-width: 0.8"/>
      </g>
     </g>
     <g id="text_1">
      <!-- 0 -->
      <g transform="translate(100.256023 548.638438) scale(0.1 -0.1)">
       <defs>
        <path id="DejaVuSans-30" d="M 2034 4250 
Q 1547 4250 1301 3770 
Q 1056 3291 1056 2328 
Q 1056 1369 1301 889 
Q 1547 409 2034 409 
Q 2525 409 2770 889 
Q 3016 1369 3016 2328 
Q 3016 3291 2770 3770 
Q 2525 4250 2034 4250 
z
M 2034 4750 
Q 2819 4750 3233 4129 
Q 3647 3509 3647 2328 
Q 3647 1150 3233 529 
Q 2819 -91 2034 -91 
Q 1250 -91 836 529 
Q 422 1150 422 2328 
Q 422 3509 836 4129 
Q 1250 4750 2034 4750 
z
" transform="scale(0.015625)"/>
       </defs>
       <use xlink:href="#DejaVuSans-30"/>
      </g>
     </g>
    </g>
    <g id="xtick_2">
     <g id="line2d_2">
      <g>
       <use xlink:href="#m03cc5070e4" x="303.507203" y="534.04" style="stroke: #000000; stroke-width: 0.8"/>
      </g>
     </g>
     <g id="text_2">
      <!-- 50 -->
      <g transform="translate(297.144703 548.638438) scale(0.1 -0.1)">
       <defs>
        <path id="DejaVuSans-35" d="M 691 4666 
L 3169 4666 
L 3169 4134 
L 1269 4134 
L 1269 2991 
Q 1406 3038 1543 3061 
Q 1681 3084 1819 3084 
Q 2600 3084 3056 2656 
Q 3513 2228 3513 1497 
Q 3513 744 3044 326 
Q 2575 -91 1722 -91 
Q 1428 -91 1123 -41 
Q 819 9 494 109 
L 494 744 
Q 775 591 1075 516 
Q 1375 441 1709 441 
Q 2250 441 2565 725 
Q 2881 1009 2881 1497 
Q 2881 1984 2565 2268 
Q 2250 2553 1709 2553 
Q 1456 2553 1204 2497 
Q 953 2441 691 2322 
L 691 4666 
z
" transform="scale(0.015625)"/>
       </defs>
       <use xlink:href="#DejaVuSans-35"/>
       <use xlink:href="#DejaVuSans-30" x="63.623047"/>
      </g>
     </g>
    </g>
    <g id="xtick_3">
     <g id="line2d_3">
      <g>
       <use xlink:href="#m03cc5070e4" x="503.577133" y="534.04" style="stroke: #000000; stroke-width: 0.8"/>
      </g>
     </g>
     <g id="text_3">
      <!-- 100 -->
      <g transform="translate(494.033383 548.638438) scale(0.1 -0.1)">
       <defs>
        <path id="DejaVuSans-31" d="M 794 531 
L 1825 531 
L 1825 4091 
L 703 3866 
L 703 4441 
L 1819 4666 
L 2450 4666 
L 2450 531 
L 3481 531 
L 3481 0 
L 794 0 
L 794 531 
z
" transform="scale(0.015625)"/>
       </defs>
       <use xlink:href="#DejaVuSans-31"/>
       <use xlink:href="#DejaVuSans-30" x="63.623047"/>
       <use xlink:href="#DejaVuSans-30" x="127.246094"/>
      </g>
     </g>
    </g>
    <g id="xtick_4">
     <g id="line2d_4">
      <g>
       <use xlink:href="#m03cc5070e4" x="703.647063" y="534.04" style="stroke: #000000; stroke-width: 0.8"/>
      </g>
     </g>
     <g id="text_4">
      <!-- 150 -->
      <g transform="translate(694.103313 548.638438) scale(0.1 -0.1)">
       <use xlink:href="#DejaVuSans-31"/>
       <use xlink:href="#DejaVuSans-35" x="63.623047"/>
       <use xlink:href="#DejaVuSans-30" x="127.246094"/>
      </g>
     </g>
    </g>
    <g id="xtick_5">
     <g id="line2d_5">
      <g>
       <use xlink:href="#m03cc5070e4" x="903.716993" y="534.04" style="stroke: #000000; stroke-width: 0.8"/>
      </g>
     </g>
     <g id="text_5">
      <!-- 200 -->
      <g transform="translate(894.173243 548.638438) scale(0.1 -0.1)">
       <defs>
        <path id="DejaVuSans-32" d="M 1228 531 
L 3431 531 
L 3431 0 
L 469 0 
L 469 531 
Q 828 903 1448 1529 
Q 2069 2156 2228 2338 
Q 2531 2678 2651 2914 
Q 2772 3150 2772 3378 
Q 2772 3750 2511 3984 
Q 2250 4219 1831 4219 
Q 1534 4219 1204 4116 
Q 875 4013 500 3803 
L 500 4441 
Q 881 4594 1212 4672 
Q 1544 4750 1819 4750 
Q 2544 4750 2975 4387 
Q 3406 4025 3406 3419 
Q 3406 3131 3298 2873 
Q 3191 2616 2906 2266 
Q 2828 2175 2409 1742 
Q 1991 1309 1228 531 
z
" transform="scale(0.015625)"/>
       </defs>
       <use xlink:href="#DejaVuSans-32"/>
       <use xlink:href="#DejaVuSans-30" x="63.623047"/>
       <use xlink:href="#DejaVuSans-30" x="127.246094"/>
      </g>
     </g>
    </g>
    <g id="xtick_6">
     <g id="line2d_6">
      <g>
       <use xlink:href="#m03cc5070e4" x="1103.786923" y="534.04" style="stroke: #000000; stroke-width: 0.8"/>
      </g>
     </g>
     <g id="text_6">
      <!-- 250 -->
      <g transform="translate(1094.243173 548.638438) scale(0.1 -0.1)">
       <use xlink:href="#DejaVuSans-32"/>
       <use xlink:href="#DejaVuSans-35" x="63.623047"/>
       <use xlink:href="#DejaVuSans-30" x="127.246094"/>
      </g>
     </g>
    </g>
    <g id="text_7">
     <!-- File number -->
     <g transform="translate(568.138906 562.316562) scale(0.1 -0.1)">
      <defs>
       <path id="DejaVuSans-46" d="M 628 4666 
L 3309 4666 
L 3309 4134 
L 1259 4134 
L 1259 2759 
L 3109 2759 
L 3109 2228 
L 1259 2228 
L 1259 0 
L 628 0 
L 628 4666 
z
" transform="scale(0.015625)"/>
       <path id="DejaVuSans-69" d="M 603 3500 
L 1178 3500 
L 1178 0 
L 603 0 
L 603 3500 
z
M 603 4863 
L 1178 4863 
L 1178 4134 
L 603 4134 
L 603 4863 
z
" transform="scale(0.015625)"/>
       <path id="DejaVuSans-6c" d="M 603 4863 
L 1178 4863 
L 1178 0 
L 603 0 
L 603 4863 
z
" transform="scale(0.015625)"/>
       <path id="DejaVuSans-65" d="M 3597 1894 
L 3597 1613 
L 953 1613 
Q 991 1019 1311 708 
Q 1631 397 2203 397 
Q 2534 397 2845 478 
Q 3156 559 3463 722 
L 3463 178 
Q 3153 47 2828 -22 
Q 2503 -91 2169 -91 
Q 1331 -91 842 396 
Q 353 884 353 1716 
Q 353 2575 817 3079 
Q 1281 3584 2069 3584 
Q 2775 3584 3186 3129 
Q 3597 2675 3597 1894 
z
M 3022 2063 
Q 3016 2534 2758 2815 
Q 2500 3097 2075 3097 
Q 1594 3097 1305 2825 
Q 1016 2553 972 2059 
L 3022 2063 
z
" transform="scale(0.015625)"/>
       <path id="DejaVuSans-20" transform="scale(0.015625)"/>
       <path id="DejaVuSans-6e" d="M 3513 2113 
L 3513 0 
L 2938 0 
L 2938 2094 
Q 2938 2591 2744 2837 
Q 2550 3084 2163 3084 
Q 1697 3084 1428 2787 
Q 1159 2491 1159 1978 
L 1159 0 
L 581 0 
L 581 3500 
L 1159 3500 
L 1159 2956 
Q 1366 3272 1645 3428 
Q 1925 3584 2291 3584 
Q 2894 3584 3203 3211 
Q 3513 2838 3513 2113 
z
" transform="scale(0.015625)"/>
       <path id="DejaVuSans-75" d="M 544 1381 
L 544 3500 
L 1119 3500 
L 1119 1403 
Q 1119 906 1312 657 
Q 1506 409 1894 409 
Q 2359 409 2629 706 
Q 2900 1003 2900 1516 
L 2900 3500 
L 3475 3500 
L 3475 0 
L 2900 0 
L 2900 538 
Q 2691 219 2414 64 
Q 2138 -91 1772 -91 
Q 1169 -91 856 284 
Q 544 659 544 1381 
z
M 1991 3584 
L 1991 3584 
z
" transform="scale(0.015625)"/>
       <path id="DejaVuSans-6d" d="M 3328 2828 
Q 3544 3216 3844 3400 
Q 4144 3584 4550 3584 
Q 5097 3584 5394 3201 
Q 5691 2819 5691 2113 
L 5691 0 
L 5113 0 
L 5113 2094 
Q 5113 2597 4934 2840 
Q 4756 3084 4391 3084 
Q 3944 3084 3684 2787 
Q 3425 2491 3425 1978 
L 3425 0 
L 2847 0 
L 2847 2094 
Q 2847 2600 2669 2842 
Q 2491 3084 2119 3084 
Q 1678 3084 1418 2786 
Q 1159 2488 1159 1978 
L 1159 0 
L 581 0 
L 581 3500 
L 1159 3500 
L 1159 2956 
Q 1356 3278 1631 3431 
Q 1906 3584 2284 3584 
Q 2666 3584 2933 3390 
Q 3200 3197 3328 2828 
z
" transform="scale(0.015625)"/>
       <path id="DejaVuSans-62" d="M 3116 1747 
Q 3116 2381 2855 2742 
Q 2594 3103 2138 3103 
Q 1681 3103 1420 2742 
Q 1159 2381 1159 1747 
Q 1159 1113 1420 752 
Q 1681 391 2138 391 
Q 2594 391 2855 752 
Q 3116 1113 3116 1747 
z
M 1159 2969 
Q 1341 3281 1617 3432 
Q 1894 3584 2278 3584 
Q 2916 3584 3314 3078 
Q 3713 2572 3713 1747 
Q 3713 922 3314 415 
Q 2916 -91 2278 -91 
Q 1894 -91 1617 61 
Q 1341 213 1159 525 
L 1159 0 
L 581 0 
L 581 4863 
L 1159 4863 
L 1159 2969 
z
" transform="scale(0.015625)"/>
       <path id="DejaVuSans-72" d="M 2631 2963 
Q 2534 3019 2420 3045 
Q 2306 3072 2169 3072 
Q 1681 3072 1420 2755 
Q 1159 2438 1159 1844 
L 1159 0 
L 581 0 
L 581 3500 
L 1159 3500 
L 1159 2956 
Q 1341 3275 1631 3429 
Q 1922 3584 2338 3584 
Q 2397 3584 2469 3576 
Q 2541 3569 2628 3553 
L 2631 2963 
z
" transform="scale(0.015625)"/>
      </defs>
      <use xlink:href="#DejaVuSans-46"/>
      <use xlink:href="#DejaVuSans-69" x="50.269531"/>
      <use xlink:href="#DejaVuSans-6c" x="78.052734"/>
      <use xlink:href="#DejaVuSans-65" x="105.835938"/>
      <use xlink:href="#DejaVuSans-20" x="167.359375"/>
      <use xlink:href="#DejaVuSans-6e" x="199.146484"/>
      <use xlink:href="#DejaVuSans-75" x="262.525391"/>
      <use xlink:href="#DejaVuSans-6d" x="325.904297"/>
      <use xlink:href="#DejaVuSans-62" x="423.316406"/>
      <use xlink:href="#DejaVuSans-65" x="486.792969"/>
      <use xlink:href="#DejaVuSans-72" x="548.316406"/>
     </g>
    </g>
   </g>
   <g id="matplotlib.axis_2">
    <g id="ytick_1">
     <g id="line2d_7">
      <defs>
       <path id="mae6aa21312" d="M 0 0 
L -3.5 0 
" style="stroke: #000000; stroke-width: 0.8"/>
      </defs>
      <g>
       <use xlink:href="#mae6aa21312" x="54.02" y="513.750557" style="stroke: #000000; stroke-width: 0.8"/>
      </g>
     </g>
     <g id="text_8">
      <!-- 0.00 -->
      <g transform="translate(24.754375 517.549776) scale(0.1 -0.1)">
       <defs>
        <path id="DejaVuSans-2e" d="M 684 794 
L 1344 794 
L 1344 0 
L 684 0 
L 684 794 
z
" transform="scale(0.015625)"/>
       </defs>
       <use xlink:href="#DejaVuSans-30"/>
       <use xlink:href="#DejaVuSans-2e" x="63.623047"/>
       <use xlink:href="#DejaVuSans-30" x="95.410156"/>
       <use xlink:href="#DejaVuSans-30" x="159.033203"/>
      </g>
     </g>
    </g>
    <g id="ytick_2">
     <g id="line2d_8">
      <g>
       <use xlink:href="#mae6aa21312" x="54.02" y="451.869814" style="stroke: #000000; stroke-width: 0.8"/>
      </g>
     </g>
     <g id="text_9">
      <!-- 0.02 -->
      <g transform="translate(24.754375 455.669033) scale(0.1 -0.1)">
       <use xlink:href="#DejaVuSans-30"/>
       <use xlink:href="#DejaVuSans-2e" x="63.623047"/>
       <use xlink:href="#DejaVuSans-30" x="95.410156"/>
       <use xlink:href="#DejaVuSans-32" x="159.033203"/>
      </g>
     </g>
    </g>
    <g id="ytick_3">
     <g id="line2d_9">
      <g>
       <use xlink:href="#mae6aa21312" x="54.02" y="389.989071" style="stroke: #000000; stroke-width: 0.8"/>
      </g>
     </g>
     <g id="text_10">
      <!-- 0.04 -->
      <g transform="translate(24.754375 393.788289) scale(0.1 -0.1)">
       <defs>
        <path id="DejaVuSans-34" d="M 2419 4116 
L 825 1625 
L 2419 1625 
L 2419 4116 
z
M 2253 4666 
L 3047 4666 
L 3047 1625 
L 3713 1625 
L 3713 1100 
L 3047 1100 
L 3047 0 
L 2419 0 
L 2419 1100 
L 313 1100 
L 313 1709 
L 2253 4666 
z
" transform="scale(0.015625)"/>
       </defs>
       <use xlink:href="#DejaVuSans-30"/>
       <use xlink:href="#DejaVuSans-2e" x="63.623047"/>
       <use xlink:href="#DejaVuSans-30" x="95.410156"/>
       <use xlink:href="#DejaVuSans-34" x="159.033203"/>
      </g>
     </g>
    </g>
    <g id="ytick_4">
     <g id="line2d_10">
      <g>
       <use xlink:href="#mae6aa21312" x="54.02" y="328.108327" style="stroke: #000000; stroke-width: 0.8"/>
      </g>
     </g>
     <g id="text_11">
      <!-- 0.06 -->
      <g transform="translate(24.754375 331.907546) scale(0.1 -0.1)">
       <defs>
        <path id="DejaVuSans-36" d="M 2113 2584 
Q 1688 2584 1439 2293 
Q 1191 2003 1191 1497 
Q 1191 994 1439 701 
Q 1688 409 2113 409 
Q 2538 409 2786 701 
Q 3034 994 3034 1497 
Q 3034 2003 2786 2293 
Q 2538 2584 2113 2584 
z
M 3366 4563 
L 3366 3988 
Q 3128 4100 2886 4159 
Q 2644 4219 2406 4219 
Q 1781 4219 1451 3797 
Q 1122 3375 1075 2522 
Q 1259 2794 1537 2939 
Q 1816 3084 2150 3084 
Q 2853 3084 3261 2657 
Q 3669 2231 3669 1497 
Q 3669 778 3244 343 
Q 2819 -91 2113 -91 
Q 1303 -91 875 529 
Q 447 1150 447 2328 
Q 447 3434 972 4092 
Q 1497 4750 2381 4750 
Q 2619 4750 2861 4703 
Q 3103 4656 3366 4563 
z
" transform="scale(0.015625)"/>
       </defs>
       <use xlink:href="#DejaVuSans-30"/>
       <use xlink:href="#DejaVuSans-2e" x="63.623047"/>
       <use xlink:href="#DejaVuSans-30" x="95.410156"/>
       <use xlink:href="#DejaVuSans-36" x="159.033203"/>
      </g>
     </g>
    </g>
    <g id="ytick_5">
     <g id="line2d_11">
      <g>
       <use xlink:href="#mae6aa21312" x="54.02" y="266.227584" style="stroke: #000000; stroke-width: 0.8"/>
      </g>
     </g>
     <g id="text_12">
      <!-- 0.08 -->
      <g transform="translate(24.754375 270.026802) scale(0.1 -0.1)">
       <defs>
        <path id="DejaVuSans-38" d="M 2034 2216 
Q 1584 2216 1326 1975 
Q 1069 1734 1069 1313 
Q 1069 891 1326 650 
Q 1584 409 2034 409 
Q 2484 409 2743 651 
Q 3003 894 3003 1313 
Q 3003 1734 2745 1975 
Q 2488 2216 2034 2216 
z
M 1403 2484 
Q 997 2584 770 2862 
Q 544 3141 544 3541 
Q 544 4100 942 4425 
Q 1341 4750 2034 4750 
Q 2731 4750 3128 4425 
Q 3525 4100 3525 3541 
Q 3525 3141 3298 2862 
Q 3072 2584 2669 2484 
Q 3125 2378 3379 2068 
Q 3634 1759 3634 1313 
Q 3634 634 3220 271 
Q 2806 -91 2034 -91 
Q 1263 -91 848 271 
Q 434 634 434 1313 
Q 434 1759 690 2068 
Q 947 2378 1403 2484 
z
M 1172 3481 
Q 1172 3119 1398 2916 
Q 1625 2713 2034 2713 
Q 2441 2713 2670 2916 
Q 2900 3119 2900 3481 
Q 2900 3844 2670 4047 
Q 2441 4250 2034 4250 
Q 1625 4250 1398 4047 
Q 1172 3844 1172 3481 
z
" transform="scale(0.015625)"/>
       </defs>
       <use xlink:href="#DejaVuSans-30"/>
       <use xlink:href="#DejaVuSans-2e" x="63.623047"/>
       <use xlink:href="#DejaVuSans-30" x="95.410156"/>
       <use xlink:href="#DejaVuSans-38" x="159.033203"/>
      </g>
     </g>
    </g>
    <g id="ytick_6">
     <g id="line2d_12">
      <g>
       <use xlink:href="#mae6aa21312" x="54.02" y="204.34684" style="stroke: #000000; stroke-width: 0.8"/>
      </g>
     </g>
     <g id="text_13">
      <!-- 0.10 -->
      <g transform="translate(24.754375 208.146059) scale(0.1 -0.1)">
       <use xlink:href="#DejaVuSans-30"/>
       <use xlink:href="#DejaVuSans-2e" x="63.623047"/>
       <use xlink:href="#DejaVuSans-31" x="95.410156"/>
       <use xlink:href="#DejaVuSans-30" x="159.033203"/>
      </g>
     </g>
    </g>
    <g id="ytick_7">
     <g id="line2d_13">
      <g>
       <use xlink:href="#mae6aa21312" x="54.02" y="142.466097" style="stroke: #000000; stroke-width: 0.8"/>
      </g>
     </g>
     <g id="text_14">
      <!-- 0.12 -->
      <g transform="translate(24.754375 146.265316) scale(0.1 -0.1)">
       <use xlink:href="#DejaVuSans-30"/>
       <use xlink:href="#DejaVuSans-2e" x="63.623047"/>
       <use xlink:href="#DejaVuSans-31" x="95.410156"/>
       <use xlink:href="#DejaVuSans-32" x="159.033203"/>
      </g>
     </g>
    </g>
    <g id="ytick_8">
     <g id="line2d_14">
      <g>
       <use xlink:href="#mae6aa21312" x="54.02" y="80.585354" style="stroke: #000000; stroke-width: 0.8"/>
      </g>
     </g>
     <g id="text_15">
      <!-- 0.14 -->
      <g transform="translate(24.754375 84.384572) scale(0.1 -0.1)">
       <use xlink:href="#DejaVuSans-30"/>
       <use xlink:href="#DejaVuSans-2e" x="63.623047"/>
       <use xlink:href="#DejaVuSans-31" x="95.410156"/>
       <use xlink:href="#DejaVuSans-34" x="159.033203"/>
      </g>
     </g>
    </g>
    <g id="text_16">
     <!-- Seconds -->
     <g transform="translate(18.674687 301.467031) rotate(-90) scale(0.1 -0.1)">
      <defs>
       <path id="DejaVuSans-53" d="M 3425 4513 
L 3425 3897 
Q 3066 4069 2747 4153 
Q 2428 4238 2131 4238 
Q 1616 4238 1336 4038 
Q 1056 3838 1056 3469 
Q 1056 3159 1242 3001 
Q 1428 2844 1947 2747 
L 2328 2669 
Q 3034 2534 3370 2195 
Q 3706 1856 3706 1288 
Q 3706 609 3251 259 
Q 2797 -91 1919 -91 
Q 1588 -91 1214 -16 
Q 841 59 441 206 
L 441 856 
Q 825 641 1194 531 
Q 1563 422 1919 422 
Q 2459 422 2753 634 
Q 3047 847 3047 1241 
Q 3047 1584 2836 1778 
Q 2625 1972 2144 2069 
L 1759 2144 
Q 1053 2284 737 2584 
Q 422 2884 422 3419 
Q 422 4038 858 4394 
Q 1294 4750 2059 4750 
Q 2388 4750 2728 4690 
Q 3069 4631 3425 4513 
z
" transform="scale(0.015625)"/>
       <path id="DejaVuSans-63" d="M 3122 3366 
L 3122 2828 
Q 2878 2963 2633 3030 
Q 2388 3097 2138 3097 
Q 1578 3097 1268 2742 
Q 959 2388 959 1747 
Q 959 1106 1268 751 
Q 1578 397 2138 397 
Q 2388 397 2633 464 
Q 2878 531 3122 666 
L 3122 134 
Q 2881 22 2623 -34 
Q 2366 -91 2075 -91 
Q 1284 -91 818 406 
Q 353 903 353 1747 
Q 353 2603 823 3093 
Q 1294 3584 2113 3584 
Q 2378 3584 2631 3529 
Q 2884 3475 3122 3366 
z
" transform="scale(0.015625)"/>
       <path id="DejaVuSans-6f" d="M 1959 3097 
Q 1497 3097 1228 2736 
Q 959 2375 959 1747 
Q 959 1119 1226 758 
Q 1494 397 1959 397 
Q 2419 397 2687 759 
Q 2956 1122 2956 1747 
Q 2956 2369 2687 2733 
Q 2419 3097 1959 3097 
z
M 1959 3584 
Q 2709 3584 3137 3096 
Q 3566 2609 3566 1747 
Q 3566 888 3137 398 
Q 2709 -91 1959 -91 
Q 1206 -91 779 398 
Q 353 888 353 1747 
Q 353 2609 779 3096 
Q 1206 3584 1959 3584 
z
" transform="scale(0.015625)"/>
       <path id="DejaVuSans-64" d="M 2906 2969 
L 2906 4863 
L 3481 4863 
L 3481 0 
L 2906 0 
L 2906 525 
Q 2725 213 2448 61 
Q 2172 -91 1784 -91 
Q 1150 -91 751 415 
Q 353 922 353 1747 
Q 353 2572 751 3078 
Q 1150 3584 1784 3584 
Q 2172 3584 2448 3432 
Q 2725 3281 2906 2969 
z
M 947 1747 
Q 947 1113 1208 752 
Q 1469 391 1925 391 
Q 2381 391 2643 752 
Q 2906 1113 2906 1747 
Q 2906 2381 2643 2742 
Q 2381 3103 1925 3103 
Q 1469 3103 1208 2742 
Q 947 2381 947 1747 
z
" transform="scale(0.015625)"/>
       <path id="DejaVuSans-73" d="M 2834 3397 
L 2834 2853 
Q 2591 2978 2328 3040 
Q 2066 3103 1784 3103 
Q 1356 3103 1142 2972 
Q 928 2841 928 2578 
Q 928 2378 1081 2264 
Q 1234 2150 1697 2047 
L 1894 2003 
Q 2506 1872 2764 1633 
Q 3022 1394 3022 966 
Q 3022 478 2636 193 
Q 2250 -91 1575 -91 
Q 1294 -91 989 -36 
Q 684 19 347 128 
L 347 722 
Q 666 556 975 473 
Q 1284 391 1588 391 
Q 1994 391 2212 530 
Q 2431 669 2431 922 
Q 2431 1156 2273 1281 
Q 2116 1406 1581 1522 
L 1381 1569 
Q 847 1681 609 1914 
Q 372 2147 372 2553 
Q 372 3047 722 3315 
Q 1072 3584 1716 3584 
Q 2034 3584 2315 3537 
Q 2597 3491 2834 3397 
z
" transform="scale(0.015625)"/>
      </defs>
      <use xlink:href="#DejaVuSans-53"/>
      <use xlink:href="#DejaVuSans-65" x="63.476562"/>
      <use xlink:href="#DejaVuSans-63" x="125"/>
      <use xlink:href="#DejaVuSans-6f" x="179.980469"/>
      <use xlink:href="#DejaVuSans-6e" x="241.162109"/>
      <use xlink:href="#DejaVuSans-64" x="304.541016"/>
      <use xlink:href="#DejaVuSans-73" x="368.017578"/>
     </g>
    </g>
   </g>
   <g id="line2d_15">
    <path d="M 103.437273 510.773475 
L 111.44007 510.987273 
L 115.441469 510.684057 
L 119.442867 510.828549 
L 123.444266 510.196127 
L 127.445664 510.788945 
L 131.447063 510.098975 
L 135.448462 510.564627 
L 139.44986 509.791427 
L 143.451259 509.980782 
L 151.454056 509.744707 
L 155.455455 510.004916 
L 159.456853 509.534932 
L 163.458252 509.804732 
L 167.45965 509.82113 
L 171.461049 509.40096 
L 175.462448 509.147558 
L 179.463846 509.682827 
L 183.465245 510.033381 
L 187.466643 508.905605 
L 191.468042 508.298245 
L 195.469441 505.827347 
L 199.470839 507.316198 
L 203.472238 505.849624 
L 211.475035 506.187802 
L 215.476434 505.593747 
L 219.477832 506.172023 
L 223.479231 506.61447 
L 227.480629 506.048571 
L 231.482028 505.928213 
L 235.483427 507.681913 
L 239.484825 506.021034 
L 243.486224 506.036504 
L 247.487622 505.518253 
L 251.489021 506.014536 
L 255.49042 506.9675 
L 259.491818 508.424791 
L 263.493217 506.379633 
L 267.494615 506.316205 
L 271.496014 505.741333 
L 279.498811 506.187802 
L 283.50021 506.792377 
L 287.501608 507.822382 
L 291.503007 506.138607 
L 295.504406 508.271017 
L 299.505804 506.650051 
L 303.507203 506.184399 
L 307.508601 507.222448 
L 311.51 507.350232 
L 315.511399 506.22029 
L 319.512797 506.314348 
L 327.515594 505.997519 
L 331.516993 506.629321 
L 335.518392 507.888904 
L 339.51979 507.491011 
L 343.521189 506.796399 
L 347.522587 506.87406 
L 351.523986 508.357341 
L 355.525385 506.125612 
L 359.526783 507.154998 
L 363.528182 507.401593 
L 367.52958 507.887357 
L 371.530979 506.792377 
L 375.532378 506.728021 
L 379.533776 508.678812 
L 383.535175 506.480189 
L 391.537972 506.224621 
L 395.539371 507.357348 
L 399.540769 506.36045 
L 407.543566 507.326408 
L 415.546364 506.914282 
L 419.547762 505.949252 
L 423.549161 507.485751 
L 427.550559 507.309081 
L 431.551958 505.428216 
L 435.553357 506.533716 
L 439.554755 508.120957 
L 443.556154 506.397578 
L 447.557552 506.726784 
L 451.558951 506.4279 
L 455.56035 507.298252 
L 459.561748 507.860439 
L 463.563147 507.456667 
L 467.564545 506.332603 
L 471.565944 508.050722 
L 475.567343 506.872513 
L 479.568741 505.884896 
L 483.57014 506.909641 
L 487.571538 507.412732 
L 491.572937 506.567441 
L 495.574336 506.716573 
L 499.575734 506.263606 
L 503.577133 507.236062 
L 507.578531 506.674804 
L 511.57993 507.653757 
L 515.581329 507.375294 
L 519.582727 507.955426 
L 523.584126 507.000606 
L 527.585524 507.866317 
L 531.586923 506.991633 
L 535.588322 507.10735 
L 539.58972 507.422633 
L 543.591119 508.069596 
L 547.592517 508.221513 
L 551.593916 506.704197 
L 555.595315 507.08136 
L 559.596713 507.655614 
L 563.598112 507.890451 
L 567.59951 507.493486 
L 571.600909 507.370962 
L 575.602308 507.033403 
L 579.603706 508.298864 
L 583.605105 507.725229 
L 591.607902 506.071466 
L 595.609301 507.289898 
L 599.610699 507.499674 
L 603.612098 506.562181 
L 607.613497 506.951101 
L 611.614895 506.575176 
L 615.616294 508.103011 
L 619.617692 506.85333 
L 623.619091 506.665522 
L 627.62049 506.792377 
L 631.621888 506.336625 
L 635.623287 506.916448 
L 639.624685 506.173879 
L 643.626084 508.146637 
L 647.627483 506.951411 
L 651.628881 507.336618 
L 655.63028 507.424489 
L 659.631678 506.85828 
L 663.633077 506.848998 
L 671.635874 507.960995 
L 675.637273 507.219354 
L 679.638671 507.660564 
L 683.64007 506.879629 
L 687.641469 507.573312 
L 691.642867 506.974616 
L 695.644266 507.489464 
L 699.645664 507.366321 
L 703.647063 508.315572 
L 707.648462 507.528139 
L 711.64986 507.026596 
L 715.651259 507.203265 
L 719.652657 506.941819 
L 723.654056 507.838162 
L 727.655455 507.421395 
L 731.656853 508.154372 
L 735.658252 507.597446 
L 739.65965 506.810323 
L 743.661049 506.520411 
L 747.662448 506.727712 
L 751.663846 507.404378 
L 755.665245 506.538666 
L 759.666643 506.636128 
L 763.668042 507.351779 
L 767.669441 507.534327 
L 771.670839 508.272255 
L 775.672238 506.625918 
L 779.673636 507.154689 
L 783.675035 507.369106 
L 787.676434 507.720279 
L 791.677832 506.966571 
L 795.679231 507.128699 
L 799.680629 508.013284 
L 803.682028 507.396333 
L 807.683427 507.113848 
L 811.684825 506.55228 
L 815.686224 506.764531 
L 819.687622 507.281854 
L 823.689021 507.335071 
L 827.69042 506.406551 
L 831.691818 507.460999 
L 835.693217 506.316824 
L 839.694615 506.218124 
L 843.696014 506.765768 
L 847.697413 506.917686 
L 851.698811 506.794234 
L 855.70021 507.743794 
L 859.701608 507.247201 
L 863.703007 507.8131 
L 871.705804 506.859518 
L 875.707203 507.323314 
L 879.708601 507.904374 
L 883.71 507.562483 
L 887.711399 507.603634 
L 891.712797 506.616017 
L 895.714196 507.211929 
L 899.715594 507.100234 
L 903.716993 507.883644 
L 907.718392 507.069603 
L 911.71979 507.394477 
L 915.721189 507.441506 
L 919.722587 506.814035 
L 923.723986 507.27876 
L 927.725385 507.336618 
L 931.726783 507.733893 
L 935.728182 507.573312 
L 939.72958 508.401586 
L 943.730979 507.784016 
L 947.732378 507.944287 
L 951.733776 506.905619 
L 955.735175 507.118798 
L 959.736573 507.467496 
L 963.737972 507.468115 
L 967.739371 507.19027 
L 975.742168 507.395714 
L 979.743566 506.510201 
L 983.744965 507.462236 
L 987.746364 506.572391 
L 995.749161 507.348994 
L 999.750559 507.452954 
L 1003.751958 507.736987 
L 1007.753357 507.486988 
L 1011.754755 507.519785 
L 1015.756154 506.896027 
L 1019.757552 508.054125 
L 1023.758951 508.047628 
L 1027.76035 507.178822 
L 1035.763147 508.115387 
L 1039.764545 506.777216 
L 1043.765944 507.402212 
L 1047.767343 507.601158 
L 1051.768741 507.021336 
L 1055.77014 507.395714 
L 1063.772937 507.766689 
L 1067.774336 507.492867 
L 1071.775734 507.586616 
L 1075.777133 507.855798 
L 1079.778531 507.255554 
L 1083.77993 507.761739 
L 1087.781329 507.061249 
L 1091.782727 507.540206 
L 1091.782727 507.540206 
" clip-path="url(#p580c5341e8)" style="fill: none; stroke: #1f77b4; stroke-width: 5; stroke-linecap: square"/>
   </g>
   <g id="line2d_16">
    <path d="M 103.437273 510.581644 
L 111.44007 510.801321 
L 115.441469 510.560605 
L 119.442867 510.446126 
L 123.444266 509.913332 
L 127.445664 510.588761 
L 131.447063 509.72769 
L 135.448462 510.309369 
L 139.44986 509.211914 
L 143.451259 509.838766 
L 155.455455 509.579486 
L 159.456853 509.173548 
L 163.458252 509.631156 
L 167.45965 509.450464 
L 175.462448 508.785556 
L 179.463846 509.477073 
L 183.465245 509.88332 
L 187.466643 508.556288 
L 191.468042 507.870958 
L 195.469441 504.998764 
L 199.470839 506.834765 
L 203.472238 504.604893 
L 207.473636 505.227723 
L 211.475035 505.438736 
L 215.476434 504.717516 
L 219.477832 505.584156 
L 223.479231 505.788981 
L 227.480629 505.367573 
L 231.482028 505.324566 
L 235.483427 507.200481 
L 239.484825 505.379021 
L 243.486224 505.309715 
L 247.487622 504.810028 
L 251.489021 505.560641 
L 255.49042 506.521339 
L 259.491818 508.201092 
L 263.493217 505.969363 
L 267.494615 505.527225 
L 271.496014 504.659039 
L 275.497413 505.735763 
L 279.498811 505.588178 
L 283.50021 506.023509 
L 287.501608 507.293611 
L 291.503007 505.479577 
L 295.504406 507.746578 
L 299.505804 505.955749 
L 303.507203 505.514849 
L 307.508601 506.642626 
L 311.51 506.815273 
L 315.511399 505.907483 
L 327.515594 505.31188 
L 331.516993 505.951727 
L 335.518392 507.440887 
L 339.51979 506.664903 
L 343.521189 506.135204 
L 347.522587 506.393865 
L 351.523986 507.97925 
L 355.525385 505.337561 
L 359.526783 506.492256 
L 367.52958 507.414588 
L 371.530979 506.273198 
L 375.532378 505.943064 
L 379.533776 508.354556 
L 383.535175 505.751543 
L 391.537972 505.522584 
L 395.539371 506.677588 
L 399.540769 505.71163 
L 407.543566 506.709457 
L 411.544965 506.615089 
L 415.546364 506.27722 
L 419.547762 505.356125 
L 423.549161 507.000296 
L 427.550559 506.906238 
L 435.553357 505.809711 
L 439.554755 507.642928 
L 443.556154 505.811258 
L 447.557552 506.159956 
L 451.558951 505.815899 
L 455.56035 506.554136 
L 459.561748 507.470899 
L 463.563147 506.861065 
L 467.564545 505.835701 
L 471.565944 507.62653 
L 479.568741 505.215037 
L 483.57014 506.321465 
L 487.571538 506.665831 
L 491.572937 506.513295 
L 495.574336 505.985762 
L 499.575734 505.663982 
L 503.577133 506.259275 
L 507.578531 506.194609 
L 511.57993 507.251223 
L 515.581329 506.839097 
L 519.582727 507.592805 
L 523.584126 506.406241 
L 527.585524 507.411494 
L 531.586923 506.38613 
L 535.588322 506.541141 
L 539.58972 506.840025 
L 543.591119 507.620341 
L 547.592517 507.757717 
L 551.593916 505.719365 
L 555.595315 506.715336 
L 559.596713 507.171706 
L 563.598112 507.900661 
L 567.59951 506.99349 
L 571.600909 506.930371 
L 575.602308 506.557849 
L 579.603706 507.767927 
L 583.605105 505.645418 
L 587.606503 506.24071 
L 591.607902 506.641388 
L 595.609301 501.375337 
L 599.610699 506.617255 
L 603.612098 506.037123 
L 607.613497 506.335078 
L 611.614895 505.955131 
L 615.616294 507.540825 
L 619.617692 506.245042 
L 623.619091 506.342504 
L 631.621888 505.730813 
L 635.623287 506.252777 
L 639.624685 505.514849 
L 643.626084 507.762667 
L 647.627483 506.471525 
L 651.628881 506.908094 
L 655.63028 506.910569 
L 659.631678 506.24597 
L 663.633077 506.029388 
L 667.634476 506.92604 
L 671.635874 507.521951 
L 675.637273 506.701412 
L 679.638671 506.869109 
L 683.64007 506.238235 
L 687.641469 507.073316 
L 691.642867 506.422021 
L 695.644266 506.788664 
L 699.645664 506.872513 
L 703.647063 507.840946 
L 707.648462 507.010507 
L 711.64986 506.620039 
L 715.651259 506.628703 
L 719.652657 506.289905 
L 723.654056 507.269787 
L 727.655455 506.827959 
L 731.656853 507.550726 
L 739.65965 506.198941 
L 743.661049 505.921715 
L 747.662448 506.109523 
L 751.663846 506.920161 
L 755.665245 505.816208 
L 759.666643 506.006492 
L 763.668042 506.902834 
L 767.669441 507.018242 
L 771.670839 507.87003 
L 775.672238 506.127469 
L 779.673636 506.688417 
L 783.675035 506.864468 
L 787.676434 507.218426 
L 791.677832 506.457602 
L 795.679231 506.490399 
L 799.680629 507.637977 
L 803.682028 506.896646 
L 807.683427 506.556302 
L 811.684825 505.909648 
L 815.686224 506.165835 
L 819.687622 506.845904 
L 823.689021 506.738231 
L 827.69042 505.75835 
L 831.691818 507.101781 
L 835.693217 505.663363 
L 839.694615 505.486075 
L 843.696014 506.30816 
L 847.697413 506.366947 
L 851.698811 506.143248 
L 855.70021 507.167684 
L 859.701608 506.818367 
L 863.703007 507.452954 
L 867.704406 506.787736 
L 871.705804 506.402219 
L 879.708601 507.485132 
L 883.71 506.987301 
L 887.711399 507.054751 
L 891.712797 505.899129 
L 895.714196 506.717811 
L 899.715594 506.615089 
L 903.716993 507.467496 
L 907.718392 506.773194 
L 915.721189 506.969665 
L 919.722587 506.440585 
L 923.723986 506.659643 
L 927.725385 506.633653 
L 931.726783 507.225542 
L 935.728182 507.203884 
L 939.72958 507.996576 
L 943.730979 507.224924 
L 947.732378 507.602396 
L 951.733776 506.312492 
L 955.735175 506.584458 
L 959.736573 507.069912 
L 963.737972 507.168921 
L 967.739371 506.563418 
L 975.742168 506.931918 
L 979.743566 505.423884 
L 983.744965 506.922327 
L 987.746364 505.888609 
L 995.749161 506.865396 
L 999.750559 506.911188 
L 1003.751958 507.35673 
L 1007.753357 507.037425 
L 1011.754755 506.882104 
L 1015.756154 506.370969 
L 1019.757552 507.663039 
L 1023.758951 507.615082 
L 1027.76035 506.628703 
L 1031.761748 507.401593 
L 1035.763147 507.7769 
L 1039.764545 506.147889 
L 1043.765944 507.125914 
L 1047.767343 507.170159 
L 1051.768741 506.535572 
L 1059.771538 507.078266 
L 1063.772937 507.263908 
L 1071.775734 506.902525 
L 1075.777133 507.448932 
L 1079.778531 506.723999 
L 1083.77993 507.391073 
L 1087.781329 506.645101 
L 1091.782727 507.133031 
L 1091.782727 507.133031 
" clip-path="url(#p580c5341e8)" style="fill: none; stroke: #ff7f0e; stroke-width: 1.5; stroke-linecap: square"/>
   </g>
   <g id="line2d_17">
    <path d="M 103.437273 508.426648 
L 107.438671 508.836298 
L 111.44007 509.085059 
L 115.441469 508.016997 
L 119.442867 508.2178 
L 123.444266 506.269175 
L 127.445664 508.198926 
L 131.447063 506.066516 
L 135.448462 507.627148 
L 139.44986 503.674516 
L 143.451259 505.277846 
L 147.452657 505.105817 
L 151.454056 503.972781 
L 155.455455 504.823332 
L 159.456853 502.987021 
L 163.458252 504.674199 
L 167.45965 504.267952 
L 171.461049 502.823656 
L 175.462448 501.151019 
L 179.463846 503.212576 
L 183.465245 506.226478 
L 187.466643 501.57088 
L 191.468042 499.307592 
L 195.469441 493.278242 
L 199.470839 497.143003 
L 203.472238 494.025142 
L 211.475035 494.274212 
L 215.476434 490.745463 
L 219.477832 495.059169 
L 223.479231 496.005945 
L 227.480629 493.987704 
L 231.482028 493.786901 
L 235.483427 498.247884 
L 239.484825 494.60218 
L 243.486224 493.866727 
L 247.487622 492.976573 
L 251.489021 495.057313 
L 255.49042 496.834837 
L 259.491818 500.929177 
L 263.493217 494.600942 
L 267.494615 494.938502 
L 271.496014 494.205525 
L 275.497413 495.109293 
L 279.498811 495.263995 
L 283.50021 496.705197 
L 287.501608 498.596273 
L 291.503007 494.906633 
L 295.504406 500.199293 
L 299.505804 494.475015 
L 303.507203 495.058551 
L 307.508601 496.503466 
L 311.51 497.630624 
L 315.511399 494.875384 
L 319.512797 495.882802 
L 323.514196 495.195616 
L 327.515594 494.048966 
L 331.516993 494.923032 
L 335.518392 499.293978 
L 339.51979 497.54956 
L 343.521189 495.673645 
L 347.522587 495.845983 
L 351.523986 500.980538 
L 355.525385 494.645497 
L 359.526783 496.957671 
L 367.52958 498.651656 
L 371.530979 495.966032 
L 375.532378 495.554834 
L 379.533776 501.622241 
L 383.535175 494.461711 
L 387.536573 495.652606 
L 391.537972 494.822476 
L 395.539371 497.505315 
L 399.540769 494.872908 
L 403.542168 496.005017 
L 407.543566 496.899503 
L 411.544965 495.819065 
L 415.546364 496.499444 
L 419.547762 494.763998 
L 423.549161 497.752529 
L 427.550559 498.008715 
L 431.551958 494.813503 
L 435.553357 492.398916 
L 439.554755 500.001894 
L 443.556154 494.103112 
L 447.557552 491.315384 
L 451.558951 493.860539 
L 455.56035 497.290898 
L 459.561748 499.088843 
L 463.563147 497.606181 
L 467.564545 493.895193 
L 471.565944 499.802328 
L 475.567343 494.984912 
L 479.568741 493.558871 
L 483.57014 495.912195 
L 487.571538 497.327408 
L 491.572937 496.453033 
L 495.574336 494.274212 
L 499.575734 494.884666 
L 503.577133 497.141147 
L 507.578531 496.001923 
L 511.57993 496.850307 
L 515.581329 496.490471 
L 519.582727 499.865447 
L 523.584126 495.983977 
L 527.585524 499.499422 
L 531.586923 496.223146 
L 535.588322 495.778533 
L 543.591119 499.408457 
L 547.592517 500.651332 
L 551.593916 495.880017 
L 559.596713 497.806056 
L 563.598112 500.396383 
L 567.59951 498.026042 
L 571.600909 497.726848 
L 575.602308 495.975314 
L 579.603706 500.229305 
L 583.605105 498.724056 
L 587.606503 494.260598 
L 591.607902 496.926421 
L 595.609301 496.55328 
L 599.610699 498.529132 
L 603.612098 494.972846 
L 607.613497 495.980264 
L 611.614895 493.758746 
L 615.616294 499.828937 
L 619.617692 495.694066 
L 623.619091 495.760278 
L 627.62049 493.842903 
L 631.621888 495.533176 
L 635.623287 494.690051 
L 639.624685 494.643331 
L 643.626084 500.540566 
L 647.627483 495.580824 
L 651.628881 496.839169 
L 655.63028 497.819051 
L 659.631678 495.549884 
L 663.633077 495.552359 
L 667.634476 496.819367 
L 671.635874 498.854625 
L 675.637273 495.502545 
L 679.638671 498.552028 
L 683.64007 495.733669 
L 687.641469 497.862676 
L 691.642867 496.340101 
L 695.644266 497.390836 
L 699.645664 497.739534 
L 703.647063 500.688151 
L 707.648462 498.296151 
L 711.64986 496.489233 
L 715.651259 496.315967 
L 719.652657 496.276673 
L 723.654056 498.972817 
L 727.655455 497.37289 
L 731.656853 500.343785 
L 735.658252 498.129382 
L 739.65965 495.730575 
L 743.661049 492.948417 
L 747.662448 493.899834 
L 751.663846 497.031927 
L 755.665245 494.692835 
L 763.668042 495.808855 
L 767.669441 496.64641 
L 771.670839 500.686604 
L 775.672238 495.051125 
L 779.673636 496.45458 
L 783.675035 497.723445 
L 787.676434 498.829563 
L 791.677832 495.890537 
L 795.679231 496.638675 
L 799.680629 500.274478 
L 803.682028 497.636812 
L 807.683427 496.800803 
L 811.684825 494.091973 
L 815.686224 495.609289 
L 819.687622 496.210461 
L 823.689021 497.299252 
L 827.69042 495.747593 
L 831.691818 497.823073 
L 835.693217 495.923953 
L 839.694615 495.373833 
L 843.696014 495.504711 
L 847.697413 495.442521 
L 851.698811 495.643014 
L 855.70021 498.290891 
L 859.701608 496.326796 
L 863.703007 499.443729 
L 867.704406 496.330819 
L 871.705804 494.678912 
L 875.707203 497.731489 
L 879.708601 499.346577 
L 883.71 498.173627 
L 887.711399 498.506236 
L 891.712797 495.846602 
L 895.714196 497.541515 
L 899.715594 495.724697 
L 903.716993 499.341317 
L 907.718392 498.216634 
L 911.71979 496.364234 
L 915.721189 498.672386 
L 919.722587 496.604641 
L 923.723986 496.287193 
L 927.725385 497.221283 
L 931.726783 498.62876 
L 935.728182 498.165583 
L 939.72958 501.545818 
L 943.730979 499.200538 
L 947.732378 500.302015 
L 951.733776 496.351549 
L 955.735175 496.6724 
L 959.736573 498.153825 
L 963.737972 498.097514 
L 967.739371 496.942819 
L 971.740769 497.330193 
L 975.742168 497.18106 
L 979.743566 495.196545 
L 983.744965 497.598136 
L 987.746364 495.273586 
L 991.747762 494.472231 
L 995.749161 498.036871 
L 999.750559 498.574924 
L 1003.751958 499.602144 
L 1007.753357 498.708896 
L 1011.754755 497.684769 
L 1015.756154 496.351858 
L 1019.757552 500.222189 
L 1023.758951 500.80294 
L 1027.76035 496.564418 
L 1031.761748 499.674854 
L 1035.763147 500.976825 
L 1039.764545 495.933854 
L 1043.765944 497.723445 
L 1047.767343 498.284084 
L 1051.768741 495.607123 
L 1055.77014 498.561619 
L 1059.771538 498.028207 
L 1063.772937 499.369473 
L 1071.775734 498.103083 
L 1075.777133 500.347188 
L 1079.778531 498.59256 
L 1083.77993 500.324602 
L 1087.781329 498.474058 
L 1091.782727 499.750967 
L 1091.782727 499.750967 
" clip-path="url(#p580c5341e8)" style="fill: none; stroke: #2ca02c; stroke-width: 1.5; stroke-linecap: square"/>
   </g>
   <g id="line2d_18">
    <path d="M 103.437273 453.875369 
L 107.438671 461.162755 
L 111.44007 465.627141 
L 115.441469 448.224419 
L 119.442867 447.836736 
L 123.444266 439.826893 
L 127.445664 453.773575 
L 131.447063 436.756371 
L 135.448462 454.786872 
L 139.44986 409.251308 
L 143.451259 422.081043 
L 147.452657 423.516367 
L 151.454056 414.521072 
L 155.455455 415.685359 
L 159.456853 393.04567 
L 163.458252 417.76548 
L 167.45965 419.722149 
L 171.461049 405.648611 
L 175.462448 384.028408 
L 179.463846 406.081777 
L 183.465245 429.770344 
L 187.466643 388.615318 
L 191.468042 370.70765 
L 195.469441 295.953546 
L 199.470839 348.633241 
L 203.472238 305.697288 
L 207.473636 300.384516 
L 211.475035 314.627917 
L 215.476434 297.977356 
L 219.477832 322.697475 
L 223.479231 331.771667 
L 227.480629 316.705253 
L 231.482028 314.838002 
L 235.483427 350.838981 
L 239.484825 321.841974 
L 243.486224 307.402102 
L 247.487622 309.657965 
L 251.489021 321.913446 
L 255.49042 335.860128 
L 259.491818 380.137347 
L 263.493217 320.963576 
L 267.494615 323.747901 
L 271.496014 311.74118 
L 275.497413 319.841369 
L 279.498811 323.903221 
L 283.50021 331.185347 
L 287.501608 357.571296 
L 291.503007 322.312577 
L 295.504406 372.094707 
L 299.505804 325.667441 
L 303.507203 321.469761 
L 307.508601 337.32237 
L 311.51 347.263511 
L 315.511399 329.067169 
L 319.512797 333.613857 
L 323.514196 323.481195 
L 327.515594 313.036034 
L 331.516993 328.098736 
L 335.518392 363.865496 
L 339.51979 349.611885 
L 343.521189 326.407535 
L 347.522587 328.166804 
L 351.523986 377.127777 
L 355.525385 326.589464 
L 359.526783 337.212531 
L 363.528182 345.872742 
L 367.52958 367.968499 
L 371.530979 331.669564 
L 375.532378 328.815624 
L 379.533776 391.583428 
L 383.535175 326.829871 
L 387.536573 321.856206 
L 391.537972 325.041517 
L 395.539371 341.206005 
L 399.540769 318.936673 
L 403.542168 334.930988 
L 407.543566 341.980133 
L 411.544965 332.664606 
L 415.546364 336.45573 
L 419.547762 330.119142 
L 423.549161 352.926527 
L 427.550559 346.170079 
L 431.551958 318.114278 
L 435.553357 310.172812 
L 439.554755 371.823669 
L 443.556154 327.679184 
L 447.557552 326.388042 
L 451.558951 327.185995 
L 455.56035 344.220216 
L 459.561748 381.216238 
L 463.563147 340.671665 
L 467.564545 323.880016 
L 471.565944 359.474438 
L 475.567343 319.479986 
L 479.568741 321.280096 
L 483.57014 332.567453 
L 487.571538 354.376393 
L 495.574336 321.67273 
L 499.575734 317.028271 
L 503.577133 339.779964 
L 507.578531 336.486052 
L 511.57993 340.56554 
L 515.581329 332.799197 
L 519.582727 370.187233 
L 523.584126 331.603661 
L 527.585524 359.0323 
L 531.586923 332.664297 
L 535.588322 325.392381 
L 539.58972 341.545112 
L 543.591119 367.497896 
L 547.592517 379.759255 
L 551.593916 334.431611 
L 555.595315 344.449175 
L 559.596713 346.436166 
L 563.598112 375.25279 
L 567.59951 347.169143 
L 571.600909 345.951949 
L 575.602308 335.550415 
L 579.603706 368.260266 
L 583.605105 355.386906 
L 587.606503 319.796196 
L 591.607902 342.236629 
L 595.609301 335.702023 
L 599.610699 356.840794 
L 603.612098 331.84809 
L 607.613497 336.048555 
L 611.614895 322.078667 
L 615.616294 372.716608 
L 619.617692 331.054469 
L 623.619091 333.080754 
L 627.62049 318.140577 
L 631.621888 327.605546 
L 635.623287 319.958633 
L 639.624685 322.609914 
L 643.626084 378.374983 
L 647.627483 332.803219 
L 651.628881 337.385179 
L 655.63028 343.306238 
L 659.631678 331.263007 
L 663.633077 332.540535 
L 667.634476 334.330126 
L 671.635874 353.395893 
L 675.637273 329.060672 
L 679.638671 360.146463 
L 683.64007 325.69931 
L 687.641469 346.486908 
L 691.642867 337.680041 
L 695.644266 349.058981 
L 699.645664 345.625528 
L 703.647063 371.339452 
L 707.648462 347.47174 
L 715.651259 334.199249 
L 719.652657 335.995028 
L 723.654056 358.260648 
L 727.655455 343.919166 
L 731.656853 370.286861 
L 735.658252 344.211862 
L 739.65965 334.156551 
L 743.661049 316.381307 
L 747.662448 326.262115 
L 751.663846 343.961245 
L 755.665245 335.079193 
L 759.666643 331.159357 
L 763.668042 329.456709 
L 767.669441 336.588464 
L 771.670839 379.899106 
L 775.672238 328.238895 
L 779.673636 338.23542 
L 783.675035 349.117149 
L 787.676434 354.801823 
L 791.677832 337.02132 
L 795.679231 337.368162 
L 799.680629 378.692431 
L 803.682028 350.606 
L 807.683427 340.579772 
L 811.684825 328.73982 
L 819.687622 333.825798 
L 823.689021 334.471215 
L 827.69042 331.73361 
L 831.691818 357.375134 
L 835.693217 340.094008 
L 839.694615 330.091296 
L 843.696014 322.943141 
L 847.697413 333.59684 
L 851.698811 332.332307 
L 855.70021 355.056463 
L 859.701608 349.406132 
L 863.703007 373.965052 
L 867.704406 337.384251 
L 871.705804 310.282032 
L 875.707203 354.810177 
L 879.708601 361.46081 
L 883.71 345.2199 
L 887.711399 352.002339 
L 891.712797 340.028105 
L 895.714196 341.334717 
L 899.715594 330.447419 
L 903.716993 371.772617 
L 907.718392 347.653979 
L 911.71979 333.634278 
L 915.721189 356.414126 
L 919.722587 340.702605 
L 923.723986 334.837549 
L 927.725385 345.824784 
L 931.726783 357.706196 
L 935.728182 349.910769 
L 939.72958 387.853566 
L 943.730979 356.509732 
L 947.732378 378.957281 
L 951.733776 338.246868 
L 955.735175 336.128381 
L 959.736573 346.752067 
L 963.737972 355.84142 
L 967.739371 339.171676 
L 971.740769 347.457817 
L 975.742168 337.661167 
L 979.743566 331.761147 
L 983.744965 348.29135 
L 987.746364 333.928211 
L 991.747762 322.823402 
L 995.749161 352.255121 
L 999.750559 364.108997 
L 1003.751958 368.936004 
L 1007.753357 358.940098 
L 1011.754755 345.591184 
L 1015.756154 342.854508 
L 1019.757552 378.610439 
L 1023.758951 392.226678 
L 1027.76035 338.698598 
L 1031.761748 369.233341 
L 1035.763147 384.334408 
L 1039.764545 336.188405 
L 1043.765944 351.7576 
L 1047.767343 357.401743 
L 1051.768741 331.825813 
L 1055.77014 374.654713 
L 1059.771538 350.793808 
L 1063.772937 368.561935 
L 1067.774336 362.014333 
L 1071.775734 353.992423 
L 1075.777133 375.433791 
L 1079.778531 358.449074 
L 1083.77993 382.251502 
L 1087.781329 362.478748 
L 1091.782727 376.463487 
L 1091.782727 376.463487 
" clip-path="url(#p580c5341e8)" style="fill: none; stroke: #d62728; stroke-width: 1.5; stroke-linecap: square"/>
   </g>
   <g id="line2d_19">
    <path d="M 103.437273 476.927802 
L 107.438671 476.634487 
L 111.44007 476.035172 
L 119.442867 475.662032 
L 123.444266 475.19576 
L 127.445664 474.437412 
L 131.447063 474.135124 
L 135.448462 471.452594 
L 139.44986 470.048829 
L 143.451259 468.878664 
L 147.452657 466.187162 
L 151.454056 461.958232 
L 155.455455 459.48888 
L 159.456853 457.301087 
L 163.458252 453.388677 
L 167.45965 453.145795 
L 171.461049 450.467906 
L 175.462448 450.369206 
L 179.463846 449.772366 
L 183.465245 442.816971 
L 187.466643 406.346936 
L 191.468042 406.178311 
L 195.469441 384.335336 
L 199.470839 380.940249 
L 203.472238 376.662743 
L 207.473636 368.046159 
L 211.475035 365.877239 
L 215.476434 363.917476 
L 219.477832 362.265879 
L 223.479231 361.848184 
L 227.480629 361.831166 
L 231.482028 351.056182 
L 235.483427 348.29661 
L 243.486224 343.15463 
L 247.487622 336.159321 
L 251.489021 331.959785 
L 255.49042 329.787152 
L 259.491818 326.703634 
L 263.493217 326.113911 
L 267.494615 325.96385 
L 271.496014 325.41404 
L 275.497413 322.756571 
L 279.498811 322.699641 
L 283.50021 320.907884 
L 287.501608 320.612094 
L 291.503007 318.775783 
L 295.504406 308.084956 
L 299.505804 306.44852 
L 307.508601 304.603236 
L 311.51 304.184613 
L 315.511399 304.031767 
L 319.512797 302.825093 
L 323.514196 302.503623 
L 327.515594 301.650596 
L 331.516993 296.852673 
L 335.518392 296.779654 
L 339.51979 292.207286 
L 347.522587 290.468746 
L 351.523986 289.855508 
L 355.525385 288.879649 
L 359.526783 285.004058 
L 363.528182 284.748181 
L 367.52958 284.286241 
L 371.530979 283.96508 
L 375.532378 281.500989 
L 379.533776 281.397648 
L 391.537972 280.513372 
L 395.539371 280.475315 
L 399.540769 278.43913 
L 403.542168 278.074033 
L 407.543566 275.942242 
L 411.544965 275.655115 
L 415.546364 274.761557 
L 419.547762 274.496707 
L 423.549161 271.790353 
L 427.550559 271.744871 
L 431.551958 270.833677 
L 435.553357 270.279844 
L 443.556154 267.981903 
L 447.557552 267.389704 
L 455.56035 267.047194 
L 459.561748 264.632298 
L 463.563147 264.324751 
L 467.564545 264.275556 
L 471.565944 263.812688 
L 475.567343 263.687379 
L 483.57014 260.302812 
L 487.571538 259.104801 
L 491.572937 258.494657 
L 495.574336 258.384509 
L 507.578531 257.130805 
L 511.57993 256.797887 
L 515.581329 255.202292 
L 519.582727 255.131129 
L 523.584126 254.940536 
L 527.585524 254.299761 
L 531.586923 251.639817 
L 535.588322 250.916122 
L 539.58972 249.91582 
L 543.591119 249.898803 
L 547.592517 249.562171 
L 551.593916 248.308777 
L 555.595315 248.035264 
L 559.596713 247.548881 
L 563.598112 247.237002 
L 567.59951 247.12902 
L 571.600909 246.724011 
L 579.603706 246.43379 
L 583.605105 246.040848 
L 587.606503 244.379968 
L 591.607902 244.374399 
L 595.609301 243.565308 
L 599.610699 242.64112 
L 603.612098 241.180734 
L 611.614895 238.581124 
L 615.616294 238.472214 
L 619.617692 237.408174 
L 623.619091 235.776998 
L 631.621888 235.58919 
L 635.623287 234.737092 
L 639.624685 233.361793 
L 651.628881 232.23711 
L 655.63028 232.199982 
L 659.631678 232.011555 
L 663.633077 231.964216 
L 667.634476 231.662857 
L 671.635874 229.963302 
L 675.637273 229.328715 
L 679.638671 229.207738 
L 683.64007 228.441345 
L 687.641469 227.347294 
L 691.642867 227.291601 
L 699.645664 226.054915 
L 703.647063 225.884124 
L 711.64986 224.57318 
L 715.651259 223.588039 
L 719.652657 223.581851 
L 723.654056 223.396827 
L 727.655455 222.122393 
L 731.656853 221.131064 
L 735.658252 219.963374 
L 739.65965 219.316102 
L 747.662448 218.842714 
L 751.663846 218.803729 
L 755.665245 217.600458 
L 759.666643 216.545701 
L 763.668042 216.186483 
L 767.669441 215.309014 
L 771.670839 214.628635 
L 775.672238 214.132352 
L 779.673636 209.187771 
L 787.676434 206.996264 
L 791.677832 206.306603 
L 795.679231 206.215329 
L 799.680629 205.573935 
L 803.682028 205.136439 
L 807.683427 204.887059 
L 811.684825 204.040531 
L 819.687622 203.483604 
L 823.689021 202.812198 
L 827.69042 202.425443 
L 831.691818 200.367909 
L 835.693217 200.197736 
L 839.694615 200.18536 
L 847.697413 199.099353 
L 851.698811 196.81286 
L 855.70021 195.937247 
L 859.701608 192.849398 
L 863.703007 191.432329 
L 867.704406 190.683572 
L 879.708601 189.882217 
L 883.71 188.780739 
L 887.711399 188.616755 
L 891.712797 188.140274 
L 895.714196 187.852528 
L 903.716993 187.499808 
L 907.718392 187.088301 
L 911.71979 186.822214 
L 915.721189 184.990544 
L 919.722587 184.483122 
L 927.725385 182.493656 
L 931.726783 182.363706 
L 935.728182 182.051208 
L 939.72958 181.432401 
L 947.732378 181.135373 
L 951.733776 180.176222 
L 955.735175 179.557415 
L 959.736573 179.486252 
L 963.737972 178.706554 
L 967.739371 178.65705 
L 971.740769 178.236261 
L 975.742168 177.666958 
L 979.743566 176.002366 
L 983.744965 172.951645 
L 987.746364 172.942363 
L 991.747762 172.215264 
L 995.749161 169.727658 
L 999.750559 166.797605 
L 1007.753357 164.789575 
L 1011.754755 164.461607 
L 1015.756154 159.136769 
L 1019.757552 157.144209 
L 1023.758951 156.760549 
L 1027.76035 156.587283 
L 1031.761748 155.08358 
L 1035.763147 152.920849 
L 1039.764545 152.667137 
L 1043.765944 150.479653 
L 1047.767343 148.771745 
L 1051.768741 144.068808 
L 1055.77014 143.2427 
L 1059.771538 135.75513 
L 1063.772937 130.343659 
L 1071.775734 129.743416 
L 1075.777133 109.301112 
L 1079.778531 92.596406 
L 1083.77993 67.506858 
L 1087.781329 57.281066 
L 1091.782727 49.932727 
L 1091.782727 49.932727 
" clip-path="url(#p580c5341e8)" style="fill: none; stroke: #9467bd; stroke-width: 5; stroke-linecap: square"/>
   </g>
   <g id="patch_3">
    <path d="M 54.02 534.04 
L 54.02 26.88 
" style="fill: none; stroke: #000000; stroke-width: 0.8; stroke-linejoin: miter; stroke-linecap: square"/>
   </g>
   <g id="patch_4">
    <path d="M 1141.2 534.04 
L 1141.2 26.88 
" style="fill: none; stroke: #000000; stroke-width: 0.8; stroke-linejoin: miter; stroke-linecap: square"/>
   </g>
   <g id="patch_5">
    <path d="M 54.02 534.04 
L 1141.2 534.04 
" style="fill: none; stroke: #000000; stroke-width: 0.8; stroke-linejoin: miter; stroke-linecap: square"/>
   </g>
   <g id="patch_6">
    <path d="M 54.02 26.88 
L 1141.2 26.88 
" style="fill: none; stroke: #000000; stroke-width: 0.8; stroke-linejoin: miter; stroke-linecap: square"/>
   </g>
   <g id="text_17">
    <!-- Encode times, CID22 set -->
    <g transform="translate(523.852188 20.88) scale(0.12 -0.12)">
     <defs>
      <path id="DejaVuSans-45" d="M 628 4666 
L 3578 4666 
L 3578 4134 
L 1259 4134 
L 1259 2753 
L 3481 2753 
L 3481 2222 
L 1259 2222 
L 1259 531 
L 3634 531 
L 3634 0 
L 628 0 
L 628 4666 
z
" transform="scale(0.015625)"/>
      <path id="DejaVuSans-74" d="M 1172 4494 
L 1172 3500 
L 2356 3500 
L 2356 3053 
L 1172 3053 
L 1172 1153 
Q 1172 725 1289 603 
Q 1406 481 1766 481 
L 2356 481 
L 2356 0 
L 1766 0 
Q 1100 0 847 248 
Q 594 497 594 1153 
L 594 3053 
L 172 3053 
L 172 3500 
L 594 3500 
L 594 4494 
L 1172 4494 
z
" transform="scale(0.015625)"/>
      <path id="DejaVuSans-2c" d="M 750 794 
L 1409 794 
L 1409 256 
L 897 -744 
L 494 -744 
L 750 256 
L 750 794 
z
" transform="scale(0.015625)"/>
      <path id="DejaVuSans-43" d="M 4122 4306 
L 4122 3641 
Q 3803 3938 3442 4084 
Q 3081 4231 2675 4231 
Q 1875 4231 1450 3742 
Q 1025 3253 1025 2328 
Q 1025 1406 1450 917 
Q 1875 428 2675 428 
Q 3081 428 3442 575 
Q 3803 722 4122 1019 
L 4122 359 
Q 3791 134 3420 21 
Q 3050 -91 2638 -91 
Q 1578 -91 968 557 
Q 359 1206 359 2328 
Q 359 3453 968 4101 
Q 1578 4750 2638 4750 
Q 3056 4750 3426 4639 
Q 3797 4528 4122 4306 
z
" transform="scale(0.015625)"/>
      <path id="DejaVuSans-49" d="M 628 4666 
L 1259 4666 
L 1259 0 
L 628 0 
L 628 4666 
z
" transform="scale(0.015625)"/>
      <path id="DejaVuSans-44" d="M 1259 4147 
L 1259 519 
L 2022 519 
Q 2988 519 3436 956 
Q 3884 1394 3884 2338 
Q 3884 3275 3436 3711 
Q 2988 4147 2022 4147 
L 1259 4147 
z
M 628 4666 
L 1925 4666 
Q 3281 4666 3915 4102 
Q 4550 3538 4550 2338 
Q 4550 1131 3912 565 
Q 3275 0 1925 0 
L 628 0 
L 628 4666 
z
" transform="scale(0.015625)"/>
     </defs>
     <use xlink:href="#DejaVuSans-45"/>
     <use xlink:href="#DejaVuSans-6e" x="63.183594"/>
     <use xlink:href="#DejaVuSans-63" x="126.5625"/>
     <use xlink:href="#DejaVuSans-6f" x="181.542969"/>
     <use xlink:href="#DejaVuSans-64" x="242.724609"/>
     <use xlink:href="#DejaVuSans-65" x="306.201172"/>
     <use xlink:href="#DejaVuSans-20" x="367.724609"/>
     <use xlink:href="#DejaVuSans-74" x="399.511719"/>
     <use xlink:href="#DejaVuSans-69" x="438.720703"/>
     <use xlink:href="#DejaVuSans-6d" x="466.503906"/>
     <use xlink:href="#DejaVuSans-65" x="563.916016"/>
     <use xlink:href="#DejaVuSans-73" x="625.439453"/>
     <use xlink:href="#DejaVuSans-2c" x="677.539062"/>
     <use xlink:href="#DejaVuSans-20" x="709.326172"/>
     <use xlink:href="#DejaVuSans-43" x="741.113281"/>
     <use xlink:href="#DejaVuSans-49" x="810.9375"/>
     <use xlink:href="#DejaVuSans-44" x="840.429688"/>
     <use xlink:href="#DejaVuSans-32" x="917.431641"/>
     <use xlink:href="#DejaVuSans-32" x="981.054688"/>
     <use xlink:href="#DejaVuSans-20" x="1044.677734"/>
     <use xlink:href="#DejaVuSans-73" x="1076.464844"/>
     <use xlink:href="#DejaVuSans-65" x="1128.564453"/>
     <use xlink:href="#DejaVuSans-74" x="1190.087891"/>
    </g>
   </g>
   <g id="legend_1">
    <g id="patch_7">
     <path d="M 61.02 108.270625 
L 189.393438 108.270625 
Q 191.393438 108.270625 191.393438 106.270625 
L 191.393438 33.88 
Q 191.393438 31.88 189.393438 31.88 
L 61.02 31.88 
Q 59.02 31.88 59.02 33.88 
L 59.02 106.270625 
Q 59.02 108.270625 61.02 108.270625 
z
" style="fill: #ffffff; opacity: 0.8; stroke: #cccccc; stroke-linejoin: miter"/>
    </g>
    <g id="line2d_20">
     <path d="M 63.02 39.978438 
L 73.02 39.978438 
L 83.02 39.978438 
" style="fill: none; stroke: #1f77b4; stroke-width: 5; stroke-linecap: square"/>
    </g>
    <g id="text_18">
     <!-- QB3 Fast -->
     <g transform="translate(91.02 43.478438) scale(0.1 -0.1)">
      <defs>
       <path id="DejaVuSans-51" d="M 2522 4238 
Q 1834 4238 1429 3725 
Q 1025 3213 1025 2328 
Q 1025 1447 1429 934 
Q 1834 422 2522 422 
Q 3209 422 3611 934 
Q 4013 1447 4013 2328 
Q 4013 3213 3611 3725 
Q 3209 4238 2522 4238 
z
M 3406 84 
L 4238 -825 
L 3475 -825 
L 2784 -78 
Q 2681 -84 2626 -87 
Q 2572 -91 2522 -91 
Q 1538 -91 948 567 
Q 359 1225 359 2328 
Q 359 3434 948 4092 
Q 1538 4750 2522 4750 
Q 3503 4750 4090 4092 
Q 4678 3434 4678 2328 
Q 4678 1516 4351 937 
Q 4025 359 3406 84 
z
" transform="scale(0.015625)"/>
       <path id="DejaVuSans-42" d="M 1259 2228 
L 1259 519 
L 2272 519 
Q 2781 519 3026 730 
Q 3272 941 3272 1375 
Q 3272 1813 3026 2020 
Q 2781 2228 2272 2228 
L 1259 2228 
z
M 1259 4147 
L 1259 2741 
L 2194 2741 
Q 2656 2741 2882 2914 
Q 3109 3088 3109 3444 
Q 3109 3797 2882 3972 
Q 2656 4147 2194 4147 
L 1259 4147 
z
M 628 4666 
L 2241 4666 
Q 2963 4666 3353 4366 
Q 3744 4066 3744 3513 
Q 3744 3084 3544 2831 
Q 3344 2578 2956 2516 
Q 3422 2416 3680 2098 
Q 3938 1781 3938 1306 
Q 3938 681 3513 340 
Q 3088 0 2303 0 
L 628 0 
L 628 4666 
z
" transform="scale(0.015625)"/>
       <path id="DejaVuSans-33" d="M 2597 2516 
Q 3050 2419 3304 2112 
Q 3559 1806 3559 1356 
Q 3559 666 3084 287 
Q 2609 -91 1734 -91 
Q 1441 -91 1130 -33 
Q 819 25 488 141 
L 488 750 
Q 750 597 1062 519 
Q 1375 441 1716 441 
Q 2309 441 2620 675 
Q 2931 909 2931 1356 
Q 2931 1769 2642 2001 
Q 2353 2234 1838 2234 
L 1294 2234 
L 1294 2753 
L 1863 2753 
Q 2328 2753 2575 2939 
Q 2822 3125 2822 3475 
Q 2822 3834 2567 4026 
Q 2313 4219 1838 4219 
Q 1578 4219 1281 4162 
Q 984 4106 628 3988 
L 628 4550 
Q 988 4650 1302 4700 
Q 1616 4750 1894 4750 
Q 2613 4750 3031 4423 
Q 3450 4097 3450 3541 
Q 3450 3153 3228 2886 
Q 3006 2619 2597 2516 
z
" transform="scale(0.015625)"/>
       <path id="DejaVuSans-61" d="M 2194 1759 
Q 1497 1759 1228 1600 
Q 959 1441 959 1056 
Q 959 750 1161 570 
Q 1363 391 1709 391 
Q 2188 391 2477 730 
Q 2766 1069 2766 1631 
L 2766 1759 
L 2194 1759 
z
M 3341 1997 
L 3341 0 
L 2766 0 
L 2766 531 
Q 2569 213 2275 61 
Q 1981 -91 1556 -91 
Q 1019 -91 701 211 
Q 384 513 384 1019 
Q 384 1609 779 1909 
Q 1175 2209 1959 2209 
L 2766 2209 
L 2766 2266 
Q 2766 2663 2505 2880 
Q 2244 3097 1772 3097 
Q 1472 3097 1187 3025 
Q 903 2953 641 2809 
L 641 3341 
Q 956 3463 1253 3523 
Q 1550 3584 1831 3584 
Q 2591 3584 2966 3190 
Q 3341 2797 3341 1997 
z
" transform="scale(0.015625)"/>
      </defs>
      <use xlink:href="#DejaVuSans-51"/>
      <use xlink:href="#DejaVuSans-42" x="78.710938"/>
      <use xlink:href="#DejaVuSans-33" x="147.314453"/>
      <use xlink:href="#DejaVuSans-20" x="210.9375"/>
      <use xlink:href="#DejaVuSans-46" x="242.724609"/>
      <use xlink:href="#DejaVuSans-61" x="291.119141"/>
      <use xlink:href="#DejaVuSans-73" x="352.398438"/>
      <use xlink:href="#DejaVuSans-74" x="404.498047"/>
     </g>
    </g>
    <g id="line2d_21">
     <path d="M 63.02 54.656563 
L 73.02 54.656563 
L 83.02 54.656563 
" style="fill: none; stroke: #ff7f0e; stroke-width: 1.5; stroke-linecap: square"/>
    </g>
    <g id="text_19">
     <!-- QB3 Base -->
     <g transform="translate(91.02 58.156563) scale(0.1 -0.1)">
      <use xlink:href="#DejaVuSans-51"/>
      <use xlink:href="#DejaVuSans-42" x="78.710938"/>
      <use xlink:href="#DejaVuSans-33" x="147.314453"/>
      <use xlink:href="#DejaVuSans-20" x="210.9375"/>
      <use xlink:href="#DejaVuSans-42" x="242.724609"/>
      <use xlink:href="#DejaVuSans-61" x="311.328125"/>
      <use xlink:href="#DejaVuSans-73" x="372.607422"/>
      <use xlink:href="#DejaVuSans-65" x="424.707031"/>
     </g>
    </g>
    <g id="line2d_22">
     <path d="M 63.02 69.334688 
L 73.02 69.334688 
L 83.02 69.334688 
" style="fill: none; stroke: #2ca02c; stroke-width: 1.5; stroke-linecap: square"/>
    </g>
    <g id="text_20">
     <!-- QB3 Best -->
     <g transform="translate(91.02 72.834688) scale(0.1 -0.1)">
      <use xlink:href="#DejaVuSans-51"/>
      <use xlink:href="#DejaVuSans-42" x="78.710938"/>
      <use xlink:href="#DejaVuSans-33" x="147.314453"/>
      <use xlink:href="#DejaVuSans-20" x="210.9375"/>
      <use xlink:href="#DejaVuSans-42" x="242.724609"/>
      <use xlink:href="#DejaVuSans-65" x="311.328125"/>
      <use xlink:href="#DejaVuSans-73" x="372.851562"/>
      <use xlink:href="#DejaVuSans-74" x="424.951172"/>
     </g>
    </g>
    <g id="line2d_23">
     <path d="M 63.02 84.012813 
L 73.02 84.012813 
L 83.02 84.012813 
" style="fill: none; stroke: #d62728; stroke-width: 1.5; stroke-linecap: square"/>
    </g>
    <g id="text_21">
     <!-- QB3 Best band mix -->
     <g transform="translate(91.02 87.512813) scale(0.1 -0.1)">
      <defs>
       <path id="DejaVuSans-78" d="M 3513 3500 
L 2247 1797 
L 3578 0 
L 2900 0 
L 1881 1375 
L 863 0 
L 184 0 
L 1544 1831 
L 300 3500 
L 978 3500 
L 1906 2253 
L 2834 3500 
L 3513 3500 
z
" transform="scale(0.015625)"/>
      </defs>
      <use xlink:href="#DejaVuSans-51"/>
      <use xlink:href="#DejaVuSans-42" x="78.710938"/>
      <use xlink:href="#DejaVuSans-33" x="147.314453"/>
      <use xlink:href="#DejaVuSans-20" x="210.9375"/>
      <use xlink:href="#DejaVuSans-42" x="242.724609"/>
      <use xlink:href="#DejaVuSans-65" x="311.328125"/>
      <use xlink:href="#DejaVuSans-73" x="372.851562"/>
      <use xlink:href="#DejaVuSans-74" x="424.951172"/>
      <use xlink:href="#DejaVuSans-20" x="464.160156"/>
      <use xlink:href="#DejaVuSans-62" x="495.947266"/>
      <use xlink:href="#DejaVuSans-61" x="559.423828"/>
      <use xlink:href="#DejaVuSans-6e" x="620.703125"/>
      <use xlink:href="#DejaVuSans-64" x="684.082031"/>
      <use xlink:href="#DejaVuSans-20" x="747.558594"/>
      <use xlink:href="#DejaVuSans-6d" x="779.345703"/>
      <use xlink:href="#DejaVuSans-69" x="876.757812"/>
      <use xlink:href="#DejaVuSans-78" x="904.541016"/>
     </g>
    </g>
    <g id="line2d_24">
     <path d="M 63.02 98.690938 
L 73.02 98.690938 
L 83.02 98.690938 
" style="fill: none; stroke: #9467bd; stroke-width: 5; stroke-linecap: square"/>
    </g>
    <g id="text_22">
     <!-- PNG encode -->
     <g transform="translate(91.02 102.190938) scale(0.1 -0.1)">
      <defs>
       <path id="DejaVuSans-50" d="M 1259 4147 
L 1259 2394 
L 2053 2394 
Q 2494 2394 2734 2622 
Q 2975 2850 2975 3272 
Q 2975 3691 2734 3919 
Q 2494 4147 2053 4147 
L 1259 4147 
z
M 628 4666 
L 2053 4666 
Q 2838 4666 3239 4311 
Q 3641 3956 3641 3272 
Q 3641 2581 3239 2228 
Q 2838 1875 2053 1875 
L 1259 1875 
L 1259 0 
L 628 0 
L 628 4666 
z
" transform="scale(0.015625)"/>
       <path id="DejaVuSans-4e" d="M 628 4666 
L 1478 4666 
L 3547 763 
L 3547 4666 
L 4159 4666 
L 4159 0 
L 3309 0 
L 1241 3903 
L 1241 0 
L 628 0 
L 628 4666 
z
" transform="scale(0.015625)"/>
       <path id="DejaVuSans-47" d="M 3809 666 
L 3809 1919 
L 2778 1919 
L 2778 2438 
L 4434 2438 
L 4434 434 
Q 4069 175 3628 42 
Q 3188 -91 2688 -91 
Q 1594 -91 976 548 
Q 359 1188 359 2328 
Q 359 3472 976 4111 
Q 1594 4750 2688 4750 
Q 3144 4750 3555 4637 
Q 3966 4525 4313 4306 
L 4313 3634 
Q 3963 3931 3569 4081 
Q 3175 4231 2741 4231 
Q 1884 4231 1454 3753 
Q 1025 3275 1025 2328 
Q 1025 1384 1454 906 
Q 1884 428 2741 428 
Q 3075 428 3337 486 
Q 3600 544 3809 666 
z
" transform="scale(0.015625)"/>
      </defs>
      <use xlink:href="#DejaVuSans-50"/>
      <use xlink:href="#DejaVuSans-4e" x="60.302734"/>
      <use xlink:href="#DejaVuSans-47" x="135.107422"/>
      <use xlink:href="#DejaVuSans-20" x="212.597656"/>
      <use xlink:href="#DejaVuSans-65" x="244.384766"/>
      <use xlink:href="#DejaVuSans-6e" x="305.908203"/>
      <use xlink:href="#DejaVuSans-63" x="369.287109"/>
      <use xlink:href="#DejaVuSans-6f" x="424.267578"/>
      <use xlink:href="#DejaVuSans-64" x="485.449219"/>
      <use xlink:href="#DejaVuSans-65" x="548.925781"/>
     </g>
    </g>
   </g>
  </g>
 </g>
 <defs>
  <clipPath id="p580c5341e8">
   <rect x="54.02" y="26.88" width="1087.18" height="507.16"/>
  </clipPath>
 </defs>
</svg>
