<?xml version="1.0" encoding="utf-8" standalone="no"?>
<!DOCTYPE svg PUBLIC "-//W3C//DTD SVG 1.1//EN"
  "http://www.w3.org/Graphics/SVG/1.1/DTD/svg11.dtd">
<svg xmlns:xlink="http://www.w3.org/1999/xlink" width="1152pt" height="576pt" viewBox="0 0 1152 576" xmlns="http://www.w3.org/2000/svg" version="1.1">
 <metadata>
  <rdf:RDF xmlns:dc="http://purl.org/dc/elements/1.1/" xmlns:cc="http://creativecommons.org/ns#" xmlns:rdf="http://www.w3.org/1999/02/22-rdf-syntax-ns#">
   <cc:Work>
    <dc:type rdf:resource="http://purl.org/dc/dcmitype/StillImage"/>
    <dc:date>2025-04-18T18:24:51.478808</dc:date>
    <dc:format>image/svg+xml</dc:format>
    <dc:creator>
     <cc:Agent>
      <dc:title>Matplotlib v3.9.0, https://matplotlib.org/</dc:title>
     </cc:Agent>
    </dc:creator>
   </cc:Work>
  </rdf:RDF>
 </metadata>
 <defs>
  <style type="text/css">*{stroke-linejoin: round; stroke-linecap: butt}</style>
 </defs>
 <g id="figure_1">
  <g id="patch_1">
   <path d="M 0 576 
L 1152 576 
L 1152 0 
L 0 0 
z
" style="fill: #ffffff"/>
  </g>
  <g id="axes_1">
   <g id="patch_2">
    <path d="M 54.02 534.04 
L 1141.2 534.04 
L 1141.2 26.88 
L 54.02 26.88 
z
" style="fill: #ffffff"/>
   </g>
   <g id="matplotlib.axis_1">
    <g id="xtick_1">
     <g id="line2d_1">
      <defs>
       <path id="mddb284788a" d="M 0 0 
L 0 3.5 
" style="stroke: #000000; stroke-width: 0.8"/>
      </defs>
      <g>
       <use xlink:href="#mddb284788a" x="103.437273" y="534.04" style="stroke: #000000; stroke-width: 0.8"/>
      </g>
     </g>
     <g id="text_1">
      <!-- 0 -->
      <g transform="translate(100.256023 548.638438) scale(0.1 -0.1)">
       <defs>
        <path id="DejaVuSans-30" d="M 2034 4250 
Q 1547 4250 1301 3770 
Q 1056 3291 1056 2328 
Q 1056 1369 1301 889 
Q 1547 409 2034 409 
Q 2525 409 2770 889 
Q 3016 1369 3016 2328 
Q 3016 3291 2770 3770 
Q 2525 4250 2034 4250 
z
M 2034 4750 
Q 2819 4750 3233 4129 
Q 3647 3509 3647 2328 
Q 3647 1150 3233 529 
Q 2819 -91 2034 -91 
Q 1250 -91 836 529 
Q 422 1150 422 2328 
Q 422 3509 836 4129 
Q 1250 4750 2034 4750 
z
" transform="scale(0.015625)"/>
       </defs>
       <use xlink:href="#DejaVuSans-30"/>
      </g>
     </g>
    </g>
    <g id="xtick_2">
     <g id="line2d_2">
      <g>
       <use xlink:href="#mddb284788a" x="303.507203" y="534.04" style="stroke: #000000; stroke-width: 0.8"/>
      </g>
     </g>
     <g id="text_2">
      <!-- 50 -->
      <g transform="translate(297.144703 548.638438) scale(0.1 -0.1)">
       <defs>
        <path id="DejaVuSans-35" d="M 691 4666 
L 3169 4666 
L 3169 4134 
L 1269 4134 
L 1269 2991 
Q 1406 3038 1543 3061 
Q 1681 3084 1819 3084 
Q 2600 3084 3056 2656 
Q 3513 2228 3513 1497 
Q 3513 744 3044 326 
Q 2575 -91 1722 -91 
Q 1428 -91 1123 -41 
Q 819 9 494 109 
L 494 744 
Q 775 591 1075 516 
Q 1375 441 1709 441 
Q 2250 441 2565 725 
Q 2881 1009 2881 1497 
Q 2881 1984 2565 2268 
Q 2250 2553 1709 2553 
Q 1456 2553 1204 2497 
Q 953 2441 691 2322 
L 691 4666 
z
" transform="scale(0.015625)"/>
       </defs>
       <use xlink:href="#DejaVuSans-35"/>
       <use xlink:href="#DejaVuSans-30" x="63.623047"/>
      </g>
     </g>
    </g>
    <g id="xtick_3">
     <g id="line2d_3">
      <g>
       <use xlink:href="#mddb284788a" x="503.577133" y="534.04" style="stroke: #000000; stroke-width: 0.8"/>
      </g>
     </g>
     <g id="text_3">
      <!-- 100 -->
      <g transform="translate(494.033383 548.638438) scale(0.1 -0.1)">
       <defs>
        <path id="DejaVuSans-31" d="M 794 531 
L 1825 531 
L 1825 4091 
L 703 3866 
L 703 4441 
L 1819 4666 
L 2450 4666 
L 2450 531 
L 3481 531 
L 3481 0 
L 794 0 
L 794 531 
z
" transform="scale(0.015625)"/>
       </defs>
       <use xlink:href="#DejaVuSans-31"/>
       <use xlink:href="#DejaVuSans-30" x="63.623047"/>
       <use xlink:href="#DejaVuSans-30" x="127.246094"/>
      </g>
     </g>
    </g>
    <g id="xtick_4">
     <g id="line2d_4">
      <g>
       <use xlink:href="#mddb284788a" x="703.647063" y="534.04" style="stroke: #000000; stroke-width: 0.8"/>
      </g>
     </g>
     <g id="text_4">
      <!-- 150 -->
      <g transform="translate(694.103313 548.638438) scale(0.1 -0.1)">
       <use xlink:href="#DejaVuSans-31"/>
       <use xlink:href="#DejaVuSans-35" x="63.623047"/>
       <use xlink:href="#DejaVuSans-30" x="127.246094"/>
      </g>
     </g>
    </g>
    <g id="xtick_5">
     <g id="line2d_5">
      <g>
       <use xlink:href="#mddb284788a" x="903.716993" y="534.04" style="stroke: #000000; stroke-width: 0.8"/>
      </g>
     </g>
     <g id="text_5">
      <!-- 200 -->
      <g transform="translate(894.173243 548.638438) scale(0.1 -0.1)">
       <defs>
        <path id="DejaVuSans-32" d="M 1228 531 
L 3431 531 
L 3431 0 
L 469 0 
L 469 531 
Q 828 903 1448 1529 
Q 2069 2156 2228 2338 
Q 2531 2678 2651 2914 
Q 2772 3150 2772 3378 
Q 2772 3750 2511 3984 
Q 2250 4219 1831 4219 
Q 1534 4219 1204 4116 
Q 875 4013 500 3803 
L 500 4441 
Q 881 4594 1212 4672 
Q 1544 4750 1819 4750 
Q 2544 4750 2975 4387 
Q 3406 4025 3406 3419 
Q 3406 3131 3298 2873 
Q 3191 2616 2906 2266 
Q 2828 2175 2409 1742 
Q 1991 1309 1228 531 
z
" transform="scale(0.015625)"/>
       </defs>
       <use xlink:href="#DejaVuSans-32"/>
       <use xlink:href="#DejaVuSans-30" x="63.623047"/>
       <use xlink:href="#DejaVuSans-30" x="127.246094"/>
      </g>
     </g>
    </g>
    <g id="xtick_6">
     <g id="line2d_6">
      <g>
       <use xlink:href="#mddb284788a" x="1103.786923" y="534.04" style="stroke: #000000; stroke-width: 0.8"/>
      </g>
     </g>
     <g id="text_6">
      <!-- 250 -->
      <g transform="translate(1094.243173 548.638438) scale(0.1 -0.1)">
       <use xlink:href="#DejaVuSans-32"/>
       <use xlink:href="#DejaVuSans-35" x="63.623047"/>
       <use xlink:href="#DejaVuSans-30" x="127.246094"/>
      </g>
     </g>
    </g>
    <g id="text_7">
     <!-- File number -->
     <g transform="translate(568.138906 562.316562) scale(0.1 -0.1)">
      <defs>
       <path id="DejaVuSans-46" d="M 628 4666 
L 3309 4666 
L 3309 4134 
L 1259 4134 
L 1259 2759 
L 3109 2759 
L 3109 2228 
L 1259 2228 
L 1259 0 
L 628 0 
L 628 4666 
z
" transform="scale(0.015625)"/>
       <path id="DejaVuSans-69" d="M 603 3500 
L 1178 3500 
L 1178 0 
L 603 0 
L 603 3500 
z
M 603 4863 
L 1178 4863 
L 1178 4134 
L 603 4134 
L 603 4863 
z
" transform="scale(0.015625)"/>
       <path id="DejaVuSans-6c" d="M 603 4863 
L 1178 4863 
L 1178 0 
L 603 0 
L 603 4863 
z
" transform="scale(0.015625)"/>
       <path id="DejaVuSans-65" d="M 3597 1894 
L 3597 1613 
L 953 1613 
Q 991 1019 1311 708 
Q 1631 397 2203 397 
Q 2534 397 2845 478 
Q 3156 559 3463 722 
L 3463 178 
Q 3153 47 2828 -22 
Q 2503 -91 2169 -91 
Q 1331 -91 842 396 
Q 353 884 353 1716 
Q 353 2575 817 3079 
Q 1281 3584 2069 3584 
Q 2775 3584 3186 3129 
Q 3597 2675 3597 1894 
z
M 3022 2063 
Q 3016 2534 2758 2815 
Q 2500 3097 2075 3097 
Q 1594 3097 1305 2825 
Q 1016 2553 972 2059 
L 3022 2063 
z
" transform="scale(0.015625)"/>
       <path id="DejaVuSans-20" transform="scale(0.015625)"/>
       <path id="DejaVuSans-6e" d="M 3513 2113 
L 3513 0 
L 2938 0 
L 2938 2094 
Q 2938 2591 2744 2837 
Q 2550 3084 2163 3084 
Q 1697 3084 1428 2787 
Q 1159 2491 1159 1978 
L 1159 0 
L 581 0 
L 581 3500 
L 1159 3500 
L 1159 2956 
Q 1366 3272 1645 3428 
Q 1925 3584 2291 3584 
Q 2894 3584 3203 3211 
Q 3513 2838 3513 2113 
z
" transform="scale(0.015625)"/>
       <path id="DejaVuSans-75" d="M 544 1381 
L 544 3500 
L 1119 3500 
L 1119 1403 
Q 1119 906 1312 657 
Q 1506 409 1894 409 
Q 2359 409 2629 706 
Q 2900 1003 2900 1516 
L 2900 3500 
L 3475 3500 
L 3475 0 
L 2900 0 
L 2900 538 
Q 2691 219 2414 64 
Q 2138 -91 1772 -91 
Q 1169 -91 856 284 
Q 544 659 544 1381 
z
M 1991 3584 
L 1991 3584 
z
" transform="scale(0.015625)"/>
       <path id="DejaVuSans-6d" d="M 3328 2828 
Q 3544 3216 3844 3400 
Q 4144 3584 4550 3584 
Q 5097 3584 5394 3201 
Q 5691 2819 5691 2113 
L 5691 0 
L 5113 0 
L 5113 2094 
Q 5113 2597 4934 2840 
Q 4756 3084 4391 3084 
Q 3944 3084 3684 2787 
Q 3425 2491 3425 1978 
L 3425 0 
L 2847 0 
L 2847 2094 
Q 2847 2600 2669 2842 
Q 2491 3084 2119 3084 
Q 1678 3084 1418 2786 
Q 1159 2488 1159 1978 
L 1159 0 
L 581 0 
L 581 3500 
L 1159 3500 
L 1159 2956 
Q 1356 3278 1631 3431 
Q 1906 3584 2284 3584 
Q 2666 3584 2933 3390 
Q 3200 3197 3328 2828 
z
" transform="scale(0.015625)"/>
       <path id="DejaVuSans-62" d="M 3116 1747 
Q 3116 2381 2855 2742 
Q 2594 3103 2138 3103 
Q 1681 3103 1420 2742 
Q 1159 2381 1159 1747 
Q 1159 1113 1420 752 
Q 1681 391 2138 391 
Q 2594 391 2855 752 
Q 3116 1113 3116 1747 
z
M 1159 2969 
Q 1341 3281 1617 3432 
Q 1894 3584 2278 3584 
Q 2916 3584 3314 3078 
Q 3713 2572 3713 1747 
Q 3713 922 3314 415 
Q 2916 -91 2278 -91 
Q 1894 -91 1617 61 
Q 1341 213 1159 525 
L 1159 0 
L 581 0 
L 581 4863 
L 1159 4863 
L 1159 2969 
z
" transform="scale(0.015625)"/>
       <path id="DejaVuSans-72" d="M 2631 2963 
Q 2534 3019 2420 3045 
Q 2306 3072 2169 3072 
Q 1681 3072 1420 2755 
Q 1159 2438 1159 1844 
L 1159 0 
L 581 0 
L 581 3500 
L 1159 3500 
L 1159 2956 
Q 1341 3275 1631 3429 
Q 1922 3584 2338 3584 
Q 2397 3584 2469 3576 
Q 2541 3569 2628 3553 
L 2631 2963 
z
" transform="scale(0.015625)"/>
      </defs>
      <use xlink:href="#DejaVuSans-46"/>
      <use xlink:href="#DejaVuSans-69" x="50.269531"/>
      <use xlink:href="#DejaVuSans-6c" x="78.052734"/>
      <use xlink:href="#DejaVuSans-65" x="105.835938"/>
      <use xlink:href="#DejaVuSans-20" x="167.359375"/>
      <use xlink:href="#DejaVuSans-6e" x="199.146484"/>
      <use xlink:href="#DejaVuSans-75" x="262.525391"/>
      <use xlink:href="#DejaVuSans-6d" x="325.904297"/>
      <use xlink:href="#DejaVuSans-62" x="423.316406"/>
      <use xlink:href="#DejaVuSans-65" x="486.792969"/>
      <use xlink:href="#DejaVuSans-72" x="548.316406"/>
     </g>
    </g>
   </g>
   <g id="matplotlib.axis_2">
    <g id="ytick_1">
     <g id="line2d_7">
      <defs>
       <path id="mb306b0c87e" d="M 0 0 
L -3.5 0 
" style="stroke: #000000; stroke-width: 0.8"/>
      </defs>
      <g>
       <use xlink:href="#mb306b0c87e" x="54.02" y="513.792783" style="stroke: #000000; stroke-width: 0.8"/>
      </g>
     </g>
     <g id="text_8">
      <!-- 0.00 -->
      <g transform="translate(24.754375 517.592002) scale(0.1 -0.1)">
       <defs>
        <path id="DejaVuSans-2e" d="M 684 794 
L 1344 794 
L 1344 0 
L 684 0 
L 684 794 
z
" transform="scale(0.015625)"/>
       </defs>
       <use xlink:href="#DejaVuSans-30"/>
       <use xlink:href="#DejaVuSans-2e" x="63.623047"/>
       <use xlink:href="#DejaVuSans-30" x="95.410156"/>
       <use xlink:href="#DejaVuSans-30" x="159.033203"/>
      </g>
     </g>
    </g>
    <g id="ytick_2">
     <g id="line2d_8">
      <g>
       <use xlink:href="#mb306b0c87e" x="54.02" y="451.847315" style="stroke: #000000; stroke-width: 0.8"/>
      </g>
     </g>
     <g id="text_9">
      <!-- 0.02 -->
      <g transform="translate(24.754375 455.646533) scale(0.1 -0.1)">
       <use xlink:href="#DejaVuSans-30"/>
       <use xlink:href="#DejaVuSans-2e" x="63.623047"/>
       <use xlink:href="#DejaVuSans-30" x="95.410156"/>
       <use xlink:href="#DejaVuSans-32" x="159.033203"/>
      </g>
     </g>
    </g>
    <g id="ytick_3">
     <g id="line2d_9">
      <g>
       <use xlink:href="#mb306b0c87e" x="54.02" y="389.901846" style="stroke: #000000; stroke-width: 0.8"/>
      </g>
     </g>
     <g id="text_10">
      <!-- 0.04 -->
      <g transform="translate(24.754375 393.701065) scale(0.1 -0.1)">
       <defs>
        <path id="DejaVuSans-34" d="M 2419 4116 
L 825 1625 
L 2419 1625 
L 2419 4116 
z
M 2253 4666 
L 3047 4666 
L 3047 1625 
L 3713 1625 
L 3713 1100 
L 3047 1100 
L 3047 0 
L 2419 0 
L 2419 1100 
L 313 1100 
L 313 1709 
L 2253 4666 
z
" transform="scale(0.015625)"/>
       </defs>
       <use xlink:href="#DejaVuSans-30"/>
       <use xlink:href="#DejaVuSans-2e" x="63.623047"/>
       <use xlink:href="#DejaVuSans-30" x="95.410156"/>
       <use xlink:href="#DejaVuSans-34" x="159.033203"/>
      </g>
     </g>
    </g>
    <g id="ytick_4">
     <g id="line2d_10">
      <g>
       <use xlink:href="#mb306b0c87e" x="54.02" y="327.956378" style="stroke: #000000; stroke-width: 0.8"/>
      </g>
     </g>
     <g id="text_11">
      <!-- 0.06 -->
      <g transform="translate(24.754375 331.755597) scale(0.1 -0.1)">
       <defs>
        <path id="DejaVuSans-36" d="M 2113 2584 
Q 1688 2584 1439 2293 
Q 1191 2003 1191 1497 
Q 1191 994 1439 701 
Q 1688 409 2113 409 
Q 2538 409 2786 701 
Q 3034 994 3034 1497 
Q 3034 2003 2786 2293 
Q 2538 2584 2113 2584 
z
M 3366 4563 
L 3366 3988 
Q 3128 4100 2886 4159 
Q 2644 4219 2406 4219 
Q 1781 4219 1451 3797 
Q 1122 3375 1075 2522 
Q 1259 2794 1537 2939 
Q 1816 3084 2150 3084 
Q 2853 3084 3261 2657 
Q 3669 2231 3669 1497 
Q 3669 778 3244 343 
Q 2819 -91 2113 -91 
Q 1303 -91 875 529 
Q 447 1150 447 2328 
Q 447 3434 972 4092 
Q 1497 4750 2381 4750 
Q 2619 4750 2861 4703 
Q 3103 4656 3366 4563 
z
" transform="scale(0.015625)"/>
       </defs>
       <use xlink:href="#DejaVuSans-30"/>
       <use xlink:href="#DejaVuSans-2e" x="63.623047"/>
       <use xlink:href="#DejaVuSans-30" x="95.410156"/>
       <use xlink:href="#DejaVuSans-36" x="159.033203"/>
      </g>
     </g>
    </g>
    <g id="ytick_5">
     <g id="line2d_11">
      <g>
       <use xlink:href="#mb306b0c87e" x="54.02" y="266.01091" style="stroke: #000000; stroke-width: 0.8"/>
      </g>
     </g>
     <g id="text_12">
      <!-- 0.08 -->
      <g transform="translate(24.754375 269.810129) scale(0.1 -0.1)">
       <defs>
        <path id="DejaVuSans-38" d="M 2034 2216 
Q 1584 2216 1326 1975 
Q 1069 1734 1069 1313 
Q 1069 891 1326 650 
Q 1584 409 2034 409 
Q 2484 409 2743 651 
Q 3003 894 3003 1313 
Q 3003 1734 2745 1975 
Q 2488 2216 2034 2216 
z
M 1403 2484 
Q 997 2584 770 2862 
Q 544 3141 544 3541 
Q 544 4100 942 4425 
Q 1341 4750 2034 4750 
Q 2731 4750 3128 4425 
Q 3525 4100 3525 3541 
Q 3525 3141 3298 2862 
Q 3072 2584 2669 2484 
Q 3125 2378 3379 2068 
Q 3634 1759 3634 1313 
Q 3634 634 3220 271 
Q 2806 -91 2034 -91 
Q 1263 -91 848 271 
Q 434 634 434 1313 
Q 434 1759 690 2068 
Q 947 2378 1403 2484 
z
M 1172 3481 
Q 1172 3119 1398 2916 
Q 1625 2713 2034 2713 
Q 2441 2713 2670 2916 
Q 2900 3119 2900 3481 
Q 2900 3844 2670 4047 
Q 2441 4250 2034 4250 
Q 1625 4250 1398 4047 
Q 1172 3844 1172 3481 
z
" transform="scale(0.015625)"/>
       </defs>
       <use xlink:href="#DejaVuSans-30"/>
       <use xlink:href="#DejaVuSans-2e" x="63.623047"/>
       <use xlink:href="#DejaVuSans-30" x="95.410156"/>
       <use xlink:href="#DejaVuSans-38" x="159.033203"/>
      </g>
     </g>
    </g>
    <g id="ytick_6">
     <g id="line2d_12">
      <g>
       <use xlink:href="#mb306b0c87e" x="54.02" y="204.065441" style="stroke: #000000; stroke-width: 0.8"/>
      </g>
     </g>
     <g id="text_13">
      <!-- 0.10 -->
      <g transform="translate(24.754375 207.86466) scale(0.1 -0.1)">
       <use xlink:href="#DejaVuSans-30"/>
       <use xlink:href="#DejaVuSans-2e" x="63.623047"/>
       <use xlink:href="#DejaVuSans-31" x="95.410156"/>
       <use xlink:href="#DejaVuSans-30" x="159.033203"/>
      </g>
     </g>
    </g>
    <g id="ytick_7">
     <g id="line2d_13">
      <g>
       <use xlink:href="#mb306b0c87e" x="54.02" y="142.119973" style="stroke: #000000; stroke-width: 0.8"/>
      </g>
     </g>
     <g id="text_14">
      <!-- 0.12 -->
      <g transform="translate(24.754375 145.919192) scale(0.1 -0.1)">
       <use xlink:href="#DejaVuSans-30"/>
       <use xlink:href="#DejaVuSans-2e" x="63.623047"/>
       <use xlink:href="#DejaVuSans-31" x="95.410156"/>
       <use xlink:href="#DejaVuSans-32" x="159.033203"/>
      </g>
     </g>
    </g>
    <g id="ytick_8">
     <g id="line2d_14">
      <g>
       <use xlink:href="#mb306b0c87e" x="54.02" y="80.174505" style="stroke: #000000; stroke-width: 0.8"/>
      </g>
     </g>
     <g id="text_15">
      <!-- 0.14 -->
      <g transform="translate(24.754375 83.973724) scale(0.1 -0.1)">
       <use xlink:href="#DejaVuSans-30"/>
       <use xlink:href="#DejaVuSans-2e" x="63.623047"/>
       <use xlink:href="#DejaVuSans-31" x="95.410156"/>
       <use xlink:href="#DejaVuSans-34" x="159.033203"/>
      </g>
     </g>
    </g>
    <g id="text_16">
     <!-- Seconds -->
     <g transform="translate(18.674687 301.467031) rotate(-90) scale(0.1 -0.1)">
      <defs>
       <path id="DejaVuSans-53" d="M 3425 4513 
L 3425 3897 
Q 3066 4069 2747 4153 
Q 2428 4238 2131 4238 
Q 1616 4238 1336 4038 
Q 1056 3838 1056 3469 
Q 1056 3159 1242 3001 
Q 1428 2844 1947 2747 
L 2328 2669 
Q 3034 2534 3370 2195 
Q 3706 1856 3706 1288 
Q 3706 609 3251 259 
Q 2797 -91 1919 -91 
Q 1588 -91 1214 -16 
Q 841 59 441 206 
L 441 856 
Q 825 641 1194 531 
Q 1563 422 1919 422 
Q 2459 422 2753 634 
Q 3047 847 3047 1241 
Q 3047 1584 2836 1778 
Q 2625 1972 2144 2069 
L 1759 2144 
Q 1053 2284 737 2584 
Q 422 2884 422 3419 
Q 422 4038 858 4394 
Q 1294 4750 2059 4750 
Q 2388 4750 2728 4690 
Q 3069 4631 3425 4513 
z
" transform="scale(0.015625)"/>
       <path id="DejaVuSans-63" d="M 3122 3366 
L 3122 2828 
Q 2878 2963 2633 3030 
Q 2388 3097 2138 3097 
Q 1578 3097 1268 2742 
Q 959 2388 959 1747 
Q 959 1106 1268 751 
Q 1578 397 2138 397 
Q 2388 397 2633 464 
Q 2878 531 3122 666 
L 3122 134 
Q 2881 22 2623 -34 
Q 2366 -91 2075 -91 
Q 1284 -91 818 406 
Q 353 903 353 1747 
Q 353 2603 823 3093 
Q 1294 3584 2113 3584 
Q 2378 3584 2631 3529 
Q 2884 3475 3122 3366 
z
" transform="scale(0.015625)"/>
       <path id="DejaVuSans-6f" d="M 1959 3097 
Q 1497 3097 1228 2736 
Q 959 2375 959 1747 
Q 959 1119 1226 758 
Q 1494 397 1959 397 
Q 2419 397 2687 759 
Q 2956 1122 2956 1747 
Q 2956 2369 2687 2733 
Q 2419 3097 1959 3097 
z
M 1959 3584 
Q 2709 3584 3137 3096 
Q 3566 2609 3566 1747 
Q 3566 888 3137 398 
Q 2709 -91 1959 -91 
Q 1206 -91 779 398 
Q 353 888 353 1747 
Q 353 2609 779 3096 
Q 1206 3584 1959 3584 
z
" transform="scale(0.015625)"/>
       <path id="DejaVuSans-64" d="M 2906 2969 
L 2906 4863 
L 3481 4863 
L 3481 0 
L 2906 0 
L 2906 525 
Q 2725 213 2448 61 
Q 2172 -91 1784 -91 
Q 1150 -91 751 415 
Q 353 922 353 1747 
Q 353 2572 751 3078 
Q 1150 3584 1784 3584 
Q 2172 3584 2448 3432 
Q 2725 3281 2906 2969 
z
M 947 1747 
Q 947 1113 1208 752 
Q 1469 391 1925 391 
Q 2381 391 2643 752 
Q 2906 1113 2906 1747 
Q 2906 2381 2643 2742 
Q 2381 3103 1925 3103 
Q 1469 3103 1208 2742 
Q 947 2381 947 1747 
z
" transform="scale(0.015625)"/>
       <path id="DejaVuSans-73" d="M 2834 3397 
L 2834 2853 
Q 2591 2978 2328 3040 
Q 2066 3103 1784 3103 
Q 1356 3103 1142 2972 
Q 928 2841 928 2578 
Q 928 2378 1081 2264 
Q 1234 2150 1697 2047 
L 1894 2003 
Q 2506 1872 2764 1633 
Q 3022 1394 3022 966 
Q 3022 478 2636 193 
Q 2250 -91 1575 -91 
Q 1294 -91 989 -36 
Q 684 19 347 128 
L 347 722 
Q 666 556 975 473 
Q 1284 391 1588 391 
Q 1994 391 2212 530 
Q 2431 669 2431 922 
Q 2431 1156 2273 1281 
Q 2116 1406 1581 1522 
L 1381 1569 
Q 847 1681 609 1914 
Q 372 2147 372 2553 
Q 372 3047 722 3315 
Q 1072 3584 1716 3584 
Q 2034 3584 2315 3537 
Q 2597 3491 2834 3397 
z
" transform="scale(0.015625)"/>
      </defs>
      <use xlink:href="#DejaVuSans-53"/>
      <use xlink:href="#DejaVuSans-65" x="63.476562"/>
      <use xlink:href="#DejaVuSans-63" x="125"/>
      <use xlink:href="#DejaVuSans-6f" x="179.980469"/>
      <use xlink:href="#DejaVuSans-6e" x="241.162109"/>
      <use xlink:href="#DejaVuSans-64" x="304.541016"/>
      <use xlink:href="#DejaVuSans-73" x="368.017578"/>
     </g>
    </g>
   </g>
   <g id="line2d_15">
    <path d="M 103.437273 510.981388 
L 107.438671 510.75126 
L 111.44007 510.793383 
L 115.441469 510.987273 
L 119.442867 510.890018 
L 123.444266 510.170522 
L 127.445664 510.838604 
L 131.447063 510.118797 
L 135.448462 510.527328 
L 139.44986 509.580181 
L 143.451259 510.063356 
L 147.452657 509.800707 
L 151.454056 509.75208 
L 155.455455 509.997694 
L 159.456853 509.53651 
L 163.458252 509.783672 
L 167.45965 509.824866 
L 171.461049 509.714293 
L 175.462448 509.062937 
L 179.463846 509.439875 
L 183.465245 510.106408 
L 187.466643 508.846128 
L 191.468042 508.115171 
L 195.469441 505.60576 
L 199.470839 507.256607 
L 203.472238 505.872435 
L 207.473636 505.862524 
L 211.475035 506.023582 
L 215.476434 505.907125 
L 219.477832 506.247515 
L 223.479231 505.502002 
L 227.480629 506.112784 
L 231.482028 505.882656 
L 235.483427 507.531025 
L 239.484825 505.938407 
L 243.486224 505.997875 
L 247.487622 505.460188 
L 251.489021 506.099156 
L 255.49042 506.94688 
L 259.491818 508.543834 
L 263.493217 506.459988 
L 267.494615 505.814516 
L 271.496014 506.143137 
L 275.497413 506.301718 
L 279.498811 506.694762 
L 283.50021 506.0719 
L 287.501608 507.584298 
L 291.503007 506.073448 
L 295.504406 508.066544 
L 299.505804 506.5145 
L 303.507203 506.477643 
L 307.508601 507.212626 
L 311.51 507.090283 
L 315.511399 506.137872 
L 323.514196 505.918275 
L 327.515594 506.304815 
L 331.516993 507.826815 
L 335.518392 506.487864 
L 339.51979 507.278907 
L 343.521189 505.953274 
L 347.522587 506.260833 
L 351.523986 506.792016 
L 355.525385 508.188886 
L 359.526783 507.284482 
L 363.528182 507.771993 
L 367.52958 507.052187 
L 371.530979 506.717991 
L 375.532378 508.54817 
L 379.533776 506.153048 
L 383.535175 506.399591 
L 387.536573 506.316894 
L 391.537972 507.220369 
L 395.539371 506.62786 
L 399.540769 506.339504 
L 407.543566 507.212316 
L 411.544965 507.022763 
L 415.546364 505.90186 
L 419.547762 506.811219 
L 423.549161 506.858607 
L 427.550559 507.117849 
L 431.551958 506.402069 
L 435.553357 507.342711 
L 439.554755 506.203534 
L 443.556154 506.636842 
L 447.557552 507.48023 
L 451.558951 507.192493 
L 455.56035 505.659033 
L 459.561748 506.353132 
L 463.563147 507.749383 
L 467.564545 507.929335 
L 471.565944 506.347557 
L 475.567343 507.273022 
L 479.568741 506.982188 
L 483.57014 506.858917 
L 487.571538 506.283134 
L 491.572937 507.325366 
L 495.574336 506.621356 
L 499.575734 506.890509 
L 503.577133 506.903827 
L 507.578531 507.603192 
L 511.57993 507.959688 
L 515.581329 506.655736 
L 519.582727 507.261253 
L 523.584126 506.88927 
L 527.585524 506.79852 
L 531.586923 507.745666 
L 539.58972 508.098756 
L 543.591119 507.027099 
L 547.592517 506.473926 
L 555.595315 507.212935 
L 559.596713 507.337755 
L 563.598112 507.601024 
L 567.59951 507.005418 
L 571.600909 507.621466 
L 575.602308 508.09318 
L 579.603706 507.078514 
L 583.605105 506.520075 
L 587.606503 506.647063 
L 591.607902 507.327844 
L 595.609301 507.142937 
L 599.610699 508.063756 
L 607.613497 506.786441 
L 611.614895 508.056633 
L 615.616294 506.542685 
L 619.617692 506.729451 
L 623.619091 506.373574 
L 635.623287 507.382356 
L 639.624685 507.064576 
L 643.626084 507.986634 
L 647.627483 506.785202 
L 651.628881 507.382356 
L 655.63028 506.081811 
L 659.631678 508.16225 
L 663.633077 506.302337 
L 667.634476 506.859846 
L 675.637273 507.685889 
L 679.638671 507.551158 
L 683.64007 507.088425 
L 687.641469 507.478681 
L 691.642867 507.318862 
L 695.644266 507.329393 
L 699.645664 506.895775 
L 703.647063 507.118778 
L 707.648462 506.803166 
L 711.64986 507.358507 
L 715.651259 507.024002 
L 719.652657 506.51419 
L 723.654056 506.757326 
L 727.655455 507.353861 
L 731.656853 506.528748 
L 735.658252 507.981988 
L 739.65965 507.754648 
L 743.661049 507.334039 
L 747.662448 508.107738 
L 755.665245 506.416007 
L 759.666643 506.394326 
L 763.668042 507.436868 
L 767.669441 507.370277 
L 771.670839 506.638701 
L 775.672238 506.962985 
L 779.673636 506.933561 
L 783.675035 507.255368 
L 787.676434 506.998914 
L 791.677832 507.288509 
L 795.679231 506.227693 
L 799.680629 507.016258 
L 803.682028 507.567883 
L 807.683427 507.267138 
L 811.684825 506.564986 
L 815.686224 507.886592 
L 819.687622 506.731929 
L 823.689021 506.010574 
L 831.691818 506.383176 
L 835.693217 507.159353 
L 839.694615 506.79852 
L 843.696014 507.474345 
L 847.697413 507.563547 
L 851.698811 506.672771 
L 855.70021 506.465563 
L 863.703007 507.671332 
L 867.704406 507.539698 
L 871.705804 507.20736 
L 875.707203 507.260943 
L 879.708601 506.576755 
L 883.71 507.757126 
L 887.711399 507.461646 
L 891.712797 507.784692 
L 895.714196 507.254129 
L 899.715594 506.52627 
L 903.716993 507.409302 
L 915.721189 507.644695 
L 919.722587 506.985595 
L 923.723986 507.243908 
L 927.725385 506.852413 
L 931.726783 507.164308 
L 935.728182 507.062718 
L 939.72958 506.712416 
L 943.730979 507.640979 
L 947.732378 507.108557 
L 955.735175 507.223776 
L 959.736573 508.142427 
L 963.737972 507.442753 
L 967.739371 507.541866 
L 971.740769 506.609586 
L 975.742168 507.315145 
L 979.743566 507.799869 
L 983.744965 506.497155 
L 987.746364 507.247935 
L 991.747762 506.904137 
L 995.749161 507.380808 
L 1003.751958 507.513371 
L 1011.754755 507.95721 
L 1015.756154 506.876571 
L 1019.757552 507.885663 
L 1023.758951 507.719649 
L 1027.76035 507.11692 
L 1031.761748 507.415497 
L 1035.763147 507.602572 
L 1039.764545 507.969599 
L 1043.765944 506.672151 
L 1047.767343 506.659453 
L 1051.768741 507.357268 
L 1059.771538 507.613723 
L 1063.772937 507.341162 
L 1067.774336 507.430364 
L 1071.775734 507.301827 
L 1075.777133 507.803585 
L 1079.778531 507.23028 
L 1083.77993 507.670403 
L 1087.781329 507.089664 
L 1091.782727 507.500362 
L 1091.782727 507.500362 
" clip-path="url(#p7c62e78f3a)" style="fill: none; stroke: #1f77b4; stroke-width: 5; stroke-linecap: square"/>
   </g>
   <g id="line2d_16">
    <path d="M 103.437273 510.705111 
L 107.438671 510.476842 
L 111.44007 510.508744 
L 115.441469 510.713164 
L 119.442867 510.629538 
L 123.444266 509.793893 
L 127.445664 510.570999 
L 131.447063 509.733496 
L 135.448462 510.278926 
L 139.44986 509.326824 
L 143.451259 509.738762 
L 147.452657 509.696949 
L 151.454056 509.41169 
L 155.455455 509.539297 
L 159.456853 509.151209 
L 163.458252 509.473325 
L 167.45965 509.313506 
L 171.461049 509.371425 
L 175.462448 508.670202 
L 179.463846 509.034752 
L 183.465245 509.776858 
L 187.466643 508.433571 
L 191.468042 507.598236 
L 195.469441 504.623305 
L 199.470839 506.648302 
L 203.472238 504.977323 
L 207.473636 504.891839 
L 211.475035 505.070551 
L 215.476434 504.999624 
L 219.477832 505.306254 
L 223.479231 504.532555 
L 227.480629 505.599875 
L 231.482028 505.00396 
L 235.483427 506.843121 
L 239.484825 505.077985 
L 243.486224 505.044224 
L 247.487622 504.600695 
L 251.489021 505.260104 
L 255.49042 506.249993 
L 259.491818 507.90084 
L 263.493217 505.61753 
L 267.494615 504.766399 
L 271.496014 505.28829 
L 275.497413 505.420853 
L 279.498811 505.879559 
L 283.50021 505.269396 
L 287.501608 507.040727 
L 291.503007 505.153249 
L 295.504406 507.475894 
L 299.505804 505.646644 
L 303.507203 505.690625 
L 307.508601 506.570561 
L 311.51 506.141588 
L 315.511399 505.119798 
L 319.512797 505.195991 
L 323.514196 505.02626 
L 327.515594 505.511603 
L 331.516993 507.143247 
L 335.518392 505.702705 
L 339.51979 506.626621 
L 343.521189 505.074268 
L 347.522587 505.837126 
L 351.523986 506.153668 
L 355.525385 507.709738 
L 359.526783 506.516049 
L 363.528182 507.167405 
L 367.52958 506.19672 
L 371.530979 506.03814 
L 375.532378 508.015439 
L 379.533776 505.2313 
L 383.535175 505.589035 
L 387.536573 505.45833 
L 391.537972 506.545783 
L 395.539371 505.716643 
L 399.540769 505.451516 
L 403.542168 505.702395 
L 407.543566 506.449457 
L 411.544965 506.304815 
L 415.546364 504.955642 
L 419.547762 505.921682 
L 423.549161 506.125483 
L 427.550559 506.653258 
L 431.551958 505.313378 
L 435.553357 506.643347 
L 439.554755 505.523682 
L 443.556154 505.82226 
L 447.557552 507.360056 
L 451.558951 506.478882 
L 455.56035 505.006747 
L 459.561748 505.483418 
L 463.563147 507.142008 
L 467.564545 507.372755 
L 471.565944 505.568593 
L 475.567343 506.613613 
L 479.568741 506.072829 
L 483.57014 505.986415 
L 487.571538 505.343731 
L 491.572937 506.48043 
L 495.574336 505.867789 
L 499.575734 506.307293 
L 503.577133 506.24225 
L 507.578531 506.962985 
L 511.57993 507.330322 
L 515.581329 505.862524 
L 519.582727 506.509235 
L 527.585524 506.102253 
L 531.586923 507.140149 
L 539.58972 507.618059 
L 543.591119 506.350345 
L 547.592517 505.612884 
L 555.595315 506.618259 
L 559.596713 506.559101 
L 563.598112 506.648922 
L 567.59951 506.296142 
L 575.602308 507.629209 
L 579.603706 506.437688 
L 583.605105 505.744518 
L 587.606503 505.861285 
L 591.607902 506.674319 
L 595.609301 506.443573 
L 599.610699 507.577794 
L 607.613497 505.998494 
L 611.614895 507.50284 
L 615.616294 505.615052 
L 619.617692 506.101014 
L 623.619091 505.984247 
L 627.62049 505.748854 
L 631.621888 506.153668 
L 635.623287 506.716442 
L 639.624685 506.373574 
L 643.626084 507.471558 
L 647.627483 506.027609 
L 651.628881 506.68485 
L 655.63028 505.270325 
L 659.631678 507.526689 
L 663.633077 505.437268 
L 667.634476 506.189596 
L 671.635874 506.649851 
L 675.637273 507.269306 
L 679.638671 506.894536 
L 683.64007 506.375433 
L 687.641469 506.73007 
L 691.642867 506.48074 
L 695.644266 506.677726 
L 699.645664 506.081811 
L 703.647063 506.433042 
L 707.648462 505.966283 
L 711.64986 506.675249 
L 715.651259 506.379769 
L 719.652657 505.870577 
L 723.654056 505.921372 
L 727.655455 506.54888 
L 731.656853 505.858807 
L 735.658252 507.387002 
L 739.65965 507.093071 
L 743.661049 506.547331 
L 747.662448 507.499123 
L 751.663846 506.50335 
L 755.665245 505.77673 
L 759.666643 505.664608 
L 763.668042 506.718611 
L 767.669441 506.602463 
L 771.670839 505.764031 
L 775.672238 506.452245 
L 779.673636 506.248754 
L 783.675035 506.541137 
L 787.676434 506.19672 
L 791.677832 506.609896 
L 795.679231 505.633016 
L 799.680629 506.33331 
L 803.682028 506.522863 
L 807.683427 506.553836 
L 811.684825 505.860046 
L 815.686224 507.371825 
L 819.687622 506.011813 
L 823.689021 505.263202 
L 831.691818 505.488374 
L 835.693217 506.52627 
L 839.694615 506.014291 
L 843.696014 506.835687 
L 847.697413 506.988383 
L 851.698811 505.767748 
L 855.70021 505.604212 
L 859.701608 506.009645 
L 863.703007 507.158114 
L 867.704406 506.634674 
L 871.705804 506.481359 
L 875.707203 506.638081 
L 879.708601 506.156146 
L 883.71 507.192184 
L 887.711399 506.813387 
L 891.712797 507.175458 
L 895.714196 506.429635 
L 899.715594 505.436649 
L 903.716993 506.653877 
L 907.718392 506.596888 
L 911.71979 506.249064 
L 915.721189 506.993648 
L 919.722587 506.337646 
L 923.723986 506.538349 
L 927.725385 506.099775 
L 931.726783 506.453484 
L 939.72958 506.110306 
L 943.730979 506.930154 
L 947.732378 506.259904 
L 951.733776 506.521624 
L 955.735175 506.538039 
L 959.736573 507.659872 
L 963.737972 506.759495 
L 967.739371 506.762902 
L 971.740769 505.824118 
L 975.742168 506.634055 
L 979.743566 507.281075 
L 983.744965 505.665228 
L 987.746364 506.536491 
L 991.747762 506.131058 
L 995.749161 506.530606 
L 1007.753357 506.967941 
L 1011.754755 507.384524 
L 1015.756154 506.034733 
L 1019.757552 507.300278 
L 1023.758951 507.129619 
L 1027.76035 506.449148 
L 1031.761748 506.586047 
L 1035.763147 506.942853 
L 1039.764545 507.523592 
L 1043.765944 505.807393 
L 1047.767343 504.652729 
L 1051.768741 506.653258 
L 1055.77014 506.800379 
L 1059.771538 506.641798 
L 1063.772937 506.83259 
L 1067.774336 506.761972 
L 1071.775734 506.5718 
L 1075.777133 506.836617 
L 1079.778531 506.535562 
L 1083.77993 507.034532 
L 1087.781329 506.359637 
L 1091.782727 506.920553 
L 1091.782727 506.920553 
" clip-path="url(#p7c62e78f3a)" style="fill: none; stroke: #ff7f0e; stroke-width: 1.5; stroke-linecap: square"/>
   </g>
   <g id="line2d_17">
    <path d="M 103.437273 509.033513 
L 107.438671 508.519365 
L 111.44007 508.205611 
L 115.441469 509.336426 
L 119.442867 508.382156 
L 123.444266 506.260524 
L 127.445664 508.278397 
L 131.447063 506.184641 
L 135.448462 507.795223 
L 139.44986 503.752661 
L 143.451259 505.084799 
L 147.452657 505.204973 
L 151.454056 503.896994 
L 155.455455 505.006438 
L 159.456853 503.221169 
L 163.458252 504.820911 
L 167.45965 504.527909 
L 171.461049 503.396785 
L 175.462448 501.265551 
L 179.463846 502.947061 
L 183.465245 506.377291 
L 187.466643 501.775672 
L 191.468042 499.558024 
L 195.469441 493.442458 
L 199.470839 497.494311 
L 203.472238 494.159786 
L 207.473636 494.330136 
L 215.476434 494.193856 
L 219.477832 494.970033 
L 223.479231 493.134589 
L 227.480629 496.178899 
L 231.482028 494.120451 
L 235.483427 498.320044 
L 239.484825 494.572963 
L 243.486224 494.230094 
L 247.487622 493.114456 
L 251.489021 495.479844 
L 255.49042 497.016402 
L 259.491818 501.234888 
L 263.493217 494.744242 
L 267.494615 494.330756 
L 271.496014 495.210691 
L 275.497413 495.270778 
L 279.498811 496.922244 
L 283.50021 494.563051 
L 287.501608 498.469952 
L 291.503007 495.150294 
L 295.504406 500.321812 
L 299.505804 494.786365 
L 303.507203 495.078747 
L 307.508601 497.640192 
L 311.51 496.835521 
L 315.511399 495.297725 
L 319.512797 495.276044 
L 323.514196 494.158857 
L 327.515594 495.945674 
L 331.516993 499.371259 
L 335.518392 494.895389 
L 339.51979 497.544796 
L 343.521189 494.979635 
L 347.522587 495.819615 
L 351.523986 495.928329 
L 355.525385 501.167677 
L 359.526783 497.905938 
L 363.528182 498.957153 
L 367.52958 497.06317 
L 371.530979 495.840986 
L 375.532378 501.700098 
L 379.533776 494.920786 
L 383.535175 494.576679 
L 387.536573 495.648955 
L 391.537972 497.515372 
L 395.539371 495.624797 
L 399.540769 494.784816 
L 403.542168 496.023416 
L 407.543566 497.079896 
L 411.544965 495.605593 
L 415.546364 494.993882 
L 419.547762 496.680038 
L 423.549161 494.913353 
L 427.550559 497.689749 
L 431.551958 492.356244 
L 435.553357 498.015892 
L 439.554755 494.195405 
L 443.556154 494.88207 
L 447.557552 499.976156 
L 451.558951 497.266351 
L 455.56035 493.61002 
L 459.561748 494.060674 
L 463.563147 499.180776 
L 467.564545 499.934653 
L 471.565944 494.023816 
L 475.567343 497.560902 
L 479.568741 494.982732 
L 483.57014 495.806916 
L 487.571538 494.481593 
L 491.572937 497.185513 
L 495.574336 494.349959 
L 499.575734 496.558315 
L 503.577133 496.6088 
L 507.578531 497.261086 
L 511.57993 499.89253 
L 515.581329 496.108591 
L 519.582727 496.614995 
L 523.584126 495.832314 
L 527.585524 496.064609 
L 531.586923 498.660744 
L 535.588322 499.481212 
L 539.58972 500.763173 
L 543.591119 496.97304 
L 547.592517 495.900454 
L 551.593916 496.23465 
L 555.595315 497.803109 
L 559.596713 497.616653 
L 563.598112 497.826648 
L 567.59951 495.805058 
L 571.600909 498.366503 
L 575.602308 500.439508 
L 579.603706 496.815388 
L 583.605105 494.874637 
L 587.606503 494.253014 
L 591.607902 498.016821 
L 595.609301 496.561102 
L 599.610699 500.230132 
L 603.612098 498.558224 
L 607.613497 495.988416 
L 611.614895 499.974298 
L 615.616294 493.429139 
L 619.617692 495.720193 
L 623.619091 495.508029 
L 627.62049 493.960012 
L 631.621888 496.069565 
L 635.623287 497.724129 
L 639.624685 495.678689 
L 643.626084 500.672423 
L 647.627483 494.776453 
L 651.628881 496.871139 
L 655.63028 494.912424 
L 659.631678 500.561231 
L 663.633077 495.618292 
L 667.634476 495.398386 
L 671.635874 496.568226 
L 675.637273 499.060912 
L 679.638671 498.521986 
L 683.64007 495.467765 
L 687.641469 497.899744 
L 691.642867 497.814569 
L 695.644266 497.171575 
L 699.645664 496.127794 
L 703.647063 496.731143 
L 707.648462 496.095272 
L 711.64986 498.500305 
L 715.651259 496.412123 
L 719.652657 495.750236 
L 723.654056 496.007929 
L 727.655455 497.456834 
L 731.656853 493.921296 
L 735.658252 500.398314 
L 743.661049 497.319625 
L 747.662448 500.691936 
L 751.663846 495.792359 
L 759.666643 494.883929 
L 767.669441 498.147526 
L 771.670839 495.151223 
L 775.672238 496.689329 
L 779.673636 496.396018 
L 783.675035 497.515372 
L 787.676434 496.273675 
L 791.677832 497.599928 
L 795.679231 494.163193 
L 799.680629 496.750965 
L 803.682028 498.826758 
L 807.683427 496.361328 
L 811.684825 496.017221 
L 815.686224 500.294556 
L 819.687622 495.622938 
L 823.689021 495.593204 
L 827.69042 496.102086 
L 831.691818 495.784616 
L 835.693217 497.273475 
L 839.694615 495.415421 
L 843.696014 497.636785 
L 847.697413 498.303938 
L 851.698811 495.789881 
L 855.70021 493.010388 
L 859.701608 496.944545 
L 863.703007 499.570413 
L 867.704406 498.285974 
L 871.705804 496.278012 
L 875.707203 497.882709 
L 879.708601 494.786055 
L 883.71 499.537582 
L 887.711399 498.653311 
L 891.712797 499.406877 
L 895.714196 498.565038 
L 899.715594 495.854924 
L 903.716993 496.288852 
L 907.718392 498.50588 
L 911.71979 497.77895 
L 915.721189 499.318295 
L 919.722587 495.889304 
L 923.723986 497.467984 
L 927.725385 496.628003 
L 931.726783 496.539731 
L 935.728182 496.966226 
L 939.72958 496.067707 
L 943.730979 498.798573 
L 947.732378 496.939899 
L 951.733776 497.409755 
L 955.735175 497.254582 
L 959.736573 501.579614 
L 963.737972 498.373936 
L 967.739371 498.527561 
L 971.740769 495.221532 
L 979.743566 500.012394 
L 983.744965 495.152772 
L 987.746364 498.023945 
L 991.747762 494.565529 
L 995.749161 498.758928 
L 999.750559 497.696253 
L 1003.751958 498.781228 
L 1007.753357 499.577847 
L 1011.754755 499.650633 
L 1015.756154 496.492653 
L 1019.757552 500.876843 
L 1023.758951 499.610678 
L 1027.76035 496.925651 
L 1031.761748 497.929478 
L 1035.763147 498.202348 
L 1039.764545 500.828216 
L 1043.765944 495.808775 
L 1047.767343 495.583603 
L 1051.768741 498.499996 
L 1055.77014 497.959212 
L 1059.771538 499.334711 
L 1063.772937 498.635037 
L 1067.774336 498.127084 
L 1071.775734 497.212459 
L 1075.777133 500.083322 
L 1079.778531 498.553888 
L 1083.77993 500.321812 
L 1087.781329 498.546764 
L 1091.782727 499.708861 
L 1091.782727 499.708861 
" clip-path="url(#p7c62e78f3a)" style="fill: none; stroke: #2ca02c; stroke-width: 1.5; stroke-linecap: square"/>
   </g>
   <g id="line2d_18">
    <path d="M 103.437273 467.489784 
L 107.438671 460.83839 
L 111.44007 456.840429 
L 115.441469 471.365403 
L 119.442867 456.185666 
L 123.444266 447.41109 
L 127.445664 461.284397 
L 131.447063 444.941944 
L 135.448462 462.377115 
L 139.44986 419.878497 
L 143.451259 431.465088 
L 147.452657 433.102926 
L 151.454056 426.519981 
L 155.455455 426.457106 
L 159.456853 405.930236 
L 163.458252 428.661126 
L 167.45965 430.11003 
L 171.461049 416.488532 
L 175.462448 397.646888 
L 179.463846 416.803834 
L 183.465245 439.574988 
L 187.466643 401.573612 
L 191.468042 384.780505 
L 195.469441 317.5037 
L 199.470839 365.714929 
L 203.472238 329.114449 
L 207.473636 323.136401 
L 211.475035 335.903052 
L 215.476434 335.976768 
L 219.477832 339.769998 
L 223.479231 322.493407 
L 227.480629 351.750562 
L 231.482028 337.255012 
L 235.483427 366.979855 
L 239.484825 341.130011 
L 243.486224 324.004877 
L 247.487622 330.707067 
L 251.489021 341.701148 
L 255.49042 354.594478 
L 259.491818 392.134361 
L 263.493217 341.328237 
L 267.494615 331.235152 
L 271.496014 344.465465 
L 275.497413 339.727256 
L 279.498811 349.081951 
L 283.50021 343.163061 
L 287.501608 374.362826 
L 291.503007 342.009637 
L 295.504406 386.89935 
L 299.505804 346.053437 
L 303.507203 345.018948 
L 307.508601 363.566969 
L 311.51 353.940953 
L 315.511399 340.775373 
L 319.512797 342.671214 
L 323.514196 330.490257 
L 327.515594 351.041905 
L 331.516993 378.430785 
L 335.518392 346.397854 
L 339.51979 364.893841 
L 343.521189 344.296044 
L 347.522587 347.515969 
L 351.523986 345.64057 
L 355.525385 392.050115 
L 359.526783 361.997581 
L 363.528182 380.451136 
L 367.52958 353.416895 
L 371.530979 351.337385 
L 375.532378 403.284236 
L 379.533776 343.259387 
L 383.535175 346.395376 
L 387.536573 340.747808 
L 391.537972 352.983586 
L 395.539371 347.831272 
L 399.540769 338.271228 
L 403.542168 353.868167 
L 407.543566 357.54525 
L 411.544965 351.35504 
L 415.546364 348.008746 
L 419.547762 354.237672 
L 423.549161 338.737058 
L 427.550559 367.738997 
L 431.551958 330.315571 
L 435.553357 361.764047 
L 439.554755 347.095979 
L 443.556154 344.201267 
L 447.557552 385.523231 
L 451.558951 362.27169 
L 455.56035 339.68823 
L 459.561748 344.95979 
L 463.563147 393.01027 
L 467.564545 375.442535 
L 471.565944 344.211488 
L 475.567343 356.269793 
L 479.568741 339.934773 
L 483.57014 350.955801 
L 487.571538 336.940949 
L 491.572937 368.159606 
L 495.574336 340.814709 
L 499.575734 354.631955 
L 503.577133 355.241499 
L 507.578531 357.051235 
L 511.57993 383.140189 
L 515.581329 355.279285 
L 519.582727 351.653927 
L 523.584126 344.958861 
L 527.585524 348.979121 
L 531.586923 374.66512 
L 535.588322 381.896324 
L 539.58972 392.531432 
L 543.591119 360.700133 
L 547.592517 351.91131 
L 551.593916 349.92348 
L 555.595315 362.593187 
L 559.596713 358.072406 
L 563.598112 362.32775 
L 567.59951 352.439705 
L 571.600909 371.818416 
L 575.602308 387.788577 
L 579.603706 358.07922 
L 583.605105 351.402738 
L 587.606503 340.00632 
L 591.607902 362.144082 
L 595.609301 352.488022 
L 599.610699 381.716062 
L 603.612098 371.57528 
L 607.613497 353.807461 
L 611.614895 385.824905 
L 615.616294 340.865814 
L 619.617692 349.934321 
L 623.619091 349.960338 
L 627.62049 340.342374 
L 631.621888 351.276679 
L 635.623287 360.470006 
L 639.624685 348.053656 
L 643.626084 390.396791 
L 647.627483 340.545556 
L 651.628881 350.821999 
L 655.63028 345.227084 
L 659.631678 385.884373 
L 663.633077 348.31073 
L 667.634476 350.704303 
L 671.635874 354.934868 
L 675.637273 367.237238 
L 679.638671 371.930537 
L 683.64007 346.552098 
L 687.641469 362.896719 
L 691.642867 361.197555 
L 695.644266 362.62354 
L 699.645664 355.737062 
L 703.647063 355.542863 
L 707.648462 353.078672 
L 711.64986 362.8961 
L 715.651259 351.67313 
L 719.652657 344.746388 
L 723.654056 350.527758 
L 727.655455 359.510161 
L 731.656853 346.013482 
L 735.658252 383.372794 
L 739.65965 373.764432 
L 743.661049 361.262288 
L 747.662448 393.728218 
L 751.663846 346.584 
L 755.665245 351.148452 
L 759.666643 343.579025 
L 763.668042 354.412978 
L 767.669441 361.042072 
L 771.670839 348.859257 
L 775.672238 355.277737 
L 779.673636 353.087655 
L 783.675035 364.890744 
L 787.676434 352.144535 
L 791.677832 365.728247 
L 795.679231 347.524642 
L 799.680629 359.308219 
L 803.682028 369.738287 
L 807.683427 350.589394 
L 811.684825 351.028897 
L 815.686224 389.275887 
L 819.687622 348.953414 
L 823.689021 348.479531 
L 827.69042 355.718788 
L 831.691818 349.734856 
L 835.693217 357.211984 
L 839.694615 350.681073 
L 843.696014 371.31325 
L 847.697413 370.958612 
L 851.698811 351.66105 
L 855.70021 334.545518 
L 859.701608 364.026295 
L 863.703007 386.772671 
L 867.704406 362.114968 
L 871.705804 352.553685 
L 875.707203 370.615744 
L 879.708601 335.657748 
L 883.71 375.41435 
L 887.711399 371.573421 
L 891.712797 384.519405 
L 895.714196 364.004924 
L 899.715594 356.098204 
L 903.716993 349.352033 
L 907.718392 367.900365 
L 911.71979 363.77046 
L 915.721189 372.021597 
L 919.722587 348.779038 
L 923.723986 355.169951 
L 927.725385 357.776307 
L 931.726783 352.171481 
L 935.728182 358.366338 
L 939.72958 356.62536 
L 943.730979 374.042258 
L 947.732378 354.698856 
L 951.733776 353.721666 
L 955.735175 362.886808 
L 959.736573 399.668788 
L 963.737972 365.715548 
L 967.739371 370.083013 
L 971.740769 349.357608 
L 975.742168 363.701081 
L 979.743566 392.307499 
L 983.744965 352.341212 
L 987.746364 367.900055 
L 991.747762 341.441287 
L 995.749161 376.449768 
L 999.750559 361.936565 
L 1003.751958 376.941306 
L 1007.753357 382.80909 
L 1011.754755 390.208167 
L 1015.756154 358.584386 
L 1019.757552 402.451379 
L 1023.758951 382.871965 
L 1027.76035 356.826373 
L 1031.761748 365.921826 
L 1035.763147 371.867043 
L 1039.764545 396.51979 
L 1043.765944 353.744586 
L 1047.767343 350.263561 
L 1051.768741 387.311287 
L 1055.77014 366.422656 
L 1059.771538 380.709758 
L 1063.772937 376.775602 
L 1067.774336 368.818087 
L 1071.775734 354.770093 
L 1075.777133 387.80747 
L 1079.778531 373.762884 
L 1083.77993 395.261678 
L 1087.781329 378.464235 
L 1091.782727 389.164076 
L 1091.782727 389.164076 
" clip-path="url(#p7c62e78f3a)" style="fill: none; stroke: #d62728; stroke-width: 1.5; stroke-linecap: square"/>
   </g>
   <g id="line2d_19">
    <path d="M 103.437273 476.592981 
L 111.44007 476.396923 
L 115.441469 475.745876 
L 119.442867 475.459379 
L 131.447063 473.858398 
L 135.448462 470.986606 
L 139.44986 470.59573 
L 147.452657 466.487816 
L 151.454056 461.897967 
L 159.456853 456.783439 
L 163.458252 453.144453 
L 167.45965 453.03388 
L 171.461049 450.843798 
L 175.462448 450.337084 
L 179.463846 449.264498 
L 183.465245 441.477643 
L 187.466643 406.065897 
L 191.468042 405.525423 
L 195.469441 382.919663 
L 199.470839 379.839425 
L 203.472238 375.418376 
L 207.473636 368.931447 
L 211.475035 365.628824 
L 215.476434 364.71389 
L 219.477832 364.003066 
L 223.479231 361.842717 
L 227.480629 360.748141 
L 231.482028 350.983057 
L 235.483427 349.175179 
L 239.484825 345.897334 
L 243.486224 342.025743 
L 247.487622 334.06575 
L 251.489021 330.068409 
L 255.49042 327.739569 
L 259.491818 326.957817 
L 263.493217 325.231397 
L 267.494615 324.848574 
L 271.496014 324.138989 
L 275.497413 321.936208 
L 279.498811 320.519825 
L 283.50021 320.418234 
L 287.501608 319.233837 
L 291.503007 317.418215 
L 295.504406 308.090157 
L 299.505804 306.725808 
L 303.507203 304.203079 
L 307.508601 304.088789 
L 311.51 303.504953 
L 319.512797 302.748909 
L 323.514196 301.205537 
L 327.515594 300.610241 
L 331.516993 297.054881 
L 335.518392 294.60246 
L 339.51979 290.554943 
L 347.522587 289.248513 
L 351.523986 288.463664 
L 355.525385 288.166016 
L 359.526783 284.495747 
L 363.528182 284.34522 
L 367.52958 283.848417 
L 371.530979 281.685281 
L 375.532378 281.302458 
L 379.533776 280.509866 
L 383.535175 280.350357 
L 387.536573 280.041249 
L 391.537972 278.780039 
L 399.540769 278.599158 
L 403.542168 275.883469 
L 407.543566 275.801391 
L 411.544965 275.237997 
L 415.546364 274.228596 
L 419.547762 273.839578 
L 423.549161 271.341317 
L 427.550559 270.771419 
L 431.551958 269.2711 
L 435.553357 269.03199 
L 443.556154 268.124489 
L 447.557552 267.830868 
L 451.558951 265.798437 
L 455.56035 264.585235 
L 459.561748 264.501608 
L 463.563147 263.251859 
L 471.565944 262.891336 
L 475.567343 262.054453 
L 479.568741 261.941093 
L 483.57014 261.072927 
L 487.571538 259.131866 
L 491.572937 258.708468 
L 495.574336 257.544203 
L 499.575734 257.539557 
L 503.577133 257.052356 
L 511.57993 255.68491 
L 515.581329 255.580532 
L 519.582727 254.769975 
L 523.584126 254.62843 
L 527.585524 252.860197 
L 531.586923 252.048401 
L 535.588322 250.576887 
L 539.58972 249.522575 
L 543.591119 248.73246 
L 551.593916 248.186721 
L 555.595315 247.422933 
L 559.596713 246.781178 
L 563.598112 246.417558 
L 567.59951 246.239775 
L 571.600909 245.487447 
L 575.602308 245.339397 
L 579.603706 244.400304 
L 583.605105 244.397207 
L 587.606503 243.838459 
L 591.607902 243.816778 
L 595.609301 243.422185 
L 599.610699 242.293539 
L 603.612098 241.600369 
L 607.613497 239.651255 
L 611.614895 238.068548 
L 615.616294 237.138437 
L 619.617692 236.656191 
L 623.619091 235.625728 
L 631.621888 234.015146 
L 639.624685 233.907671 
L 643.626084 233.395382 
L 647.627483 233.251668 
L 651.628881 232.44359 
L 655.63028 232.395892 
L 659.631678 231.767145 
L 667.634476 231.569849 
L 671.635874 230.527926 
L 675.637273 229.14871 
L 679.638671 228.533901 
L 683.64007 228.334127 
L 687.641469 227.310478 
L 691.642867 226.669033 
L 695.644266 225.553395 
L 699.645664 224.132366 
L 703.647063 223.826356 
L 707.648462 223.681403 
L 711.64986 223.01487 
L 715.651259 222.994738 
L 719.652657 221.718661 
L 727.655455 219.834899 
L 731.656853 218.254361 
L 735.658252 217.808353 
L 739.65965 217.757868 
L 743.661049 217.127882 
L 751.663846 216.587098 
L 755.665245 215.780259 
L 759.666643 215.762914 
L 763.668042 214.68816 
L 767.669441 214.456484 
L 771.670839 210.626086 
L 775.672238 210.187202 
L 779.673636 206.973162 
L 783.675035 206.648568 
L 787.676434 206.565251 
L 791.677832 205.42979 
L 795.679231 205.051923 
L 799.680629 203.978718 
L 803.682028 203.935356 
L 807.683427 203.405722 
L 811.684825 203.30661 
L 815.686224 202.002657 
L 819.687622 200.138099 
L 823.689021 199.230598 
L 827.69042 199.054053 
L 831.691818 198.707158 
L 835.693217 198.657602 
L 839.694615 198.44389 
L 843.696014 198.115579 
L 847.697413 197.11516 
L 851.698811 196.681542 
L 855.70021 195.966072 
L 859.701608 192.271024 
L 863.703007 191.341842 
L 867.704406 190.610886 
L 875.707203 190.363104 
L 879.708601 190.044085 
L 883.71 189.957361 
L 887.711399 189.118 
L 891.712797 187.941036 
L 895.714196 187.55078 
L 903.716993 187.405208 
L 907.718392 186.572041 
L 911.71979 186.506999 
L 915.721189 185.56233 
L 919.722587 183.967234 
L 923.723986 183.196013 
L 927.725385 180.869961 
L 931.726783 180.126615 
L 939.72958 179.677511 
L 943.730979 179.222211 
L 947.732378 179.07664 
L 951.733776 178.457185 
L 959.736573 178.156749 
L 967.739371 177.060315 
L 971.740769 175.988658 
L 979.743566 175.161686 
L 983.744965 171.962203 
L 991.747762 168.589272 
L 995.749161 164.974754 
L 999.750559 164.057961 
L 1003.751958 163.838054 
L 1007.753357 163.816373 
L 1011.754755 156.457252 
L 1015.756154 156.27761 
L 1019.757552 156.20947 
L 1023.758951 154.481191 
L 1027.76035 153.081224 
L 1031.761748 152.647606 
L 1039.764545 151.421085 
L 1043.765944 151.253832 
L 1047.767343 146.722521 
L 1051.768741 143.018182 
L 1055.77014 135.05819 
L 1059.771538 131.874193 
L 1063.772937 129.055674 
L 1067.774336 125.83451 
L 1071.775734 115.186084 
L 1075.777133 102.784601 
L 1079.778531 91.560082 
L 1083.77993 66.967731 
L 1087.781329 56.635227 
L 1091.782727 49.932727 
L 1091.782727 49.932727 
" clip-path="url(#p7c62e78f3a)" style="fill: none; stroke: #9467bd; stroke-width: 5; stroke-linecap: square"/>
   </g>
   <g id="patch_3">
    <path d="M 54.02 534.04 
L 54.02 26.88 
" style="fill: none; stroke: #000000; stroke-width: 0.8; stroke-linejoin: miter; stroke-linecap: square"/>
   </g>
   <g id="patch_4">
    <path d="M 1141.2 534.04 
L 1141.2 26.88 
" style="fill: none; stroke: #000000; stroke-width: 0.8; stroke-linejoin: miter; stroke-linecap: square"/>
   </g>
   <g id="patch_5">
    <path d="M 54.02 534.04 
L 1141.2 534.04 
" style="fill: none; stroke: #000000; stroke-width: 0.8; stroke-linejoin: miter; stroke-linecap: square"/>
   </g>
   <g id="patch_6">
    <path d="M 54.02 26.88 
L 1141.2 26.88 
" style="fill: none; stroke: #000000; stroke-width: 0.8; stroke-linejoin: miter; stroke-linecap: square"/>
   </g>
   <g id="text_17">
    <!-- Encode times, CID22 set -->
    <g transform="translate(523.852188 20.88) scale(0.12 -0.12)">
     <defs>
      <path id="DejaVuSans-45" d="M 628 4666 
L 3578 4666 
L 3578 4134 
L 1259 4134 
L 1259 2753 
L 3481 2753 
L 3481 2222 
L 1259 2222 
L 1259 531 
L 3634 531 
L 3634 0 
L 628 0 
L 628 4666 
z
" transform="scale(0.015625)"/>
      <path id="DejaVuSans-74" d="M 1172 4494 
L 1172 3500 
L 2356 3500 
L 2356 3053 
L 1172 3053 
L 1172 1153 
Q 1172 725 1289 603 
Q 1406 481 1766 481 
L 2356 481 
L 2356 0 
L 1766 0 
Q 1100 0 847 248 
Q 594 497 594 1153 
L 594 3053 
L 172 3053 
L 172 3500 
L 594 3500 
L 594 4494 
L 1172 4494 
z
" transform="scale(0.015625)"/>
      <path id="DejaVuSans-2c" d="M 750 794 
L 1409 794 
L 1409 256 
L 897 -744 
L 494 -744 
L 750 256 
L 750 794 
z
" transform="scale(0.015625)"/>
      <path id="DejaVuSans-43" d="M 4122 4306 
L 4122 3641 
Q 3803 3938 3442 4084 
Q 3081 4231 2675 4231 
Q 1875 4231 1450 3742 
Q 1025 3253 1025 2328 
Q 1025 1406 1450 917 
Q 1875 428 2675 428 
Q 3081 428 3442 575 
Q 3803 722 4122 1019 
L 4122 359 
Q 3791 134 3420 21 
Q 3050 -91 2638 -91 
Q 1578 -91 968 557 
Q 359 1206 359 2328 
Q 359 3453 968 4101 
Q 1578 4750 2638 4750 
Q 3056 4750 3426 4639 
Q 3797 4528 4122 4306 
z
" transform="scale(0.015625)"/>
      <path id="DejaVuSans-49" d="M 628 4666 
L 1259 4666 
L 1259 0 
L 628 0 
L 628 4666 
z
" transform="scale(0.015625)"/>
      <path id="DejaVuSans-44" d="M 1259 4147 
L 1259 519 
L 2022 519 
Q 2988 519 3436 956 
Q 3884 1394 3884 2338 
Q 3884 3275 3436 3711 
Q 2988 4147 2022 4147 
L 1259 4147 
z
M 628 4666 
L 1925 4666 
Q 3281 4666 3915 4102 
Q 4550 3538 4550 2338 
Q 4550 1131 3912 565 
Q 3275 0 1925 0 
L 628 0 
L 628 4666 
z
" transform="scale(0.015625)"/>
     </defs>
     <use xlink:href="#DejaVuSans-45"/>
     <use xlink:href="#DejaVuSans-6e" x="63.183594"/>
     <use xlink:href="#DejaVuSans-63" x="126.5625"/>
     <use xlink:href="#DejaVuSans-6f" x="181.542969"/>
     <use xlink:href="#DejaVuSans-64" x="242.724609"/>
     <use xlink:href="#DejaVuSans-65" x="306.201172"/>
     <use xlink:href="#DejaVuSans-20" x="367.724609"/>
     <use xlink:href="#DejaVuSans-74" x="399.511719"/>
     <use xlink:href="#DejaVuSans-69" x="438.720703"/>
     <use xlink:href="#DejaVuSans-6d" x="466.503906"/>
     <use xlink:href="#DejaVuSans-65" x="563.916016"/>
     <use xlink:href="#DejaVuSans-73" x="625.439453"/>
     <use xlink:href="#DejaVuSans-2c" x="677.539062"/>
     <use xlink:href="#DejaVuSans-20" x="709.326172"/>
     <use xlink:href="#DejaVuSans-43" x="741.113281"/>
     <use xlink:href="#DejaVuSans-49" x="810.9375"/>
     <use xlink:href="#DejaVuSans-44" x="840.429688"/>
     <use xlink:href="#DejaVuSans-32" x="917.431641"/>
     <use xlink:href="#DejaVuSans-32" x="981.054688"/>
     <use xlink:href="#DejaVuSans-20" x="1044.677734"/>
     <use xlink:href="#DejaVuSans-73" x="1076.464844"/>
     <use xlink:href="#DejaVuSans-65" x="1128.564453"/>
     <use xlink:href="#DejaVuSans-74" x="1190.087891"/>
    </g>
   </g>
   <g id="legend_1">
    <g id="patch_7">
     <path d="M 61.02 108.270625 
L 189.393438 108.270625 
Q 191.393438 108.270625 191.393438 106.270625 
L 191.393438 33.88 
Q 191.393438 31.88 189.393438 31.88 
L 61.02 31.88 
Q 59.02 31.88 59.02 33.88 
L 59.02 106.270625 
Q 59.02 108.270625 61.02 108.270625 
z
" style="fill: #ffffff; opacity: 0.8; stroke: #cccccc; stroke-linejoin: miter"/>
    </g>
    <g id="line2d_20">
     <path d="M 63.02 39.978438 
L 73.02 39.978438 
L 83.02 39.978438 
" style="fill: none; stroke: #1f77b4; stroke-width: 5; stroke-linecap: square"/>
    </g>
    <g id="text_18">
     <!-- QB3 Fast -->
     <g transform="translate(91.02 43.478438) scale(0.1 -0.1)">
      <defs>
       <path id="DejaVuSans-51" d="M 2522 4238 
Q 1834 4238 1429 3725 
Q 1025 3213 1025 2328 
Q 1025 1447 1429 934 
Q 1834 422 2522 422 
Q 3209 422 3611 934 
Q 4013 1447 4013 2328 
Q 4013 3213 3611 3725 
Q 3209 4238 2522 4238 
z
M 3406 84 
L 4238 -825 
L 3475 -825 
L 2784 -78 
Q 2681 -84 2626 -87 
Q 2572 -91 2522 -91 
Q 1538 -91 948 567 
Q 359 1225 359 2328 
Q 359 3434 948 4092 
Q 1538 4750 2522 4750 
Q 3503 4750 4090 4092 
Q 4678 3434 4678 2328 
Q 4678 1516 4351 937 
Q 4025 359 3406 84 
z
" transform="scale(0.015625)"/>
       <path id="DejaVuSans-42" d="M 1259 2228 
L 1259 519 
L 2272 519 
Q 2781 519 3026 730 
Q 3272 941 3272 1375 
Q 3272 1813 3026 2020 
Q 2781 2228 2272 2228 
L 1259 2228 
z
M 1259 4147 
L 1259 2741 
L 2194 2741 
Q 2656 2741 2882 2914 
Q 3109 3088 3109 3444 
Q 3109 3797 2882 3972 
Q 2656 4147 2194 4147 
L 1259 4147 
z
M 628 4666 
L 2241 4666 
Q 2963 4666 3353 4366 
Q 3744 4066 3744 3513 
Q 3744 3084 3544 2831 
Q 3344 2578 2956 2516 
Q 3422 2416 3680 2098 
Q 3938 1781 3938 1306 
Q 3938 681 3513 340 
Q 3088 0 2303 0 
L 628 0 
L 628 4666 
z
" transform="scale(0.015625)"/>
       <path id="DejaVuSans-33" d="M 2597 2516 
Q 3050 2419 3304 2112 
Q 3559 1806 3559 1356 
Q 3559 666 3084 287 
Q 2609 -91 1734 -91 
Q 1441 -91 1130 -33 
Q 819 25 488 141 
L 488 750 
Q 750 597 1062 519 
Q 1375 441 1716 441 
Q 2309 441 2620 675 
Q 2931 909 2931 1356 
Q 2931 1769 2642 2001 
Q 2353 2234 1838 2234 
L 1294 2234 
L 1294 2753 
L 1863 2753 
Q 2328 2753 2575 2939 
Q 2822 3125 2822 3475 
Q 2822 3834 2567 4026 
Q 2313 4219 1838 4219 
Q 1578 4219 1281 4162 
Q 984 4106 628 3988 
L 628 4550 
Q 988 4650 1302 4700 
Q 1616 4750 1894 4750 
Q 2613 4750 3031 4423 
Q 3450 4097 3450 3541 
Q 3450 3153 3228 2886 
Q 3006 2619 2597 2516 
z
" transform="scale(0.015625)"/>
       <path id="DejaVuSans-61" d="M 2194 1759 
Q 1497 1759 1228 1600 
Q 959 1441 959 1056 
Q 959 750 1161 570 
Q 1363 391 1709 391 
Q 2188 391 2477 730 
Q 2766 1069 2766 1631 
L 2766 1759 
L 2194 1759 
z
M 3341 1997 
L 3341 0 
L 2766 0 
L 2766 531 
Q 2569 213 2275 61 
Q 1981 -91 1556 -91 
Q 1019 -91 701 211 
Q 384 513 384 1019 
Q 384 1609 779 1909 
Q 1175 2209 1959 2209 
L 2766 2209 
L 2766 2266 
Q 2766 2663 2505 2880 
Q 2244 3097 1772 3097 
Q 1472 3097 1187 3025 
Q 903 2953 641 2809 
L 641 3341 
Q 956 3463 1253 3523 
Q 1550 3584 1831 3584 
Q 2591 3584 2966 3190 
Q 3341 2797 3341 1997 
z
" transform="scale(0.015625)"/>
      </defs>
      <use xlink:href="#DejaVuSans-51"/>
      <use xlink:href="#DejaVuSans-42" x="78.710938"/>
      <use xlink:href="#DejaVuSans-33" x="147.314453"/>
      <use xlink:href="#DejaVuSans-20" x="210.9375"/>
      <use xlink:href="#DejaVuSans-46" x="242.724609"/>
      <use xlink:href="#DejaVuSans-61" x="291.119141"/>
      <use xlink:href="#DejaVuSans-73" x="352.398438"/>
      <use xlink:href="#DejaVuSans-74" x="404.498047"/>
     </g>
    </g>
    <g id="line2d_21">
     <path d="M 63.02 54.656563 
L 73.02 54.656563 
L 83.02 54.656563 
" style="fill: none; stroke: #ff7f0e; stroke-width: 1.5; stroke-linecap: square"/>
    </g>
    <g id="text_19">
     <!-- QB3 Base -->
     <g transform="translate(91.02 58.156563) scale(0.1 -0.1)">
      <use xlink:href="#DejaVuSans-51"/>
      <use xlink:href="#DejaVuSans-42" x="78.710938"/>
      <use xlink:href="#DejaVuSans-33" x="147.314453"/>
      <use xlink:href="#DejaVuSans-20" x="210.9375"/>
      <use xlink:href="#DejaVuSans-42" x="242.724609"/>
      <use xlink:href="#DejaVuSans-61" x="311.328125"/>
      <use xlink:href="#DejaVuSans-73" x="372.607422"/>
      <use xlink:href="#DejaVuSans-65" x="424.707031"/>
     </g>
    </g>
    <g id="line2d_22">
     <path d="M 63.02 69.334688 
L 73.02 69.334688 
L 83.02 69.334688 
" style="fill: none; stroke: #2ca02c; stroke-width: 1.5; stroke-linecap: square"/>
    </g>
    <g id="text_20">
     <!-- QB3 Best -->
     <g transform="translate(91.02 72.834688) scale(0.1 -0.1)">
      <use xlink:href="#DejaVuSans-51"/>
      <use xlink:href="#DejaVuSans-42" x="78.710938"/>
      <use xlink:href="#DejaVuSans-33" x="147.314453"/>
      <use xlink:href="#DejaVuSans-20" x="210.9375"/>
      <use xlink:href="#DejaVuSans-42" x="242.724609"/>
      <use xlink:href="#DejaVuSans-65" x="311.328125"/>
      <use xlink:href="#DejaVuSans-73" x="372.851562"/>
      <use xlink:href="#DejaVuSans-74" x="424.951172"/>
     </g>
    </g>
    <g id="line2d_23">
     <path d="M 63.02 84.012813 
L 73.02 84.012813 
L 83.02 84.012813 
" style="fill: none; stroke: #d62728; stroke-width: 1.5; stroke-linecap: square"/>
    </g>
    <g id="text_21">
     <!-- QB3 Best band mix -->
     <g transform="translate(91.02 87.512813) scale(0.1 -0.1)">
      <defs>
       <path id="DejaVuSans-78" d="M 3513 3500 
L 2247 1797 
L 3578 0 
L 2900 0 
L 1881 1375 
L 863 0 
L 184 0 
L 1544 1831 
L 300 3500 
L 978 3500 
L 1906 2253 
L 2834 3500 
L 3513 3500 
z
" transform="scale(0.015625)"/>
      </defs>
      <use xlink:href="#DejaVuSans-51"/>
      <use xlink:href="#DejaVuSans-42" x="78.710938"/>
      <use xlink:href="#DejaVuSans-33" x="147.314453"/>
      <use xlink:href="#DejaVuSans-20" x="210.9375"/>
      <use xlink:href="#DejaVuSans-42" x="242.724609"/>
      <use xlink:href="#DejaVuSans-65" x="311.328125"/>
      <use xlink:href="#DejaVuSans-73" x="372.851562"/>
      <use xlink:href="#DejaVuSans-74" x="424.951172"/>
      <use xlink:href="#DejaVuSans-20" x="464.160156"/>
      <use xlink:href="#DejaVuSans-62" x="495.947266"/>
      <use xlink:href="#DejaVuSans-61" x="559.423828"/>
      <use xlink:href="#DejaVuSans-6e" x="620.703125"/>
      <use xlink:href="#DejaVuSans-64" x="684.082031"/>
      <use xlink:href="#DejaVuSans-20" x="747.558594"/>
      <use xlink:href="#DejaVuSans-6d" x="779.345703"/>
      <use xlink:href="#DejaVuSans-69" x="876.757812"/>
      <use xlink:href="#DejaVuSans-78" x="904.541016"/>
     </g>
    </g>
    <g id="line2d_24">
     <path d="M 63.02 98.690938 
L 73.02 98.690938 
L 83.02 98.690938 
" style="fill: none; stroke: #9467bd; stroke-width: 5; stroke-linecap: square"/>
    </g>
    <g id="text_22">
     <!-- PNG encode -->
     <g transform="translate(91.02 102.190938) scale(0.1 -0.1)">
      <defs>
       <path id="DejaVuSans-50" d="M 1259 4147 
L 1259 2394 
L 2053 2394 
Q 2494 2394 2734 2622 
Q 2975 2850 2975 3272 
Q 2975 3691 2734 3919 
Q 2494 4147 2053 4147 
L 1259 4147 
z
M 628 4666 
L 2053 4666 
Q 2838 4666 3239 4311 
Q 3641 3956 3641 3272 
Q 3641 2581 3239 2228 
Q 2838 1875 2053 1875 
L 1259 1875 
L 1259 0 
L 628 0 
L 628 4666 
z
" transform="scale(0.015625)"/>
       <path id="DejaVuSans-4e" d="M 628 4666 
L 1478 4666 
L 3547 763 
L 3547 4666 
L 4159 4666 
L 4159 0 
L 3309 0 
L 1241 3903 
L 1241 0 
L 628 0 
L 628 4666 
z
" transform="scale(0.015625)"/>
       <path id="DejaVuSans-47" d="M 3809 666 
L 3809 1919 
L 2778 1919 
L 2778 2438 
L 4434 2438 
L 4434 434 
Q 4069 175 3628 42 
Q 3188 -91 2688 -91 
Q 1594 -91 976 548 
Q 359 1188 359 2328 
Q 359 3472 976 4111 
Q 1594 4750 2688 4750 
Q 3144 4750 3555 4637 
Q 3966 4525 4313 4306 
L 4313 3634 
Q 3963 3931 3569 4081 
Q 3175 4231 2741 4231 
Q 1884 4231 1454 3753 
Q 1025 3275 1025 2328 
Q 1025 1384 1454 906 
Q 1884 428 2741 428 
Q 3075 428 3337 486 
Q 3600 544 3809 666 
z
" transform="scale(0.015625)"/>
      </defs>
      <use xlink:href="#DejaVuSans-50"/>
      <use xlink:href="#DejaVuSans-4e" x="60.302734"/>
      <use xlink:href="#DejaVuSans-47" x="135.107422"/>
      <use xlink:href="#DejaVuSans-20" x="212.597656"/>
      <use xlink:href="#DejaVuSans-65" x="244.384766"/>
      <use xlink:href="#DejaVuSans-6e" x="305.908203"/>
      <use xlink:href="#DejaVuSans-63" x="369.287109"/>
      <use xlink:href="#DejaVuSans-6f" x="424.267578"/>
      <use xlink:href="#DejaVuSans-64" x="485.449219"/>
      <use xlink:href="#DejaVuSans-65" x="548.925781"/>
     </g>
    </g>
   </g>
  </g>
 </g>
 <defs>
  <clipPath id="p7c62e78f3a">
   <rect x="54.02" y="26.88" width="1087.18" height="507.16"/>
  </clipPath>
 </defs>
</svg>
