<?xml version="1.0" encoding="utf-8" standalone="no"?>
<!DOCTYPE svg PUBLIC "-//W3C//DTD SVG 1.1//EN"
  "http://www.w3.org/Graphics/SVG/1.1/DTD/svg11.dtd">
<svg xmlns:xlink="http://www.w3.org/1999/xlink" width="1152pt" height="576pt" viewBox="0 0 1152 576" xmlns="http://www.w3.org/2000/svg" version="1.1">
 <metadata>
  <rdf:RDF xmlns:dc="http://purl.org/dc/elements/1.1/" xmlns:cc="http://creativecommons.org/ns#" xmlns:rdf="http://www.w3.org/1999/02/22-rdf-syntax-ns#">
   <cc:Work>
    <dc:type rdf:resource="http://purl.org/dc/dcmitype/StillImage"/>
    <dc:date>2025-03-23T15:49:37.528850</dc:date>
    <dc:format>image/svg+xml</dc:format>
    <dc:creator>
     <cc:Agent>
      <dc:title>Matplotlib v3.9.0, https://matplotlib.org/</dc:title>
     </cc:Agent>
    </dc:creator>
   </cc:Work>
  </rdf:RDF>
 </metadata>
 <defs>
  <style type="text/css">*{stroke-linejoin: round; stroke-linecap: butt}</style>
 </defs>
 <g id="figure_1">
  <g id="patch_1">
   <path d="M 0 576 
L 1152 576 
L 1152 0 
L 0 0 
z
" style="fill: #ffffff"/>
  </g>
  <g id="axes_1">
   <g id="patch_2">
    <path d="M 47.72 548.12 
L 1141.2 548.12 
L 1141.2 10.8 
L 47.72 10.8 
z
" style="fill: #ffffff"/>
   </g>
   <g id="matplotlib.axis_1">
    <g id="xtick_1">
     <g id="line2d_1">
      <defs>
       <path id="ma6857a2412" d="M 0 0 
L 0 3.5 
" style="stroke: #000000; stroke-width: 0.8"/>
      </defs>
      <g>
       <use xlink:href="#ma6857a2412" x="97.423636" y="548.12" style="stroke: #000000; stroke-width: 0.8"/>
      </g>
     </g>
     <g id="text_1">
      <!-- 0 -->
      <g transform="translate(94.242386 562.718437) scale(0.1 -0.1)">
       <defs>
        <path id="DejaVuSans-30" d="M 2034 4250 
Q 1547 4250 1301 3770 
Q 1056 3291 1056 2328 
Q 1056 1369 1301 889 
Q 1547 409 2034 409 
Q 2525 409 2770 889 
Q 3016 1369 3016 2328 
Q 3016 3291 2770 3770 
Q 2525 4250 2034 4250 
z
M 2034 4750 
Q 2819 4750 3233 4129 
Q 3647 3509 3647 2328 
Q 3647 1150 3233 529 
Q 2819 -91 2034 -91 
Q 1250 -91 836 529 
Q 422 1150 422 2328 
Q 422 3509 836 4129 
Q 1250 4750 2034 4750 
z
" transform="scale(0.015625)"/>
       </defs>
       <use xlink:href="#DejaVuSans-30"/>
      </g>
     </g>
    </g>
    <g id="xtick_2">
     <g id="line2d_2">
      <g>
       <use xlink:href="#ma6857a2412" x="298.652933" y="548.12" style="stroke: #000000; stroke-width: 0.8"/>
      </g>
     </g>
     <g id="text_2">
      <!-- 50 -->
      <g transform="translate(292.290433 562.718437) scale(0.1 -0.1)">
       <defs>
        <path id="DejaVuSans-35" d="M 691 4666 
L 3169 4666 
L 3169 4134 
L 1269 4134 
L 1269 2991 
Q 1406 3038 1543 3061 
Q 1681 3084 1819 3084 
Q 2600 3084 3056 2656 
Q 3513 2228 3513 1497 
Q 3513 744 3044 326 
Q 2575 -91 1722 -91 
Q 1428 -91 1123 -41 
Q 819 9 494 109 
L 494 744 
Q 775 591 1075 516 
Q 1375 441 1709 441 
Q 2250 441 2565 725 
Q 2881 1009 2881 1497 
Q 2881 1984 2565 2268 
Q 2250 2553 1709 2553 
Q 1456 2553 1204 2497 
Q 953 2441 691 2322 
L 691 4666 
z
" transform="scale(0.015625)"/>
       </defs>
       <use xlink:href="#DejaVuSans-35"/>
       <use xlink:href="#DejaVuSans-30" x="63.623047"/>
      </g>
     </g>
    </g>
    <g id="xtick_3">
     <g id="line2d_3">
      <g>
       <use xlink:href="#ma6857a2412" x="499.88223" y="548.12" style="stroke: #000000; stroke-width: 0.8"/>
      </g>
     </g>
     <g id="text_3">
      <!-- 100 -->
      <g transform="translate(490.33848 562.718437) scale(0.1 -0.1)">
       <defs>
        <path id="DejaVuSans-31" d="M 794 531 
L 1825 531 
L 1825 4091 
L 703 3866 
L 703 4441 
L 1819 4666 
L 2450 4666 
L 2450 531 
L 3481 531 
L 3481 0 
L 794 0 
L 794 531 
z
" transform="scale(0.015625)"/>
       </defs>
       <use xlink:href="#DejaVuSans-31"/>
       <use xlink:href="#DejaVuSans-30" x="63.623047"/>
       <use xlink:href="#DejaVuSans-30" x="127.246094"/>
      </g>
     </g>
    </g>
    <g id="xtick_4">
     <g id="line2d_4">
      <g>
       <use xlink:href="#ma6857a2412" x="701.111527" y="548.12" style="stroke: #000000; stroke-width: 0.8"/>
      </g>
     </g>
     <g id="text_4">
      <!-- 150 -->
      <g transform="translate(691.567777 562.718437) scale(0.1 -0.1)">
       <use xlink:href="#DejaVuSans-31"/>
       <use xlink:href="#DejaVuSans-35" x="63.623047"/>
       <use xlink:href="#DejaVuSans-30" x="127.246094"/>
      </g>
     </g>
    </g>
    <g id="xtick_5">
     <g id="line2d_5">
      <g>
       <use xlink:href="#ma6857a2412" x="902.340824" y="548.12" style="stroke: #000000; stroke-width: 0.8"/>
      </g>
     </g>
     <g id="text_5">
      <!-- 200 -->
      <g transform="translate(892.797074 562.718437) scale(0.1 -0.1)">
       <defs>
        <path id="DejaVuSans-32" d="M 1228 531 
L 3431 531 
L 3431 0 
L 469 0 
L 469 531 
Q 828 903 1448 1529 
Q 2069 2156 2228 2338 
Q 2531 2678 2651 2914 
Q 2772 3150 2772 3378 
Q 2772 3750 2511 3984 
Q 2250 4219 1831 4219 
Q 1534 4219 1204 4116 
Q 875 4013 500 3803 
L 500 4441 
Q 881 4594 1212 4672 
Q 1544 4750 1819 4750 
Q 2544 4750 2975 4387 
Q 3406 4025 3406 3419 
Q 3406 3131 3298 2873 
Q 3191 2616 2906 2266 
Q 2828 2175 2409 1742 
Q 1991 1309 1228 531 
z
" transform="scale(0.015625)"/>
       </defs>
       <use xlink:href="#DejaVuSans-32"/>
       <use xlink:href="#DejaVuSans-30" x="63.623047"/>
       <use xlink:href="#DejaVuSans-30" x="127.246094"/>
      </g>
     </g>
    </g>
    <g id="xtick_6">
     <g id="line2d_6">
      <g>
       <use xlink:href="#ma6857a2412" x="1103.570121" y="548.12" style="stroke: #000000; stroke-width: 0.8"/>
      </g>
     </g>
     <g id="text_6">
      <!-- 250 -->
      <g transform="translate(1094.026371 562.718437) scale(0.1 -0.1)">
       <use xlink:href="#DejaVuSans-32"/>
       <use xlink:href="#DejaVuSans-35" x="63.623047"/>
       <use xlink:href="#DejaVuSans-30" x="127.246094"/>
      </g>
     </g>
    </g>
   </g>
   <g id="matplotlib.axis_2">
    <g id="ytick_1">
     <g id="line2d_7">
      <defs>
       <path id="mc76736d883" d="M 0 0 
L -3.5 0 
" style="stroke: #000000; stroke-width: 0.8"/>
      </defs>
      <g>
       <use xlink:href="#mc76736d883" x="47.72" y="495.272341" style="stroke: #000000; stroke-width: 0.8"/>
      </g>
     </g>
     <g id="text_7">
      <!-- 1.5 -->
      <g transform="translate(24.816875 499.07156) scale(0.1 -0.1)">
       <defs>
        <path id="DejaVuSans-2e" d="M 684 794 
L 1344 794 
L 1344 0 
L 684 0 
L 684 794 
z
" transform="scale(0.015625)"/>
       </defs>
       <use xlink:href="#DejaVuSans-31"/>
       <use xlink:href="#DejaVuSans-2e" x="63.623047"/>
       <use xlink:href="#DejaVuSans-35" x="95.410156"/>
      </g>
     </g>
    </g>
    <g id="ytick_2">
     <g id="line2d_8">
      <g>
       <use xlink:href="#mc76736d883" x="47.72" y="409.812261" style="stroke: #000000; stroke-width: 0.8"/>
      </g>
     </g>
     <g id="text_8">
      <!-- 2.0 -->
      <g transform="translate(24.816875 413.611479) scale(0.1 -0.1)">
       <use xlink:href="#DejaVuSans-32"/>
       <use xlink:href="#DejaVuSans-2e" x="63.623047"/>
       <use xlink:href="#DejaVuSans-30" x="95.410156"/>
      </g>
     </g>
    </g>
    <g id="ytick_3">
     <g id="line2d_9">
      <g>
       <use xlink:href="#mc76736d883" x="47.72" y="324.35218" style="stroke: #000000; stroke-width: 0.8"/>
      </g>
     </g>
     <g id="text_9">
      <!-- 2.5 -->
      <g transform="translate(24.816875 328.151399) scale(0.1 -0.1)">
       <use xlink:href="#DejaVuSans-32"/>
       <use xlink:href="#DejaVuSans-2e" x="63.623047"/>
       <use xlink:href="#DejaVuSans-35" x="95.410156"/>
      </g>
     </g>
    </g>
    <g id="ytick_4">
     <g id="line2d_10">
      <g>
       <use xlink:href="#mc76736d883" x="47.72" y="238.8921" style="stroke: #000000; stroke-width: 0.8"/>
      </g>
     </g>
     <g id="text_10">
      <!-- 3.0 -->
      <g transform="translate(24.816875 242.691319) scale(0.1 -0.1)">
       <defs>
        <path id="DejaVuSans-33" d="M 2597 2516 
Q 3050 2419 3304 2112 
Q 3559 1806 3559 1356 
Q 3559 666 3084 287 
Q 2609 -91 1734 -91 
Q 1441 -91 1130 -33 
Q 819 25 488 141 
L 488 750 
Q 750 597 1062 519 
Q 1375 441 1716 441 
Q 2309 441 2620 675 
Q 2931 909 2931 1356 
Q 2931 1769 2642 2001 
Q 2353 2234 1838 2234 
L 1294 2234 
L 1294 2753 
L 1863 2753 
Q 2328 2753 2575 2939 
Q 2822 3125 2822 3475 
Q 2822 3834 2567 4026 
Q 2313 4219 1838 4219 
Q 1578 4219 1281 4162 
Q 984 4106 628 3988 
L 628 4550 
Q 988 4650 1302 4700 
Q 1616 4750 1894 4750 
Q 2613 4750 3031 4423 
Q 3450 4097 3450 3541 
Q 3450 3153 3228 2886 
Q 3006 2619 2597 2516 
z
" transform="scale(0.015625)"/>
       </defs>
       <use xlink:href="#DejaVuSans-33"/>
       <use xlink:href="#DejaVuSans-2e" x="63.623047"/>
       <use xlink:href="#DejaVuSans-30" x="95.410156"/>
      </g>
     </g>
    </g>
    <g id="ytick_5">
     <g id="line2d_11">
      <g>
       <use xlink:href="#mc76736d883" x="47.72" y="153.43202" style="stroke: #000000; stroke-width: 0.8"/>
      </g>
     </g>
     <g id="text_11">
      <!-- 3.5 -->
      <g transform="translate(24.816875 157.231238) scale(0.1 -0.1)">
       <use xlink:href="#DejaVuSans-33"/>
       <use xlink:href="#DejaVuSans-2e" x="63.623047"/>
       <use xlink:href="#DejaVuSans-35" x="95.410156"/>
      </g>
     </g>
    </g>
    <g id="ytick_6">
     <g id="line2d_12">
      <g>
       <use xlink:href="#mc76736d883" x="47.72" y="67.971939" style="stroke: #000000; stroke-width: 0.8"/>
      </g>
     </g>
     <g id="text_12">
      <!-- 4.0 -->
      <g transform="translate(24.816875 71.771158) scale(0.1 -0.1)">
       <defs>
        <path id="DejaVuSans-34" d="M 2419 4116 
L 825 1625 
L 2419 1625 
L 2419 4116 
z
M 2253 4666 
L 3047 4666 
L 3047 1625 
L 3713 1625 
L 3713 1100 
L 3047 1100 
L 3047 0 
L 2419 0 
L 2419 1100 
L 313 1100 
L 313 1709 
L 2253 4666 
z
" transform="scale(0.015625)"/>
       </defs>
       <use xlink:href="#DejaVuSans-34"/>
       <use xlink:href="#DejaVuSans-2e" x="63.623047"/>
       <use xlink:href="#DejaVuSans-30" x="95.410156"/>
      </g>
     </g>
    </g>
    <g id="text_13">
     <!-- milliseconds -->
     <g transform="translate(18.737187 310.324063) rotate(-90) scale(0.1 -0.1)">
      <defs>
       <path id="DejaVuSans-6d" d="M 3328 2828 
Q 3544 3216 3844 3400 
Q 4144 3584 4550 3584 
Q 5097 3584 5394 3201 
Q 5691 2819 5691 2113 
L 5691 0 
L 5113 0 
L 5113 2094 
Q 5113 2597 4934 2840 
Q 4756 3084 4391 3084 
Q 3944 3084 3684 2787 
Q 3425 2491 3425 1978 
L 3425 0 
L 2847 0 
L 2847 2094 
Q 2847 2600 2669 2842 
Q 2491 3084 2119 3084 
Q 1678 3084 1418 2786 
Q 1159 2488 1159 1978 
L 1159 0 
L 581 0 
L 581 3500 
L 1159 3500 
L 1159 2956 
Q 1356 3278 1631 3431 
Q 1906 3584 2284 3584 
Q 2666 3584 2933 3390 
Q 3200 3197 3328 2828 
z
" transform="scale(0.015625)"/>
       <path id="DejaVuSans-69" d="M 603 3500 
L 1178 3500 
L 1178 0 
L 603 0 
L 603 3500 
z
M 603 4863 
L 1178 4863 
L 1178 4134 
L 603 4134 
L 603 4863 
z
" transform="scale(0.015625)"/>
       <path id="DejaVuSans-6c" d="M 603 4863 
L 1178 4863 
L 1178 0 
L 603 0 
L 603 4863 
z
" transform="scale(0.015625)"/>
       <path id="DejaVuSans-73" d="M 2834 3397 
L 2834 2853 
Q 2591 2978 2328 3040 
Q 2066 3103 1784 3103 
Q 1356 3103 1142 2972 
Q 928 2841 928 2578 
Q 928 2378 1081 2264 
Q 1234 2150 1697 2047 
L 1894 2003 
Q 2506 1872 2764 1633 
Q 3022 1394 3022 966 
Q 3022 478 2636 193 
Q 2250 -91 1575 -91 
Q 1294 -91 989 -36 
Q 684 19 347 128 
L 347 722 
Q 666 556 975 473 
Q 1284 391 1588 391 
Q 1994 391 2212 530 
Q 2431 669 2431 922 
Q 2431 1156 2273 1281 
Q 2116 1406 1581 1522 
L 1381 1569 
Q 847 1681 609 1914 
Q 372 2147 372 2553 
Q 372 3047 722 3315 
Q 1072 3584 1716 3584 
Q 2034 3584 2315 3537 
Q 2597 3491 2834 3397 
z
" transform="scale(0.015625)"/>
       <path id="DejaVuSans-65" d="M 3597 1894 
L 3597 1613 
L 953 1613 
Q 991 1019 1311 708 
Q 1631 397 2203 397 
Q 2534 397 2845 478 
Q 3156 559 3463 722 
L 3463 178 
Q 3153 47 2828 -22 
Q 2503 -91 2169 -91 
Q 1331 -91 842 396 
Q 353 884 353 1716 
Q 353 2575 817 3079 
Q 1281 3584 2069 3584 
Q 2775 3584 3186 3129 
Q 3597 2675 3597 1894 
z
M 3022 2063 
Q 3016 2534 2758 2815 
Q 2500 3097 2075 3097 
Q 1594 3097 1305 2825 
Q 1016 2553 972 2059 
L 3022 2063 
z
" transform="scale(0.015625)"/>
       <path id="DejaVuSans-63" d="M 3122 3366 
L 3122 2828 
Q 2878 2963 2633 3030 
Q 2388 3097 2138 3097 
Q 1578 3097 1268 2742 
Q 959 2388 959 1747 
Q 959 1106 1268 751 
Q 1578 397 2138 397 
Q 2388 397 2633 464 
Q 2878 531 3122 666 
L 3122 134 
Q 2881 22 2623 -34 
Q 2366 -91 2075 -91 
Q 1284 -91 818 406 
Q 353 903 353 1747 
Q 353 2603 823 3093 
Q 1294 3584 2113 3584 
Q 2378 3584 2631 3529 
Q 2884 3475 3122 3366 
z
" transform="scale(0.015625)"/>
       <path id="DejaVuSans-6f" d="M 1959 3097 
Q 1497 3097 1228 2736 
Q 959 2375 959 1747 
Q 959 1119 1226 758 
Q 1494 397 1959 397 
Q 2419 397 2687 759 
Q 2956 1122 2956 1747 
Q 2956 2369 2687 2733 
Q 2419 3097 1959 3097 
z
M 1959 3584 
Q 2709 3584 3137 3096 
Q 3566 2609 3566 1747 
Q 3566 888 3137 398 
Q 2709 -91 1959 -91 
Q 1206 -91 779 398 
Q 353 888 353 1747 
Q 353 2609 779 3096 
Q 1206 3584 1959 3584 
z
" transform="scale(0.015625)"/>
       <path id="DejaVuSans-6e" d="M 3513 2113 
L 3513 0 
L 2938 0 
L 2938 2094 
Q 2938 2591 2744 2837 
Q 2550 3084 2163 3084 
Q 1697 3084 1428 2787 
Q 1159 2491 1159 1978 
L 1159 0 
L 581 0 
L 581 3500 
L 1159 3500 
L 1159 2956 
Q 1366 3272 1645 3428 
Q 1925 3584 2291 3584 
Q 2894 3584 3203 3211 
Q 3513 2838 3513 2113 
z
" transform="scale(0.015625)"/>
       <path id="DejaVuSans-64" d="M 2906 2969 
L 2906 4863 
L 3481 4863 
L 3481 0 
L 2906 0 
L 2906 525 
Q 2725 213 2448 61 
Q 2172 -91 1784 -91 
Q 1150 -91 751 415 
Q 353 922 353 1747 
Q 353 2572 751 3078 
Q 1150 3584 1784 3584 
Q 2172 3584 2448 3432 
Q 2725 3281 2906 2969 
z
M 947 1747 
Q 947 1113 1208 752 
Q 1469 391 1925 391 
Q 2381 391 2643 752 
Q 2906 1113 2906 1747 
Q 2906 2381 2643 2742 
Q 2381 3103 1925 3103 
Q 1469 3103 1208 2742 
Q 947 2381 947 1747 
z
" transform="scale(0.015625)"/>
      </defs>
      <use xlink:href="#DejaVuSans-6d"/>
      <use xlink:href="#DejaVuSans-69" x="97.412109"/>
      <use xlink:href="#DejaVuSans-6c" x="125.195312"/>
      <use xlink:href="#DejaVuSans-6c" x="152.978516"/>
      <use xlink:href="#DejaVuSans-69" x="180.761719"/>
      <use xlink:href="#DejaVuSans-73" x="208.544922"/>
      <use xlink:href="#DejaVuSans-65" x="260.644531"/>
      <use xlink:href="#DejaVuSans-63" x="322.167969"/>
      <use xlink:href="#DejaVuSans-6f" x="377.148438"/>
      <use xlink:href="#DejaVuSans-6e" x="438.330078"/>
      <use xlink:href="#DejaVuSans-64" x="501.708984"/>
      <use xlink:href="#DejaVuSans-73" x="565.185547"/>
     </g>
    </g>
   </g>
   <g id="line2d_13">
    <path d="M 97.423636 523.696364 
L 101.448222 510.586787 
L 105.472808 507.817881 
L 109.497394 503.168852 
L 113.52198 501.169086 
L 117.546566 496.417506 
L 121.571152 485.666628 
L 125.595738 484.658199 
L 129.620324 477.445368 
L 133.64491 476.86424 
L 141.694082 476.351479 
L 145.718668 471.497347 
L 149.743254 467.668735 
L 153.76784 466.062085 
L 157.792425 461.771989 
L 161.817011 461.002849 
L 165.841597 455.259931 
L 169.866183 450.593811 
L 173.890769 427.963982 
L 177.915355 412.923007 
L 181.939941 371.218488 
L 185.964527 364.96281 
L 189.989113 318.951103 
L 194.013699 281.53668 
L 202.062871 281.092288 
L 206.087457 274.101653 
L 210.112043 273.520524 
L 214.136629 253.591234 
L 218.161215 252.958829 
L 222.185801 243.524036 
L 226.210386 243.21638 
L 230.234972 242.583975 
L 234.259558 239.644149 
L 238.284144 239.57578 
L 242.30873 239.268124 
L 246.333316 238.686996 
L 250.357902 236.054825 
L 254.382488 234.790016 
L 258.407074 234.089243 
L 262.43166 234.072151 
L 266.456246 230.773392 
L 270.480832 230.551196 
L 274.505418 229.132559 
L 278.530004 228.80781 
L 282.55459 227.867749 
L 286.579176 222.705961 
L 290.603762 221.099311 
L 294.628347 219.219189 
L 302.677519 218.03984 
L 306.702105 216.655387 
L 310.726691 214.347965 
L 314.751277 214.091585 
L 318.775863 212.809683 
L 322.800449 208.639231 
L 326.825035 208.570863 
L 330.849621 208.211931 
L 334.874207 207.972643 
L 338.898793 203.562903 
L 342.923379 202.537382 
L 346.947965 199.306991 
L 350.972551 199.118978 
L 354.997137 198.042181 
L 363.046308 197.461053 
L 367.070894 197.067937 
L 371.09548 196.24752 
L 375.120066 195.803127 
L 379.144652 194.760514 
L 383.169238 194.04265 
L 387.193824 192.111252 
L 391.21841 191.718136 
L 395.242996 189.855106 
L 399.267582 189.171425 
L 403.292168 187.838248 
L 407.316754 186.949463 
L 411.34134 186.829819 
L 415.365926 186.539255 
L 419.390512 186.522163 
L 423.415098 185.582102 
L 427.439683 185.274445 
L 431.464269 185.240261 
L 439.513441 183.103759 
L 443.538027 182.402987 
L 447.562613 179.873368 
L 451.587199 179.326424 
L 455.611785 179.29224 
L 459.636371 178.488915 
L 463.660957 176.91645 
L 467.685543 176.865174 
L 471.710129 176.625885 
L 475.734715 176.523333 
L 483.783887 175.976389 
L 487.808473 174.044991 
L 491.833059 173.993715 
L 495.857644 173.378402 
L 499.88223 172.421249 
L 503.906816 171.737569 
L 507.931402 170.370207 
L 511.955988 169.703619 
L 515.980574 169.225042 
L 520.00516 168.472994 
L 524.029746 165.738271 
L 532.078918 165.362247 
L 536.103504 164.182898 
L 540.12809 163.516309 
L 544.152676 161.499451 
L 548.177262 160.30301 
L 552.201848 159.995354 
L 556.226434 159.055293 
L 564.275605 158.833097 
L 568.300191 158.09814 
L 576.349363 158.081048 
L 588.423121 157.311907 
L 596.472293 155.910362 
L 600.496879 155.790718 
L 608.546051 155.277957 
L 612.570637 154.833565 
L 616.595223 154.713921 
L 624.644395 153.927688 
L 628.66898 153.209823 
L 636.718152 151.227149 
L 640.742738 151.022045 
L 644.767324 149.79142 
L 652.816496 149.36412 
L 656.841082 148.543703 
L 660.865668 148.184771 
L 664.890254 147.142158 
L 668.91484 146.629397 
L 672.939426 145.89444 
L 676.964012 145.620968 
L 680.988598 145.159484 
L 685.013184 144.441619 
L 693.062356 144.339067 
L 697.086941 143.928859 
L 701.111527 142.732417 
L 709.160699 142.151289 
L 721.234457 141.894909 
L 729.283629 141.792357 
L 733.308215 141.074492 
L 737.332801 139.655855 
L 741.357387 138.835438 
L 745.381973 137.809917 
L 749.406559 137.297156 
L 753.431145 135.553771 
L 757.455731 135.451219 
L 765.504902 135.04101 
L 769.529488 133.109612 
L 773.554074 132.528484 
L 781.603246 132.066999 
L 785.627832 131.878987 
L 789.652418 131.041478 
L 797.70159 131.007294 
L 805.750762 130.186878 
L 809.775348 129.998865 
L 813.799934 127.793995 
L 821.849106 126.358266 
L 825.873692 126.289898 
L 829.898278 125.606217 
L 833.922863 124.324316 
L 837.947449 123.315887 
L 841.972035 123.127875 
L 845.996621 122.461286 
L 850.021207 121.675054 
L 854.045793 121.55541 
L 858.070379 121.247753 
L 862.094965 119.042883 
L 866.119551 118.854871 
L 870.144137 118.068638 
L 874.168723 117.897718 
L 878.193309 116.820921 
L 882.217895 116.650001 
L 890.267067 115.53902 
L 894.291653 113.693082 
L 898.316238 113.060678 
L 902.340824 112.257353 
L 906.36541 111.915512 
L 910.389996 110.018299 
L 914.414582 109.761918 
L 918.439168 109.676458 
L 922.463754 108.685121 
L 926.48834 108.069809 
L 930.512926 106.958828 
L 934.537512 104.736866 
L 938.562098 104.497577 
L 942.586684 103.848081 
L 950.635856 103.745529 
L 958.685028 101.967959 
L 962.709614 101.352647 
L 974.783371 98.703384 
L 982.832543 97.797507 
L 990.881715 95.695189 
L 994.906301 95.678097 
L 998.930887 95.028601 
L 1002.955473 94.618392 
L 1006.980059 94.054356 
L 1011.004645 93.695423 
L 1015.029231 93.148479 
L 1019.053817 92.789546 
L 1027.102989 91.148713 
L 1031.127575 90.653044 
L 1035.15216 88.567819 
L 1039.176746 88.123426 
L 1043.201332 84.363183 
L 1047.225918 80.927687 
L 1051.250504 80.466203 
L 1055.27509 79.218486 
L 1059.299676 78.432253 
L 1063.324262 74.449813 
L 1067.348848 71.390342 
L 1071.373434 69.424761 
L 1075.39802 62.741782 
L 1079.422606 61.425697 
L 1083.447192 61.408605 
L 1087.471778 59.648127 
L 1091.496364 35.223636 
L 1091.496364 35.223636 
" clip-path="url(#p45553c3a74)" style="fill: none; stroke: #1f77b4; stroke-width: 5; stroke-linecap: square"/>
   </g>
   <g id="line2d_14">
    <path d="M 97.423636 420.135838 
L 101.448222 408.051783 
L 105.472808 409.316592 
L 109.497394 422.545813 
L 113.52198 401.420081 
L 117.546566 427.895614 
L 121.571152 396.548856 
L 125.595738 423.041481 
L 129.620324 386.874775 
L 133.64491 396.309568 
L 137.669496 407.197182 
L 141.694082 388.464332 
L 145.718668 413.128112 
L 153.76784 381.66171 
L 157.792425 424.56267 
L 161.817011 401.693553 
L 165.841597 403.436939 
L 169.866183 393.455201 
L 173.890769 386.447475 
L 177.915355 391.250331 
L 181.939941 361.458947 
L 185.964527 365.578123 
L 189.989113 342.213337 
L 194.013699 345.63174 
L 198.038285 329.274681 
L 202.062871 363.561265 
L 206.087457 333.257121 
L 210.112043 345.683016 
L 214.136629 337.906149 
L 218.161215 341.546748 
L 222.185801 340.845976 
L 226.210386 329.360141 
L 230.234972 340.093927 
L 234.259558 334.504838 
L 238.284144 359.117341 
L 242.30873 323.360843 
L 246.333316 343.050846 
L 250.357902 326.30067 
L 254.382488 317.857214 
L 258.407074 350.12694 
L 262.43166 340.264847 
L 266.456246 327.428743 
L 270.480832 334.94923 
L 274.505418 326.334854 
L 278.530004 332.214508 
L 282.55459 352.365995 
L 286.579176 329.411417 
L 290.603762 323.83942 
L 294.628347 323.565947 
L 298.652933 329.821625 
L 302.677519 284.903807 
L 306.702105 336.743892 
L 310.726691 313.07145 
L 314.751277 320.147544 
L 318.775863 311.704088 
L 322.800449 327.001443 
L 326.825035 317.276086 
L 330.849621 325.360609 
L 334.874207 288.664051 
L 338.898793 317.891398 
L 342.923379 307.3969 
L 346.947965 340.042651 
L 350.972551 317.754662 
L 354.997137 309.704322 
L 359.021722 311.29388 
L 363.046308 318.643447 
L 367.070894 297.791187 
L 371.09548 304.610902 
L 375.120066 309.00355 
L 379.144652 310.148715 
L 383.169238 343.238858 
L 387.193824 303.619565 
L 391.21841 320.147544 
L 395.242996 314.951571 
L 399.267582 331.462459 
L 403.292168 315.173768 
L 407.316754 308.285685 
L 411.34134 294.953913 
L 415.365926 313.396198 
L 419.390512 294.236048 
L 423.415098 308.798446 
L 427.439683 328.625184 
L 431.464269 318.934011 
L 435.488855 303.499921 
L 439.513441 315.139584 
L 443.538027 302.782056 
L 447.562613 303.021344 
L 451.587199 292.116638 
L 455.611785 314.541363 
L 459.636371 312.678333 
L 463.660957 315.395964 
L 467.685543 294.150588 
L 471.710129 298.389408 
L 475.734715 331.906851 
L 479.759301 302.132559 
L 483.783887 307.56782 
L 487.808473 313.344922 
L 491.833059 307.362716 
L 495.857644 307.345624 
L 499.88223 273.40088 
L 503.906816 310.729843 
L 507.931402 295.347029 
L 511.955988 307.465268 
L 515.980574 299.671309 
L 520.00516 314.866111 
L 524.029746 310.285451 
L 528.054332 312.661241 
L 532.078918 301.534339 
L 536.103504 302.576952 
L 540.12809 293.706195 
L 544.152676 306.71322 
L 548.177262 295.193201 
L 552.201848 314.729375 
L 556.226434 303.961405 
L 560.25102 303.534105 
L 564.275605 293.261803 
L 568.300191 310.011979 
L 572.324777 314.814835 
L 576.349363 297.551899 
L 580.373949 313.003082 
L 584.398535 290.663817 
L 588.423121 301.619799 
L 592.447707 326.010106 
L 596.472293 289.381915 
L 600.496879 307.431084 
L 604.521465 307.841293 
L 608.546051 298.081752 
L 612.570637 294.287324 
L 616.595223 305.19203 
L 620.619809 307.431084 
L 624.644395 302.4744 
L 628.66898 297.056231 
L 632.693566 292.971239 
L 636.718152 307.960937 
L 640.742738 298.49196 
L 644.767324 299.722585 
L 648.79191 303.739209 
L 652.816496 293.107975 
L 656.841082 305.499686 
L 660.865668 323.480487 
L 664.890254 267.281939 
L 668.91484 302.132559 
L 672.939426 289.501559 
L 676.964012 287.775266 
L 680.988598 221.304415 
L 685.013184 291.552601 
L 689.03777 303.175172 
L 693.062356 286.048972 
L 697.086941 303.602473 
L 701.111527 264.83778 
L 705.136113 293.672011 
L 709.160699 308.610433 
L 713.185285 266.085497 
L 717.209871 285.331108 
L 721.234457 293.586551 
L 725.259043 277.04148 
L 729.283629 282.134901 
L 733.308215 286.11734 
L 737.332801 297.517715 
L 741.357387 298.885076 
L 745.381973 282.716029 
L 749.406559 271.982243 
L 753.431145 318.831459 
L 757.455731 276.750915 
L 761.480317 291.193669 
L 765.504902 289.826308 
L 769.529488 282.134901 
L 773.554074 269.520993 
L 777.57866 293.125067 
L 781.603246 293.962576 
L 785.627832 290.800553 
L 789.652418 294.475336 
L 793.677004 268.73476 
L 797.70159 267.931435 
L 801.726176 287.006125 
L 805.750762 294.868452 
L 809.775348 273.947825 
L 813.799934 293.295987 
L 817.82452 270.221765 
L 821.849106 304.371613 
L 825.873692 292.13373 
L 829.898278 304.388705 
L 833.922863 283.194606 
L 837.947449 303.329 
L 841.972035 279.827478 
L 845.996621 278.750681 
L 850.021207 278.203737 
L 854.045793 281.143564 
L 858.070379 272.751384 
L 862.094965 294.270232 
L 866.119551 275.862131 
L 870.144137 287.006125 
L 874.168723 273.605984 
L 878.193309 270.136305 
L 882.217895 237.524739 
L 886.242481 277.964449 
L 890.267067 273.435064 
L 894.291653 280.835907 
L 898.316238 275.827947 
L 902.340824 287.125769 
L 906.36541 278.289197 
L 910.389996 251.010339 
L 914.414582 273.605984 
L 918.439168 280.459883 
L 922.463754 266.905914 
L 926.48834 293.689103 
L 930.512926 269.589361 
L 934.537512 274.306757 
L 938.562098 286.630101 
L 942.586684 280.716263 
L 946.61127 289.159719 
L 950.635856 261.983414 
L 954.660442 276.699639 
L 958.685028 288.732419 
L 962.709614 317.840122 
L 966.734199 284.254311 
L 970.758785 278.579761 
L 974.783371 290.304884 
L 978.807957 254.531295 
L 982.832543 264.085732 
L 986.857129 261.077537 
L 990.881715 289.740848 
L 994.906301 236.51631 
L 998.930887 265.555645 
L 1002.955473 282.271637 
L 1006.980059 277.913173 
L 1011.004645 282.425465 
L 1015.029231 263.812259 
L 1019.053817 270.68325 
L 1023.078403 237.849487 
L 1027.102989 280.306055 
L 1031.127575 281.143564 
L 1035.15216 273.845273 
L 1039.176746 272.272807 
L 1043.201332 272.204439 
L 1047.225918 269.811557 
L 1051.250504 248.514905 
L 1055.27509 254.445834 
L 1059.299676 270.563606 
L 1063.324262 267.247755 
L 1067.348848 267.914343 
L 1071.373434 270.563606 
L 1075.39802 259.317059 
L 1079.422606 241.678098 
L 1083.447192 270.119213 
L 1087.471778 268.512564 
L 1091.496364 263.760983 
L 1091.496364 263.760983 
" clip-path="url(#p45553c3a74)" style="fill: none; stroke: #ff7f0e; stroke-width: 1.5; stroke-linecap: square"/>
   </g>
   <g id="patch_3">
    <path d="M 47.72 548.12 
L 47.72 10.8 
" style="fill: none; stroke: #000000; stroke-width: 0.8; stroke-linejoin: miter; stroke-linecap: square"/>
   </g>
   <g id="patch_4">
    <path d="M 1141.2 548.12 
L 1141.2 10.8 
" style="fill: none; stroke: #000000; stroke-width: 0.8; stroke-linejoin: miter; stroke-linecap: square"/>
   </g>
   <g id="patch_5">
    <path d="M 47.72 548.12 
L 1141.2 548.12 
" style="fill: none; stroke: #000000; stroke-width: 0.8; stroke-linejoin: miter; stroke-linecap: square"/>
   </g>
   <g id="patch_6">
    <path d="M 47.72 10.8 
L 1141.2 10.8 
" style="fill: none; stroke: #000000; stroke-width: 0.8; stroke-linejoin: miter; stroke-linecap: square"/>
   </g>
   <g id="legend_1">
    <g id="patch_7">
     <path d="M 54.72 48.15625 
L 147.777813 48.15625 
Q 149.777813 48.15625 149.777813 46.15625 
L 149.777813 17.8 
Q 149.777813 15.8 147.777813 15.8 
L 54.72 15.8 
Q 52.72 15.8 52.72 17.8 
L 52.72 46.15625 
Q 52.72 48.15625 54.72 48.15625 
z
" style="fill: #ffffff; opacity: 0.8; stroke: #cccccc; stroke-linejoin: miter"/>
    </g>
    <g id="line2d_15">
     <path d="M 56.72 23.898438 
L 66.72 23.898438 
L 76.72 23.898438 
" style="fill: none; stroke: #1f77b4; stroke-width: 5; stroke-linecap: square"/>
    </g>
    <g id="text_14">
     <!-- PNG decode -->
     <g transform="translate(84.72 27.398438) scale(0.1 -0.1)">
      <defs>
       <path id="DejaVuSans-50" d="M 1259 4147 
L 1259 2394 
L 2053 2394 
Q 2494 2394 2734 2622 
Q 2975 2850 2975 3272 
Q 2975 3691 2734 3919 
Q 2494 4147 2053 4147 
L 1259 4147 
z
M 628 4666 
L 2053 4666 
Q 2838 4666 3239 4311 
Q 3641 3956 3641 3272 
Q 3641 2581 3239 2228 
Q 2838 1875 2053 1875 
L 1259 1875 
L 1259 0 
L 628 0 
L 628 4666 
z
" transform="scale(0.015625)"/>
       <path id="DejaVuSans-4e" d="M 628 4666 
L 1478 4666 
L 3547 763 
L 3547 4666 
L 4159 4666 
L 4159 0 
L 3309 0 
L 1241 3903 
L 1241 0 
L 628 0 
L 628 4666 
z
" transform="scale(0.015625)"/>
       <path id="DejaVuSans-47" d="M 3809 666 
L 3809 1919 
L 2778 1919 
L 2778 2438 
L 4434 2438 
L 4434 434 
Q 4069 175 3628 42 
Q 3188 -91 2688 -91 
Q 1594 -91 976 548 
Q 359 1188 359 2328 
Q 359 3472 976 4111 
Q 1594 4750 2688 4750 
Q 3144 4750 3555 4637 
Q 3966 4525 4313 4306 
L 4313 3634 
Q 3963 3931 3569 4081 
Q 3175 4231 2741 4231 
Q 1884 4231 1454 3753 
Q 1025 3275 1025 2328 
Q 1025 1384 1454 906 
Q 1884 428 2741 428 
Q 3075 428 3337 486 
Q 3600 544 3809 666 
z
" transform="scale(0.015625)"/>
       <path id="DejaVuSans-20" transform="scale(0.015625)"/>
      </defs>
      <use xlink:href="#DejaVuSans-50"/>
      <use xlink:href="#DejaVuSans-4e" x="60.302734"/>
      <use xlink:href="#DejaVuSans-47" x="135.107422"/>
      <use xlink:href="#DejaVuSans-20" x="212.597656"/>
      <use xlink:href="#DejaVuSans-64" x="244.384766"/>
      <use xlink:href="#DejaVuSans-65" x="307.861328"/>
      <use xlink:href="#DejaVuSans-63" x="369.384766"/>
      <use xlink:href="#DejaVuSans-6f" x="424.365234"/>
      <use xlink:href="#DejaVuSans-64" x="485.546875"/>
      <use xlink:href="#DejaVuSans-65" x="549.023438"/>
     </g>
    </g>
    <g id="line2d_16">
     <path d="M 56.72 38.576563 
L 66.72 38.576563 
L 76.72 38.576563 
" style="fill: none; stroke: #ff7f0e; stroke-width: 1.5; stroke-linecap: square"/>
    </g>
    <g id="text_15">
     <!-- QB3 decode -->
     <g transform="translate(84.72 42.076563) scale(0.1 -0.1)">
      <defs>
       <path id="DejaVuSans-51" d="M 2522 4238 
Q 1834 4238 1429 3725 
Q 1025 3213 1025 2328 
Q 1025 1447 1429 934 
Q 1834 422 2522 422 
Q 3209 422 3611 934 
Q 4013 1447 4013 2328 
Q 4013 3213 3611 3725 
Q 3209 4238 2522 4238 
z
M 3406 84 
L 4238 -825 
L 3475 -825 
L 2784 -78 
Q 2681 -84 2626 -87 
Q 2572 -91 2522 -91 
Q 1538 -91 948 567 
Q 359 1225 359 2328 
Q 359 3434 948 4092 
Q 1538 4750 2522 4750 
Q 3503 4750 4090 4092 
Q 4678 3434 4678 2328 
Q 4678 1516 4351 937 
Q 4025 359 3406 84 
z
" transform="scale(0.015625)"/>
       <path id="DejaVuSans-42" d="M 1259 2228 
L 1259 519 
L 2272 519 
Q 2781 519 3026 730 
Q 3272 941 3272 1375 
Q 3272 1813 3026 2020 
Q 2781 2228 2272 2228 
L 1259 2228 
z
M 1259 4147 
L 1259 2741 
L 2194 2741 
Q 2656 2741 2882 2914 
Q 3109 3088 3109 3444 
Q 3109 3797 2882 3972 
Q 2656 4147 2194 4147 
L 1259 4147 
z
M 628 4666 
L 2241 4666 
Q 2963 4666 3353 4366 
Q 3744 4066 3744 3513 
Q 3744 3084 3544 2831 
Q 3344 2578 2956 2516 
Q 3422 2416 3680 2098 
Q 3938 1781 3938 1306 
Q 3938 681 3513 340 
Q 3088 0 2303 0 
L 628 0 
L 628 4666 
z
" transform="scale(0.015625)"/>
      </defs>
      <use xlink:href="#DejaVuSans-51"/>
      <use xlink:href="#DejaVuSans-42" x="78.710938"/>
      <use xlink:href="#DejaVuSans-33" x="147.314453"/>
      <use xlink:href="#DejaVuSans-20" x="210.9375"/>
      <use xlink:href="#DejaVuSans-64" x="242.724609"/>
      <use xlink:href="#DejaVuSans-65" x="306.201172"/>
      <use xlink:href="#DejaVuSans-63" x="367.724609"/>
      <use xlink:href="#DejaVuSans-6f" x="422.705078"/>
      <use xlink:href="#DejaVuSans-64" x="483.886719"/>
      <use xlink:href="#DejaVuSans-65" x="547.363281"/>
     </g>
    </g>
   </g>
  </g>
 </g>
 <defs>
  <clipPath id="p45553c3a74">
   <rect x="47.72" y="10.8" width="1093.48" height="537.32"/>
  </clipPath>
 </defs>
</svg>
