<?xml version="1.0" encoding="utf-8" standalone="no"?>
<!DOCTYPE svg PUBLIC "-//W3C//DTD SVG 1.1//EN"
  "http://www.w3.org/Graphics/SVG/1.1/DTD/svg11.dtd">
<svg xmlns:xlink="http://www.w3.org/1999/xlink" width="1152pt" height="576pt" viewBox="0 0 1152 576" xmlns="http://www.w3.org/2000/svg" version="1.1">
 <metadata>
  <rdf:RDF xmlns:dc="http://purl.org/dc/elements/1.1/" xmlns:cc="http://creativecommons.org/ns#" xmlns:rdf="http://www.w3.org/1999/02/22-rdf-syntax-ns#">
   <cc:Work>
    <dc:type rdf:resource="http://purl.org/dc/dcmitype/StillImage"/>
    <dc:date>2025-03-23T15:49:34.159384</dc:date>
    <dc:format>image/svg+xml</dc:format>
    <dc:creator>
     <cc:Agent>
      <dc:title>Matplotlib v3.9.0, https://matplotlib.org/</dc:title>
     </cc:Agent>
    </dc:creator>
   </cc:Work>
  </rdf:RDF>
 </metadata>
 <defs>
  <style type="text/css">*{stroke-linejoin: round; stroke-linecap: butt}</style>
 </defs>
 <g id="figure_1">
  <g id="patch_1">
   <path d="M 0 576 
L 1152 576 
L 1152 0 
L 0 0 
z
" style="fill: #ffffff"/>
  </g>
  <g id="axes_1">
   <g id="patch_2">
    <path d="M 54.02 534.04 
L 1141.2 534.04 
L 1141.2 26.88 
L 54.02 26.88 
z
" style="fill: #ffffff"/>
   </g>
   <g id="matplotlib.axis_1">
    <g id="xtick_1">
     <g id="line2d_1">
      <defs>
       <path id="mc3ce7591ee" d="M 0 0 
L 0 3.5 
" style="stroke: #000000; stroke-width: 0.8"/>
      </defs>
      <g>
       <use xlink:href="#mc3ce7591ee" x="103.437273" y="534.04" style="stroke: #000000; stroke-width: 0.8"/>
      </g>
     </g>
     <g id="text_1">
      <!-- 0 -->
      <g transform="translate(100.256023 548.638438) scale(0.1 -0.1)">
       <defs>
        <path id="DejaVuSans-30" d="M 2034 4250 
Q 1547 4250 1301 3770 
Q 1056 3291 1056 2328 
Q 1056 1369 1301 889 
Q 1547 409 2034 409 
Q 2525 409 2770 889 
Q 3016 1369 3016 2328 
Q 3016 3291 2770 3770 
Q 2525 4250 2034 4250 
z
M 2034 4750 
Q 2819 4750 3233 4129 
Q 3647 3509 3647 2328 
Q 3647 1150 3233 529 
Q 2819 -91 2034 -91 
Q 1250 -91 836 529 
Q 422 1150 422 2328 
Q 422 3509 836 4129 
Q 1250 4750 2034 4750 
z
" transform="scale(0.015625)"/>
       </defs>
       <use xlink:href="#DejaVuSans-30"/>
      </g>
     </g>
    </g>
    <g id="xtick_2">
     <g id="line2d_2">
      <g>
       <use xlink:href="#mc3ce7591ee" x="303.507203" y="534.04" style="stroke: #000000; stroke-width: 0.8"/>
      </g>
     </g>
     <g id="text_2">
      <!-- 50 -->
      <g transform="translate(297.144703 548.638438) scale(0.1 -0.1)">
       <defs>
        <path id="DejaVuSans-35" d="M 691 4666 
L 3169 4666 
L 3169 4134 
L 1269 4134 
L 1269 2991 
Q 1406 3038 1543 3061 
Q 1681 3084 1819 3084 
Q 2600 3084 3056 2656 
Q 3513 2228 3513 1497 
Q 3513 744 3044 326 
Q 2575 -91 1722 -91 
Q 1428 -91 1123 -41 
Q 819 9 494 109 
L 494 744 
Q 775 591 1075 516 
Q 1375 441 1709 441 
Q 2250 441 2565 725 
Q 2881 1009 2881 1497 
Q 2881 1984 2565 2268 
Q 2250 2553 1709 2553 
Q 1456 2553 1204 2497 
Q 953 2441 691 2322 
L 691 4666 
z
" transform="scale(0.015625)"/>
       </defs>
       <use xlink:href="#DejaVuSans-35"/>
       <use xlink:href="#DejaVuSans-30" x="63.623047"/>
      </g>
     </g>
    </g>
    <g id="xtick_3">
     <g id="line2d_3">
      <g>
       <use xlink:href="#mc3ce7591ee" x="503.577133" y="534.04" style="stroke: #000000; stroke-width: 0.8"/>
      </g>
     </g>
     <g id="text_3">
      <!-- 100 -->
      <g transform="translate(494.033383 548.638438) scale(0.1 -0.1)">
       <defs>
        <path id="DejaVuSans-31" d="M 794 531 
L 1825 531 
L 1825 4091 
L 703 3866 
L 703 4441 
L 1819 4666 
L 2450 4666 
L 2450 531 
L 3481 531 
L 3481 0 
L 794 0 
L 794 531 
z
" transform="scale(0.015625)"/>
       </defs>
       <use xlink:href="#DejaVuSans-31"/>
       <use xlink:href="#DejaVuSans-30" x="63.623047"/>
       <use xlink:href="#DejaVuSans-30" x="127.246094"/>
      </g>
     </g>
    </g>
    <g id="xtick_4">
     <g id="line2d_4">
      <g>
       <use xlink:href="#mc3ce7591ee" x="703.647063" y="534.04" style="stroke: #000000; stroke-width: 0.8"/>
      </g>
     </g>
     <g id="text_4">
      <!-- 150 -->
      <g transform="translate(694.103313 548.638438) scale(0.1 -0.1)">
       <use xlink:href="#DejaVuSans-31"/>
       <use xlink:href="#DejaVuSans-35" x="63.623047"/>
       <use xlink:href="#DejaVuSans-30" x="127.246094"/>
      </g>
     </g>
    </g>
    <g id="xtick_5">
     <g id="line2d_5">
      <g>
       <use xlink:href="#mc3ce7591ee" x="903.716993" y="534.04" style="stroke: #000000; stroke-width: 0.8"/>
      </g>
     </g>
     <g id="text_5">
      <!-- 200 -->
      <g transform="translate(894.173243 548.638438) scale(0.1 -0.1)">
       <defs>
        <path id="DejaVuSans-32" d="M 1228 531 
L 3431 531 
L 3431 0 
L 469 0 
L 469 531 
Q 828 903 1448 1529 
Q 2069 2156 2228 2338 
Q 2531 2678 2651 2914 
Q 2772 3150 2772 3378 
Q 2772 3750 2511 3984 
Q 2250 4219 1831 4219 
Q 1534 4219 1204 4116 
Q 875 4013 500 3803 
L 500 4441 
Q 881 4594 1212 4672 
Q 1544 4750 1819 4750 
Q 2544 4750 2975 4387 
Q 3406 4025 3406 3419 
Q 3406 3131 3298 2873 
Q 3191 2616 2906 2266 
Q 2828 2175 2409 1742 
Q 1991 1309 1228 531 
z
" transform="scale(0.015625)"/>
       </defs>
       <use xlink:href="#DejaVuSans-32"/>
       <use xlink:href="#DejaVuSans-30" x="63.623047"/>
       <use xlink:href="#DejaVuSans-30" x="127.246094"/>
      </g>
     </g>
    </g>
    <g id="xtick_6">
     <g id="line2d_6">
      <g>
       <use xlink:href="#mc3ce7591ee" x="1103.786923" y="534.04" style="stroke: #000000; stroke-width: 0.8"/>
      </g>
     </g>
     <g id="text_6">
      <!-- 250 -->
      <g transform="translate(1094.243173 548.638438) scale(0.1 -0.1)">
       <use xlink:href="#DejaVuSans-32"/>
       <use xlink:href="#DejaVuSans-35" x="63.623047"/>
       <use xlink:href="#DejaVuSans-30" x="127.246094"/>
      </g>
     </g>
    </g>
    <g id="text_7">
     <!-- File number -->
     <g transform="translate(568.138906 562.316562) scale(0.1 -0.1)">
      <defs>
       <path id="DejaVuSans-46" d="M 628 4666 
L 3309 4666 
L 3309 4134 
L 1259 4134 
L 1259 2759 
L 3109 2759 
L 3109 2228 
L 1259 2228 
L 1259 0 
L 628 0 
L 628 4666 
z
" transform="scale(0.015625)"/>
       <path id="DejaVuSans-69" d="M 603 3500 
L 1178 3500 
L 1178 0 
L 603 0 
L 603 3500 
z
M 603 4863 
L 1178 4863 
L 1178 4134 
L 603 4134 
L 603 4863 
z
" transform="scale(0.015625)"/>
       <path id="DejaVuSans-6c" d="M 603 4863 
L 1178 4863 
L 1178 0 
L 603 0 
L 603 4863 
z
" transform="scale(0.015625)"/>
       <path id="DejaVuSans-65" d="M 3597 1894 
L 3597 1613 
L 953 1613 
Q 991 1019 1311 708 
Q 1631 397 2203 397 
Q 2534 397 2845 478 
Q 3156 559 3463 722 
L 3463 178 
Q 3153 47 2828 -22 
Q 2503 -91 2169 -91 
Q 1331 -91 842 396 
Q 353 884 353 1716 
Q 353 2575 817 3079 
Q 1281 3584 2069 3584 
Q 2775 3584 3186 3129 
Q 3597 2675 3597 1894 
z
M 3022 2063 
Q 3016 2534 2758 2815 
Q 2500 3097 2075 3097 
Q 1594 3097 1305 2825 
Q 1016 2553 972 2059 
L 3022 2063 
z
" transform="scale(0.015625)"/>
       <path id="DejaVuSans-20" transform="scale(0.015625)"/>
       <path id="DejaVuSans-6e" d="M 3513 2113 
L 3513 0 
L 2938 0 
L 2938 2094 
Q 2938 2591 2744 2837 
Q 2550 3084 2163 3084 
Q 1697 3084 1428 2787 
Q 1159 2491 1159 1978 
L 1159 0 
L 581 0 
L 581 3500 
L 1159 3500 
L 1159 2956 
Q 1366 3272 1645 3428 
Q 1925 3584 2291 3584 
Q 2894 3584 3203 3211 
Q 3513 2838 3513 2113 
z
" transform="scale(0.015625)"/>
       <path id="DejaVuSans-75" d="M 544 1381 
L 544 3500 
L 1119 3500 
L 1119 1403 
Q 1119 906 1312 657 
Q 1506 409 1894 409 
Q 2359 409 2629 706 
Q 2900 1003 2900 1516 
L 2900 3500 
L 3475 3500 
L 3475 0 
L 2900 0 
L 2900 538 
Q 2691 219 2414 64 
Q 2138 -91 1772 -91 
Q 1169 -91 856 284 
Q 544 659 544 1381 
z
M 1991 3584 
L 1991 3584 
z
" transform="scale(0.015625)"/>
       <path id="DejaVuSans-6d" d="M 3328 2828 
Q 3544 3216 3844 3400 
Q 4144 3584 4550 3584 
Q 5097 3584 5394 3201 
Q 5691 2819 5691 2113 
L 5691 0 
L 5113 0 
L 5113 2094 
Q 5113 2597 4934 2840 
Q 4756 3084 4391 3084 
Q 3944 3084 3684 2787 
Q 3425 2491 3425 1978 
L 3425 0 
L 2847 0 
L 2847 2094 
Q 2847 2600 2669 2842 
Q 2491 3084 2119 3084 
Q 1678 3084 1418 2786 
Q 1159 2488 1159 1978 
L 1159 0 
L 581 0 
L 581 3500 
L 1159 3500 
L 1159 2956 
Q 1356 3278 1631 3431 
Q 1906 3584 2284 3584 
Q 2666 3584 2933 3390 
Q 3200 3197 3328 2828 
z
" transform="scale(0.015625)"/>
       <path id="DejaVuSans-62" d="M 3116 1747 
Q 3116 2381 2855 2742 
Q 2594 3103 2138 3103 
Q 1681 3103 1420 2742 
Q 1159 2381 1159 1747 
Q 1159 1113 1420 752 
Q 1681 391 2138 391 
Q 2594 391 2855 752 
Q 3116 1113 3116 1747 
z
M 1159 2969 
Q 1341 3281 1617 3432 
Q 1894 3584 2278 3584 
Q 2916 3584 3314 3078 
Q 3713 2572 3713 1747 
Q 3713 922 3314 415 
Q 2916 -91 2278 -91 
Q 1894 -91 1617 61 
Q 1341 213 1159 525 
L 1159 0 
L 581 0 
L 581 4863 
L 1159 4863 
L 1159 2969 
z
" transform="scale(0.015625)"/>
       <path id="DejaVuSans-72" d="M 2631 2963 
Q 2534 3019 2420 3045 
Q 2306 3072 2169 3072 
Q 1681 3072 1420 2755 
Q 1159 2438 1159 1844 
L 1159 0 
L 581 0 
L 581 3500 
L 1159 3500 
L 1159 2956 
Q 1341 3275 1631 3429 
Q 1922 3584 2338 3584 
Q 2397 3584 2469 3576 
Q 2541 3569 2628 3553 
L 2631 2963 
z
" transform="scale(0.015625)"/>
      </defs>
      <use xlink:href="#DejaVuSans-46"/>
      <use xlink:href="#DejaVuSans-69" x="50.269531"/>
      <use xlink:href="#DejaVuSans-6c" x="78.052734"/>
      <use xlink:href="#DejaVuSans-65" x="105.835938"/>
      <use xlink:href="#DejaVuSans-20" x="167.359375"/>
      <use xlink:href="#DejaVuSans-6e" x="199.146484"/>
      <use xlink:href="#DejaVuSans-75" x="262.525391"/>
      <use xlink:href="#DejaVuSans-6d" x="325.904297"/>
      <use xlink:href="#DejaVuSans-62" x="423.316406"/>
      <use xlink:href="#DejaVuSans-65" x="486.792969"/>
      <use xlink:href="#DejaVuSans-72" x="548.316406"/>
     </g>
    </g>
   </g>
   <g id="matplotlib.axis_2">
    <g id="ytick_1">
     <g id="line2d_7">
      <defs>
       <path id="m20268df631" d="M 0 0 
L -3.5 0 
" style="stroke: #000000; stroke-width: 0.8"/>
      </defs>
      <g>
       <use xlink:href="#m20268df631" x="54.02" y="513.946422" style="stroke: #000000; stroke-width: 0.8"/>
      </g>
     </g>
     <g id="text_8">
      <!-- 0.00 -->
      <g transform="translate(24.754375 517.745641) scale(0.1 -0.1)">
       <defs>
        <path id="DejaVuSans-2e" d="M 684 794 
L 1344 794 
L 1344 0 
L 684 0 
L 684 794 
z
" transform="scale(0.015625)"/>
       </defs>
       <use xlink:href="#DejaVuSans-30"/>
       <use xlink:href="#DejaVuSans-2e" x="63.623047"/>
       <use xlink:href="#DejaVuSans-30" x="95.410156"/>
       <use xlink:href="#DejaVuSans-30" x="159.033203"/>
      </g>
     </g>
    </g>
    <g id="ytick_2">
     <g id="line2d_8">
      <g>
       <use xlink:href="#m20268df631" x="54.02" y="452.521418" style="stroke: #000000; stroke-width: 0.8"/>
      </g>
     </g>
     <g id="text_9">
      <!-- 0.02 -->
      <g transform="translate(24.754375 456.320637) scale(0.1 -0.1)">
       <use xlink:href="#DejaVuSans-30"/>
       <use xlink:href="#DejaVuSans-2e" x="63.623047"/>
       <use xlink:href="#DejaVuSans-30" x="95.410156"/>
       <use xlink:href="#DejaVuSans-32" x="159.033203"/>
      </g>
     </g>
    </g>
    <g id="ytick_3">
     <g id="line2d_9">
      <g>
       <use xlink:href="#m20268df631" x="54.02" y="391.096414" style="stroke: #000000; stroke-width: 0.8"/>
      </g>
     </g>
     <g id="text_10">
      <!-- 0.04 -->
      <g transform="translate(24.754375 394.895633) scale(0.1 -0.1)">
       <defs>
        <path id="DejaVuSans-34" d="M 2419 4116 
L 825 1625 
L 2419 1625 
L 2419 4116 
z
M 2253 4666 
L 3047 4666 
L 3047 1625 
L 3713 1625 
L 3713 1100 
L 3047 1100 
L 3047 0 
L 2419 0 
L 2419 1100 
L 313 1100 
L 313 1709 
L 2253 4666 
z
" transform="scale(0.015625)"/>
       </defs>
       <use xlink:href="#DejaVuSans-30"/>
       <use xlink:href="#DejaVuSans-2e" x="63.623047"/>
       <use xlink:href="#DejaVuSans-30" x="95.410156"/>
       <use xlink:href="#DejaVuSans-34" x="159.033203"/>
      </g>
     </g>
    </g>
    <g id="ytick_4">
     <g id="line2d_10">
      <g>
       <use xlink:href="#m20268df631" x="54.02" y="329.67141" style="stroke: #000000; stroke-width: 0.8"/>
      </g>
     </g>
     <g id="text_11">
      <!-- 0.06 -->
      <g transform="translate(24.754375 333.470629) scale(0.1 -0.1)">
       <defs>
        <path id="DejaVuSans-36" d="M 2113 2584 
Q 1688 2584 1439 2293 
Q 1191 2003 1191 1497 
Q 1191 994 1439 701 
Q 1688 409 2113 409 
Q 2538 409 2786 701 
Q 3034 994 3034 1497 
Q 3034 2003 2786 2293 
Q 2538 2584 2113 2584 
z
M 3366 4563 
L 3366 3988 
Q 3128 4100 2886 4159 
Q 2644 4219 2406 4219 
Q 1781 4219 1451 3797 
Q 1122 3375 1075 2522 
Q 1259 2794 1537 2939 
Q 1816 3084 2150 3084 
Q 2853 3084 3261 2657 
Q 3669 2231 3669 1497 
Q 3669 778 3244 343 
Q 2819 -91 2113 -91 
Q 1303 -91 875 529 
Q 447 1150 447 2328 
Q 447 3434 972 4092 
Q 1497 4750 2381 4750 
Q 2619 4750 2861 4703 
Q 3103 4656 3366 4563 
z
" transform="scale(0.015625)"/>
       </defs>
       <use xlink:href="#DejaVuSans-30"/>
       <use xlink:href="#DejaVuSans-2e" x="63.623047"/>
       <use xlink:href="#DejaVuSans-30" x="95.410156"/>
       <use xlink:href="#DejaVuSans-36" x="159.033203"/>
      </g>
     </g>
    </g>
    <g id="ytick_5">
     <g id="line2d_11">
      <g>
       <use xlink:href="#m20268df631" x="54.02" y="268.246406" style="stroke: #000000; stroke-width: 0.8"/>
      </g>
     </g>
     <g id="text_12">
      <!-- 0.08 -->
      <g transform="translate(24.754375 272.045624) scale(0.1 -0.1)">
       <defs>
        <path id="DejaVuSans-38" d="M 2034 2216 
Q 1584 2216 1326 1975 
Q 1069 1734 1069 1313 
Q 1069 891 1326 650 
Q 1584 409 2034 409 
Q 2484 409 2743 651 
Q 3003 894 3003 1313 
Q 3003 1734 2745 1975 
Q 2488 2216 2034 2216 
z
M 1403 2484 
Q 997 2584 770 2862 
Q 544 3141 544 3541 
Q 544 4100 942 4425 
Q 1341 4750 2034 4750 
Q 2731 4750 3128 4425 
Q 3525 4100 3525 3541 
Q 3525 3141 3298 2862 
Q 3072 2584 2669 2484 
Q 3125 2378 3379 2068 
Q 3634 1759 3634 1313 
Q 3634 634 3220 271 
Q 2806 -91 2034 -91 
Q 1263 -91 848 271 
Q 434 634 434 1313 
Q 434 1759 690 2068 
Q 947 2378 1403 2484 
z
M 1172 3481 
Q 1172 3119 1398 2916 
Q 1625 2713 2034 2713 
Q 2441 2713 2670 2916 
Q 2900 3119 2900 3481 
Q 2900 3844 2670 4047 
Q 2441 4250 2034 4250 
Q 1625 4250 1398 4047 
Q 1172 3844 1172 3481 
z
" transform="scale(0.015625)"/>
       </defs>
       <use xlink:href="#DejaVuSans-30"/>
       <use xlink:href="#DejaVuSans-2e" x="63.623047"/>
       <use xlink:href="#DejaVuSans-30" x="95.410156"/>
       <use xlink:href="#DejaVuSans-38" x="159.033203"/>
      </g>
     </g>
    </g>
    <g id="ytick_6">
     <g id="line2d_12">
      <g>
       <use xlink:href="#m20268df631" x="54.02" y="206.821402" style="stroke: #000000; stroke-width: 0.8"/>
      </g>
     </g>
     <g id="text_13">
      <!-- 0.10 -->
      <g transform="translate(24.754375 210.62062) scale(0.1 -0.1)">
       <use xlink:href="#DejaVuSans-30"/>
       <use xlink:href="#DejaVuSans-2e" x="63.623047"/>
       <use xlink:href="#DejaVuSans-31" x="95.410156"/>
       <use xlink:href="#DejaVuSans-30" x="159.033203"/>
      </g>
     </g>
    </g>
    <g id="ytick_7">
     <g id="line2d_13">
      <g>
       <use xlink:href="#m20268df631" x="54.02" y="145.396397" style="stroke: #000000; stroke-width: 0.8"/>
      </g>
     </g>
     <g id="text_14">
      <!-- 0.12 -->
      <g transform="translate(24.754375 149.195616) scale(0.1 -0.1)">
       <use xlink:href="#DejaVuSans-30"/>
       <use xlink:href="#DejaVuSans-2e" x="63.623047"/>
       <use xlink:href="#DejaVuSans-31" x="95.410156"/>
       <use xlink:href="#DejaVuSans-32" x="159.033203"/>
      </g>
     </g>
    </g>
    <g id="ytick_8">
     <g id="line2d_14">
      <g>
       <use xlink:href="#m20268df631" x="54.02" y="83.971393" style="stroke: #000000; stroke-width: 0.8"/>
      </g>
     </g>
     <g id="text_15">
      <!-- 0.14 -->
      <g transform="translate(24.754375 87.770612) scale(0.1 -0.1)">
       <use xlink:href="#DejaVuSans-30"/>
       <use xlink:href="#DejaVuSans-2e" x="63.623047"/>
       <use xlink:href="#DejaVuSans-31" x="95.410156"/>
       <use xlink:href="#DejaVuSans-34" x="159.033203"/>
      </g>
     </g>
    </g>
    <g id="text_16">
     <!-- Seconds -->
     <g transform="translate(18.674687 301.467031) rotate(-90) scale(0.1 -0.1)">
      <defs>
       <path id="DejaVuSans-53" d="M 3425 4513 
L 3425 3897 
Q 3066 4069 2747 4153 
Q 2428 4238 2131 4238 
Q 1616 4238 1336 4038 
Q 1056 3838 1056 3469 
Q 1056 3159 1242 3001 
Q 1428 2844 1947 2747 
L 2328 2669 
Q 3034 2534 3370 2195 
Q 3706 1856 3706 1288 
Q 3706 609 3251 259 
Q 2797 -91 1919 -91 
Q 1588 -91 1214 -16 
Q 841 59 441 206 
L 441 856 
Q 825 641 1194 531 
Q 1563 422 1919 422 
Q 2459 422 2753 634 
Q 3047 847 3047 1241 
Q 3047 1584 2836 1778 
Q 2625 1972 2144 2069 
L 1759 2144 
Q 1053 2284 737 2584 
Q 422 2884 422 3419 
Q 422 4038 858 4394 
Q 1294 4750 2059 4750 
Q 2388 4750 2728 4690 
Q 3069 4631 3425 4513 
z
" transform="scale(0.015625)"/>
       <path id="DejaVuSans-63" d="M 3122 3366 
L 3122 2828 
Q 2878 2963 2633 3030 
Q 2388 3097 2138 3097 
Q 1578 3097 1268 2742 
Q 959 2388 959 1747 
Q 959 1106 1268 751 
Q 1578 397 2138 397 
Q 2388 397 2633 464 
Q 2878 531 3122 666 
L 3122 134 
Q 2881 22 2623 -34 
Q 2366 -91 2075 -91 
Q 1284 -91 818 406 
Q 353 903 353 1747 
Q 353 2603 823 3093 
Q 1294 3584 2113 3584 
Q 2378 3584 2631 3529 
Q 2884 3475 3122 3366 
z
" transform="scale(0.015625)"/>
       <path id="DejaVuSans-6f" d="M 1959 3097 
Q 1497 3097 1228 2736 
Q 959 2375 959 1747 
Q 959 1119 1226 758 
Q 1494 397 1959 397 
Q 2419 397 2687 759 
Q 2956 1122 2956 1747 
Q 2956 2369 2687 2733 
Q 2419 3097 1959 3097 
z
M 1959 3584 
Q 2709 3584 3137 3096 
Q 3566 2609 3566 1747 
Q 3566 888 3137 398 
Q 2709 -91 1959 -91 
Q 1206 -91 779 398 
Q 353 888 353 1747 
Q 353 2609 779 3096 
Q 1206 3584 1959 3584 
z
" transform="scale(0.015625)"/>
       <path id="DejaVuSans-64" d="M 2906 2969 
L 2906 4863 
L 3481 4863 
L 3481 0 
L 2906 0 
L 2906 525 
Q 2725 213 2448 61 
Q 2172 -91 1784 -91 
Q 1150 -91 751 415 
Q 353 922 353 1747 
Q 353 2572 751 3078 
Q 1150 3584 1784 3584 
Q 2172 3584 2448 3432 
Q 2725 3281 2906 2969 
z
M 947 1747 
Q 947 1113 1208 752 
Q 1469 391 1925 391 
Q 2381 391 2643 752 
Q 2906 1113 2906 1747 
Q 2906 2381 2643 2742 
Q 2381 3103 1925 3103 
Q 1469 3103 1208 2742 
Q 947 2381 947 1747 
z
" transform="scale(0.015625)"/>
       <path id="DejaVuSans-73" d="M 2834 3397 
L 2834 2853 
Q 2591 2978 2328 3040 
Q 2066 3103 1784 3103 
Q 1356 3103 1142 2972 
Q 928 2841 928 2578 
Q 928 2378 1081 2264 
Q 1234 2150 1697 2047 
L 1894 2003 
Q 2506 1872 2764 1633 
Q 3022 1394 3022 966 
Q 3022 478 2636 193 
Q 2250 -91 1575 -91 
Q 1294 -91 989 -36 
Q 684 19 347 128 
L 347 722 
Q 666 556 975 473 
Q 1284 391 1588 391 
Q 1994 391 2212 530 
Q 2431 669 2431 922 
Q 2431 1156 2273 1281 
Q 2116 1406 1581 1522 
L 1381 1569 
Q 847 1681 609 1914 
Q 372 2147 372 2553 
Q 372 3047 722 3315 
Q 1072 3584 1716 3584 
Q 2034 3584 2315 3537 
Q 2597 3491 2834 3397 
z
" transform="scale(0.015625)"/>
      </defs>
      <use xlink:href="#DejaVuSans-53"/>
      <use xlink:href="#DejaVuSans-65" x="63.476562"/>
      <use xlink:href="#DejaVuSans-63" x="125"/>
      <use xlink:href="#DejaVuSans-6f" x="179.980469"/>
      <use xlink:href="#DejaVuSans-6e" x="241.162109"/>
      <use xlink:href="#DejaVuSans-64" x="304.541016"/>
      <use xlink:href="#DejaVuSans-73" x="368.017578"/>
     </g>
    </g>
   </g>
   <g id="line2d_15">
    <path d="M 103.437273 510.752629 
L 111.44007 510.631622 
L 115.441469 510.987273 
L 119.442867 510.107974 
L 123.444266 510.801462 
L 127.445664 510.730209 
L 131.447063 509.929227 
L 135.448462 510.506315 
L 139.44986 509.511537 
L 143.451259 509.907728 
L 155.455455 509.780271 
L 159.456853 509.419399 
L 167.45965 509.767065 
L 171.461049 509.614731 
L 175.462448 509.317741 
L 179.463846 508.881316 
L 183.465245 509.972532 
L 187.466643 507.964855 
L 191.468042 508.315285 
L 195.469441 505.654354 
L 199.470839 507.183529 
L 203.472238 505.86842 
L 207.473636 505.734206 
L 211.475035 505.845386 
L 215.476434 505.735435 
L 219.477832 505.487892 
L 223.479231 506.032425 
L 227.480629 506.338628 
L 231.482028 505.791332 
L 235.483427 507.565593 
L 239.484825 505.906504 
L 243.486224 505.831872 
L 247.487622 505.262155 
L 251.489021 506.103985 
L 255.49042 506.826343 
L 259.491818 506.373948 
L 263.493217 505.74772 
L 267.494615 508.330027 
L 271.496014 505.678924 
L 279.498811 506.588321 
L 283.50021 505.912339 
L 287.501608 507.608897 
L 291.503007 505.69213 
L 295.504406 507.61504 
L 299.505804 504.635006 
L 303.507203 506.141147 
L 307.508601 506.418174 
L 311.51 507.167559 
L 315.511399 506.879168 
L 319.512797 506.002019 
L 323.514196 505.813752 
L 327.515594 506.224071 
L 331.516993 506.488505 
L 335.518392 507.564057 
L 339.51979 506.447044 
L 343.521189 506.728677 
L 347.522587 507.264917 
L 351.523986 508.244646 
L 355.525385 505.729907 
L 359.526783 506.974684 
L 363.528182 506.741884 
L 367.52958 507.343234 
L 371.530979 507.662337 
L 375.532378 506.09815 
L 379.533776 506.582793 
L 383.535175 508.482054 
L 387.536573 506.341085 
L 391.537972 506.15896 
L 395.539371 506.558223 
L 399.540769 507.072657 
L 403.542168 506.13654 
L 407.543566 506.982362 
L 411.544965 507.087706 
L 415.546364 505.873027 
L 419.547762 506.643296 
L 423.549161 507.285188 
L 431.551958 506.259083 
L 435.553357 507.255397 
L 439.554755 506.514304 
L 443.556154 507.877939 
L 451.558951 506.177695 
L 459.561748 505.72315 
L 463.563147 505.985128 
L 467.564545 507.044709 
L 471.565944 507.492804 
L 475.567343 506.824807 
L 479.568741 507.872104 
L 483.57014 506.804844 
L 487.571538 506.162646 
L 491.572937 506.513997 
L 495.574336 507.006318 
L 499.575734 506.543481 
L 507.578531 507.537952 
L 515.581329 506.874869 
L 519.582727 507.71117 
L 523.584126 506.818665 
L 527.585524 506.965778 
L 531.586923 507.740347 
L 535.588322 506.703186 
L 539.58972 507.851219 
L 543.591119 507.045937 
L 547.592517 506.035496 
L 551.593916 508.12671 
L 555.595315 507.082178 
L 559.596713 507.089242 
L 563.598112 506.495569 
L 567.59951 507.341392 
L 571.600909 506.950729 
L 575.602308 507.970691 
L 579.603706 506.935065 
L 583.605105 508.127017 
L 587.606503 507.093235 
L 591.607902 507.489426 
L 599.610699 506.699807 
L 603.612098 507.194279 
L 607.613497 506.641761 
L 611.614895 506.341393 
L 615.616294 507.842005 
L 619.617692 506.73697 
L 623.619091 506.614734 
L 627.62049 508.136538 
L 631.621888 506.719463 
L 635.623287 506.570201 
L 639.624685 506.669402 
L 643.626084 506.907731 
L 647.627483 507.301158 
L 651.628881 505.999255 
L 655.63028 507.311908 
L 659.631678 506.806994 
L 663.633077 507.875482 
L 667.634476 506.149132 
L 671.635874 507.277202 
L 675.637273 507.232976 
L 679.638671 507.720077 
L 683.64007 506.556073 
L 687.641469 506.811294 
L 691.642867 507.49004 
L 695.644266 506.778124 
L 699.645664 507.223456 
L 703.647063 507.085864 
L 707.648462 507.097227 
L 715.651259 507.530888 
L 719.652657 506.713628 
L 723.654056 506.416331 
L 727.655455 506.690287 
L 731.656853 507.867497 
L 735.658252 506.497719 
L 739.65965 507.330335 
L 743.661049 506.535803 
L 747.662448 507.431686 
L 751.663846 506.740655 
L 755.665245 506.334022 
L 759.666643 507.416944 
L 763.668042 507.142067 
L 767.669441 506.528432 
L 771.670839 508.030273 
L 775.672238 506.496184 
L 779.673636 507.107669 
L 783.675035 507.232669 
L 787.676434 507.541944 
L 791.677832 506.439365 
L 795.679231 507.05208 
L 799.680629 507.155888 
L 803.682028 506.839242 
L 807.683427 506.926159 
L 811.684825 506.77966 
L 815.686224 506.519525 
L 819.687622 507.864426 
L 823.689021 506.342621 
L 827.69042 507.018603 
L 831.691818 506.65681 
L 835.693217 506.722228 
L 839.694615 506.001405 
L 843.696014 507.321121 
L 847.697413 506.588014 
L 851.698811 506.129783 
L 855.70021 507.369033 
L 859.701608 507.131318 
L 863.703007 507.396674 
L 867.704406 506.895446 
L 871.705804 507.068972 
L 875.707203 507.627018 
L 883.71 507.446121 
L 891.712797 506.803309 
L 899.715594 507.170016 
L 903.716993 507.689364 
L 907.718392 507.713934 
L 911.71979 506.420631 
L 915.721189 507.153738 
L 919.722587 507.291637 
L 923.723986 506.649132 
L 927.725385 507.573271 
L 931.726783 506.722842 
L 935.728182 507.819585 
L 939.72958 507.933222 
L 943.730979 507.398517 
L 951.733776 506.815901 
L 959.736573 507.124868 
L 963.737972 507.405274 
L 967.739371 507.207485 
L 971.740769 507.153738 
L 975.742168 506.455643 
L 979.743566 507.46332 
L 983.744965 507.238198 
L 987.746364 506.287953 
L 991.747762 506.852756 
L 995.749161 507.224991 
L 1003.751958 507.537337 
L 1007.753357 507.301465 
L 1011.754755 507.315593 
L 1015.756154 507.074193 
L 1019.757552 507.691514 
L 1027.76035 507.897288 
L 1031.761748 506.253862 
L 1035.763147 506.604599 
L 1039.764545 507.524745 
L 1043.765944 507.846305 
L 1051.768741 506.910495 
L 1059.771538 507.443664 
L 1063.772937 507.482055 
L 1067.774336 507.393603 
L 1071.775734 506.739734 
L 1075.777133 507.607669 
L 1079.778531 507.164488 
L 1083.77993 507.51676 
L 1087.781329 506.986355 
L 1091.782727 507.380704 
L 1091.782727 507.380704 
" clip-path="url(#p9508b78ada)" style="fill: none; stroke: #1f77b4; stroke-width: 5; stroke-linecap: square"/>
   </g>
   <g id="line2d_16">
    <path d="M 103.437273 510.677691 
L 107.438671 510.838624 
L 111.44007 510.667248 
L 115.441469 510.833096 
L 119.442867 509.901893 
L 123.444266 510.526585 
L 127.445664 510.681683 
L 131.447063 509.820505 
L 135.448462 510.427691 
L 139.44986 509.431992 
L 143.451259 509.854596 
L 151.454056 509.546856 
L 155.455455 509.756623 
L 159.456853 509.240653 
L 163.458252 509.550849 
L 171.461049 509.370874 
L 175.462448 509.148515 
L 179.463846 508.548393 
L 183.465245 509.860431 
L 187.466643 507.265225 
L 191.468042 508.377939 
L 195.469441 504.698888 
L 199.470839 506.561908 
L 203.472238 504.786111 
L 207.473636 504.955952 
L 211.475035 504.991885 
L 215.476434 504.899748 
L 219.477832 504.577574 
L 223.479231 505.357057 
L 227.480629 505.642683 
L 231.482028 504.993114 
L 235.483427 506.859205 
L 239.484825 505.133163 
L 243.486224 505.109514 
L 247.487622 504.375792 
L 251.489021 505.179846 
L 255.49042 506.321429 
L 259.491818 505.496184 
L 263.493217 505.295018 
L 267.494615 507.907423 
L 271.496014 504.811296 
L 275.497413 505.411725 
L 279.498811 505.734206 
L 283.50021 505.143298 
L 287.501608 506.983284 
L 291.503007 505.188445 
L 295.504406 507.448271 
L 299.505804 505.636848 
L 303.507203 505.28304 
L 307.508601 505.681688 
L 311.51 506.494034 
L 315.511399 506.353678 
L 319.512797 505.13777 
L 323.514196 504.972843 
L 327.515594 505.348764 
L 331.516993 505.580951 
L 335.518392 507.218849 
L 339.51979 505.798703 
L 347.522587 506.560987 
L 351.523986 507.642681 
L 355.525385 504.931074 
L 359.526783 506.179231 
L 363.528182 505.953801 
L 367.52958 506.418174 
L 371.530979 507.096306 
L 375.532378 505.139305 
L 379.533776 505.865349 
L 383.535175 507.975912 
L 387.536573 505.232671 
L 391.537972 505.482057 
L 395.539371 505.945508 
L 399.540769 506.550238 
L 403.542168 505.313138 
L 407.543566 506.24342 
L 411.544965 506.247719 
L 415.546364 505.15159 
L 419.547762 505.906196 
L 423.549161 506.46025 
L 427.550559 505.802388 
L 431.551958 505.580337 
L 435.553357 506.627633 
L 439.554755 505.861356 
L 443.556154 507.356748 
L 451.558951 505.426467 
L 455.56035 505.472536 
L 459.561748 504.847536 
L 463.563147 505.635005 
L 467.564545 506.565594 
L 471.565944 506.791024 
L 475.567343 506.209329 
L 479.568741 507.310679 
L 483.57014 505.99772 
L 487.571538 505.315288 
L 491.572937 505.731749 
L 495.574336 506.391761 
L 499.575734 505.779661 
L 503.577133 506.206872 
L 507.578531 506.887154 
L 515.581329 506.048702 
L 519.582727 507.225605 
L 523.584126 506.196737 
L 527.585524 506.095078 
L 531.586923 507.084021 
L 535.588322 505.893297 
L 539.58972 507.102755 
L 543.591119 506.669709 
L 547.592517 505.680152 
L 551.593916 507.358591 
L 555.595315 506.391147 
L 559.596713 506.183223 
L 563.598112 505.724378 
L 567.59951 506.853063 
L 571.600909 506.454722 
L 575.602308 507.271674 
L 579.603706 506.199194 
L 583.605105 507.533959 
L 587.606503 506.332793 
L 591.607902 506.827571 
L 595.609301 506.39084 
L 599.610699 505.642069 
L 603.612098 506.771368 
L 607.613497 505.992806 
L 611.614895 505.734513 
L 615.616294 507.409573 
L 619.617692 506.002019 
L 623.619091 505.921553 
L 627.62049 507.424622 
L 631.621888 506.034575 
L 635.623287 505.687216 
L 639.624685 505.868113 
L 643.626084 506.3417 
L 647.627483 506.598149 
L 651.628881 495.223467 
L 655.63028 506.592621 
L 659.631678 506.100914 
L 663.633077 507.360433 
L 667.634476 505.150362 
L 671.635874 506.552387 
L 675.637273 506.481749 
L 679.638671 507.184144 
L 683.64007 505.844771 
L 687.641469 505.985435 
L 691.642867 506.836478 
L 695.644266 506.413567 
L 699.645664 506.445815 
L 703.647063 506.231442 
L 707.648462 506.626712 
L 711.64986 506.642068 
L 715.651259 507.041023 
L 719.652657 506.172781 
L 723.654056 505.451344 
L 727.655455 505.777511 
L 731.656853 507.206257 
L 735.658252 505.763383 
L 739.65965 506.31283 
L 743.661049 505.773826 
L 747.662448 506.562215 
L 751.663846 506.456257 
L 755.665245 505.463629 
L 759.666643 506.662952 
L 763.668042 506.468542 
L 767.669441 505.619034 
L 771.670839 507.196121 
L 775.672238 505.68783 
L 779.673636 506.287646 
L 787.676434 506.790102 
L 791.677832 505.609821 
L 795.679231 506.279353 
L 799.680629 506.487584 
L 803.682028 505.701344 
L 807.683427 506.463321 
L 811.684825 506.219157 
L 815.686224 504.578802 
L 819.687622 507.083714 
L 823.689021 504.987278 
L 827.69042 506.308223 
L 831.691818 505.939059 
L 835.693217 505.918174 
L 839.694615 505.234821 
L 843.696014 506.802694 
L 847.697413 505.833408 
L 851.698811 505.523211 
L 855.70021 506.785188 
L 859.701608 506.46025 
L 863.703007 506.68783 
L 867.704406 506.50079 
L 871.705804 506.461786 
L 875.707203 506.95595 
L 883.71 506.671859 
L 887.711399 506.66111 
L 891.712797 505.990963 
L 895.714196 506.281196 
L 899.715594 506.400975 
L 903.716993 507.093542 
L 907.718392 506.876404 
L 911.71979 505.534575 
L 915.721189 506.463321 
L 919.722587 506.5788 
L 923.723986 506.008162 
L 927.725385 506.880397 
L 931.726783 505.929845 
L 935.728182 507.116883 
L 939.72958 507.472534 
L 943.730979 506.787952 
L 951.733776 506.142068 
L 959.736573 506.384083 
L 963.737972 506.690901 
L 967.739371 506.405275 
L 971.740769 506.549316 
L 975.742168 505.808224 
L 979.743566 506.858898 
L 983.744965 506.59907 
L 987.746364 505.763383 
L 995.749161 506.398825 
L 999.750559 506.563444 
L 1003.751958 506.943665 
L 1015.756154 506.30853 
L 1023.758951 507.257546 
L 1027.76035 507.270446 
L 1031.761748 505.709636 
L 1035.763147 505.83955 
L 1039.764545 506.864426 
L 1043.765944 507.422473 
L 1051.768741 506.136233 
L 1059.771538 506.777817 
L 1063.772937 506.853677 
L 1071.775734 506.540102 
L 1075.777133 507.036416 
L 1079.778531 506.516454 
L 1083.77993 506.904353 
L 1087.781329 506.320815 
L 1091.782727 506.448886 
L 1091.782727 506.448886 
" clip-path="url(#p9508b78ada)" style="fill: none; stroke: #ff7f0e; stroke-width: 1.5; stroke-linecap: square"/>
   </g>
   <g id="line2d_17">
    <path d="M 103.437273 508.713012 
L 107.438671 509.202569 
L 111.44007 508.288872 
L 115.441469 509.451648 
L 119.442867 506.444279 
L 123.444266 508.572349 
L 127.445664 508.44827 
L 131.447063 506.280889 
L 135.448462 507.952878 
L 139.44986 503.60153 
L 143.451259 505.465472 
L 147.452657 505.199809 
L 151.454056 504.093237 
L 155.455455 505.039797 
L 159.456853 503.186604 
L 167.45965 504.922782 
L 171.461049 503.373029 
L 175.462448 502.751715 
L 179.463846 501.178928 
L 183.465245 506.502019 
L 187.466643 499.125797 
L 191.468042 501.6562 
L 195.469441 492.803322 
L 199.470839 497.382863 
L 203.472238 493.72224 
L 207.473636 493.942448 
L 215.476434 494.193062 
L 219.477832 492.469477 
L 223.479231 494.873959 
L 227.480629 495.659277 
L 231.482028 493.815299 
L 235.483427 498.045946 
L 239.484825 494.041343 
L 243.486224 493.612596 
L 247.487622 492.308236 
L 251.489021 495.154978 
L 255.49042 496.512778 
L 259.491818 494.597239 
L 263.493217 494.965175 
L 267.494615 500.852761 
L 271.496014 493.760937 
L 279.498811 496.757556 
L 283.50021 495.048406 
L 287.501608 498.526904 
L 291.503007 494.908049 
L 295.504406 500.208106 
L 299.505804 494.583725 
L 303.507203 494.865359 
L 307.508601 494.578504 
L 311.51 497.013699 
L 315.511399 496.676782 
L 319.512797 494.862902 
L 323.514196 493.776294 
L 327.515594 495.462717 
L 331.516993 494.516772 
L 335.518392 499.045023 
L 339.51979 495.638393 
L 343.521189 495.394228 
L 347.522587 497.346929 
L 351.523986 501.156815 
L 355.525385 494.629794 
L 359.526783 496.928625 
L 363.528182 496.002029 
L 367.52958 497.598772 
L 371.530979 498.809766 
L 375.532378 494.392694 
L 379.533776 495.338639 
L 383.535175 501.544407 
L 387.536573 494.353074 
L 391.537972 494.753258 
L 395.539371 495.964559 
L 399.540769 497.388698 
L 403.542168 495.350924 
L 407.543566 495.627643 
L 411.544965 496.883478 
L 415.546364 494.54687 
L 419.547762 496.346009 
L 423.549161 497.713329 
L 427.550559 494.439684 
L 431.551958 492.061 
L 435.553357 497.629484 
L 439.554755 494.623037 
L 443.556154 499.826657 
L 447.557552 497.130713 
L 451.558951 493.788272 
L 455.56035 493.755102 
L 459.561748 493.555778 
L 463.563147 493.78735 
L 467.564545 497.469779 
L 471.565944 498.831572 
L 475.567343 494.574512 
L 479.568741 499.361362 
L 483.57014 495.959338 
L 487.571538 494.702276 
L 491.572937 494.1645 
L 495.574336 496.894227 
L 499.575734 495.865358 
L 503.577133 497.062531 
L 511.57993 496.602151 
L 515.581329 495.731144 
L 519.582727 499.594777 
L 523.584126 496.379485 
L 527.585524 495.601845 
L 531.586923 499.309151 
L 535.588322 496.030591 
L 539.58972 499.307308 
L 543.591119 497.734828 
L 547.592517 495.920948 
L 551.593916 500.653744 
L 555.595315 497.507556 
L 559.596713 496.890234 
L 563.598112 494.684155 
L 567.59951 498.221007 
L 571.600909 497.459951 
L 575.602308 500.122111 
L 579.603706 495.787041 
L 583.605105 499.937529 
L 587.606503 496.610136 
L 591.607902 497.614435 
L 595.609301 496.3715 
L 599.610699 493.264623 
L 603.612098 498.284275 
L 607.613497 496.092631 
L 611.614895 493.38041 
L 615.616294 499.969777 
L 619.617692 495.539498 
L 623.619091 495.528135 
L 627.62049 500.032737 
L 631.621888 495.814682 
L 635.623287 494.390851 
L 639.624685 493.664807 
L 643.626084 495.404363 
L 647.627483 496.477458 
L 651.628881 494.672792 
L 655.63028 497.068981 
L 659.631678 495.43354 
L 663.633077 500.522295 
L 667.634476 494.910814 
L 671.635874 496.648834 
L 675.637273 495.242201 
L 679.638671 498.791338 
L 683.64007 495.610751 
L 687.641469 496.193368 
L 691.642867 498.427395 
L 695.644266 497.454116 
L 703.647063 496.836795 
L 707.648462 497.178318 
L 711.64986 498.309459 
L 715.651259 498.431695 
L 719.652657 496.225616 
L 723.654056 492.578199 
L 727.655455 496.084338 
L 731.656853 500.128253 
L 735.658252 495.722852 
L 739.65965 497.380406 
L 743.661049 493.627645 
L 747.662448 498.029975 
L 751.663846 496.89607 
L 755.665245 494.678627 
L 759.666643 496.496193 
L 763.668042 495.609216 
L 767.669441 494.977153 
L 771.670839 500.462405 
L 775.672238 495.069597 
L 779.673636 496.600001 
L 787.676434 498.64269 
L 791.677832 493.842018 
L 795.679231 496.315296 
L 799.680629 496.792569 
L 803.682028 496.132557 
L 807.683427 495.818982 
L 811.684825 496.620579 
L 815.686224 495.671869 
L 819.687622 499.980526 
L 823.689021 495.423405 
L 827.69042 496.520149 
L 831.691818 495.758479 
L 835.693217 495.144843 
L 839.694615 495.463024 
L 843.696014 498.201351 
L 847.697413 495.53612 
L 851.698811 495.867508 
L 855.70021 497.694288 
L 859.701608 496.985443 
L 863.703007 497.908047 
L 867.704406 497.711179 
L 871.705804 496.083417 
L 875.707203 499.163574 
L 879.708601 498.089865 
L 883.71 498.434459 
L 887.711399 498.528132 
L 891.712797 494.654364 
L 895.714196 495.468553 
L 899.715594 497.74527 
L 903.716993 499.287345 
L 907.718392 499.293488 
L 911.71979 495.666341 
L 915.721189 497.367507 
L 919.722587 496.270149 
L 923.723986 496.095702 
L 927.725385 499.059151 
L 931.726783 496.004793 
L 935.728182 499.884089 
L 939.72958 501.288879 
L 943.730979 498.713943 
L 947.732378 496.984215 
L 951.733776 496.692753 
L 955.735175 497.121807 
L 959.736573 496.460259 
L 963.737972 497.82543 
L 967.739371 497.03489 
L 971.740769 497.440602 
L 975.742168 495.335567 
L 979.743566 498.461179 
L 987.746364 494.991895 
L 991.747762 494.321748 
L 995.749161 497.591401 
L 999.750559 497.718858 
L 1003.751958 499.451043 
L 1007.753357 498.439066 
L 1011.754755 498.676166 
L 1015.756154 496.757556 
L 1019.757552 499.480527 
L 1023.758951 500.524138 
L 1027.76035 499.714249 
L 1031.761748 496.134707 
L 1035.763147 495.841095 
L 1039.764545 497.951658 
L 1043.765944 500.669715 
L 1047.767343 497.862592 
L 1051.768741 495.492201 
L 1055.77014 498.404668 
L 1059.771538 497.699509 
L 1063.772937 499.216092 
L 1067.774336 498.346007 
L 1071.775734 498.0957 
L 1075.777133 499.908352 
L 1079.778531 498.508169 
L 1083.77993 499.925244 
L 1087.781329 498.175552 
L 1091.782727 499.559765 
L 1091.782727 499.559765 
" clip-path="url(#p9508b78ada)" style="fill: none; stroke: #2ca02c; stroke-width: 1.5; stroke-linecap: square"/>
   </g>
   <g id="line2d_18">
    <path d="M 103.437273 460.434801 
L 107.438671 466.603407 
L 111.44007 456.868159 
L 115.441469 471.279386 
L 119.442867 446.702013 
L 123.444266 456.201083 
L 127.445664 461.276631 
L 131.447063 443.424375 
L 135.448462 462.355561 
L 139.44986 419.30769 
L 143.451259 431.410566 
L 147.452657 431.43575 
L 151.454056 426.539563 
L 155.455455 424.136924 
L 159.456853 404.855615 
L 163.458252 428.926538 
L 167.45965 427.668554 
L 171.461049 416.657815 
L 175.462448 416.567828 
L 179.463846 396.06539 
L 183.465245 437.687894 
L 187.466643 381.828917 
L 191.468042 400.433015 
L 195.469441 317.531679 
L 199.470839 364.093675 
L 203.472238 324.729154 
L 207.473636 321.661589 
L 211.475035 332.937992 
L 215.476434 331.175094 
L 219.477832 315.74759 
L 223.479231 339.199964 
L 227.480629 349.411256 
L 231.482028 331.65728 
L 235.483427 363.214683 
L 239.484825 337.698737 
L 243.486224 323.68585 
L 247.487622 325.951512 
L 251.489021 339.181843 
L 255.49042 351.093687 
L 259.491818 339.224841 
L 263.493217 342.099838 
L 267.494615 390.275776 
L 271.496014 329.282897 
L 275.497413 338.736819 
L 279.498811 347.846147 
L 283.50021 340.411879 
L 287.501608 370.659701 
L 291.503007 338.559608 
L 295.504406 382.044518 
L 299.505804 341.803462 
L 303.507203 336.514462 
L 307.508601 344.309295 
L 311.51 361.562658 
L 315.511399 351.564203 
L 323.514196 329.090636 
L 327.515594 347.962548 
L 331.516993 344.311752 
L 335.518392 376.74569 
L 339.51979 345.864884 
L 343.521189 344.20088 
L 347.522587 364.769043 
L 351.523986 388.803726 
L 355.525385 341.328954 
L 359.526783 350.918933 
L 363.528182 347.593076 
L 367.52958 359.56481 
L 371.530979 377.918294 
L 375.532378 341.906964 
L 379.533776 343.728215 
L 383.535175 400.010718 
L 387.536573 343.372257 
L 391.537972 334.863665 
L 395.539371 350.530113 
L 399.540769 354.523352 
L 403.542168 337.54886 
L 407.543566 346.381161 
L 411.544965 355.577713 
L 415.546364 343.588166 
L 419.547762 350.437668 
L 423.549161 365.177212 
L 427.550559 335.42939 
L 431.551958 327.811154 
L 435.553357 358.230966 
L 439.554755 340.863353 
L 443.556154 383.365463 
L 447.557552 356.891286 
L 451.558951 343.625942 
L 455.56035 341.210097 
L 459.561748 337.91096 
L 463.563147 341.198733 
L 467.564545 351.102901 
L 471.565944 389.863921 
L 475.567343 336.351072 
L 479.568741 373.431197 
L 483.57014 345.289639 
L 487.571538 334.337867 
L 491.572937 339.135775 
L 495.574336 364.940112 
L 499.575734 350.950567 
L 503.577133 355.06205 
L 507.578531 354.326792 
L 511.57993 349.118259 
L 515.581329 346.54793 
L 519.582727 381.912455 
L 523.584126 353.873783 
L 527.585524 340.438292 
L 531.586923 372.621616 
L 535.588322 344.832022 
L 539.58972 380.413377 
L 543.591119 361.170766 
L 547.592517 348.75278 
L 551.593916 389.604094 
L 555.595315 355.295157 
L 559.596713 357.028264 
L 563.598112 346.337856 
L 567.59951 367.879298 
L 571.600909 357.21561 
L 575.602308 378.640652 
L 579.603706 350.079868 
L 583.605105 384.929344 
L 587.606503 355.339076 
L 591.607902 359.253385 
L 595.609301 348.921392 
L 599.610699 337.865198 
L 603.612098 370.123461 
L 607.613497 350.130236 
L 611.614895 337.383933 
L 615.616294 383.90201 
L 619.617692 346.94535 
L 623.619091 346.522746 
L 627.62049 381.956066 
L 631.621888 346.265068 
L 635.623287 336.554389 
L 639.624685 337.646832 
L 643.626084 344.513841 
L 647.627483 346.906959 
L 651.628881 339.473305 
L 655.63028 358.640977 
L 659.631678 348.474218 
L 663.633077 387.379894 
L 667.634476 342.349224 
L 671.635874 351.749706 
L 675.637273 344.404811 
L 679.638671 365.485873 
L 683.64007 340.433992 
L 687.641469 354.209163 
L 691.642867 372.422599 
L 695.644266 358.466838 
L 699.645664 358.249393 
L 703.647063 355.095219 
L 707.648462 361.775188 
L 711.64986 359.463151 
L 715.651259 370.617625 
L 719.652657 347.574034 
L 723.654056 330.121655 
L 727.655455 350.373479 
L 731.656853 379.941019 
L 735.658252 347.789636 
L 739.65965 356.537478 
L 743.661049 343.529812 
L 747.662448 359.785018 
L 751.663846 354.751239 
L 755.665245 348.683063 
L 759.666643 351.228822 
L 763.668042 342.890378 
L 767.669441 344.228214 
L 771.670839 389.797889 
L 775.672238 345.932451 
L 779.673636 353.015983 
L 783.675035 360.594293 
L 787.676434 366.900184 
L 791.677832 344.927231 
L 795.679231 351.810517 
L 799.680629 363.777951 
L 803.682028 352.153269 
L 807.683427 347.830791 
L 811.684825 356.746323 
L 815.686224 347.676921 
L 819.687622 387.342425 
L 823.689021 346.891296 
L 827.69042 351.048847 
L 831.691818 349.069733 
L 835.693217 347.351983 
L 839.694615 345.396211 
L 843.696014 367.790232 
L 847.697413 346.768753 
L 851.698811 352.660332 
L 855.70021 368.045146 
L 859.701608 361.878075 
L 863.703007 360.048224 
L 867.704406 367.792689 
L 871.705804 350.988958 
L 875.707203 382.356557 
L 879.708601 362.085999 
L 883.71 366.193796 
L 887.711399 368.435194 
L 891.712797 333.306542 
L 895.714196 343.717466 
L 899.715594 360.749084 
L 903.716993 373.799747 
L 907.718392 382.26442 
L 911.71979 351.114572 
L 915.721189 356.230967 
L 919.722587 348.93122 
L 923.723986 353.882382 
L 927.725385 368.040539 
L 931.726783 352.995098 
L 935.728182 388.711895 
L 939.72958 395.593031 
L 943.730979 371.299442 
L 947.732378 358.255536 
L 951.733776 355.730968 
L 955.735175 352.024276 
L 959.736573 347.418629 
L 963.737972 363.720825 
L 967.739371 360.300374 
L 971.740769 359.823102 
L 975.742168 346.377783 
L 979.743566 367.909703 
L 983.744965 352.175996 
L 987.746364 350.142828 
L 991.747762 340.09339 
L 995.749161 365.20731 
L 999.750559 355.746631 
L 1003.751958 380.560183 
L 1007.753357 374.519034 
L 1011.754755 374.306503 
L 1015.756154 354.420158 
L 1019.757552 379.799742 
L 1023.758951 398.993213 
L 1027.76035 388.370987 
L 1031.761748 354.231584 
L 1035.763147 351.698109 
L 1039.764545 369.477884 
L 1043.765944 394.01748 
L 1047.767343 363.53655 
L 1051.768741 347.834784 
L 1055.77014 384.88696 
L 1059.771538 364.005223 
L 1063.772937 378.389116 
L 1067.774336 374.432425 
L 1071.775734 364.764743 
L 1075.777133 385.260117 
L 1079.778531 371.166764 
L 1083.77993 390.098258 
L 1087.781329 374.252449 
L 1091.782727 386.131431 
L 1091.782727 386.131431 
" clip-path="url(#p9508b78ada)" style="fill: none; stroke: #d62728; stroke-width: 1.5; stroke-linecap: square"/>
   </g>
   <g id="line2d_19">
    <path d="M 103.437273 477.383803 
L 115.441469 476.371212 
L 119.442867 475.502048 
L 127.445664 475.058559 
L 131.447063 474.80211 
L 135.448462 471.765258 
L 139.44986 471.602789 
L 143.451259 469.372447 
L 147.452657 466.975029 
L 151.454056 462.872146 
L 159.456853 457.69801 
L 163.458252 453.726884 
L 167.45965 453.291073 
L 171.461049 451.892119 
L 175.462448 451.355572 
L 179.463846 450.252686 
L 183.465245 443.305518 
L 187.466643 406.279754 
L 191.468042 406.174103 
L 195.469441 383.538682 
L 199.470839 381.631742 
L 207.473636 369.527945 
L 211.475035 365.671376 
L 215.476434 365.113023 
L 219.477832 365.091831 
L 223.479231 364.324326 
L 227.480629 362.804364 
L 231.482028 350.218688 
L 235.483427 350.16617 
L 239.484825 347.456406 
L 243.486224 343.524591 
L 247.487622 336.137313 
L 251.489021 331.279516 
L 255.49042 330.016618 
L 259.491818 326.623808 
L 263.493217 326.186155 
L 267.494615 325.955197 
L 271.496014 325.906979 
L 275.497413 323.380261 
L 283.50021 322.823136 
L 287.501608 320.886406 
L 291.503007 319.161592 
L 295.504406 308.917744 
L 299.505804 308.309022 
L 303.507203 306.50067 
L 307.508601 305.535069 
L 311.51 305.13642 
L 315.511399 305.122907 
L 319.512797 303.098646 
L 323.514196 302.698462 
L 327.515594 299.296438 
L 331.516993 298.893183 
L 335.518392 297.821624 
L 339.51979 293.927279 
L 343.521189 291.065181 
L 351.523986 291.051974 
L 355.525385 289.156706 
L 359.526783 285.998539 
L 363.528182 284.353885 
L 371.530979 283.684045 
L 375.532378 282.818259 
L 379.533776 282.615557 
L 383.535175 281.463531 
L 387.536573 281.16132 
L 391.537972 280.480117 
L 395.539371 279.352661 
L 399.540769 279.277722 
L 403.542168 278.540929 
L 407.543566 276.644125 
L 411.544965 276.45985 
L 415.546364 275.67361 
L 419.547762 274.457702 
L 423.549161 271.902115 
L 427.550559 271.76698 
L 431.551958 271.20187 
L 435.553357 269.957092 
L 443.556154 269.447265 
L 447.557552 268.515447 
L 451.558951 267.183139 
L 455.56035 266.299847 
L 459.561748 265.794627 
L 463.563147 265.426077 
L 467.564545 264.775586 
L 475.567343 263.024973 
L 479.568741 262.878168 
L 483.57014 261.259004 
L 487.571538 260.844693 
L 491.572937 259.410726 
L 495.574336 258.753786 
L 499.575734 258.593159 
L 507.578531 257.42762 
L 511.57993 256.695741 
L 515.581329 256.296171 
L 519.582727 255.415951 
L 523.584126 255.016688 
L 527.585524 253.860363 
L 531.586923 252.499799 
L 535.588322 252.400905 
L 539.58972 251.265156 
L 547.592517 250.184998 
L 551.593916 249.817369 
L 555.595315 249.596853 
L 559.596713 249.17732 
L 563.598112 248.201891 
L 571.600909 247.127568 
L 575.602308 246.969399 
L 579.603706 246.692679 
L 583.605105 245.877569 
L 587.606503 245.440223 
L 591.607902 245.333036 
L 595.609301 244.015163 
L 599.610699 243.297105 
L 603.612098 243.157363 
L 607.613497 242.267622 
L 611.614895 239.734762 
L 615.616294 239.678558 
L 619.617692 237.100243 
L 623.619091 237.010563 
L 627.62049 234.800491 
L 631.621888 234.78667 
L 639.624685 233.346868 
L 647.627483 233.204362 
L 651.628881 232.851476 
L 663.633077 232.360997 
L 667.634476 232.079363 
L 671.635874 230.63004 
L 675.637273 229.747363 
L 679.638671 229.693309 
L 683.64007 229.493371 
L 687.641469 228.373286 
L 691.642867 228.052033 
L 695.644266 227.856701 
L 699.645664 227.50535 
L 703.647063 226.470646 
L 707.648462 226.283607 
L 711.64986 225.838583 
L 715.651259 224.279002 
L 727.655455 223.061866 
L 731.656853 221.77409 
L 735.658252 220.97188 
L 739.65965 220.575074 
L 743.661049 219.8822 
L 747.662448 218.68902 
L 751.663846 218.566477 
L 755.665245 216.652474 
L 759.666643 216.409538 
L 767.669441 216.284845 
L 771.670839 213.860707 
L 775.672238 212.877293 
L 779.673636 209.716362 
L 783.675035 208.338292 
L 787.676434 208.288231 
L 791.677832 206.911389 
L 795.679231 206.42521 
L 799.680629 206.3515 
L 803.682028 206.164154 
L 811.684825 205.227423 
L 815.686224 205.135285 
L 823.689021 204.250765 
L 827.69042 202.380374 
L 831.691818 202.24831 
L 835.693217 200.918459 
L 839.694615 197.831852 
L 847.697413 197.709002 
L 851.698811 197.53087 
L 855.70021 194.677678 
L 859.701608 193.249547 
L 867.704406 191.406797 
L 871.705804 191.244021 
L 879.708601 191.207166 
L 883.71 190.832473 
L 887.711399 190.632842 
L 891.712797 190.279648 
L 899.715594 188.728667 
L 903.716993 188.559748 
L 907.718392 188.212697 
L 911.71979 188.126702 
L 915.721189 187.580019 
L 919.722587 186.425229 
L 923.723986 183.231129 
L 927.725385 182.948574 
L 931.726783 181.993415 
L 935.728182 181.41602 
L 943.730979 181.133465 
L 947.732378 180.835554 
L 951.733776 180.715775 
L 955.735175 180.021672 
L 959.736573 179.972532 
L 963.737972 178.8116 
L 967.739371 178.473762 
L 971.740769 177.088628 
L 979.743566 177.002633 
L 983.744965 176.606442 
L 987.746364 174.029663 
L 991.747762 171.056693 
L 995.749161 170.896988 
L 999.750559 163.909894 
L 1003.751958 163.906822 
L 1007.753357 163.028445 
L 1011.754755 162.973162 
L 1015.756154 157.687541 
L 1019.757552 157.343561 
L 1023.758951 157.303635 
L 1027.76035 156.830662 
L 1031.761748 155.393317 
L 1035.763147 152.813467 
L 1039.764545 152.570838 
L 1043.765944 151.452903 
L 1047.767343 151.265557 
L 1051.768741 148.019245 
L 1055.77014 142.512494 
L 1063.772937 130.976878 
L 1067.774336 130.310416 
L 1071.775734 128.486094 
L 1075.777133 109.042009 
L 1079.778531 93.418559 
L 1083.77993 67.193153 
L 1087.781329 57.282229 
L 1091.782727 49.932727 
L 1091.782727 49.932727 
" clip-path="url(#p9508b78ada)" style="fill: none; stroke: #9467bd; stroke-width: 5; stroke-linecap: square"/>
   </g>
   <g id="patch_3">
    <path d="M 54.02 534.04 
L 54.02 26.88 
" style="fill: none; stroke: #000000; stroke-width: 0.8; stroke-linejoin: miter; stroke-linecap: square"/>
   </g>
   <g id="patch_4">
    <path d="M 1141.2 534.04 
L 1141.2 26.88 
" style="fill: none; stroke: #000000; stroke-width: 0.8; stroke-linejoin: miter; stroke-linecap: square"/>
   </g>
   <g id="patch_5">
    <path d="M 54.02 534.04 
L 1141.2 534.04 
" style="fill: none; stroke: #000000; stroke-width: 0.8; stroke-linejoin: miter; stroke-linecap: square"/>
   </g>
   <g id="patch_6">
    <path d="M 54.02 26.88 
L 1141.2 26.88 
" style="fill: none; stroke: #000000; stroke-width: 0.8; stroke-linejoin: miter; stroke-linecap: square"/>
   </g>
   <g id="text_17">
    <!-- Encode times, CID22 set -->
    <g transform="translate(523.852188 20.88) scale(0.12 -0.12)">
     <defs>
      <path id="DejaVuSans-45" d="M 628 4666 
L 3578 4666 
L 3578 4134 
L 1259 4134 
L 1259 2753 
L 3481 2753 
L 3481 2222 
L 1259 2222 
L 1259 531 
L 3634 531 
L 3634 0 
L 628 0 
L 628 4666 
z
" transform="scale(0.015625)"/>
      <path id="DejaVuSans-74" d="M 1172 4494 
L 1172 3500 
L 2356 3500 
L 2356 3053 
L 1172 3053 
L 1172 1153 
Q 1172 725 1289 603 
Q 1406 481 1766 481 
L 2356 481 
L 2356 0 
L 1766 0 
Q 1100 0 847 248 
Q 594 497 594 1153 
L 594 3053 
L 172 3053 
L 172 3500 
L 594 3500 
L 594 4494 
L 1172 4494 
z
" transform="scale(0.015625)"/>
      <path id="DejaVuSans-2c" d="M 750 794 
L 1409 794 
L 1409 256 
L 897 -744 
L 494 -744 
L 750 256 
L 750 794 
z
" transform="scale(0.015625)"/>
      <path id="DejaVuSans-43" d="M 4122 4306 
L 4122 3641 
Q 3803 3938 3442 4084 
Q 3081 4231 2675 4231 
Q 1875 4231 1450 3742 
Q 1025 3253 1025 2328 
Q 1025 1406 1450 917 
Q 1875 428 2675 428 
Q 3081 428 3442 575 
Q 3803 722 4122 1019 
L 4122 359 
Q 3791 134 3420 21 
Q 3050 -91 2638 -91 
Q 1578 -91 968 557 
Q 359 1206 359 2328 
Q 359 3453 968 4101 
Q 1578 4750 2638 4750 
Q 3056 4750 3426 4639 
Q 3797 4528 4122 4306 
z
" transform="scale(0.015625)"/>
      <path id="DejaVuSans-49" d="M 628 4666 
L 1259 4666 
L 1259 0 
L 628 0 
L 628 4666 
z
" transform="scale(0.015625)"/>
      <path id="DejaVuSans-44" d="M 1259 4147 
L 1259 519 
L 2022 519 
Q 2988 519 3436 956 
Q 3884 1394 3884 2338 
Q 3884 3275 3436 3711 
Q 2988 4147 2022 4147 
L 1259 4147 
z
M 628 4666 
L 1925 4666 
Q 3281 4666 3915 4102 
Q 4550 3538 4550 2338 
Q 4550 1131 3912 565 
Q 3275 0 1925 0 
L 628 0 
L 628 4666 
z
" transform="scale(0.015625)"/>
     </defs>
     <use xlink:href="#DejaVuSans-45"/>
     <use xlink:href="#DejaVuSans-6e" x="63.183594"/>
     <use xlink:href="#DejaVuSans-63" x="126.5625"/>
     <use xlink:href="#DejaVuSans-6f" x="181.542969"/>
     <use xlink:href="#DejaVuSans-64" x="242.724609"/>
     <use xlink:href="#DejaVuSans-65" x="306.201172"/>
     <use xlink:href="#DejaVuSans-20" x="367.724609"/>
     <use xlink:href="#DejaVuSans-74" x="399.511719"/>
     <use xlink:href="#DejaVuSans-69" x="438.720703"/>
     <use xlink:href="#DejaVuSans-6d" x="466.503906"/>
     <use xlink:href="#DejaVuSans-65" x="563.916016"/>
     <use xlink:href="#DejaVuSans-73" x="625.439453"/>
     <use xlink:href="#DejaVuSans-2c" x="677.539062"/>
     <use xlink:href="#DejaVuSans-20" x="709.326172"/>
     <use xlink:href="#DejaVuSans-43" x="741.113281"/>
     <use xlink:href="#DejaVuSans-49" x="810.9375"/>
     <use xlink:href="#DejaVuSans-44" x="840.429688"/>
     <use xlink:href="#DejaVuSans-32" x="917.431641"/>
     <use xlink:href="#DejaVuSans-32" x="981.054688"/>
     <use xlink:href="#DejaVuSans-20" x="1044.677734"/>
     <use xlink:href="#DejaVuSans-73" x="1076.464844"/>
     <use xlink:href="#DejaVuSans-65" x="1128.564453"/>
     <use xlink:href="#DejaVuSans-74" x="1190.087891"/>
    </g>
   </g>
   <g id="legend_1">
    <g id="patch_7">
     <path d="M 61.02 108.270625 
L 189.393438 108.270625 
Q 191.393438 108.270625 191.393438 106.270625 
L 191.393438 33.88 
Q 191.393438 31.88 189.393438 31.88 
L 61.02 31.88 
Q 59.02 31.88 59.02 33.88 
L 59.02 106.270625 
Q 59.02 108.270625 61.02 108.270625 
z
" style="fill: #ffffff; opacity: 0.8; stroke: #cccccc; stroke-linejoin: miter"/>
    </g>
    <g id="line2d_20">
     <path d="M 63.02 39.978438 
L 73.02 39.978438 
L 83.02 39.978438 
" style="fill: none; stroke: #1f77b4; stroke-width: 5; stroke-linecap: square"/>
    </g>
    <g id="text_18">
     <!-- QB3 Fast -->
     <g transform="translate(91.02 43.478438) scale(0.1 -0.1)">
      <defs>
       <path id="DejaVuSans-51" d="M 2522 4238 
Q 1834 4238 1429 3725 
Q 1025 3213 1025 2328 
Q 1025 1447 1429 934 
Q 1834 422 2522 422 
Q 3209 422 3611 934 
Q 4013 1447 4013 2328 
Q 4013 3213 3611 3725 
Q 3209 4238 2522 4238 
z
M 3406 84 
L 4238 -825 
L 3475 -825 
L 2784 -78 
Q 2681 -84 2626 -87 
Q 2572 -91 2522 -91 
Q 1538 -91 948 567 
Q 359 1225 359 2328 
Q 359 3434 948 4092 
Q 1538 4750 2522 4750 
Q 3503 4750 4090 4092 
Q 4678 3434 4678 2328 
Q 4678 1516 4351 937 
Q 4025 359 3406 84 
z
" transform="scale(0.015625)"/>
       <path id="DejaVuSans-42" d="M 1259 2228 
L 1259 519 
L 2272 519 
Q 2781 519 3026 730 
Q 3272 941 3272 1375 
Q 3272 1813 3026 2020 
Q 2781 2228 2272 2228 
L 1259 2228 
z
M 1259 4147 
L 1259 2741 
L 2194 2741 
Q 2656 2741 2882 2914 
Q 3109 3088 3109 3444 
Q 3109 3797 2882 3972 
Q 2656 4147 2194 4147 
L 1259 4147 
z
M 628 4666 
L 2241 4666 
Q 2963 4666 3353 4366 
Q 3744 4066 3744 3513 
Q 3744 3084 3544 2831 
Q 3344 2578 2956 2516 
Q 3422 2416 3680 2098 
Q 3938 1781 3938 1306 
Q 3938 681 3513 340 
Q 3088 0 2303 0 
L 628 0 
L 628 4666 
z
" transform="scale(0.015625)"/>
       <path id="DejaVuSans-33" d="M 2597 2516 
Q 3050 2419 3304 2112 
Q 3559 1806 3559 1356 
Q 3559 666 3084 287 
Q 2609 -91 1734 -91 
Q 1441 -91 1130 -33 
Q 819 25 488 141 
L 488 750 
Q 750 597 1062 519 
Q 1375 441 1716 441 
Q 2309 441 2620 675 
Q 2931 909 2931 1356 
Q 2931 1769 2642 2001 
Q 2353 2234 1838 2234 
L 1294 2234 
L 1294 2753 
L 1863 2753 
Q 2328 2753 2575 2939 
Q 2822 3125 2822 3475 
Q 2822 3834 2567 4026 
Q 2313 4219 1838 4219 
Q 1578 4219 1281 4162 
Q 984 4106 628 3988 
L 628 4550 
Q 988 4650 1302 4700 
Q 1616 4750 1894 4750 
Q 2613 4750 3031 4423 
Q 3450 4097 3450 3541 
Q 3450 3153 3228 2886 
Q 3006 2619 2597 2516 
z
" transform="scale(0.015625)"/>
       <path id="DejaVuSans-61" d="M 2194 1759 
Q 1497 1759 1228 1600 
Q 959 1441 959 1056 
Q 959 750 1161 570 
Q 1363 391 1709 391 
Q 2188 391 2477 730 
Q 2766 1069 2766 1631 
L 2766 1759 
L 2194 1759 
z
M 3341 1997 
L 3341 0 
L 2766 0 
L 2766 531 
Q 2569 213 2275 61 
Q 1981 -91 1556 -91 
Q 1019 -91 701 211 
Q 384 513 384 1019 
Q 384 1609 779 1909 
Q 1175 2209 1959 2209 
L 2766 2209 
L 2766 2266 
Q 2766 2663 2505 2880 
Q 2244 3097 1772 3097 
Q 1472 3097 1187 3025 
Q 903 2953 641 2809 
L 641 3341 
Q 956 3463 1253 3523 
Q 1550 3584 1831 3584 
Q 2591 3584 2966 3190 
Q 3341 2797 3341 1997 
z
" transform="scale(0.015625)"/>
      </defs>
      <use xlink:href="#DejaVuSans-51"/>
      <use xlink:href="#DejaVuSans-42" x="78.710938"/>
      <use xlink:href="#DejaVuSans-33" x="147.314453"/>
      <use xlink:href="#DejaVuSans-20" x="210.9375"/>
      <use xlink:href="#DejaVuSans-46" x="242.724609"/>
      <use xlink:href="#DejaVuSans-61" x="291.119141"/>
      <use xlink:href="#DejaVuSans-73" x="352.398438"/>
      <use xlink:href="#DejaVuSans-74" x="404.498047"/>
     </g>
    </g>
    <g id="line2d_21">
     <path d="M 63.02 54.656563 
L 73.02 54.656563 
L 83.02 54.656563 
" style="fill: none; stroke: #ff7f0e; stroke-width: 1.5; stroke-linecap: square"/>
    </g>
    <g id="text_19">
     <!-- QB3 Base -->
     <g transform="translate(91.02 58.156563) scale(0.1 -0.1)">
      <use xlink:href="#DejaVuSans-51"/>
      <use xlink:href="#DejaVuSans-42" x="78.710938"/>
      <use xlink:href="#DejaVuSans-33" x="147.314453"/>
      <use xlink:href="#DejaVuSans-20" x="210.9375"/>
      <use xlink:href="#DejaVuSans-42" x="242.724609"/>
      <use xlink:href="#DejaVuSans-61" x="311.328125"/>
      <use xlink:href="#DejaVuSans-73" x="372.607422"/>
      <use xlink:href="#DejaVuSans-65" x="424.707031"/>
     </g>
    </g>
    <g id="line2d_22">
     <path d="M 63.02 69.334688 
L 73.02 69.334688 
L 83.02 69.334688 
" style="fill: none; stroke: #2ca02c; stroke-width: 1.5; stroke-linecap: square"/>
    </g>
    <g id="text_20">
     <!-- QB3 Best -->
     <g transform="translate(91.02 72.834688) scale(0.1 -0.1)">
      <use xlink:href="#DejaVuSans-51"/>
      <use xlink:href="#DejaVuSans-42" x="78.710938"/>
      <use xlink:href="#DejaVuSans-33" x="147.314453"/>
      <use xlink:href="#DejaVuSans-20" x="210.9375"/>
      <use xlink:href="#DejaVuSans-42" x="242.724609"/>
      <use xlink:href="#DejaVuSans-65" x="311.328125"/>
      <use xlink:href="#DejaVuSans-73" x="372.851562"/>
      <use xlink:href="#DejaVuSans-74" x="424.951172"/>
     </g>
    </g>
    <g id="line2d_23">
     <path d="M 63.02 84.012813 
L 73.02 84.012813 
L 83.02 84.012813 
" style="fill: none; stroke: #d62728; stroke-width: 1.5; stroke-linecap: square"/>
    </g>
    <g id="text_21">
     <!-- QB3 Best band mix -->
     <g transform="translate(91.02 87.512813) scale(0.1 -0.1)">
      <defs>
       <path id="DejaVuSans-78" d="M 3513 3500 
L 2247 1797 
L 3578 0 
L 2900 0 
L 1881 1375 
L 863 0 
L 184 0 
L 1544 1831 
L 300 3500 
L 978 3500 
L 1906 2253 
L 2834 3500 
L 3513 3500 
z
" transform="scale(0.015625)"/>
      </defs>
      <use xlink:href="#DejaVuSans-51"/>
      <use xlink:href="#DejaVuSans-42" x="78.710938"/>
      <use xlink:href="#DejaVuSans-33" x="147.314453"/>
      <use xlink:href="#DejaVuSans-20" x="210.9375"/>
      <use xlink:href="#DejaVuSans-42" x="242.724609"/>
      <use xlink:href="#DejaVuSans-65" x="311.328125"/>
      <use xlink:href="#DejaVuSans-73" x="372.851562"/>
      <use xlink:href="#DejaVuSans-74" x="424.951172"/>
      <use xlink:href="#DejaVuSans-20" x="464.160156"/>
      <use xlink:href="#DejaVuSans-62" x="495.947266"/>
      <use xlink:href="#DejaVuSans-61" x="559.423828"/>
      <use xlink:href="#DejaVuSans-6e" x="620.703125"/>
      <use xlink:href="#DejaVuSans-64" x="684.082031"/>
      <use xlink:href="#DejaVuSans-20" x="747.558594"/>
      <use xlink:href="#DejaVuSans-6d" x="779.345703"/>
      <use xlink:href="#DejaVuSans-69" x="876.757812"/>
      <use xlink:href="#DejaVuSans-78" x="904.541016"/>
     </g>
    </g>
    <g id="line2d_24">
     <path d="M 63.02 98.690938 
L 73.02 98.690938 
L 83.02 98.690938 
" style="fill: none; stroke: #9467bd; stroke-width: 5; stroke-linecap: square"/>
    </g>
    <g id="text_22">
     <!-- PNG encode -->
     <g transform="translate(91.02 102.190938) scale(0.1 -0.1)">
      <defs>
       <path id="DejaVuSans-50" d="M 1259 4147 
L 1259 2394 
L 2053 2394 
Q 2494 2394 2734 2622 
Q 2975 2850 2975 3272 
Q 2975 3691 2734 3919 
Q 2494 4147 2053 4147 
L 1259 4147 
z
M 628 4666 
L 2053 4666 
Q 2838 4666 3239 4311 
Q 3641 3956 3641 3272 
Q 3641 2581 3239 2228 
Q 2838 1875 2053 1875 
L 1259 1875 
L 1259 0 
L 628 0 
L 628 4666 
z
" transform="scale(0.015625)"/>
       <path id="DejaVuSans-4e" d="M 628 4666 
L 1478 4666 
L 3547 763 
L 3547 4666 
L 4159 4666 
L 4159 0 
L 3309 0 
L 1241 3903 
L 1241 0 
L 628 0 
L 628 4666 
z
" transform="scale(0.015625)"/>
       <path id="DejaVuSans-47" d="M 3809 666 
L 3809 1919 
L 2778 1919 
L 2778 2438 
L 4434 2438 
L 4434 434 
Q 4069 175 3628 42 
Q 3188 -91 2688 -91 
Q 1594 -91 976 548 
Q 359 1188 359 2328 
Q 359 3472 976 4111 
Q 1594 4750 2688 4750 
Q 3144 4750 3555 4637 
Q 3966 4525 4313 4306 
L 4313 3634 
Q 3963 3931 3569 4081 
Q 3175 4231 2741 4231 
Q 1884 4231 1454 3753 
Q 1025 3275 1025 2328 
Q 1025 1384 1454 906 
Q 1884 428 2741 428 
Q 3075 428 3337 486 
Q 3600 544 3809 666 
z
" transform="scale(0.015625)"/>
      </defs>
      <use xlink:href="#DejaVuSans-50"/>
      <use xlink:href="#DejaVuSans-4e" x="60.302734"/>
      <use xlink:href="#DejaVuSans-47" x="135.107422"/>
      <use xlink:href="#DejaVuSans-20" x="212.597656"/>
      <use xlink:href="#DejaVuSans-65" x="244.384766"/>
      <use xlink:href="#DejaVuSans-6e" x="305.908203"/>
      <use xlink:href="#DejaVuSans-63" x="369.287109"/>
      <use xlink:href="#DejaVuSans-6f" x="424.267578"/>
      <use xlink:href="#DejaVuSans-64" x="485.449219"/>
      <use xlink:href="#DejaVuSans-65" x="548.925781"/>
     </g>
    </g>
   </g>
  </g>
 </g>
 <defs>
  <clipPath id="p9508b78ada">
   <rect x="54.02" y="26.88" width="1087.18" height="507.16"/>
  </clipPath>
 </defs>
</svg>
