<?xml version="1.0" encoding="utf-8" standalone="no"?>
<!DOCTYPE svg PUBLIC "-//W3C//DTD SVG 1.1//EN"
  "http://www.w3.org/Graphics/SVG/1.1/DTD/svg11.dtd">
<svg xmlns:xlink="http://www.w3.org/1999/xlink" width="1440pt" height="720pt" viewBox="0 0 1440 720" xmlns="http://www.w3.org/2000/svg" version="1.1">
 <metadata>
  <rdf:RDF xmlns:dc="http://purl.org/dc/elements/1.1/" xmlns:cc="http://creativecommons.org/ns#" xmlns:rdf="http://www.w3.org/1999/02/22-rdf-syntax-ns#">
   <cc:Work>
    <dc:type rdf:resource="http://purl.org/dc/dcmitype/StillImage"/>
    <dc:date>2025-03-19T14:02:13.115311</dc:date>
    <dc:format>image/svg+xml</dc:format>
    <dc:creator>
     <cc:Agent>
      <dc:title>Matplotlib v3.9.0, https://matplotlib.org/</dc:title>
     </cc:Agent>
    </dc:creator>
   </cc:Work>
  </rdf:RDF>
 </metadata>
 <defs>
  <style type="text/css">*{stroke-linejoin: round; stroke-linecap: butt}</style>
 </defs>
 <g id="figure_1">
  <g id="patch_1">
   <path d="M 0 720 
L 1440 720 
L 1440 0 
L 0 0 
z
" style="fill: #ffffff"/>
  </g>
  <g id="axes_1">
   <g id="patch_2">
    <path d="M 44.66 678.04 
L 1429.2 678.04 
L 1429.2 26.88 
L 44.66 26.88 
z
" style="fill: #ffffff"/>
   </g>
   <g id="matplotlib.axis_1">
    <g id="xtick_1">
     <g id="line2d_1">
      <defs>
       <path id="m0c9db9f8f9" d="M 0 0 
L 0 3.5 
" style="stroke: #000000; stroke-width: 0.8"/>
      </defs>
      <g>
       <use xlink:href="#m0c9db9f8f9" x="44.66" y="678.04" style="stroke: #000000; stroke-width: 0.8"/>
      </g>
     </g>
     <g id="text_1">
      <!-- 0 -->
      <g transform="translate(41.47875 692.638438) scale(0.1 -0.1)">
       <defs>
        <path id="DejaVuSans-30" d="M 2034 4250 
Q 1547 4250 1301 3770 
Q 1056 3291 1056 2328 
Q 1056 1369 1301 889 
Q 1547 409 2034 409 
Q 2525 409 2770 889 
Q 3016 1369 3016 2328 
Q 3016 3291 2770 3770 
Q 2525 4250 2034 4250 
z
M 2034 4750 
Q 2819 4750 3233 4129 
Q 3647 3509 3647 2328 
Q 3647 1150 3233 529 
Q 2819 -91 2034 -91 
Q 1250 -91 836 529 
Q 422 1150 422 2328 
Q 422 3509 836 4129 
Q 1250 4750 2034 4750 
z
" transform="scale(0.015625)"/>
       </defs>
       <use xlink:href="#DejaVuSans-30"/>
      </g>
     </g>
    </g>
    <g id="xtick_2">
     <g id="line2d_2">
      <g>
       <use xlink:href="#m0c9db9f8f9" x="323.801129" y="678.04" style="stroke: #000000; stroke-width: 0.8"/>
      </g>
     </g>
     <g id="text_2">
      <!-- 50 -->
      <g transform="translate(317.438629 692.638438) scale(0.1 -0.1)">
       <defs>
        <path id="DejaVuSans-35" d="M 691 4666 
L 3169 4666 
L 3169 4134 
L 1269 4134 
L 1269 2991 
Q 1406 3038 1543 3061 
Q 1681 3084 1819 3084 
Q 2600 3084 3056 2656 
Q 3513 2228 3513 1497 
Q 3513 744 3044 326 
Q 2575 -91 1722 -91 
Q 1428 -91 1123 -41 
Q 819 9 494 109 
L 494 744 
Q 775 591 1075 516 
Q 1375 441 1709 441 
Q 2250 441 2565 725 
Q 2881 1009 2881 1497 
Q 2881 1984 2565 2268 
Q 2250 2553 1709 2553 
Q 1456 2553 1204 2497 
Q 953 2441 691 2322 
L 691 4666 
z
" transform="scale(0.015625)"/>
       </defs>
       <use xlink:href="#DejaVuSans-35"/>
       <use xlink:href="#DejaVuSans-30" x="63.623047"/>
      </g>
     </g>
    </g>
    <g id="xtick_3">
     <g id="line2d_3">
      <g>
       <use xlink:href="#m0c9db9f8f9" x="602.942258" y="678.04" style="stroke: #000000; stroke-width: 0.8"/>
      </g>
     </g>
     <g id="text_3">
      <!-- 100 -->
      <g transform="translate(593.398508 692.638438) scale(0.1 -0.1)">
       <defs>
        <path id="DejaVuSans-31" d="M 794 531 
L 1825 531 
L 1825 4091 
L 703 3866 
L 703 4441 
L 1819 4666 
L 2450 4666 
L 2450 531 
L 3481 531 
L 3481 0 
L 794 0 
L 794 531 
z
" transform="scale(0.015625)"/>
       </defs>
       <use xlink:href="#DejaVuSans-31"/>
       <use xlink:href="#DejaVuSans-30" x="63.623047"/>
       <use xlink:href="#DejaVuSans-30" x="127.246094"/>
      </g>
     </g>
    </g>
    <g id="xtick_4">
     <g id="line2d_4">
      <g>
       <use xlink:href="#m0c9db9f8f9" x="882.083387" y="678.04" style="stroke: #000000; stroke-width: 0.8"/>
      </g>
     </g>
     <g id="text_4">
      <!-- 150 -->
      <g transform="translate(872.539637 692.638438) scale(0.1 -0.1)">
       <use xlink:href="#DejaVuSans-31"/>
       <use xlink:href="#DejaVuSans-35" x="63.623047"/>
       <use xlink:href="#DejaVuSans-30" x="127.246094"/>
      </g>
     </g>
    </g>
    <g id="xtick_5">
     <g id="line2d_5">
      <g>
       <use xlink:href="#m0c9db9f8f9" x="1161.224516" y="678.04" style="stroke: #000000; stroke-width: 0.8"/>
      </g>
     </g>
     <g id="text_5">
      <!-- 200 -->
      <g transform="translate(1151.680766 692.638438) scale(0.1 -0.1)">
       <defs>
        <path id="DejaVuSans-32" d="M 1228 531 
L 3431 531 
L 3431 0 
L 469 0 
L 469 531 
Q 828 903 1448 1529 
Q 2069 2156 2228 2338 
Q 2531 2678 2651 2914 
Q 2772 3150 2772 3378 
Q 2772 3750 2511 3984 
Q 2250 4219 1831 4219 
Q 1534 4219 1204 4116 
Q 875 4013 500 3803 
L 500 4441 
Q 881 4594 1212 4672 
Q 1544 4750 1819 4750 
Q 2544 4750 2975 4387 
Q 3406 4025 3406 3419 
Q 3406 3131 3298 2873 
Q 3191 2616 2906 2266 
Q 2828 2175 2409 1742 
Q 1991 1309 1228 531 
z
" transform="scale(0.015625)"/>
       </defs>
       <use xlink:href="#DejaVuSans-32"/>
       <use xlink:href="#DejaVuSans-30" x="63.623047"/>
       <use xlink:href="#DejaVuSans-30" x="127.246094"/>
      </g>
     </g>
    </g>
    <g id="text_6">
     <!-- File number, sorted by increasing loss, then increasing gain -->
     <g transform="translate(587.810469 706.316563) scale(0.1 -0.1)">
      <defs>
       <path id="DejaVuSans-46" d="M 628 4666 
L 3309 4666 
L 3309 4134 
L 1259 4134 
L 1259 2759 
L 3109 2759 
L 3109 2228 
L 1259 2228 
L 1259 0 
L 628 0 
L 628 4666 
z
" transform="scale(0.015625)"/>
       <path id="DejaVuSans-69" d="M 603 3500 
L 1178 3500 
L 1178 0 
L 603 0 
L 603 3500 
z
M 603 4863 
L 1178 4863 
L 1178 4134 
L 603 4134 
L 603 4863 
z
" transform="scale(0.015625)"/>
       <path id="DejaVuSans-6c" d="M 603 4863 
L 1178 4863 
L 1178 0 
L 603 0 
L 603 4863 
z
" transform="scale(0.015625)"/>
       <path id="DejaVuSans-65" d="M 3597 1894 
L 3597 1613 
L 953 1613 
Q 991 1019 1311 708 
Q 1631 397 2203 397 
Q 2534 397 2845 478 
Q 3156 559 3463 722 
L 3463 178 
Q 3153 47 2828 -22 
Q 2503 -91 2169 -91 
Q 1331 -91 842 396 
Q 353 884 353 1716 
Q 353 2575 817 3079 
Q 1281 3584 2069 3584 
Q 2775 3584 3186 3129 
Q 3597 2675 3597 1894 
z
M 3022 2063 
Q 3016 2534 2758 2815 
Q 2500 3097 2075 3097 
Q 1594 3097 1305 2825 
Q 1016 2553 972 2059 
L 3022 2063 
z
" transform="scale(0.015625)"/>
       <path id="DejaVuSans-20" transform="scale(0.015625)"/>
       <path id="DejaVuSans-6e" d="M 3513 2113 
L 3513 0 
L 2938 0 
L 2938 2094 
Q 2938 2591 2744 2837 
Q 2550 3084 2163 3084 
Q 1697 3084 1428 2787 
Q 1159 2491 1159 1978 
L 1159 0 
L 581 0 
L 581 3500 
L 1159 3500 
L 1159 2956 
Q 1366 3272 1645 3428 
Q 1925 3584 2291 3584 
Q 2894 3584 3203 3211 
Q 3513 2838 3513 2113 
z
" transform="scale(0.015625)"/>
       <path id="DejaVuSans-75" d="M 544 1381 
L 544 3500 
L 1119 3500 
L 1119 1403 
Q 1119 906 1312 657 
Q 1506 409 1894 409 
Q 2359 409 2629 706 
Q 2900 1003 2900 1516 
L 2900 3500 
L 3475 3500 
L 3475 0 
L 2900 0 
L 2900 538 
Q 2691 219 2414 64 
Q 2138 -91 1772 -91 
Q 1169 -91 856 284 
Q 544 659 544 1381 
z
M 1991 3584 
L 1991 3584 
z
" transform="scale(0.015625)"/>
       <path id="DejaVuSans-6d" d="M 3328 2828 
Q 3544 3216 3844 3400 
Q 4144 3584 4550 3584 
Q 5097 3584 5394 3201 
Q 5691 2819 5691 2113 
L 5691 0 
L 5113 0 
L 5113 2094 
Q 5113 2597 4934 2840 
Q 4756 3084 4391 3084 
Q 3944 3084 3684 2787 
Q 3425 2491 3425 1978 
L 3425 0 
L 2847 0 
L 2847 2094 
Q 2847 2600 2669 2842 
Q 2491 3084 2119 3084 
Q 1678 3084 1418 2786 
Q 1159 2488 1159 1978 
L 1159 0 
L 581 0 
L 581 3500 
L 1159 3500 
L 1159 2956 
Q 1356 3278 1631 3431 
Q 1906 3584 2284 3584 
Q 2666 3584 2933 3390 
Q 3200 3197 3328 2828 
z
" transform="scale(0.015625)"/>
       <path id="DejaVuSans-62" d="M 3116 1747 
Q 3116 2381 2855 2742 
Q 2594 3103 2138 3103 
Q 1681 3103 1420 2742 
Q 1159 2381 1159 1747 
Q 1159 1113 1420 752 
Q 1681 391 2138 391 
Q 2594 391 2855 752 
Q 3116 1113 3116 1747 
z
M 1159 2969 
Q 1341 3281 1617 3432 
Q 1894 3584 2278 3584 
Q 2916 3584 3314 3078 
Q 3713 2572 3713 1747 
Q 3713 922 3314 415 
Q 2916 -91 2278 -91 
Q 1894 -91 1617 61 
Q 1341 213 1159 525 
L 1159 0 
L 581 0 
L 581 4863 
L 1159 4863 
L 1159 2969 
z
" transform="scale(0.015625)"/>
       <path id="DejaVuSans-72" d="M 2631 2963 
Q 2534 3019 2420 3045 
Q 2306 3072 2169 3072 
Q 1681 3072 1420 2755 
Q 1159 2438 1159 1844 
L 1159 0 
L 581 0 
L 581 3500 
L 1159 3500 
L 1159 2956 
Q 1341 3275 1631 3429 
Q 1922 3584 2338 3584 
Q 2397 3584 2469 3576 
Q 2541 3569 2628 3553 
L 2631 2963 
z
" transform="scale(0.015625)"/>
       <path id="DejaVuSans-2c" d="M 750 794 
L 1409 794 
L 1409 256 
L 897 -744 
L 494 -744 
L 750 256 
L 750 794 
z
" transform="scale(0.015625)"/>
       <path id="DejaVuSans-73" d="M 2834 3397 
L 2834 2853 
Q 2591 2978 2328 3040 
Q 2066 3103 1784 3103 
Q 1356 3103 1142 2972 
Q 928 2841 928 2578 
Q 928 2378 1081 2264 
Q 1234 2150 1697 2047 
L 1894 2003 
Q 2506 1872 2764 1633 
Q 3022 1394 3022 966 
Q 3022 478 2636 193 
Q 2250 -91 1575 -91 
Q 1294 -91 989 -36 
Q 684 19 347 128 
L 347 722 
Q 666 556 975 473 
Q 1284 391 1588 391 
Q 1994 391 2212 530 
Q 2431 669 2431 922 
Q 2431 1156 2273 1281 
Q 2116 1406 1581 1522 
L 1381 1569 
Q 847 1681 609 1914 
Q 372 2147 372 2553 
Q 372 3047 722 3315 
Q 1072 3584 1716 3584 
Q 2034 3584 2315 3537 
Q 2597 3491 2834 3397 
z
" transform="scale(0.015625)"/>
       <path id="DejaVuSans-6f" d="M 1959 3097 
Q 1497 3097 1228 2736 
Q 959 2375 959 1747 
Q 959 1119 1226 758 
Q 1494 397 1959 397 
Q 2419 397 2687 759 
Q 2956 1122 2956 1747 
Q 2956 2369 2687 2733 
Q 2419 3097 1959 3097 
z
M 1959 3584 
Q 2709 3584 3137 3096 
Q 3566 2609 3566 1747 
Q 3566 888 3137 398 
Q 2709 -91 1959 -91 
Q 1206 -91 779 398 
Q 353 888 353 1747 
Q 353 2609 779 3096 
Q 1206 3584 1959 3584 
z
" transform="scale(0.015625)"/>
       <path id="DejaVuSans-74" d="M 1172 4494 
L 1172 3500 
L 2356 3500 
L 2356 3053 
L 1172 3053 
L 1172 1153 
Q 1172 725 1289 603 
Q 1406 481 1766 481 
L 2356 481 
L 2356 0 
L 1766 0 
Q 1100 0 847 248 
Q 594 497 594 1153 
L 594 3053 
L 172 3053 
L 172 3500 
L 594 3500 
L 594 4494 
L 1172 4494 
z
" transform="scale(0.015625)"/>
       <path id="DejaVuSans-64" d="M 2906 2969 
L 2906 4863 
L 3481 4863 
L 3481 0 
L 2906 0 
L 2906 525 
Q 2725 213 2448 61 
Q 2172 -91 1784 -91 
Q 1150 -91 751 415 
Q 353 922 353 1747 
Q 353 2572 751 3078 
Q 1150 3584 1784 3584 
Q 2172 3584 2448 3432 
Q 2725 3281 2906 2969 
z
M 947 1747 
Q 947 1113 1208 752 
Q 1469 391 1925 391 
Q 2381 391 2643 752 
Q 2906 1113 2906 1747 
Q 2906 2381 2643 2742 
Q 2381 3103 1925 3103 
Q 1469 3103 1208 2742 
Q 947 2381 947 1747 
z
" transform="scale(0.015625)"/>
       <path id="DejaVuSans-79" d="M 2059 -325 
Q 1816 -950 1584 -1140 
Q 1353 -1331 966 -1331 
L 506 -1331 
L 506 -850 
L 844 -850 
Q 1081 -850 1212 -737 
Q 1344 -625 1503 -206 
L 1606 56 
L 191 3500 
L 800 3500 
L 1894 763 
L 2988 3500 
L 3597 3500 
L 2059 -325 
z
" transform="scale(0.015625)"/>
       <path id="DejaVuSans-63" d="M 3122 3366 
L 3122 2828 
Q 2878 2963 2633 3030 
Q 2388 3097 2138 3097 
Q 1578 3097 1268 2742 
Q 959 2388 959 1747 
Q 959 1106 1268 751 
Q 1578 397 2138 397 
Q 2388 397 2633 464 
Q 2878 531 3122 666 
L 3122 134 
Q 2881 22 2623 -34 
Q 2366 -91 2075 -91 
Q 1284 -91 818 406 
Q 353 903 353 1747 
Q 353 2603 823 3093 
Q 1294 3584 2113 3584 
Q 2378 3584 2631 3529 
Q 2884 3475 3122 3366 
z
" transform="scale(0.015625)"/>
       <path id="DejaVuSans-61" d="M 2194 1759 
Q 1497 1759 1228 1600 
Q 959 1441 959 1056 
Q 959 750 1161 570 
Q 1363 391 1709 391 
Q 2188 391 2477 730 
Q 2766 1069 2766 1631 
L 2766 1759 
L 2194 1759 
z
M 3341 1997 
L 3341 0 
L 2766 0 
L 2766 531 
Q 2569 213 2275 61 
Q 1981 -91 1556 -91 
Q 1019 -91 701 211 
Q 384 513 384 1019 
Q 384 1609 779 1909 
Q 1175 2209 1959 2209 
L 2766 2209 
L 2766 2266 
Q 2766 2663 2505 2880 
Q 2244 3097 1772 3097 
Q 1472 3097 1187 3025 
Q 903 2953 641 2809 
L 641 3341 
Q 956 3463 1253 3523 
Q 1550 3584 1831 3584 
Q 2591 3584 2966 3190 
Q 3341 2797 3341 1997 
z
" transform="scale(0.015625)"/>
       <path id="DejaVuSans-67" d="M 2906 1791 
Q 2906 2416 2648 2759 
Q 2391 3103 1925 3103 
Q 1463 3103 1205 2759 
Q 947 2416 947 1791 
Q 947 1169 1205 825 
Q 1463 481 1925 481 
Q 2391 481 2648 825 
Q 2906 1169 2906 1791 
z
M 3481 434 
Q 3481 -459 3084 -895 
Q 2688 -1331 1869 -1331 
Q 1566 -1331 1297 -1286 
Q 1028 -1241 775 -1147 
L 775 -588 
Q 1028 -725 1275 -790 
Q 1522 -856 1778 -856 
Q 2344 -856 2625 -561 
Q 2906 -266 2906 331 
L 2906 616 
Q 2728 306 2450 153 
Q 2172 0 1784 0 
Q 1141 0 747 490 
Q 353 981 353 1791 
Q 353 2603 747 3093 
Q 1141 3584 1784 3584 
Q 2172 3584 2450 3431 
Q 2728 3278 2906 2969 
L 2906 3500 
L 3481 3500 
L 3481 434 
z
" transform="scale(0.015625)"/>
       <path id="DejaVuSans-68" d="M 3513 2113 
L 3513 0 
L 2938 0 
L 2938 2094 
Q 2938 2591 2744 2837 
Q 2550 3084 2163 3084 
Q 1697 3084 1428 2787 
Q 1159 2491 1159 1978 
L 1159 0 
L 581 0 
L 581 4863 
L 1159 4863 
L 1159 2956 
Q 1366 3272 1645 3428 
Q 1925 3584 2291 3584 
Q 2894 3584 3203 3211 
Q 3513 2838 3513 2113 
z
" transform="scale(0.015625)"/>
      </defs>
      <use xlink:href="#DejaVuSans-46"/>
      <use xlink:href="#DejaVuSans-69" x="50.269531"/>
      <use xlink:href="#DejaVuSans-6c" x="78.052734"/>
      <use xlink:href="#DejaVuSans-65" x="105.835938"/>
      <use xlink:href="#DejaVuSans-20" x="167.359375"/>
      <use xlink:href="#DejaVuSans-6e" x="199.146484"/>
      <use xlink:href="#DejaVuSans-75" x="262.525391"/>
      <use xlink:href="#DejaVuSans-6d" x="325.904297"/>
      <use xlink:href="#DejaVuSans-62" x="423.316406"/>
      <use xlink:href="#DejaVuSans-65" x="486.792969"/>
      <use xlink:href="#DejaVuSans-72" x="548.316406"/>
      <use xlink:href="#DejaVuSans-2c" x="589.429688"/>
      <use xlink:href="#DejaVuSans-20" x="621.216797"/>
      <use xlink:href="#DejaVuSans-73" x="653.003906"/>
      <use xlink:href="#DejaVuSans-6f" x="705.103516"/>
      <use xlink:href="#DejaVuSans-72" x="766.285156"/>
      <use xlink:href="#DejaVuSans-74" x="807.398438"/>
      <use xlink:href="#DejaVuSans-65" x="846.607422"/>
      <use xlink:href="#DejaVuSans-64" x="908.130859"/>
      <use xlink:href="#DejaVuSans-20" x="971.607422"/>
      <use xlink:href="#DejaVuSans-62" x="1003.394531"/>
      <use xlink:href="#DejaVuSans-79" x="1066.871094"/>
      <use xlink:href="#DejaVuSans-20" x="1126.050781"/>
      <use xlink:href="#DejaVuSans-69" x="1157.837891"/>
      <use xlink:href="#DejaVuSans-6e" x="1185.621094"/>
      <use xlink:href="#DejaVuSans-63" x="1249"/>
      <use xlink:href="#DejaVuSans-72" x="1303.980469"/>
      <use xlink:href="#DejaVuSans-65" x="1342.84375"/>
      <use xlink:href="#DejaVuSans-61" x="1404.367188"/>
      <use xlink:href="#DejaVuSans-73" x="1465.646484"/>
      <use xlink:href="#DejaVuSans-69" x="1517.746094"/>
      <use xlink:href="#DejaVuSans-6e" x="1545.529297"/>
      <use xlink:href="#DejaVuSans-67" x="1608.908203"/>
      <use xlink:href="#DejaVuSans-20" x="1672.384766"/>
      <use xlink:href="#DejaVuSans-6c" x="1704.171875"/>
      <use xlink:href="#DejaVuSans-6f" x="1731.955078"/>
      <use xlink:href="#DejaVuSans-73" x="1793.136719"/>
      <use xlink:href="#DejaVuSans-73" x="1845.236328"/>
      <use xlink:href="#DejaVuSans-2c" x="1897.335938"/>
      <use xlink:href="#DejaVuSans-20" x="1929.123047"/>
      <use xlink:href="#DejaVuSans-74" x="1960.910156"/>
      <use xlink:href="#DejaVuSans-68" x="2000.119141"/>
      <use xlink:href="#DejaVuSans-65" x="2063.498047"/>
      <use xlink:href="#DejaVuSans-6e" x="2125.021484"/>
      <use xlink:href="#DejaVuSans-20" x="2188.400391"/>
      <use xlink:href="#DejaVuSans-69" x="2220.1875"/>
      <use xlink:href="#DejaVuSans-6e" x="2247.970703"/>
      <use xlink:href="#DejaVuSans-63" x="2311.349609"/>
      <use xlink:href="#DejaVuSans-72" x="2366.330078"/>
      <use xlink:href="#DejaVuSans-65" x="2405.193359"/>
      <use xlink:href="#DejaVuSans-61" x="2466.716797"/>
      <use xlink:href="#DejaVuSans-73" x="2527.996094"/>
      <use xlink:href="#DejaVuSans-69" x="2580.095703"/>
      <use xlink:href="#DejaVuSans-6e" x="2607.878906"/>
      <use xlink:href="#DejaVuSans-67" x="2671.257812"/>
      <use xlink:href="#DejaVuSans-20" x="2734.734375"/>
      <use xlink:href="#DejaVuSans-67" x="2766.521484"/>
      <use xlink:href="#DejaVuSans-61" x="2829.998047"/>
      <use xlink:href="#DejaVuSans-69" x="2891.277344"/>
      <use xlink:href="#DejaVuSans-6e" x="2919.060547"/>
     </g>
    </g>
   </g>
   <g id="matplotlib.axis_2">
    <g id="ytick_1">
     <g id="line2d_6">
      <defs>
       <path id="mdaa6b6893a" d="M 0 0 
L -3.5 0 
" style="stroke: #000000; stroke-width: 0.8"/>
      </defs>
      <g>
       <use xlink:href="#mdaa6b6893a" x="44.66" y="678.04" style="stroke: #000000; stroke-width: 0.8"/>
      </g>
     </g>
     <g id="text_7">
      <!-- -2 -->
      <g transform="translate(27.689688 681.839219) scale(0.1 -0.1)">
       <defs>
        <path id="DejaVuSans-2d" d="M 313 2009 
L 1997 2009 
L 1997 1497 
L 313 1497 
L 313 2009 
z
" transform="scale(0.015625)"/>
       </defs>
       <use xlink:href="#DejaVuSans-2d"/>
       <use xlink:href="#DejaVuSans-32" x="36.083984"/>
      </g>
     </g>
    </g>
    <g id="ytick_2">
     <g id="line2d_7">
      <g>
       <use xlink:href="#mdaa6b6893a" x="44.66" y="628.11021" style="stroke: #000000; stroke-width: 0.8"/>
      </g>
     </g>
     <g id="text_8">
      <!-- -1 -->
      <g transform="translate(27.689688 631.909429) scale(0.1 -0.1)">
       <use xlink:href="#DejaVuSans-2d"/>
       <use xlink:href="#DejaVuSans-31" x="36.083984"/>
      </g>
     </g>
    </g>
    <g id="ytick_3">
     <g id="line2d_8">
      <g>
       <use xlink:href="#mdaa6b6893a" x="44.66" y="578.18042" style="stroke: #000000; stroke-width: 0.8"/>
      </g>
     </g>
     <g id="text_9">
      <!--  0 -->
      <g transform="translate(28.119375 581.979639) scale(0.1 -0.1)">
       <use xlink:href="#DejaVuSans-20"/>
       <use xlink:href="#DejaVuSans-30" x="31.787109"/>
      </g>
     </g>
    </g>
    <g id="ytick_4">
     <g id="line2d_9">
      <g>
       <use xlink:href="#mdaa6b6893a" x="44.66" y="528.25063" style="stroke: #000000; stroke-width: 0.8"/>
      </g>
     </g>
     <g id="text_10">
      <!--  1 -->
      <g transform="translate(28.119375 532.049849) scale(0.1 -0.1)">
       <use xlink:href="#DejaVuSans-20"/>
       <use xlink:href="#DejaVuSans-31" x="31.787109"/>
      </g>
     </g>
    </g>
    <g id="ytick_5">
     <g id="line2d_10">
      <g>
       <use xlink:href="#mdaa6b6893a" x="44.66" y="478.32084" style="stroke: #000000; stroke-width: 0.8"/>
      </g>
     </g>
     <g id="text_11">
      <!--  2 -->
      <g transform="translate(28.119375 482.120059) scale(0.1 -0.1)">
       <use xlink:href="#DejaVuSans-20"/>
       <use xlink:href="#DejaVuSans-32" x="31.787109"/>
      </g>
     </g>
    </g>
    <g id="ytick_6">
     <g id="line2d_11">
      <g>
       <use xlink:href="#mdaa6b6893a" x="44.66" y="428.39105" style="stroke: #000000; stroke-width: 0.8"/>
      </g>
     </g>
     <g id="text_12">
      <!--  3 -->
      <g transform="translate(28.119375 432.190269) scale(0.1 -0.1)">
       <defs>
        <path id="DejaVuSans-33" d="M 2597 2516 
Q 3050 2419 3304 2112 
Q 3559 1806 3559 1356 
Q 3559 666 3084 287 
Q 2609 -91 1734 -91 
Q 1441 -91 1130 -33 
Q 819 25 488 141 
L 488 750 
Q 750 597 1062 519 
Q 1375 441 1716 441 
Q 2309 441 2620 675 
Q 2931 909 2931 1356 
Q 2931 1769 2642 2001 
Q 2353 2234 1838 2234 
L 1294 2234 
L 1294 2753 
L 1863 2753 
Q 2328 2753 2575 2939 
Q 2822 3125 2822 3475 
Q 2822 3834 2567 4026 
Q 2313 4219 1838 4219 
Q 1578 4219 1281 4162 
Q 984 4106 628 3988 
L 628 4550 
Q 988 4650 1302 4700 
Q 1616 4750 1894 4750 
Q 2613 4750 3031 4423 
Q 3450 4097 3450 3541 
Q 3450 3153 3228 2886 
Q 3006 2619 2597 2516 
z
" transform="scale(0.015625)"/>
       </defs>
       <use xlink:href="#DejaVuSans-20"/>
       <use xlink:href="#DejaVuSans-33" x="31.787109"/>
      </g>
     </g>
    </g>
    <g id="ytick_7">
     <g id="line2d_12">
      <g>
       <use xlink:href="#mdaa6b6893a" x="44.66" y="378.46126" style="stroke: #000000; stroke-width: 0.8"/>
      </g>
     </g>
     <g id="text_13">
      <!--  4 -->
      <g transform="translate(28.119375 382.260479) scale(0.1 -0.1)">
       <defs>
        <path id="DejaVuSans-34" d="M 2419 4116 
L 825 1625 
L 2419 1625 
L 2419 4116 
z
M 2253 4666 
L 3047 4666 
L 3047 1625 
L 3713 1625 
L 3713 1100 
L 3047 1100 
L 3047 0 
L 2419 0 
L 2419 1100 
L 313 1100 
L 313 1709 
L 2253 4666 
z
" transform="scale(0.015625)"/>
       </defs>
       <use xlink:href="#DejaVuSans-20"/>
       <use xlink:href="#DejaVuSans-34" x="31.787109"/>
      </g>
     </g>
    </g>
    <g id="ytick_8">
     <g id="line2d_13">
      <g>
       <use xlink:href="#mdaa6b6893a" x="44.66" y="328.53147" style="stroke: #000000; stroke-width: 0.8"/>
      </g>
     </g>
     <g id="text_14">
      <!--  5 -->
      <g transform="translate(28.119375 332.330689) scale(0.1 -0.1)">
       <use xlink:href="#DejaVuSans-20"/>
       <use xlink:href="#DejaVuSans-35" x="31.787109"/>
      </g>
     </g>
    </g>
    <g id="ytick_9">
     <g id="line2d_14">
      <g>
       <use xlink:href="#mdaa6b6893a" x="44.66" y="278.60168" style="stroke: #000000; stroke-width: 0.8"/>
      </g>
     </g>
     <g id="text_15">
      <!--  6 -->
      <g transform="translate(28.119375 282.400899) scale(0.1 -0.1)">
       <defs>
        <path id="DejaVuSans-36" d="M 2113 2584 
Q 1688 2584 1439 2293 
Q 1191 2003 1191 1497 
Q 1191 994 1439 701 
Q 1688 409 2113 409 
Q 2538 409 2786 701 
Q 3034 994 3034 1497 
Q 3034 2003 2786 2293 
Q 2538 2584 2113 2584 
z
M 3366 4563 
L 3366 3988 
Q 3128 4100 2886 4159 
Q 2644 4219 2406 4219 
Q 1781 4219 1451 3797 
Q 1122 3375 1075 2522 
Q 1259 2794 1537 2939 
Q 1816 3084 2150 3084 
Q 2853 3084 3261 2657 
Q 3669 2231 3669 1497 
Q 3669 778 3244 343 
Q 2819 -91 2113 -91 
Q 1303 -91 875 529 
Q 447 1150 447 2328 
Q 447 3434 972 4092 
Q 1497 4750 2381 4750 
Q 2619 4750 2861 4703 
Q 3103 4656 3366 4563 
z
" transform="scale(0.015625)"/>
       </defs>
       <use xlink:href="#DejaVuSans-20"/>
       <use xlink:href="#DejaVuSans-36" x="31.787109"/>
      </g>
     </g>
    </g>
    <g id="ytick_10">
     <g id="line2d_15">
      <g>
       <use xlink:href="#mdaa6b6893a" x="44.66" y="228.67189" style="stroke: #000000; stroke-width: 0.8"/>
      </g>
     </g>
     <g id="text_16">
      <!--  7 -->
      <g transform="translate(28.119375 232.471109) scale(0.1 -0.1)">
       <defs>
        <path id="DejaVuSans-37" d="M 525 4666 
L 3525 4666 
L 3525 4397 
L 1831 0 
L 1172 0 
L 2766 4134 
L 525 4134 
L 525 4666 
z
" transform="scale(0.015625)"/>
       </defs>
       <use xlink:href="#DejaVuSans-20"/>
       <use xlink:href="#DejaVuSans-37" x="31.787109"/>
      </g>
     </g>
    </g>
    <g id="ytick_11">
     <g id="line2d_16">
      <g>
       <use xlink:href="#mdaa6b6893a" x="44.66" y="178.7421" style="stroke: #000000; stroke-width: 0.8"/>
      </g>
     </g>
     <g id="text_17">
      <!--  8 -->
      <g transform="translate(28.119375 182.541319) scale(0.1 -0.1)">
       <defs>
        <path id="DejaVuSans-38" d="M 2034 2216 
Q 1584 2216 1326 1975 
Q 1069 1734 1069 1313 
Q 1069 891 1326 650 
Q 1584 409 2034 409 
Q 2484 409 2743 651 
Q 3003 894 3003 1313 
Q 3003 1734 2745 1975 
Q 2488 2216 2034 2216 
z
M 1403 2484 
Q 997 2584 770 2862 
Q 544 3141 544 3541 
Q 544 4100 942 4425 
Q 1341 4750 2034 4750 
Q 2731 4750 3128 4425 
Q 3525 4100 3525 3541 
Q 3525 3141 3298 2862 
Q 3072 2584 2669 2484 
Q 3125 2378 3379 2068 
Q 3634 1759 3634 1313 
Q 3634 634 3220 271 
Q 2806 -91 2034 -91 
Q 1263 -91 848 271 
Q 434 634 434 1313 
Q 434 1759 690 2068 
Q 947 2378 1403 2484 
z
M 1172 3481 
Q 1172 3119 1398 2916 
Q 1625 2713 2034 2713 
Q 2441 2713 2670 2916 
Q 2900 3119 2900 3481 
Q 2900 3844 2670 4047 
Q 2441 4250 2034 4250 
Q 1625 4250 1398 4047 
Q 1172 3844 1172 3481 
z
" transform="scale(0.015625)"/>
       </defs>
       <use xlink:href="#DejaVuSans-20"/>
       <use xlink:href="#DejaVuSans-38" x="31.787109"/>
      </g>
     </g>
    </g>
    <g id="ytick_12">
     <g id="line2d_17">
      <g>
       <use xlink:href="#mdaa6b6893a" x="44.66" y="128.81231" style="stroke: #000000; stroke-width: 0.8"/>
      </g>
     </g>
     <g id="text_18">
      <!--  9 -->
      <g transform="translate(28.119375 132.611529) scale(0.1 -0.1)">
       <defs>
        <path id="DejaVuSans-39" d="M 703 97 
L 703 672 
Q 941 559 1184 500 
Q 1428 441 1663 441 
Q 2288 441 2617 861 
Q 2947 1281 2994 2138 
Q 2813 1869 2534 1725 
Q 2256 1581 1919 1581 
Q 1219 1581 811 2004 
Q 403 2428 403 3163 
Q 403 3881 828 4315 
Q 1253 4750 1959 4750 
Q 2769 4750 3195 4129 
Q 3622 3509 3622 2328 
Q 3622 1225 3098 567 
Q 2575 -91 1691 -91 
Q 1453 -91 1209 -44 
Q 966 3 703 97 
z
M 1959 2075 
Q 2384 2075 2632 2365 
Q 2881 2656 2881 3163 
Q 2881 3666 2632 3958 
Q 2384 4250 1959 4250 
Q 1534 4250 1286 3958 
Q 1038 3666 1038 3163 
Q 1038 2656 1286 2365 
Q 1534 2075 1959 2075 
z
" transform="scale(0.015625)"/>
       </defs>
       <use xlink:href="#DejaVuSans-20"/>
       <use xlink:href="#DejaVuSans-39" x="31.787109"/>
      </g>
     </g>
    </g>
    <g id="ytick_13">
     <g id="line2d_18">
      <g>
       <use xlink:href="#mdaa6b6893a" x="44.66" y="78.88252" style="stroke: #000000; stroke-width: 0.8"/>
      </g>
     </g>
     <g id="text_19">
      <!-- 10 -->
      <g transform="translate(24.935 82.681739) scale(0.1 -0.1)">
       <use xlink:href="#DejaVuSans-31"/>
       <use xlink:href="#DejaVuSans-30" x="63.623047"/>
      </g>
     </g>
    </g>
    <g id="ytick_14">
     <g id="line2d_19">
      <g>
       <use xlink:href="#mdaa6b6893a" x="44.66" y="28.95273" style="stroke: #000000; stroke-width: 0.8"/>
      </g>
     </g>
     <g id="text_20">
      <!-- 11 -->
      <g transform="translate(24.935 32.751949) scale(0.1 -0.1)">
       <use xlink:href="#DejaVuSans-31"/>
       <use xlink:href="#DejaVuSans-31" x="63.623047"/>
      </g>
     </g>
    </g>
    <g id="text_21">
     <!-- MB -->
     <g transform="translate(18.855313 360.204531) rotate(-90) scale(0.1 -0.1)">
      <defs>
       <path id="DejaVuSans-4d" d="M 628 4666 
L 1569 4666 
L 2759 1491 
L 3956 4666 
L 4897 4666 
L 4897 0 
L 4281 0 
L 4281 4097 
L 3078 897 
L 2444 897 
L 1241 4097 
L 1241 0 
L 628 0 
L 628 4666 
z
" transform="scale(0.015625)"/>
       <path id="DejaVuSans-42" d="M 1259 2228 
L 1259 519 
L 2272 519 
Q 2781 519 3026 730 
Q 3272 941 3272 1375 
Q 3272 1813 3026 2020 
Q 2781 2228 2272 2228 
L 1259 2228 
z
M 1259 4147 
L 1259 2741 
L 2194 2741 
Q 2656 2741 2882 2914 
Q 3109 3088 3109 3444 
Q 3109 3797 2882 3972 
Q 2656 4147 2194 4147 
L 1259 4147 
z
M 628 4666 
L 2241 4666 
Q 2963 4666 3353 4366 
Q 3744 4066 3744 3513 
Q 3744 3084 3544 2831 
Q 3344 2578 2956 2516 
Q 3422 2416 3680 2098 
Q 3938 1781 3938 1306 
Q 3938 681 3513 340 
Q 3088 0 2303 0 
L 628 0 
L 628 4666 
z
" transform="scale(0.015625)"/>
      </defs>
      <use xlink:href="#DejaVuSans-4d"/>
      <use xlink:href="#DejaVuSans-42" x="86.279297"/>
     </g>
    </g>
   </g>
   <g id="line2d_20">
    <path d="M 44.66 578.18731 
L 66.99129 578.320823 
L 83.739758 578.629588 
L 106.071048 579.440498 
L 122.819516 580.231985 
L 139.567984 581.433396 
L 150.733629 582.389302 
L 167.482097 584.225769 
L 178.647742 585.679325 
L 200.979032 588.864047 
L 228.893145 593.13614 
L 240.05879 595.208825 
L 251.224435 597.636062 
L 262.390081 600.405318 
L 273.555726 603.357517 
L 284.721371 606.510483 
L 290.304194 608.226121 
L 295.887016 610.083958 
L 301.469839 612.163035 
L 307.052661 614.371329 
L 312.635484 616.78843 
L 323.801129 622.043541 
L 334.966774 627.586796 
L 340.549597 630.502196 
L 346.132419 633.657859 
L 357.298065 641.459988 
L 362.880887 646.368735 
L 385.212177 645.969647 
L 413.12629 645.146005 
L 429.874758 644.502909 
L 441.040403 643.962169 
L 463.371694 642.612218 
L 485.702984 640.972473 
L 502.451452 639.509581 
L 524.782742 637.321557 
L 547.114032 634.847586 
L 563.8625 632.809552 
L 586.19379 629.848116 
L 602.942258 627.38493 
L 619.690726 624.73915 
L 642.022016 620.705273 
L 664.353306 616.471177 
L 686.684597 611.975099 
L 709.015887 607.218787 
L 725.764355 603.335847 
L 748.095645 597.953216 
L 770.426935 592.224472 
L 792.758226 586.295659 
L 826.255161 576.959038 
L 843.003629 572.161733 
L 870.917742 563.776674 
L 893.249032 556.900843 
L 921.163145 547.987826 
L 949.077258 538.742676 
L 971.408548 531.107513 
L 993.739839 523.323608 
L 1016.071129 515.25101 
L 1038.402419 506.896907 
L 1060.73371 498.300695 
L 1077.482177 491.5058 
L 1094.230645 484.310717 
L 1110.979113 476.963649 
L 1127.727581 469.350204 
L 1144.476048 461.31735 
L 1155.641694 455.71353 
L 1183.555806 441.306389 
L 1200.304274 432.500671 
L 1222.635565 420.496401 
L 1233.80121 414.132101 
L 1250.549677 404.345612 
L 1272.880968 391.003324 
L 1289.629435 380.376417 
L 1311.960726 366.009669 
L 1323.126371 358.590103 
L 1339.874839 347.017925 
L 1356.623306 334.616164 
L 1367.788952 325.973767 
L 1373.371774 321.266536 
L 1384.537419 311.4783 
L 1390.120242 306.45067 
L 1401.285887 295.360165 
L 1406.86871 289.071608 
L 1412.451532 282.614987 
L 1418.034355 275.734262 
L 1423.617177 267.623318 
L 1423.617177 267.623318 
" clip-path="url(#p0ae0fae3ef)" style="fill: none; stroke: #1f77b4; stroke-width: 1.5; stroke-linecap: square"/>
   </g>
   <g id="line2d_21">
    <path d="M 44.66 578.167039 
L 66.99129 578.196897 
L 83.739758 578.489436 
L 106.071048 579.232341 
L 122.819516 579.950231 
L 133.985161 580.688144 
L 150.733629 582.018074 
L 161.899274 583.149782 
L 173.064919 584.434126 
L 200.979032 588.311774 
L 228.893145 592.470226 
L 240.05879 594.496027 
L 251.224435 596.861301 
L 262.390081 599.563102 
L 273.555726 602.480899 
L 284.721371 605.601012 
L 290.304194 607.308461 
L 295.887016 609.159508 
L 301.469839 611.214518 
L 307.052661 613.404539 
L 312.635484 615.784043 
L 323.801129 621.012141 
L 334.966774 626.522642 
L 340.549597 629.420867 
L 346.132419 632.569739 
L 357.298065 640.341311 
L 362.880887 645.229188 
L 379.629355 644.905493 
L 407.543468 644.000765 
L 429.874758 643.076415 
L 441.040403 642.519598 
L 463.371694 641.091756 
L 485.702984 639.371625 
L 508.034274 637.273725 
L 524.782742 635.547801 
L 541.53121 633.633843 
L 563.8625 630.856099 
L 591.776613 626.998523 
L 614.107903 623.490806 
L 625.273548 621.561119 
L 647.604839 617.39348 
L 669.936129 612.996013 
L 686.684597 609.526442 
L 709.015887 604.669721 
L 725.764355 600.690916 
L 753.678468 593.74768 
L 776.009758 587.85916 
L 798.341048 581.794838 
L 831.837984 572.265188 
L 854.169274 565.604404 
L 882.083387 557.012086 
L 904.414677 549.925102 
L 932.32879 540.787251 
L 960.242903 531.295199 
L 993.739839 519.522304 
L 1016.071129 511.329924 
L 1038.402419 502.868721 
L 1060.73371 494.184383 
L 1077.482177 487.319986 
L 1094.230645 480.053404 
L 1116.561935 470.078181 
L 1127.727581 464.929621 
L 1144.476048 456.814232 
L 1155.641694 451.159134 
L 1183.555806 436.614237 
L 1200.304274 427.736371 
L 1222.635565 415.627748 
L 1239.384032 405.955848 
L 1256.1325 396.01223 
L 1272.880968 385.931206 
L 1289.629435 375.2326 
L 1311.960726 360.776478 
L 1323.126371 353.302488 
L 1339.874839 341.657463 
L 1356.623306 329.186599 
L 1367.788952 320.49532 
L 1373.371774 315.762476 
L 1390.120242 300.873762 
L 1401.285887 289.733127 
L 1412.451532 276.937321 
L 1418.034355 270.03967 
L 1423.617177 261.906906 
L 1423.617177 261.906906 
" clip-path="url(#p0ae0fae3ef)" style="fill: none; stroke: #ff7f0e; stroke-width: 1.5; stroke-linecap: square"/>
   </g>
   <g id="line2d_22">
    <path d="M 44.66 578.1236 
L 61.408468 578.042414 
L 72.574113 578.13044 
L 83.739758 577.012213 
L 89.322581 577.169092 
L 94.905403 576.791074 
L 117.236694 577.549757 
L 139.567984 578.623896 
L 150.733629 579.523981 
L 167.482097 581.158183 
L 173.064919 581.805772 
L 178.647742 581.82854 
L 184.230565 582.535196 
L 189.813387 582.6752 
L 195.39621 582.58947 
L 200.979032 582.661119 
L 206.561855 583.450509 
L 212.144677 583.657219 
L 228.893145 586.142574 
L 240.05879 588.144109 
L 251.224435 590.502743 
L 262.390081 593.112972 
L 267.972903 594.079413 
L 273.555726 595.574211 
L 279.138548 596.810623 
L 284.721371 598.392149 
L 290.304194 598.930741 
L 295.887016 600.287683 
L 301.469839 602.298755 
L 307.052661 604.447484 
L 312.635484 606.792536 
L 323.801129 610.654656 
L 329.383952 613.330293 
L 346.132419 620.717805 
L 351.715242 623.937178 
L 357.298065 627.353474 
L 362.880887 631.540536 
L 379.629355 631.186334 
L 418.709113 629.642505 
L 435.457581 628.797394 
L 441.040403 627.880333 
L 468.954516 625.921438 
L 480.120161 625.007723 
L 513.617097 621.755546 
L 519.199919 621.190041 
L 563.8625 615.634253 
L 580.610968 613.263437 
L 597.359435 610.759908 
L 619.690726 607.107943 
L 636.439194 603.990277 
L 642.022016 602.620104 
L 669.936129 597.109802 
L 692.267419 592.375959 
L 714.59871 587.320418 
L 725.764355 584.550413 
L 742.512823 580.322408 
L 759.26129 576.01167 
L 798.341048 565.40134 
L 820.672339 558.99395 
L 843.003629 552.376555 
L 870.917742 543.781491 
L 932.32879 523.749959 
L 976.991371 508.291596 
L 993.739839 502.31495 
L 1010.488306 496.160854 
L 1016.071129 493.714993 
L 1038.402419 485.186086 
L 1055.150887 478.656718 
L 1066.316532 474.173622 
L 1083.065 467.165726 
L 1099.813468 459.77387 
L 1116.561935 452.223537 
L 1127.727581 447.055605 
L 1144.476048 438.922741 
L 1155.641694 433.215916 
L 1172.390161 424.385033 
L 1200.304274 409.590237 
L 1217.052742 400.516796 
L 1228.218387 394.231335 
L 1244.966855 384.39232 
L 1267.298145 370.998155 
L 1278.46379 364.071644 
L 1311.960726 342.344247 
L 1323.126371 334.840199 
L 1339.874839 323.153333 
L 1356.623306 310.665193 
L 1367.788952 301.959285 
L 1373.371774 297.225592 
L 1384.537419 287.379088 
L 1390.120242 282.308717 
L 1401.285887 271.160943 
L 1412.451532 258.352055 
L 1418.034355 251.454254 
L 1423.617177 243.320991 
L 1423.617177 243.320991 
" clip-path="url(#p0ae0fae3ef)" style="fill: none; stroke: #2ca02c; stroke-width: 1.5; stroke-linecap: square"/>
   </g>
   <g id="line2d_23">
    <path d="M 44.66 578.1236 
L 61.408468 578.042414 
L 66.99129 575.704601 
L 72.574113 575.331975 
L 83.739758 574.197571 
L 89.322581 574.35445 
L 94.905403 573.976432 
L 106.071048 574.313008 
L 111.653871 573.824595 
L 117.236694 573.464651 
L 122.819516 573.720791 
L 128.402339 573.264133 
L 133.985161 573.367238 
L 139.567984 573.212855 
L 150.733629 574.11294 
L 161.899274 575.1724 
L 167.482097 575.178491 
L 173.064919 575.826081 
L 178.647742 575.848849 
L 184.230565 573.594169 
L 189.813387 573.734172 
L 195.39621 573.60101 
L 200.979032 573.672659 
L 206.561855 574.423104 
L 212.144677 574.629813 
L 217.7275 574.471835 
L 228.893145 576.129154 
L 234.475968 577.082214 
L 240.05879 575.870518 
L 245.641613 576.994488 
L 251.224435 576.4166 
L 262.390081 578.87709 
L 267.972903 579.785962 
L 273.555726 579.060183 
L 279.138548 580.296594 
L 284.721371 579.461219 
L 290.304194 579.442346 
L 295.887016 580.799287 
L 301.469839 580.202726 
L 307.052661 580.054734 
L 312.635484 582.399787 
L 323.801129 585.947398 
L 329.383952 584.904016 
L 334.966774 587.350775 
L 340.549597 589.634314 
L 346.132419 592.134948 
L 357.298065 598.224684 
L 362.880887 602.411747 
L 374.046532 602.200693 
L 379.629355 601.815285 
L 390.795 601.422238 
L 396.377823 599.734911 
L 424.291935 598.493906 
L 435.457581 597.942881 
L 441.040403 597.02582 
L 468.954516 595.066925 
L 480.120161 594.15321 
L 508.034274 591.442871 
L 519.199919 590.312211 
L 524.782742 589.556074 
L 530.365565 588.923014 
L 535.948387 588.075706 
L 569.445323 583.752285 
L 575.028145 582.886902 
L 580.610968 581.7152 
L 597.359435 579.21167 
L 608.525081 577.434819 
L 614.107903 576.33831 
L 625.273548 574.360591 
L 636.439194 572.279618 
L 642.022016 570.909444 
L 653.187661 568.737948 
L 658.770484 567.528199 
L 664.353306 565.844067 
L 675.518952 563.548745 
L 681.101774 561.965271 
L 697.850242 558.317351 
L 714.59871 554.504463 
L 725.764355 551.734458 
L 736.93 548.87398 
L 742.512823 547.268388 
L 753.678468 544.412404 
L 770.426935 539.865647 
L 798.341048 532.253751 
L 803.923871 530.516394 
L 831.837984 522.462519 
L 876.500565 508.665071 
L 893.249032 503.315044 
L 898.831855 501.520467 
L 904.414677 499.41338 
L 926.745968 492.039349 
L 932.32879 489.989282 
L 971.408548 476.460856 
L 993.739839 468.523317 
L 1010.488306 462.369221 
L 1021.653952 457.472057 
L 1043.985242 448.897215 
L 1060.73371 442.316668 
L 1077.482177 435.422013 
L 1094.230645 428.125673 
L 1116.561935 418.085591 
L 1122.144758 415.52674 
L 1138.893226 407.400916 
L 1144.476048 403.535551 
L 1155.641694 397.828726 
L 1172.390161 388.997844 
L 1189.138629 380.155478 
L 1194.721452 376.917631 
L 1217.052742 364.841961 
L 1228.218387 358.5565 
L 1244.966855 348.700159 
L 1267.298145 335.305994 
L 1272.880968 331.904327 
L 1278.46379 327.819871 
L 1311.960726 306.092473 
L 1323.126371 298.588425 
L 1339.874839 286.901559 
L 1356.623306 274.41342 
L 1367.788952 265.707512 
L 1373.371774 260.973818 
L 1384.537419 251.127314 
L 1390.120242 246.056944 
L 1401.285887 234.90917 
L 1412.451532 222.100281 
L 1418.034355 215.202481 
L 1423.617177 206.422976 
L 1423.617177 206.422976 
" clip-path="url(#p0ae0fae3ef)" style="fill: none; stroke: #d62728; stroke-width: 1.5; stroke-linecap: square"/>
   </g>
   <g id="line2d_24">
    <path d="M 44.66 577.443406 
L 50.242823 576.441965 
L 55.825645 575.800467 
L 61.408468 574.893392 
L 66.99129 572.12124 
L 83.739758 569.461131 
L 89.322581 569.087307 
L 106.071048 567.610134 
L 117.236694 565.569503 
L 122.819516 565.015532 
L 128.402339 564.116097 
L 139.567984 563.143515 
L 145.150806 562.927868 
L 150.733629 563.27503 
L 161.899274 562.451637 
L 167.482097 561.803299 
L 173.064919 561.398818 
L 178.647742 560.658459 
L 184.230565 557.867484 
L 189.813387 557.487817 
L 195.39621 556.821854 
L 200.979032 556.336287 
L 206.561855 556.442138 
L 212.144677 555.882874 
L 217.7275 554.969559 
L 223.310323 555.368747 
L 228.893145 556.211912 
L 234.475968 556.340231 
L 240.05879 554.666385 
L 245.641613 555.45188 
L 251.224435 554.455731 
L 256.807258 554.663988 
L 262.390081 555.006357 
L 267.972903 555.006157 
L 273.555726 553.956184 
L 279.138548 554.214021 
L 284.721371 553.074523 
L 290.304194 552.171743 
L 295.887016 552.28049 
L 301.469839 551.036589 
L 307.052661 550.626066 
L 312.635484 551.974071 
L 323.801129 551.966232 
L 329.383952 550.412666 
L 334.966774 551.311952 
L 340.549597 551.651774 
L 346.132419 552.17399 
L 351.715242 553.141379 
L 357.298065 553.834455 
L 362.880887 554.943645 
L 368.46371 554.183963 
L 374.046532 553.585705 
L 379.629355 552.596895 
L 385.212177 551.373915 
L 390.795 550.644241 
L 396.377823 548.405539 
L 418.709113 544.474766 
L 424.291935 543.707545 
L 441.040403 540.802929 
L 446.623226 539.645906 
L 452.206048 538.845432 
L 457.788871 538.475802 
L 463.371694 537.342445 
L 468.954516 536.602586 
L 491.285806 531.743668 
L 496.868629 530.911738 
L 502.451452 529.66584 
L 508.034274 528.271651 
L 513.617097 527.277998 
L 519.199919 526.599302 
L 530.365565 524.079246 
L 535.948387 522.894612 
L 547.114032 520.022051 
L 552.696855 518.845256 
L 569.445323 515.003857 
L 575.028145 513.411646 
L 586.19379 510.735559 
L 591.776613 509.235668 
L 597.359435 508.07515 
L 602.942258 506.376988 
L 608.525081 505.040118 
L 625.273548 500.309171 
L 630.856371 498.458773 
L 636.439194 497.419434 
L 642.022016 495.617119 
L 647.604839 493.943272 
L 658.770484 490.227997 
L 664.353306 488.052606 
L 669.936129 486.43508 
L 675.518952 484.351061 
L 681.101774 482.388071 
L 686.684597 480.583708 
L 692.267419 478.922244 
L 703.433065 474.828601 
L 709.015887 473.111965 
L 714.59871 470.963636 
L 720.181532 469.199317 
L 725.764355 467.277968 
L 742.512823 460.52791 
L 748.095645 458.806381 
L 770.426935 450.424168 
L 781.592581 446.007428 
L 787.175403 444.004944 
L 792.758226 442.135573 
L 798.341048 440.474658 
L 815.089516 433.388922 
L 820.672339 431.309846 
L 843.003629 421.385102 
L 848.586452 419.20317 
L 854.169274 416.732993 
L 859.752097 414.53808 
L 865.334919 412.810259 
L 887.66621 403.214453 
L 898.831855 398.506024 
L 904.414677 395.985768 
L 909.9975 393.249266 
L 926.745968 385.894158 
L 937.911613 380.913412 
L 949.077258 376.135081 
L 960.242903 371.140804 
L 965.825726 368.872993 
L 982.574194 361.434752 
L 993.739839 356.283146 
L 999.322661 353.430358 
L 1010.488306 348.266919 
L 1016.071129 345.168476 
L 1027.236774 339.229427 
L 1049.568065 328.340339 
L 1055.150887 325.255876 
L 1060.73371 322.375876 
L 1066.316532 319.640622 
L 1071.899355 316.531894 
L 1083.065 311.5851 
L 1122.144758 289.429754 
L 1127.727581 285.885188 
L 1133.310403 282.675602 
L 1138.893226 279.297801 
L 1144.476048 275.262526 
L 1150.058871 271.906245 
L 1166.807339 261.093799 
L 1172.390161 257.448875 
L 1189.138629 247.016994 
L 1205.887097 236.260819 
L 1211.469919 232.942735 
L 1217.052742 229.900263 
L 1222.635565 226.150486 
L 1228.218387 222.604722 
L 1233.80121 219.362131 
L 1239.384032 215.424319 
L 1256.1325 204.184674 
L 1267.298145 196.404314 
L 1272.880968 192.355358 
L 1278.46379 187.898375 
L 1300.795081 171.867767 
L 1311.960726 163.507073 
L 1317.543548 158.969903 
L 1328.709194 150.66648 
L 1334.292016 146.336468 
L 1345.457661 137.159972 
L 1351.040484 132.838149 
L 1362.206129 123.591302 
L 1367.788952 118.70707 
L 1373.371774 113.592812 
L 1378.954597 108.676924 
L 1390.120242 97.495347 
L 1401.285887 85.678065 
L 1406.86871 78.915424 
L 1412.451532 72.420857 
L 1418.034355 65.15787 
L 1423.617177 56.379464 
L 1423.617177 56.379464 
" clip-path="url(#p0ae0fae3ef)" style="fill: none; stroke: #9467bd; stroke-width: 1.5; stroke-linecap: square"/>
   </g>
   <g id="line2d_25">
    <path d="M 44.66 578.18042 
L 1429.2 578.18042 
" clip-path="url(#p0ae0fae3ef)" style="fill: none; stroke: #000000; stroke-width: 0.5; stroke-linecap: square"/>
   </g>
   <g id="patch_3">
    <path d="M 44.66 678.04 
L 44.66 26.88 
" style="fill: none; stroke: #000000; stroke-width: 0.8; stroke-linejoin: miter; stroke-linecap: square"/>
   </g>
   <g id="patch_4">
    <path d="M 1429.2 678.04 
L 1429.2 26.88 
" style="fill: none; stroke: #000000; stroke-width: 0.8; stroke-linejoin: miter; stroke-linecap: square"/>
   </g>
   <g id="patch_5">
    <path d="M 44.66 678.04 
L 1429.2 678.04 
" style="fill: none; stroke: #000000; stroke-width: 0.8; stroke-linejoin: miter; stroke-linecap: square"/>
   </g>
   <g id="patch_6">
    <path d="M 44.66 26.88 
L 1429.2 26.88 
" style="fill: none; stroke: #000000; stroke-width: 0.8; stroke-linejoin: miter; stroke-linecap: square"/>
   </g>
   <g id="text_22">
    <!-- QB3 cummulative savings vs PNG, total PNG size is 90.43 MB, CID22 set -->
    <g transform="translate(519.431875 20.88) scale(0.12 -0.12)">
     <defs>
      <path id="DejaVuSans-51" d="M 2522 4238 
Q 1834 4238 1429 3725 
Q 1025 3213 1025 2328 
Q 1025 1447 1429 934 
Q 1834 422 2522 422 
Q 3209 422 3611 934 
Q 4013 1447 4013 2328 
Q 4013 3213 3611 3725 
Q 3209 4238 2522 4238 
z
M 3406 84 
L 4238 -825 
L 3475 -825 
L 2784 -78 
Q 2681 -84 2626 -87 
Q 2572 -91 2522 -91 
Q 1538 -91 948 567 
Q 359 1225 359 2328 
Q 359 3434 948 4092 
Q 1538 4750 2522 4750 
Q 3503 4750 4090 4092 
Q 4678 3434 4678 2328 
Q 4678 1516 4351 937 
Q 4025 359 3406 84 
z
" transform="scale(0.015625)"/>
      <path id="DejaVuSans-76" d="M 191 3500 
L 800 3500 
L 1894 563 
L 2988 3500 
L 3597 3500 
L 2284 0 
L 1503 0 
L 191 3500 
z
" transform="scale(0.015625)"/>
      <path id="DejaVuSans-50" d="M 1259 4147 
L 1259 2394 
L 2053 2394 
Q 2494 2394 2734 2622 
Q 2975 2850 2975 3272 
Q 2975 3691 2734 3919 
Q 2494 4147 2053 4147 
L 1259 4147 
z
M 628 4666 
L 2053 4666 
Q 2838 4666 3239 4311 
Q 3641 3956 3641 3272 
Q 3641 2581 3239 2228 
Q 2838 1875 2053 1875 
L 1259 1875 
L 1259 0 
L 628 0 
L 628 4666 
z
" transform="scale(0.015625)"/>
      <path id="DejaVuSans-4e" d="M 628 4666 
L 1478 4666 
L 3547 763 
L 3547 4666 
L 4159 4666 
L 4159 0 
L 3309 0 
L 1241 3903 
L 1241 0 
L 628 0 
L 628 4666 
z
" transform="scale(0.015625)"/>
      <path id="DejaVuSans-47" d="M 3809 666 
L 3809 1919 
L 2778 1919 
L 2778 2438 
L 4434 2438 
L 4434 434 
Q 4069 175 3628 42 
Q 3188 -91 2688 -91 
Q 1594 -91 976 548 
Q 359 1188 359 2328 
Q 359 3472 976 4111 
Q 1594 4750 2688 4750 
Q 3144 4750 3555 4637 
Q 3966 4525 4313 4306 
L 4313 3634 
Q 3963 3931 3569 4081 
Q 3175 4231 2741 4231 
Q 1884 4231 1454 3753 
Q 1025 3275 1025 2328 
Q 1025 1384 1454 906 
Q 1884 428 2741 428 
Q 3075 428 3337 486 
Q 3600 544 3809 666 
z
" transform="scale(0.015625)"/>
      <path id="DejaVuSans-7a" d="M 353 3500 
L 3084 3500 
L 3084 2975 
L 922 459 
L 3084 459 
L 3084 0 
L 275 0 
L 275 525 
L 2438 3041 
L 353 3041 
L 353 3500 
z
" transform="scale(0.015625)"/>
      <path id="DejaVuSans-2e" d="M 684 794 
L 1344 794 
L 1344 0 
L 684 0 
L 684 794 
z
" transform="scale(0.015625)"/>
      <path id="DejaVuSans-43" d="M 4122 4306 
L 4122 3641 
Q 3803 3938 3442 4084 
Q 3081 4231 2675 4231 
Q 1875 4231 1450 3742 
Q 1025 3253 1025 2328 
Q 1025 1406 1450 917 
Q 1875 428 2675 428 
Q 3081 428 3442 575 
Q 3803 722 4122 1019 
L 4122 359 
Q 3791 134 3420 21 
Q 3050 -91 2638 -91 
Q 1578 -91 968 557 
Q 359 1206 359 2328 
Q 359 3453 968 4101 
Q 1578 4750 2638 4750 
Q 3056 4750 3426 4639 
Q 3797 4528 4122 4306 
z
" transform="scale(0.015625)"/>
      <path id="DejaVuSans-49" d="M 628 4666 
L 1259 4666 
L 1259 0 
L 628 0 
L 628 4666 
z
" transform="scale(0.015625)"/>
      <path id="DejaVuSans-44" d="M 1259 4147 
L 1259 519 
L 2022 519 
Q 2988 519 3436 956 
Q 3884 1394 3884 2338 
Q 3884 3275 3436 3711 
Q 2988 4147 2022 4147 
L 1259 4147 
z
M 628 4666 
L 1925 4666 
Q 3281 4666 3915 4102 
Q 4550 3538 4550 2338 
Q 4550 1131 3912 565 
Q 3275 0 1925 0 
L 628 0 
L 628 4666 
z
" transform="scale(0.015625)"/>
     </defs>
     <use xlink:href="#DejaVuSans-51"/>
     <use xlink:href="#DejaVuSans-42" x="78.710938"/>
     <use xlink:href="#DejaVuSans-33" x="147.314453"/>
     <use xlink:href="#DejaVuSans-20" x="210.9375"/>
     <use xlink:href="#DejaVuSans-63" x="242.724609"/>
     <use xlink:href="#DejaVuSans-75" x="297.705078"/>
     <use xlink:href="#DejaVuSans-6d" x="361.083984"/>
     <use xlink:href="#DejaVuSans-6d" x="458.496094"/>
     <use xlink:href="#DejaVuSans-75" x="555.908203"/>
     <use xlink:href="#DejaVuSans-6c" x="619.287109"/>
     <use xlink:href="#DejaVuSans-61" x="647.070312"/>
     <use xlink:href="#DejaVuSans-74" x="708.349609"/>
     <use xlink:href="#DejaVuSans-69" x="747.558594"/>
     <use xlink:href="#DejaVuSans-76" x="775.341797"/>
     <use xlink:href="#DejaVuSans-65" x="834.521484"/>
     <use xlink:href="#DejaVuSans-20" x="896.044922"/>
     <use xlink:href="#DejaVuSans-73" x="927.832031"/>
     <use xlink:href="#DejaVuSans-61" x="979.931641"/>
     <use xlink:href="#DejaVuSans-76" x="1041.210938"/>
     <use xlink:href="#DejaVuSans-69" x="1100.390625"/>
     <use xlink:href="#DejaVuSans-6e" x="1128.173828"/>
     <use xlink:href="#DejaVuSans-67" x="1191.552734"/>
     <use xlink:href="#DejaVuSans-73" x="1255.029297"/>
     <use xlink:href="#DejaVuSans-20" x="1307.128906"/>
     <use xlink:href="#DejaVuSans-76" x="1338.916016"/>
     <use xlink:href="#DejaVuSans-73" x="1398.095703"/>
     <use xlink:href="#DejaVuSans-20" x="1450.195312"/>
     <use xlink:href="#DejaVuSans-50" x="1481.982422"/>
     <use xlink:href="#DejaVuSans-4e" x="1542.285156"/>
     <use xlink:href="#DejaVuSans-47" x="1617.089844"/>
     <use xlink:href="#DejaVuSans-2c" x="1694.580078"/>
     <use xlink:href="#DejaVuSans-20" x="1726.367188"/>
     <use xlink:href="#DejaVuSans-74" x="1758.154297"/>
     <use xlink:href="#DejaVuSans-6f" x="1797.363281"/>
     <use xlink:href="#DejaVuSans-74" x="1858.544922"/>
     <use xlink:href="#DejaVuSans-61" x="1897.753906"/>
     <use xlink:href="#DejaVuSans-6c" x="1959.033203"/>
     <use xlink:href="#DejaVuSans-20" x="1986.816406"/>
     <use xlink:href="#DejaVuSans-50" x="2018.603516"/>
     <use xlink:href="#DejaVuSans-4e" x="2078.90625"/>
     <use xlink:href="#DejaVuSans-47" x="2153.710938"/>
     <use xlink:href="#DejaVuSans-20" x="2231.201172"/>
     <use xlink:href="#DejaVuSans-73" x="2262.988281"/>
     <use xlink:href="#DejaVuSans-69" x="2315.087891"/>
     <use xlink:href="#DejaVuSans-7a" x="2342.871094"/>
     <use xlink:href="#DejaVuSans-65" x="2395.361328"/>
     <use xlink:href="#DejaVuSans-20" x="2456.884766"/>
     <use xlink:href="#DejaVuSans-69" x="2488.671875"/>
     <use xlink:href="#DejaVuSans-73" x="2516.455078"/>
     <use xlink:href="#DejaVuSans-20" x="2568.554688"/>
     <use xlink:href="#DejaVuSans-39" x="2600.341797"/>
     <use xlink:href="#DejaVuSans-30" x="2663.964844"/>
     <use xlink:href="#DejaVuSans-2e" x="2727.587891"/>
     <use xlink:href="#DejaVuSans-34" x="2759.375"/>
     <use xlink:href="#DejaVuSans-33" x="2822.998047"/>
     <use xlink:href="#DejaVuSans-20" x="2886.621094"/>
     <use xlink:href="#DejaVuSans-4d" x="2918.408203"/>
     <use xlink:href="#DejaVuSans-42" x="3004.6875"/>
     <use xlink:href="#DejaVuSans-2c" x="3073.291016"/>
     <use xlink:href="#DejaVuSans-20" x="3105.078125"/>
     <use xlink:href="#DejaVuSans-43" x="3136.865234"/>
     <use xlink:href="#DejaVuSans-49" x="3206.689453"/>
     <use xlink:href="#DejaVuSans-44" x="3236.181641"/>
     <use xlink:href="#DejaVuSans-32" x="3313.183594"/>
     <use xlink:href="#DejaVuSans-32" x="3376.806641"/>
     <use xlink:href="#DejaVuSans-20" x="3440.429688"/>
     <use xlink:href="#DejaVuSans-73" x="3472.216797"/>
     <use xlink:href="#DejaVuSans-65" x="3524.316406"/>
     <use xlink:href="#DejaVuSans-74" x="3585.839844"/>
    </g>
   </g>
   <g id="legend_1">
    <g id="patch_7">
     <path d="M 51.66 108.270625 
L 180.033438 108.270625 
Q 182.033438 108.270625 182.033438 106.270625 
L 182.033438 33.88 
Q 182.033438 31.88 180.033438 31.88 
L 51.66 31.88 
Q 49.66 31.88 49.66 33.88 
L 49.66 106.270625 
Q 49.66 108.270625 51.66 108.270625 
z
" style="fill: #ffffff; opacity: 0.8; stroke: #cccccc; stroke-linejoin: miter"/>
    </g>
    <g id="line2d_26">
     <path d="M 53.66 39.978438 
L 63.66 39.978438 
L 73.66 39.978438 
" style="fill: none; stroke: #1f77b4; stroke-width: 1.5; stroke-linecap: square"/>
    </g>
    <g id="text_23">
     <!-- QB3 Fast -->
     <g transform="translate(81.66 43.478438) scale(0.1 -0.1)">
      <use xlink:href="#DejaVuSans-51"/>
      <use xlink:href="#DejaVuSans-42" x="78.710938"/>
      <use xlink:href="#DejaVuSans-33" x="147.314453"/>
      <use xlink:href="#DejaVuSans-20" x="210.9375"/>
      <use xlink:href="#DejaVuSans-46" x="242.724609"/>
      <use xlink:href="#DejaVuSans-61" x="291.119141"/>
      <use xlink:href="#DejaVuSans-73" x="352.398438"/>
      <use xlink:href="#DejaVuSans-74" x="404.498047"/>
     </g>
    </g>
    <g id="line2d_27">
     <path d="M 53.66 54.656563 
L 63.66 54.656563 
L 73.66 54.656563 
" style="fill: none; stroke: #ff7f0e; stroke-width: 1.5; stroke-linecap: square"/>
    </g>
    <g id="text_24">
     <!-- QB3 Base -->
     <g transform="translate(81.66 58.156563) scale(0.1 -0.1)">
      <use xlink:href="#DejaVuSans-51"/>
      <use xlink:href="#DejaVuSans-42" x="78.710938"/>
      <use xlink:href="#DejaVuSans-33" x="147.314453"/>
      <use xlink:href="#DejaVuSans-20" x="210.9375"/>
      <use xlink:href="#DejaVuSans-42" x="242.724609"/>
      <use xlink:href="#DejaVuSans-61" x="311.328125"/>
      <use xlink:href="#DejaVuSans-73" x="372.607422"/>
      <use xlink:href="#DejaVuSans-65" x="424.707031"/>
     </g>
    </g>
    <g id="line2d_28">
     <path d="M 53.66 69.334688 
L 63.66 69.334688 
L 73.66 69.334688 
" style="fill: none; stroke: #2ca02c; stroke-width: 1.5; stroke-linecap: square"/>
    </g>
    <g id="text_25">
     <!-- QB3 Best -->
     <g transform="translate(81.66 72.834688) scale(0.1 -0.1)">
      <use xlink:href="#DejaVuSans-51"/>
      <use xlink:href="#DejaVuSans-42" x="78.710938"/>
      <use xlink:href="#DejaVuSans-33" x="147.314453"/>
      <use xlink:href="#DejaVuSans-20" x="210.9375"/>
      <use xlink:href="#DejaVuSans-42" x="242.724609"/>
      <use xlink:href="#DejaVuSans-65" x="311.328125"/>
      <use xlink:href="#DejaVuSans-73" x="372.851562"/>
      <use xlink:href="#DejaVuSans-74" x="424.951172"/>
     </g>
    </g>
    <g id="line2d_29">
     <path d="M 53.66 84.012812 
L 63.66 84.012812 
L 73.66 84.012812 
" style="fill: none; stroke: #d62728; stroke-width: 1.5; stroke-linecap: square"/>
    </g>
    <g id="text_26">
     <!-- QB3 Best band mix -->
     <g transform="translate(81.66 87.512812) scale(0.1 -0.1)">
      <defs>
       <path id="DejaVuSans-78" d="M 3513 3500 
L 2247 1797 
L 3578 0 
L 2900 0 
L 1881 1375 
L 863 0 
L 184 0 
L 1544 1831 
L 300 3500 
L 978 3500 
L 1906 2253 
L 2834 3500 
L 3513 3500 
z
" transform="scale(0.015625)"/>
      </defs>
      <use xlink:href="#DejaVuSans-51"/>
      <use xlink:href="#DejaVuSans-42" x="78.710938"/>
      <use xlink:href="#DejaVuSans-33" x="147.314453"/>
      <use xlink:href="#DejaVuSans-20" x="210.9375"/>
      <use xlink:href="#DejaVuSans-42" x="242.724609"/>
      <use xlink:href="#DejaVuSans-65" x="311.328125"/>
      <use xlink:href="#DejaVuSans-73" x="372.851562"/>
      <use xlink:href="#DejaVuSans-74" x="424.951172"/>
      <use xlink:href="#DejaVuSans-20" x="464.160156"/>
      <use xlink:href="#DejaVuSans-62" x="495.947266"/>
      <use xlink:href="#DejaVuSans-61" x="559.423828"/>
      <use xlink:href="#DejaVuSans-6e" x="620.703125"/>
      <use xlink:href="#DejaVuSans-64" x="684.082031"/>
      <use xlink:href="#DejaVuSans-20" x="747.558594"/>
      <use xlink:href="#DejaVuSans-6d" x="779.345703"/>
      <use xlink:href="#DejaVuSans-69" x="876.757812"/>
      <use xlink:href="#DejaVuSans-78" x="904.541016"/>
     </g>
    </g>
    <g id="line2d_30">
     <path d="M 53.66 98.690938 
L 63.66 98.690938 
L 73.66 98.690938 
" style="fill: none; stroke: #9467bd; stroke-width: 1.5; stroke-linecap: square"/>
    </g>
    <g id="text_27">
     <!-- QB3 + Zstd -->
     <g transform="translate(81.66 102.190938) scale(0.1 -0.1)">
      <defs>
       <path id="DejaVuSans-2b" d="M 2944 4013 
L 2944 2272 
L 4684 2272 
L 4684 1741 
L 2944 1741 
L 2944 0 
L 2419 0 
L 2419 1741 
L 678 1741 
L 678 2272 
L 2419 2272 
L 2419 4013 
L 2944 4013 
z
" transform="scale(0.015625)"/>
       <path id="DejaVuSans-5a" d="M 359 4666 
L 4025 4666 
L 4025 4184 
L 1075 531 
L 4097 531 
L 4097 0 
L 288 0 
L 288 481 
L 3238 4134 
L 359 4134 
L 359 4666 
z
" transform="scale(0.015625)"/>
      </defs>
      <use xlink:href="#DejaVuSans-51"/>
      <use xlink:href="#DejaVuSans-42" x="78.710938"/>
      <use xlink:href="#DejaVuSans-33" x="147.314453"/>
      <use xlink:href="#DejaVuSans-20" x="210.9375"/>
      <use xlink:href="#DejaVuSans-2b" x="242.724609"/>
      <use xlink:href="#DejaVuSans-20" x="326.513672"/>
      <use xlink:href="#DejaVuSans-5a" x="358.300781"/>
      <use xlink:href="#DejaVuSans-73" x="426.806641"/>
      <use xlink:href="#DejaVuSans-74" x="478.90625"/>
      <use xlink:href="#DejaVuSans-64" x="518.115234"/>
     </g>
    </g>
   </g>
  </g>
 </g>
 <defs>
  <clipPath id="p0ae0fae3ef">
   <rect x="44.66" y="26.88" width="1384.54" height="651.16"/>
  </clipPath>
 </defs>
</svg>
