<?xml version="1.0" encoding="utf-8" standalone="no"?>
<!DOCTYPE svg PUBLIC "-//W3C//DTD SVG 1.1//EN"
  "http://www.w3.org/Graphics/SVG/1.1/DTD/svg11.dtd">
<svg xmlns:xlink="http://www.w3.org/1999/xlink" width="1152pt" height="576pt" viewBox="0 0 1152 576" xmlns="http://www.w3.org/2000/svg" version="1.1">
 <metadata>
  <rdf:RDF xmlns:dc="http://purl.org/dc/elements/1.1/" xmlns:cc="http://creativecommons.org/ns#" xmlns:rdf="http://www.w3.org/1999/02/22-rdf-syntax-ns#">
   <cc:Work>
    <dc:type rdf:resource="http://purl.org/dc/dcmitype/StillImage"/>
    <dc:date>2025-04-17T15:30:19.387712</dc:date>
    <dc:format>image/svg+xml</dc:format>
    <dc:creator>
     <cc:Agent>
      <dc:title>Matplotlib v3.9.0, https://matplotlib.org/</dc:title>
     </cc:Agent>
    </dc:creator>
   </cc:Work>
  </rdf:RDF>
 </metadata>
 <defs>
  <style type="text/css">*{stroke-linejoin: round; stroke-linecap: butt}</style>
 </defs>
 <g id="figure_1">
  <g id="patch_1">
   <path d="M 0 576 
L 1152 576 
L 1152 0 
L 0 0 
z
" style="fill: #ffffff"/>
  </g>
  <g id="axes_1">
   <g id="patch_2">
    <path d="M 54.02 534.04 
L 1141.2 534.04 
L 1141.2 26.88 
L 54.02 26.88 
z
" style="fill: #ffffff"/>
   </g>
   <g id="matplotlib.axis_1">
    <g id="xtick_1">
     <g id="line2d_1">
      <defs>
       <path id="ma614f6fd70" d="M 0 0 
L 0 3.5 
" style="stroke: #000000; stroke-width: 0.8"/>
      </defs>
      <g>
       <use xlink:href="#ma614f6fd70" x="103.437273" y="534.04" style="stroke: #000000; stroke-width: 0.8"/>
      </g>
     </g>
     <g id="text_1">
      <!-- 0 -->
      <g transform="translate(100.256023 548.638438) scale(0.1 -0.1)">
       <defs>
        <path id="DejaVuSans-30" d="M 2034 4250 
Q 1547 4250 1301 3770 
Q 1056 3291 1056 2328 
Q 1056 1369 1301 889 
Q 1547 409 2034 409 
Q 2525 409 2770 889 
Q 3016 1369 3016 2328 
Q 3016 3291 2770 3770 
Q 2525 4250 2034 4250 
z
M 2034 4750 
Q 2819 4750 3233 4129 
Q 3647 3509 3647 2328 
Q 3647 1150 3233 529 
Q 2819 -91 2034 -91 
Q 1250 -91 836 529 
Q 422 1150 422 2328 
Q 422 3509 836 4129 
Q 1250 4750 2034 4750 
z
" transform="scale(0.015625)"/>
       </defs>
       <use xlink:href="#DejaVuSans-30"/>
      </g>
     </g>
    </g>
    <g id="xtick_2">
     <g id="line2d_2">
      <g>
       <use xlink:href="#ma614f6fd70" x="303.507203" y="534.04" style="stroke: #000000; stroke-width: 0.8"/>
      </g>
     </g>
     <g id="text_2">
      <!-- 50 -->
      <g transform="translate(297.144703 548.638438) scale(0.1 -0.1)">
       <defs>
        <path id="DejaVuSans-35" d="M 691 4666 
L 3169 4666 
L 3169 4134 
L 1269 4134 
L 1269 2991 
Q 1406 3038 1543 3061 
Q 1681 3084 1819 3084 
Q 2600 3084 3056 2656 
Q 3513 2228 3513 1497 
Q 3513 744 3044 326 
Q 2575 -91 1722 -91 
Q 1428 -91 1123 -41 
Q 819 9 494 109 
L 494 744 
Q 775 591 1075 516 
Q 1375 441 1709 441 
Q 2250 441 2565 725 
Q 2881 1009 2881 1497 
Q 2881 1984 2565 2268 
Q 2250 2553 1709 2553 
Q 1456 2553 1204 2497 
Q 953 2441 691 2322 
L 691 4666 
z
" transform="scale(0.015625)"/>
       </defs>
       <use xlink:href="#DejaVuSans-35"/>
       <use xlink:href="#DejaVuSans-30" x="63.623047"/>
      </g>
     </g>
    </g>
    <g id="xtick_3">
     <g id="line2d_3">
      <g>
       <use xlink:href="#ma614f6fd70" x="503.577133" y="534.04" style="stroke: #000000; stroke-width: 0.8"/>
      </g>
     </g>
     <g id="text_3">
      <!-- 100 -->
      <g transform="translate(494.033383 548.638438) scale(0.1 -0.1)">
       <defs>
        <path id="DejaVuSans-31" d="M 794 531 
L 1825 531 
L 1825 4091 
L 703 3866 
L 703 4441 
L 1819 4666 
L 2450 4666 
L 2450 531 
L 3481 531 
L 3481 0 
L 794 0 
L 794 531 
z
" transform="scale(0.015625)"/>
       </defs>
       <use xlink:href="#DejaVuSans-31"/>
       <use xlink:href="#DejaVuSans-30" x="63.623047"/>
       <use xlink:href="#DejaVuSans-30" x="127.246094"/>
      </g>
     </g>
    </g>
    <g id="xtick_4">
     <g id="line2d_4">
      <g>
       <use xlink:href="#ma614f6fd70" x="703.647063" y="534.04" style="stroke: #000000; stroke-width: 0.8"/>
      </g>
     </g>
     <g id="text_4">
      <!-- 150 -->
      <g transform="translate(694.103313 548.638438) scale(0.1 -0.1)">
       <use xlink:href="#DejaVuSans-31"/>
       <use xlink:href="#DejaVuSans-35" x="63.623047"/>
       <use xlink:href="#DejaVuSans-30" x="127.246094"/>
      </g>
     </g>
    </g>
    <g id="xtick_5">
     <g id="line2d_5">
      <g>
       <use xlink:href="#ma614f6fd70" x="903.716993" y="534.04" style="stroke: #000000; stroke-width: 0.8"/>
      </g>
     </g>
     <g id="text_5">
      <!-- 200 -->
      <g transform="translate(894.173243 548.638438) scale(0.1 -0.1)">
       <defs>
        <path id="DejaVuSans-32" d="M 1228 531 
L 3431 531 
L 3431 0 
L 469 0 
L 469 531 
Q 828 903 1448 1529 
Q 2069 2156 2228 2338 
Q 2531 2678 2651 2914 
Q 2772 3150 2772 3378 
Q 2772 3750 2511 3984 
Q 2250 4219 1831 4219 
Q 1534 4219 1204 4116 
Q 875 4013 500 3803 
L 500 4441 
Q 881 4594 1212 4672 
Q 1544 4750 1819 4750 
Q 2544 4750 2975 4387 
Q 3406 4025 3406 3419 
Q 3406 3131 3298 2873 
Q 3191 2616 2906 2266 
Q 2828 2175 2409 1742 
Q 1991 1309 1228 531 
z
" transform="scale(0.015625)"/>
       </defs>
       <use xlink:href="#DejaVuSans-32"/>
       <use xlink:href="#DejaVuSans-30" x="63.623047"/>
       <use xlink:href="#DejaVuSans-30" x="127.246094"/>
      </g>
     </g>
    </g>
    <g id="xtick_6">
     <g id="line2d_6">
      <g>
       <use xlink:href="#ma614f6fd70" x="1103.786923" y="534.04" style="stroke: #000000; stroke-width: 0.8"/>
      </g>
     </g>
     <g id="text_6">
      <!-- 250 -->
      <g transform="translate(1094.243173 548.638438) scale(0.1 -0.1)">
       <use xlink:href="#DejaVuSans-32"/>
       <use xlink:href="#DejaVuSans-35" x="63.623047"/>
       <use xlink:href="#DejaVuSans-30" x="127.246094"/>
      </g>
     </g>
    </g>
    <g id="text_7">
     <!-- File number -->
     <g transform="translate(568.138906 562.316562) scale(0.1 -0.1)">
      <defs>
       <path id="DejaVuSans-46" d="M 628 4666 
L 3309 4666 
L 3309 4134 
L 1259 4134 
L 1259 2759 
L 3109 2759 
L 3109 2228 
L 1259 2228 
L 1259 0 
L 628 0 
L 628 4666 
z
" transform="scale(0.015625)"/>
       <path id="DejaVuSans-69" d="M 603 3500 
L 1178 3500 
L 1178 0 
L 603 0 
L 603 3500 
z
M 603 4863 
L 1178 4863 
L 1178 4134 
L 603 4134 
L 603 4863 
z
" transform="scale(0.015625)"/>
       <path id="DejaVuSans-6c" d="M 603 4863 
L 1178 4863 
L 1178 0 
L 603 0 
L 603 4863 
z
" transform="scale(0.015625)"/>
       <path id="DejaVuSans-65" d="M 3597 1894 
L 3597 1613 
L 953 1613 
Q 991 1019 1311 708 
Q 1631 397 2203 397 
Q 2534 397 2845 478 
Q 3156 559 3463 722 
L 3463 178 
Q 3153 47 2828 -22 
Q 2503 -91 2169 -91 
Q 1331 -91 842 396 
Q 353 884 353 1716 
Q 353 2575 817 3079 
Q 1281 3584 2069 3584 
Q 2775 3584 3186 3129 
Q 3597 2675 3597 1894 
z
M 3022 2063 
Q 3016 2534 2758 2815 
Q 2500 3097 2075 3097 
Q 1594 3097 1305 2825 
Q 1016 2553 972 2059 
L 3022 2063 
z
" transform="scale(0.015625)"/>
       <path id="DejaVuSans-20" transform="scale(0.015625)"/>
       <path id="DejaVuSans-6e" d="M 3513 2113 
L 3513 0 
L 2938 0 
L 2938 2094 
Q 2938 2591 2744 2837 
Q 2550 3084 2163 3084 
Q 1697 3084 1428 2787 
Q 1159 2491 1159 1978 
L 1159 0 
L 581 0 
L 581 3500 
L 1159 3500 
L 1159 2956 
Q 1366 3272 1645 3428 
Q 1925 3584 2291 3584 
Q 2894 3584 3203 3211 
Q 3513 2838 3513 2113 
z
" transform="scale(0.015625)"/>
       <path id="DejaVuSans-75" d="M 544 1381 
L 544 3500 
L 1119 3500 
L 1119 1403 
Q 1119 906 1312 657 
Q 1506 409 1894 409 
Q 2359 409 2629 706 
Q 2900 1003 2900 1516 
L 2900 3500 
L 3475 3500 
L 3475 0 
L 2900 0 
L 2900 538 
Q 2691 219 2414 64 
Q 2138 -91 1772 -91 
Q 1169 -91 856 284 
Q 544 659 544 1381 
z
M 1991 3584 
L 1991 3584 
z
" transform="scale(0.015625)"/>
       <path id="DejaVuSans-6d" d="M 3328 2828 
Q 3544 3216 3844 3400 
Q 4144 3584 4550 3584 
Q 5097 3584 5394 3201 
Q 5691 2819 5691 2113 
L 5691 0 
L 5113 0 
L 5113 2094 
Q 5113 2597 4934 2840 
Q 4756 3084 4391 3084 
Q 3944 3084 3684 2787 
Q 3425 2491 3425 1978 
L 3425 0 
L 2847 0 
L 2847 2094 
Q 2847 2600 2669 2842 
Q 2491 3084 2119 3084 
Q 1678 3084 1418 2786 
Q 1159 2488 1159 1978 
L 1159 0 
L 581 0 
L 581 3500 
L 1159 3500 
L 1159 2956 
Q 1356 3278 1631 3431 
Q 1906 3584 2284 3584 
Q 2666 3584 2933 3390 
Q 3200 3197 3328 2828 
z
" transform="scale(0.015625)"/>
       <path id="DejaVuSans-62" d="M 3116 1747 
Q 3116 2381 2855 2742 
Q 2594 3103 2138 3103 
Q 1681 3103 1420 2742 
Q 1159 2381 1159 1747 
Q 1159 1113 1420 752 
Q 1681 391 2138 391 
Q 2594 391 2855 752 
Q 3116 1113 3116 1747 
z
M 1159 2969 
Q 1341 3281 1617 3432 
Q 1894 3584 2278 3584 
Q 2916 3584 3314 3078 
Q 3713 2572 3713 1747 
Q 3713 922 3314 415 
Q 2916 -91 2278 -91 
Q 1894 -91 1617 61 
Q 1341 213 1159 525 
L 1159 0 
L 581 0 
L 581 4863 
L 1159 4863 
L 1159 2969 
z
" transform="scale(0.015625)"/>
       <path id="DejaVuSans-72" d="M 2631 2963 
Q 2534 3019 2420 3045 
Q 2306 3072 2169 3072 
Q 1681 3072 1420 2755 
Q 1159 2438 1159 1844 
L 1159 0 
L 581 0 
L 581 3500 
L 1159 3500 
L 1159 2956 
Q 1341 3275 1631 3429 
Q 1922 3584 2338 3584 
Q 2397 3584 2469 3576 
Q 2541 3569 2628 3553 
L 2631 2963 
z
" transform="scale(0.015625)"/>
      </defs>
      <use xlink:href="#DejaVuSans-46"/>
      <use xlink:href="#DejaVuSans-69" x="50.269531"/>
      <use xlink:href="#DejaVuSans-6c" x="78.052734"/>
      <use xlink:href="#DejaVuSans-65" x="105.835938"/>
      <use xlink:href="#DejaVuSans-20" x="167.359375"/>
      <use xlink:href="#DejaVuSans-6e" x="199.146484"/>
      <use xlink:href="#DejaVuSans-75" x="262.525391"/>
      <use xlink:href="#DejaVuSans-6d" x="325.904297"/>
      <use xlink:href="#DejaVuSans-62" x="423.316406"/>
      <use xlink:href="#DejaVuSans-65" x="486.792969"/>
      <use xlink:href="#DejaVuSans-72" x="548.316406"/>
     </g>
    </g>
   </g>
   <g id="matplotlib.axis_2">
    <g id="ytick_1">
     <g id="line2d_7">
      <defs>
       <path id="mb682be6bff" d="M 0 0 
L -3.5 0 
" style="stroke: #000000; stroke-width: 0.8"/>
      </defs>
      <g>
       <use xlink:href="#mb682be6bff" x="54.02" y="513.747387" style="stroke: #000000; stroke-width: 0.8"/>
      </g>
     </g>
     <g id="text_8">
      <!-- 0.00 -->
      <g transform="translate(24.754375 517.546606) scale(0.1 -0.1)">
       <defs>
        <path id="DejaVuSans-2e" d="M 684 794 
L 1344 794 
L 1344 0 
L 684 0 
L 684 794 
z
" transform="scale(0.015625)"/>
       </defs>
       <use xlink:href="#DejaVuSans-30"/>
       <use xlink:href="#DejaVuSans-2e" x="63.623047"/>
       <use xlink:href="#DejaVuSans-30" x="95.410156"/>
       <use xlink:href="#DejaVuSans-30" x="159.033203"/>
      </g>
     </g>
    </g>
    <g id="ytick_2">
     <g id="line2d_8">
      <g>
       <use xlink:href="#mb682be6bff" x="54.02" y="451.694453" style="stroke: #000000; stroke-width: 0.8"/>
      </g>
     </g>
     <g id="text_9">
      <!-- 0.02 -->
      <g transform="translate(24.754375 455.493671) scale(0.1 -0.1)">
       <use xlink:href="#DejaVuSans-30"/>
       <use xlink:href="#DejaVuSans-2e" x="63.623047"/>
       <use xlink:href="#DejaVuSans-30" x="95.410156"/>
       <use xlink:href="#DejaVuSans-32" x="159.033203"/>
      </g>
     </g>
    </g>
    <g id="ytick_3">
     <g id="line2d_9">
      <g>
       <use xlink:href="#mb682be6bff" x="54.02" y="389.641518" style="stroke: #000000; stroke-width: 0.8"/>
      </g>
     </g>
     <g id="text_10">
      <!-- 0.04 -->
      <g transform="translate(24.754375 393.440737) scale(0.1 -0.1)">
       <defs>
        <path id="DejaVuSans-34" d="M 2419 4116 
L 825 1625 
L 2419 1625 
L 2419 4116 
z
M 2253 4666 
L 3047 4666 
L 3047 1625 
L 3713 1625 
L 3713 1100 
L 3047 1100 
L 3047 0 
L 2419 0 
L 2419 1100 
L 313 1100 
L 313 1709 
L 2253 4666 
z
" transform="scale(0.015625)"/>
       </defs>
       <use xlink:href="#DejaVuSans-30"/>
       <use xlink:href="#DejaVuSans-2e" x="63.623047"/>
       <use xlink:href="#DejaVuSans-30" x="95.410156"/>
       <use xlink:href="#DejaVuSans-34" x="159.033203"/>
      </g>
     </g>
    </g>
    <g id="ytick_4">
     <g id="line2d_10">
      <g>
       <use xlink:href="#mb682be6bff" x="54.02" y="327.588583" style="stroke: #000000; stroke-width: 0.8"/>
      </g>
     </g>
     <g id="text_11">
      <!-- 0.06 -->
      <g transform="translate(24.754375 331.387802) scale(0.1 -0.1)">
       <defs>
        <path id="DejaVuSans-36" d="M 2113 2584 
Q 1688 2584 1439 2293 
Q 1191 2003 1191 1497 
Q 1191 994 1439 701 
Q 1688 409 2113 409 
Q 2538 409 2786 701 
Q 3034 994 3034 1497 
Q 3034 2003 2786 2293 
Q 2538 2584 2113 2584 
z
M 3366 4563 
L 3366 3988 
Q 3128 4100 2886 4159 
Q 2644 4219 2406 4219 
Q 1781 4219 1451 3797 
Q 1122 3375 1075 2522 
Q 1259 2794 1537 2939 
Q 1816 3084 2150 3084 
Q 2853 3084 3261 2657 
Q 3669 2231 3669 1497 
Q 3669 778 3244 343 
Q 2819 -91 2113 -91 
Q 1303 -91 875 529 
Q 447 1150 447 2328 
Q 447 3434 972 4092 
Q 1497 4750 2381 4750 
Q 2619 4750 2861 4703 
Q 3103 4656 3366 4563 
z
" transform="scale(0.015625)"/>
       </defs>
       <use xlink:href="#DejaVuSans-30"/>
       <use xlink:href="#DejaVuSans-2e" x="63.623047"/>
       <use xlink:href="#DejaVuSans-30" x="95.410156"/>
       <use xlink:href="#DejaVuSans-36" x="159.033203"/>
      </g>
     </g>
    </g>
    <g id="ytick_5">
     <g id="line2d_11">
      <g>
       <use xlink:href="#mb682be6bff" x="54.02" y="265.535649" style="stroke: #000000; stroke-width: 0.8"/>
      </g>
     </g>
     <g id="text_12">
      <!-- 0.08 -->
      <g transform="translate(24.754375 269.334867) scale(0.1 -0.1)">
       <defs>
        <path id="DejaVuSans-38" d="M 2034 2216 
Q 1584 2216 1326 1975 
Q 1069 1734 1069 1313 
Q 1069 891 1326 650 
Q 1584 409 2034 409 
Q 2484 409 2743 651 
Q 3003 894 3003 1313 
Q 3003 1734 2745 1975 
Q 2488 2216 2034 2216 
z
M 1403 2484 
Q 997 2584 770 2862 
Q 544 3141 544 3541 
Q 544 4100 942 4425 
Q 1341 4750 2034 4750 
Q 2731 4750 3128 4425 
Q 3525 4100 3525 3541 
Q 3525 3141 3298 2862 
Q 3072 2584 2669 2484 
Q 3125 2378 3379 2068 
Q 3634 1759 3634 1313 
Q 3634 634 3220 271 
Q 2806 -91 2034 -91 
Q 1263 -91 848 271 
Q 434 634 434 1313 
Q 434 1759 690 2068 
Q 947 2378 1403 2484 
z
M 1172 3481 
Q 1172 3119 1398 2916 
Q 1625 2713 2034 2713 
Q 2441 2713 2670 2916 
Q 2900 3119 2900 3481 
Q 2900 3844 2670 4047 
Q 2441 4250 2034 4250 
Q 1625 4250 1398 4047 
Q 1172 3844 1172 3481 
z
" transform="scale(0.015625)"/>
       </defs>
       <use xlink:href="#DejaVuSans-30"/>
       <use xlink:href="#DejaVuSans-2e" x="63.623047"/>
       <use xlink:href="#DejaVuSans-30" x="95.410156"/>
       <use xlink:href="#DejaVuSans-38" x="159.033203"/>
      </g>
     </g>
    </g>
    <g id="ytick_6">
     <g id="line2d_12">
      <g>
       <use xlink:href="#mb682be6bff" x="54.02" y="203.482714" style="stroke: #000000; stroke-width: 0.8"/>
      </g>
     </g>
     <g id="text_13">
      <!-- 0.10 -->
      <g transform="translate(24.754375 207.281933) scale(0.1 -0.1)">
       <use xlink:href="#DejaVuSans-30"/>
       <use xlink:href="#DejaVuSans-2e" x="63.623047"/>
       <use xlink:href="#DejaVuSans-31" x="95.410156"/>
       <use xlink:href="#DejaVuSans-30" x="159.033203"/>
      </g>
     </g>
    </g>
    <g id="ytick_7">
     <g id="line2d_13">
      <g>
       <use xlink:href="#mb682be6bff" x="54.02" y="141.429779" style="stroke: #000000; stroke-width: 0.8"/>
      </g>
     </g>
     <g id="text_14">
      <!-- 0.12 -->
      <g transform="translate(24.754375 145.228998) scale(0.1 -0.1)">
       <use xlink:href="#DejaVuSans-30"/>
       <use xlink:href="#DejaVuSans-2e" x="63.623047"/>
       <use xlink:href="#DejaVuSans-31" x="95.410156"/>
       <use xlink:href="#DejaVuSans-32" x="159.033203"/>
      </g>
     </g>
    </g>
    <g id="ytick_8">
     <g id="line2d_14">
      <g>
       <use xlink:href="#mb682be6bff" x="54.02" y="79.376845" style="stroke: #000000; stroke-width: 0.8"/>
      </g>
     </g>
     <g id="text_15">
      <!-- 0.14 -->
      <g transform="translate(24.754375 83.176064) scale(0.1 -0.1)">
       <use xlink:href="#DejaVuSans-30"/>
       <use xlink:href="#DejaVuSans-2e" x="63.623047"/>
       <use xlink:href="#DejaVuSans-31" x="95.410156"/>
       <use xlink:href="#DejaVuSans-34" x="159.033203"/>
      </g>
     </g>
    </g>
    <g id="text_16">
     <!-- Seconds -->
     <g transform="translate(18.674687 301.467031) rotate(-90) scale(0.1 -0.1)">
      <defs>
       <path id="DejaVuSans-53" d="M 3425 4513 
L 3425 3897 
Q 3066 4069 2747 4153 
Q 2428 4238 2131 4238 
Q 1616 4238 1336 4038 
Q 1056 3838 1056 3469 
Q 1056 3159 1242 3001 
Q 1428 2844 1947 2747 
L 2328 2669 
Q 3034 2534 3370 2195 
Q 3706 1856 3706 1288 
Q 3706 609 3251 259 
Q 2797 -91 1919 -91 
Q 1588 -91 1214 -16 
Q 841 59 441 206 
L 441 856 
Q 825 641 1194 531 
Q 1563 422 1919 422 
Q 2459 422 2753 634 
Q 3047 847 3047 1241 
Q 3047 1584 2836 1778 
Q 2625 1972 2144 2069 
L 1759 2144 
Q 1053 2284 737 2584 
Q 422 2884 422 3419 
Q 422 4038 858 4394 
Q 1294 4750 2059 4750 
Q 2388 4750 2728 4690 
Q 3069 4631 3425 4513 
z
" transform="scale(0.015625)"/>
       <path id="DejaVuSans-63" d="M 3122 3366 
L 3122 2828 
Q 2878 2963 2633 3030 
Q 2388 3097 2138 3097 
Q 1578 3097 1268 2742 
Q 959 2388 959 1747 
Q 959 1106 1268 751 
Q 1578 397 2138 397 
Q 2388 397 2633 464 
Q 2878 531 3122 666 
L 3122 134 
Q 2881 22 2623 -34 
Q 2366 -91 2075 -91 
Q 1284 -91 818 406 
Q 353 903 353 1747 
Q 353 2603 823 3093 
Q 1294 3584 2113 3584 
Q 2378 3584 2631 3529 
Q 2884 3475 3122 3366 
z
" transform="scale(0.015625)"/>
       <path id="DejaVuSans-6f" d="M 1959 3097 
Q 1497 3097 1228 2736 
Q 959 2375 959 1747 
Q 959 1119 1226 758 
Q 1494 397 1959 397 
Q 2419 397 2687 759 
Q 2956 1122 2956 1747 
Q 2956 2369 2687 2733 
Q 2419 3097 1959 3097 
z
M 1959 3584 
Q 2709 3584 3137 3096 
Q 3566 2609 3566 1747 
Q 3566 888 3137 398 
Q 2709 -91 1959 -91 
Q 1206 -91 779 398 
Q 353 888 353 1747 
Q 353 2609 779 3096 
Q 1206 3584 1959 3584 
z
" transform="scale(0.015625)"/>
       <path id="DejaVuSans-64" d="M 2906 2969 
L 2906 4863 
L 3481 4863 
L 3481 0 
L 2906 0 
L 2906 525 
Q 2725 213 2448 61 
Q 2172 -91 1784 -91 
Q 1150 -91 751 415 
Q 353 922 353 1747 
Q 353 2572 751 3078 
Q 1150 3584 1784 3584 
Q 2172 3584 2448 3432 
Q 2725 3281 2906 2969 
z
M 947 1747 
Q 947 1113 1208 752 
Q 1469 391 1925 391 
Q 2381 391 2643 752 
Q 2906 1113 2906 1747 
Q 2906 2381 2643 2742 
Q 2381 3103 1925 3103 
Q 1469 3103 1208 2742 
Q 947 2381 947 1747 
z
" transform="scale(0.015625)"/>
       <path id="DejaVuSans-73" d="M 2834 3397 
L 2834 2853 
Q 2591 2978 2328 3040 
Q 2066 3103 1784 3103 
Q 1356 3103 1142 2972 
Q 928 2841 928 2578 
Q 928 2378 1081 2264 
Q 1234 2150 1697 2047 
L 1894 2003 
Q 2506 1872 2764 1633 
Q 3022 1394 3022 966 
Q 3022 478 2636 193 
Q 2250 -91 1575 -91 
Q 1294 -91 989 -36 
Q 684 19 347 128 
L 347 722 
Q 666 556 975 473 
Q 1284 391 1588 391 
Q 1994 391 2212 530 
Q 2431 669 2431 922 
Q 2431 1156 2273 1281 
Q 2116 1406 1581 1522 
L 1381 1569 
Q 847 1681 609 1914 
Q 372 2147 372 2553 
Q 372 3047 722 3315 
Q 1072 3584 1716 3584 
Q 2034 3584 2315 3537 
Q 2597 3491 2834 3397 
z
" transform="scale(0.015625)"/>
      </defs>
      <use xlink:href="#DejaVuSans-53"/>
      <use xlink:href="#DejaVuSans-65" x="63.476562"/>
      <use xlink:href="#DejaVuSans-63" x="125"/>
      <use xlink:href="#DejaVuSans-6f" x="179.980469"/>
      <use xlink:href="#DejaVuSans-6e" x="241.162109"/>
      <use xlink:href="#DejaVuSans-64" x="304.541016"/>
      <use xlink:href="#DejaVuSans-73" x="368.017578"/>
     </g>
    </g>
   </g>
   <g id="line2d_15">
    <path d="M 103.437273 510.751782 
L 107.438671 510.921186 
L 111.44007 510.718894 
L 115.441469 510.987273 
L 119.442867 510.782808 
L 123.444266 510.133114 
L 127.445664 510.783429 
L 131.447063 509.714877 
L 135.448462 510.425694 
L 139.44986 509.710534 
L 143.451259 510.036622 
L 151.454056 509.78872 
L 155.455455 509.96433 
L 159.456853 509.486833 
L 163.458252 509.722944 
L 167.45965 509.757694 
L 171.461049 509.610628 
L 175.462448 509.09652 
L 179.463846 509.400269 
L 183.465245 509.988531 
L 187.466643 508.149592 
L 191.468042 508.868786 
L 195.469441 505.645446 
L 199.470839 507.152091 
L 203.472238 505.810196 
L 211.475035 505.927166 
L 215.476434 506.110843 
L 219.477832 505.859528 
L 223.479231 505.324942 
L 231.482028 507.554815 
L 235.483427 505.933992 
L 243.486224 505.80244 
L 247.487622 505.393201 
L 255.49042 506.865407 
L 259.491818 508.426038 
L 263.493217 506.393804 
L 267.494615 505.927787 
L 271.496014 505.745972 
L 275.497413 506.233708 
L 279.498811 506.488435 
L 283.50021 507.510757 
L 287.501608 505.959123 
L 291.503007 506.036069 
L 295.504406 508.063649 
L 299.505804 506.082299 
L 303.507203 506.408076 
L 307.508601 506.949488 
L 311.51 506.439413 
L 315.511399 506.211989 
L 319.512797 507.189323 
L 323.514196 506.009697 
L 327.515594 505.848359 
L 331.516993 507.433811 
L 335.518392 506.501156 
L 339.51979 506.51791 
L 343.521189 507.184979 
L 347.522587 505.810817 
L 351.523986 508.148041 
L 355.525385 506.863235 
L 359.526783 507.671164 
L 371.530979 506.71741 
L 375.532378 506.630536 
L 379.533776 508.330787 
L 387.536573 506.035759 
L 391.537972 506.375809 
L 395.539371 506.202371 
L 399.540769 506.244877 
L 403.542168 506.601061 
L 407.543566 506.795287 
L 411.544965 507.110516 
L 415.546364 506.725477 
L 419.547762 505.804922 
L 423.549161 506.724546 
L 427.550559 507.29109 
L 431.551958 506.386048 
L 435.553357 507.073284 
L 439.554755 507.916273 
L 443.556154 506.656598 
L 447.557552 506.195235 
L 451.558951 507.121995 
L 455.56035 506.312515 
L 459.561748 505.891796 
L 463.563147 506.274973 
L 467.564545 507.918755 
L 471.565944 507.180946 
L 475.567343 506.902018 
L 479.568741 506.793115 
L 483.57014 507.71336 
L 487.571538 505.996976 
L 491.572937 507.242688 
L 495.574336 506.583376 
L 503.577133 507.556056 
L 507.578531 506.88123 
L 511.57993 507.900449 
L 519.582727 506.571896 
L 523.584126 506.976792 
L 527.585524 507.543335 
L 531.586923 506.850824 
L 535.588322 507.333286 
L 539.58972 508.133148 
L 543.591119 507.879041 
L 547.592517 506.877507 
L 551.593916 507.059322 
L 555.595315 507.46701 
L 559.596713 506.404974 
L 563.598112 507.187772 
L 571.600909 508.074198 
L 575.602308 506.964071 
L 579.603706 507.30288 
L 583.605105 507.086005 
L 587.606503 506.058718 
L 591.607902 506.644498 
L 599.610699 507.426986 
L 603.612098 508.101501 
L 607.613497 506.777912 
L 611.614895 506.429795 
L 615.616294 508.011524 
L 619.617692 506.519151 
L 623.619091 506.715549 
L 627.62049 506.20175 
L 631.621888 506.663735 
L 639.624685 508.105224 
L 643.626084 506.677076 
L 647.627483 506.911015 
L 651.628881 506.785358 
L 655.63028 507.94761 
L 659.631678 507.274646 
L 663.633077 507.078248 
L 667.634476 506.062442 
L 671.635874 507.757728 
L 675.637273 507.181566 
L 679.638671 506.812351 
L 683.64007 507.381066 
L 687.641469 507.416747 
L 691.642867 507.234311 
L 699.645664 506.515428 
L 703.647063 507.258512 
L 707.648462 506.968725 
L 715.651259 507.659684 
L 719.652657 506.375188 
L 723.654056 506.722685 
L 727.655455 507.220349 
L 731.656853 506.651014 
L 735.658252 507.915963 
L 743.661049 506.620608 
L 747.662448 507.229347 
L 751.663846 506.587099 
L 755.665245 506.448721 
L 759.666643 507.413334 
L 763.668042 507.988565 
L 771.670839 506.295761 
L 775.672238 506.629295 
L 779.673636 507.086625 
L 783.675035 507.032949 
L 787.676434 507.112687 
L 791.677832 506.897364 
L 795.679231 507.717704 
L 799.680629 507.211972 
L 803.682028 506.450583 
L 807.683427 507.498967 
L 811.684825 506.979584 
L 815.686224 507.20918 
L 819.687622 506.456478 
L 823.689021 506.349436 
L 827.69042 506.819177 
L 831.691818 506.206094 
L 835.693217 506.052823 
L 839.694615 507.38541 
L 843.696014 507.204526 
L 847.697413 506.618436 
L 851.698811 506.351919 
L 855.70021 507.543025 
L 859.701608 507.192115 
L 863.703007 507.603216 
L 867.704406 507.102759 
L 871.705804 507.393477 
L 875.707203 507.104621 
L 883.71 507.718634 
L 887.711399 507.29171 
L 891.712797 506.747506 
L 895.714196 507.707465 
L 899.715594 507.215075 
L 903.716993 506.93925 
L 911.71979 507.429157 
L 915.721189 506.486573 
L 919.722587 507.650066 
L 923.723986 507.563192 
L 927.725385 507.179394 
L 931.726783 507.124478 
L 935.728182 507.254168 
L 939.72958 506.841826 
L 943.730979 506.991374 
L 947.732378 507.001613 
L 951.733776 507.815127 
L 955.735175 508.051238 
L 959.736573 506.502087 
L 963.737972 507.286746 
L 967.739371 507.38572 
L 971.740769 507.177223 
L 975.742168 506.4239 
L 979.743566 507.334527 
L 983.744965 507.46763 
L 987.746364 506.382945 
L 991.747762 507.072974 
L 995.749161 506.85796 
L 999.750559 507.383549 
L 1003.751958 507.568156 
L 1011.754755 507.249824 
L 1015.756154 506.812041 
L 1019.757552 507.789375 
L 1023.758951 506.964381 
L 1027.76035 507.910378 
L 1031.761748 507.624004 
L 1035.763147 506.684833 
L 1039.764545 507.933027 
L 1043.765944 507.534958 
L 1047.767343 507.289538 
L 1051.768741 506.926529 
L 1055.77014 507.222211 
L 1059.771538 507.283023 
L 1063.772937 507.556987 
L 1067.774336 507.415506 
L 1071.775734 507.401234 
L 1075.777133 507.768277 
L 1079.778531 507.154883 
L 1083.77993 507.560089 
L 1087.781329 507.05684 
L 1091.782727 507.449945 
L 1091.782727 507.449945 
" clip-path="url(#pcadfa09741)" style="fill: none; stroke: #1f77b4; stroke-width: 5; stroke-linecap: square"/>
   </g>
   <g id="line2d_16">
    <path d="M 103.437273 510.427245 
L 107.438671 510.613714 
L 111.44007 510.46882 
L 115.441469 510.661495 
L 119.442867 510.512258 
L 123.444266 509.702467 
L 127.445664 510.500778 
L 131.447063 509.586117 
L 135.448462 510.235812 
L 139.44986 509.102725 
L 143.451259 509.671751 
L 147.452657 509.555401 
L 151.454056 509.28485 
L 155.455455 509.552299 
L 159.456853 508.988858 
L 167.45965 509.3075 
L 171.461049 509.163537 
L 175.462448 508.519738 
L 179.463846 508.868165 
L 183.465245 509.58891 
L 187.466643 507.42016 
L 191.468042 508.282385 
L 195.469441 504.590856 
L 199.470839 506.334544 
L 203.472238 504.905154 
L 207.473636 504.711859 
L 211.475035 505.01716 
L 215.476434 505.18098 
L 219.477832 504.875679 
L 223.479231 504.385461 
L 227.480629 505.478834 
L 231.482028 506.687625 
L 235.483427 504.974964 
L 239.484825 504.863889 
L 243.486224 504.967518 
L 247.487622 504.369327 
L 251.489021 505.083246 
L 255.49042 506.023038 
L 259.491818 507.732596 
L 263.493217 505.43912 
L 267.494615 505.073008 
L 271.496014 504.059063 
L 275.497413 505.224106 
L 279.498811 505.667164 
L 283.50021 506.753711 
L 287.501608 504.879402 
L 291.503007 504.965966 
L 295.504406 507.239896 
L 299.505804 505.198354 
L 303.507203 505.417401 
L 307.508601 506.069267 
L 311.51 505.341697 
L 315.511399 505.12234 
L 319.512797 506.192442 
L 323.514196 504.955727 
L 327.515594 504.784772 
L 331.516993 506.602923 
L 335.518392 505.339215 
L 339.51979 505.620625 
L 343.521189 506.369914 
L 347.522587 504.920978 
L 351.523986 507.404957 
L 355.525385 505.97867 
L 359.526783 506.76426 
L 363.528182 506.463304 
L 367.52958 505.960364 
L 371.530979 505.694468 
L 375.532378 505.610386 
L 379.533776 507.724219 
L 383.535175 506.244567 
L 387.536573 505.06463 
L 391.537972 505.349453 
L 395.539371 505.1937 
L 399.540769 505.160502 
L 411.544965 506.211058 
L 415.546364 505.580601 
L 419.547762 504.752194 
L 423.549161 505.82602 
L 427.550559 506.302276 
L 431.551958 505.418642 
L 435.553357 506.102776 
L 439.554755 507.087556 
L 443.556154 505.449048 
L 447.557552 505.301362 
L 451.558951 506.046618 
L 455.56035 505.314393 
L 459.561748 504.758089 
L 463.563147 505.335802 
L 467.564545 507.035121 
L 471.565944 506.327408 
L 475.567343 505.92034 
L 479.568741 505.66251 
L 483.57014 506.831898 
L 487.571538 505.168569 
L 491.572937 506.258529 
L 495.574336 505.573154 
L 503.577133 506.656288 
L 507.578531 505.913825 
L 511.57993 507.065527 
L 515.581329 506.169173 
L 519.582727 505.61504 
L 523.584126 506.051893 
L 527.585524 506.88061 
L 531.586923 505.838741 
L 535.588322 506.429795 
L 539.58972 507.264717 
L 543.591119 507.107413 
L 547.592517 505.878765 
L 551.593916 506.063062 
L 555.595315 506.409628 
L 559.596713 505.548643 
L 563.598112 506.309723 
L 571.600909 507.134406 
L 575.602308 505.694778 
L 579.603706 506.385117 
L 583.605105 506.135044 
L 587.606503 505.489072 
L 591.607902 505.613799 
L 595.609301 506.159244 
L 599.610699 506.497433 
L 603.612098 507.293262 
L 607.613497 505.815781 
L 611.614895 505.266302 
L 615.616294 506.915669 
L 619.617692 505.772344 
L 623.619091 505.777929 
L 627.62049 505.247066 
L 635.623287 506.439413 
L 639.624685 507.081351 
L 643.626084 505.66251 
L 647.627483 505.938336 
L 651.628881 505.758072 
L 655.63028 507.093761 
L 659.631678 506.279937 
L 663.633077 506.387289 
L 667.634476 505.030191 
L 671.635874 506.936767 
L 675.637273 505.874111 
L 679.638671 505.754659 
L 683.64007 506.63519 
L 687.641469 506.499915 
L 699.645664 505.6501 
L 703.647063 506.338887 
L 707.648462 506.139077 
L 711.64986 506.371775 
L 715.651259 506.815454 
L 719.652657 505.347592 
L 723.654056 505.707809 
L 727.655455 506.309102 
L 731.656853 505.921581 
L 735.658252 507.114239 
L 743.661049 505.572534 
L 747.662448 506.360606 
L 751.663846 505.604491 
L 755.665245 505.543989 
L 759.666643 506.441895 
L 763.668042 507.182807 
L 771.670839 505.425468 
L 775.672238 505.633656 
L 779.673636 506.074542 
L 783.675035 505.9433 
L 787.676434 506.356883 
L 791.677832 505.918479 
L 795.679231 506.261942 
L 799.680629 506.303207 
L 803.682028 505.327735 
L 807.683427 506.624641 
L 811.684825 506.06027 
L 815.686224 506.292968 
L 819.687622 505.621555 
L 823.689021 505.199906 
L 827.69042 505.735112 
L 831.691818 505.048186 
L 835.693217 505.101862 
L 839.694615 506.523495 
L 843.696014 506.218194 
L 847.697413 505.554849 
L 851.698811 505.800888 
L 855.70021 506.701277 
L 859.701608 506.198648 
L 863.703007 506.724857 
L 867.704406 506.315307 
L 871.705804 506.446859 
L 875.707203 506.247049 
L 879.708601 506.448411 
L 883.71 506.838103 
L 887.711399 506.618746 
L 891.712797 505.869457 
L 895.714196 506.872543 
L 899.715594 506.014351 
L 903.716993 506.047239 
L 911.71979 506.358744 
L 915.721189 505.441292 
L 919.722587 506.674904 
L 923.723986 506.636741 
L 927.725385 506.249531 
L 931.726783 506.052513 
L 935.728182 506.29452 
L 939.72958 505.61504 
L 943.730979 505.957882 
L 947.732378 505.974326 
L 951.733776 506.898295 
L 955.735175 507.353143 
L 959.736573 505.827571 
L 963.737972 506.373017 
L 967.739371 506.385737 
L 971.740769 506.235259 
L 975.742168 505.606973 
L 979.743566 506.29514 
L 983.744965 506.453685 
L 987.746364 505.468905 
L 991.747762 506.309723 
L 995.749161 505.807094 
L 1003.751958 506.65815 
L 1007.753357 506.355642 
L 1011.754755 506.483781 
L 1015.756154 505.76707 
L 1019.757552 507.00968 
L 1023.758951 506.09564 
L 1027.76035 507.077317 
L 1031.761748 506.782876 
L 1035.763147 505.385754 
L 1039.764545 507.145265 
L 1043.765944 506.603233 
L 1047.767343 506.50612 
L 1051.768741 505.986116 
L 1055.77014 506.404974 
L 1059.771538 506.395356 
L 1063.772937 506.574999 
L 1067.774336 506.466716 
L 1071.775734 506.530631 
L 1075.777133 506.734165 
L 1079.778531 506.129769 
L 1083.77993 506.771707 
L 1087.781329 506.092537 
L 1091.782727 506.586168 
L 1091.782727 506.586168 
" clip-path="url(#pcadfa09741)" style="fill: none; stroke: #ff7f0e; stroke-width: 1.5; stroke-linecap: square"/>
   </g>
   <g id="line2d_17">
    <path d="M 103.437273 508.548903 
L 107.438671 508.986376 
L 111.44007 508.149902 
L 115.441469 509.28485 
L 119.442867 508.284247 
L 123.444266 506.188719 
L 127.445664 508.377947 
L 131.447063 506.07268 
L 135.448462 507.753694 
L 139.44986 503.602353 
L 143.451259 505.36869 
L 147.452657 505.093795 
L 151.454056 503.602663 
L 155.455455 504.894295 
L 159.456853 503.011609 
L 163.458252 504.813626 
L 167.45965 504.283694 
L 171.461049 503.246479 
L 175.462448 501.112169 
L 179.463846 502.870439 
L 183.465245 506.220366 
L 187.466643 499.036188 
L 191.468042 501.380858 
L 195.469441 492.933282 
L 199.470839 497.188872 
L 203.472238 493.965532 
L 211.475035 494.026654 
L 215.476434 494.747399 
L 219.477832 493.917131 
L 223.479231 492.222155 
L 227.480629 495.992802 
L 231.482028 497.770308 
L 235.483427 493.961809 
L 239.484825 494.218088 
L 243.486224 493.748657 
L 247.487622 492.721371 
L 251.489021 494.985062 
L 255.49042 496.582615 
L 259.491818 500.848444 
L 263.493217 494.511288 
L 267.494615 494.691241 
L 271.496014 494.101118 
L 275.497413 495.027568 
L 283.50021 498.128664 
L 287.501608 494.898188 
L 291.503007 494.436204 
L 295.504406 499.889726 
L 299.505804 494.88857 
L 303.507203 494.434342 
L 307.508601 496.3313 
L 311.51 494.422862 
L 315.511399 495.599076 
L 319.512797 497.13923 
L 323.514196 494.79549 
L 327.515594 493.802643 
L 331.516993 499.008574 
L 335.518392 494.242909 
L 339.51979 495.280744 
L 343.521189 497.178633 
L 347.522587 494.567446 
L 351.523986 500.89126 
L 355.525385 495.507858 
L 359.526783 498.611125 
L 367.52958 496.510944 
L 371.530979 495.705186 
L 375.532378 495.106996 
L 379.533776 501.345798 
L 383.535175 496.954002 
L 387.536573 494.632291 
L 391.537972 494.216226 
L 395.539371 495.359241 
L 399.540769 494.574272 
L 403.542168 495.816261 
L 407.543566 495.118476 
L 411.544965 496.325716 
L 415.546364 496.04989 
L 419.547762 494.49019 
L 423.549161 494.477469 
L 427.550559 497.562431 
L 431.551958 491.900721 
L 435.553357 497.642789 
L 439.554755 499.653925 
L 443.556154 494.550691 
L 447.557552 494.083123 
L 451.558951 497.001472 
L 455.56035 493.721664 
L 463.563147 493.558155 
L 467.564545 499.330629 
L 471.565944 496.907462 
L 475.567343 494.136178 
L 479.568741 495.417571 
L 483.57014 498.653321 
L 487.571538 494.42007 
L 491.572937 496.900016 
L 495.574336 493.977943 
L 499.575734 496.519941 
L 503.577133 496.829896 
L 507.578531 496.065714 
L 511.57993 499.339006 
L 515.581329 496.216502 
L 519.582727 495.534541 
L 523.584126 495.349933 
L 527.585524 499.235688 
L 531.586923 495.925784 
L 535.588322 496.969205 
L 539.58972 500.230086 
L 543.591119 499.079625 
L 547.592517 495.865593 
L 551.593916 496.624811 
L 555.595315 497.627586 
L 559.596713 494.511908 
L 563.598112 497.265507 
L 567.59951 498.422795 
L 571.600909 499.843186 
L 575.602308 495.537954 
L 579.603706 497.602144 
L 587.606503 495.558121 
L 591.607902 493.745244 
L 599.610699 498.123079 
L 603.612098 499.991803 
L 607.613497 495.570531 
L 611.614895 493.410779 
L 615.616294 499.476453 
L 619.617692 495.078762 
L 623.619091 495.285708 
L 627.62049 495.177426 
L 631.621888 495.736523 
L 635.623287 497.445461 
L 639.624685 500.312306 
L 643.626084 493.566222 
L 647.627483 495.177736 
L 651.628881 494.330714 
L 655.63028 500.180134 
L 659.631678 496.390561 
L 663.633077 496.16686 
L 667.634476 494.611193 
L 671.635874 498.706376 
L 675.637273 494.958069 
L 679.638671 495.171221 
L 683.64007 498.145108 
L 691.642867 496.866197 
L 695.644266 495.972014 
L 699.645664 495.424086 
L 703.647063 496.533593 
L 707.648462 496.432136 
L 711.64986 497.87828 
L 715.651259 498.601817 
L 719.652657 492.593852 
L 723.654056 495.583873 
L 727.655455 497.077177 
L 731.656853 496.116907 
L 735.658252 500.001731 
L 739.65965 497.030637 
L 743.661049 495.505686 
L 747.662448 497.568636 
L 751.663846 493.445218 
L 755.665245 494.712029 
L 759.666643 496.362017 
L 763.668042 500.171756 
L 767.669441 495.402058 
L 771.670839 494.32668 
L 775.672238 494.670764 
L 779.673636 496.305548 
L 783.675035 496.230775 
L 787.676434 497.259923 
L 791.677832 495.917718 
L 795.679231 499.770584 
L 799.680629 496.016382 
L 803.682028 493.524956 
L 807.683427 498.521148 
L 811.684825 493.267437 
L 815.686224 496.890708 
L 819.687622 494.707065 
L 823.689021 495.44022 
L 827.69042 495.448908 
L 831.691818 495.626069 
L 835.693217 495.058595 
L 839.694615 497.476177 
L 843.696014 496.841375 
L 847.697413 495.377547 
L 851.698811 495.00585 
L 855.70021 497.894724 
L 859.701608 496.684071 
L 863.703007 499.180771 
L 867.704406 497.399542 
L 871.705804 498.086778 
L 875.707203 495.92113 
L 879.708601 497.937851 
L 883.71 499.074971 
L 887.711399 497.863387 
L 891.712797 494.499187 
L 895.714196 498.996474 
L 899.715594 498.293724 
L 903.716993 495.538884 
L 907.718392 497.135196 
L 911.71979 498.142626 
L 915.721189 495.623276 
L 919.722587 498.900602 
L 923.723986 498.313271 
L 927.725385 497.021329 
L 931.726783 496.219295 
L 935.728182 495.588837 
L 939.72958 496.018243 
L 943.730979 496.581994 
L 947.732378 496.750778 
L 951.733776 499.903688 
L 955.735175 501.12551 
L 959.736573 495.547882 
L 967.739371 497.817468 
L 971.740769 496.888846 
L 975.742168 494.640978 
L 979.743566 497.103239 
L 983.744965 498.079332 
L 987.746364 494.685036 
L 991.747762 497.55002 
L 995.749161 494.154794 
L 999.750559 498.292794 
L 1003.751958 499.219864 
L 1007.753357 497.211832 
L 1011.754755 498.414417 
L 1015.756154 495.910892 
L 1019.757552 500.475506 
L 1023.758951 496.516218 
L 1027.76035 499.705118 
L 1031.761748 499.151296 
L 1035.763147 495.398024 
L 1039.764545 500.290278 
L 1043.765944 497.912099 
L 1047.767343 497.465318 
L 1051.768741 495.201937 
L 1055.77014 497.87859 
L 1059.771538 497.564913 
L 1063.772937 498.913323 
L 1067.774336 497.792647 
L 1071.775734 498.247185 
L 1075.777133 499.895931 
L 1079.778531 498.198473 
L 1083.77993 499.568602 
L 1087.781329 498.200024 
L 1091.782727 499.436429 
L 1091.782727 499.436429 
" clip-path="url(#pcadfa09741)" style="fill: none; stroke: #2ca02c; stroke-width: 1.5; stroke-linecap: square"/>
   </g>
   <g id="line2d_18">
    <path d="M 103.437273 460.204392 
L 107.438671 467.190622 
L 111.44007 456.598496 
L 115.441469 470.997259 
L 119.442867 455.376674 
L 123.444266 446.976568 
L 127.445664 460.997118 
L 131.447063 443.972275 
L 135.448462 461.299626 
L 139.44986 418.97394 
L 143.451259 430.781373 
L 147.452657 431.790043 
L 151.454056 425.891912 
L 155.455455 425.253077 
L 159.456853 404.853485 
L 163.458252 425.566754 
L 167.45965 428.470211 
L 171.461049 415.637044 
L 175.462448 396.239296 
L 179.463846 414.470138 
L 183.465245 437.787769 
L 187.466643 381.551367 
L 191.468042 399.865359 
L 195.469441 315.962656 
L 199.470839 362.683241 
L 203.472238 326.200769 
L 207.473636 318.035534 
L 211.475035 330.372899 
L 215.476434 339.737307 
L 219.477832 332.670408 
L 223.479231 318.34673 
L 227.480629 348.224597 
L 231.482028 362.755843 
L 235.483427 336.442606 
L 239.484825 332.864014 
L 243.486224 323.513877 
L 247.487622 328.658376 
L 251.489021 338.938996 
L 255.49042 351.808154 
L 259.491818 387.664822 
L 263.493217 337.403806 
L 267.494615 340.445641 
L 271.496014 328.554127 
L 275.497413 337.713761 
L 279.498811 346.495182 
L 283.50021 369.470281 
L 287.501608 340.354423 
L 291.503007 340.650726 
L 295.504406 381.694088 
L 299.505804 336.499074 
L 303.507203 342.118588 
L 307.508601 349.497303 
L 311.51 344.507626 
L 315.511399 349.163458 
L 319.512797 360.494634 
L 323.514196 338.304815 
L 327.515594 330.156954 
L 331.516993 375.420537 
L 335.518392 344.263758 
L 339.51979 345.175626 
L 343.521189 362.794626 
L 347.522587 341.47603 
L 351.523986 388.944664 
L 355.525385 345.557562 
L 359.526783 377.807403 
L 363.528182 360.089428 
L 367.52958 351.508128 
L 375.532378 344.731327 
L 379.533776 398.218475 
L 383.535175 355.170182 
L 387.536573 341.226888 
L 391.537972 342.982675 
L 395.539371 339.758095 
L 399.540769 335.941529 
L 403.542168 350.661726 
L 407.543566 346.862845 
L 411.544965 354.575715 
L 415.546364 351.722211 
L 419.547762 345.371713 
L 423.549161 335.101642 
L 427.550559 364.255973 
L 431.551958 326.075733 
L 435.553357 359.576561 
L 439.554755 381.901345 
L 443.556154 341.469204 
L 447.557552 342.958475 
L 451.558951 359.478517 
L 455.56035 342.111762 
L 459.561748 336.837573 
L 463.563147 341.753096 
L 467.564545 371.383683 
L 471.565944 354.266691 
L 475.567343 335.353577 
L 479.568741 347.030078 
L 483.57014 389.222661 
L 487.571538 333.240985 
L 491.572937 364.573684 
L 495.574336 337.33803 
L 499.575734 353.957978 
L 503.577133 354.072776 
L 507.578531 352.244386 
L 511.57993 381.223417 
L 515.581329 347.250056 
L 519.582727 352.749807 
L 523.584126 340.414304 
L 527.585524 371.268575 
L 531.586923 345.525605 
L 535.588322 359.618757 
L 539.58972 389.803476 
L 543.591119 379.379514 
L 547.592517 347.030078 
L 551.593916 358.730159 
L 555.595315 357.937743 
L 559.596713 348.431233 
L 563.598112 356.069019 
L 567.59951 367.026946 
L 571.600909 378.538697 
L 575.602308 348.48615 
L 579.603706 360.545828 
L 583.605105 353.70232 
L 587.606503 349.513126 
L 591.607902 337.374641 
L 595.609301 349.632268 
L 599.610699 368.452923 
L 603.612098 385.158504 
L 607.613497 350.668242 
L 611.614895 334.059463 
L 615.616294 382.479368 
L 619.617692 347.062656 
L 623.619091 347.698388 
L 627.62049 344.780039 
L 631.621888 346.529931 
L 635.623287 357.502131 
L 639.624685 382.57555 
L 643.626084 335.166177 
L 647.627483 344.28982 
L 651.628881 337.181967 
L 655.63028 386.741164 
L 659.631678 347.197 
L 663.633077 350.869914 
L 667.634476 342.042263 
L 671.635874 364.430652 
L 675.637273 342.70685 
L 679.638671 348.276721 
L 683.64007 370.758189 
L 687.641469 358.307268 
L 691.642867 359.027392 
L 695.644266 353.22234 
L 699.645664 342.091285 
L 703.647063 359.957256 
L 707.648462 354.345498 
L 711.64986 360.397831 
L 715.651259 368.475262 
L 719.652657 331.982862 
L 723.654056 349.478377 
L 727.655455 357.545258 
L 731.656853 349.246609 
L 735.658252 381.14554 
L 739.65965 356.830098 
L 743.661049 348.905007 
L 747.662448 357.750964 
L 751.663846 342.209186 
L 755.665245 348.46257 
L 759.666643 351.527364 
L 763.668042 389.282231 
L 767.669441 344.784382 
L 771.670839 348.792692 
L 775.672238 345.819736 
L 779.673636 351.737414 
L 783.675035 350.511558 
L 787.676434 360.145276 
L 791.677832 350.869914 
L 795.679231 386.524909 
L 799.680629 347.033181 
L 803.682028 344.257243 
L 807.683427 366.820931 
L 811.684825 354.693305 
L 815.686224 361.418602 
L 819.687622 348.850711 
L 823.689021 347.909678 
L 827.69042 347.533327 
L 831.691818 353.513058 
L 835.693217 344.632042 
L 839.694615 368.380011 
L 843.696014 352.62353 
L 847.697413 348.050849 
L 851.698811 346.701818 
L 855.70021 367.3822 
L 859.701608 360.844613 
L 863.703007 384.717618 
L 867.704406 367.322318 
L 871.705804 367.942848 
L 875.707203 349.721314 
L 879.708601 351.957391 
L 883.71 371.530128 
L 887.711399 360.263797 
L 891.712797 332.084629 
L 895.714196 380.879333 
L 899.715594 359.980836 
L 903.716993 344.256932 
L 911.71979 365.781544 
L 915.721189 352.989332 
L 919.722587 368.255905 
L 923.723986 371.643064 
L 931.726783 348.369491 
L 935.728182 348.13462 
L 939.72958 353.911128 
L 943.730979 354.776766 
L 947.732378 347.7713 
L 951.733776 385.326667 
L 955.735175 396.098746 
L 959.736573 352.948066 
L 963.737972 350.135827 
L 967.739371 362.214431 
L 971.740769 360.108975 
L 975.742168 346.920555 
L 979.743566 360.462987 
L 983.744965 367.415398 
L 987.746364 349.195105 
L 991.747762 365.203211 
L 995.749161 338.516415 
L 999.750559 371.950537 
L 1003.751958 378.978962 
L 1007.753357 358.333641 
L 1011.754755 373.565464 
L 1015.756154 354.510559 
L 1019.757552 398.568453 
L 1023.758951 352.704509 
L 1027.76035 386.59596 
L 1031.761748 379.171326 
L 1035.763147 349.389331 
L 1039.764545 392.225712 
L 1043.765944 368.189818 
L 1047.767343 364.241701 
L 1051.768741 345.252572 
L 1055.77014 384.038138 
L 1059.771538 363.236753 
L 1063.772937 378.203921 
L 1067.774336 365.524645 
L 1071.775734 373.54933 
L 1075.777133 384.643775 
L 1079.778531 370.732127 
L 1083.77993 391.200908 
L 1087.781329 374.447857 
L 1091.782727 383.214385 
L 1091.782727 383.214385 
" clip-path="url(#pcadfa09741)" style="fill: none; stroke: #d62728; stroke-width: 1.5; stroke-linecap: square"/>
   </g>
   <g id="line2d_19">
    <path d="M 103.437273 476.875533 
L 107.438671 476.21467 
L 111.44007 476.190159 
L 115.441469 475.759201 
L 119.442867 475.667673 
L 127.445664 474.458572 
L 131.447063 474.042507 
L 135.448462 471.013703 
L 139.44986 470.983607 
L 143.451259 469.070205 
L 147.452657 466.034576 
L 151.454056 461.938772 
L 155.455455 459.213407 
L 159.456853 457.062962 
L 163.458252 453.253222 
L 167.45965 452.972123 
L 171.461049 451.316861 
L 175.462448 449.837829 
L 179.463846 449.52291 
L 183.465245 441.939421 
L 187.466643 405.001171 
L 191.468042 404.582934 
L 195.469441 383.017057 
L 199.470839 380.236155 
L 203.472238 376.692001 
L 207.473636 368.966101 
L 211.475035 365.140227 
L 215.476434 364.657145 
L 219.477832 364.292584 
L 223.479231 363.734728 
L 227.480629 360.698168 
L 231.482028 348.546962 
L 235.483427 346.083771 
L 239.484825 345.20324 
L 243.486224 342.239281 
L 247.487622 335.526395 
L 251.489021 329.902537 
L 255.49042 328.262168 
L 267.494615 324.345076 
L 271.496014 323.851756 
L 275.497413 321.426417 
L 279.498811 320.472043 
L 283.50021 320.186289 
L 287.501608 319.720581 
L 291.503007 316.966983 
L 295.504406 308.074487 
L 299.505804 305.020862 
L 303.507203 304.355034 
L 307.508601 303.290516 
L 311.51 302.670917 
L 315.511399 302.419293 
L 319.512797 302.380199 
L 323.514196 302.104684 
L 327.515594 300.066245 
L 331.516993 295.694616 
L 335.518392 295.608362 
L 339.51979 290.779713 
L 343.521189 290.451764 
L 347.522587 289.612498 
L 351.523986 289.601949 
L 355.525385 287.748427 
L 359.526783 283.984296 
L 363.528182 283.895561 
L 367.52958 283.01534 
L 371.530979 281.417167 
L 375.532378 280.943703 
L 379.533776 280.70635 
L 391.537972 280.519881 
L 395.539371 278.90092 
L 399.540769 278.216166 
L 403.542168 276.26336 
L 407.543566 275.895696 
L 411.544965 275.793309 
L 415.546364 274.504159 
L 419.547762 274.290387 
L 423.549161 270.791843 
L 427.550559 270.098091 
L 435.553357 269.702193 
L 439.554755 268.592687 
L 443.556154 268.222541 
L 447.557552 267.486903 
L 451.558951 266.614749 
L 455.56035 266.271907 
L 459.561748 264.432037 
L 463.563147 263.553057 
L 467.564545 263.284058 
L 471.565944 263.199666 
L 475.567343 262.921048 
L 479.568741 260.96483 
L 483.57014 260.339646 
L 487.571538 258.87892 
L 491.572937 258.651186 
L 495.574336 257.667026 
L 499.575734 257.320771 
L 503.577133 256.824658 
L 507.578531 256.181479 
L 511.57993 255.66644 
L 515.581329 255.473145 
L 523.584126 254.699655 
L 527.585524 252.98234 
L 531.586923 250.891777 
L 535.588322 250.516977 
L 539.58972 249.856734 
L 543.591119 249.340764 
L 547.592517 248.990475 
L 551.593916 248.342332 
L 555.595315 246.957 
L 559.596713 246.781701 
L 563.598112 246.221363 
L 567.59951 246.004177 
L 571.600909 245.629688 
L 575.602308 245.459663 
L 579.603706 244.930972 
L 587.606503 244.391732 
L 591.607902 243.102582 
L 595.609301 241.516819 
L 599.610699 240.113182 
L 603.612098 239.91182 
L 607.613497 239.381888 
L 611.614895 237.011776 
L 615.616294 236.925523 
L 619.617692 236.109216 
L 623.619091 235.792126 
L 627.62049 234.090324 
L 631.621888 233.736933 
L 639.624685 233.423255 
L 643.626084 233.091582 
L 647.627483 233.068933 
L 655.63028 232.634872 
L 663.633077 231.528158 
L 667.634476 231.311904 
L 671.635874 228.942413 
L 683.64007 228.705991 
L 687.641469 226.30206 
L 691.642867 226.034612 
L 695.644266 225.98528 
L 699.645664 225.683703 
L 703.647063 225.535396 
L 711.64986 223.460036 
L 715.651259 223.328173 
L 719.652657 222.640006 
L 723.654056 222.441127 
L 727.655455 221.634749 
L 731.656853 221.411668 
L 735.658252 220.781831 
L 739.65965 219.065757 
L 743.661049 218.073531 
L 747.662448 217.609375 
L 751.663846 216.106763 
L 759.666643 215.769816 
L 763.668042 215.448071 
L 767.669441 215.301006 
L 771.670839 214.138754 
L 775.672238 213.72362 
L 779.673636 206.85405 
L 783.675035 206.489179 
L 787.676434 204.857187 
L 791.677832 204.762246 
L 795.679231 204.379999 
L 811.684825 203.807561 
L 815.686224 202.91493 
L 819.687622 202.781516 
L 823.689021 200.510378 
L 827.69042 200.296296 
L 831.691818 199.359297 
L 835.693217 199.213472 
L 839.694615 198.862873 
L 843.696014 198.75428 
L 847.697413 197.367397 
L 851.698811 197.31155 
L 855.70021 195.78815 
L 859.701608 192.902689 
L 863.703007 191.000766 
L 867.704406 190.526061 
L 871.705804 189.70386 
L 879.708601 189.527009 
L 883.71 189.356363 
L 887.711399 189.316029 
L 891.712797 188.742039 
L 895.714196 188.369722 
L 899.715594 187.398593 
L 903.716993 187.274488 
L 907.718392 186.390233 
L 911.71979 186.377823 
L 915.721189 185.819346 
L 919.722587 182.468488 
L 923.723986 182.279226 
L 927.725385 181.714545 
L 931.726783 181.004038 
L 939.72958 180.768237 
L 947.732378 177.932418 
L 951.733776 177.727644 
L 955.735175 177.318094 
L 959.736573 176.557946 
L 963.737972 175.987059 
L 967.739371 175.915698 
L 971.740769 175.490635 
L 975.742168 175.434788 
L 979.743566 174.894927 
L 983.744965 172.273191 
L 987.746364 170.954566 
L 991.747762 169.797278 
L 999.750559 165.071948 
L 1003.751958 164.358339 
L 1007.753357 162.630165 
L 1011.754755 161.845195 
L 1015.756154 158.40436 
L 1019.757552 157.445642 
L 1023.758951 156.902679 
L 1027.76035 155.732981 
L 1031.761748 154.042038 
L 1035.763147 152.633437 
L 1039.764545 151.929136 
L 1043.765944 151.103832 
L 1047.767343 150.73772 
L 1051.768741 144.718585 
L 1055.77014 140.986101 
L 1059.771538 133.338077 
L 1063.772937 130.471231 
L 1067.774336 127.455459 
L 1071.775734 126.282658 
L 1075.777133 105.513541 
L 1079.778531 92.808202 
L 1083.77993 67.118288 
L 1087.781329 56.563083 
L 1091.782727 49.932727 
L 1091.782727 49.932727 
" clip-path="url(#pcadfa09741)" style="fill: none; stroke: #9467bd; stroke-width: 5; stroke-linecap: square"/>
   </g>
   <g id="patch_3">
    <path d="M 54.02 534.04 
L 54.02 26.88 
" style="fill: none; stroke: #000000; stroke-width: 0.8; stroke-linejoin: miter; stroke-linecap: square"/>
   </g>
   <g id="patch_4">
    <path d="M 1141.2 534.04 
L 1141.2 26.88 
" style="fill: none; stroke: #000000; stroke-width: 0.8; stroke-linejoin: miter; stroke-linecap: square"/>
   </g>
   <g id="patch_5">
    <path d="M 54.02 534.04 
L 1141.2 534.04 
" style="fill: none; stroke: #000000; stroke-width: 0.8; stroke-linejoin: miter; stroke-linecap: square"/>
   </g>
   <g id="patch_6">
    <path d="M 54.02 26.88 
L 1141.2 26.88 
" style="fill: none; stroke: #000000; stroke-width: 0.8; stroke-linejoin: miter; stroke-linecap: square"/>
   </g>
   <g id="text_17">
    <!-- Encode times, CID22 set -->
    <g transform="translate(523.852188 20.88) scale(0.12 -0.12)">
     <defs>
      <path id="DejaVuSans-45" d="M 628 4666 
L 3578 4666 
L 3578 4134 
L 1259 4134 
L 1259 2753 
L 3481 2753 
L 3481 2222 
L 1259 2222 
L 1259 531 
L 3634 531 
L 3634 0 
L 628 0 
L 628 4666 
z
" transform="scale(0.015625)"/>
      <path id="DejaVuSans-74" d="M 1172 4494 
L 1172 3500 
L 2356 3500 
L 2356 3053 
L 1172 3053 
L 1172 1153 
Q 1172 725 1289 603 
Q 1406 481 1766 481 
L 2356 481 
L 2356 0 
L 1766 0 
Q 1100 0 847 248 
Q 594 497 594 1153 
L 594 3053 
L 172 3053 
L 172 3500 
L 594 3500 
L 594 4494 
L 1172 4494 
z
" transform="scale(0.015625)"/>
      <path id="DejaVuSans-2c" d="M 750 794 
L 1409 794 
L 1409 256 
L 897 -744 
L 494 -744 
L 750 256 
L 750 794 
z
" transform="scale(0.015625)"/>
      <path id="DejaVuSans-43" d="M 4122 4306 
L 4122 3641 
Q 3803 3938 3442 4084 
Q 3081 4231 2675 4231 
Q 1875 4231 1450 3742 
Q 1025 3253 1025 2328 
Q 1025 1406 1450 917 
Q 1875 428 2675 428 
Q 3081 428 3442 575 
Q 3803 722 4122 1019 
L 4122 359 
Q 3791 134 3420 21 
Q 3050 -91 2638 -91 
Q 1578 -91 968 557 
Q 359 1206 359 2328 
Q 359 3453 968 4101 
Q 1578 4750 2638 4750 
Q 3056 4750 3426 4639 
Q 3797 4528 4122 4306 
z
" transform="scale(0.015625)"/>
      <path id="DejaVuSans-49" d="M 628 4666 
L 1259 4666 
L 1259 0 
L 628 0 
L 628 4666 
z
" transform="scale(0.015625)"/>
      <path id="DejaVuSans-44" d="M 1259 4147 
L 1259 519 
L 2022 519 
Q 2988 519 3436 956 
Q 3884 1394 3884 2338 
Q 3884 3275 3436 3711 
Q 2988 4147 2022 4147 
L 1259 4147 
z
M 628 4666 
L 1925 4666 
Q 3281 4666 3915 4102 
Q 4550 3538 4550 2338 
Q 4550 1131 3912 565 
Q 3275 0 1925 0 
L 628 0 
L 628 4666 
z
" transform="scale(0.015625)"/>
     </defs>
     <use xlink:href="#DejaVuSans-45"/>
     <use xlink:href="#DejaVuSans-6e" x="63.183594"/>
     <use xlink:href="#DejaVuSans-63" x="126.5625"/>
     <use xlink:href="#DejaVuSans-6f" x="181.542969"/>
     <use xlink:href="#DejaVuSans-64" x="242.724609"/>
     <use xlink:href="#DejaVuSans-65" x="306.201172"/>
     <use xlink:href="#DejaVuSans-20" x="367.724609"/>
     <use xlink:href="#DejaVuSans-74" x="399.511719"/>
     <use xlink:href="#DejaVuSans-69" x="438.720703"/>
     <use xlink:href="#DejaVuSans-6d" x="466.503906"/>
     <use xlink:href="#DejaVuSans-65" x="563.916016"/>
     <use xlink:href="#DejaVuSans-73" x="625.439453"/>
     <use xlink:href="#DejaVuSans-2c" x="677.539062"/>
     <use xlink:href="#DejaVuSans-20" x="709.326172"/>
     <use xlink:href="#DejaVuSans-43" x="741.113281"/>
     <use xlink:href="#DejaVuSans-49" x="810.9375"/>
     <use xlink:href="#DejaVuSans-44" x="840.429688"/>
     <use xlink:href="#DejaVuSans-32" x="917.431641"/>
     <use xlink:href="#DejaVuSans-32" x="981.054688"/>
     <use xlink:href="#DejaVuSans-20" x="1044.677734"/>
     <use xlink:href="#DejaVuSans-73" x="1076.464844"/>
     <use xlink:href="#DejaVuSans-65" x="1128.564453"/>
     <use xlink:href="#DejaVuSans-74" x="1190.087891"/>
    </g>
   </g>
   <g id="legend_1">
    <g id="patch_7">
     <path d="M 61.02 108.270625 
L 189.393438 108.270625 
Q 191.393438 108.270625 191.393438 106.270625 
L 191.393438 33.88 
Q 191.393438 31.88 189.393438 31.88 
L 61.02 31.88 
Q 59.02 31.88 59.02 33.88 
L 59.02 106.270625 
Q 59.02 108.270625 61.02 108.270625 
z
" style="fill: #ffffff; opacity: 0.8; stroke: #cccccc; stroke-linejoin: miter"/>
    </g>
    <g id="line2d_20">
     <path d="M 63.02 39.978438 
L 73.02 39.978438 
L 83.02 39.978438 
" style="fill: none; stroke: #1f77b4; stroke-width: 5; stroke-linecap: square"/>
    </g>
    <g id="text_18">
     <!-- QB3 Fast -->
     <g transform="translate(91.02 43.478438) scale(0.1 -0.1)">
      <defs>
       <path id="DejaVuSans-51" d="M 2522 4238 
Q 1834 4238 1429 3725 
Q 1025 3213 1025 2328 
Q 1025 1447 1429 934 
Q 1834 422 2522 422 
Q 3209 422 3611 934 
Q 4013 1447 4013 2328 
Q 4013 3213 3611 3725 
Q 3209 4238 2522 4238 
z
M 3406 84 
L 4238 -825 
L 3475 -825 
L 2784 -78 
Q 2681 -84 2626 -87 
Q 2572 -91 2522 -91 
Q 1538 -91 948 567 
Q 359 1225 359 2328 
Q 359 3434 948 4092 
Q 1538 4750 2522 4750 
Q 3503 4750 4090 4092 
Q 4678 3434 4678 2328 
Q 4678 1516 4351 937 
Q 4025 359 3406 84 
z
" transform="scale(0.015625)"/>
       <path id="DejaVuSans-42" d="M 1259 2228 
L 1259 519 
L 2272 519 
Q 2781 519 3026 730 
Q 3272 941 3272 1375 
Q 3272 1813 3026 2020 
Q 2781 2228 2272 2228 
L 1259 2228 
z
M 1259 4147 
L 1259 2741 
L 2194 2741 
Q 2656 2741 2882 2914 
Q 3109 3088 3109 3444 
Q 3109 3797 2882 3972 
Q 2656 4147 2194 4147 
L 1259 4147 
z
M 628 4666 
L 2241 4666 
Q 2963 4666 3353 4366 
Q 3744 4066 3744 3513 
Q 3744 3084 3544 2831 
Q 3344 2578 2956 2516 
Q 3422 2416 3680 2098 
Q 3938 1781 3938 1306 
Q 3938 681 3513 340 
Q 3088 0 2303 0 
L 628 0 
L 628 4666 
z
" transform="scale(0.015625)"/>
       <path id="DejaVuSans-33" d="M 2597 2516 
Q 3050 2419 3304 2112 
Q 3559 1806 3559 1356 
Q 3559 666 3084 287 
Q 2609 -91 1734 -91 
Q 1441 -91 1130 -33 
Q 819 25 488 141 
L 488 750 
Q 750 597 1062 519 
Q 1375 441 1716 441 
Q 2309 441 2620 675 
Q 2931 909 2931 1356 
Q 2931 1769 2642 2001 
Q 2353 2234 1838 2234 
L 1294 2234 
L 1294 2753 
L 1863 2753 
Q 2328 2753 2575 2939 
Q 2822 3125 2822 3475 
Q 2822 3834 2567 4026 
Q 2313 4219 1838 4219 
Q 1578 4219 1281 4162 
Q 984 4106 628 3988 
L 628 4550 
Q 988 4650 1302 4700 
Q 1616 4750 1894 4750 
Q 2613 4750 3031 4423 
Q 3450 4097 3450 3541 
Q 3450 3153 3228 2886 
Q 3006 2619 2597 2516 
z
" transform="scale(0.015625)"/>
       <path id="DejaVuSans-61" d="M 2194 1759 
Q 1497 1759 1228 1600 
Q 959 1441 959 1056 
Q 959 750 1161 570 
Q 1363 391 1709 391 
Q 2188 391 2477 730 
Q 2766 1069 2766 1631 
L 2766 1759 
L 2194 1759 
z
M 3341 1997 
L 3341 0 
L 2766 0 
L 2766 531 
Q 2569 213 2275 61 
Q 1981 -91 1556 -91 
Q 1019 -91 701 211 
Q 384 513 384 1019 
Q 384 1609 779 1909 
Q 1175 2209 1959 2209 
L 2766 2209 
L 2766 2266 
Q 2766 2663 2505 2880 
Q 2244 3097 1772 3097 
Q 1472 3097 1187 3025 
Q 903 2953 641 2809 
L 641 3341 
Q 956 3463 1253 3523 
Q 1550 3584 1831 3584 
Q 2591 3584 2966 3190 
Q 3341 2797 3341 1997 
z
" transform="scale(0.015625)"/>
      </defs>
      <use xlink:href="#DejaVuSans-51"/>
      <use xlink:href="#DejaVuSans-42" x="78.710938"/>
      <use xlink:href="#DejaVuSans-33" x="147.314453"/>
      <use xlink:href="#DejaVuSans-20" x="210.9375"/>
      <use xlink:href="#DejaVuSans-46" x="242.724609"/>
      <use xlink:href="#DejaVuSans-61" x="291.119141"/>
      <use xlink:href="#DejaVuSans-73" x="352.398438"/>
      <use xlink:href="#DejaVuSans-74" x="404.498047"/>
     </g>
    </g>
    <g id="line2d_21">
     <path d="M 63.02 54.656563 
L 73.02 54.656563 
L 83.02 54.656563 
" style="fill: none; stroke: #ff7f0e; stroke-width: 1.5; stroke-linecap: square"/>
    </g>
    <g id="text_19">
     <!-- QB3 Base -->
     <g transform="translate(91.02 58.156563) scale(0.1 -0.1)">
      <use xlink:href="#DejaVuSans-51"/>
      <use xlink:href="#DejaVuSans-42" x="78.710938"/>
      <use xlink:href="#DejaVuSans-33" x="147.314453"/>
      <use xlink:href="#DejaVuSans-20" x="210.9375"/>
      <use xlink:href="#DejaVuSans-42" x="242.724609"/>
      <use xlink:href="#DejaVuSans-61" x="311.328125"/>
      <use xlink:href="#DejaVuSans-73" x="372.607422"/>
      <use xlink:href="#DejaVuSans-65" x="424.707031"/>
     </g>
    </g>
    <g id="line2d_22">
     <path d="M 63.02 69.334688 
L 73.02 69.334688 
L 83.02 69.334688 
" style="fill: none; stroke: #2ca02c; stroke-width: 1.5; stroke-linecap: square"/>
    </g>
    <g id="text_20">
     <!-- QB3 Best -->
     <g transform="translate(91.02 72.834688) scale(0.1 -0.1)">
      <use xlink:href="#DejaVuSans-51"/>
      <use xlink:href="#DejaVuSans-42" x="78.710938"/>
      <use xlink:href="#DejaVuSans-33" x="147.314453"/>
      <use xlink:href="#DejaVuSans-20" x="210.9375"/>
      <use xlink:href="#DejaVuSans-42" x="242.724609"/>
      <use xlink:href="#DejaVuSans-65" x="311.328125"/>
      <use xlink:href="#DejaVuSans-73" x="372.851562"/>
      <use xlink:href="#DejaVuSans-74" x="424.951172"/>
     </g>
    </g>
    <g id="line2d_23">
     <path d="M 63.02 84.012813 
L 73.02 84.012813 
L 83.02 84.012813 
" style="fill: none; stroke: #d62728; stroke-width: 1.5; stroke-linecap: square"/>
    </g>
    <g id="text_21">
     <!-- QB3 Best band mix -->
     <g transform="translate(91.02 87.512813) scale(0.1 -0.1)">
      <defs>
       <path id="DejaVuSans-78" d="M 3513 3500 
L 2247 1797 
L 3578 0 
L 2900 0 
L 1881 1375 
L 863 0 
L 184 0 
L 1544 1831 
L 300 3500 
L 978 3500 
L 1906 2253 
L 2834 3500 
L 3513 3500 
z
" transform="scale(0.015625)"/>
      </defs>
      <use xlink:href="#DejaVuSans-51"/>
      <use xlink:href="#DejaVuSans-42" x="78.710938"/>
      <use xlink:href="#DejaVuSans-33" x="147.314453"/>
      <use xlink:href="#DejaVuSans-20" x="210.9375"/>
      <use xlink:href="#DejaVuSans-42" x="242.724609"/>
      <use xlink:href="#DejaVuSans-65" x="311.328125"/>
      <use xlink:href="#DejaVuSans-73" x="372.851562"/>
      <use xlink:href="#DejaVuSans-74" x="424.951172"/>
      <use xlink:href="#DejaVuSans-20" x="464.160156"/>
      <use xlink:href="#DejaVuSans-62" x="495.947266"/>
      <use xlink:href="#DejaVuSans-61" x="559.423828"/>
      <use xlink:href="#DejaVuSans-6e" x="620.703125"/>
      <use xlink:href="#DejaVuSans-64" x="684.082031"/>
      <use xlink:href="#DejaVuSans-20" x="747.558594"/>
      <use xlink:href="#DejaVuSans-6d" x="779.345703"/>
      <use xlink:href="#DejaVuSans-69" x="876.757812"/>
      <use xlink:href="#DejaVuSans-78" x="904.541016"/>
     </g>
    </g>
    <g id="line2d_24">
     <path d="M 63.02 98.690938 
L 73.02 98.690938 
L 83.02 98.690938 
" style="fill: none; stroke: #9467bd; stroke-width: 5; stroke-linecap: square"/>
    </g>
    <g id="text_22">
     <!-- PNG encode -->
     <g transform="translate(91.02 102.190938) scale(0.1 -0.1)">
      <defs>
       <path id="DejaVuSans-50" d="M 1259 4147 
L 1259 2394 
L 2053 2394 
Q 2494 2394 2734 2622 
Q 2975 2850 2975 3272 
Q 2975 3691 2734 3919 
Q 2494 4147 2053 4147 
L 1259 4147 
z
M 628 4666 
L 2053 4666 
Q 2838 4666 3239 4311 
Q 3641 3956 3641 3272 
Q 3641 2581 3239 2228 
Q 2838 1875 2053 1875 
L 1259 1875 
L 1259 0 
L 628 0 
L 628 4666 
z
" transform="scale(0.015625)"/>
       <path id="DejaVuSans-4e" d="M 628 4666 
L 1478 4666 
L 3547 763 
L 3547 4666 
L 4159 4666 
L 4159 0 
L 3309 0 
L 1241 3903 
L 1241 0 
L 628 0 
L 628 4666 
z
" transform="scale(0.015625)"/>
       <path id="DejaVuSans-47" d="M 3809 666 
L 3809 1919 
L 2778 1919 
L 2778 2438 
L 4434 2438 
L 4434 434 
Q 4069 175 3628 42 
Q 3188 -91 2688 -91 
Q 1594 -91 976 548 
Q 359 1188 359 2328 
Q 359 3472 976 4111 
Q 1594 4750 2688 4750 
Q 3144 4750 3555 4637 
Q 3966 4525 4313 4306 
L 4313 3634 
Q 3963 3931 3569 4081 
Q 3175 4231 2741 4231 
Q 1884 4231 1454 3753 
Q 1025 3275 1025 2328 
Q 1025 1384 1454 906 
Q 1884 428 2741 428 
Q 3075 428 3337 486 
Q 3600 544 3809 666 
z
" transform="scale(0.015625)"/>
      </defs>
      <use xlink:href="#DejaVuSans-50"/>
      <use xlink:href="#DejaVuSans-4e" x="60.302734"/>
      <use xlink:href="#DejaVuSans-47" x="135.107422"/>
      <use xlink:href="#DejaVuSans-20" x="212.597656"/>
      <use xlink:href="#DejaVuSans-65" x="244.384766"/>
      <use xlink:href="#DejaVuSans-6e" x="305.908203"/>
      <use xlink:href="#DejaVuSans-63" x="369.287109"/>
      <use xlink:href="#DejaVuSans-6f" x="424.267578"/>
      <use xlink:href="#DejaVuSans-64" x="485.449219"/>
      <use xlink:href="#DejaVuSans-65" x="548.925781"/>
     </g>
    </g>
   </g>
  </g>
 </g>
 <defs>
  <clipPath id="pcadfa09741">
   <rect x="54.02" y="26.88" width="1087.18" height="507.16"/>
  </clipPath>
 </defs>
</svg>
