<?xml version="1.0" encoding="utf-8" standalone="no"?>
<!DOCTYPE svg PUBLIC "-//W3C//DTD SVG 1.1//EN"
  "http://www.w3.org/Graphics/SVG/1.1/DTD/svg11.dtd">
<svg xmlns:xlink="http://www.w3.org/1999/xlink" width="1152pt" height="576pt" viewBox="0 0 1152 576" xmlns="http://www.w3.org/2000/svg" version="1.1">
 <metadata>
  <rdf:RDF xmlns:dc="http://purl.org/dc/elements/1.1/" xmlns:cc="http://creativecommons.org/ns#" xmlns:rdf="http://www.w3.org/1999/02/22-rdf-syntax-ns#">
   <cc:Work>
    <dc:type rdf:resource="http://purl.org/dc/dcmitype/StillImage"/>
    <dc:date>2025-08-18T11:49:21.619363</dc:date>
    <dc:format>image/svg+xml</dc:format>
    <dc:creator>
     <cc:Agent>
      <dc:title>Matplotlib v3.9.0, https://matplotlib.org/</dc:title>
     </cc:Agent>
    </dc:creator>
   </cc:Work>
  </rdf:RDF>
 </metadata>
 <defs>
  <style type="text/css">*{stroke-linejoin: round; stroke-linecap: butt}</style>
 </defs>
 <g id="figure_1">
  <g id="patch_1">
   <path d="M 0 576 
L 1152 576 
L 1152 0 
L 0 0 
z
" style="fill: #ffffff"/>
  </g>
  <g id="axes_1">
   <g id="patch_2">
    <path d="M 47.72 548.12 
L 1141.2 548.12 
L 1141.2 10.8 
L 47.72 10.8 
z
" style="fill: #ffffff"/>
   </g>
   <g id="matplotlib.axis_1">
    <g id="xtick_1">
     <g id="line2d_1">
      <defs>
       <path id="m5f3a7e74da" d="M 0 0 
L 0 3.5 
" style="stroke: #000000; stroke-width: 0.8"/>
      </defs>
      <g>
       <use xlink:href="#m5f3a7e74da" x="97.423636" y="548.12" style="stroke: #000000; stroke-width: 0.8"/>
      </g>
     </g>
     <g id="text_1">
      <!-- 0 -->
      <g transform="translate(94.242386 562.718437) scale(0.1 -0.1)">
       <defs>
        <path id="DejaVuSans-30" d="M 2034 4250 
Q 1547 4250 1301 3770 
Q 1056 3291 1056 2328 
Q 1056 1369 1301 889 
Q 1547 409 2034 409 
Q 2525 409 2770 889 
Q 3016 1369 3016 2328 
Q 3016 3291 2770 3770 
Q 2525 4250 2034 4250 
z
M 2034 4750 
Q 2819 4750 3233 4129 
Q 3647 3509 3647 2328 
Q 3647 1150 3233 529 
Q 2819 -91 2034 -91 
Q 1250 -91 836 529 
Q 422 1150 422 2328 
Q 422 3509 836 4129 
Q 1250 4750 2034 4750 
z
" transform="scale(0.015625)"/>
       </defs>
       <use xlink:href="#DejaVuSans-30"/>
      </g>
     </g>
    </g>
    <g id="xtick_2">
     <g id="line2d_2">
      <g>
       <use xlink:href="#m5f3a7e74da" x="298.652933" y="548.12" style="stroke: #000000; stroke-width: 0.8"/>
      </g>
     </g>
     <g id="text_2">
      <!-- 50 -->
      <g transform="translate(292.290433 562.718437) scale(0.1 -0.1)">
       <defs>
        <path id="DejaVuSans-35" d="M 691 4666 
L 3169 4666 
L 3169 4134 
L 1269 4134 
L 1269 2991 
Q 1406 3038 1543 3061 
Q 1681 3084 1819 3084 
Q 2600 3084 3056 2656 
Q 3513 2228 3513 1497 
Q 3513 744 3044 326 
Q 2575 -91 1722 -91 
Q 1428 -91 1123 -41 
Q 819 9 494 109 
L 494 744 
Q 775 591 1075 516 
Q 1375 441 1709 441 
Q 2250 441 2565 725 
Q 2881 1009 2881 1497 
Q 2881 1984 2565 2268 
Q 2250 2553 1709 2553 
Q 1456 2553 1204 2497 
Q 953 2441 691 2322 
L 691 4666 
z
" transform="scale(0.015625)"/>
       </defs>
       <use xlink:href="#DejaVuSans-35"/>
       <use xlink:href="#DejaVuSans-30" x="63.623047"/>
      </g>
     </g>
    </g>
    <g id="xtick_3">
     <g id="line2d_3">
      <g>
       <use xlink:href="#m5f3a7e74da" x="499.88223" y="548.12" style="stroke: #000000; stroke-width: 0.8"/>
      </g>
     </g>
     <g id="text_3">
      <!-- 100 -->
      <g transform="translate(490.33848 562.718437) scale(0.1 -0.1)">
       <defs>
        <path id="DejaVuSans-31" d="M 794 531 
L 1825 531 
L 1825 4091 
L 703 3866 
L 703 4441 
L 1819 4666 
L 2450 4666 
L 2450 531 
L 3481 531 
L 3481 0 
L 794 0 
L 794 531 
z
" transform="scale(0.015625)"/>
       </defs>
       <use xlink:href="#DejaVuSans-31"/>
       <use xlink:href="#DejaVuSans-30" x="63.623047"/>
       <use xlink:href="#DejaVuSans-30" x="127.246094"/>
      </g>
     </g>
    </g>
    <g id="xtick_4">
     <g id="line2d_4">
      <g>
       <use xlink:href="#m5f3a7e74da" x="701.111527" y="548.12" style="stroke: #000000; stroke-width: 0.8"/>
      </g>
     </g>
     <g id="text_4">
      <!-- 150 -->
      <g transform="translate(691.567777 562.718437) scale(0.1 -0.1)">
       <use xlink:href="#DejaVuSans-31"/>
       <use xlink:href="#DejaVuSans-35" x="63.623047"/>
       <use xlink:href="#DejaVuSans-30" x="127.246094"/>
      </g>
     </g>
    </g>
    <g id="xtick_5">
     <g id="line2d_5">
      <g>
       <use xlink:href="#m5f3a7e74da" x="902.340824" y="548.12" style="stroke: #000000; stroke-width: 0.8"/>
      </g>
     </g>
     <g id="text_5">
      <!-- 200 -->
      <g transform="translate(892.797074 562.718437) scale(0.1 -0.1)">
       <defs>
        <path id="DejaVuSans-32" d="M 1228 531 
L 3431 531 
L 3431 0 
L 469 0 
L 469 531 
Q 828 903 1448 1529 
Q 2069 2156 2228 2338 
Q 2531 2678 2651 2914 
Q 2772 3150 2772 3378 
Q 2772 3750 2511 3984 
Q 2250 4219 1831 4219 
Q 1534 4219 1204 4116 
Q 875 4013 500 3803 
L 500 4441 
Q 881 4594 1212 4672 
Q 1544 4750 1819 4750 
Q 2544 4750 2975 4387 
Q 3406 4025 3406 3419 
Q 3406 3131 3298 2873 
Q 3191 2616 2906 2266 
Q 2828 2175 2409 1742 
Q 1991 1309 1228 531 
z
" transform="scale(0.015625)"/>
       </defs>
       <use xlink:href="#DejaVuSans-32"/>
       <use xlink:href="#DejaVuSans-30" x="63.623047"/>
       <use xlink:href="#DejaVuSans-30" x="127.246094"/>
      </g>
     </g>
    </g>
    <g id="xtick_6">
     <g id="line2d_6">
      <g>
       <use xlink:href="#m5f3a7e74da" x="1103.570121" y="548.12" style="stroke: #000000; stroke-width: 0.8"/>
      </g>
     </g>
     <g id="text_6">
      <!-- 250 -->
      <g transform="translate(1094.026371 562.718437) scale(0.1 -0.1)">
       <use xlink:href="#DejaVuSans-32"/>
       <use xlink:href="#DejaVuSans-35" x="63.623047"/>
       <use xlink:href="#DejaVuSans-30" x="127.246094"/>
      </g>
     </g>
    </g>
   </g>
   <g id="matplotlib.axis_2">
    <g id="ytick_1">
     <g id="line2d_7">
      <defs>
       <path id="mff1c8ebb57" d="M 0 0 
L -3.5 0 
" style="stroke: #000000; stroke-width: 0.8"/>
      </defs>
      <g>
       <use xlink:href="#mff1c8ebb57" x="47.72" y="548.12" style="stroke: #000000; stroke-width: 0.8"/>
      </g>
     </g>
     <g id="text_7">
      <!-- 0.0 -->
      <g transform="translate(24.816875 551.919219) scale(0.1 -0.1)">
       <defs>
        <path id="DejaVuSans-2e" d="M 684 794 
L 1344 794 
L 1344 0 
L 684 0 
L 684 794 
z
" transform="scale(0.015625)"/>
       </defs>
       <use xlink:href="#DejaVuSans-30"/>
       <use xlink:href="#DejaVuSans-2e" x="63.623047"/>
       <use xlink:href="#DejaVuSans-30" x="95.410156"/>
      </g>
     </g>
    </g>
    <g id="ytick_2">
     <g id="line2d_8">
      <g>
       <use xlink:href="#mff1c8ebb57" x="47.72" y="486.998537" style="stroke: #000000; stroke-width: 0.8"/>
      </g>
     </g>
     <g id="text_8">
      <!-- 0.5 -->
      <g transform="translate(24.816875 490.797756) scale(0.1 -0.1)">
       <use xlink:href="#DejaVuSans-30"/>
       <use xlink:href="#DejaVuSans-2e" x="63.623047"/>
       <use xlink:href="#DejaVuSans-35" x="95.410156"/>
      </g>
     </g>
    </g>
    <g id="ytick_3">
     <g id="line2d_9">
      <g>
       <use xlink:href="#mff1c8ebb57" x="47.72" y="425.877075" style="stroke: #000000; stroke-width: 0.8"/>
      </g>
     </g>
     <g id="text_9">
      <!-- 1.0 -->
      <g transform="translate(24.816875 429.676294) scale(0.1 -0.1)">
       <use xlink:href="#DejaVuSans-31"/>
       <use xlink:href="#DejaVuSans-2e" x="63.623047"/>
       <use xlink:href="#DejaVuSans-30" x="95.410156"/>
      </g>
     </g>
    </g>
    <g id="ytick_4">
     <g id="line2d_10">
      <g>
       <use xlink:href="#mff1c8ebb57" x="47.72" y="364.755612" style="stroke: #000000; stroke-width: 0.8"/>
      </g>
     </g>
     <g id="text_10">
      <!-- 1.5 -->
      <g transform="translate(24.816875 368.554831) scale(0.1 -0.1)">
       <use xlink:href="#DejaVuSans-31"/>
       <use xlink:href="#DejaVuSans-2e" x="63.623047"/>
       <use xlink:href="#DejaVuSans-35" x="95.410156"/>
      </g>
     </g>
    </g>
    <g id="ytick_5">
     <g id="line2d_11">
      <g>
       <use xlink:href="#mff1c8ebb57" x="47.72" y="303.63415" style="stroke: #000000; stroke-width: 0.8"/>
      </g>
     </g>
     <g id="text_11">
      <!-- 2.0 -->
      <g transform="translate(24.816875 307.433368) scale(0.1 -0.1)">
       <use xlink:href="#DejaVuSans-32"/>
       <use xlink:href="#DejaVuSans-2e" x="63.623047"/>
       <use xlink:href="#DejaVuSans-30" x="95.410156"/>
      </g>
     </g>
    </g>
    <g id="ytick_6">
     <g id="line2d_12">
      <g>
       <use xlink:href="#mff1c8ebb57" x="47.72" y="242.512687" style="stroke: #000000; stroke-width: 0.8"/>
      </g>
     </g>
     <g id="text_12">
      <!-- 2.5 -->
      <g transform="translate(24.816875 246.311906) scale(0.1 -0.1)">
       <use xlink:href="#DejaVuSans-32"/>
       <use xlink:href="#DejaVuSans-2e" x="63.623047"/>
       <use xlink:href="#DejaVuSans-35" x="95.410156"/>
      </g>
     </g>
    </g>
    <g id="ytick_7">
     <g id="line2d_13">
      <g>
       <use xlink:href="#mff1c8ebb57" x="47.72" y="181.391224" style="stroke: #000000; stroke-width: 0.8"/>
      </g>
     </g>
     <g id="text_13">
      <!-- 3.0 -->
      <g transform="translate(24.816875 185.190443) scale(0.1 -0.1)">
       <defs>
        <path id="DejaVuSans-33" d="M 2597 2516 
Q 3050 2419 3304 2112 
Q 3559 1806 3559 1356 
Q 3559 666 3084 287 
Q 2609 -91 1734 -91 
Q 1441 -91 1130 -33 
Q 819 25 488 141 
L 488 750 
Q 750 597 1062 519 
Q 1375 441 1716 441 
Q 2309 441 2620 675 
Q 2931 909 2931 1356 
Q 2931 1769 2642 2001 
Q 2353 2234 1838 2234 
L 1294 2234 
L 1294 2753 
L 1863 2753 
Q 2328 2753 2575 2939 
Q 2822 3125 2822 3475 
Q 2822 3834 2567 4026 
Q 2313 4219 1838 4219 
Q 1578 4219 1281 4162 
Q 984 4106 628 3988 
L 628 4550 
Q 988 4650 1302 4700 
Q 1616 4750 1894 4750 
Q 2613 4750 3031 4423 
Q 3450 4097 3450 3541 
Q 3450 3153 3228 2886 
Q 3006 2619 2597 2516 
z
" transform="scale(0.015625)"/>
       </defs>
       <use xlink:href="#DejaVuSans-33"/>
       <use xlink:href="#DejaVuSans-2e" x="63.623047"/>
       <use xlink:href="#DejaVuSans-30" x="95.410156"/>
      </g>
     </g>
    </g>
    <g id="ytick_8">
     <g id="line2d_14">
      <g>
       <use xlink:href="#mff1c8ebb57" x="47.72" y="120.269762" style="stroke: #000000; stroke-width: 0.8"/>
      </g>
     </g>
     <g id="text_14">
      <!-- 3.5 -->
      <g transform="translate(24.816875 124.068981) scale(0.1 -0.1)">
       <use xlink:href="#DejaVuSans-33"/>
       <use xlink:href="#DejaVuSans-2e" x="63.623047"/>
       <use xlink:href="#DejaVuSans-35" x="95.410156"/>
      </g>
     </g>
    </g>
    <g id="ytick_9">
     <g id="line2d_15">
      <g>
       <use xlink:href="#mff1c8ebb57" x="47.72" y="59.148299" style="stroke: #000000; stroke-width: 0.8"/>
      </g>
     </g>
     <g id="text_15">
      <!-- 4.0 -->
      <g transform="translate(24.816875 62.947518) scale(0.1 -0.1)">
       <defs>
        <path id="DejaVuSans-34" d="M 2419 4116 
L 825 1625 
L 2419 1625 
L 2419 4116 
z
M 2253 4666 
L 3047 4666 
L 3047 1625 
L 3713 1625 
L 3713 1100 
L 3047 1100 
L 3047 0 
L 2419 0 
L 2419 1100 
L 313 1100 
L 313 1709 
L 2253 4666 
z
" transform="scale(0.015625)"/>
       </defs>
       <use xlink:href="#DejaVuSans-34"/>
       <use xlink:href="#DejaVuSans-2e" x="63.623047"/>
       <use xlink:href="#DejaVuSans-30" x="95.410156"/>
      </g>
     </g>
    </g>
    <g id="text_16">
     <!-- milliseconds -->
     <g transform="translate(18.737187 310.324063) rotate(-90) scale(0.1 -0.1)">
      <defs>
       <path id="DejaVuSans-6d" d="M 3328 2828 
Q 3544 3216 3844 3400 
Q 4144 3584 4550 3584 
Q 5097 3584 5394 3201 
Q 5691 2819 5691 2113 
L 5691 0 
L 5113 0 
L 5113 2094 
Q 5113 2597 4934 2840 
Q 4756 3084 4391 3084 
Q 3944 3084 3684 2787 
Q 3425 2491 3425 1978 
L 3425 0 
L 2847 0 
L 2847 2094 
Q 2847 2600 2669 2842 
Q 2491 3084 2119 3084 
Q 1678 3084 1418 2786 
Q 1159 2488 1159 1978 
L 1159 0 
L 581 0 
L 581 3500 
L 1159 3500 
L 1159 2956 
Q 1356 3278 1631 3431 
Q 1906 3584 2284 3584 
Q 2666 3584 2933 3390 
Q 3200 3197 3328 2828 
z
" transform="scale(0.015625)"/>
       <path id="DejaVuSans-69" d="M 603 3500 
L 1178 3500 
L 1178 0 
L 603 0 
L 603 3500 
z
M 603 4863 
L 1178 4863 
L 1178 4134 
L 603 4134 
L 603 4863 
z
" transform="scale(0.015625)"/>
       <path id="DejaVuSans-6c" d="M 603 4863 
L 1178 4863 
L 1178 0 
L 603 0 
L 603 4863 
z
" transform="scale(0.015625)"/>
       <path id="DejaVuSans-73" d="M 2834 3397 
L 2834 2853 
Q 2591 2978 2328 3040 
Q 2066 3103 1784 3103 
Q 1356 3103 1142 2972 
Q 928 2841 928 2578 
Q 928 2378 1081 2264 
Q 1234 2150 1697 2047 
L 1894 2003 
Q 2506 1872 2764 1633 
Q 3022 1394 3022 966 
Q 3022 478 2636 193 
Q 2250 -91 1575 -91 
Q 1294 -91 989 -36 
Q 684 19 347 128 
L 347 722 
Q 666 556 975 473 
Q 1284 391 1588 391 
Q 1994 391 2212 530 
Q 2431 669 2431 922 
Q 2431 1156 2273 1281 
Q 2116 1406 1581 1522 
L 1381 1569 
Q 847 1681 609 1914 
Q 372 2147 372 2553 
Q 372 3047 722 3315 
Q 1072 3584 1716 3584 
Q 2034 3584 2315 3537 
Q 2597 3491 2834 3397 
z
" transform="scale(0.015625)"/>
       <path id="DejaVuSans-65" d="M 3597 1894 
L 3597 1613 
L 953 1613 
Q 991 1019 1311 708 
Q 1631 397 2203 397 
Q 2534 397 2845 478 
Q 3156 559 3463 722 
L 3463 178 
Q 3153 47 2828 -22 
Q 2503 -91 2169 -91 
Q 1331 -91 842 396 
Q 353 884 353 1716 
Q 353 2575 817 3079 
Q 1281 3584 2069 3584 
Q 2775 3584 3186 3129 
Q 3597 2675 3597 1894 
z
M 3022 2063 
Q 3016 2534 2758 2815 
Q 2500 3097 2075 3097 
Q 1594 3097 1305 2825 
Q 1016 2553 972 2059 
L 3022 2063 
z
" transform="scale(0.015625)"/>
       <path id="DejaVuSans-63" d="M 3122 3366 
L 3122 2828 
Q 2878 2963 2633 3030 
Q 2388 3097 2138 3097 
Q 1578 3097 1268 2742 
Q 959 2388 959 1747 
Q 959 1106 1268 751 
Q 1578 397 2138 397 
Q 2388 397 2633 464 
Q 2878 531 3122 666 
L 3122 134 
Q 2881 22 2623 -34 
Q 2366 -91 2075 -91 
Q 1284 -91 818 406 
Q 353 903 353 1747 
Q 353 2603 823 3093 
Q 1294 3584 2113 3584 
Q 2378 3584 2631 3529 
Q 2884 3475 3122 3366 
z
" transform="scale(0.015625)"/>
       <path id="DejaVuSans-6f" d="M 1959 3097 
Q 1497 3097 1228 2736 
Q 959 2375 959 1747 
Q 959 1119 1226 758 
Q 1494 397 1959 397 
Q 2419 397 2687 759 
Q 2956 1122 2956 1747 
Q 2956 2369 2687 2733 
Q 2419 3097 1959 3097 
z
M 1959 3584 
Q 2709 3584 3137 3096 
Q 3566 2609 3566 1747 
Q 3566 888 3137 398 
Q 2709 -91 1959 -91 
Q 1206 -91 779 398 
Q 353 888 353 1747 
Q 353 2609 779 3096 
Q 1206 3584 1959 3584 
z
" transform="scale(0.015625)"/>
       <path id="DejaVuSans-6e" d="M 3513 2113 
L 3513 0 
L 2938 0 
L 2938 2094 
Q 2938 2591 2744 2837 
Q 2550 3084 2163 3084 
Q 1697 3084 1428 2787 
Q 1159 2491 1159 1978 
L 1159 0 
L 581 0 
L 581 3500 
L 1159 3500 
L 1159 2956 
Q 1366 3272 1645 3428 
Q 1925 3584 2291 3584 
Q 2894 3584 3203 3211 
Q 3513 2838 3513 2113 
z
" transform="scale(0.015625)"/>
       <path id="DejaVuSans-64" d="M 2906 2969 
L 2906 4863 
L 3481 4863 
L 3481 0 
L 2906 0 
L 2906 525 
Q 2725 213 2448 61 
Q 2172 -91 1784 -91 
Q 1150 -91 751 415 
Q 353 922 353 1747 
Q 353 2572 751 3078 
Q 1150 3584 1784 3584 
Q 2172 3584 2448 3432 
Q 2725 3281 2906 2969 
z
M 947 1747 
Q 947 1113 1208 752 
Q 1469 391 1925 391 
Q 2381 391 2643 752 
Q 2906 1113 2906 1747 
Q 2906 2381 2643 2742 
Q 2381 3103 1925 3103 
Q 1469 3103 1208 2742 
Q 947 2381 947 1747 
z
" transform="scale(0.015625)"/>
      </defs>
      <use xlink:href="#DejaVuSans-6d"/>
      <use xlink:href="#DejaVuSans-69" x="97.412109"/>
      <use xlink:href="#DejaVuSans-6c" x="125.195312"/>
      <use xlink:href="#DejaVuSans-6c" x="152.978516"/>
      <use xlink:href="#DejaVuSans-69" x="180.761719"/>
      <use xlink:href="#DejaVuSans-73" x="208.544922"/>
      <use xlink:href="#DejaVuSans-65" x="260.644531"/>
      <use xlink:href="#DejaVuSans-63" x="322.167969"/>
      <use xlink:href="#DejaVuSans-6f" x="377.148438"/>
      <use xlink:href="#DejaVuSans-6e" x="438.330078"/>
      <use xlink:href="#DejaVuSans-64" x="501.708984"/>
      <use xlink:href="#DejaVuSans-73" x="565.185547"/>
     </g>
    </g>
   </g>
   <g id="line2d_16">
    <path d="M 97.423636 384.216686 
L 101.448222 382.982032 
L 105.472808 376.784316 
L 109.497394 375.537438 
L 113.52198 372.860318 
L 117.546566 366.821518 
L 121.571152 362.55524 
L 125.595738 358.680139 
L 129.620324 357.311018 
L 133.64491 356.809822 
L 137.669496 353.521487 
L 141.694082 352.861376 
L 145.718668 350.673227 
L 149.743254 348.216144 
L 153.76784 346.516968 
L 161.817011 346.382501 
L 165.841597 344.609978 
L 169.866183 324.745503 
L 173.890769 313.682518 
L 177.915355 309.41624 
L 181.939941 275.799436 
L 185.964527 271.203102 
L 189.989113 248.478142 
L 194.013699 221.352437 
L 198.038285 217.159504 
L 202.062871 213.455544 
L 206.087457 212.196442 
L 210.112043 209.103696 
L 214.136629 196.524899 
L 218.161215 193.505498 
L 222.185801 192.429761 
L 226.210386 192.038583 
L 230.234972 189.41036 
L 234.259558 188.261277 
L 238.284144 186.879932 
L 242.30873 184.740681 
L 246.333316 184.593989 
L 250.357902 184.068345 
L 254.382488 182.650327 
L 262.43166 181.000047 
L 266.456246 178.836347 
L 270.480832 178.249581 
L 274.505418 177.418329 
L 278.530004 177.112722 
L 282.55459 175.046817 
L 286.579176 173.751042 
L 290.603762 170.181548 
L 294.628347 169.802595 
L 298.652933 169.753698 
L 302.677519 168.702409 
L 306.702105 168.616839 
L 310.726691 166.697625 
L 314.751277 165.279607 
L 318.775863 164.338336 
L 322.800449 164.044953 
L 326.825035 163.470412 
L 330.849621 162.72473 
L 334.874207 161.771235 
L 338.898793 158.678489 
L 342.923379 157.920583 
L 346.947965 156.881518 
L 350.972551 156.820397 
L 354.997137 156.331425 
L 359.021722 154.827837 
L 363.046308 154.644472 
L 367.070894 154.216622 
L 371.09548 154.131052 
L 375.120066 152.541894 
L 383.169238 152.199614 
L 391.21841 151.270568 
L 395.242996 150.977185 
L 399.267582 149.962568 
L 403.292168 149.278008 
L 407.316754 148.960176 
L 411.34134 148.789036 
L 419.390512 147.676626 
L 423.415098 147.199878 
L 427.439683 147.187654 
L 431.464269 146.710907 
L 435.488855 146.099692 
L 439.513441 145.769636 
L 443.538027 144.877263 
L 447.562613 144.437188 
L 451.587199 143.434796 
L 471.710129 142.24904 
L 475.734715 141.552255 
L 479.759301 141.540031 
L 483.783887 141.087732 
L 487.808473 140.207583 
L 491.833059 139.645266 
L 499.88223 139.620817 
L 503.906816 139.131845 
L 507.931402 139.0585 
L 511.955988 138.043883 
L 515.980574 137.420444 
L 520.00516 136.381379 
L 524.029746 135.733492 
L 528.054332 134.339923 
L 532.078918 133.765381 
L 540.12809 133.190839 
L 544.152676 132.99525 
L 548.177262 132.212896 
L 556.226434 131.650578 
L 560.25102 131.503887 
L 568.300191 129.768037 
L 572.324777 129.548 
L 576.349363 129.010131 
L 580.373949 127.909945 
L 584.398535 127.775478 
L 588.423121 127.29873 
L 596.472293 126.846431 
L 600.496879 126.247441 
L 608.546051 125.941834 
L 612.570637 125.831815 
L 616.595223 125.440638 
L 620.619809 125.30617 
L 624.644395 125.025012 
L 628.66898 124.27933 
L 632.693566 124.02262 
L 636.718152 123.973723 
L 644.767324 123.558097 
L 648.79191 123.118022 
L 652.816496 122.494583 
L 656.841082 121.357724 
L 660.865668 120.575369 
L 664.890254 120.269762 
L 668.91484 120.184192 
L 672.939426 118.313875 
L 676.964012 117.873801 
L 680.988598 117.629315 
L 685.013184 116.834736 
L 697.086941 115.233353 
L 705.136113 114.756606 
L 709.160699 114.68326 
L 713.185285 114.16984 
L 717.209871 113.534177 
L 729.283629 113.057429 
L 737.332801 112.568458 
L 745.381973 112.299523 
L 753.431145 112.042813 
L 761.480317 110.759262 
L 769.529488 110.184721 
L 773.554074 110.184721 
L 777.57866 109.75687 
L 785.627832 109.732422 
L 789.652418 109.463487 
L 793.677004 109.047861 
L 797.70159 108.913394 
L 801.726176 108.204385 
L 805.750762 107.837656 
L 809.775348 107.654292 
L 813.799934 107.593171 
L 821.849106 107.030853 
L 825.873692 106.725246 
L 833.922863 106.444087 
L 837.947449 105.184985 
L 841.972035 104.696013 
L 845.996621 104.427079 
L 850.021207 103.583603 
L 858.070379 103.229098 
L 862.094965 102.776799 
L 866.119551 102.116688 
L 870.144137 100.649772 
L 874.168723 100.454184 
L 882.217895 99.464016 
L 890.267067 98.10712 
L 898.316238 97.972652 
L 902.340824 97.006933 
L 906.36541 96.762447 
L 914.414582 96.737999 
L 918.439168 96.187906 
L 926.48834 96.090111 
L 930.512926 94.525402 
L 934.537512 92.068319 
L 938.562098 91.87273 
L 942.586684 91.347086 
L 946.61127 88.278788 
L 950.635856 88.156545 
L 954.660442 87.850938 
L 958.685028 87.704247 
L 962.709614 87.141929 
L 970.758785 86.34735 
L 974.783371 85.479425 
L 982.832543 85.124921 
L 986.857129 84.721519 
L 994.906301 83.15681 
L 998.930887 83.083464 
L 1002.955473 82.411128 
L 1006.980059 81.958829 
L 1011.004645 81.812138 
L 1015.029231 81.07868 
L 1019.053817 80.22298 
L 1023.078403 79.856251 
L 1027.102989 79.318382 
L 1031.127575 79.208363 
L 1035.15216 76.714608 
L 1039.176746 74.428665 
L 1043.201332 73.438497 
L 1047.225918 72.912853 
L 1051.250504 72.154947 
L 1055.27509 71.05476 
L 1059.299676 70.443546 
L 1063.324262 66.262838 
L 1067.348848 65.125978 
L 1075.39802 63.781306 
L 1079.422606 62.913381 
L 1083.447192 43.574551 
L 1087.471778 42.731074 
L 1091.496364 36.386667 
L 1091.496364 36.386667 
" clip-path="url(#pb64b45c27b)" style="fill: none; stroke: #1f77b4; stroke-width: 5; stroke-linecap: square"/>
   </g>
   <g id="line2d_17">
    <path d="M 97.423636 319.843562 
L 101.448222 311.567716 
L 105.472808 312.77792 
L 109.497394 318.914515 
L 113.52198 319.489057 
L 117.546566 318.767824 
L 121.571152 312.142257 
L 125.595738 321.591635 
L 129.620324 318.217731 
L 133.64491 314.452649 
L 137.669496 310.944277 
L 141.694082 306.641326 
L 145.718668 310.333062 
L 149.743254 314.34263 
L 153.76784 309.92966 
L 157.792425 307.753736 
L 161.817011 313.120201 
L 165.841597 303.46301 
L 169.866183 299.844619 
L 173.890769 302.509515 
L 177.915355 306.775793 
L 181.939941 296.861892 
L 185.964527 291.116474 
L 189.989113 284.405338 
L 194.013699 294.221444 
L 198.038285 291.397633 
L 202.062871 282.645039 
L 206.087457 285.884477 
L 210.112043 275.958351 
L 214.136629 289.649559 
L 218.161215 285.358832 
L 222.185801 285.395505 
L 226.210386 283.965263 
L 230.234972 285.627767 
L 234.259558 292.412249 
L 238.284144 288.708289 
L 242.30873 283.818571 
L 246.333316 289.136139 
L 250.357902 288.048177 
L 254.382488 292.864548 
L 258.407074 282.498348 
L 262.43166 281.948255 
L 266.456246 278.623247 
L 270.480832 291.092026 
L 274.505418 280.73805 
L 278.530004 277.095211 
L 282.55459 293.377968 
L 286.579176 279.796779 
L 290.603762 280.689153 
L 294.628347 277.828668 
L 298.652933 274.24695 
L 302.677519 287.412513 
L 306.702105 283.855244 
L 310.726691 278.40321 
L 314.751277 281.385937 
L 318.775863 277.816444 
L 322.800449 280.383545 
L 326.825035 282.791731 
L 330.849621 277.131883 
L 334.874207 288.647167 
L 338.898793 287.938158 
L 342.923379 273.146764 
L 346.947965 278.036481 
L 350.972551 280.933638 
L 354.997137 283.023992 
L 359.021722 279.857901 
L 363.046308 268.856037 
L 367.070894 279.466723 
L 371.09548 283.84302 
L 375.120066 283.07289 
L 379.144652 280.48134 
L 383.169238 277.425267 
L 387.193824 273.024521 
L 391.21841 284.539805 
L 395.242996 280.505788 
L 399.267582 275.041529 
L 403.292168 282.241638 
L 407.316754 275.175997 
L 411.34134 278.122051 
L 415.365926 280.163508 
L 419.390512 272.87783 
L 423.415098 281.740442 
L 427.439683 274.405866 
L 431.464269 274.735922 
L 435.488855 273.696857 
L 439.513441 272.181045 
L 443.538027 274.968184 
L 447.562613 269.907327 
L 451.587199 283.048441 
L 455.611785 277.058538 
L 459.636371 276.373977 
L 463.660957 276.15394 
L 467.685543 281.703769 
L 471.710129 277.095211 
L 475.734715 270.824149 
L 479.759301 282.131619 
L 483.783887 283.182908 
L 487.808473 271.264223 
L 491.833059 282.412778 
L 495.857644 277.584182 
L 499.88223 271.39869 
L 503.906816 267.303552 
L 507.931402 270.71413 
L 511.955988 276.532893 
L 515.980574 277.938687 
L 520.00516 277.926463 
L 524.029746 272.071026 
L 528.054332 274.711474 
L 532.078918 277.681977 
L 536.103504 275.9828 
L 540.12809 275.603847 
L 544.152676 274.711474 
L 548.177262 276.031697 
L 552.201848 281.019209 
L 556.226434 276.985192 
L 560.25102 275.567174 
L 564.275605 272.095475 
L 568.300191 279.222238 
L 572.324777 278.953303 
L 576.349363 273.183437 
L 580.373949 275.053754 
L 584.398535 279.112219 
L 588.423121 269.650616 
L 592.447707 274.809268 
L 596.472293 273.782427 
L 600.496879 274.014689 
L 604.521465 274.992632 
L 608.546051 273.39125 
L 612.570637 280.689153 
L 616.595223 269.430579 
L 620.619809 273.501269 
L 624.644395 275.55495 
L 628.66898 272.53555 
L 632.693566 275.664968 
L 636.718152 272.291064 
L 640.742738 268.611552 
L 644.767324 273.195661 
L 648.79191 269.882878 
L 652.816496 279.992368 
L 656.841082 275.396034 
L 660.865668 268.794916 
L 664.890254 272.083251 
L 668.91484 272.181045 
L 672.939426 273.036745 
L 676.964012 275.616071 
L 680.988598 269.797308 
L 685.013184 276.618463 
L 689.03777 274.833716 
L 693.062356 267.584711 
L 697.086941 269.907327 
L 701.111527 275.102651 
L 705.136113 275.738314 
L 709.160699 269.039402 
L 713.185285 268.20815 
L 717.209871 274.503661 
L 721.234457 272.376634 
L 725.259043 272.804484 
L 729.283629 270.738579 
L 733.308215 275.432707 
L 737.332801 269.626168 
L 741.357387 271.117532 
L 745.381973 264.149685 
L 749.406559 262.670545 
L 753.431145 271.594279 
L 757.455731 268.929383 
L 761.480317 272.718914 
L 765.504902 268.477084 
L 769.529488 276.019473 
L 773.554074 266.093347 
L 777.57866 270.45742 
L 781.603246 275.310464 
L 785.627832 275.750538 
L 789.652418 274.222502 
L 793.677004 274.344745 
L 797.70159 268.257047 
L 801.726176 267.804748 
L 805.750762 268.97828 
L 809.775348 272.107699 
L 813.799934 270.274055 
L 817.82452 272.596671 
L 821.849106 268.37929 
L 825.873692 267.743627 
L 829.898278 269.076075 
L 833.922863 271.007513 
L 837.947449 268.856037 
L 841.972035 269.772859 
L 845.996621 256.203895 
L 850.021207 270.726354 
L 854.045793 260.812453 
L 858.070379 273.794652 
L 862.094965 274.24695 
L 866.119551 264.822021 
L 870.144137 264.687554 
L 874.168723 251.656458 
L 878.193309 265.249871 
L 882.217895 261.851518 
L 886.242481 264.883142 
L 890.267067 268.538206 
L 894.291653 266.288936 
L 898.316238 272.804484 
L 902.340824 269.956224 
L 906.36541 265.164301 
L 910.389996 262.462732 
L 914.414582 266.056674 
L 918.439168 272.53555 
L 922.463754 267.328001 
L 926.48834 267.205758 
L 930.512926 262.474957 
L 934.537512 261.056939 
L 938.562098 264.320825 
L 942.586684 265.78774 
L 946.61127 263.587367 
L 950.635856 258.09866 
L 954.660442 266.765683 
L 958.685028 263.171741 
L 962.709614 266.680113 
L 966.734199 275.249342 
L 970.758785 267.107964 
L 974.783371 265.946656 
L 978.807957 268.098131 
L 982.832543 265.897759 
L 986.857129 266.973496 
L 990.881715 265.054282 
L 994.906301 263.526246 
L 998.930887 261.313649 
L 1002.955473 264.076339 
L 1006.980059 268.89271 
L 1011.004645 266.949048 
L 1015.029231 264.381946 
L 1019.053817 267.853645 
L 1023.078403 266.961272 
L 1027.102989 266.570095 
L 1031.127575 268.000337 
L 1035.15216 271.496485 
L 1039.176746 262.841686 
L 1043.201332 260.311257 
L 1047.225918 264.308601 
L 1051.250504 259.822285 
L 1055.27509 265.799964 
L 1059.299676 265.200974 
L 1063.324262 266.973496 
L 1067.348848 263.807405 
L 1071.373434 265.090955 
L 1075.39802 265.139853 
L 1079.422606 261.497013 
L 1083.447192 263.073947 
L 1087.471778 263.978545 
L 1091.496364 256.313913 
L 1091.496364 256.313913 
" clip-path="url(#pb64b45c27b)" style="fill: none; stroke: #ff7f0e; stroke-width: 1.5; stroke-linecap: square"/>
   </g>
   <g id="patch_3">
    <path d="M 47.72 548.12 
L 47.72 10.8 
" style="fill: none; stroke: #000000; stroke-width: 0.8; stroke-linejoin: miter; stroke-linecap: square"/>
   </g>
   <g id="patch_4">
    <path d="M 1141.2 548.12 
L 1141.2 10.8 
" style="fill: none; stroke: #000000; stroke-width: 0.8; stroke-linejoin: miter; stroke-linecap: square"/>
   </g>
   <g id="patch_5">
    <path d="M 47.72 548.12 
L 1141.2 548.12 
" style="fill: none; stroke: #000000; stroke-width: 0.8; stroke-linejoin: miter; stroke-linecap: square"/>
   </g>
   <g id="patch_6">
    <path d="M 47.72 10.8 
L 1141.2 10.8 
" style="fill: none; stroke: #000000; stroke-width: 0.8; stroke-linejoin: miter; stroke-linecap: square"/>
   </g>
   <g id="legend_1">
    <g id="patch_7">
     <path d="M 54.72 48.15625 
L 147.777813 48.15625 
Q 149.777813 48.15625 149.777813 46.15625 
L 149.777813 17.8 
Q 149.777813 15.8 147.777813 15.8 
L 54.72 15.8 
Q 52.72 15.8 52.72 17.8 
L 52.72 46.15625 
Q 52.72 48.15625 54.72 48.15625 
z
" style="fill: #ffffff; opacity: 0.8; stroke: #cccccc; stroke-linejoin: miter"/>
    </g>
    <g id="line2d_18">
     <path d="M 56.72 23.898438 
L 66.72 23.898438 
L 76.72 23.898438 
" style="fill: none; stroke: #1f77b4; stroke-width: 5; stroke-linecap: square"/>
    </g>
    <g id="text_17">
     <!-- PNG decode -->
     <g transform="translate(84.72 27.398438) scale(0.1 -0.1)">
      <defs>
       <path id="DejaVuSans-50" d="M 1259 4147 
L 1259 2394 
L 2053 2394 
Q 2494 2394 2734 2622 
Q 2975 2850 2975 3272 
Q 2975 3691 2734 3919 
Q 2494 4147 2053 4147 
L 1259 4147 
z
M 628 4666 
L 2053 4666 
Q 2838 4666 3239 4311 
Q 3641 3956 3641 3272 
Q 3641 2581 3239 2228 
Q 2838 1875 2053 1875 
L 1259 1875 
L 1259 0 
L 628 0 
L 628 4666 
z
" transform="scale(0.015625)"/>
       <path id="DejaVuSans-4e" d="M 628 4666 
L 1478 4666 
L 3547 763 
L 3547 4666 
L 4159 4666 
L 4159 0 
L 3309 0 
L 1241 3903 
L 1241 0 
L 628 0 
L 628 4666 
z
" transform="scale(0.015625)"/>
       <path id="DejaVuSans-47" d="M 3809 666 
L 3809 1919 
L 2778 1919 
L 2778 2438 
L 4434 2438 
L 4434 434 
Q 4069 175 3628 42 
Q 3188 -91 2688 -91 
Q 1594 -91 976 548 
Q 359 1188 359 2328 
Q 359 3472 976 4111 
Q 1594 4750 2688 4750 
Q 3144 4750 3555 4637 
Q 3966 4525 4313 4306 
L 4313 3634 
Q 3963 3931 3569 4081 
Q 3175 4231 2741 4231 
Q 1884 4231 1454 3753 
Q 1025 3275 1025 2328 
Q 1025 1384 1454 906 
Q 1884 428 2741 428 
Q 3075 428 3337 486 
Q 3600 544 3809 666 
z
" transform="scale(0.015625)"/>
       <path id="DejaVuSans-20" transform="scale(0.015625)"/>
      </defs>
      <use xlink:href="#DejaVuSans-50"/>
      <use xlink:href="#DejaVuSans-4e" x="60.302734"/>
      <use xlink:href="#DejaVuSans-47" x="135.107422"/>
      <use xlink:href="#DejaVuSans-20" x="212.597656"/>
      <use xlink:href="#DejaVuSans-64" x="244.384766"/>
      <use xlink:href="#DejaVuSans-65" x="307.861328"/>
      <use xlink:href="#DejaVuSans-63" x="369.384766"/>
      <use xlink:href="#DejaVuSans-6f" x="424.365234"/>
      <use xlink:href="#DejaVuSans-64" x="485.546875"/>
      <use xlink:href="#DejaVuSans-65" x="549.023438"/>
     </g>
    </g>
    <g id="line2d_19">
     <path d="M 56.72 38.576563 
L 66.72 38.576563 
L 76.72 38.576563 
" style="fill: none; stroke: #ff7f0e; stroke-width: 1.5; stroke-linecap: square"/>
    </g>
    <g id="text_18">
     <!-- QB3 decode -->
     <g transform="translate(84.72 42.076563) scale(0.1 -0.1)">
      <defs>
       <path id="DejaVuSans-51" d="M 2522 4238 
Q 1834 4238 1429 3725 
Q 1025 3213 1025 2328 
Q 1025 1447 1429 934 
Q 1834 422 2522 422 
Q 3209 422 3611 934 
Q 4013 1447 4013 2328 
Q 4013 3213 3611 3725 
Q 3209 4238 2522 4238 
z
M 3406 84 
L 4238 -825 
L 3475 -825 
L 2784 -78 
Q 2681 -84 2626 -87 
Q 2572 -91 2522 -91 
Q 1538 -91 948 567 
Q 359 1225 359 2328 
Q 359 3434 948 4092 
Q 1538 4750 2522 4750 
Q 3503 4750 4090 4092 
Q 4678 3434 4678 2328 
Q 4678 1516 4351 937 
Q 4025 359 3406 84 
z
" transform="scale(0.015625)"/>
       <path id="DejaVuSans-42" d="M 1259 2228 
L 1259 519 
L 2272 519 
Q 2781 519 3026 730 
Q 3272 941 3272 1375 
Q 3272 1813 3026 2020 
Q 2781 2228 2272 2228 
L 1259 2228 
z
M 1259 4147 
L 1259 2741 
L 2194 2741 
Q 2656 2741 2882 2914 
Q 3109 3088 3109 3444 
Q 3109 3797 2882 3972 
Q 2656 4147 2194 4147 
L 1259 4147 
z
M 628 4666 
L 2241 4666 
Q 2963 4666 3353 4366 
Q 3744 4066 3744 3513 
Q 3744 3084 3544 2831 
Q 3344 2578 2956 2516 
Q 3422 2416 3680 2098 
Q 3938 1781 3938 1306 
Q 3938 681 3513 340 
Q 3088 0 2303 0 
L 628 0 
L 628 4666 
z
" transform="scale(0.015625)"/>
      </defs>
      <use xlink:href="#DejaVuSans-51"/>
      <use xlink:href="#DejaVuSans-42" x="78.710938"/>
      <use xlink:href="#DejaVuSans-33" x="147.314453"/>
      <use xlink:href="#DejaVuSans-20" x="210.9375"/>
      <use xlink:href="#DejaVuSans-64" x="242.724609"/>
      <use xlink:href="#DejaVuSans-65" x="306.201172"/>
      <use xlink:href="#DejaVuSans-63" x="367.724609"/>
      <use xlink:href="#DejaVuSans-6f" x="422.705078"/>
      <use xlink:href="#DejaVuSans-64" x="483.886719"/>
      <use xlink:href="#DejaVuSans-65" x="547.363281"/>
     </g>
    </g>
   </g>
  </g>
 </g>
 <defs>
  <clipPath id="pb64b45c27b">
   <rect x="47.72" y="10.8" width="1093.48" height="537.32"/>
  </clipPath>
 </defs>
</svg>
