<?xml version="1.0" encoding="utf-8" standalone="no"?>
<!DOCTYPE svg PUBLIC "-//W3C//DTD SVG 1.1//EN"
  "http://www.w3.org/Graphics/SVG/1.1/DTD/svg11.dtd">
<svg xmlns:xlink="http://www.w3.org/1999/xlink" width="1440pt" height="720pt" viewBox="0 0 1440 720" xmlns="http://www.w3.org/2000/svg" version="1.1">
 <metadata>
  <rdf:RDF xmlns:dc="http://purl.org/dc/elements/1.1/" xmlns:cc="http://creativecommons.org/ns#" xmlns:rdf="http://www.w3.org/1999/02/22-rdf-syntax-ns#">
   <cc:Work>
    <dc:type rdf:resource="http://purl.org/dc/dcmitype/StillImage"/>
    <dc:date>2025-03-20T10:52:03.418413</dc:date>
    <dc:format>image/svg+xml</dc:format>
    <dc:creator>
     <cc:Agent>
      <dc:title>Matplotlib v3.9.0, https://matplotlib.org/</dc:title>
     </cc:Agent>
    </dc:creator>
   </cc:Work>
  </rdf:RDF>
 </metadata>
 <defs>
  <style type="text/css">*{stroke-linejoin: round; stroke-linecap: butt}</style>
 </defs>
 <g id="figure_1">
  <g id="patch_1">
   <path d="M 0 720 
L 1440 720 
L 1440 0 
L 0 0 
z
" style="fill: #ffffff"/>
  </g>
  <g id="axes_1">
   <g id="patch_2">
    <path d="M 47.72 692.12 
L 1429.2 692.12 
L 1429.2 10.8 
L 47.72 10.8 
z
" style="fill: #ffffff"/>
   </g>
   <g id="matplotlib.axis_1">
    <g id="xtick_1">
     <g id="line2d_1">
      <defs>
       <path id="m95ed0a7c7e" d="M 0 0 
L 0 3.5 
" style="stroke: #000000; stroke-width: 0.8"/>
      </defs>
      <g>
       <use xlink:href="#m95ed0a7c7e" x="110.514545" y="692.12" style="stroke: #000000; stroke-width: 0.8"/>
      </g>
     </g>
     <g id="text_1">
      <!-- 0 -->
      <g transform="translate(107.333295 706.718438) scale(0.1 -0.1)">
       <defs>
        <path id="DejaVuSans-30" d="M 2034 4250 
Q 1547 4250 1301 3770 
Q 1056 3291 1056 2328 
Q 1056 1369 1301 889 
Q 1547 409 2034 409 
Q 2525 409 2770 889 
Q 3016 1369 3016 2328 
Q 3016 3291 2770 3770 
Q 2525 4250 2034 4250 
z
M 2034 4750 
Q 2819 4750 3233 4129 
Q 3647 3509 3647 2328 
Q 3647 1150 3233 529 
Q 2819 -91 2034 -91 
Q 1250 -91 836 529 
Q 422 1150 422 2328 
Q 422 3509 836 4129 
Q 1250 4750 2034 4750 
z
" transform="scale(0.015625)"/>
       </defs>
       <use xlink:href="#DejaVuSans-30"/>
      </g>
     </g>
    </g>
    <g id="xtick_2">
     <g id="line2d_2">
      <g>
       <use xlink:href="#m95ed0a7c7e" x="364.743474" y="692.12" style="stroke: #000000; stroke-width: 0.8"/>
      </g>
     </g>
     <g id="text_2">
      <!-- 50 -->
      <g transform="translate(358.380974 706.718438) scale(0.1 -0.1)">
       <defs>
        <path id="DejaVuSans-35" d="M 691 4666 
L 3169 4666 
L 3169 4134 
L 1269 4134 
L 1269 2991 
Q 1406 3038 1543 3061 
Q 1681 3084 1819 3084 
Q 2600 3084 3056 2656 
Q 3513 2228 3513 1497 
Q 3513 744 3044 326 
Q 2575 -91 1722 -91 
Q 1428 -91 1123 -41 
Q 819 9 494 109 
L 494 744 
Q 775 591 1075 516 
Q 1375 441 1709 441 
Q 2250 441 2565 725 
Q 2881 1009 2881 1497 
Q 2881 1984 2565 2268 
Q 2250 2553 1709 2553 
Q 1456 2553 1204 2497 
Q 953 2441 691 2322 
L 691 4666 
z
" transform="scale(0.015625)"/>
       </defs>
       <use xlink:href="#DejaVuSans-35"/>
       <use xlink:href="#DejaVuSans-30" x="63.623047"/>
      </g>
     </g>
    </g>
    <g id="xtick_3">
     <g id="line2d_3">
      <g>
       <use xlink:href="#m95ed0a7c7e" x="618.972403" y="692.12" style="stroke: #000000; stroke-width: 0.8"/>
      </g>
     </g>
     <g id="text_3">
      <!-- 100 -->
      <g transform="translate(609.428653 706.718438) scale(0.1 -0.1)">
       <defs>
        <path id="DejaVuSans-31" d="M 794 531 
L 1825 531 
L 1825 4091 
L 703 3866 
L 703 4441 
L 1819 4666 
L 2450 4666 
L 2450 531 
L 3481 531 
L 3481 0 
L 794 0 
L 794 531 
z
" transform="scale(0.015625)"/>
       </defs>
       <use xlink:href="#DejaVuSans-31"/>
       <use xlink:href="#DejaVuSans-30" x="63.623047"/>
       <use xlink:href="#DejaVuSans-30" x="127.246094"/>
      </g>
     </g>
    </g>
    <g id="xtick_4">
     <g id="line2d_4">
      <g>
       <use xlink:href="#m95ed0a7c7e" x="873.201332" y="692.12" style="stroke: #000000; stroke-width: 0.8"/>
      </g>
     </g>
     <g id="text_4">
      <!-- 150 -->
      <g transform="translate(863.657582 706.718438) scale(0.1 -0.1)">
       <use xlink:href="#DejaVuSans-31"/>
       <use xlink:href="#DejaVuSans-35" x="63.623047"/>
       <use xlink:href="#DejaVuSans-30" x="127.246094"/>
      </g>
     </g>
    </g>
    <g id="xtick_5">
     <g id="line2d_5">
      <g>
       <use xlink:href="#m95ed0a7c7e" x="1127.430261" y="692.12" style="stroke: #000000; stroke-width: 0.8"/>
      </g>
     </g>
     <g id="text_5">
      <!-- 200 -->
      <g transform="translate(1117.886511 706.718438) scale(0.1 -0.1)">
       <defs>
        <path id="DejaVuSans-32" d="M 1228 531 
L 3431 531 
L 3431 0 
L 469 0 
L 469 531 
Q 828 903 1448 1529 
Q 2069 2156 2228 2338 
Q 2531 2678 2651 2914 
Q 2772 3150 2772 3378 
Q 2772 3750 2511 3984 
Q 2250 4219 1831 4219 
Q 1534 4219 1204 4116 
Q 875 4013 500 3803 
L 500 4441 
Q 881 4594 1212 4672 
Q 1544 4750 1819 4750 
Q 2544 4750 2975 4387 
Q 3406 4025 3406 3419 
Q 3406 3131 3298 2873 
Q 3191 2616 2906 2266 
Q 2828 2175 2409 1742 
Q 1991 1309 1228 531 
z
" transform="scale(0.015625)"/>
       </defs>
       <use xlink:href="#DejaVuSans-32"/>
       <use xlink:href="#DejaVuSans-30" x="63.623047"/>
       <use xlink:href="#DejaVuSans-30" x="127.246094"/>
      </g>
     </g>
    </g>
    <g id="xtick_6">
     <g id="line2d_6">
      <g>
       <use xlink:href="#m95ed0a7c7e" x="1381.65919" y="692.12" style="stroke: #000000; stroke-width: 0.8"/>
      </g>
     </g>
     <g id="text_6">
      <!-- 250 -->
      <g transform="translate(1372.11544 706.718438) scale(0.1 -0.1)">
       <use xlink:href="#DejaVuSans-32"/>
       <use xlink:href="#DejaVuSans-35" x="63.623047"/>
       <use xlink:href="#DejaVuSans-30" x="127.246094"/>
      </g>
     </g>
    </g>
   </g>
   <g id="matplotlib.axis_2">
    <g id="ytick_1">
     <g id="line2d_7">
      <defs>
       <path id="mfb597ec3f7" d="M 0 0 
L -3.5 0 
" style="stroke: #000000; stroke-width: 0.8"/>
      </defs>
      <g>
       <use xlink:href="#mfb597ec3f7" x="47.72" y="625.109341" style="stroke: #000000; stroke-width: 0.8"/>
      </g>
     </g>
     <g id="text_7">
      <!-- 1.5 -->
      <g transform="translate(24.816875 628.90856) scale(0.1 -0.1)">
       <defs>
        <path id="DejaVuSans-2e" d="M 684 794 
L 1344 794 
L 1344 0 
L 684 0 
L 684 794 
z
" transform="scale(0.015625)"/>
       </defs>
       <use xlink:href="#DejaVuSans-31"/>
       <use xlink:href="#DejaVuSans-2e" x="63.623047"/>
       <use xlink:href="#DejaVuSans-35" x="95.410156"/>
      </g>
     </g>
    </g>
    <g id="ytick_2">
     <g id="line2d_8">
      <g>
       <use xlink:href="#mfb597ec3f7" x="47.72" y="516.746239" style="stroke: #000000; stroke-width: 0.8"/>
      </g>
     </g>
     <g id="text_8">
      <!-- 2.0 -->
      <g transform="translate(24.816875 520.545458) scale(0.1 -0.1)">
       <use xlink:href="#DejaVuSans-32"/>
       <use xlink:href="#DejaVuSans-2e" x="63.623047"/>
       <use xlink:href="#DejaVuSans-30" x="95.410156"/>
      </g>
     </g>
    </g>
    <g id="ytick_3">
     <g id="line2d_9">
      <g>
       <use xlink:href="#mfb597ec3f7" x="47.72" y="408.383137" style="stroke: #000000; stroke-width: 0.8"/>
      </g>
     </g>
     <g id="text_9">
      <!-- 2.5 -->
      <g transform="translate(24.816875 412.182356) scale(0.1 -0.1)">
       <use xlink:href="#DejaVuSans-32"/>
       <use xlink:href="#DejaVuSans-2e" x="63.623047"/>
       <use xlink:href="#DejaVuSans-35" x="95.410156"/>
      </g>
     </g>
    </g>
    <g id="ytick_4">
     <g id="line2d_10">
      <g>
       <use xlink:href="#mfb597ec3f7" x="47.72" y="300.020035" style="stroke: #000000; stroke-width: 0.8"/>
      </g>
     </g>
     <g id="text_10">
      <!-- 3.0 -->
      <g transform="translate(24.816875 303.819254) scale(0.1 -0.1)">
       <defs>
        <path id="DejaVuSans-33" d="M 2597 2516 
Q 3050 2419 3304 2112 
Q 3559 1806 3559 1356 
Q 3559 666 3084 287 
Q 2609 -91 1734 -91 
Q 1441 -91 1130 -33 
Q 819 25 488 141 
L 488 750 
Q 750 597 1062 519 
Q 1375 441 1716 441 
Q 2309 441 2620 675 
Q 2931 909 2931 1356 
Q 2931 1769 2642 2001 
Q 2353 2234 1838 2234 
L 1294 2234 
L 1294 2753 
L 1863 2753 
Q 2328 2753 2575 2939 
Q 2822 3125 2822 3475 
Q 2822 3834 2567 4026 
Q 2313 4219 1838 4219 
Q 1578 4219 1281 4162 
Q 984 4106 628 3988 
L 628 4550 
Q 988 4650 1302 4700 
Q 1616 4750 1894 4750 
Q 2613 4750 3031 4423 
Q 3450 4097 3450 3541 
Q 3450 3153 3228 2886 
Q 3006 2619 2597 2516 
z
" transform="scale(0.015625)"/>
       </defs>
       <use xlink:href="#DejaVuSans-33"/>
       <use xlink:href="#DejaVuSans-2e" x="63.623047"/>
       <use xlink:href="#DejaVuSans-30" x="95.410156"/>
      </g>
     </g>
    </g>
    <g id="ytick_5">
     <g id="line2d_11">
      <g>
       <use xlink:href="#mfb597ec3f7" x="47.72" y="191.656934" style="stroke: #000000; stroke-width: 0.8"/>
      </g>
     </g>
     <g id="text_11">
      <!-- 3.5 -->
      <g transform="translate(24.816875 195.456152) scale(0.1 -0.1)">
       <use xlink:href="#DejaVuSans-33"/>
       <use xlink:href="#DejaVuSans-2e" x="63.623047"/>
       <use xlink:href="#DejaVuSans-35" x="95.410156"/>
      </g>
     </g>
    </g>
    <g id="ytick_6">
     <g id="line2d_12">
      <g>
       <use xlink:href="#mfb597ec3f7" x="47.72" y="83.293832" style="stroke: #000000; stroke-width: 0.8"/>
      </g>
     </g>
     <g id="text_12">
      <!-- 4.0 -->
      <g transform="translate(24.816875 87.09305) scale(0.1 -0.1)">
       <defs>
        <path id="DejaVuSans-34" d="M 2419 4116 
L 825 1625 
L 2419 1625 
L 2419 4116 
z
M 2253 4666 
L 3047 4666 
L 3047 1625 
L 3713 1625 
L 3713 1100 
L 3047 1100 
L 3047 0 
L 2419 0 
L 2419 1100 
L 313 1100 
L 313 1709 
L 2253 4666 
z
" transform="scale(0.015625)"/>
       </defs>
       <use xlink:href="#DejaVuSans-34"/>
       <use xlink:href="#DejaVuSans-2e" x="63.623047"/>
       <use xlink:href="#DejaVuSans-30" x="95.410156"/>
      </g>
     </g>
    </g>
    <g id="text_13">
     <!-- milliseconds -->
     <g transform="translate(18.737187 382.324063) rotate(-90) scale(0.1 -0.1)">
      <defs>
       <path id="DejaVuSans-6d" d="M 3328 2828 
Q 3544 3216 3844 3400 
Q 4144 3584 4550 3584 
Q 5097 3584 5394 3201 
Q 5691 2819 5691 2113 
L 5691 0 
L 5113 0 
L 5113 2094 
Q 5113 2597 4934 2840 
Q 4756 3084 4391 3084 
Q 3944 3084 3684 2787 
Q 3425 2491 3425 1978 
L 3425 0 
L 2847 0 
L 2847 2094 
Q 2847 2600 2669 2842 
Q 2491 3084 2119 3084 
Q 1678 3084 1418 2786 
Q 1159 2488 1159 1978 
L 1159 0 
L 581 0 
L 581 3500 
L 1159 3500 
L 1159 2956 
Q 1356 3278 1631 3431 
Q 1906 3584 2284 3584 
Q 2666 3584 2933 3390 
Q 3200 3197 3328 2828 
z
" transform="scale(0.015625)"/>
       <path id="DejaVuSans-69" d="M 603 3500 
L 1178 3500 
L 1178 0 
L 603 0 
L 603 3500 
z
M 603 4863 
L 1178 4863 
L 1178 4134 
L 603 4134 
L 603 4863 
z
" transform="scale(0.015625)"/>
       <path id="DejaVuSans-6c" d="M 603 4863 
L 1178 4863 
L 1178 0 
L 603 0 
L 603 4863 
z
" transform="scale(0.015625)"/>
       <path id="DejaVuSans-73" d="M 2834 3397 
L 2834 2853 
Q 2591 2978 2328 3040 
Q 2066 3103 1784 3103 
Q 1356 3103 1142 2972 
Q 928 2841 928 2578 
Q 928 2378 1081 2264 
Q 1234 2150 1697 2047 
L 1894 2003 
Q 2506 1872 2764 1633 
Q 3022 1394 3022 966 
Q 3022 478 2636 193 
Q 2250 -91 1575 -91 
Q 1294 -91 989 -36 
Q 684 19 347 128 
L 347 722 
Q 666 556 975 473 
Q 1284 391 1588 391 
Q 1994 391 2212 530 
Q 2431 669 2431 922 
Q 2431 1156 2273 1281 
Q 2116 1406 1581 1522 
L 1381 1569 
Q 847 1681 609 1914 
Q 372 2147 372 2553 
Q 372 3047 722 3315 
Q 1072 3584 1716 3584 
Q 2034 3584 2315 3537 
Q 2597 3491 2834 3397 
z
" transform="scale(0.015625)"/>
       <path id="DejaVuSans-65" d="M 3597 1894 
L 3597 1613 
L 953 1613 
Q 991 1019 1311 708 
Q 1631 397 2203 397 
Q 2534 397 2845 478 
Q 3156 559 3463 722 
L 3463 178 
Q 3153 47 2828 -22 
Q 2503 -91 2169 -91 
Q 1331 -91 842 396 
Q 353 884 353 1716 
Q 353 2575 817 3079 
Q 1281 3584 2069 3584 
Q 2775 3584 3186 3129 
Q 3597 2675 3597 1894 
z
M 3022 2063 
Q 3016 2534 2758 2815 
Q 2500 3097 2075 3097 
Q 1594 3097 1305 2825 
Q 1016 2553 972 2059 
L 3022 2063 
z
" transform="scale(0.015625)"/>
       <path id="DejaVuSans-63" d="M 3122 3366 
L 3122 2828 
Q 2878 2963 2633 3030 
Q 2388 3097 2138 3097 
Q 1578 3097 1268 2742 
Q 959 2388 959 1747 
Q 959 1106 1268 751 
Q 1578 397 2138 397 
Q 2388 397 2633 464 
Q 2878 531 3122 666 
L 3122 134 
Q 2881 22 2623 -34 
Q 2366 -91 2075 -91 
Q 1284 -91 818 406 
Q 353 903 353 1747 
Q 353 2603 823 3093 
Q 1294 3584 2113 3584 
Q 2378 3584 2631 3529 
Q 2884 3475 3122 3366 
z
" transform="scale(0.015625)"/>
       <path id="DejaVuSans-6f" d="M 1959 3097 
Q 1497 3097 1228 2736 
Q 959 2375 959 1747 
Q 959 1119 1226 758 
Q 1494 397 1959 397 
Q 2419 397 2687 759 
Q 2956 1122 2956 1747 
Q 2956 2369 2687 2733 
Q 2419 3097 1959 3097 
z
M 1959 3584 
Q 2709 3584 3137 3096 
Q 3566 2609 3566 1747 
Q 3566 888 3137 398 
Q 2709 -91 1959 -91 
Q 1206 -91 779 398 
Q 353 888 353 1747 
Q 353 2609 779 3096 
Q 1206 3584 1959 3584 
z
" transform="scale(0.015625)"/>
       <path id="DejaVuSans-6e" d="M 3513 2113 
L 3513 0 
L 2938 0 
L 2938 2094 
Q 2938 2591 2744 2837 
Q 2550 3084 2163 3084 
Q 1697 3084 1428 2787 
Q 1159 2491 1159 1978 
L 1159 0 
L 581 0 
L 581 3500 
L 1159 3500 
L 1159 2956 
Q 1366 3272 1645 3428 
Q 1925 3584 2291 3584 
Q 2894 3584 3203 3211 
Q 3513 2838 3513 2113 
z
" transform="scale(0.015625)"/>
       <path id="DejaVuSans-64" d="M 2906 2969 
L 2906 4863 
L 3481 4863 
L 3481 0 
L 2906 0 
L 2906 525 
Q 2725 213 2448 61 
Q 2172 -91 1784 -91 
Q 1150 -91 751 415 
Q 353 922 353 1747 
Q 353 2572 751 3078 
Q 1150 3584 1784 3584 
Q 2172 3584 2448 3432 
Q 2725 3281 2906 2969 
z
M 947 1747 
Q 947 1113 1208 752 
Q 1469 391 1925 391 
Q 2381 391 2643 752 
Q 2906 1113 2906 1747 
Q 2906 2381 2643 2742 
Q 2381 3103 1925 3103 
Q 1469 3103 1208 2742 
Q 947 2381 947 1747 
z
" transform="scale(0.015625)"/>
      </defs>
      <use xlink:href="#DejaVuSans-6d"/>
      <use xlink:href="#DejaVuSans-69" x="97.412109"/>
      <use xlink:href="#DejaVuSans-6c" x="125.195312"/>
      <use xlink:href="#DejaVuSans-6c" x="152.978516"/>
      <use xlink:href="#DejaVuSans-69" x="180.761719"/>
      <use xlink:href="#DejaVuSans-73" x="208.544922"/>
      <use xlink:href="#DejaVuSans-65" x="260.644531"/>
      <use xlink:href="#DejaVuSans-63" x="322.167969"/>
      <use xlink:href="#DejaVuSans-6f" x="377.148438"/>
      <use xlink:href="#DejaVuSans-6e" x="438.330078"/>
      <use xlink:href="#DejaVuSans-64" x="501.708984"/>
      <use xlink:href="#DejaVuSans-73" x="565.185547"/>
     </g>
    </g>
   </g>
   <g id="line2d_13">
    <path d="M 110.514545 661.150909 
L 115.599124 644.528009 
L 120.683703 641.017045 
L 125.768281 635.122092 
L 130.85286 632.586395 
L 135.937438 626.561407 
L 141.022017 612.929329 
L 146.106596 611.650644 
L 151.191174 602.504798 
L 156.275753 601.767929 
L 161.360331 601.507858 
L 166.44491 601.117751 
L 171.529488 594.962726 
L 176.614067 590.108059 
L 181.698646 588.070833 
L 186.783224 582.631005 
L 191.867803 581.655737 
L 196.952381 574.373737 
L 202.03696 568.457112 
L 207.121538 539.762562 
L 212.206117 520.690656 
L 217.290696 467.809463 
L 222.375274 459.877284 
L 227.459853 401.534589 
L 232.544431 354.093223 
L 237.62901 353.746461 
L 242.713589 353.529735 
L 247.798167 344.665634 
L 252.882746 343.928764 
L 257.967324 318.658489 
L 263.051903 317.856602 
L 268.136481 305.893316 
L 273.22106 305.503208 
L 278.305639 304.701322 
L 283.390217 300.973631 
L 288.474796 300.88694 
L 293.559374 300.496833 
L 298.643953 299.759964 
L 303.728531 296.422381 
L 308.81311 294.818607 
L 313.897689 293.930029 
L 318.982267 293.908357 
L 324.066846 289.725541 
L 329.151424 289.443797 
L 334.236003 287.644969 
L 339.320582 287.233189 
L 344.40516 286.041195 
L 349.489739 279.496064 
L 354.574317 277.458838 
L 359.658896 275.074849 
L 369.828053 273.579439 
L 374.912632 271.823956 
L 379.99721 268.898153 
L 385.081789 268.573063 
L 390.166367 266.947617 
L 395.250946 261.659497 
L 400.335524 261.572807 
L 405.420103 261.117682 
L 410.504682 260.814265 
L 415.58926 255.222729 
L 420.673839 253.922372 
L 425.758417 249.826247 
L 430.842996 249.587848 
L 435.927575 248.222473 
L 441.012153 247.919056 
L 451.18131 246.987133 
L 456.265889 245.946848 
L 461.350467 245.383359 
L 466.435046 244.06133 
L 471.519625 243.15108 
L 476.604203 240.702073 
L 481.688782 240.203603 
L 486.77336 237.841288 
L 491.857939 236.974383 
L 496.942517 235.283918 
L 502.027096 234.156942 
L 507.111675 234.005234 
L 512.196253 233.636799 
L 517.280832 233.615127 
L 522.36541 232.423132 
L 527.449989 232.033025 
L 532.534568 231.98968 
L 542.703725 229.280603 
L 547.788303 228.392025 
L 552.872882 225.184477 
L 557.95746 224.490953 
L 563.042039 224.447608 
L 568.126618 223.428995 
L 573.211196 221.435114 
L 578.295775 221.370096 
L 583.380353 221.066679 
L 588.464932 220.936644 
L 598.634089 220.24312 
L 603.718668 217.794114 
L 608.803246 217.729096 
L 613.887825 216.948882 
L 618.972403 215.735215 
L 624.056982 214.86831 
L 629.141561 213.1345 
L 634.226139 212.289268 
L 639.310718 211.682435 
L 644.395296 210.728839 
L 649.479875 207.26122 
L 659.649032 206.784423 
L 664.733611 205.289012 
L 669.818189 204.44378 
L 674.902768 201.88641 
L 679.987346 200.369327 
L 685.071925 199.97922 
L 690.156503 198.787226 
L 700.325661 198.505482 
L 705.410239 197.573559 
L 715.579396 197.551886 
L 730.833132 196.576618 
L 741.002289 194.799463 
L 746.086868 194.647755 
L 756.256025 193.997577 
L 761.340604 193.434088 
L 766.425182 193.28238 
L 776.594339 192.28544 
L 781.678918 191.375189 
L 791.848075 188.861166 
L 796.932654 188.601094 
L 802.017232 187.040665 
L 812.186389 186.49885 
L 817.270968 185.458564 
L 822.355547 185.003439 
L 827.440125 183.681409 
L 832.524704 183.031231 
L 837.609282 182.099308 
L 842.693861 181.752546 
L 847.778439 181.167385 
L 852.863018 180.257135 
L 863.032175 180.127099 
L 868.116754 179.606957 
L 873.201332 178.089873 
L 883.37049 177.353004 
L 898.624225 177.027915 
L 908.793382 176.897879 
L 913.877961 175.987629 
L 918.96254 174.188802 
L 924.047118 173.148516 
L 929.131697 171.848159 
L 934.216275 171.19798 
L 939.300854 168.987373 
L 944.385432 168.857337 
L 954.55459 168.337194 
L 959.639168 165.888188 
L 964.723747 165.151319 
L 974.892904 164.566158 
L 979.977483 164.327759 
L 985.062061 163.265801 
L 995.231218 163.222456 
L 1000.315797 162.637295 
L 1005.400375 162.18217 
L 1010.484954 161.943771 
L 1015.569533 159.148003 
L 1025.73869 157.327503 
L 1030.823268 157.240812 
L 1035.907847 156.373908 
L 1040.992425 154.748461 
L 1046.077004 153.469776 
L 1051.161583 153.231378 
L 1056.246161 152.386145 
L 1061.33074 151.389205 
L 1066.415318 151.237497 
L 1071.499897 150.847389 
L 1076.584476 148.051621 
L 1081.669054 147.813222 
L 1086.753633 146.816282 
L 1091.838211 146.599556 
L 1096.92279 145.234181 
L 1102.007368 145.017454 
L 1112.176526 143.608734 
L 1117.261104 141.268091 
L 1122.345683 140.466204 
L 1127.430261 139.447591 
L 1132.51484 139.014139 
L 1137.599418 136.608478 
L 1142.683997 136.283388 
L 1147.768576 136.175025 
L 1152.853154 134.918013 
L 1157.937733 134.137799 
L 1163.022311 132.729079 
L 1168.10689 129.911638 
L 1173.191469 129.608221 
L 1178.276047 128.784662 
L 1188.445204 128.654626 
L 1198.614361 126.400674 
L 1203.69894 125.620459 
L 1218.952676 122.261203 
L 1229.121833 121.112554 
L 1239.29099 118.446822 
L 1244.375569 118.425149 
L 1249.460147 117.60159 
L 1254.544726 117.081447 
L 1259.629304 116.36625 
L 1264.713883 115.911125 
L 1269.798462 115.217601 
L 1274.88304 114.762476 
L 1285.052197 112.681905 
L 1290.136776 112.053399 
L 1295.221354 109.409339 
L 1300.305933 108.845851 
L 1305.390512 104.077875 
L 1310.47509 99.721678 
L 1315.559669 99.136517 
L 1320.644247 97.554416 
L 1325.728826 96.557475 
L 1330.813404 91.507755 
L 1335.897983 87.628356 
L 1340.982562 85.136004 
L 1346.06714 76.66201 
L 1351.151719 74.993218 
L 1356.236297 74.971545 
L 1361.320876 72.739265 
L 1366.405455 41.769091 
L 1366.405455 41.769091 
" clip-path="url(#p5323bad9fb)" style="fill: none; stroke: #1f77b4; stroke-width: 5; stroke-linecap: square"/>
   </g>
   <g id="line2d_14">
    <path d="M 110.514545 523.833186 
L 115.599124 536.880104 
L 120.683703 513.343638 
L 125.768281 534.322735 
L 130.85286 496.504012 
L 135.937438 531.917074 
L 141.022017 506.170001 
L 146.106596 534.77786 
L 151.191174 493.92497 
L 156.275753 506.321709 
L 161.360331 503.569286 
L 166.44491 484.215636 
L 171.529488 518.133287 
L 176.614067 489.742154 
L 181.698646 472.989219 
L 186.783224 540.65114 
L 191.867803 505.346441 
L 196.952381 512.563424 
L 202.03696 495.810488 
L 207.121538 477.237052 
L 212.206117 487.531547 
L 217.290696 456.864789 
L 222.375274 445.269937 
L 227.459853 430.07743 
L 232.544431 438.681461 
L 237.62901 419.631227 
L 242.713589 459.075397 
L 247.798167 424.009097 
L 252.882746 425.764579 
L 257.967324 424.61593 
L 263.051903 426.631484 
L 268.136481 415.665138 
L 273.22106 431.377788 
L 278.305639 429.665651 
L 283.390217 430.337502 
L 288.474796 438.811496 
L 293.559374 405.327298 
L 298.643953 430.120776 
L 303.728531 401.079464 
L 308.81311 427.390026 
L 313.897689 441.585592 
L 318.982267 425.981305 
L 324.066846 400.472631 
L 329.151424 417.052186 
L 334.236003 413.671257 
L 339.320582 419.436174 
L 344.40516 440.198544 
L 349.489739 410.268655 
L 354.574317 405.847441 
L 359.658896 412.587626 
L 364.743474 412.479263 
L 369.828053 374.57385 
L 374.912632 408.838262 
L 379.99721 397.135047 
L 385.081789 402.293131 
L 390.166367 396.939994 
L 395.250946 411.373959 
L 400.335524 384.023112 
L 405.420103 409.120007 
L 410.504682 398.522095 
L 415.58926 395.379565 
L 420.673839 382.614392 
L 425.758417 419.501192 
L 435.927575 386.797208 
L 441.012153 392.518779 
L 446.096732 384.564928 
L 451.18131 377.868088 
L 456.265889 382.289303 
L 461.350467 385.431832 
L 466.435046 386.537136 
L 471.519625 428.408639 
L 476.604203 388.812761 
L 481.688782 406.540965 
L 486.77336 391.976964 
L 491.857939 412.110828 
L 496.942517 399.735762 
L 502.027096 384.326529 
L 507.111675 375.744171 
L 512.196253 398.912202 
L 517.280832 366.836724 
L 522.36541 380.187058 
L 527.449989 395.032803 
L 532.534568 399.952488 
L 537.619146 384.955035 
L 542.703725 398.457077 
L 547.788303 380.988945 
L 552.872882 375.180683 
L 557.95746 378.691648 
L 563.042039 397.15672 
L 568.126618 393.01725 
L 573.211196 388.509345 
L 578.295775 382.137594 
L 583.380353 367.205159 
L 588.464932 407.732959 
L 593.54951 388.270946 
L 598.634089 377.087874 
L 603.718668 390.741624 
L 608.803246 378.21485 
L 613.887825 385.431832 
L 618.972403 382.35432 
L 624.056982 387.577422 
L 629.141561 371.799754 
L 634.226139 385.49685 
L 639.310718 373.295165 
L 644.395296 397.958607 
L 649.479875 384.348201 
L 654.564453 394.707714 
L 659.649032 375.224028 
L 664.733611 387.252333 
L 669.818189 382.26763 
L 674.902768 389.54963 
L 679.987346 380.53382 
L 685.071925 393.710773 
L 690.156503 374.920612 
L 695.241082 386.233719 
L 700.325661 360.053194 
L 705.410239 389.029487 
L 710.494818 396.961667 
L 715.579396 373.056766 
L 720.663975 393.840809 
L 725.748554 355.263545 
L 730.833132 386.298737 
L 735.917711 413.021078 
L 741.002289 369.112349 
L 746.086868 395.83469 
L 751.171446 381.682469 
L 756.256025 377.174564 
L 761.340604 367.725302 
L 766.425182 381.032291 
L 771.509761 364.712807 
L 776.594339 369.545802 
L 781.678918 379.515207 
L 786.763497 379.94866 
L 791.848075 390.394863 
L 796.932654 368.483843 
L 802.017232 354.006533 
L 807.101811 374.768903 
L 812.186389 371.561355 
L 817.270968 382.332648 
L 822.355547 402.379822 
L 827.440125 368.527189 
L 832.524704 381.877523 
L 837.609282 335.95324 
L 842.693861 359.489706 
L 847.778439 364.756153 
L 852.863018 364.127647 
L 857.947597 381.660797 
L 863.032175 346.247735 
L 868.116754 383.524642 
L 873.201332 357.885932 
L 878.285911 363.130706 
L 883.37049 384.456565 
L 888.455068 346.70286 
L 893.539647 355.675325 
L 898.624225 353.919842 
L 903.708804 334.999645 
L 908.793382 346.594497 
L 913.877961 337.968794 
L 918.96254 322.06109 
L 924.047118 374.053707 
L 929.131697 347.092967 
L 934.216275 341.934883 
L 939.300854 383.329588 
L 944.385432 348.241616 
L 949.470011 364.712807 
L 954.55459 371.994808 
L 959.639168 358.254366 
L 964.723747 353.876497 
L 969.808325 358.904545 
L 974.892904 369.047331 
L 979.977483 367.855337 
L 985.062061 370.564415 
L 990.14664 334.154413 
L 995.231218 347.309693 
L 1000.315797 349.867062 
L 1005.400375 361.071807 
L 1010.484954 329.841561 
L 1015.569533 369.784201 
L 1020.654111 341.501431 
L 1025.73869 387.707458 
L 1030.823268 369.350748 
L 1035.907847 382.072576 
L 1040.992425 358.94789 
L 1046.077004 370.434379 
L 1051.161583 351.687563 
L 1056.246161 350.712295 
L 1061.33074 353.009592 
L 1066.415318 349.93208 
L 1071.499897 350.105461 
L 1076.584476 366.750034 
L 1081.669054 334.241103 
L 1086.753633 359.966504 
L 1096.92279 341.089651 
L 1102.007368 353.508063 
L 1107.091947 342.866806 
L 1112.176526 348.718414 
L 1117.261104 345.619229 
L 1122.345683 343.64702 
L 1127.430261 357.864259 
L 1132.51484 339.225806 
L 1137.599418 332.767365 
L 1142.683997 329.819889 
L 1147.768576 352.511122 
L 1152.853154 322.97134 
L 1157.937733 361.50526 
L 1163.022311 326.829067 
L 1168.10689 343.018514 
L 1173.191469 360.876754 
L 1178.276047 352.901229 
L 1183.360626 364.105974 
L 1188.445204 343.018514 
L 1193.529783 353.551408 
L 1198.614361 364.64779 
L 1203.69894 395.357893 
L 1208.783519 343.950437 
L 1213.868097 357.084045 
L 1218.952676 356.650593 
L 1224.037254 348.154925 
L 1229.121833 342.476699 
L 1234.206411 329.451454 
L 1239.29099 365.818111 
L 1244.375569 334.999645 
L 1249.460147 333.829323 
L 1254.544726 353.529735 
L 1259.629304 338.618972 
L 1264.713883 356.412194 
L 1269.798462 335.108008 
L 1274.88304 335.86655 
L 1279.967619 347.938199 
L 1285.052197 339.572568 
L 1290.136776 350.820658 
L 1295.221354 342.975169 
L 1300.305933 346.421116 
L 1305.390512 332.485621 
L 1310.47509 325.52871 
L 1315.559669 345.185776 
L 1320.644247 325.680418 
L 1325.728826 334.154413 
L 1330.813404 333.916014 
L 1335.897983 347.374711 
L 1340.982562 346.161044 
L 1346.06714 334.197758 
L 1351.151719 321.042477 
L 1356.236297 328.086079 
L 1361.320876 333.677615 
L 1366.405455 333.22249 
L 1366.405455 333.22249 
" clip-path="url(#p5323bad9fb)" style="fill: none; stroke: #ff7f0e; stroke-width: 1.5; stroke-linecap: square"/>
   </g>
   <g id="patch_3">
    <path d="M 47.72 692.12 
L 47.72 10.8 
" style="fill: none; stroke: #000000; stroke-width: 0.8; stroke-linejoin: miter; stroke-linecap: square"/>
   </g>
   <g id="patch_4">
    <path d="M 1429.2 692.12 
L 1429.2 10.8 
" style="fill: none; stroke: #000000; stroke-width: 0.8; stroke-linejoin: miter; stroke-linecap: square"/>
   </g>
   <g id="patch_5">
    <path d="M 47.72 692.12 
L 1429.2 692.12 
" style="fill: none; stroke: #000000; stroke-width: 0.8; stroke-linejoin: miter; stroke-linecap: square"/>
   </g>
   <g id="patch_6">
    <path d="M 47.72 10.8 
L 1429.2 10.8 
" style="fill: none; stroke: #000000; stroke-width: 0.8; stroke-linejoin: miter; stroke-linecap: square"/>
   </g>
   <g id="legend_1">
    <g id="patch_7">
     <path d="M 54.72 48.15625 
L 147.777812 48.15625 
Q 149.777812 48.15625 149.777812 46.15625 
L 149.777812 17.8 
Q 149.777812 15.8 147.777812 15.8 
L 54.72 15.8 
Q 52.72 15.8 52.72 17.8 
L 52.72 46.15625 
Q 52.72 48.15625 54.72 48.15625 
z
" style="fill: #ffffff; opacity: 0.8; stroke: #cccccc; stroke-linejoin: miter"/>
    </g>
    <g id="line2d_15">
     <path d="M 56.72 23.898438 
L 66.72 23.898438 
L 76.72 23.898438 
" style="fill: none; stroke: #1f77b4; stroke-width: 5; stroke-linecap: square"/>
    </g>
    <g id="text_14">
     <!-- PNG decode -->
     <g transform="translate(84.72 27.398438) scale(0.1 -0.1)">
      <defs>
       <path id="DejaVuSans-50" d="M 1259 4147 
L 1259 2394 
L 2053 2394 
Q 2494 2394 2734 2622 
Q 2975 2850 2975 3272 
Q 2975 3691 2734 3919 
Q 2494 4147 2053 4147 
L 1259 4147 
z
M 628 4666 
L 2053 4666 
Q 2838 4666 3239 4311 
Q 3641 3956 3641 3272 
Q 3641 2581 3239 2228 
Q 2838 1875 2053 1875 
L 1259 1875 
L 1259 0 
L 628 0 
L 628 4666 
z
" transform="scale(0.015625)"/>
       <path id="DejaVuSans-4e" d="M 628 4666 
L 1478 4666 
L 3547 763 
L 3547 4666 
L 4159 4666 
L 4159 0 
L 3309 0 
L 1241 3903 
L 1241 0 
L 628 0 
L 628 4666 
z
" transform="scale(0.015625)"/>
       <path id="DejaVuSans-47" d="M 3809 666 
L 3809 1919 
L 2778 1919 
L 2778 2438 
L 4434 2438 
L 4434 434 
Q 4069 175 3628 42 
Q 3188 -91 2688 -91 
Q 1594 -91 976 548 
Q 359 1188 359 2328 
Q 359 3472 976 4111 
Q 1594 4750 2688 4750 
Q 3144 4750 3555 4637 
Q 3966 4525 4313 4306 
L 4313 3634 
Q 3963 3931 3569 4081 
Q 3175 4231 2741 4231 
Q 1884 4231 1454 3753 
Q 1025 3275 1025 2328 
Q 1025 1384 1454 906 
Q 1884 428 2741 428 
Q 3075 428 3337 486 
Q 3600 544 3809 666 
z
" transform="scale(0.015625)"/>
       <path id="DejaVuSans-20" transform="scale(0.015625)"/>
      </defs>
      <use xlink:href="#DejaVuSans-50"/>
      <use xlink:href="#DejaVuSans-4e" x="60.302734"/>
      <use xlink:href="#DejaVuSans-47" x="135.107422"/>
      <use xlink:href="#DejaVuSans-20" x="212.597656"/>
      <use xlink:href="#DejaVuSans-64" x="244.384766"/>
      <use xlink:href="#DejaVuSans-65" x="307.861328"/>
      <use xlink:href="#DejaVuSans-63" x="369.384766"/>
      <use xlink:href="#DejaVuSans-6f" x="424.365234"/>
      <use xlink:href="#DejaVuSans-64" x="485.546875"/>
      <use xlink:href="#DejaVuSans-65" x="549.023438"/>
     </g>
    </g>
    <g id="line2d_16">
     <path d="M 56.72 38.576563 
L 66.72 38.576563 
L 76.72 38.576563 
" style="fill: none; stroke: #ff7f0e; stroke-width: 1.5; stroke-linecap: square"/>
    </g>
    <g id="text_15">
     <!-- QB3 decode -->
     <g transform="translate(84.72 42.076563) scale(0.1 -0.1)">
      <defs>
       <path id="DejaVuSans-51" d="M 2522 4238 
Q 1834 4238 1429 3725 
Q 1025 3213 1025 2328 
Q 1025 1447 1429 934 
Q 1834 422 2522 422 
Q 3209 422 3611 934 
Q 4013 1447 4013 2328 
Q 4013 3213 3611 3725 
Q 3209 4238 2522 4238 
z
M 3406 84 
L 4238 -825 
L 3475 -825 
L 2784 -78 
Q 2681 -84 2626 -87 
Q 2572 -91 2522 -91 
Q 1538 -91 948 567 
Q 359 1225 359 2328 
Q 359 3434 948 4092 
Q 1538 4750 2522 4750 
Q 3503 4750 4090 4092 
Q 4678 3434 4678 2328 
Q 4678 1516 4351 937 
Q 4025 359 3406 84 
z
" transform="scale(0.015625)"/>
       <path id="DejaVuSans-42" d="M 1259 2228 
L 1259 519 
L 2272 519 
Q 2781 519 3026 730 
Q 3272 941 3272 1375 
Q 3272 1813 3026 2020 
Q 2781 2228 2272 2228 
L 1259 2228 
z
M 1259 4147 
L 1259 2741 
L 2194 2741 
Q 2656 2741 2882 2914 
Q 3109 3088 3109 3444 
Q 3109 3797 2882 3972 
Q 2656 4147 2194 4147 
L 1259 4147 
z
M 628 4666 
L 2241 4666 
Q 2963 4666 3353 4366 
Q 3744 4066 3744 3513 
Q 3744 3084 3544 2831 
Q 3344 2578 2956 2516 
Q 3422 2416 3680 2098 
Q 3938 1781 3938 1306 
Q 3938 681 3513 340 
Q 3088 0 2303 0 
L 628 0 
L 628 4666 
z
" transform="scale(0.015625)"/>
      </defs>
      <use xlink:href="#DejaVuSans-51"/>
      <use xlink:href="#DejaVuSans-42" x="78.710938"/>
      <use xlink:href="#DejaVuSans-33" x="147.314453"/>
      <use xlink:href="#DejaVuSans-20" x="210.9375"/>
      <use xlink:href="#DejaVuSans-64" x="242.724609"/>
      <use xlink:href="#DejaVuSans-65" x="306.201172"/>
      <use xlink:href="#DejaVuSans-63" x="367.724609"/>
      <use xlink:href="#DejaVuSans-6f" x="422.705078"/>
      <use xlink:href="#DejaVuSans-64" x="483.886719"/>
      <use xlink:href="#DejaVuSans-65" x="547.363281"/>
     </g>
    </g>
   </g>
  </g>
 </g>
 <defs>
  <clipPath id="p5323bad9fb">
   <rect x="47.72" y="10.8" width="1381.48" height="681.32"/>
  </clipPath>
 </defs>
</svg>
