<?xml version="1.0" encoding="utf-8" standalone="no"?>
<!DOCTYPE svg PUBLIC "-//W3C//DTD SVG 1.1//EN"
  "http://www.w3.org/Graphics/SVG/1.1/DTD/svg11.dtd">
<svg xmlns:xlink="http://www.w3.org/1999/xlink" width="1152pt" height="576pt" viewBox="0 0 1152 576" xmlns="http://www.w3.org/2000/svg" version="1.1">
 <metadata>
  <rdf:RDF xmlns:dc="http://purl.org/dc/elements/1.1/" xmlns:cc="http://creativecommons.org/ns#" xmlns:rdf="http://www.w3.org/1999/02/22-rdf-syntax-ns#">
   <cc:Work>
    <dc:type rdf:resource="http://purl.org/dc/dcmitype/StillImage"/>
    <dc:date>2025-04-26T15:47:28.398492</dc:date>
    <dc:format>image/svg+xml</dc:format>
    <dc:creator>
     <cc:Agent>
      <dc:title>Matplotlib v3.9.0, https://matplotlib.org/</dc:title>
     </cc:Agent>
    </dc:creator>
   </cc:Work>
  </rdf:RDF>
 </metadata>
 <defs>
  <style type="text/css">*{stroke-linejoin: round; stroke-linecap: butt}</style>
 </defs>
 <g id="figure_1">
  <g id="patch_1">
   <path d="M 0 576 
L 1152 576 
L 1152 0 
L 0 0 
z
" style="fill: #ffffff"/>
  </g>
  <g id="axes_1">
   <g id="patch_2">
    <path d="M 47.72 548.12 
L 1141.2 548.12 
L 1141.2 10.8 
L 47.72 10.8 
z
" style="fill: #ffffff"/>
   </g>
   <g id="matplotlib.axis_1">
    <g id="xtick_1">
     <g id="line2d_1">
      <defs>
       <path id="m0d554a14a9" d="M 0 0 
L 0 3.5 
" style="stroke: #000000; stroke-width: 0.8"/>
      </defs>
      <g>
       <use xlink:href="#m0d554a14a9" x="97.423636" y="548.12" style="stroke: #000000; stroke-width: 0.8"/>
      </g>
     </g>
     <g id="text_1">
      <!-- 0 -->
      <g transform="translate(94.242386 562.718437) scale(0.1 -0.1)">
       <defs>
        <path id="DejaVuSans-30" d="M 2034 4250 
Q 1547 4250 1301 3770 
Q 1056 3291 1056 2328 
Q 1056 1369 1301 889 
Q 1547 409 2034 409 
Q 2525 409 2770 889 
Q 3016 1369 3016 2328 
Q 3016 3291 2770 3770 
Q 2525 4250 2034 4250 
z
M 2034 4750 
Q 2819 4750 3233 4129 
Q 3647 3509 3647 2328 
Q 3647 1150 3233 529 
Q 2819 -91 2034 -91 
Q 1250 -91 836 529 
Q 422 1150 422 2328 
Q 422 3509 836 4129 
Q 1250 4750 2034 4750 
z
" transform="scale(0.015625)"/>
       </defs>
       <use xlink:href="#DejaVuSans-30"/>
      </g>
     </g>
    </g>
    <g id="xtick_2">
     <g id="line2d_2">
      <g>
       <use xlink:href="#m0d554a14a9" x="298.652933" y="548.12" style="stroke: #000000; stroke-width: 0.8"/>
      </g>
     </g>
     <g id="text_2">
      <!-- 50 -->
      <g transform="translate(292.290433 562.718437) scale(0.1 -0.1)">
       <defs>
        <path id="DejaVuSans-35" d="M 691 4666 
L 3169 4666 
L 3169 4134 
L 1269 4134 
L 1269 2991 
Q 1406 3038 1543 3061 
Q 1681 3084 1819 3084 
Q 2600 3084 3056 2656 
Q 3513 2228 3513 1497 
Q 3513 744 3044 326 
Q 2575 -91 1722 -91 
Q 1428 -91 1123 -41 
Q 819 9 494 109 
L 494 744 
Q 775 591 1075 516 
Q 1375 441 1709 441 
Q 2250 441 2565 725 
Q 2881 1009 2881 1497 
Q 2881 1984 2565 2268 
Q 2250 2553 1709 2553 
Q 1456 2553 1204 2497 
Q 953 2441 691 2322 
L 691 4666 
z
" transform="scale(0.015625)"/>
       </defs>
       <use xlink:href="#DejaVuSans-35"/>
       <use xlink:href="#DejaVuSans-30" x="63.623047"/>
      </g>
     </g>
    </g>
    <g id="xtick_3">
     <g id="line2d_3">
      <g>
       <use xlink:href="#m0d554a14a9" x="499.88223" y="548.12" style="stroke: #000000; stroke-width: 0.8"/>
      </g>
     </g>
     <g id="text_3">
      <!-- 100 -->
      <g transform="translate(490.33848 562.718437) scale(0.1 -0.1)">
       <defs>
        <path id="DejaVuSans-31" d="M 794 531 
L 1825 531 
L 1825 4091 
L 703 3866 
L 703 4441 
L 1819 4666 
L 2450 4666 
L 2450 531 
L 3481 531 
L 3481 0 
L 794 0 
L 794 531 
z
" transform="scale(0.015625)"/>
       </defs>
       <use xlink:href="#DejaVuSans-31"/>
       <use xlink:href="#DejaVuSans-30" x="63.623047"/>
       <use xlink:href="#DejaVuSans-30" x="127.246094"/>
      </g>
     </g>
    </g>
    <g id="xtick_4">
     <g id="line2d_4">
      <g>
       <use xlink:href="#m0d554a14a9" x="701.111527" y="548.12" style="stroke: #000000; stroke-width: 0.8"/>
      </g>
     </g>
     <g id="text_4">
      <!-- 150 -->
      <g transform="translate(691.567777 562.718437) scale(0.1 -0.1)">
       <use xlink:href="#DejaVuSans-31"/>
       <use xlink:href="#DejaVuSans-35" x="63.623047"/>
       <use xlink:href="#DejaVuSans-30" x="127.246094"/>
      </g>
     </g>
    </g>
    <g id="xtick_5">
     <g id="line2d_5">
      <g>
       <use xlink:href="#m0d554a14a9" x="902.340824" y="548.12" style="stroke: #000000; stroke-width: 0.8"/>
      </g>
     </g>
     <g id="text_5">
      <!-- 200 -->
      <g transform="translate(892.797074 562.718437) scale(0.1 -0.1)">
       <defs>
        <path id="DejaVuSans-32" d="M 1228 531 
L 3431 531 
L 3431 0 
L 469 0 
L 469 531 
Q 828 903 1448 1529 
Q 2069 2156 2228 2338 
Q 2531 2678 2651 2914 
Q 2772 3150 2772 3378 
Q 2772 3750 2511 3984 
Q 2250 4219 1831 4219 
Q 1534 4219 1204 4116 
Q 875 4013 500 3803 
L 500 4441 
Q 881 4594 1212 4672 
Q 1544 4750 1819 4750 
Q 2544 4750 2975 4387 
Q 3406 4025 3406 3419 
Q 3406 3131 3298 2873 
Q 3191 2616 2906 2266 
Q 2828 2175 2409 1742 
Q 1991 1309 1228 531 
z
" transform="scale(0.015625)"/>
       </defs>
       <use xlink:href="#DejaVuSans-32"/>
       <use xlink:href="#DejaVuSans-30" x="63.623047"/>
       <use xlink:href="#DejaVuSans-30" x="127.246094"/>
      </g>
     </g>
    </g>
    <g id="xtick_6">
     <g id="line2d_6">
      <g>
       <use xlink:href="#m0d554a14a9" x="1103.570121" y="548.12" style="stroke: #000000; stroke-width: 0.8"/>
      </g>
     </g>
     <g id="text_6">
      <!-- 250 -->
      <g transform="translate(1094.026371 562.718437) scale(0.1 -0.1)">
       <use xlink:href="#DejaVuSans-32"/>
       <use xlink:href="#DejaVuSans-35" x="63.623047"/>
       <use xlink:href="#DejaVuSans-30" x="127.246094"/>
      </g>
     </g>
    </g>
   </g>
   <g id="matplotlib.axis_2">
    <g id="ytick_1">
     <g id="line2d_7">
      <defs>
       <path id="mef274e171f" d="M 0 0 
L -3.5 0 
" style="stroke: #000000; stroke-width: 0.8"/>
      </defs>
      <g>
       <use xlink:href="#mef274e171f" x="47.72" y="548.12" style="stroke: #000000; stroke-width: 0.8"/>
      </g>
     </g>
     <g id="text_7">
      <!-- 0.0 -->
      <g transform="translate(24.816875 551.919219) scale(0.1 -0.1)">
       <defs>
        <path id="DejaVuSans-2e" d="M 684 794 
L 1344 794 
L 1344 0 
L 684 0 
L 684 794 
z
" transform="scale(0.015625)"/>
       </defs>
       <use xlink:href="#DejaVuSans-30"/>
       <use xlink:href="#DejaVuSans-2e" x="63.623047"/>
       <use xlink:href="#DejaVuSans-30" x="95.410156"/>
      </g>
     </g>
    </g>
    <g id="ytick_2">
     <g id="line2d_8">
      <g>
       <use xlink:href="#mef274e171f" x="47.72" y="485.78799" style="stroke: #000000; stroke-width: 0.8"/>
      </g>
     </g>
     <g id="text_8">
      <!-- 0.5 -->
      <g transform="translate(24.816875 489.587209) scale(0.1 -0.1)">
       <use xlink:href="#DejaVuSans-30"/>
       <use xlink:href="#DejaVuSans-2e" x="63.623047"/>
       <use xlink:href="#DejaVuSans-35" x="95.410156"/>
      </g>
     </g>
    </g>
    <g id="ytick_3">
     <g id="line2d_9">
      <g>
       <use xlink:href="#mef274e171f" x="47.72" y="423.455981" style="stroke: #000000; stroke-width: 0.8"/>
      </g>
     </g>
     <g id="text_9">
      <!-- 1.0 -->
      <g transform="translate(24.816875 427.255199) scale(0.1 -0.1)">
       <use xlink:href="#DejaVuSans-31"/>
       <use xlink:href="#DejaVuSans-2e" x="63.623047"/>
       <use xlink:href="#DejaVuSans-30" x="95.410156"/>
      </g>
     </g>
    </g>
    <g id="ytick_4">
     <g id="line2d_10">
      <g>
       <use xlink:href="#mef274e171f" x="47.72" y="361.123971" style="stroke: #000000; stroke-width: 0.8"/>
      </g>
     </g>
     <g id="text_10">
      <!-- 1.5 -->
      <g transform="translate(24.816875 364.92319) scale(0.1 -0.1)">
       <use xlink:href="#DejaVuSans-31"/>
       <use xlink:href="#DejaVuSans-2e" x="63.623047"/>
       <use xlink:href="#DejaVuSans-35" x="95.410156"/>
      </g>
     </g>
    </g>
    <g id="ytick_5">
     <g id="line2d_11">
      <g>
       <use xlink:href="#mef274e171f" x="47.72" y="298.791961" style="stroke: #000000; stroke-width: 0.8"/>
      </g>
     </g>
     <g id="text_11">
      <!-- 2.0 -->
      <g transform="translate(24.816875 302.59118) scale(0.1 -0.1)">
       <use xlink:href="#DejaVuSans-32"/>
       <use xlink:href="#DejaVuSans-2e" x="63.623047"/>
       <use xlink:href="#DejaVuSans-30" x="95.410156"/>
      </g>
     </g>
    </g>
    <g id="ytick_6">
     <g id="line2d_12">
      <g>
       <use xlink:href="#mef274e171f" x="47.72" y="236.459951" style="stroke: #000000; stroke-width: 0.8"/>
      </g>
     </g>
     <g id="text_12">
      <!-- 2.5 -->
      <g transform="translate(24.816875 240.25917) scale(0.1 -0.1)">
       <use xlink:href="#DejaVuSans-32"/>
       <use xlink:href="#DejaVuSans-2e" x="63.623047"/>
       <use xlink:href="#DejaVuSans-35" x="95.410156"/>
      </g>
     </g>
    </g>
    <g id="ytick_7">
     <g id="line2d_13">
      <g>
       <use xlink:href="#mef274e171f" x="47.72" y="174.127942" style="stroke: #000000; stroke-width: 0.8"/>
      </g>
     </g>
     <g id="text_13">
      <!-- 3.0 -->
      <g transform="translate(24.816875 177.92716) scale(0.1 -0.1)">
       <defs>
        <path id="DejaVuSans-33" d="M 2597 2516 
Q 3050 2419 3304 2112 
Q 3559 1806 3559 1356 
Q 3559 666 3084 287 
Q 2609 -91 1734 -91 
Q 1441 -91 1130 -33 
Q 819 25 488 141 
L 488 750 
Q 750 597 1062 519 
Q 1375 441 1716 441 
Q 2309 441 2620 675 
Q 2931 909 2931 1356 
Q 2931 1769 2642 2001 
Q 2353 2234 1838 2234 
L 1294 2234 
L 1294 2753 
L 1863 2753 
Q 2328 2753 2575 2939 
Q 2822 3125 2822 3475 
Q 2822 3834 2567 4026 
Q 2313 4219 1838 4219 
Q 1578 4219 1281 4162 
Q 984 4106 628 3988 
L 628 4550 
Q 988 4650 1302 4700 
Q 1616 4750 1894 4750 
Q 2613 4750 3031 4423 
Q 3450 4097 3450 3541 
Q 3450 3153 3228 2886 
Q 3006 2619 2597 2516 
z
" transform="scale(0.015625)"/>
       </defs>
       <use xlink:href="#DejaVuSans-33"/>
       <use xlink:href="#DejaVuSans-2e" x="63.623047"/>
       <use xlink:href="#DejaVuSans-30" x="95.410156"/>
      </g>
     </g>
    </g>
    <g id="ytick_8">
     <g id="line2d_14">
      <g>
       <use xlink:href="#mef274e171f" x="47.72" y="111.795932" style="stroke: #000000; stroke-width: 0.8"/>
      </g>
     </g>
     <g id="text_14">
      <!-- 3.5 -->
      <g transform="translate(24.816875 115.595151) scale(0.1 -0.1)">
       <use xlink:href="#DejaVuSans-33"/>
       <use xlink:href="#DejaVuSans-2e" x="63.623047"/>
       <use xlink:href="#DejaVuSans-35" x="95.410156"/>
      </g>
     </g>
    </g>
    <g id="ytick_9">
     <g id="line2d_15">
      <g>
       <use xlink:href="#mef274e171f" x="47.72" y="49.463922" style="stroke: #000000; stroke-width: 0.8"/>
      </g>
     </g>
     <g id="text_15">
      <!-- 4.0 -->
      <g transform="translate(24.816875 53.263141) scale(0.1 -0.1)">
       <defs>
        <path id="DejaVuSans-34" d="M 2419 4116 
L 825 1625 
L 2419 1625 
L 2419 4116 
z
M 2253 4666 
L 3047 4666 
L 3047 1625 
L 3713 1625 
L 3713 1100 
L 3047 1100 
L 3047 0 
L 2419 0 
L 2419 1100 
L 313 1100 
L 313 1709 
L 2253 4666 
z
" transform="scale(0.015625)"/>
       </defs>
       <use xlink:href="#DejaVuSans-34"/>
       <use xlink:href="#DejaVuSans-2e" x="63.623047"/>
       <use xlink:href="#DejaVuSans-30" x="95.410156"/>
      </g>
     </g>
    </g>
    <g id="text_16">
     <!-- milliseconds -->
     <g transform="translate(18.737187 310.324063) rotate(-90) scale(0.1 -0.1)">
      <defs>
       <path id="DejaVuSans-6d" d="M 3328 2828 
Q 3544 3216 3844 3400 
Q 4144 3584 4550 3584 
Q 5097 3584 5394 3201 
Q 5691 2819 5691 2113 
L 5691 0 
L 5113 0 
L 5113 2094 
Q 5113 2597 4934 2840 
Q 4756 3084 4391 3084 
Q 3944 3084 3684 2787 
Q 3425 2491 3425 1978 
L 3425 0 
L 2847 0 
L 2847 2094 
Q 2847 2600 2669 2842 
Q 2491 3084 2119 3084 
Q 1678 3084 1418 2786 
Q 1159 2488 1159 1978 
L 1159 0 
L 581 0 
L 581 3500 
L 1159 3500 
L 1159 2956 
Q 1356 3278 1631 3431 
Q 1906 3584 2284 3584 
Q 2666 3584 2933 3390 
Q 3200 3197 3328 2828 
z
" transform="scale(0.015625)"/>
       <path id="DejaVuSans-69" d="M 603 3500 
L 1178 3500 
L 1178 0 
L 603 0 
L 603 3500 
z
M 603 4863 
L 1178 4863 
L 1178 4134 
L 603 4134 
L 603 4863 
z
" transform="scale(0.015625)"/>
       <path id="DejaVuSans-6c" d="M 603 4863 
L 1178 4863 
L 1178 0 
L 603 0 
L 603 4863 
z
" transform="scale(0.015625)"/>
       <path id="DejaVuSans-73" d="M 2834 3397 
L 2834 2853 
Q 2591 2978 2328 3040 
Q 2066 3103 1784 3103 
Q 1356 3103 1142 2972 
Q 928 2841 928 2578 
Q 928 2378 1081 2264 
Q 1234 2150 1697 2047 
L 1894 2003 
Q 2506 1872 2764 1633 
Q 3022 1394 3022 966 
Q 3022 478 2636 193 
Q 2250 -91 1575 -91 
Q 1294 -91 989 -36 
Q 684 19 347 128 
L 347 722 
Q 666 556 975 473 
Q 1284 391 1588 391 
Q 1994 391 2212 530 
Q 2431 669 2431 922 
Q 2431 1156 2273 1281 
Q 2116 1406 1581 1522 
L 1381 1569 
Q 847 1681 609 1914 
Q 372 2147 372 2553 
Q 372 3047 722 3315 
Q 1072 3584 1716 3584 
Q 2034 3584 2315 3537 
Q 2597 3491 2834 3397 
z
" transform="scale(0.015625)"/>
       <path id="DejaVuSans-65" d="M 3597 1894 
L 3597 1613 
L 953 1613 
Q 991 1019 1311 708 
Q 1631 397 2203 397 
Q 2534 397 2845 478 
Q 3156 559 3463 722 
L 3463 178 
Q 3153 47 2828 -22 
Q 2503 -91 2169 -91 
Q 1331 -91 842 396 
Q 353 884 353 1716 
Q 353 2575 817 3079 
Q 1281 3584 2069 3584 
Q 2775 3584 3186 3129 
Q 3597 2675 3597 1894 
z
M 3022 2063 
Q 3016 2534 2758 2815 
Q 2500 3097 2075 3097 
Q 1594 3097 1305 2825 
Q 1016 2553 972 2059 
L 3022 2063 
z
" transform="scale(0.015625)"/>
       <path id="DejaVuSans-63" d="M 3122 3366 
L 3122 2828 
Q 2878 2963 2633 3030 
Q 2388 3097 2138 3097 
Q 1578 3097 1268 2742 
Q 959 2388 959 1747 
Q 959 1106 1268 751 
Q 1578 397 2138 397 
Q 2388 397 2633 464 
Q 2878 531 3122 666 
L 3122 134 
Q 2881 22 2623 -34 
Q 2366 -91 2075 -91 
Q 1284 -91 818 406 
Q 353 903 353 1747 
Q 353 2603 823 3093 
Q 1294 3584 2113 3584 
Q 2378 3584 2631 3529 
Q 2884 3475 3122 3366 
z
" transform="scale(0.015625)"/>
       <path id="DejaVuSans-6f" d="M 1959 3097 
Q 1497 3097 1228 2736 
Q 959 2375 959 1747 
Q 959 1119 1226 758 
Q 1494 397 1959 397 
Q 2419 397 2687 759 
Q 2956 1122 2956 1747 
Q 2956 2369 2687 2733 
Q 2419 3097 1959 3097 
z
M 1959 3584 
Q 2709 3584 3137 3096 
Q 3566 2609 3566 1747 
Q 3566 888 3137 398 
Q 2709 -91 1959 -91 
Q 1206 -91 779 398 
Q 353 888 353 1747 
Q 353 2609 779 3096 
Q 1206 3584 1959 3584 
z
" transform="scale(0.015625)"/>
       <path id="DejaVuSans-6e" d="M 3513 2113 
L 3513 0 
L 2938 0 
L 2938 2094 
Q 2938 2591 2744 2837 
Q 2550 3084 2163 3084 
Q 1697 3084 1428 2787 
Q 1159 2491 1159 1978 
L 1159 0 
L 581 0 
L 581 3500 
L 1159 3500 
L 1159 2956 
Q 1366 3272 1645 3428 
Q 1925 3584 2291 3584 
Q 2894 3584 3203 3211 
Q 3513 2838 3513 2113 
z
" transform="scale(0.015625)"/>
       <path id="DejaVuSans-64" d="M 2906 2969 
L 2906 4863 
L 3481 4863 
L 3481 0 
L 2906 0 
L 2906 525 
Q 2725 213 2448 61 
Q 2172 -91 1784 -91 
Q 1150 -91 751 415 
Q 353 922 353 1747 
Q 353 2572 751 3078 
Q 1150 3584 1784 3584 
Q 2172 3584 2448 3432 
Q 2725 3281 2906 2969 
z
M 947 1747 
Q 947 1113 1208 752 
Q 1469 391 1925 391 
Q 2381 391 2643 752 
Q 2906 1113 2906 1747 
Q 2906 2381 2643 2742 
Q 2381 3103 1925 3103 
Q 1469 3103 1208 2742 
Q 947 2381 947 1747 
z
" transform="scale(0.015625)"/>
      </defs>
      <use xlink:href="#DejaVuSans-6d"/>
      <use xlink:href="#DejaVuSans-69" x="97.412109"/>
      <use xlink:href="#DejaVuSans-6c" x="125.195312"/>
      <use xlink:href="#DejaVuSans-6c" x="152.978516"/>
      <use xlink:href="#DejaVuSans-69" x="180.761719"/>
      <use xlink:href="#DejaVuSans-73" x="208.544922"/>
      <use xlink:href="#DejaVuSans-65" x="260.644531"/>
      <use xlink:href="#DejaVuSans-63" x="322.167969"/>
      <use xlink:href="#DejaVuSans-6f" x="377.148438"/>
      <use xlink:href="#DejaVuSans-6e" x="438.330078"/>
      <use xlink:href="#DejaVuSans-64" x="501.708984"/>
      <use xlink:href="#DejaVuSans-73" x="565.185547"/>
     </g>
    </g>
   </g>
   <g id="line2d_16">
    <path d="M 97.423636 383.575961 
L 101.448222 379.611645 
L 105.472808 374.650017 
L 109.497394 373.154049 
L 113.52198 372.057005 
L 117.546566 360.650248 
L 121.571152 360.612848 
L 125.595738 356.997592 
L 129.620324 355.601355 
L 133.64491 352.946011 
L 137.669496 350.97632 
L 141.694082 350.203403 
L 145.718668 348.93183 
L 149.743254 344.817917 
L 153.76784 342.760961 
L 157.792425 341.614052 
L 161.817011 336.054037 
L 169.866183 324.210955 
L 173.890769 313.003659 
L 177.915355 306.221937 
L 181.939941 272.250991 
L 185.964527 267.43896 
L 189.989113 238.841034 
L 194.013699 217.760349 
L 198.038285 210.118444 
L 202.062871 207.886958 
L 206.087457 202.601204 
L 210.112043 199.684066 
L 214.136629 189.623679 
L 218.161215 187.367261 
L 222.185801 187.317395 
L 226.210386 185.584565 
L 230.234972 181.221324 
L 234.259558 179.426163 
L 238.284144 178.827775 
L 242.30873 178.590914 
L 246.333316 177.281941 
L 250.357902 176.284629 
L 254.382488 175.100321 
L 258.407074 174.601665 
L 262.43166 172.220582 
L 266.456246 172.15825 
L 270.480832 171.061207 
L 274.505418 170.637349 
L 278.530004 169.97663 
L 282.55459 167.957073 
L 286.579176 166.797697 
L 290.603762 163.593832 
L 294.628347 163.506567 
L 298.652933 160.202971 
L 302.677519 160.078307 
L 306.702105 159.330323 
L 310.726691 157.959018 
L 314.751277 157.921619 
L 318.775863 157.472829 
L 322.800449 157.472829 
L 334.874207 156.749777 
L 338.898793 154.90475 
L 342.923379 153.396315 
L 346.947965 151.763217 
L 350.972551 151.027699 
L 359.021722 150.279715 
L 363.046308 150.142584 
L 367.070894 149.245003 
L 371.09548 147.873699 
L 375.120066 147.100782 
L 391.21841 146.053605 
L 395.242996 145.679612 
L 399.267582 144.794498 
L 407.316754 144.744632 
L 411.34134 144.432972 
L 415.365926 144.270909 
L 419.390512 143.984182 
L 423.415098 142.98687 
L 431.464269 142.712609 
L 439.513441 140.406324 
L 443.538027 139.97 
L 447.562613 139.222016 
L 451.587199 138.935289 
L 455.611785 138.311969 
L 459.636371 138.075107 
L 463.660957 137.189993 
L 471.710129 136.778602 
L 475.734715 136.392143 
L 479.759301 136.379677 
L 483.783887 136.005685 
L 491.833059 135.619226 
L 495.857644 135.270167 
L 499.88223 134.310254 
L 503.906816 133.001282 
L 507.931402 132.926483 
L 511.955988 131.617511 
L 515.980574 131.405582 
L 520.00516 128.600642 
L 524.029746 128.550776 
L 528.054332 128.351314 
L 532.078918 127.703061 
L 540.12809 127.578397 
L 544.152676 127.154539 
L 552.201848 126.057496 
L 556.226434 125.272113 
L 560.25102 124.835788 
L 564.275605 123.289955 
L 568.300191 123.102959 
L 572.324777 122.467172 
L 576.349363 121.557125 
L 580.373949 121.1582 
L 588.423121 120.086089 
L 592.447707 119.662232 
L 596.472293 119.400437 
L 600.496879 119.338105 
L 604.521465 119.063844 
L 608.546051 119.051378 
L 612.570637 118.914248 
L 616.595223 118.166263 
L 620.619809 117.842137 
L 632.693566 117.567876 
L 636.718152 116.75756 
L 640.742738 116.109307 
L 648.79191 115.635584 
L 652.816496 115.074596 
L 656.841082 114.625805 
L 660.865668 113.927687 
L 668.91484 112.917908 
L 680.988598 111.621402 
L 685.013184 111.459339 
L 689.03777 110.337363 
L 697.086941 110.162833 
L 701.111527 108.405071 
L 705.136113 107.756818 
L 713.185285 106.946502 
L 717.209871 105.712328 
L 725.259043 105.587664 
L 737.332801 105.263537 
L 753.431145 104.166494 
L 761.480317 104.104162 
L 765.504902 103.917166 
L 769.529488 103.24398 
L 773.554074 102.969719 
L 777.57866 102.919854 
L 789.652418 102.383799 
L 797.70159 102.296534 
L 801.726176 102.009806 
L 805.750762 101.19949 
L 809.775348 101.099759 
L 813.799934 100.875364 
L 817.82452 100.002716 
L 825.873692 99.902985 
L 829.898278 98.718676 
L 833.922863 98.494281 
L 837.947449 98.157688 
L 841.972035 97.297507 
L 845.996621 95.153285 
L 850.021207 94.193372 
L 854.045793 93.968977 
L 862.094965 92.597673 
L 866.119551 92.410677 
L 878.193309 92.348345 
L 886.242481 91.687626 
L 890.267067 90.827444 
L 894.291653 90.141792 
L 898.316238 89.892464 
L 902.340824 89.518472 
L 906.36541 89.468606 
L 910.389996 88.546092 
L 914.414582 88.396496 
L 918.439168 88.359096 
L 922.463754 87.436583 
L 926.48834 86.975326 
L 930.512926 85.928148 
L 934.537512 85.890749 
L 938.562098 84.382314 
L 942.586684 81.689571 
L 946.61127 81.303113 
L 950.635856 80.505263 
L 954.660442 80.293334 
L 958.685028 79.358354 
L 962.709614 79.146425 
L 966.734199 79.071627 
L 970.758785 77.837453 
L 974.783371 76.815208 
L 982.832543 76.092157 
L 986.857129 75.194576 
L 994.906301 74.122465 
L 998.930887 74.047667 
L 1002.955473 73.72354 
L 1006.980059 72.975556 
L 1011.004645 72.713762 
L 1015.029231 72.688829 
L 1019.053817 70.856268 
L 1023.078403 69.447565 
L 1027.102989 69.260569 
L 1031.127575 68.263256 
L 1035.15216 67.540205 
L 1039.176746 66.580292 
L 1043.201332 65.40845 
L 1047.225918 65.046925 
L 1051.250504 63.388893 
L 1055.27509 62.715708 
L 1059.299676 61.80566 
L 1063.324262 58.851123 
L 1067.348848 56.706902 
L 1075.39802 56.220712 
L 1079.422606 55.385463 
L 1083.447192 48.479077 
L 1087.471778 45.960863 
L 1091.496364 36.386667 
L 1091.496364 36.386667 
" clip-path="url(#p37351f45ea)" style="fill: none; stroke: #1f77b4; stroke-width: 5; stroke-linecap: square"/>
   </g>
   <g id="line2d_17">
    <path d="M 97.423636 327.053294 
L 101.448222 315.285011 
L 105.472808 317.691026 
L 109.497394 327.153026 
L 113.52198 325.494994 
L 117.546566 322.316062 
L 121.571152 316.145193 
L 125.595738 325.85652 
L 129.620324 326.941097 
L 133.64491 317.404299 
L 137.669496 314.312632 
L 141.694082 308.777549 
L 145.718668 314.063304 
L 149.743254 313.539715 
L 153.76784 316.170125 
L 157.792425 305.810545 
L 161.817011 319.797848 
L 165.841597 311.794418 
L 169.866183 320.134441 
L 173.890769 307.505976 
L 177.915355 305.27449 
L 181.939941 288.282784 
L 185.964527 293.231946 
L 189.989113 272.400588 
L 194.013699 288.058389 
L 198.038285 282.68537 
L 202.062871 281.613259 
L 206.087457 275.342659 
L 210.112043 277.17522 
L 214.136629 280.740611 
L 218.161215 277.312351 
L 222.185801 277.673876 
L 226.210386 276.452169 
L 230.234972 273.485165 
L 234.259558 279.892896 
L 238.284144 281.812722 
L 242.30873 278.608856 
L 246.333316 276.140509 
L 250.357902 286.28816 
L 254.382488 273.298169 
L 258.407074 273.173505 
L 262.43166 281.987251 
L 266.456246 283.48322 
L 270.480832 283.582951 
L 274.505418 283.420888 
L 278.530004 277.549212 
L 282.55459 269.408652 
L 286.579176 268.598336 
L 290.603762 268.536004 
L 294.628347 274.482477 
L 298.652933 276.601766 
L 302.677519 276.165442 
L 306.702105 271.976731 
L 310.726691 278.783386 
L 314.751277 279.618635 
L 318.775863 270.019505 
L 322.800449 275.591987 
L 326.825035 270.543094 
L 330.849621 274.769205 
L 334.874207 271.191347 
L 338.898793 269.894841 
L 342.923379 271.07915 
L 346.947965 273.023908 
L 350.972551 273.74696 
L 354.997137 279.144912 
L 359.021722 266.154921 
L 363.046308 266.566312 
L 367.070894 276.06571 
L 371.09548 273.161039 
L 375.120066 266.765775 
L 379.144652 274.320414 
L 383.169238 270.90462 
L 387.193824 265.868194 
L 391.21841 267.999948 
L 395.242996 269.022193 
L 399.267582 271.714936 
L 403.292168 273.921489 
L 407.316754 268.635735 
L 411.34134 267.30183 
L 415.365926 270.156636 
L 419.390512 266.466581 
L 423.415098 266.416715 
L 427.439683 271.141482 
L 431.464269 273.971355 
L 435.488855 274.145885 
L 439.513441 264.970613 
L 443.538027 274.694406 
L 447.562613 268.959861 
L 451.587199 273.846691 
L 455.611785 267.326763 
L 459.636371 265.494202 
L 463.660957 272.575118 
L 467.685543 263.113119 
L 471.710129 264.696352 
L 475.734715 266.666043 
L 479.759301 268.473672 
L 483.783887 268.37394 
L 487.808473 267.177166 
L 491.833059 269.408652 
L 495.857644 270.331166 
L 499.88223 264.509356 
L 503.906816 272.188659 
L 507.931402 267.177166 
L 511.955988 269.022193 
L 515.980574 269.720312 
L 520.00516 265.918059 
L 524.029746 266.204786 
L 528.054332 266.803174 
L 532.078918 263.649174 
L 536.103504 267.887751 
L 540.12809 274.37028 
L 544.152676 269.919774 
L 548.177262 268.598336 
L 552.201848 262.938589 
L 556.226434 267.588557 
L 560.25102 263.474644 
L 564.275605 272.201126 
L 568.300191 264.122897 
L 572.324777 269.807577 
L 576.349363 265.469269 
L 580.373949 270.393498 
L 584.398535 266.154921 
L 592.447707 269.446051 
L 596.472293 264.085498 
L 600.496879 266.167387 
L 604.521465 268.909996 
L 608.546051 268.934929 
L 612.570637 270.742557 
L 616.595223 265.967925 
L 620.619809 266.715909 
L 624.644395 251.095507 
L 628.66898 265.157609 
L 632.693566 261.729348 
L 636.718152 270.854754 
L 640.742738 267.800486 
L 644.767324 264.359759 
L 648.79191 269.321387 
L 652.816496 266.81564 
L 656.841082 268.112146 
L 660.865668 268.361474 
L 664.890254 259.472929 
L 668.91484 262.115807 
L 672.939426 264.334826 
L 676.964012 259.348265 
L 680.988598 262.552131 
L 685.013184 266.50398 
L 689.03777 264.796083 
L 693.062356 267.351695 
L 697.086941 259.423064 
L 701.111527 264.097965 
L 705.136113 266.479047 
L 709.160699 262.539664 
L 713.185285 263.200384 
L 717.209871 263.300115 
L 721.234457 260.432842 
L 725.259043 261.667016 
L 729.283629 264.883348 
L 733.308215 266.154921 
L 737.332801 257.789965 
L 741.357387 258.924408 
L 745.381973 260.283246 
L 749.406559 260.931498 
L 753.431145 249.262946 
L 757.455731 266.304518 
L 761.480317 261.579751 
L 765.504902 263.337514 
L 769.529488 266.229719 
L 773.554074 264.334826 
L 777.57866 265.25734 
L 781.603246 263.424779 
L 785.627832 263.985767 
L 789.652418 262.140739 
L 793.677004 260.532574 
L 797.70159 264.858415 
L 801.726176 266.666043 
L 805.750762 265.681198 
L 809.775348 263.362447 
L 813.799934 261.816613 
L 817.82452 263.437245 
L 821.849106 254.399104 
L 825.873692 257.104313 
L 829.898278 264.983079 
L 833.922863 266.603711 
L 837.947449 262.514731 
L 841.972035 263.125585 
L 845.996621 262.27787 
L 850.021207 266.01779 
L 854.045793 260.694637 
L 858.070379 262.913656 
L 862.094965 259.772123 
L 866.119551 267.264431 
L 870.144137 246.171279 
L 874.168723 261.916344 
L 878.193309 262.701728 
L 882.217895 262.190605 
L 886.242481 260.171048 
L 890.267067 256.593191 
L 894.291653 260.582439 
L 898.316238 258.537949 
L 902.340824 260.806834 
L 906.36541 257.553104 
L 910.389996 258.774811 
L 914.414582 262.838858 
L 918.439168 260.395443 
L 922.463754 265.456802 
L 926.48834 259.447997 
L 930.512926 258.064226 
L 934.537512 267.962549 
L 938.562098 254.424037 
L 942.586684 260.694637 
L 946.61127 258.263688 
L 950.635856 256.381262 
L 954.660442 262.975988 
L 958.685028 260.71957 
L 962.709614 259.310866 
L 966.734199 253.065199 
L 970.758785 258.936874 
L 974.783371 260.495174 
L 978.807957 265.419403 
L 982.832543 259.236068 
L 986.857129 262.028542 
L 990.881715 260.482708 
L 994.906301 256.792653 
L 998.930887 249.462409 
L 1002.955473 253.538922 
L 1006.980059 254.548701 
L 1011.004645 258.724945 
L 1015.029231 256.431127 
L 1019.053817 262.527198 
L 1023.078403 261.006297 
L 1027.102989 260.881633 
L 1031.127575 253.414258 
L 1035.15216 262.689261 
L 1039.176746 256.929783 
L 1043.201332 260.345578 
L 1047.225918 258.849609 
L 1051.250504 260.23338 
L 1055.27509 256.892384 
L 1059.299676 257.727633 
L 1063.324262 260.245846 
L 1067.348848 256.044669 
L 1071.373434 257.87723 
L 1075.39802 252.616408 
L 1079.422606 256.530859 
L 1083.447192 259.285933 
L 1087.471778 258.650147 
L 1091.496364 256.468527 
L 1091.496364 256.468527 
" clip-path="url(#p37351f45ea)" style="fill: none; stroke: #ff7f0e; stroke-width: 1.5; stroke-linecap: square"/>
   </g>
   <g id="patch_3">
    <path d="M 47.72 548.12 
L 47.72 10.8 
" style="fill: none; stroke: #000000; stroke-width: 0.8; stroke-linejoin: miter; stroke-linecap: square"/>
   </g>
   <g id="patch_4">
    <path d="M 1141.2 548.12 
L 1141.2 10.8 
" style="fill: none; stroke: #000000; stroke-width: 0.8; stroke-linejoin: miter; stroke-linecap: square"/>
   </g>
   <g id="patch_5">
    <path d="M 47.72 548.12 
L 1141.2 548.12 
" style="fill: none; stroke: #000000; stroke-width: 0.8; stroke-linejoin: miter; stroke-linecap: square"/>
   </g>
   <g id="patch_6">
    <path d="M 47.72 10.8 
L 1141.2 10.8 
" style="fill: none; stroke: #000000; stroke-width: 0.8; stroke-linejoin: miter; stroke-linecap: square"/>
   </g>
   <g id="legend_1">
    <g id="patch_7">
     <path d="M 54.72 48.15625 
L 147.777813 48.15625 
Q 149.777813 48.15625 149.777813 46.15625 
L 149.777813 17.8 
Q 149.777813 15.8 147.777813 15.8 
L 54.72 15.8 
Q 52.72 15.8 52.72 17.8 
L 52.72 46.15625 
Q 52.72 48.15625 54.72 48.15625 
z
" style="fill: #ffffff; opacity: 0.8; stroke: #cccccc; stroke-linejoin: miter"/>
    </g>
    <g id="line2d_18">
     <path d="M 56.72 23.898438 
L 66.72 23.898438 
L 76.72 23.898438 
" style="fill: none; stroke: #1f77b4; stroke-width: 5; stroke-linecap: square"/>
    </g>
    <g id="text_17">
     <!-- PNG decode -->
     <g transform="translate(84.72 27.398438) scale(0.1 -0.1)">
      <defs>
       <path id="DejaVuSans-50" d="M 1259 4147 
L 1259 2394 
L 2053 2394 
Q 2494 2394 2734 2622 
Q 2975 2850 2975 3272 
Q 2975 3691 2734 3919 
Q 2494 4147 2053 4147 
L 1259 4147 
z
M 628 4666 
L 2053 4666 
Q 2838 4666 3239 4311 
Q 3641 3956 3641 3272 
Q 3641 2581 3239 2228 
Q 2838 1875 2053 1875 
L 1259 1875 
L 1259 0 
L 628 0 
L 628 4666 
z
" transform="scale(0.015625)"/>
       <path id="DejaVuSans-4e" d="M 628 4666 
L 1478 4666 
L 3547 763 
L 3547 4666 
L 4159 4666 
L 4159 0 
L 3309 0 
L 1241 3903 
L 1241 0 
L 628 0 
L 628 4666 
z
" transform="scale(0.015625)"/>
       <path id="DejaVuSans-47" d="M 3809 666 
L 3809 1919 
L 2778 1919 
L 2778 2438 
L 4434 2438 
L 4434 434 
Q 4069 175 3628 42 
Q 3188 -91 2688 -91 
Q 1594 -91 976 548 
Q 359 1188 359 2328 
Q 359 3472 976 4111 
Q 1594 4750 2688 4750 
Q 3144 4750 3555 4637 
Q 3966 4525 4313 4306 
L 4313 3634 
Q 3963 3931 3569 4081 
Q 3175 4231 2741 4231 
Q 1884 4231 1454 3753 
Q 1025 3275 1025 2328 
Q 1025 1384 1454 906 
Q 1884 428 2741 428 
Q 3075 428 3337 486 
Q 3600 544 3809 666 
z
" transform="scale(0.015625)"/>
       <path id="DejaVuSans-20" transform="scale(0.015625)"/>
      </defs>
      <use xlink:href="#DejaVuSans-50"/>
      <use xlink:href="#DejaVuSans-4e" x="60.302734"/>
      <use xlink:href="#DejaVuSans-47" x="135.107422"/>
      <use xlink:href="#DejaVuSans-20" x="212.597656"/>
      <use xlink:href="#DejaVuSans-64" x="244.384766"/>
      <use xlink:href="#DejaVuSans-65" x="307.861328"/>
      <use xlink:href="#DejaVuSans-63" x="369.384766"/>
      <use xlink:href="#DejaVuSans-6f" x="424.365234"/>
      <use xlink:href="#DejaVuSans-64" x="485.546875"/>
      <use xlink:href="#DejaVuSans-65" x="549.023438"/>
     </g>
    </g>
    <g id="line2d_19">
     <path d="M 56.72 38.576563 
L 66.72 38.576563 
L 76.72 38.576563 
" style="fill: none; stroke: #ff7f0e; stroke-width: 1.5; stroke-linecap: square"/>
    </g>
    <g id="text_18">
     <!-- QB3 decode -->
     <g transform="translate(84.72 42.076563) scale(0.1 -0.1)">
      <defs>
       <path id="DejaVuSans-51" d="M 2522 4238 
Q 1834 4238 1429 3725 
Q 1025 3213 1025 2328 
Q 1025 1447 1429 934 
Q 1834 422 2522 422 
Q 3209 422 3611 934 
Q 4013 1447 4013 2328 
Q 4013 3213 3611 3725 
Q 3209 4238 2522 4238 
z
M 3406 84 
L 4238 -825 
L 3475 -825 
L 2784 -78 
Q 2681 -84 2626 -87 
Q 2572 -91 2522 -91 
Q 1538 -91 948 567 
Q 359 1225 359 2328 
Q 359 3434 948 4092 
Q 1538 4750 2522 4750 
Q 3503 4750 4090 4092 
Q 4678 3434 4678 2328 
Q 4678 1516 4351 937 
Q 4025 359 3406 84 
z
" transform="scale(0.015625)"/>
       <path id="DejaVuSans-42" d="M 1259 2228 
L 1259 519 
L 2272 519 
Q 2781 519 3026 730 
Q 3272 941 3272 1375 
Q 3272 1813 3026 2020 
Q 2781 2228 2272 2228 
L 1259 2228 
z
M 1259 4147 
L 1259 2741 
L 2194 2741 
Q 2656 2741 2882 2914 
Q 3109 3088 3109 3444 
Q 3109 3797 2882 3972 
Q 2656 4147 2194 4147 
L 1259 4147 
z
M 628 4666 
L 2241 4666 
Q 2963 4666 3353 4366 
Q 3744 4066 3744 3513 
Q 3744 3084 3544 2831 
Q 3344 2578 2956 2516 
Q 3422 2416 3680 2098 
Q 3938 1781 3938 1306 
Q 3938 681 3513 340 
Q 3088 0 2303 0 
L 628 0 
L 628 4666 
z
" transform="scale(0.015625)"/>
      </defs>
      <use xlink:href="#DejaVuSans-51"/>
      <use xlink:href="#DejaVuSans-42" x="78.710938"/>
      <use xlink:href="#DejaVuSans-33" x="147.314453"/>
      <use xlink:href="#DejaVuSans-20" x="210.9375"/>
      <use xlink:href="#DejaVuSans-64" x="242.724609"/>
      <use xlink:href="#DejaVuSans-65" x="306.201172"/>
      <use xlink:href="#DejaVuSans-63" x="367.724609"/>
      <use xlink:href="#DejaVuSans-6f" x="422.705078"/>
      <use xlink:href="#DejaVuSans-64" x="483.886719"/>
      <use xlink:href="#DejaVuSans-65" x="547.363281"/>
     </g>
    </g>
   </g>
  </g>
 </g>
 <defs>
  <clipPath id="p37351f45ea">
   <rect x="47.72" y="10.8" width="1093.48" height="537.32"/>
  </clipPath>
 </defs>
</svg>
