<?xml version="1.0" encoding="utf-8" standalone="no"?>
<!DOCTYPE svg PUBLIC "-//W3C//DTD SVG 1.1//EN"
  "http://www.w3.org/Graphics/SVG/1.1/DTD/svg11.dtd">
<svg xmlns:xlink="http://www.w3.org/1999/xlink" width="1440pt" height="720pt" viewBox="0 0 1440 720" xmlns="http://www.w3.org/2000/svg" version="1.1">
 <metadata>
  <rdf:RDF xmlns:dc="http://purl.org/dc/elements/1.1/" xmlns:cc="http://creativecommons.org/ns#" xmlns:rdf="http://www.w3.org/1999/02/22-rdf-syntax-ns#">
   <cc:Work>
    <dc:type rdf:resource="http://purl.org/dc/dcmitype/StillImage"/>
    <dc:date>2025-03-20T10:48:45.523999</dc:date>
    <dc:format>image/svg+xml</dc:format>
    <dc:creator>
     <cc:Agent>
      <dc:title>Matplotlib v3.9.0, https://matplotlib.org/</dc:title>
     </cc:Agent>
    </dc:creator>
   </cc:Work>
  </rdf:RDF>
 </metadata>
 <defs>
  <style type="text/css">*{stroke-linejoin: round; stroke-linecap: butt}</style>
 </defs>
 <g id="figure_1">
  <g id="patch_1">
   <path d="M 0 720 
L 1440 720 
L 1440 0 
L 0 0 
z
" style="fill: #ffffff"/>
  </g>
  <g id="axes_1">
   <g id="patch_2">
    <path d="M 180 640.8 
L 1296 640.8 
L 1296 86.4 
L 180 86.4 
z
" style="fill: #ffffff"/>
   </g>
   <g id="matplotlib.axis_1">
    <g id="xtick_1">
     <g id="line2d_1">
      <defs>
       <path id="mb877cb796f" d="M 0 0 
L 0 3.5 
" style="stroke: #000000; stroke-width: 0.8"/>
      </defs>
      <g>
       <use xlink:href="#mb877cb796f" x="230.727273" y="640.8" style="stroke: #000000; stroke-width: 0.8"/>
      </g>
     </g>
     <g id="text_1">
      <!-- 0 -->
      <g transform="translate(227.546023 655.398438) scale(0.1 -0.1)">
       <defs>
        <path id="DejaVuSans-30" d="M 2034 4250 
Q 1547 4250 1301 3770 
Q 1056 3291 1056 2328 
Q 1056 1369 1301 889 
Q 1547 409 2034 409 
Q 2525 409 2770 889 
Q 3016 1369 3016 2328 
Q 3016 3291 2770 3770 
Q 2525 4250 2034 4250 
z
M 2034 4750 
Q 2819 4750 3233 4129 
Q 3647 3509 3647 2328 
Q 3647 1150 3233 529 
Q 2819 -91 2034 -91 
Q 1250 -91 836 529 
Q 422 1150 422 2328 
Q 422 3509 836 4129 
Q 1250 4750 2034 4750 
z
" transform="scale(0.015625)"/>
       </defs>
       <use xlink:href="#DejaVuSans-30"/>
      </g>
     </g>
    </g>
    <g id="xtick_2">
     <g id="line2d_2">
      <g>
       <use xlink:href="#mb877cb796f" x="436.100847" y="640.8" style="stroke: #000000; stroke-width: 0.8"/>
      </g>
     </g>
     <g id="text_2">
      <!-- 50 -->
      <g transform="translate(429.738347 655.398438) scale(0.1 -0.1)">
       <defs>
        <path id="DejaVuSans-35" d="M 691 4666 
L 3169 4666 
L 3169 4134 
L 1269 4134 
L 1269 2991 
Q 1406 3038 1543 3061 
Q 1681 3084 1819 3084 
Q 2600 3084 3056 2656 
Q 3513 2228 3513 1497 
Q 3513 744 3044 326 
Q 2575 -91 1722 -91 
Q 1428 -91 1123 -41 
Q 819 9 494 109 
L 494 744 
Q 775 591 1075 516 
Q 1375 441 1709 441 
Q 2250 441 2565 725 
Q 2881 1009 2881 1497 
Q 2881 1984 2565 2268 
Q 2250 2553 1709 2553 
Q 1456 2553 1204 2497 
Q 953 2441 691 2322 
L 691 4666 
z
" transform="scale(0.015625)"/>
       </defs>
       <use xlink:href="#DejaVuSans-35"/>
       <use xlink:href="#DejaVuSans-30" x="63.623047"/>
      </g>
     </g>
    </g>
    <g id="xtick_3">
     <g id="line2d_3">
      <g>
       <use xlink:href="#mb877cb796f" x="641.47442" y="640.8" style="stroke: #000000; stroke-width: 0.8"/>
      </g>
     </g>
     <g id="text_3">
      <!-- 100 -->
      <g transform="translate(631.93067 655.398438) scale(0.1 -0.1)">
       <defs>
        <path id="DejaVuSans-31" d="M 794 531 
L 1825 531 
L 1825 4091 
L 703 3866 
L 703 4441 
L 1819 4666 
L 2450 4666 
L 2450 531 
L 3481 531 
L 3481 0 
L 794 0 
L 794 531 
z
" transform="scale(0.015625)"/>
       </defs>
       <use xlink:href="#DejaVuSans-31"/>
       <use xlink:href="#DejaVuSans-30" x="63.623047"/>
       <use xlink:href="#DejaVuSans-30" x="127.246094"/>
      </g>
     </g>
    </g>
    <g id="xtick_4">
     <g id="line2d_4">
      <g>
       <use xlink:href="#mb877cb796f" x="846.847994" y="640.8" style="stroke: #000000; stroke-width: 0.8"/>
      </g>
     </g>
     <g id="text_4">
      <!-- 150 -->
      <g transform="translate(837.304244 655.398438) scale(0.1 -0.1)">
       <use xlink:href="#DejaVuSans-31"/>
       <use xlink:href="#DejaVuSans-35" x="63.623047"/>
       <use xlink:href="#DejaVuSans-30" x="127.246094"/>
      </g>
     </g>
    </g>
    <g id="xtick_5">
     <g id="line2d_5">
      <g>
       <use xlink:href="#mb877cb796f" x="1052.221568" y="640.8" style="stroke: #000000; stroke-width: 0.8"/>
      </g>
     </g>
     <g id="text_5">
      <!-- 200 -->
      <g transform="translate(1042.677818 655.398438) scale(0.1 -0.1)">
       <defs>
        <path id="DejaVuSans-32" d="M 1228 531 
L 3431 531 
L 3431 0 
L 469 0 
L 469 531 
Q 828 903 1448 1529 
Q 2069 2156 2228 2338 
Q 2531 2678 2651 2914 
Q 2772 3150 2772 3378 
Q 2772 3750 2511 3984 
Q 2250 4219 1831 4219 
Q 1534 4219 1204 4116 
Q 875 4013 500 3803 
L 500 4441 
Q 881 4594 1212 4672 
Q 1544 4750 1819 4750 
Q 2544 4750 2975 4387 
Q 3406 4025 3406 3419 
Q 3406 3131 3298 2873 
Q 3191 2616 2906 2266 
Q 2828 2175 2409 1742 
Q 1991 1309 1228 531 
z
" transform="scale(0.015625)"/>
       </defs>
       <use xlink:href="#DejaVuSans-32"/>
       <use xlink:href="#DejaVuSans-30" x="63.623047"/>
       <use xlink:href="#DejaVuSans-30" x="127.246094"/>
      </g>
     </g>
    </g>
    <g id="xtick_6">
     <g id="line2d_6">
      <g>
       <use xlink:href="#mb877cb796f" x="1257.595142" y="640.8" style="stroke: #000000; stroke-width: 0.8"/>
      </g>
     </g>
     <g id="text_6">
      <!-- 250 -->
      <g transform="translate(1248.051392 655.398438) scale(0.1 -0.1)">
       <use xlink:href="#DejaVuSans-32"/>
       <use xlink:href="#DejaVuSans-35" x="63.623047"/>
       <use xlink:href="#DejaVuSans-30" x="127.246094"/>
      </g>
     </g>
    </g>
   </g>
   <g id="matplotlib.axis_2">
    <g id="ytick_1">
     <g id="line2d_7">
      <defs>
       <path id="m5bc49d2be3" d="M 0 0 
L -3.5 0 
" style="stroke: #000000; stroke-width: 0.8"/>
      </defs>
      <g>
       <use xlink:href="#m5bc49d2be3" x="180" y="586.272452" style="stroke: #000000; stroke-width: 0.8"/>
      </g>
     </g>
     <g id="text_7">
      <!-- 1.5 -->
      <g transform="translate(157.096875 590.071671) scale(0.1 -0.1)">
       <defs>
        <path id="DejaVuSans-2e" d="M 684 794 
L 1344 794 
L 1344 0 
L 684 0 
L 684 794 
z
" transform="scale(0.015625)"/>
       </defs>
       <use xlink:href="#DejaVuSans-31"/>
       <use xlink:href="#DejaVuSans-2e" x="63.623047"/>
       <use xlink:href="#DejaVuSans-35" x="95.410156"/>
      </g>
     </g>
    </g>
    <g id="ytick_2">
     <g id="line2d_8">
      <g>
       <use xlink:href="#m5bc49d2be3" x="180" y="498.095819" style="stroke: #000000; stroke-width: 0.8"/>
      </g>
     </g>
     <g id="text_8">
      <!-- 2.0 -->
      <g transform="translate(157.096875 501.895037) scale(0.1 -0.1)">
       <use xlink:href="#DejaVuSans-32"/>
       <use xlink:href="#DejaVuSans-2e" x="63.623047"/>
       <use xlink:href="#DejaVuSans-30" x="95.410156"/>
      </g>
     </g>
    </g>
    <g id="ytick_3">
     <g id="line2d_9">
      <g>
       <use xlink:href="#m5bc49d2be3" x="180" y="409.919185" style="stroke: #000000; stroke-width: 0.8"/>
      </g>
     </g>
     <g id="text_9">
      <!-- 2.5 -->
      <g transform="translate(157.096875 413.718404) scale(0.1 -0.1)">
       <use xlink:href="#DejaVuSans-32"/>
       <use xlink:href="#DejaVuSans-2e" x="63.623047"/>
       <use xlink:href="#DejaVuSans-35" x="95.410156"/>
      </g>
     </g>
    </g>
    <g id="ytick_4">
     <g id="line2d_10">
      <g>
       <use xlink:href="#m5bc49d2be3" x="180" y="321.742552" style="stroke: #000000; stroke-width: 0.8"/>
      </g>
     </g>
     <g id="text_10">
      <!-- 3.0 -->
      <g transform="translate(157.096875 325.541771) scale(0.1 -0.1)">
       <defs>
        <path id="DejaVuSans-33" d="M 2597 2516 
Q 3050 2419 3304 2112 
Q 3559 1806 3559 1356 
Q 3559 666 3084 287 
Q 2609 -91 1734 -91 
Q 1441 -91 1130 -33 
Q 819 25 488 141 
L 488 750 
Q 750 597 1062 519 
Q 1375 441 1716 441 
Q 2309 441 2620 675 
Q 2931 909 2931 1356 
Q 2931 1769 2642 2001 
Q 2353 2234 1838 2234 
L 1294 2234 
L 1294 2753 
L 1863 2753 
Q 2328 2753 2575 2939 
Q 2822 3125 2822 3475 
Q 2822 3834 2567 4026 
Q 2313 4219 1838 4219 
Q 1578 4219 1281 4162 
Q 984 4106 628 3988 
L 628 4550 
Q 988 4650 1302 4700 
Q 1616 4750 1894 4750 
Q 2613 4750 3031 4423 
Q 3450 4097 3450 3541 
Q 3450 3153 3228 2886 
Q 3006 2619 2597 2516 
z
" transform="scale(0.015625)"/>
       </defs>
       <use xlink:href="#DejaVuSans-33"/>
       <use xlink:href="#DejaVuSans-2e" x="63.623047"/>
       <use xlink:href="#DejaVuSans-30" x="95.410156"/>
      </g>
     </g>
    </g>
    <g id="ytick_5">
     <g id="line2d_11">
      <g>
       <use xlink:href="#m5bc49d2be3" x="180" y="233.565919" style="stroke: #000000; stroke-width: 0.8"/>
      </g>
     </g>
     <g id="text_11">
      <!-- 3.5 -->
      <g transform="translate(157.096875 237.365138) scale(0.1 -0.1)">
       <use xlink:href="#DejaVuSans-33"/>
       <use xlink:href="#DejaVuSans-2e" x="63.623047"/>
       <use xlink:href="#DejaVuSans-35" x="95.410156"/>
      </g>
     </g>
    </g>
    <g id="ytick_6">
     <g id="line2d_12">
      <g>
       <use xlink:href="#m5bc49d2be3" x="180" y="145.389286" style="stroke: #000000; stroke-width: 0.8"/>
      </g>
     </g>
     <g id="text_12">
      <!-- 4.0 -->
      <g transform="translate(157.096875 149.188505) scale(0.1 -0.1)">
       <defs>
        <path id="DejaVuSans-34" d="M 2419 4116 
L 825 1625 
L 2419 1625 
L 2419 4116 
z
M 2253 4666 
L 3047 4666 
L 3047 1625 
L 3713 1625 
L 3713 1100 
L 3047 1100 
L 3047 0 
L 2419 0 
L 2419 1100 
L 313 1100 
L 313 1709 
L 2253 4666 
z
" transform="scale(0.015625)"/>
       </defs>
       <use xlink:href="#DejaVuSans-34"/>
       <use xlink:href="#DejaVuSans-2e" x="63.623047"/>
       <use xlink:href="#DejaVuSans-30" x="95.410156"/>
      </g>
     </g>
    </g>
    <g id="text_13">
     <!-- milliseconds -->
     <g transform="translate(151.017188 394.464062) rotate(-90) scale(0.1 -0.1)">
      <defs>
       <path id="DejaVuSans-6d" d="M 3328 2828 
Q 3544 3216 3844 3400 
Q 4144 3584 4550 3584 
Q 5097 3584 5394 3201 
Q 5691 2819 5691 2113 
L 5691 0 
L 5113 0 
L 5113 2094 
Q 5113 2597 4934 2840 
Q 4756 3084 4391 3084 
Q 3944 3084 3684 2787 
Q 3425 2491 3425 1978 
L 3425 0 
L 2847 0 
L 2847 2094 
Q 2847 2600 2669 2842 
Q 2491 3084 2119 3084 
Q 1678 3084 1418 2786 
Q 1159 2488 1159 1978 
L 1159 0 
L 581 0 
L 581 3500 
L 1159 3500 
L 1159 2956 
Q 1356 3278 1631 3431 
Q 1906 3584 2284 3584 
Q 2666 3584 2933 3390 
Q 3200 3197 3328 2828 
z
" transform="scale(0.015625)"/>
       <path id="DejaVuSans-69" d="M 603 3500 
L 1178 3500 
L 1178 0 
L 603 0 
L 603 3500 
z
M 603 4863 
L 1178 4863 
L 1178 4134 
L 603 4134 
L 603 4863 
z
" transform="scale(0.015625)"/>
       <path id="DejaVuSans-6c" d="M 603 4863 
L 1178 4863 
L 1178 0 
L 603 0 
L 603 4863 
z
" transform="scale(0.015625)"/>
       <path id="DejaVuSans-73" d="M 2834 3397 
L 2834 2853 
Q 2591 2978 2328 3040 
Q 2066 3103 1784 3103 
Q 1356 3103 1142 2972 
Q 928 2841 928 2578 
Q 928 2378 1081 2264 
Q 1234 2150 1697 2047 
L 1894 2003 
Q 2506 1872 2764 1633 
Q 3022 1394 3022 966 
Q 3022 478 2636 193 
Q 2250 -91 1575 -91 
Q 1294 -91 989 -36 
Q 684 19 347 128 
L 347 722 
Q 666 556 975 473 
Q 1284 391 1588 391 
Q 1994 391 2212 530 
Q 2431 669 2431 922 
Q 2431 1156 2273 1281 
Q 2116 1406 1581 1522 
L 1381 1569 
Q 847 1681 609 1914 
Q 372 2147 372 2553 
Q 372 3047 722 3315 
Q 1072 3584 1716 3584 
Q 2034 3584 2315 3537 
Q 2597 3491 2834 3397 
z
" transform="scale(0.015625)"/>
       <path id="DejaVuSans-65" d="M 3597 1894 
L 3597 1613 
L 953 1613 
Q 991 1019 1311 708 
Q 1631 397 2203 397 
Q 2534 397 2845 478 
Q 3156 559 3463 722 
L 3463 178 
Q 3153 47 2828 -22 
Q 2503 -91 2169 -91 
Q 1331 -91 842 396 
Q 353 884 353 1716 
Q 353 2575 817 3079 
Q 1281 3584 2069 3584 
Q 2775 3584 3186 3129 
Q 3597 2675 3597 1894 
z
M 3022 2063 
Q 3016 2534 2758 2815 
Q 2500 3097 2075 3097 
Q 1594 3097 1305 2825 
Q 1016 2553 972 2059 
L 3022 2063 
z
" transform="scale(0.015625)"/>
       <path id="DejaVuSans-63" d="M 3122 3366 
L 3122 2828 
Q 2878 2963 2633 3030 
Q 2388 3097 2138 3097 
Q 1578 3097 1268 2742 
Q 959 2388 959 1747 
Q 959 1106 1268 751 
Q 1578 397 2138 397 
Q 2388 397 2633 464 
Q 2878 531 3122 666 
L 3122 134 
Q 2881 22 2623 -34 
Q 2366 -91 2075 -91 
Q 1284 -91 818 406 
Q 353 903 353 1747 
Q 353 2603 823 3093 
Q 1294 3584 2113 3584 
Q 2378 3584 2631 3529 
Q 2884 3475 3122 3366 
z
" transform="scale(0.015625)"/>
       <path id="DejaVuSans-6f" d="M 1959 3097 
Q 1497 3097 1228 2736 
Q 959 2375 959 1747 
Q 959 1119 1226 758 
Q 1494 397 1959 397 
Q 2419 397 2687 759 
Q 2956 1122 2956 1747 
Q 2956 2369 2687 2733 
Q 2419 3097 1959 3097 
z
M 1959 3584 
Q 2709 3584 3137 3096 
Q 3566 2609 3566 1747 
Q 3566 888 3137 398 
Q 2709 -91 1959 -91 
Q 1206 -91 779 398 
Q 353 888 353 1747 
Q 353 2609 779 3096 
Q 1206 3584 1959 3584 
z
" transform="scale(0.015625)"/>
       <path id="DejaVuSans-6e" d="M 3513 2113 
L 3513 0 
L 2938 0 
L 2938 2094 
Q 2938 2591 2744 2837 
Q 2550 3084 2163 3084 
Q 1697 3084 1428 2787 
Q 1159 2491 1159 1978 
L 1159 0 
L 581 0 
L 581 3500 
L 1159 3500 
L 1159 2956 
Q 1366 3272 1645 3428 
Q 1925 3584 2291 3584 
Q 2894 3584 3203 3211 
Q 3513 2838 3513 2113 
z
" transform="scale(0.015625)"/>
       <path id="DejaVuSans-64" d="M 2906 2969 
L 2906 4863 
L 3481 4863 
L 3481 0 
L 2906 0 
L 2906 525 
Q 2725 213 2448 61 
Q 2172 -91 1784 -91 
Q 1150 -91 751 415 
Q 353 922 353 1747 
Q 353 2572 751 3078 
Q 1150 3584 1784 3584 
Q 2172 3584 2448 3432 
Q 2725 3281 2906 2969 
z
M 947 1747 
Q 947 1113 1208 752 
Q 1469 391 1925 391 
Q 2381 391 2643 752 
Q 2906 1113 2906 1747 
Q 2906 2381 2643 2742 
Q 2381 3103 1925 3103 
Q 1469 3103 1208 2742 
Q 947 2381 947 1747 
z
" transform="scale(0.015625)"/>
      </defs>
      <use xlink:href="#DejaVuSans-6d"/>
      <use xlink:href="#DejaVuSans-69" x="97.412109"/>
      <use xlink:href="#DejaVuSans-6c" x="125.195312"/>
      <use xlink:href="#DejaVuSans-6c" x="152.978516"/>
      <use xlink:href="#DejaVuSans-69" x="180.761719"/>
      <use xlink:href="#DejaVuSans-73" x="208.544922"/>
      <use xlink:href="#DejaVuSans-65" x="260.644531"/>
      <use xlink:href="#DejaVuSans-63" x="322.167969"/>
      <use xlink:href="#DejaVuSans-6f" x="377.148438"/>
      <use xlink:href="#DejaVuSans-6e" x="438.330078"/>
      <use xlink:href="#DejaVuSans-64" x="501.708984"/>
      <use xlink:href="#DejaVuSans-73" x="565.185547"/>
     </g>
    </g>
   </g>
   <g id="line2d_13">
    <path d="M 230.727273 615.6 
L 234.834744 602.073704 
L 238.942216 599.216782 
L 243.049687 594.419973 
L 247.157159 592.356639 
L 251.26463 587.454019 
L 255.372102 576.361398 
L 259.479573 575.320914 
L 263.587045 567.878806 
L 267.694516 567.279205 
L 275.909459 566.750145 
L 280.01693 561.741712 
L 284.124402 557.791399 
L 288.231873 556.133679 
L 292.339345 551.707212 
L 296.446816 550.913622 
L 300.554288 544.988152 
L 304.661759 540.173708 
L 308.769231 516.824535 
L 312.876702 501.305448 
L 316.984174 458.275251 
L 321.091645 451.820722 
L 325.199117 404.346422 
L 329.306588 365.742692 
L 337.521531 365.284174 
L 341.629003 358.071325 
L 345.736474 357.471724 
L 349.843946 336.908933 
L 353.951417 336.256426 
L 358.058888 326.521726 
L 362.16636 326.20429 
L 366.273831 325.551783 
L 370.381303 322.518507 
L 374.488774 322.447965 
L 378.596246 322.130529 
L 382.703717 321.530928 
L 386.811189 318.815088 
L 390.91866 317.510074 
L 395.026132 316.787025 
L 399.133603 316.76939 
L 403.241075 313.365772 
L 407.348546 313.136513 
L 411.456018 311.672781 
L 415.563489 311.33771 
L 419.670961 310.367767 
L 423.778432 305.041898 
L 427.885904 303.384177 
L 431.993375 301.444291 
L 440.208318 300.227454 
L 444.315789 298.798992 
L 448.423261 296.418223 
L 452.530732 296.153693 
L 456.638204 294.831044 
L 460.745675 290.528024 
L 464.853147 290.457483 
L 468.960618 290.087141 
L 473.06809 289.840246 
L 477.175561 285.290332 
L 481.283033 284.232212 
L 485.390504 280.899136 
L 489.497976 280.705147 
L 493.605447 279.594122 
L 501.82039 278.99452 
L 505.927862 278.588908 
L 510.035333 277.742412 
L 514.142805 277.283894 
L 518.250276 276.208139 
L 522.357748 275.467455 
L 526.465219 273.474663 
L 530.57269 273.069051 
L 534.680162 271.1468 
L 538.787633 270.441387 
L 542.895105 269.065832 
L 547.002576 268.148795 
L 551.110048 268.025347 
L 555.217519 267.725547 
L 559.324991 267.707911 
L 563.432462 266.737968 
L 567.539934 266.420533 
L 571.647405 266.385262 
L 579.862348 264.180846 
L 583.96982 263.457798 
L 588.077291 260.847769 
L 592.184763 260.283439 
L 596.292234 260.248168 
L 600.399706 259.419308 
L 604.507177 257.796858 
L 608.614649 257.743952 
L 612.72212 257.497057 
L 616.829591 257.391245 
L 625.044534 256.826915 
L 629.152006 254.834123 
L 633.259477 254.781217 
L 637.366949 254.146345 
L 641.47442 253.158767 
L 645.581892 252.453354 
L 649.689363 251.042528 
L 653.796835 250.35475 
L 657.904306 249.860961 
L 662.011778 249.085006 
L 666.119249 246.263354 
L 674.334192 245.875377 
L 678.441664 244.658539 
L 682.549135 243.970762 
L 686.656607 241.889793 
L 690.764078 240.65532 
L 694.87155 240.337884 
L 698.979021 239.367941 
L 707.193964 239.138682 
L 711.301435 238.380363 
L 719.516378 238.362728 
L 731.838793 237.569138 
L 740.053736 236.123041 
L 744.161207 235.999594 
L 752.37615 235.470534 
L 756.483622 235.012016 
L 760.591093 234.888569 
L 768.806036 234.077344 
L 772.913508 233.33666 
L 781.12845 231.290962 
L 785.235922 231.079338 
L 789.343393 229.809594 
L 797.558336 229.368711 
L 801.665808 228.522216 
L 805.773279 228.151874 
L 809.880751 227.076119 
L 813.988222 226.547059 
L 818.095694 225.78874 
L 822.203165 225.506575 
L 826.310637 225.030421 
L 830.418108 224.289737 
L 838.633051 224.183925 
L 842.740523 223.760677 
L 846.847994 222.526205 
L 855.062937 221.926603 
L 867.385351 221.662074 
L 875.600294 221.556262 
L 879.707766 220.815578 
L 883.815237 219.351846 
L 887.922709 218.50535 
L 892.03018 217.44723 
L 896.137652 216.918171 
L 900.245123 215.119367 
L 904.352595 215.013555 
L 912.567538 214.590308 
L 916.675009 212.597516 
L 920.782481 211.997915 
L 928.997424 211.521761 
L 933.104895 211.327772 
L 937.212367 210.463641 
L 945.42731 210.42837 
L 953.642252 209.581875 
L 957.749724 209.387886 
L 961.857195 207.112929 
L 970.072138 205.631562 
L 974.17961 205.56102 
L 978.287081 204.855607 
L 982.394553 203.532958 
L 986.502024 202.492473 
L 990.609496 202.298485 
L 994.716967 201.610707 
L 998.824439 200.799482 
L 1002.93191 200.676035 
L 1007.039382 200.358599 
L 1011.146853 198.083642 
L 1015.254325 197.889653 
L 1019.361796 197.078428 
L 1023.469268 196.902075 
L 1027.576739 195.791049 
L 1031.684211 195.614696 
L 1039.899153 194.4684 
L 1044.006625 192.563785 
L 1048.114096 191.911278 
L 1052.221568 191.082417 
L 1056.329039 190.729711 
L 1060.436511 188.772189 
L 1064.543982 188.507659 
L 1068.651454 188.419483 
L 1072.758925 187.396634 
L 1076.866397 186.761762 
L 1080.973868 185.615466 
L 1085.08134 183.322873 
L 1089.188811 183.075979 
L 1093.296283 182.405836 
L 1101.511226 182.300024 
L 1109.726169 180.465951 
L 1113.83364 179.831079 
L 1126.156054 177.097603 
L 1134.370997 176.162931 
L 1142.58594 173.993786 
L 1146.693412 173.97615 
L 1150.800883 173.306008 
L 1154.908355 172.88276 
L 1159.015826 172.300794 
L 1163.123298 171.930452 
L 1167.230769 171.366122 
L 1171.338241 170.99578 
L 1179.553184 169.302789 
L 1183.660655 168.791364 
L 1187.768127 166.639854 
L 1191.875598 166.181336 
L 1195.98307 162.301564 
L 1200.090541 158.756863 
L 1204.198013 158.28071 
L 1208.305484 156.993331 
L 1212.412955 156.182106 
L 1216.520427 152.073075 
L 1220.627898 148.916351 
L 1224.73537 146.888289 
L 1228.842841 139.992876 
L 1232.950313 138.634956 
L 1237.057784 138.61732 
L 1241.165256 136.800882 
L 1245.272727 111.6 
L 1245.272727 111.6 
" clip-path="url(#pe0e65ba792)" style="fill: none; stroke: #1f77b4; stroke-width: 5; stroke-linecap: square"/>
   </g>
   <g id="line2d_14">
    <path d="M 230.727273 503.86257 
L 234.834744 514.479037 
L 238.942216 495.327072 
L 243.049687 512.398069 
L 247.157159 481.624424 
L 251.26463 510.440547 
L 255.372102 489.489779 
L 259.479573 512.76841 
L 263.587045 479.52582 
L 267.694516 489.613226 
L 271.801987 487.37354 
L 275.909459 471.625193 
L 280.01693 499.22448 
L 284.124402 476.122202 
L 288.231873 462.490094 
L 292.339345 517.547584 
L 296.446816 488.819637 
L 300.554288 494.692201 
L 304.661759 481.060093 
L 308.769231 465.946618 
L 312.876702 474.323398 
L 316.984174 449.369411 
L 321.091645 439.934511 
L 325.199117 427.572147 
L 329.306588 434.573372 
L 333.41406 419.07192 
L 337.521531 451.168214 
L 341.629003 422.634256 
L 345.736474 424.062717 
L 349.843946 423.128045 
L 353.951417 424.76813 
L 358.058888 415.844655 
L 362.16636 428.630267 
L 366.273831 427.237076 
L 370.381303 427.783771 
L 374.488774 434.679184 
L 378.596246 407.432604 
L 382.703717 427.607418 
L 386.811189 403.97608 
L 390.91866 425.385367 
L 395.026132 436.936506 
L 399.133603 424.239071 
L 403.241075 403.482291 
L 407.348546 416.973316 
L 411.456018 414.222205 
L 415.563489 418.913202 
L 419.670961 435.807845 
L 423.778432 411.453459 
L 427.885904 407.855852 
L 431.993375 413.340439 
L 436.100847 413.252262 
L 440.208318 382.408076 
L 444.315789 410.289527 
L 448.423261 400.766451 
L 452.530732 404.963659 
L 456.638204 400.607733 
L 460.745675 412.35286 
L 464.853147 390.097078 
L 468.960618 410.518787 
L 473.06809 401.895112 
L 477.175561 399.337989 
L 481.283033 388.950782 
L 485.390504 418.966108 
L 493.605447 392.3544 
L 497.712919 397.010126 
L 501.82039 390.537961 
L 505.927862 385.088646 
L 510.035333 388.686252 
L 514.142805 391.243375 
L 518.250276 392.142776 
L 522.357748 426.214227 
L 526.465219 393.994485 
L 530.57269 408.420183 
L 534.680162 396.569243 
L 538.787633 412.952462 
L 542.895105 402.88269 
L 547.002576 390.343973 
L 551.110048 383.360383 
L 555.217519 402.212548 
L 559.324991 376.112264 
L 563.432462 386.975625 
L 567.539934 399.055824 
L 571.647405 403.059043 
L 575.754877 390.855397 
L 579.862348 401.842206 
L 583.96982 387.628133 
L 588.077291 382.901865 
L 592.184763 385.758788 
L 596.292234 400.784086 
L 600.399706 397.415739 
L 604.507177 393.747591 
L 608.614649 388.562805 
L 612.72212 376.412065 
L 616.829591 409.390126 
L 620.937063 393.553602 
L 625.044534 384.453774 
L 629.152006 395.56403 
L 633.259477 385.370811 
L 637.366949 391.243375 
L 641.47442 388.739158 
L 645.581892 392.989272 
L 649.689363 380.150754 
L 653.796835 391.29628 
L 657.904306 381.367592 
L 662.011778 401.436593 
L 666.119249 390.361608 
L 670.226721 398.791294 
L 674.334192 382.937136 
L 678.441664 392.724742 
L 682.549135 388.668617 
L 686.656607 394.594087 
L 690.764078 387.257791 
L 694.87155 397.980069 
L 698.979021 382.690241 
L 703.086492 391.895882 
L 707.193964 370.592407 
L 711.301435 394.170839 
L 715.408907 400.625368 
L 719.516378 381.173603 
L 723.62385 398.085881 
L 727.731321 366.695 
L 731.838793 391.948788 
L 735.946264 413.693145 
L 740.053736 377.963974 
L 744.161207 399.708331 
L 748.268679 388.192463 
L 752.37615 384.524315 
L 756.483622 376.835313 
L 760.591093 387.663403 
L 764.698565 374.384002 
L 768.806036 378.31668 
L 772.913508 386.42893 
L 777.020979 386.781637 
L 781.12845 395.281864 
L 785.235922 377.452549 
L 789.343393 365.672151 
L 793.450865 382.566794 
L 797.558336 379.956765 
L 801.665808 388.721523 
L 805.773279 405.0342 
L 809.880751 377.48782 
L 813.988222 388.351181 
L 818.095694 350.981924 
L 822.203165 370.133889 
L 826.310637 374.419273 
L 830.418108 373.907848 
L 834.52558 388.174828 
L 838.633051 359.358704 
L 842.740523 389.691466 
L 846.847994 368.828874 
L 850.955466 373.096623 
L 855.062937 390.449785 
L 859.170409 359.729046 
L 863.27788 367.030071 
L 867.385351 365.60161 
L 871.492823 350.205969 
L 875.600294 359.640869 
L 879.707766 352.622009 
L 883.815237 339.677679 
L 887.922709 381.984828 
L 892.03018 360.046482 
L 896.137652 355.849274 
L 900.245123 389.532748 
L 904.352595 360.981154 
L 908.460066 374.384002 
L 912.567538 380.309472 
L 916.675009 369.128675 
L 920.782481 365.566339 
L 924.889952 369.657735 
L 928.997424 377.911068 
L 933.104895 376.941125 
L 937.212367 379.14554 
L 941.319838 349.518192 
L 945.42731 360.222835 
L 949.534781 362.303803 
L 953.642252 371.421267 
L 957.749724 346.008762 
L 961.857195 378.510669 
L 965.964667 355.496567 
L 970.072138 393.095084 
L 974.17961 378.157962 
L 978.287081 388.509899 
L 982.394553 369.693005 
L 986.502024 379.039728 
L 990.609496 363.785171 
L 994.716967 362.991581 
L 998.824439 364.860926 
L 1002.93191 362.356709 
L 1007.039382 362.497792 
L 1011.146853 376.041723 
L 1015.254325 349.588733 
L 1019.361796 370.521866 
L 1027.576739 355.161496 
L 1031.684211 365.266538 
L 1035.791682 356.607593 
L 1039.899153 361.369131 
L 1044.006625 358.847279 
L 1048.114096 357.242465 
L 1052.221568 368.811239 
L 1056.329039 353.644858 
L 1060.436511 348.389531 
L 1064.543982 345.991126 
L 1068.651454 364.455313 
L 1072.758925 340.418363 
L 1076.866397 371.773974 
L 1080.973868 343.557451 
L 1085.08134 356.73104 
L 1089.188811 371.262549 
L 1093.296283 364.772749 
L 1097.403754 373.890213 
L 1101.511226 356.73104 
L 1105.618697 365.301809 
L 1109.726169 374.331096 
L 1113.83364 399.320354 
L 1117.941112 357.489359 
L 1122.048583 368.176367 
L 1126.156054 367.823661 
L 1130.263526 360.910613 
L 1134.370997 356.290157 
L 1138.478469 345.691326 
L 1142.58594 375.283404 
L 1146.693412 350.205969 
L 1150.800883 349.253662 
L 1154.908355 365.284174 
L 1159.015826 353.151069 
L 1163.123298 367.629672 
L 1167.230769 350.294146 
L 1171.338241 350.911382 
L 1175.445712 360.734259 
L 1179.553184 353.927023 
L 1183.660655 363.079758 
L 1187.768127 356.69577 
L 1191.875598 359.499787 
L 1195.98307 348.160272 
L 1200.090541 342.499332 
L 1204.198013 358.494573 
L 1208.305484 342.622779 
L 1212.412955 349.518192 
L 1216.520427 349.324203 
L 1220.627898 360.275741 
L 1224.73537 359.288163 
L 1228.842841 349.553462 
L 1232.950313 338.848819 
L 1237.057784 344.5803 
L 1241.165256 349.130214 
L 1245.272727 348.759873 
L 1245.272727 348.759873 
" clip-path="url(#pe0e65ba792)" style="fill: none; stroke: #ff7f0e; stroke-width: 1.5; stroke-linecap: square"/>
   </g>
   <g id="patch_3">
    <path d="M 180 640.8 
L 180 86.4 
" style="fill: none; stroke: #000000; stroke-width: 0.8; stroke-linejoin: miter; stroke-linecap: square"/>
   </g>
   <g id="patch_4">
    <path d="M 1296 640.8 
L 1296 86.4 
" style="fill: none; stroke: #000000; stroke-width: 0.8; stroke-linejoin: miter; stroke-linecap: square"/>
   </g>
   <g id="patch_5">
    <path d="M 180 640.8 
L 1296 640.8 
" style="fill: none; stroke: #000000; stroke-width: 0.8; stroke-linejoin: miter; stroke-linecap: square"/>
   </g>
   <g id="patch_6">
    <path d="M 180 86.4 
L 1296 86.4 
" style="fill: none; stroke: #000000; stroke-width: 0.8; stroke-linejoin: miter; stroke-linecap: square"/>
   </g>
   <g id="legend_1">
    <g id="patch_7">
     <path d="M 187 123.75625 
L 280.057813 123.75625 
Q 282.057813 123.75625 282.057813 121.75625 
L 282.057813 93.4 
Q 282.057813 91.4 280.057813 91.4 
L 187 91.4 
Q 185 91.4 185 93.4 
L 185 121.75625 
Q 185 123.75625 187 123.75625 
z
" style="fill: #ffffff; opacity: 0.8; stroke: #cccccc; stroke-linejoin: miter"/>
    </g>
    <g id="line2d_15">
     <path d="M 189 99.498437 
L 199 99.498437 
L 209 99.498437 
" style="fill: none; stroke: #1f77b4; stroke-width: 5; stroke-linecap: square"/>
    </g>
    <g id="text_14">
     <!-- PNG decode -->
     <g transform="translate(217 102.998437) scale(0.1 -0.1)">
      <defs>
       <path id="DejaVuSans-50" d="M 1259 4147 
L 1259 2394 
L 2053 2394 
Q 2494 2394 2734 2622 
Q 2975 2850 2975 3272 
Q 2975 3691 2734 3919 
Q 2494 4147 2053 4147 
L 1259 4147 
z
M 628 4666 
L 2053 4666 
Q 2838 4666 3239 4311 
Q 3641 3956 3641 3272 
Q 3641 2581 3239 2228 
Q 2838 1875 2053 1875 
L 1259 1875 
L 1259 0 
L 628 0 
L 628 4666 
z
" transform="scale(0.015625)"/>
       <path id="DejaVuSans-4e" d="M 628 4666 
L 1478 4666 
L 3547 763 
L 3547 4666 
L 4159 4666 
L 4159 0 
L 3309 0 
L 1241 3903 
L 1241 0 
L 628 0 
L 628 4666 
z
" transform="scale(0.015625)"/>
       <path id="DejaVuSans-47" d="M 3809 666 
L 3809 1919 
L 2778 1919 
L 2778 2438 
L 4434 2438 
L 4434 434 
Q 4069 175 3628 42 
Q 3188 -91 2688 -91 
Q 1594 -91 976 548 
Q 359 1188 359 2328 
Q 359 3472 976 4111 
Q 1594 4750 2688 4750 
Q 3144 4750 3555 4637 
Q 3966 4525 4313 4306 
L 4313 3634 
Q 3963 3931 3569 4081 
Q 3175 4231 2741 4231 
Q 1884 4231 1454 3753 
Q 1025 3275 1025 2328 
Q 1025 1384 1454 906 
Q 1884 428 2741 428 
Q 3075 428 3337 486 
Q 3600 544 3809 666 
z
" transform="scale(0.015625)"/>
       <path id="DejaVuSans-20" transform="scale(0.015625)"/>
      </defs>
      <use xlink:href="#DejaVuSans-50"/>
      <use xlink:href="#DejaVuSans-4e" x="60.302734"/>
      <use xlink:href="#DejaVuSans-47" x="135.107422"/>
      <use xlink:href="#DejaVuSans-20" x="212.597656"/>
      <use xlink:href="#DejaVuSans-64" x="244.384766"/>
      <use xlink:href="#DejaVuSans-65" x="307.861328"/>
      <use xlink:href="#DejaVuSans-63" x="369.384766"/>
      <use xlink:href="#DejaVuSans-6f" x="424.365234"/>
      <use xlink:href="#DejaVuSans-64" x="485.546875"/>
      <use xlink:href="#DejaVuSans-65" x="549.023438"/>
     </g>
    </g>
    <g id="line2d_16">
     <path d="M 189 114.176562 
L 199 114.176562 
L 209 114.176562 
" style="fill: none; stroke: #ff7f0e; stroke-width: 1.5; stroke-linecap: square"/>
    </g>
    <g id="text_15">
     <!-- QB3 decode -->
     <g transform="translate(217 117.676562) scale(0.1 -0.1)">
      <defs>
       <path id="DejaVuSans-51" d="M 2522 4238 
Q 1834 4238 1429 3725 
Q 1025 3213 1025 2328 
Q 1025 1447 1429 934 
Q 1834 422 2522 422 
Q 3209 422 3611 934 
Q 4013 1447 4013 2328 
Q 4013 3213 3611 3725 
Q 3209 4238 2522 4238 
z
M 3406 84 
L 4238 -825 
L 3475 -825 
L 2784 -78 
Q 2681 -84 2626 -87 
Q 2572 -91 2522 -91 
Q 1538 -91 948 567 
Q 359 1225 359 2328 
Q 359 3434 948 4092 
Q 1538 4750 2522 4750 
Q 3503 4750 4090 4092 
Q 4678 3434 4678 2328 
Q 4678 1516 4351 937 
Q 4025 359 3406 84 
z
" transform="scale(0.015625)"/>
       <path id="DejaVuSans-42" d="M 1259 2228 
L 1259 519 
L 2272 519 
Q 2781 519 3026 730 
Q 3272 941 3272 1375 
Q 3272 1813 3026 2020 
Q 2781 2228 2272 2228 
L 1259 2228 
z
M 1259 4147 
L 1259 2741 
L 2194 2741 
Q 2656 2741 2882 2914 
Q 3109 3088 3109 3444 
Q 3109 3797 2882 3972 
Q 2656 4147 2194 4147 
L 1259 4147 
z
M 628 4666 
L 2241 4666 
Q 2963 4666 3353 4366 
Q 3744 4066 3744 3513 
Q 3744 3084 3544 2831 
Q 3344 2578 2956 2516 
Q 3422 2416 3680 2098 
Q 3938 1781 3938 1306 
Q 3938 681 3513 340 
Q 3088 0 2303 0 
L 628 0 
L 628 4666 
z
" transform="scale(0.015625)"/>
      </defs>
      <use xlink:href="#DejaVuSans-51"/>
      <use xlink:href="#DejaVuSans-42" x="78.710938"/>
      <use xlink:href="#DejaVuSans-33" x="147.314453"/>
      <use xlink:href="#DejaVuSans-20" x="210.9375"/>
      <use xlink:href="#DejaVuSans-64" x="242.724609"/>
      <use xlink:href="#DejaVuSans-65" x="306.201172"/>
      <use xlink:href="#DejaVuSans-63" x="367.724609"/>
      <use xlink:href="#DejaVuSans-6f" x="422.705078"/>
      <use xlink:href="#DejaVuSans-64" x="483.886719"/>
      <use xlink:href="#DejaVuSans-65" x="547.363281"/>
     </g>
    </g>
   </g>
  </g>
 </g>
 <defs>
  <clipPath id="pe0e65ba792">
   <rect x="180" y="86.4" width="1116" height="554.4"/>
  </clipPath>
 </defs>
</svg>
