<?xml version="1.0" encoding="utf-8" standalone="no"?>
<!DOCTYPE svg PUBLIC "-//W3C//DTD SVG 1.1//EN"
  "http://www.w3.org/Graphics/SVG/1.1/DTD/svg11.dtd">
<svg xmlns:xlink="http://www.w3.org/1999/xlink" width="1008pt" height="504pt" viewBox="0 0 1008 504" xmlns="http://www.w3.org/2000/svg" version="1.1">
 <metadata>
  <rdf:RDF xmlns:dc="http://purl.org/dc/elements/1.1/" xmlns:cc="http://creativecommons.org/ns#" xmlns:rdf="http://www.w3.org/1999/02/22-rdf-syntax-ns#">
   <cc:Work>
    <dc:type rdf:resource="http://purl.org/dc/dcmitype/StillImage"/>
    <dc:date>2025-08-18T12:19:43.505263</dc:date>
    <dc:format>image/svg+xml</dc:format>
    <dc:creator>
     <cc:Agent>
      <dc:title>Matplotlib v3.9.0, https://matplotlib.org/</dc:title>
     </cc:Agent>
    </dc:creator>
   </cc:Work>
  </rdf:RDF>
 </metadata>
 <defs>
  <style type="text/css">*{stroke-linejoin: round; stroke-linecap: butt}</style>
 </defs>
 <g id="figure_1">
  <g id="patch_1">
   <path d="M 0 504 
L 1008 504 
L 1008 0 
L 0 0 
z
" style="fill: #ffffff"/>
  </g>
  <g id="axes_1">
   <g id="patch_2">
    <path d="M 44.66 462.04 
L 997.2 462.04 
L 997.2 26.88 
L 44.66 26.88 
z
" style="fill: #ffffff"/>
   </g>
   <g id="matplotlib.axis_1">
    <g id="xtick_1">
     <g id="line2d_1">
      <defs>
       <path id="m0b5b348d48" d="M 0 0 
L 0 3.5 
" style="stroke: #000000; stroke-width: 0.8"/>
      </defs>
      <g>
       <use xlink:href="#m0b5b348d48" x="44.66" y="462.04" style="stroke: #000000; stroke-width: 0.8"/>
      </g>
     </g>
     <g id="text_1">
      <!-- 0 -->
      <g transform="translate(41.47875 476.638438) scale(0.1 -0.1)">
       <defs>
        <path id="DejaVuSans-30" d="M 2034 4250 
Q 1547 4250 1301 3770 
Q 1056 3291 1056 2328 
Q 1056 1369 1301 889 
Q 1547 409 2034 409 
Q 2525 409 2770 889 
Q 3016 1369 3016 2328 
Q 3016 3291 2770 3770 
Q 2525 4250 2034 4250 
z
M 2034 4750 
Q 2819 4750 3233 4129 
Q 3647 3509 3647 2328 
Q 3647 1150 3233 529 
Q 2819 -91 2034 -91 
Q 1250 -91 836 529 
Q 422 1150 422 2328 
Q 422 3509 836 4129 
Q 1250 4750 2034 4750 
z
" transform="scale(0.015625)"/>
       </defs>
       <use xlink:href="#DejaVuSans-30"/>
      </g>
     </g>
    </g>
    <g id="xtick_2">
     <g id="line2d_2">
      <g>
       <use xlink:href="#m0b5b348d48" x="236.704355" y="462.04" style="stroke: #000000; stroke-width: 0.8"/>
      </g>
     </g>
     <g id="text_2">
      <!-- 50 -->
      <g transform="translate(230.341855 476.638438) scale(0.1 -0.1)">
       <defs>
        <path id="DejaVuSans-35" d="M 691 4666 
L 3169 4666 
L 3169 4134 
L 1269 4134 
L 1269 2991 
Q 1406 3038 1543 3061 
Q 1681 3084 1819 3084 
Q 2600 3084 3056 2656 
Q 3513 2228 3513 1497 
Q 3513 744 3044 326 
Q 2575 -91 1722 -91 
Q 1428 -91 1123 -41 
Q 819 9 494 109 
L 494 744 
Q 775 591 1075 516 
Q 1375 441 1709 441 
Q 2250 441 2565 725 
Q 2881 1009 2881 1497 
Q 2881 1984 2565 2268 
Q 2250 2553 1709 2553 
Q 1456 2553 1204 2497 
Q 953 2441 691 2322 
L 691 4666 
z
" transform="scale(0.015625)"/>
       </defs>
       <use xlink:href="#DejaVuSans-35"/>
       <use xlink:href="#DejaVuSans-30" x="63.623047"/>
      </g>
     </g>
    </g>
    <g id="xtick_3">
     <g id="line2d_3">
      <g>
       <use xlink:href="#m0b5b348d48" x="428.74871" y="462.04" style="stroke: #000000; stroke-width: 0.8"/>
      </g>
     </g>
     <g id="text_3">
      <!-- 100 -->
      <g transform="translate(419.20496 476.638438) scale(0.1 -0.1)">
       <defs>
        <path id="DejaVuSans-31" d="M 794 531 
L 1825 531 
L 1825 4091 
L 703 3866 
L 703 4441 
L 1819 4666 
L 2450 4666 
L 2450 531 
L 3481 531 
L 3481 0 
L 794 0 
L 794 531 
z
" transform="scale(0.015625)"/>
       </defs>
       <use xlink:href="#DejaVuSans-31"/>
       <use xlink:href="#DejaVuSans-30" x="63.623047"/>
       <use xlink:href="#DejaVuSans-30" x="127.246094"/>
      </g>
     </g>
    </g>
    <g id="xtick_4">
     <g id="line2d_4">
      <g>
       <use xlink:href="#m0b5b348d48" x="620.793065" y="462.04" style="stroke: #000000; stroke-width: 0.8"/>
      </g>
     </g>
     <g id="text_4">
      <!-- 150 -->
      <g transform="translate(611.249315 476.638438) scale(0.1 -0.1)">
       <use xlink:href="#DejaVuSans-31"/>
       <use xlink:href="#DejaVuSans-35" x="63.623047"/>
       <use xlink:href="#DejaVuSans-30" x="127.246094"/>
      </g>
     </g>
    </g>
    <g id="xtick_5">
     <g id="line2d_5">
      <g>
       <use xlink:href="#m0b5b348d48" x="812.837419" y="462.04" style="stroke: #000000; stroke-width: 0.8"/>
      </g>
     </g>
     <g id="text_5">
      <!-- 200 -->
      <g transform="translate(803.293669 476.638438) scale(0.1 -0.1)">
       <defs>
        <path id="DejaVuSans-32" d="M 1228 531 
L 3431 531 
L 3431 0 
L 469 0 
L 469 531 
Q 828 903 1448 1529 
Q 2069 2156 2228 2338 
Q 2531 2678 2651 2914 
Q 2772 3150 2772 3378 
Q 2772 3750 2511 3984 
Q 2250 4219 1831 4219 
Q 1534 4219 1204 4116 
Q 875 4013 500 3803 
L 500 4441 
Q 881 4594 1212 4672 
Q 1544 4750 1819 4750 
Q 2544 4750 2975 4387 
Q 3406 4025 3406 3419 
Q 3406 3131 3298 2873 
Q 3191 2616 2906 2266 
Q 2828 2175 2409 1742 
Q 1991 1309 1228 531 
z
" transform="scale(0.015625)"/>
       </defs>
       <use xlink:href="#DejaVuSans-32"/>
       <use xlink:href="#DejaVuSans-30" x="63.623047"/>
       <use xlink:href="#DejaVuSans-30" x="127.246094"/>
      </g>
     </g>
    </g>
    <g id="text_6">
     <!-- File number, sorted by increasing loss, then increasing gain -->
     <g transform="translate(371.810469 490.316563) scale(0.1 -0.1)">
      <defs>
       <path id="DejaVuSans-46" d="M 628 4666 
L 3309 4666 
L 3309 4134 
L 1259 4134 
L 1259 2759 
L 3109 2759 
L 3109 2228 
L 1259 2228 
L 1259 0 
L 628 0 
L 628 4666 
z
" transform="scale(0.015625)"/>
       <path id="DejaVuSans-69" d="M 603 3500 
L 1178 3500 
L 1178 0 
L 603 0 
L 603 3500 
z
M 603 4863 
L 1178 4863 
L 1178 4134 
L 603 4134 
L 603 4863 
z
" transform="scale(0.015625)"/>
       <path id="DejaVuSans-6c" d="M 603 4863 
L 1178 4863 
L 1178 0 
L 603 0 
L 603 4863 
z
" transform="scale(0.015625)"/>
       <path id="DejaVuSans-65" d="M 3597 1894 
L 3597 1613 
L 953 1613 
Q 991 1019 1311 708 
Q 1631 397 2203 397 
Q 2534 397 2845 478 
Q 3156 559 3463 722 
L 3463 178 
Q 3153 47 2828 -22 
Q 2503 -91 2169 -91 
Q 1331 -91 842 396 
Q 353 884 353 1716 
Q 353 2575 817 3079 
Q 1281 3584 2069 3584 
Q 2775 3584 3186 3129 
Q 3597 2675 3597 1894 
z
M 3022 2063 
Q 3016 2534 2758 2815 
Q 2500 3097 2075 3097 
Q 1594 3097 1305 2825 
Q 1016 2553 972 2059 
L 3022 2063 
z
" transform="scale(0.015625)"/>
       <path id="DejaVuSans-20" transform="scale(0.015625)"/>
       <path id="DejaVuSans-6e" d="M 3513 2113 
L 3513 0 
L 2938 0 
L 2938 2094 
Q 2938 2591 2744 2837 
Q 2550 3084 2163 3084 
Q 1697 3084 1428 2787 
Q 1159 2491 1159 1978 
L 1159 0 
L 581 0 
L 581 3500 
L 1159 3500 
L 1159 2956 
Q 1366 3272 1645 3428 
Q 1925 3584 2291 3584 
Q 2894 3584 3203 3211 
Q 3513 2838 3513 2113 
z
" transform="scale(0.015625)"/>
       <path id="DejaVuSans-75" d="M 544 1381 
L 544 3500 
L 1119 3500 
L 1119 1403 
Q 1119 906 1312 657 
Q 1506 409 1894 409 
Q 2359 409 2629 706 
Q 2900 1003 2900 1516 
L 2900 3500 
L 3475 3500 
L 3475 0 
L 2900 0 
L 2900 538 
Q 2691 219 2414 64 
Q 2138 -91 1772 -91 
Q 1169 -91 856 284 
Q 544 659 544 1381 
z
M 1991 3584 
L 1991 3584 
z
" transform="scale(0.015625)"/>
       <path id="DejaVuSans-6d" d="M 3328 2828 
Q 3544 3216 3844 3400 
Q 4144 3584 4550 3584 
Q 5097 3584 5394 3201 
Q 5691 2819 5691 2113 
L 5691 0 
L 5113 0 
L 5113 2094 
Q 5113 2597 4934 2840 
Q 4756 3084 4391 3084 
Q 3944 3084 3684 2787 
Q 3425 2491 3425 1978 
L 3425 0 
L 2847 0 
L 2847 2094 
Q 2847 2600 2669 2842 
Q 2491 3084 2119 3084 
Q 1678 3084 1418 2786 
Q 1159 2488 1159 1978 
L 1159 0 
L 581 0 
L 581 3500 
L 1159 3500 
L 1159 2956 
Q 1356 3278 1631 3431 
Q 1906 3584 2284 3584 
Q 2666 3584 2933 3390 
Q 3200 3197 3328 2828 
z
" transform="scale(0.015625)"/>
       <path id="DejaVuSans-62" d="M 3116 1747 
Q 3116 2381 2855 2742 
Q 2594 3103 2138 3103 
Q 1681 3103 1420 2742 
Q 1159 2381 1159 1747 
Q 1159 1113 1420 752 
Q 1681 391 2138 391 
Q 2594 391 2855 752 
Q 3116 1113 3116 1747 
z
M 1159 2969 
Q 1341 3281 1617 3432 
Q 1894 3584 2278 3584 
Q 2916 3584 3314 3078 
Q 3713 2572 3713 1747 
Q 3713 922 3314 415 
Q 2916 -91 2278 -91 
Q 1894 -91 1617 61 
Q 1341 213 1159 525 
L 1159 0 
L 581 0 
L 581 4863 
L 1159 4863 
L 1159 2969 
z
" transform="scale(0.015625)"/>
       <path id="DejaVuSans-72" d="M 2631 2963 
Q 2534 3019 2420 3045 
Q 2306 3072 2169 3072 
Q 1681 3072 1420 2755 
Q 1159 2438 1159 1844 
L 1159 0 
L 581 0 
L 581 3500 
L 1159 3500 
L 1159 2956 
Q 1341 3275 1631 3429 
Q 1922 3584 2338 3584 
Q 2397 3584 2469 3576 
Q 2541 3569 2628 3553 
L 2631 2963 
z
" transform="scale(0.015625)"/>
       <path id="DejaVuSans-2c" d="M 750 794 
L 1409 794 
L 1409 256 
L 897 -744 
L 494 -744 
L 750 256 
L 750 794 
z
" transform="scale(0.015625)"/>
       <path id="DejaVuSans-73" d="M 2834 3397 
L 2834 2853 
Q 2591 2978 2328 3040 
Q 2066 3103 1784 3103 
Q 1356 3103 1142 2972 
Q 928 2841 928 2578 
Q 928 2378 1081 2264 
Q 1234 2150 1697 2047 
L 1894 2003 
Q 2506 1872 2764 1633 
Q 3022 1394 3022 966 
Q 3022 478 2636 193 
Q 2250 -91 1575 -91 
Q 1294 -91 989 -36 
Q 684 19 347 128 
L 347 722 
Q 666 556 975 473 
Q 1284 391 1588 391 
Q 1994 391 2212 530 
Q 2431 669 2431 922 
Q 2431 1156 2273 1281 
Q 2116 1406 1581 1522 
L 1381 1569 
Q 847 1681 609 1914 
Q 372 2147 372 2553 
Q 372 3047 722 3315 
Q 1072 3584 1716 3584 
Q 2034 3584 2315 3537 
Q 2597 3491 2834 3397 
z
" transform="scale(0.015625)"/>
       <path id="DejaVuSans-6f" d="M 1959 3097 
Q 1497 3097 1228 2736 
Q 959 2375 959 1747 
Q 959 1119 1226 758 
Q 1494 397 1959 397 
Q 2419 397 2687 759 
Q 2956 1122 2956 1747 
Q 2956 2369 2687 2733 
Q 2419 3097 1959 3097 
z
M 1959 3584 
Q 2709 3584 3137 3096 
Q 3566 2609 3566 1747 
Q 3566 888 3137 398 
Q 2709 -91 1959 -91 
Q 1206 -91 779 398 
Q 353 888 353 1747 
Q 353 2609 779 3096 
Q 1206 3584 1959 3584 
z
" transform="scale(0.015625)"/>
       <path id="DejaVuSans-74" d="M 1172 4494 
L 1172 3500 
L 2356 3500 
L 2356 3053 
L 1172 3053 
L 1172 1153 
Q 1172 725 1289 603 
Q 1406 481 1766 481 
L 2356 481 
L 2356 0 
L 1766 0 
Q 1100 0 847 248 
Q 594 497 594 1153 
L 594 3053 
L 172 3053 
L 172 3500 
L 594 3500 
L 594 4494 
L 1172 4494 
z
" transform="scale(0.015625)"/>
       <path id="DejaVuSans-64" d="M 2906 2969 
L 2906 4863 
L 3481 4863 
L 3481 0 
L 2906 0 
L 2906 525 
Q 2725 213 2448 61 
Q 2172 -91 1784 -91 
Q 1150 -91 751 415 
Q 353 922 353 1747 
Q 353 2572 751 3078 
Q 1150 3584 1784 3584 
Q 2172 3584 2448 3432 
Q 2725 3281 2906 2969 
z
M 947 1747 
Q 947 1113 1208 752 
Q 1469 391 1925 391 
Q 2381 391 2643 752 
Q 2906 1113 2906 1747 
Q 2906 2381 2643 2742 
Q 2381 3103 1925 3103 
Q 1469 3103 1208 2742 
Q 947 2381 947 1747 
z
" transform="scale(0.015625)"/>
       <path id="DejaVuSans-79" d="M 2059 -325 
Q 1816 -950 1584 -1140 
Q 1353 -1331 966 -1331 
L 506 -1331 
L 506 -850 
L 844 -850 
Q 1081 -850 1212 -737 
Q 1344 -625 1503 -206 
L 1606 56 
L 191 3500 
L 800 3500 
L 1894 763 
L 2988 3500 
L 3597 3500 
L 2059 -325 
z
" transform="scale(0.015625)"/>
       <path id="DejaVuSans-63" d="M 3122 3366 
L 3122 2828 
Q 2878 2963 2633 3030 
Q 2388 3097 2138 3097 
Q 1578 3097 1268 2742 
Q 959 2388 959 1747 
Q 959 1106 1268 751 
Q 1578 397 2138 397 
Q 2388 397 2633 464 
Q 2878 531 3122 666 
L 3122 134 
Q 2881 22 2623 -34 
Q 2366 -91 2075 -91 
Q 1284 -91 818 406 
Q 353 903 353 1747 
Q 353 2603 823 3093 
Q 1294 3584 2113 3584 
Q 2378 3584 2631 3529 
Q 2884 3475 3122 3366 
z
" transform="scale(0.015625)"/>
       <path id="DejaVuSans-61" d="M 2194 1759 
Q 1497 1759 1228 1600 
Q 959 1441 959 1056 
Q 959 750 1161 570 
Q 1363 391 1709 391 
Q 2188 391 2477 730 
Q 2766 1069 2766 1631 
L 2766 1759 
L 2194 1759 
z
M 3341 1997 
L 3341 0 
L 2766 0 
L 2766 531 
Q 2569 213 2275 61 
Q 1981 -91 1556 -91 
Q 1019 -91 701 211 
Q 384 513 384 1019 
Q 384 1609 779 1909 
Q 1175 2209 1959 2209 
L 2766 2209 
L 2766 2266 
Q 2766 2663 2505 2880 
Q 2244 3097 1772 3097 
Q 1472 3097 1187 3025 
Q 903 2953 641 2809 
L 641 3341 
Q 956 3463 1253 3523 
Q 1550 3584 1831 3584 
Q 2591 3584 2966 3190 
Q 3341 2797 3341 1997 
z
" transform="scale(0.015625)"/>
       <path id="DejaVuSans-67" d="M 2906 1791 
Q 2906 2416 2648 2759 
Q 2391 3103 1925 3103 
Q 1463 3103 1205 2759 
Q 947 2416 947 1791 
Q 947 1169 1205 825 
Q 1463 481 1925 481 
Q 2391 481 2648 825 
Q 2906 1169 2906 1791 
z
M 3481 434 
Q 3481 -459 3084 -895 
Q 2688 -1331 1869 -1331 
Q 1566 -1331 1297 -1286 
Q 1028 -1241 775 -1147 
L 775 -588 
Q 1028 -725 1275 -790 
Q 1522 -856 1778 -856 
Q 2344 -856 2625 -561 
Q 2906 -266 2906 331 
L 2906 616 
Q 2728 306 2450 153 
Q 2172 0 1784 0 
Q 1141 0 747 490 
Q 353 981 353 1791 
Q 353 2603 747 3093 
Q 1141 3584 1784 3584 
Q 2172 3584 2450 3431 
Q 2728 3278 2906 2969 
L 2906 3500 
L 3481 3500 
L 3481 434 
z
" transform="scale(0.015625)"/>
       <path id="DejaVuSans-68" d="M 3513 2113 
L 3513 0 
L 2938 0 
L 2938 2094 
Q 2938 2591 2744 2837 
Q 2550 3084 2163 3084 
Q 1697 3084 1428 2787 
Q 1159 2491 1159 1978 
L 1159 0 
L 581 0 
L 581 4863 
L 1159 4863 
L 1159 2956 
Q 1366 3272 1645 3428 
Q 1925 3584 2291 3584 
Q 2894 3584 3203 3211 
Q 3513 2838 3513 2113 
z
" transform="scale(0.015625)"/>
      </defs>
      <use xlink:href="#DejaVuSans-46"/>
      <use xlink:href="#DejaVuSans-69" x="50.269531"/>
      <use xlink:href="#DejaVuSans-6c" x="78.052734"/>
      <use xlink:href="#DejaVuSans-65" x="105.835938"/>
      <use xlink:href="#DejaVuSans-20" x="167.359375"/>
      <use xlink:href="#DejaVuSans-6e" x="199.146484"/>
      <use xlink:href="#DejaVuSans-75" x="262.525391"/>
      <use xlink:href="#DejaVuSans-6d" x="325.904297"/>
      <use xlink:href="#DejaVuSans-62" x="423.316406"/>
      <use xlink:href="#DejaVuSans-65" x="486.792969"/>
      <use xlink:href="#DejaVuSans-72" x="548.316406"/>
      <use xlink:href="#DejaVuSans-2c" x="589.429688"/>
      <use xlink:href="#DejaVuSans-20" x="621.216797"/>
      <use xlink:href="#DejaVuSans-73" x="653.003906"/>
      <use xlink:href="#DejaVuSans-6f" x="705.103516"/>
      <use xlink:href="#DejaVuSans-72" x="766.285156"/>
      <use xlink:href="#DejaVuSans-74" x="807.398438"/>
      <use xlink:href="#DejaVuSans-65" x="846.607422"/>
      <use xlink:href="#DejaVuSans-64" x="908.130859"/>
      <use xlink:href="#DejaVuSans-20" x="971.607422"/>
      <use xlink:href="#DejaVuSans-62" x="1003.394531"/>
      <use xlink:href="#DejaVuSans-79" x="1066.871094"/>
      <use xlink:href="#DejaVuSans-20" x="1126.050781"/>
      <use xlink:href="#DejaVuSans-69" x="1157.837891"/>
      <use xlink:href="#DejaVuSans-6e" x="1185.621094"/>
      <use xlink:href="#DejaVuSans-63" x="1249"/>
      <use xlink:href="#DejaVuSans-72" x="1303.980469"/>
      <use xlink:href="#DejaVuSans-65" x="1342.84375"/>
      <use xlink:href="#DejaVuSans-61" x="1404.367188"/>
      <use xlink:href="#DejaVuSans-73" x="1465.646484"/>
      <use xlink:href="#DejaVuSans-69" x="1517.746094"/>
      <use xlink:href="#DejaVuSans-6e" x="1545.529297"/>
      <use xlink:href="#DejaVuSans-67" x="1608.908203"/>
      <use xlink:href="#DejaVuSans-20" x="1672.384766"/>
      <use xlink:href="#DejaVuSans-6c" x="1704.171875"/>
      <use xlink:href="#DejaVuSans-6f" x="1731.955078"/>
      <use xlink:href="#DejaVuSans-73" x="1793.136719"/>
      <use xlink:href="#DejaVuSans-73" x="1845.236328"/>
      <use xlink:href="#DejaVuSans-2c" x="1897.335938"/>
      <use xlink:href="#DejaVuSans-20" x="1929.123047"/>
      <use xlink:href="#DejaVuSans-74" x="1960.910156"/>
      <use xlink:href="#DejaVuSans-68" x="2000.119141"/>
      <use xlink:href="#DejaVuSans-65" x="2063.498047"/>
      <use xlink:href="#DejaVuSans-6e" x="2125.021484"/>
      <use xlink:href="#DejaVuSans-20" x="2188.400391"/>
      <use xlink:href="#DejaVuSans-69" x="2220.1875"/>
      <use xlink:href="#DejaVuSans-6e" x="2247.970703"/>
      <use xlink:href="#DejaVuSans-63" x="2311.349609"/>
      <use xlink:href="#DejaVuSans-72" x="2366.330078"/>
      <use xlink:href="#DejaVuSans-65" x="2405.193359"/>
      <use xlink:href="#DejaVuSans-61" x="2466.716797"/>
      <use xlink:href="#DejaVuSans-73" x="2527.996094"/>
      <use xlink:href="#DejaVuSans-69" x="2580.095703"/>
      <use xlink:href="#DejaVuSans-6e" x="2607.878906"/>
      <use xlink:href="#DejaVuSans-67" x="2671.257812"/>
      <use xlink:href="#DejaVuSans-20" x="2734.734375"/>
      <use xlink:href="#DejaVuSans-67" x="2766.521484"/>
      <use xlink:href="#DejaVuSans-61" x="2829.998047"/>
      <use xlink:href="#DejaVuSans-69" x="2891.277344"/>
      <use xlink:href="#DejaVuSans-6e" x="2919.060547"/>
     </g>
    </g>
   </g>
   <g id="matplotlib.axis_2">
    <g id="ytick_1">
     <g id="line2d_6">
      <defs>
       <path id="m3a23f0f85b" d="M 0 0 
L -3.5 0 
" style="stroke: #000000; stroke-width: 0.8"/>
      </defs>
      <g>
       <use xlink:href="#m3a23f0f85b" x="44.66" y="462.04" style="stroke: #000000; stroke-width: 0.8"/>
      </g>
     </g>
     <g id="text_7">
      <!-- -2 -->
      <g transform="translate(27.689688 465.839219) scale(0.1 -0.1)">
       <defs>
        <path id="DejaVuSans-2d" d="M 313 2009 
L 1997 2009 
L 1997 1497 
L 313 1497 
L 313 2009 
z
" transform="scale(0.015625)"/>
       </defs>
       <use xlink:href="#DejaVuSans-2d"/>
       <use xlink:href="#DejaVuSans-32" x="36.083984"/>
      </g>
     </g>
    </g>
    <g id="ytick_2">
     <g id="line2d_7">
      <g>
       <use xlink:href="#m3a23f0f85b" x="44.66" y="428.745147" style="stroke: #000000; stroke-width: 0.8"/>
      </g>
     </g>
     <g id="text_8">
      <!-- -1 -->
      <g transform="translate(27.689688 432.544366) scale(0.1 -0.1)">
       <use xlink:href="#DejaVuSans-2d"/>
       <use xlink:href="#DejaVuSans-31" x="36.083984"/>
      </g>
     </g>
    </g>
    <g id="ytick_3">
     <g id="line2d_8">
      <g>
       <use xlink:href="#m3a23f0f85b" x="44.66" y="395.450294" style="stroke: #000000; stroke-width: 0.8"/>
      </g>
     </g>
     <g id="text_9">
      <!--  0 -->
      <g transform="translate(28.119375 399.249513) scale(0.1 -0.1)">
       <use xlink:href="#DejaVuSans-20"/>
       <use xlink:href="#DejaVuSans-30" x="31.787109"/>
      </g>
     </g>
    </g>
    <g id="ytick_4">
     <g id="line2d_9">
      <g>
       <use xlink:href="#m3a23f0f85b" x="44.66" y="362.155442" style="stroke: #000000; stroke-width: 0.8"/>
      </g>
     </g>
     <g id="text_10">
      <!--  1 -->
      <g transform="translate(28.119375 365.95466) scale(0.1 -0.1)">
       <use xlink:href="#DejaVuSans-20"/>
       <use xlink:href="#DejaVuSans-31" x="31.787109"/>
      </g>
     </g>
    </g>
    <g id="ytick_5">
     <g id="line2d_10">
      <g>
       <use xlink:href="#m3a23f0f85b" x="44.66" y="328.860589" style="stroke: #000000; stroke-width: 0.8"/>
      </g>
     </g>
     <g id="text_11">
      <!--  2 -->
      <g transform="translate(28.119375 332.659808) scale(0.1 -0.1)">
       <use xlink:href="#DejaVuSans-20"/>
       <use xlink:href="#DejaVuSans-32" x="31.787109"/>
      </g>
     </g>
    </g>
    <g id="ytick_6">
     <g id="line2d_11">
      <g>
       <use xlink:href="#m3a23f0f85b" x="44.66" y="295.565736" style="stroke: #000000; stroke-width: 0.8"/>
      </g>
     </g>
     <g id="text_12">
      <!--  3 -->
      <g transform="translate(28.119375 299.364955) scale(0.1 -0.1)">
       <defs>
        <path id="DejaVuSans-33" d="M 2597 2516 
Q 3050 2419 3304 2112 
Q 3559 1806 3559 1356 
Q 3559 666 3084 287 
Q 2609 -91 1734 -91 
Q 1441 -91 1130 -33 
Q 819 25 488 141 
L 488 750 
Q 750 597 1062 519 
Q 1375 441 1716 441 
Q 2309 441 2620 675 
Q 2931 909 2931 1356 
Q 2931 1769 2642 2001 
Q 2353 2234 1838 2234 
L 1294 2234 
L 1294 2753 
L 1863 2753 
Q 2328 2753 2575 2939 
Q 2822 3125 2822 3475 
Q 2822 3834 2567 4026 
Q 2313 4219 1838 4219 
Q 1578 4219 1281 4162 
Q 984 4106 628 3988 
L 628 4550 
Q 988 4650 1302 4700 
Q 1616 4750 1894 4750 
Q 2613 4750 3031 4423 
Q 3450 4097 3450 3541 
Q 3450 3153 3228 2886 
Q 3006 2619 2597 2516 
z
" transform="scale(0.015625)"/>
       </defs>
       <use xlink:href="#DejaVuSans-20"/>
       <use xlink:href="#DejaVuSans-33" x="31.787109"/>
      </g>
     </g>
    </g>
    <g id="ytick_7">
     <g id="line2d_12">
      <g>
       <use xlink:href="#m3a23f0f85b" x="44.66" y="262.270883" style="stroke: #000000; stroke-width: 0.8"/>
      </g>
     </g>
     <g id="text_13">
      <!--  4 -->
      <g transform="translate(28.119375 266.070102) scale(0.1 -0.1)">
       <defs>
        <path id="DejaVuSans-34" d="M 2419 4116 
L 825 1625 
L 2419 1625 
L 2419 4116 
z
M 2253 4666 
L 3047 4666 
L 3047 1625 
L 3713 1625 
L 3713 1100 
L 3047 1100 
L 3047 0 
L 2419 0 
L 2419 1100 
L 313 1100 
L 313 1709 
L 2253 4666 
z
" transform="scale(0.015625)"/>
       </defs>
       <use xlink:href="#DejaVuSans-20"/>
       <use xlink:href="#DejaVuSans-34" x="31.787109"/>
      </g>
     </g>
    </g>
    <g id="ytick_8">
     <g id="line2d_13">
      <g>
       <use xlink:href="#m3a23f0f85b" x="44.66" y="228.976031" style="stroke: #000000; stroke-width: 0.8"/>
      </g>
     </g>
     <g id="text_14">
      <!--  5 -->
      <g transform="translate(28.119375 232.775249) scale(0.1 -0.1)">
       <use xlink:href="#DejaVuSans-20"/>
       <use xlink:href="#DejaVuSans-35" x="31.787109"/>
      </g>
     </g>
    </g>
    <g id="ytick_9">
     <g id="line2d_14">
      <g>
       <use xlink:href="#m3a23f0f85b" x="44.66" y="195.681178" style="stroke: #000000; stroke-width: 0.8"/>
      </g>
     </g>
     <g id="text_15">
      <!--  6 -->
      <g transform="translate(28.119375 199.480397) scale(0.1 -0.1)">
       <defs>
        <path id="DejaVuSans-36" d="M 2113 2584 
Q 1688 2584 1439 2293 
Q 1191 2003 1191 1497 
Q 1191 994 1439 701 
Q 1688 409 2113 409 
Q 2538 409 2786 701 
Q 3034 994 3034 1497 
Q 3034 2003 2786 2293 
Q 2538 2584 2113 2584 
z
M 3366 4563 
L 3366 3988 
Q 3128 4100 2886 4159 
Q 2644 4219 2406 4219 
Q 1781 4219 1451 3797 
Q 1122 3375 1075 2522 
Q 1259 2794 1537 2939 
Q 1816 3084 2150 3084 
Q 2853 3084 3261 2657 
Q 3669 2231 3669 1497 
Q 3669 778 3244 343 
Q 2819 -91 2113 -91 
Q 1303 -91 875 529 
Q 447 1150 447 2328 
Q 447 3434 972 4092 
Q 1497 4750 2381 4750 
Q 2619 4750 2861 4703 
Q 3103 4656 3366 4563 
z
" transform="scale(0.015625)"/>
       </defs>
       <use xlink:href="#DejaVuSans-20"/>
       <use xlink:href="#DejaVuSans-36" x="31.787109"/>
      </g>
     </g>
    </g>
    <g id="ytick_10">
     <g id="line2d_15">
      <g>
       <use xlink:href="#m3a23f0f85b" x="44.66" y="162.386325" style="stroke: #000000; stroke-width: 0.8"/>
      </g>
     </g>
     <g id="text_16">
      <!--  7 -->
      <g transform="translate(28.119375 166.185544) scale(0.1 -0.1)">
       <defs>
        <path id="DejaVuSans-37" d="M 525 4666 
L 3525 4666 
L 3525 4397 
L 1831 0 
L 1172 0 
L 2766 4134 
L 525 4134 
L 525 4666 
z
" transform="scale(0.015625)"/>
       </defs>
       <use xlink:href="#DejaVuSans-20"/>
       <use xlink:href="#DejaVuSans-37" x="31.787109"/>
      </g>
     </g>
    </g>
    <g id="ytick_11">
     <g id="line2d_16">
      <g>
       <use xlink:href="#m3a23f0f85b" x="44.66" y="129.091472" style="stroke: #000000; stroke-width: 0.8"/>
      </g>
     </g>
     <g id="text_17">
      <!--  8 -->
      <g transform="translate(28.119375 132.890691) scale(0.1 -0.1)">
       <defs>
        <path id="DejaVuSans-38" d="M 2034 2216 
Q 1584 2216 1326 1975 
Q 1069 1734 1069 1313 
Q 1069 891 1326 650 
Q 1584 409 2034 409 
Q 2484 409 2743 651 
Q 3003 894 3003 1313 
Q 3003 1734 2745 1975 
Q 2488 2216 2034 2216 
z
M 1403 2484 
Q 997 2584 770 2862 
Q 544 3141 544 3541 
Q 544 4100 942 4425 
Q 1341 4750 2034 4750 
Q 2731 4750 3128 4425 
Q 3525 4100 3525 3541 
Q 3525 3141 3298 2862 
Q 3072 2584 2669 2484 
Q 3125 2378 3379 2068 
Q 3634 1759 3634 1313 
Q 3634 634 3220 271 
Q 2806 -91 2034 -91 
Q 1263 -91 848 271 
Q 434 634 434 1313 
Q 434 1759 690 2068 
Q 947 2378 1403 2484 
z
M 1172 3481 
Q 1172 3119 1398 2916 
Q 1625 2713 2034 2713 
Q 2441 2713 2670 2916 
Q 2900 3119 2900 3481 
Q 2900 3844 2670 4047 
Q 2441 4250 2034 4250 
Q 1625 4250 1398 4047 
Q 1172 3844 1172 3481 
z
" transform="scale(0.015625)"/>
       </defs>
       <use xlink:href="#DejaVuSans-20"/>
       <use xlink:href="#DejaVuSans-38" x="31.787109"/>
      </g>
     </g>
    </g>
    <g id="ytick_12">
     <g id="line2d_17">
      <g>
       <use xlink:href="#m3a23f0f85b" x="44.66" y="95.79662" style="stroke: #000000; stroke-width: 0.8"/>
      </g>
     </g>
     <g id="text_18">
      <!--  9 -->
      <g transform="translate(28.119375 99.595838) scale(0.1 -0.1)">
       <defs>
        <path id="DejaVuSans-39" d="M 703 97 
L 703 672 
Q 941 559 1184 500 
Q 1428 441 1663 441 
Q 2288 441 2617 861 
Q 2947 1281 2994 2138 
Q 2813 1869 2534 1725 
Q 2256 1581 1919 1581 
Q 1219 1581 811 2004 
Q 403 2428 403 3163 
Q 403 3881 828 4315 
Q 1253 4750 1959 4750 
Q 2769 4750 3195 4129 
Q 3622 3509 3622 2328 
Q 3622 1225 3098 567 
Q 2575 -91 1691 -91 
Q 1453 -91 1209 -44 
Q 966 3 703 97 
z
M 1959 2075 
Q 2384 2075 2632 2365 
Q 2881 2656 2881 3163 
Q 2881 3666 2632 3958 
Q 2384 4250 1959 4250 
Q 1534 4250 1286 3958 
Q 1038 3666 1038 3163 
Q 1038 2656 1286 2365 
Q 1534 2075 1959 2075 
z
" transform="scale(0.015625)"/>
       </defs>
       <use xlink:href="#DejaVuSans-20"/>
       <use xlink:href="#DejaVuSans-39" x="31.787109"/>
      </g>
     </g>
    </g>
    <g id="ytick_13">
     <g id="line2d_18">
      <g>
       <use xlink:href="#m3a23f0f85b" x="44.66" y="62.501767" style="stroke: #000000; stroke-width: 0.8"/>
      </g>
     </g>
     <g id="text_19">
      <!-- 10 -->
      <g transform="translate(24.935 66.300986) scale(0.1 -0.1)">
       <use xlink:href="#DejaVuSans-31"/>
       <use xlink:href="#DejaVuSans-30" x="63.623047"/>
      </g>
     </g>
    </g>
    <g id="ytick_14">
     <g id="line2d_19">
      <g>
       <use xlink:href="#m3a23f0f85b" x="44.66" y="29.206914" style="stroke: #000000; stroke-width: 0.8"/>
      </g>
     </g>
     <g id="text_20">
      <!-- 11 -->
      <g transform="translate(24.935 33.006133) scale(0.1 -0.1)">
       <use xlink:href="#DejaVuSans-31"/>
       <use xlink:href="#DejaVuSans-31" x="63.623047"/>
      </g>
     </g>
    </g>
    <g id="text_21">
     <!-- MB -->
     <g transform="translate(18.855313 252.204531) rotate(-90) scale(0.1 -0.1)">
      <defs>
       <path id="DejaVuSans-4d" d="M 628 4666 
L 1569 4666 
L 2759 1491 
L 3956 4666 
L 4897 4666 
L 4897 0 
L 4281 0 
L 4281 4097 
L 3078 897 
L 2444 897 
L 1241 4097 
L 1241 0 
L 628 0 
L 628 4666 
z
" transform="scale(0.015625)"/>
       <path id="DejaVuSans-42" d="M 1259 2228 
L 1259 519 
L 2272 519 
Q 2781 519 3026 730 
Q 3272 941 3272 1375 
Q 3272 1813 3026 2020 
Q 2781 2228 2272 2228 
L 1259 2228 
z
M 1259 4147 
L 1259 2741 
L 2194 2741 
Q 2656 2741 2882 2914 
Q 3109 3088 3109 3444 
Q 3109 3797 2882 3972 
Q 2656 4147 2194 4147 
L 1259 4147 
z
M 628 4666 
L 2241 4666 
Q 2963 4666 3353 4366 
Q 3744 4066 3744 3513 
Q 3744 3084 3544 2831 
Q 3344 2578 2956 2516 
Q 3422 2416 3680 2098 
Q 3938 1781 3938 1306 
Q 3938 681 3513 340 
Q 3088 0 2303 0 
L 628 0 
L 628 4666 
z
" transform="scale(0.015625)"/>
      </defs>
      <use xlink:href="#DejaVuSans-4d"/>
      <use xlink:href="#DejaVuSans-42" x="86.279297"/>
     </g>
    </g>
   </g>
   <g id="line2d_20">
    <path d="M 44.66 395.454889 
L 63.864435 395.594228 
L 71.54621 395.749815 
L 90.750645 396.448341 
L 98.432419 396.818347 
L 109.955081 397.619487 
L 121.477742 398.640507 
L 133.000403 399.943834 
L 152.204839 402.574494 
L 171.409274 405.423268 
L 179.091048 406.805404 
L 186.772823 408.423967 
L 198.295484 411.22776 
L 209.818145 414.341727 
L 217.499919 416.72464 
L 225.181694 419.583602 
L 232.863468 422.925939 
L 240.545242 426.511895 
L 248.227016 430.340204 
L 252.067903 432.444505 
L 259.749677 437.647225 
L 263.590565 440.920542 
L 278.954113 440.654416 
L 301.999435 439.977632 
L 317.362984 439.315764 
L 336.567419 438.153474 
L 351.930968 437.010328 
L 371.135403 435.277997 
L 390.339839 433.237855 
L 405.703387 431.394652 
L 421.066935 429.381012 
L 436.430484 427.105975 
L 447.953145 425.170845 
L 470.998468 420.983851 
L 486.362016 417.985716 
L 505.566452 413.969025 
L 528.611774 408.635456 
L 547.81621 403.837568 
L 567.020645 398.807048 
L 590.065968 392.511924 
L 605.429516 388.100023 
L 628.474839 381.260361 
L 651.520161 374.095941 
L 670.724597 367.896074 
L 697.610806 358.869939 
L 716.815242 352.107621 
L 732.17879 346.500102 
L 747.542339 340.685522 
L 759.065 336.076549 
L 778.269435 327.955568 
L 793.632984 321.110846 
L 805.155645 315.691409 
L 832.041855 302.237792 
L 847.405403 294.326069 
L 858.928065 288.199283 
L 874.291613 279.531434 
L 889.655161 270.634351 
L 905.01871 261.169922 
L 920.382258 251.512651 
L 928.064032 246.459324 
L 935.745806 241.303417 
L 947.268468 233.033508 
L 954.950242 227.270468 
L 962.632016 220.87193 
L 970.31379 214.251815 
L 977.995565 206.856296 
L 985.677339 198.357385 
L 989.518226 193.769088 
L 993.359113 188.360439 
L 993.359113 188.360439 
" clip-path="url(#p257fbba831)" style="fill: none; stroke: #1f77b4; stroke-width: 1.5; stroke-linecap: square"/>
   </g>
   <g id="line2d_21">
    <path d="M 44.66 395.441371 
L 63.864435 395.504698 
L 75.387097 395.76523 
L 94.591532 396.445744 
L 102.273306 396.8584 
L 117.636855 398.00937 
L 129.159516 399.175522 
L 140.682177 400.607834 
L 156.045726 402.753753 
L 171.409274 404.979215 
L 179.091048 406.330087 
L 186.772823 407.907331 
L 198.295484 410.656753 
L 209.818145 413.735262 
L 217.499919 416.108186 
L 225.181694 418.938914 
L 229.022581 420.525647 
L 236.704355 424.011918 
L 244.386129 427.686504 
L 248.227016 429.619137 
L 252.067903 431.71891 
L 259.749677 436.901254 
L 263.590565 440.160654 
L 278.954113 439.838459 
L 301.999435 439.055931 
L 317.362984 438.353809 
L 336.567419 437.129557 
L 351.930968 435.921054 
L 371.135403 434.11331 
L 390.339839 431.983438 
L 405.703387 430.074944 
L 421.066935 428.003837 
L 440.271371 425.042959 
L 455.634919 422.306788 
L 474.839355 418.666496 
L 490.202903 415.550231 
L 505.566452 412.24595 
L 524.770887 407.730568 
L 540.134435 403.887776 
L 559.338871 398.896844 
L 582.384194 392.567127 
L 593.906855 389.319181 
L 616.952177 382.495201 
L 636.156613 376.608704 
L 655.361048 370.51528 
L 674.565484 364.185662 
L 697.610806 356.335102 
L 716.815242 349.473765 
L 732.17879 343.798757 
L 747.542339 337.925912 
L 759.065 333.266264 
L 774.428548 326.72579 
L 785.95121 321.660477 
L 793.632984 318.146538 
L 805.155645 312.671366 
L 832.041855 299.090596 
L 847.405403 291.119042 
L 858.928065 284.932992 
L 874.291613 276.203847 
L 889.655161 267.252093 
L 901.177823 260.117905 
L 920.382258 248.001442 
L 928.064032 242.913422 
L 935.745806 237.728881 
L 947.268468 229.412892 
L 954.950242 223.617257 
L 962.632016 217.182428 
L 970.31379 210.532946 
L 977.995565 203.103999 
L 985.677339 194.571327 
L 989.518226 189.971743 
L 993.359113 184.548544 
L 993.359113 184.548544 
" clip-path="url(#p257fbba831)" style="fill: none; stroke: #ff7f0e; stroke-width: 1.5; stroke-linecap: square"/>
   </g>
   <g id="line2d_22">
    <path d="M 44.66 395.412405 
L 60.023548 395.373849 
L 63.864435 395.416966 
L 71.54621 394.671295 
L 75.387097 394.775907 
L 79.227984 394.523832 
L 94.591532 395.029747 
L 109.955081 395.746019 
L 121.477742 396.692792 
L 133.000403 397.8678 
L 136.84129 397.882983 
L 140.682177 398.354205 
L 144.523065 398.447564 
L 152.204839 398.438175 
L 156.045726 398.964566 
L 159.886613 399.102407 
L 175.250161 401.395257 
L 182.931935 402.843916 
L 205.977258 407.873536 
L 209.818145 408.928151 
L 213.659032 409.287302 
L 217.499919 410.192157 
L 225.181694 412.966051 
L 229.022581 414.52981 
L 236.704355 417.1052 
L 240.545242 418.889405 
L 252.067903 423.815645 
L 255.90879 425.96243 
L 259.749677 428.24053 
L 263.590565 431.032604 
L 275.113226 430.79641 
L 301.999435 429.766933 
L 313.522097 429.203384 
L 317.362984 428.591858 
L 336.567419 427.285601 
L 348.090081 426.327142 
L 371.135403 424.130547 
L 405.703387 419.923177 
L 413.385161 418.844823 
L 424.907823 417.175386 
L 440.271371 414.740134 
L 451.794032 412.66117 
L 455.634919 411.747492 
L 474.839355 408.073039 
L 494.04379 404.087712 
L 505.566452 401.54515 
L 513.248226 399.698018 
L 551.657097 389.985843 
L 567.020645 385.873896 
L 586.225081 380.503303 
L 616.952177 371.302703 
L 659.201935 357.874623 
L 674.565484 352.763397 
L 697.610806 344.860663 
L 709.133468 340.756906 
L 712.974355 339.125925 
L 732.17879 332.004256 
L 747.542339 326.095085 
L 759.065 321.421986 
L 778.269435 313.178647 
L 793.632984 306.220788 
L 805.155645 300.723575 
L 828.200968 288.9634 
L 843.564516 281.023044 
L 855.087177 274.914038 
L 866.609839 268.431497 
L 885.814274 257.294235 
L 893.496048 252.675407 
L 916.541371 238.186852 
L 928.064032 230.596358 
L 935.745806 225.389709 
L 947.268468 217.0622 
L 954.950242 211.25681 
L 962.632016 204.821414 
L 970.31379 198.153154 
L 977.995565 190.719446 
L 985.677339 182.178051 
L 989.518226 177.578367 
L 993.359113 172.154835 
L 993.359113 172.154835 
" clip-path="url(#p257fbba831)" style="fill: none; stroke: #2ca02c; stroke-width: 1.5; stroke-linecap: square"/>
   </g>
   <g id="line2d_23">
    <path d="M 44.66 395.412405 
L 56.182661 395.358267 
L 60.023548 393.745565 
L 63.864435 393.221004 
L 71.54621 392.464545 
L 75.387097 392.569158 
L 79.227984 392.317082 
L 86.909758 392.541523 
L 94.591532 391.97581 
L 98.432419 392.146613 
L 102.273306 391.842098 
L 106.114194 391.910852 
L 109.955081 391.807904 
L 121.477742 392.754677 
L 125.318629 393.114594 
L 129.159516 393.118656 
L 133.000403 393.55049 
L 136.84129 393.565673 
L 140.682177 392.062177 
L 144.523065 392.155536 
L 148.363952 392.066738 
L 152.204839 392.114516 
L 156.045726 392.614938 
L 159.886613 392.752779 
L 163.7275 392.454224 
L 175.250161 394.194912 
L 179.091048 393.386913 
L 182.931935 394.136413 
L 186.772823 393.751058 
L 194.454597 395.391795 
L 198.295484 395.997862 
L 202.136371 395.292444 
L 205.977258 396.116924 
L 209.818145 395.559868 
L 213.659032 395.547282 
L 217.499919 396.452137 
L 221.340806 396.05433 
L 225.181694 395.955644 
L 229.022581 397.519403 
L 236.704355 399.885069 
L 240.545242 399.189306 
L 252.067903 404.011134 
L 259.749677 408.071974 
L 263.590565 410.864047 
L 271.272339 410.723309 
L 275.113226 410.466306 
L 282.795 410.204209 
L 286.635887 408.887831 
L 309.68121 407.871705 
L 313.522097 407.692845 
L 317.362984 407.081319 
L 336.567419 405.775062 
L 348.090081 404.816603 
L 371.135403 402.604459 
L 390.339839 400.189584 
L 405.703387 398.230082 
L 409.544274 397.653015 
L 413.385161 396.871685 
L 424.907823 395.202248 
L 432.589597 394.017384 
L 440.271371 392.658688 
L 451.794032 390.579724 
L 455.634919 389.666046 
L 467.157581 387.411319 
L 470.998468 386.288283 
L 478.680242 384.757686 
L 482.521129 383.701773 
L 497.884677 380.441774 
L 509.407339 377.836552 
L 532.452661 371.996934 
L 551.657097 366.946205 
L 563.179758 363.889138 
L 570.861532 361.670635 
L 593.906855 355.100129 
L 613.11129 349.368653 
L 632.315726 343.395157 
L 636.156613 341.990081 
L 651.520161 337.072831 
L 659.201935 334.426157 
L 674.565484 329.294288 
L 697.610806 321.391555 
L 709.133468 317.287798 
L 716.815242 314.022205 
L 732.17879 308.304214 
L 747.542339 302.395043 
L 759.065 297.721944 
L 778.269435 289.478605 
L 789.792097 284.237762 
L 797.473871 280.633095 
L 801.314758 278.05554 
L 808.996532 274.250038 
L 824.360081 266.401876 
L 832.041855 262.464926 
L 835.882742 260.305821 
L 855.087177 250.189147 
L 866.609839 243.695052 
L 885.814274 232.557791 
L 889.655161 230.289446 
L 893.496048 227.565794 
L 916.541371 213.077239 
L 928.064032 205.486745 
L 935.745806 200.280096 
L 947.268468 191.952587 
L 954.950242 186.147197 
L 962.632016 179.711801 
L 970.31379 173.043541 
L 977.995565 165.609833 
L 985.677339 157.068438 
L 989.518226 152.468754 
L 993.359113 146.614287 
L 993.359113 146.614287 
" clip-path="url(#p257fbba831)" style="fill: none; stroke: #d62728; stroke-width: 1.5; stroke-linecap: square"/>
   </g>
   <g id="line2d_24">
    <path d="M 44.66 394.958929 
L 48.500887 394.316705 
L 52.341774 393.889032 
L 56.182661 393.284265 
L 60.023548 391.381697 
L 63.864435 390.468219 
L 71.54621 389.3019 
L 79.227984 388.702926 
L 83.068871 388.310147 
L 86.909758 388.067927 
L 94.591532 386.707366 
L 98.432419 386.338059 
L 102.273306 385.738386 
L 113.795968 384.963082 
L 117.636855 385.194681 
L 133.000403 383.94396 
L 136.84129 383.45073 
L 140.682177 381.589714 
L 144.523065 381.339703 
L 148.363952 380.895716 
L 152.204839 380.572256 
L 156.045726 380.641643 
L 159.886613 380.298639 
L 163.7275 379.524301 
L 167.568387 379.790593 
L 171.409274 380.352943 
L 175.250161 380.438611 
L 179.091048 379.322534 
L 182.931935 379.846429 
L 186.772823 379.182263 
L 198.295484 379.538651 
L 202.136371 378.58735 
L 205.977258 378.761449 
L 209.818145 378.001694 
L 213.659032 377.404085 
L 217.499919 377.4772 
L 221.340806 376.648158 
L 225.181694 376.374508 
L 229.022581 377.273502 
L 236.704355 377.300704 
L 240.545242 376.265068 
L 244.386129 376.793157 
L 248.227016 377.022026 
L 252.067903 377.372321 
L 255.90879 378.017975 
L 259.749677 378.501317 
L 263.590565 379.244358 
L 275.113226 377.679766 
L 278.954113 376.864342 
L 282.795 376.377871 
L 286.635887 374.684195 
L 301.999435 372.063424 
L 305.840323 371.551915 
L 317.362984 369.615986 
L 321.203871 368.844544 
L 325.044758 368.310861 
L 328.885645 368.064479 
L 332.726532 367.304624 
L 336.567419 366.811361 
L 351.930968 363.574735 
L 355.771855 363.020076 
L 367.294516 360.597276 
L 371.135403 360.144799 
L 405.703387 352.413468 
L 409.544274 351.352194 
L 417.226048 349.56789 
L 421.066935 348.567812 
L 424.907823 347.79404 
L 428.74871 346.661749 
L 432.589597 345.770379 
L 444.112258 342.615925 
L 447.953145 341.382117 
L 451.794032 340.689151 
L 467.157581 335.89396 
L 470.998468 334.443437 
L 474.839355 333.364916 
L 482.521129 330.668832 
L 494.04379 326.972771 
L 497.884677 325.628558 
L 501.725565 324.483947 
L 505.566452 323.051469 
L 513.248226 320.593943 
L 524.770887 316.093078 
L 528.611774 314.945205 
L 547.81621 307.893155 
L 551.657097 306.412334 
L 559.338871 303.830651 
L 563.179758 302.723197 
L 574.702419 297.998491 
L 578.543306 296.612193 
L 593.906855 289.99624 
L 597.747742 288.541355 
L 601.588629 286.894258 
L 605.429516 285.430716 
L 609.270403 284.278648 
L 636.156613 273.04603 
L 639.9975 271.221339 
L 655.361048 264.648702 
L 674.565484 256.47971 
L 678.406371 254.967558 
L 689.929032 250.00779 
L 709.133468 241.227538 
L 716.815242 237.183212 
L 720.656129 235.201336 
L 736.019677 227.940527 
L 739.860565 225.883804 
L 751.383226 220.066661 
L 759.065 216.768173 
L 785.95121 201.996412 
L 789.792097 199.632877 
L 797.473871 195.240387 
L 801.314758 192.54963 
L 805.155645 190.31165 
L 843.564516 166.543221 
L 847.405403 164.330711 
L 851.24629 162.301989 
L 855.087177 159.801612 
L 858.928065 157.437278 
L 862.768952 155.275111 
L 866.609839 152.649345 
L 878.1325 145.154674 
L 885.814274 139.96667 
L 889.655161 137.26679 
L 893.496048 134.294825 
L 908.859597 123.605479 
L 916.541371 118.030489 
L 920.382258 115.005053 
L 928.064032 109.468252 
L 931.904919 106.580956 
L 939.586694 100.461961 
L 943.427581 97.580125 
L 954.950242 88.157349 
L 962.632016 81.469112 
L 970.31379 74.013063 
L 977.995565 66.133103 
L 981.836452 61.623648 
L 985.677339 57.292954 
L 989.518226 52.449851 
L 993.359113 46.596216 
L 993.359113 46.596216 
" clip-path="url(#p257fbba831)" style="fill: none; stroke: #9467bd; stroke-width: 1.5; stroke-linecap: square"/>
   </g>
   <g id="line2d_25">
    <path d="M 44.66 395.450294 
L 997.2 395.450294 
" clip-path="url(#p257fbba831)" style="fill: none; stroke: #000000; stroke-width: 0.5; stroke-linecap: square"/>
   </g>
   <g id="line2d_26">
    <path d="M 44.66 462.04 
L 997.2 462.04 
" clip-path="url(#p257fbba831)" style="fill: none; stroke-dasharray: 1.85,0.8; stroke-dashoffset: 0; stroke: #808080; stroke-width: 0.5"/>
   </g>
   <g id="line2d_27">
    <path d="M 44.66 428.745147 
L 997.2 428.745147 
" clip-path="url(#p257fbba831)" style="fill: none; stroke-dasharray: 1.85,0.8; stroke-dashoffset: 0; stroke: #808080; stroke-width: 0.5"/>
   </g>
   <g id="line2d_28">
    <path d="M 44.66 395.450294 
L 997.2 395.450294 
" clip-path="url(#p257fbba831)" style="fill: none; stroke-dasharray: 1.85,0.8; stroke-dashoffset: 0; stroke: #808080; stroke-width: 0.5"/>
   </g>
   <g id="line2d_29">
    <path d="M 44.66 362.155442 
L 997.2 362.155442 
" clip-path="url(#p257fbba831)" style="fill: none; stroke-dasharray: 1.85,0.8; stroke-dashoffset: 0; stroke: #808080; stroke-width: 0.5"/>
   </g>
   <g id="line2d_30">
    <path d="M 44.66 328.860589 
L 997.2 328.860589 
" clip-path="url(#p257fbba831)" style="fill: none; stroke-dasharray: 1.85,0.8; stroke-dashoffset: 0; stroke: #808080; stroke-width: 0.5"/>
   </g>
   <g id="line2d_31">
    <path d="M 44.66 295.565736 
L 997.2 295.565736 
" clip-path="url(#p257fbba831)" style="fill: none; stroke-dasharray: 1.85,0.8; stroke-dashoffset: 0; stroke: #808080; stroke-width: 0.5"/>
   </g>
   <g id="line2d_32">
    <path d="M 44.66 262.270883 
L 997.2 262.270883 
" clip-path="url(#p257fbba831)" style="fill: none; stroke-dasharray: 1.85,0.8; stroke-dashoffset: 0; stroke: #808080; stroke-width: 0.5"/>
   </g>
   <g id="line2d_33">
    <path d="M 44.66 228.976031 
L 997.2 228.976031 
" clip-path="url(#p257fbba831)" style="fill: none; stroke-dasharray: 1.85,0.8; stroke-dashoffset: 0; stroke: #808080; stroke-width: 0.5"/>
   </g>
   <g id="line2d_34">
    <path d="M 44.66 195.681178 
L 997.2 195.681178 
" clip-path="url(#p257fbba831)" style="fill: none; stroke-dasharray: 1.85,0.8; stroke-dashoffset: 0; stroke: #808080; stroke-width: 0.5"/>
   </g>
   <g id="line2d_35">
    <path d="M 44.66 162.386325 
L 997.2 162.386325 
" clip-path="url(#p257fbba831)" style="fill: none; stroke-dasharray: 1.85,0.8; stroke-dashoffset: 0; stroke: #808080; stroke-width: 0.5"/>
   </g>
   <g id="line2d_36">
    <path d="M 44.66 129.091472 
L 997.2 129.091472 
" clip-path="url(#p257fbba831)" style="fill: none; stroke-dasharray: 1.85,0.8; stroke-dashoffset: 0; stroke: #808080; stroke-width: 0.5"/>
   </g>
   <g id="line2d_37">
    <path d="M 44.66 95.79662 
L 997.2 95.79662 
" clip-path="url(#p257fbba831)" style="fill: none; stroke-dasharray: 1.85,0.8; stroke-dashoffset: 0; stroke: #808080; stroke-width: 0.5"/>
   </g>
   <g id="line2d_38">
    <path d="M 44.66 62.501767 
L 997.2 62.501767 
" clip-path="url(#p257fbba831)" style="fill: none; stroke-dasharray: 1.85,0.8; stroke-dashoffset: 0; stroke: #808080; stroke-width: 0.5"/>
   </g>
   <g id="line2d_39">
    <path d="M 44.66 29.206914 
L 997.2 29.206914 
" clip-path="url(#p257fbba831)" style="fill: none; stroke-dasharray: 1.85,0.8; stroke-dashoffset: 0; stroke: #808080; stroke-width: 0.5"/>
   </g>
   <g id="patch_3">
    <path d="M 44.66 462.04 
L 44.66 26.88 
" style="fill: none; stroke: #000000; stroke-width: 0.8; stroke-linejoin: miter; stroke-linecap: square"/>
   </g>
   <g id="patch_4">
    <path d="M 997.2 462.04 
L 997.2 26.88 
" style="fill: none; stroke: #000000; stroke-width: 0.8; stroke-linejoin: miter; stroke-linecap: square"/>
   </g>
   <g id="patch_5">
    <path d="M 44.66 462.04 
L 997.2 462.04 
" style="fill: none; stroke: #000000; stroke-width: 0.8; stroke-linejoin: miter; stroke-linecap: square"/>
   </g>
   <g id="patch_6">
    <path d="M 44.66 26.88 
L 997.2 26.88 
" style="fill: none; stroke: #000000; stroke-width: 0.8; stroke-linejoin: miter; stroke-linecap: square"/>
   </g>
   <g id="text_22">
    <!-- QB3 cummulative savings vs PNG, total PNG size is 90.43 MB, CID22 set -->
    <g transform="translate(303.431875 20.88) scale(0.12 -0.12)">
     <defs>
      <path id="DejaVuSans-51" d="M 2522 4238 
Q 1834 4238 1429 3725 
Q 1025 3213 1025 2328 
Q 1025 1447 1429 934 
Q 1834 422 2522 422 
Q 3209 422 3611 934 
Q 4013 1447 4013 2328 
Q 4013 3213 3611 3725 
Q 3209 4238 2522 4238 
z
M 3406 84 
L 4238 -825 
L 3475 -825 
L 2784 -78 
Q 2681 -84 2626 -87 
Q 2572 -91 2522 -91 
Q 1538 -91 948 567 
Q 359 1225 359 2328 
Q 359 3434 948 4092 
Q 1538 4750 2522 4750 
Q 3503 4750 4090 4092 
Q 4678 3434 4678 2328 
Q 4678 1516 4351 937 
Q 4025 359 3406 84 
z
" transform="scale(0.015625)"/>
      <path id="DejaVuSans-76" d="M 191 3500 
L 800 3500 
L 1894 563 
L 2988 3500 
L 3597 3500 
L 2284 0 
L 1503 0 
L 191 3500 
z
" transform="scale(0.015625)"/>
      <path id="DejaVuSans-50" d="M 1259 4147 
L 1259 2394 
L 2053 2394 
Q 2494 2394 2734 2622 
Q 2975 2850 2975 3272 
Q 2975 3691 2734 3919 
Q 2494 4147 2053 4147 
L 1259 4147 
z
M 628 4666 
L 2053 4666 
Q 2838 4666 3239 4311 
Q 3641 3956 3641 3272 
Q 3641 2581 3239 2228 
Q 2838 1875 2053 1875 
L 1259 1875 
L 1259 0 
L 628 0 
L 628 4666 
z
" transform="scale(0.015625)"/>
      <path id="DejaVuSans-4e" d="M 628 4666 
L 1478 4666 
L 3547 763 
L 3547 4666 
L 4159 4666 
L 4159 0 
L 3309 0 
L 1241 3903 
L 1241 0 
L 628 0 
L 628 4666 
z
" transform="scale(0.015625)"/>
      <path id="DejaVuSans-47" d="M 3809 666 
L 3809 1919 
L 2778 1919 
L 2778 2438 
L 4434 2438 
L 4434 434 
Q 4069 175 3628 42 
Q 3188 -91 2688 -91 
Q 1594 -91 976 548 
Q 359 1188 359 2328 
Q 359 3472 976 4111 
Q 1594 4750 2688 4750 
Q 3144 4750 3555 4637 
Q 3966 4525 4313 4306 
L 4313 3634 
Q 3963 3931 3569 4081 
Q 3175 4231 2741 4231 
Q 1884 4231 1454 3753 
Q 1025 3275 1025 2328 
Q 1025 1384 1454 906 
Q 1884 428 2741 428 
Q 3075 428 3337 486 
Q 3600 544 3809 666 
z
" transform="scale(0.015625)"/>
      <path id="DejaVuSans-7a" d="M 353 3500 
L 3084 3500 
L 3084 2975 
L 922 459 
L 3084 459 
L 3084 0 
L 275 0 
L 275 525 
L 2438 3041 
L 353 3041 
L 353 3500 
z
" transform="scale(0.015625)"/>
      <path id="DejaVuSans-2e" d="M 684 794 
L 1344 794 
L 1344 0 
L 684 0 
L 684 794 
z
" transform="scale(0.015625)"/>
      <path id="DejaVuSans-43" d="M 4122 4306 
L 4122 3641 
Q 3803 3938 3442 4084 
Q 3081 4231 2675 4231 
Q 1875 4231 1450 3742 
Q 1025 3253 1025 2328 
Q 1025 1406 1450 917 
Q 1875 428 2675 428 
Q 3081 428 3442 575 
Q 3803 722 4122 1019 
L 4122 359 
Q 3791 134 3420 21 
Q 3050 -91 2638 -91 
Q 1578 -91 968 557 
Q 359 1206 359 2328 
Q 359 3453 968 4101 
Q 1578 4750 2638 4750 
Q 3056 4750 3426 4639 
Q 3797 4528 4122 4306 
z
" transform="scale(0.015625)"/>
      <path id="DejaVuSans-49" d="M 628 4666 
L 1259 4666 
L 1259 0 
L 628 0 
L 628 4666 
z
" transform="scale(0.015625)"/>
      <path id="DejaVuSans-44" d="M 1259 4147 
L 1259 519 
L 2022 519 
Q 2988 519 3436 956 
Q 3884 1394 3884 2338 
Q 3884 3275 3436 3711 
Q 2988 4147 2022 4147 
L 1259 4147 
z
M 628 4666 
L 1925 4666 
Q 3281 4666 3915 4102 
Q 4550 3538 4550 2338 
Q 4550 1131 3912 565 
Q 3275 0 1925 0 
L 628 0 
L 628 4666 
z
" transform="scale(0.015625)"/>
     </defs>
     <use xlink:href="#DejaVuSans-51"/>
     <use xlink:href="#DejaVuSans-42" x="78.710938"/>
     <use xlink:href="#DejaVuSans-33" x="147.314453"/>
     <use xlink:href="#DejaVuSans-20" x="210.9375"/>
     <use xlink:href="#DejaVuSans-63" x="242.724609"/>
     <use xlink:href="#DejaVuSans-75" x="297.705078"/>
     <use xlink:href="#DejaVuSans-6d" x="361.083984"/>
     <use xlink:href="#DejaVuSans-6d" x="458.496094"/>
     <use xlink:href="#DejaVuSans-75" x="555.908203"/>
     <use xlink:href="#DejaVuSans-6c" x="619.287109"/>
     <use xlink:href="#DejaVuSans-61" x="647.070312"/>
     <use xlink:href="#DejaVuSans-74" x="708.349609"/>
     <use xlink:href="#DejaVuSans-69" x="747.558594"/>
     <use xlink:href="#DejaVuSans-76" x="775.341797"/>
     <use xlink:href="#DejaVuSans-65" x="834.521484"/>
     <use xlink:href="#DejaVuSans-20" x="896.044922"/>
     <use xlink:href="#DejaVuSans-73" x="927.832031"/>
     <use xlink:href="#DejaVuSans-61" x="979.931641"/>
     <use xlink:href="#DejaVuSans-76" x="1041.210938"/>
     <use xlink:href="#DejaVuSans-69" x="1100.390625"/>
     <use xlink:href="#DejaVuSans-6e" x="1128.173828"/>
     <use xlink:href="#DejaVuSans-67" x="1191.552734"/>
     <use xlink:href="#DejaVuSans-73" x="1255.029297"/>
     <use xlink:href="#DejaVuSans-20" x="1307.128906"/>
     <use xlink:href="#DejaVuSans-76" x="1338.916016"/>
     <use xlink:href="#DejaVuSans-73" x="1398.095703"/>
     <use xlink:href="#DejaVuSans-20" x="1450.195312"/>
     <use xlink:href="#DejaVuSans-50" x="1481.982422"/>
     <use xlink:href="#DejaVuSans-4e" x="1542.285156"/>
     <use xlink:href="#DejaVuSans-47" x="1617.089844"/>
     <use xlink:href="#DejaVuSans-2c" x="1694.580078"/>
     <use xlink:href="#DejaVuSans-20" x="1726.367188"/>
     <use xlink:href="#DejaVuSans-74" x="1758.154297"/>
     <use xlink:href="#DejaVuSans-6f" x="1797.363281"/>
     <use xlink:href="#DejaVuSans-74" x="1858.544922"/>
     <use xlink:href="#DejaVuSans-61" x="1897.753906"/>
     <use xlink:href="#DejaVuSans-6c" x="1959.033203"/>
     <use xlink:href="#DejaVuSans-20" x="1986.816406"/>
     <use xlink:href="#DejaVuSans-50" x="2018.603516"/>
     <use xlink:href="#DejaVuSans-4e" x="2078.90625"/>
     <use xlink:href="#DejaVuSans-47" x="2153.710938"/>
     <use xlink:href="#DejaVuSans-20" x="2231.201172"/>
     <use xlink:href="#DejaVuSans-73" x="2262.988281"/>
     <use xlink:href="#DejaVuSans-69" x="2315.087891"/>
     <use xlink:href="#DejaVuSans-7a" x="2342.871094"/>
     <use xlink:href="#DejaVuSans-65" x="2395.361328"/>
     <use xlink:href="#DejaVuSans-20" x="2456.884766"/>
     <use xlink:href="#DejaVuSans-69" x="2488.671875"/>
     <use xlink:href="#DejaVuSans-73" x="2516.455078"/>
     <use xlink:href="#DejaVuSans-20" x="2568.554688"/>
     <use xlink:href="#DejaVuSans-39" x="2600.341797"/>
     <use xlink:href="#DejaVuSans-30" x="2663.964844"/>
     <use xlink:href="#DejaVuSans-2e" x="2727.587891"/>
     <use xlink:href="#DejaVuSans-34" x="2759.375"/>
     <use xlink:href="#DejaVuSans-33" x="2822.998047"/>
     <use xlink:href="#DejaVuSans-20" x="2886.621094"/>
     <use xlink:href="#DejaVuSans-4d" x="2918.408203"/>
     <use xlink:href="#DejaVuSans-42" x="3004.6875"/>
     <use xlink:href="#DejaVuSans-2c" x="3073.291016"/>
     <use xlink:href="#DejaVuSans-20" x="3105.078125"/>
     <use xlink:href="#DejaVuSans-43" x="3136.865234"/>
     <use xlink:href="#DejaVuSans-49" x="3206.689453"/>
     <use xlink:href="#DejaVuSans-44" x="3236.181641"/>
     <use xlink:href="#DejaVuSans-32" x="3313.183594"/>
     <use xlink:href="#DejaVuSans-32" x="3376.806641"/>
     <use xlink:href="#DejaVuSans-20" x="3440.429688"/>
     <use xlink:href="#DejaVuSans-73" x="3472.216797"/>
     <use xlink:href="#DejaVuSans-65" x="3524.316406"/>
     <use xlink:href="#DejaVuSans-74" x="3585.839844"/>
    </g>
   </g>
   <g id="legend_1">
    <g id="patch_7">
     <path d="M 51.66 108.270625 
L 180.033438 108.270625 
Q 182.033438 108.270625 182.033438 106.270625 
L 182.033438 33.88 
Q 182.033438 31.88 180.033438 31.88 
L 51.66 31.88 
Q 49.66 31.88 49.66 33.88 
L 49.66 106.270625 
Q 49.66 108.270625 51.66 108.270625 
z
" style="fill: #ffffff; opacity: 0.8; stroke: #cccccc; stroke-linejoin: miter"/>
    </g>
    <g id="line2d_40">
     <path d="M 53.66 39.978437 
L 63.66 39.978437 
L 73.66 39.978437 
" style="fill: none; stroke: #1f77b4; stroke-width: 1.5; stroke-linecap: square"/>
    </g>
    <g id="text_23">
     <!-- QB3 Fast -->
     <g transform="translate(81.66 43.478437) scale(0.1 -0.1)">
      <use xlink:href="#DejaVuSans-51"/>
      <use xlink:href="#DejaVuSans-42" x="78.710938"/>
      <use xlink:href="#DejaVuSans-33" x="147.314453"/>
      <use xlink:href="#DejaVuSans-20" x="210.9375"/>
      <use xlink:href="#DejaVuSans-46" x="242.724609"/>
      <use xlink:href="#DejaVuSans-61" x="291.119141"/>
      <use xlink:href="#DejaVuSans-73" x="352.398438"/>
      <use xlink:href="#DejaVuSans-74" x="404.498047"/>
     </g>
    </g>
    <g id="line2d_41">
     <path d="M 53.66 54.656562 
L 63.66 54.656562 
L 73.66 54.656562 
" style="fill: none; stroke: #ff7f0e; stroke-width: 1.5; stroke-linecap: square"/>
    </g>
    <g id="text_24">
     <!-- QB3 Base -->
     <g transform="translate(81.66 58.156562) scale(0.1 -0.1)">
      <use xlink:href="#DejaVuSans-51"/>
      <use xlink:href="#DejaVuSans-42" x="78.710938"/>
      <use xlink:href="#DejaVuSans-33" x="147.314453"/>
      <use xlink:href="#DejaVuSans-20" x="210.9375"/>
      <use xlink:href="#DejaVuSans-42" x="242.724609"/>
      <use xlink:href="#DejaVuSans-61" x="311.328125"/>
      <use xlink:href="#DejaVuSans-73" x="372.607422"/>
      <use xlink:href="#DejaVuSans-65" x="424.707031"/>
     </g>
    </g>
    <g id="line2d_42">
     <path d="M 53.66 69.334687 
L 63.66 69.334687 
L 73.66 69.334687 
" style="fill: none; stroke: #2ca02c; stroke-width: 1.5; stroke-linecap: square"/>
    </g>
    <g id="text_25">
     <!-- QB3 Best -->
     <g transform="translate(81.66 72.834687) scale(0.1 -0.1)">
      <use xlink:href="#DejaVuSans-51"/>
      <use xlink:href="#DejaVuSans-42" x="78.710938"/>
      <use xlink:href="#DejaVuSans-33" x="147.314453"/>
      <use xlink:href="#DejaVuSans-20" x="210.9375"/>
      <use xlink:href="#DejaVuSans-42" x="242.724609"/>
      <use xlink:href="#DejaVuSans-65" x="311.328125"/>
      <use xlink:href="#DejaVuSans-73" x="372.851562"/>
      <use xlink:href="#DejaVuSans-74" x="424.951172"/>
     </g>
    </g>
    <g id="line2d_43">
     <path d="M 53.66 84.012812 
L 63.66 84.012812 
L 73.66 84.012812 
" style="fill: none; stroke: #d62728; stroke-width: 1.5; stroke-linecap: square"/>
    </g>
    <g id="text_26">
     <!-- QB3 Best band mix -->
     <g transform="translate(81.66 87.512812) scale(0.1 -0.1)">
      <defs>
       <path id="DejaVuSans-78" d="M 3513 3500 
L 2247 1797 
L 3578 0 
L 2900 0 
L 1881 1375 
L 863 0 
L 184 0 
L 1544 1831 
L 300 3500 
L 978 3500 
L 1906 2253 
L 2834 3500 
L 3513 3500 
z
" transform="scale(0.015625)"/>
      </defs>
      <use xlink:href="#DejaVuSans-51"/>
      <use xlink:href="#DejaVuSans-42" x="78.710938"/>
      <use xlink:href="#DejaVuSans-33" x="147.314453"/>
      <use xlink:href="#DejaVuSans-20" x="210.9375"/>
      <use xlink:href="#DejaVuSans-42" x="242.724609"/>
      <use xlink:href="#DejaVuSans-65" x="311.328125"/>
      <use xlink:href="#DejaVuSans-73" x="372.851562"/>
      <use xlink:href="#DejaVuSans-74" x="424.951172"/>
      <use xlink:href="#DejaVuSans-20" x="464.160156"/>
      <use xlink:href="#DejaVuSans-62" x="495.947266"/>
      <use xlink:href="#DejaVuSans-61" x="559.423828"/>
      <use xlink:href="#DejaVuSans-6e" x="620.703125"/>
      <use xlink:href="#DejaVuSans-64" x="684.082031"/>
      <use xlink:href="#DejaVuSans-20" x="747.558594"/>
      <use xlink:href="#DejaVuSans-6d" x="779.345703"/>
      <use xlink:href="#DejaVuSans-69" x="876.757812"/>
      <use xlink:href="#DejaVuSans-78" x="904.541016"/>
     </g>
    </g>
    <g id="line2d_44">
     <path d="M 53.66 98.690937 
L 63.66 98.690937 
L 73.66 98.690937 
" style="fill: none; stroke: #9467bd; stroke-width: 1.5; stroke-linecap: square"/>
    </g>
    <g id="text_27">
     <!-- QB3 + Zstd -->
     <g transform="translate(81.66 102.190937) scale(0.1 -0.1)">
      <defs>
       <path id="DejaVuSans-2b" d="M 2944 4013 
L 2944 2272 
L 4684 2272 
L 4684 1741 
L 2944 1741 
L 2944 0 
L 2419 0 
L 2419 1741 
L 678 1741 
L 678 2272 
L 2419 2272 
L 2419 4013 
L 2944 4013 
z
" transform="scale(0.015625)"/>
       <path id="DejaVuSans-5a" d="M 359 4666 
L 4025 4666 
L 4025 4184 
L 1075 531 
L 4097 531 
L 4097 0 
L 288 0 
L 288 481 
L 3238 4134 
L 359 4134 
L 359 4666 
z
" transform="scale(0.015625)"/>
      </defs>
      <use xlink:href="#DejaVuSans-51"/>
      <use xlink:href="#DejaVuSans-42" x="78.710938"/>
      <use xlink:href="#DejaVuSans-33" x="147.314453"/>
      <use xlink:href="#DejaVuSans-20" x="210.9375"/>
      <use xlink:href="#DejaVuSans-2b" x="242.724609"/>
      <use xlink:href="#DejaVuSans-20" x="326.513672"/>
      <use xlink:href="#DejaVuSans-5a" x="358.300781"/>
      <use xlink:href="#DejaVuSans-73" x="426.806641"/>
      <use xlink:href="#DejaVuSans-74" x="478.90625"/>
      <use xlink:href="#DejaVuSans-64" x="518.115234"/>
     </g>
    </g>
   </g>
  </g>
 </g>
 <defs>
  <clipPath id="p257fbba831">
   <rect x="44.66" y="26.88" width="952.54" height="435.16"/>
  </clipPath>
 </defs>
</svg>
