<?xml version="1.0" encoding="utf-8" standalone="no"?>
<!DOCTYPE svg PUBLIC "-//W3C//DTD SVG 1.1//EN"
  "http://www.w3.org/Graphics/SVG/1.1/DTD/svg11.dtd">
<svg xmlns:xlink="http://www.w3.org/1999/xlink" width="1152pt" height="576pt" viewBox="0 0 1152 576" xmlns="http://www.w3.org/2000/svg" version="1.1">
 <metadata>
  <rdf:RDF xmlns:dc="http://purl.org/dc/elements/1.1/" xmlns:cc="http://creativecommons.org/ns#" xmlns:rdf="http://www.w3.org/1999/02/22-rdf-syntax-ns#">
   <cc:Work>
    <dc:type rdf:resource="http://purl.org/dc/dcmitype/StillImage"/>
    <dc:date>2025-04-28T13:27:36.789044</dc:date>
    <dc:format>image/svg+xml</dc:format>
    <dc:creator>
     <cc:Agent>
      <dc:title>Matplotlib v3.9.0, https://matplotlib.org/</dc:title>
     </cc:Agent>
    </dc:creator>
   </cc:Work>
  </rdf:RDF>
 </metadata>
 <defs>
  <style type="text/css">*{stroke-linejoin: round; stroke-linecap: butt}</style>
 </defs>
 <g id="figure_1">
  <g id="patch_1">
   <path d="M 0 576 
L 1152 576 
L 1152 0 
L 0 0 
z
" style="fill: #ffffff"/>
  </g>
  <g id="axes_1">
   <g id="patch_2">
    <path d="M 54.02 534.04 
L 1141.2 534.04 
L 1141.2 26.88 
L 54.02 26.88 
z
" style="fill: #ffffff"/>
   </g>
   <g id="matplotlib.axis_1">
    <g id="xtick_1">
     <g id="line2d_1">
      <defs>
       <path id="mce5be53f3e" d="M 0 0 
L 0 3.5 
" style="stroke: #000000; stroke-width: 0.8"/>
      </defs>
      <g>
       <use xlink:href="#mce5be53f3e" x="103.437273" y="534.04" style="stroke: #000000; stroke-width: 0.8"/>
      </g>
     </g>
     <g id="text_1">
      <!-- 0 -->
      <g transform="translate(100.256023 548.638438) scale(0.1 -0.1)">
       <defs>
        <path id="DejaVuSans-30" d="M 2034 4250 
Q 1547 4250 1301 3770 
Q 1056 3291 1056 2328 
Q 1056 1369 1301 889 
Q 1547 409 2034 409 
Q 2525 409 2770 889 
Q 3016 1369 3016 2328 
Q 3016 3291 2770 3770 
Q 2525 4250 2034 4250 
z
M 2034 4750 
Q 2819 4750 3233 4129 
Q 3647 3509 3647 2328 
Q 3647 1150 3233 529 
Q 2819 -91 2034 -91 
Q 1250 -91 836 529 
Q 422 1150 422 2328 
Q 422 3509 836 4129 
Q 1250 4750 2034 4750 
z
" transform="scale(0.015625)"/>
       </defs>
       <use xlink:href="#DejaVuSans-30"/>
      </g>
     </g>
    </g>
    <g id="xtick_2">
     <g id="line2d_2">
      <g>
       <use xlink:href="#mce5be53f3e" x="303.507203" y="534.04" style="stroke: #000000; stroke-width: 0.8"/>
      </g>
     </g>
     <g id="text_2">
      <!-- 50 -->
      <g transform="translate(297.144703 548.638438) scale(0.1 -0.1)">
       <defs>
        <path id="DejaVuSans-35" d="M 691 4666 
L 3169 4666 
L 3169 4134 
L 1269 4134 
L 1269 2991 
Q 1406 3038 1543 3061 
Q 1681 3084 1819 3084 
Q 2600 3084 3056 2656 
Q 3513 2228 3513 1497 
Q 3513 744 3044 326 
Q 2575 -91 1722 -91 
Q 1428 -91 1123 -41 
Q 819 9 494 109 
L 494 744 
Q 775 591 1075 516 
Q 1375 441 1709 441 
Q 2250 441 2565 725 
Q 2881 1009 2881 1497 
Q 2881 1984 2565 2268 
Q 2250 2553 1709 2553 
Q 1456 2553 1204 2497 
Q 953 2441 691 2322 
L 691 4666 
z
" transform="scale(0.015625)"/>
       </defs>
       <use xlink:href="#DejaVuSans-35"/>
       <use xlink:href="#DejaVuSans-30" x="63.623047"/>
      </g>
     </g>
    </g>
    <g id="xtick_3">
     <g id="line2d_3">
      <g>
       <use xlink:href="#mce5be53f3e" x="503.577133" y="534.04" style="stroke: #000000; stroke-width: 0.8"/>
      </g>
     </g>
     <g id="text_3">
      <!-- 100 -->
      <g transform="translate(494.033383 548.638438) scale(0.1 -0.1)">
       <defs>
        <path id="DejaVuSans-31" d="M 794 531 
L 1825 531 
L 1825 4091 
L 703 3866 
L 703 4441 
L 1819 4666 
L 2450 4666 
L 2450 531 
L 3481 531 
L 3481 0 
L 794 0 
L 794 531 
z
" transform="scale(0.015625)"/>
       </defs>
       <use xlink:href="#DejaVuSans-31"/>
       <use xlink:href="#DejaVuSans-30" x="63.623047"/>
       <use xlink:href="#DejaVuSans-30" x="127.246094"/>
      </g>
     </g>
    </g>
    <g id="xtick_4">
     <g id="line2d_4">
      <g>
       <use xlink:href="#mce5be53f3e" x="703.647063" y="534.04" style="stroke: #000000; stroke-width: 0.8"/>
      </g>
     </g>
     <g id="text_4">
      <!-- 150 -->
      <g transform="translate(694.103313 548.638438) scale(0.1 -0.1)">
       <use xlink:href="#DejaVuSans-31"/>
       <use xlink:href="#DejaVuSans-35" x="63.623047"/>
       <use xlink:href="#DejaVuSans-30" x="127.246094"/>
      </g>
     </g>
    </g>
    <g id="xtick_5">
     <g id="line2d_5">
      <g>
       <use xlink:href="#mce5be53f3e" x="903.716993" y="534.04" style="stroke: #000000; stroke-width: 0.8"/>
      </g>
     </g>
     <g id="text_5">
      <!-- 200 -->
      <g transform="translate(894.173243 548.638438) scale(0.1 -0.1)">
       <defs>
        <path id="DejaVuSans-32" d="M 1228 531 
L 3431 531 
L 3431 0 
L 469 0 
L 469 531 
Q 828 903 1448 1529 
Q 2069 2156 2228 2338 
Q 2531 2678 2651 2914 
Q 2772 3150 2772 3378 
Q 2772 3750 2511 3984 
Q 2250 4219 1831 4219 
Q 1534 4219 1204 4116 
Q 875 4013 500 3803 
L 500 4441 
Q 881 4594 1212 4672 
Q 1544 4750 1819 4750 
Q 2544 4750 2975 4387 
Q 3406 4025 3406 3419 
Q 3406 3131 3298 2873 
Q 3191 2616 2906 2266 
Q 2828 2175 2409 1742 
Q 1991 1309 1228 531 
z
" transform="scale(0.015625)"/>
       </defs>
       <use xlink:href="#DejaVuSans-32"/>
       <use xlink:href="#DejaVuSans-30" x="63.623047"/>
       <use xlink:href="#DejaVuSans-30" x="127.246094"/>
      </g>
     </g>
    </g>
    <g id="xtick_6">
     <g id="line2d_6">
      <g>
       <use xlink:href="#mce5be53f3e" x="1103.786923" y="534.04" style="stroke: #000000; stroke-width: 0.8"/>
      </g>
     </g>
     <g id="text_6">
      <!-- 250 -->
      <g transform="translate(1094.243173 548.638438) scale(0.1 -0.1)">
       <use xlink:href="#DejaVuSans-32"/>
       <use xlink:href="#DejaVuSans-35" x="63.623047"/>
       <use xlink:href="#DejaVuSans-30" x="127.246094"/>
      </g>
     </g>
    </g>
    <g id="text_7">
     <!-- File number -->
     <g transform="translate(568.138906 562.316562) scale(0.1 -0.1)">
      <defs>
       <path id="DejaVuSans-46" d="M 628 4666 
L 3309 4666 
L 3309 4134 
L 1259 4134 
L 1259 2759 
L 3109 2759 
L 3109 2228 
L 1259 2228 
L 1259 0 
L 628 0 
L 628 4666 
z
" transform="scale(0.015625)"/>
       <path id="DejaVuSans-69" d="M 603 3500 
L 1178 3500 
L 1178 0 
L 603 0 
L 603 3500 
z
M 603 4863 
L 1178 4863 
L 1178 4134 
L 603 4134 
L 603 4863 
z
" transform="scale(0.015625)"/>
       <path id="DejaVuSans-6c" d="M 603 4863 
L 1178 4863 
L 1178 0 
L 603 0 
L 603 4863 
z
" transform="scale(0.015625)"/>
       <path id="DejaVuSans-65" d="M 3597 1894 
L 3597 1613 
L 953 1613 
Q 991 1019 1311 708 
Q 1631 397 2203 397 
Q 2534 397 2845 478 
Q 3156 559 3463 722 
L 3463 178 
Q 3153 47 2828 -22 
Q 2503 -91 2169 -91 
Q 1331 -91 842 396 
Q 353 884 353 1716 
Q 353 2575 817 3079 
Q 1281 3584 2069 3584 
Q 2775 3584 3186 3129 
Q 3597 2675 3597 1894 
z
M 3022 2063 
Q 3016 2534 2758 2815 
Q 2500 3097 2075 3097 
Q 1594 3097 1305 2825 
Q 1016 2553 972 2059 
L 3022 2063 
z
" transform="scale(0.015625)"/>
       <path id="DejaVuSans-20" transform="scale(0.015625)"/>
       <path id="DejaVuSans-6e" d="M 3513 2113 
L 3513 0 
L 2938 0 
L 2938 2094 
Q 2938 2591 2744 2837 
Q 2550 3084 2163 3084 
Q 1697 3084 1428 2787 
Q 1159 2491 1159 1978 
L 1159 0 
L 581 0 
L 581 3500 
L 1159 3500 
L 1159 2956 
Q 1366 3272 1645 3428 
Q 1925 3584 2291 3584 
Q 2894 3584 3203 3211 
Q 3513 2838 3513 2113 
z
" transform="scale(0.015625)"/>
       <path id="DejaVuSans-75" d="M 544 1381 
L 544 3500 
L 1119 3500 
L 1119 1403 
Q 1119 906 1312 657 
Q 1506 409 1894 409 
Q 2359 409 2629 706 
Q 2900 1003 2900 1516 
L 2900 3500 
L 3475 3500 
L 3475 0 
L 2900 0 
L 2900 538 
Q 2691 219 2414 64 
Q 2138 -91 1772 -91 
Q 1169 -91 856 284 
Q 544 659 544 1381 
z
M 1991 3584 
L 1991 3584 
z
" transform="scale(0.015625)"/>
       <path id="DejaVuSans-6d" d="M 3328 2828 
Q 3544 3216 3844 3400 
Q 4144 3584 4550 3584 
Q 5097 3584 5394 3201 
Q 5691 2819 5691 2113 
L 5691 0 
L 5113 0 
L 5113 2094 
Q 5113 2597 4934 2840 
Q 4756 3084 4391 3084 
Q 3944 3084 3684 2787 
Q 3425 2491 3425 1978 
L 3425 0 
L 2847 0 
L 2847 2094 
Q 2847 2600 2669 2842 
Q 2491 3084 2119 3084 
Q 1678 3084 1418 2786 
Q 1159 2488 1159 1978 
L 1159 0 
L 581 0 
L 581 3500 
L 1159 3500 
L 1159 2956 
Q 1356 3278 1631 3431 
Q 1906 3584 2284 3584 
Q 2666 3584 2933 3390 
Q 3200 3197 3328 2828 
z
" transform="scale(0.015625)"/>
       <path id="DejaVuSans-62" d="M 3116 1747 
Q 3116 2381 2855 2742 
Q 2594 3103 2138 3103 
Q 1681 3103 1420 2742 
Q 1159 2381 1159 1747 
Q 1159 1113 1420 752 
Q 1681 391 2138 391 
Q 2594 391 2855 752 
Q 3116 1113 3116 1747 
z
M 1159 2969 
Q 1341 3281 1617 3432 
Q 1894 3584 2278 3584 
Q 2916 3584 3314 3078 
Q 3713 2572 3713 1747 
Q 3713 922 3314 415 
Q 2916 -91 2278 -91 
Q 1894 -91 1617 61 
Q 1341 213 1159 525 
L 1159 0 
L 581 0 
L 581 4863 
L 1159 4863 
L 1159 2969 
z
" transform="scale(0.015625)"/>
       <path id="DejaVuSans-72" d="M 2631 2963 
Q 2534 3019 2420 3045 
Q 2306 3072 2169 3072 
Q 1681 3072 1420 2755 
Q 1159 2438 1159 1844 
L 1159 0 
L 581 0 
L 581 3500 
L 1159 3500 
L 1159 2956 
Q 1341 3275 1631 3429 
Q 1922 3584 2338 3584 
Q 2397 3584 2469 3576 
Q 2541 3569 2628 3553 
L 2631 2963 
z
" transform="scale(0.015625)"/>
      </defs>
      <use xlink:href="#DejaVuSans-46"/>
      <use xlink:href="#DejaVuSans-69" x="50.269531"/>
      <use xlink:href="#DejaVuSans-6c" x="78.052734"/>
      <use xlink:href="#DejaVuSans-65" x="105.835938"/>
      <use xlink:href="#DejaVuSans-20" x="167.359375"/>
      <use xlink:href="#DejaVuSans-6e" x="199.146484"/>
      <use xlink:href="#DejaVuSans-75" x="262.525391"/>
      <use xlink:href="#DejaVuSans-6d" x="325.904297"/>
      <use xlink:href="#DejaVuSans-62" x="423.316406"/>
      <use xlink:href="#DejaVuSans-65" x="486.792969"/>
      <use xlink:href="#DejaVuSans-72" x="548.316406"/>
     </g>
    </g>
   </g>
   <g id="matplotlib.axis_2">
    <g id="ytick_1">
     <g id="line2d_7">
      <defs>
       <path id="m9429568405" d="M 0 0 
L -3.5 0 
" style="stroke: #000000; stroke-width: 0.8"/>
      </defs>
      <g>
       <use xlink:href="#m9429568405" x="54.02" y="513.724396" style="stroke: #000000; stroke-width: 0.8"/>
      </g>
     </g>
     <g id="text_8">
      <!-- 0.00 -->
      <g transform="translate(24.754375 517.523615) scale(0.1 -0.1)">
       <defs>
        <path id="DejaVuSans-2e" d="M 684 794 
L 1344 794 
L 1344 0 
L 684 0 
L 684 794 
z
" transform="scale(0.015625)"/>
       </defs>
       <use xlink:href="#DejaVuSans-30"/>
       <use xlink:href="#DejaVuSans-2e" x="63.623047"/>
       <use xlink:href="#DejaVuSans-30" x="95.410156"/>
       <use xlink:href="#DejaVuSans-30" x="159.033203"/>
      </g>
     </g>
    </g>
    <g id="ytick_2">
     <g id="line2d_8">
      <g>
       <use xlink:href="#m9429568405" x="54.02" y="451.714359" style="stroke: #000000; stroke-width: 0.8"/>
      </g>
     </g>
     <g id="text_9">
      <!-- 0.02 -->
      <g transform="translate(24.754375 455.513578) scale(0.1 -0.1)">
       <use xlink:href="#DejaVuSans-30"/>
       <use xlink:href="#DejaVuSans-2e" x="63.623047"/>
       <use xlink:href="#DejaVuSans-30" x="95.410156"/>
       <use xlink:href="#DejaVuSans-32" x="159.033203"/>
      </g>
     </g>
    </g>
    <g id="ytick_3">
     <g id="line2d_9">
      <g>
       <use xlink:href="#m9429568405" x="54.02" y="389.704322" style="stroke: #000000; stroke-width: 0.8"/>
      </g>
     </g>
     <g id="text_10">
      <!-- 0.04 -->
      <g transform="translate(24.754375 393.503541) scale(0.1 -0.1)">
       <defs>
        <path id="DejaVuSans-34" d="M 2419 4116 
L 825 1625 
L 2419 1625 
L 2419 4116 
z
M 2253 4666 
L 3047 4666 
L 3047 1625 
L 3713 1625 
L 3713 1100 
L 3047 1100 
L 3047 0 
L 2419 0 
L 2419 1100 
L 313 1100 
L 313 1709 
L 2253 4666 
z
" transform="scale(0.015625)"/>
       </defs>
       <use xlink:href="#DejaVuSans-30"/>
       <use xlink:href="#DejaVuSans-2e" x="63.623047"/>
       <use xlink:href="#DejaVuSans-30" x="95.410156"/>
       <use xlink:href="#DejaVuSans-34" x="159.033203"/>
      </g>
     </g>
    </g>
    <g id="ytick_4">
     <g id="line2d_10">
      <g>
       <use xlink:href="#m9429568405" x="54.02" y="327.694285" style="stroke: #000000; stroke-width: 0.8"/>
      </g>
     </g>
     <g id="text_11">
      <!-- 0.06 -->
      <g transform="translate(24.754375 331.493504) scale(0.1 -0.1)">
       <defs>
        <path id="DejaVuSans-36" d="M 2113 2584 
Q 1688 2584 1439 2293 
Q 1191 2003 1191 1497 
Q 1191 994 1439 701 
Q 1688 409 2113 409 
Q 2538 409 2786 701 
Q 3034 994 3034 1497 
Q 3034 2003 2786 2293 
Q 2538 2584 2113 2584 
z
M 3366 4563 
L 3366 3988 
Q 3128 4100 2886 4159 
Q 2644 4219 2406 4219 
Q 1781 4219 1451 3797 
Q 1122 3375 1075 2522 
Q 1259 2794 1537 2939 
Q 1816 3084 2150 3084 
Q 2853 3084 3261 2657 
Q 3669 2231 3669 1497 
Q 3669 778 3244 343 
Q 2819 -91 2113 -91 
Q 1303 -91 875 529 
Q 447 1150 447 2328 
Q 447 3434 972 4092 
Q 1497 4750 2381 4750 
Q 2619 4750 2861 4703 
Q 3103 4656 3366 4563 
z
" transform="scale(0.015625)"/>
       </defs>
       <use xlink:href="#DejaVuSans-30"/>
       <use xlink:href="#DejaVuSans-2e" x="63.623047"/>
       <use xlink:href="#DejaVuSans-30" x="95.410156"/>
       <use xlink:href="#DejaVuSans-36" x="159.033203"/>
      </g>
     </g>
    </g>
    <g id="ytick_5">
     <g id="line2d_11">
      <g>
       <use xlink:href="#m9429568405" x="54.02" y="265.684248" style="stroke: #000000; stroke-width: 0.8"/>
      </g>
     </g>
     <g id="text_12">
      <!-- 0.08 -->
      <g transform="translate(24.754375 269.483467) scale(0.1 -0.1)">
       <defs>
        <path id="DejaVuSans-38" d="M 2034 2216 
Q 1584 2216 1326 1975 
Q 1069 1734 1069 1313 
Q 1069 891 1326 650 
Q 1584 409 2034 409 
Q 2484 409 2743 651 
Q 3003 894 3003 1313 
Q 3003 1734 2745 1975 
Q 2488 2216 2034 2216 
z
M 1403 2484 
Q 997 2584 770 2862 
Q 544 3141 544 3541 
Q 544 4100 942 4425 
Q 1341 4750 2034 4750 
Q 2731 4750 3128 4425 
Q 3525 4100 3525 3541 
Q 3525 3141 3298 2862 
Q 3072 2584 2669 2484 
Q 3125 2378 3379 2068 
Q 3634 1759 3634 1313 
Q 3634 634 3220 271 
Q 2806 -91 2034 -91 
Q 1263 -91 848 271 
Q 434 634 434 1313 
Q 434 1759 690 2068 
Q 947 2378 1403 2484 
z
M 1172 3481 
Q 1172 3119 1398 2916 
Q 1625 2713 2034 2713 
Q 2441 2713 2670 2916 
Q 2900 3119 2900 3481 
Q 2900 3844 2670 4047 
Q 2441 4250 2034 4250 
Q 1625 4250 1398 4047 
Q 1172 3844 1172 3481 
z
" transform="scale(0.015625)"/>
       </defs>
       <use xlink:href="#DejaVuSans-30"/>
       <use xlink:href="#DejaVuSans-2e" x="63.623047"/>
       <use xlink:href="#DejaVuSans-30" x="95.410156"/>
       <use xlink:href="#DejaVuSans-38" x="159.033203"/>
      </g>
     </g>
    </g>
    <g id="ytick_6">
     <g id="line2d_12">
      <g>
       <use xlink:href="#m9429568405" x="54.02" y="203.674212" style="stroke: #000000; stroke-width: 0.8"/>
      </g>
     </g>
     <g id="text_13">
      <!-- 0.10 -->
      <g transform="translate(24.754375 207.47343) scale(0.1 -0.1)">
       <use xlink:href="#DejaVuSans-30"/>
       <use xlink:href="#DejaVuSans-2e" x="63.623047"/>
       <use xlink:href="#DejaVuSans-31" x="95.410156"/>
       <use xlink:href="#DejaVuSans-30" x="159.033203"/>
      </g>
     </g>
    </g>
    <g id="ytick_7">
     <g id="line2d_13">
      <g>
       <use xlink:href="#m9429568405" x="54.02" y="141.664175" style="stroke: #000000; stroke-width: 0.8"/>
      </g>
     </g>
     <g id="text_14">
      <!-- 0.12 -->
      <g transform="translate(24.754375 145.463394) scale(0.1 -0.1)">
       <use xlink:href="#DejaVuSans-30"/>
       <use xlink:href="#DejaVuSans-2e" x="63.623047"/>
       <use xlink:href="#DejaVuSans-31" x="95.410156"/>
       <use xlink:href="#DejaVuSans-32" x="159.033203"/>
      </g>
     </g>
    </g>
    <g id="ytick_8">
     <g id="line2d_14">
      <g>
       <use xlink:href="#m9429568405" x="54.02" y="79.654138" style="stroke: #000000; stroke-width: 0.8"/>
      </g>
     </g>
     <g id="text_15">
      <!-- 0.14 -->
      <g transform="translate(24.754375 83.453357) scale(0.1 -0.1)">
       <use xlink:href="#DejaVuSans-30"/>
       <use xlink:href="#DejaVuSans-2e" x="63.623047"/>
       <use xlink:href="#DejaVuSans-31" x="95.410156"/>
       <use xlink:href="#DejaVuSans-34" x="159.033203"/>
      </g>
     </g>
    </g>
    <g id="text_16">
     <!-- Seconds -->
     <g transform="translate(18.674687 301.467031) rotate(-90) scale(0.1 -0.1)">
      <defs>
       <path id="DejaVuSans-53" d="M 3425 4513 
L 3425 3897 
Q 3066 4069 2747 4153 
Q 2428 4238 2131 4238 
Q 1616 4238 1336 4038 
Q 1056 3838 1056 3469 
Q 1056 3159 1242 3001 
Q 1428 2844 1947 2747 
L 2328 2669 
Q 3034 2534 3370 2195 
Q 3706 1856 3706 1288 
Q 3706 609 3251 259 
Q 2797 -91 1919 -91 
Q 1588 -91 1214 -16 
Q 841 59 441 206 
L 441 856 
Q 825 641 1194 531 
Q 1563 422 1919 422 
Q 2459 422 2753 634 
Q 3047 847 3047 1241 
Q 3047 1584 2836 1778 
Q 2625 1972 2144 2069 
L 1759 2144 
Q 1053 2284 737 2584 
Q 422 2884 422 3419 
Q 422 4038 858 4394 
Q 1294 4750 2059 4750 
Q 2388 4750 2728 4690 
Q 3069 4631 3425 4513 
z
" transform="scale(0.015625)"/>
       <path id="DejaVuSans-63" d="M 3122 3366 
L 3122 2828 
Q 2878 2963 2633 3030 
Q 2388 3097 2138 3097 
Q 1578 3097 1268 2742 
Q 959 2388 959 1747 
Q 959 1106 1268 751 
Q 1578 397 2138 397 
Q 2388 397 2633 464 
Q 2878 531 3122 666 
L 3122 134 
Q 2881 22 2623 -34 
Q 2366 -91 2075 -91 
Q 1284 -91 818 406 
Q 353 903 353 1747 
Q 353 2603 823 3093 
Q 1294 3584 2113 3584 
Q 2378 3584 2631 3529 
Q 2884 3475 3122 3366 
z
" transform="scale(0.015625)"/>
       <path id="DejaVuSans-6f" d="M 1959 3097 
Q 1497 3097 1228 2736 
Q 959 2375 959 1747 
Q 959 1119 1226 758 
Q 1494 397 1959 397 
Q 2419 397 2687 759 
Q 2956 1122 2956 1747 
Q 2956 2369 2687 2733 
Q 2419 3097 1959 3097 
z
M 1959 3584 
Q 2709 3584 3137 3096 
Q 3566 2609 3566 1747 
Q 3566 888 3137 398 
Q 2709 -91 1959 -91 
Q 1206 -91 779 398 
Q 353 888 353 1747 
Q 353 2609 779 3096 
Q 1206 3584 1959 3584 
z
" transform="scale(0.015625)"/>
       <path id="DejaVuSans-64" d="M 2906 2969 
L 2906 4863 
L 3481 4863 
L 3481 0 
L 2906 0 
L 2906 525 
Q 2725 213 2448 61 
Q 2172 -91 1784 -91 
Q 1150 -91 751 415 
Q 353 922 353 1747 
Q 353 2572 751 3078 
Q 1150 3584 1784 3584 
Q 2172 3584 2448 3432 
Q 2725 3281 2906 2969 
z
M 947 1747 
Q 947 1113 1208 752 
Q 1469 391 1925 391 
Q 2381 391 2643 752 
Q 2906 1113 2906 1747 
Q 2906 2381 2643 2742 
Q 2381 3103 1925 3103 
Q 1469 3103 1208 2742 
Q 947 2381 947 1747 
z
" transform="scale(0.015625)"/>
       <path id="DejaVuSans-73" d="M 2834 3397 
L 2834 2853 
Q 2591 2978 2328 3040 
Q 2066 3103 1784 3103 
Q 1356 3103 1142 2972 
Q 928 2841 928 2578 
Q 928 2378 1081 2264 
Q 1234 2150 1697 2047 
L 1894 2003 
Q 2506 1872 2764 1633 
Q 3022 1394 3022 966 
Q 3022 478 2636 193 
Q 2250 -91 1575 -91 
Q 1294 -91 989 -36 
Q 684 19 347 128 
L 347 722 
Q 666 556 975 473 
Q 1284 391 1588 391 
Q 1994 391 2212 530 
Q 2431 669 2431 922 
Q 2431 1156 2273 1281 
Q 2116 1406 1581 1522 
L 1381 1569 
Q 847 1681 609 1914 
Q 372 2147 372 2553 
Q 372 3047 722 3315 
Q 1072 3584 1716 3584 
Q 2034 3584 2315 3537 
Q 2597 3491 2834 3397 
z
" transform="scale(0.015625)"/>
      </defs>
      <use xlink:href="#DejaVuSans-53"/>
      <use xlink:href="#DejaVuSans-65" x="63.476562"/>
      <use xlink:href="#DejaVuSans-63" x="125"/>
      <use xlink:href="#DejaVuSans-6f" x="179.980469"/>
      <use xlink:href="#DejaVuSans-6e" x="241.162109"/>
      <use xlink:href="#DejaVuSans-64" x="304.541016"/>
      <use xlink:href="#DejaVuSans-73" x="368.017578"/>
     </g>
    </g>
   </g>
   <g id="line2d_15">
    <path d="M 103.437273 510.72094 
L 107.438671 510.888987 
L 111.44007 510.781399 
L 115.441469 510.987273 
L 123.444266 510.807754 
L 127.445664 509.901477 
L 131.447063 510.10766 
L 135.448462 510.520027 
L 139.44986 509.757924 
L 143.451259 510.098359 
L 147.452657 510.014025 
L 151.454056 509.768776 
L 155.455455 509.936203 
L 159.456853 509.511124 
L 163.458252 509.5505 
L 167.45965 509.780247 
L 171.461049 509.686922 
L 175.462448 509.163868 
L 179.463846 509.407257 
L 183.465245 510.0441 
L 187.466643 508.784366 
L 191.468042 508.302238 
L 195.469441 505.691306 
L 199.470839 507.100794 
L 203.472238 506.02833 
L 207.473636 505.921983 
L 215.476434 506.250946 
L 219.477832 505.571006 
L 227.480629 506.575569 
L 231.482028 505.946477 
L 235.483427 507.663845 
L 239.484825 506.102742 
L 243.486224 506.037322 
L 247.487622 505.482642 
L 251.489021 506.157931 
L 255.49042 507.105754 
L 259.491818 508.578183 
L 263.493217 506.5241 
L 267.494615 505.788351 
L 271.496014 506.194827 
L 275.497413 506.325668 
L 279.498811 506.755088 
L 283.50021 507.498898 
L 287.501608 506.264588 
L 291.503007 506.134677 
L 295.504406 508.242398 
L 299.505804 506.569058 
L 303.507203 506.224902 
L 307.508601 506.618046 
L 311.51 507.151952 
L 315.511399 507.292715 
L 319.512797 506.300244 
L 323.514196 505.984923 
L 327.515594 505.883847 
L 331.516993 507.852355 
L 335.518392 506.434806 
L 339.51979 506.760049 
L 343.521189 507.439679 
L 347.522587 508.25201 
L 351.523986 506.979874 
L 355.525385 506.069877 
L 359.526783 507.101104 
L 363.528182 507.823831 
L 367.52958 507.399992 
L 371.530979 506.234203 
L 375.532378 506.654321 
L 379.533776 508.695382 
L 383.535175 507.308217 
L 387.536573 506.257767 
L 391.537972 506.328149 
L 395.539371 506.797875 
L 399.540769 506.369695 
L 403.542168 506.680676 
L 407.543566 507.32434 
L 411.544965 507.157533 
L 415.546364 505.924153 
L 419.547762 506.898641 
L 423.549161 507.475644 
L 427.550559 507.363716 
L 431.551958 506.515419 
L 435.553357 506.247226 
L 439.554755 506.649671 
L 443.556154 506.394499 
L 447.557552 507.284033 
L 451.558951 508.00614 
L 455.56035 506.324428 
L 459.561748 507.837163 
L 463.563147 505.974691 
L 467.564545 506.323808 
L 471.565944 508.023813 
L 475.567343 506.997237 
L 483.57014 506.326288 
L 487.571538 507.38573 
L 491.572937 506.720052 
L 495.574336 507.191948 
L 499.575734 506.737415 
L 503.577133 507.654233 
L 507.578531 506.970573 
L 511.57993 507.315658 
L 515.581329 507.955912 
L 519.582727 507.205591 
L 523.584126 507.862897 
L 527.585524 506.925925 
L 531.586923 506.303345 
L 543.591119 508.053578 
L 547.592517 508.274644 
L 551.593916 506.685636 
L 555.595315 507.146061 
L 563.598112 507.555947 
L 567.59951 508.238678 
L 571.600909 506.600373 
L 575.602308 507.691439 
L 579.603706 507.087772 
L 583.605105 508.266892 
L 587.606503 507.426966 
L 591.607902 507.021111 
L 595.609301 506.729354 
L 599.610699 507.240006 
L 603.612098 507.482155 
L 607.613497 506.846863 
L 611.614895 506.504877 
L 615.616294 508.123649 
L 619.617692 506.543633 
L 623.619091 506.859265 
L 627.62049 506.921275 
L 631.621888 506.285672 
L 635.623287 507.083741 
L 639.624685 506.737725 
L 643.626084 508.271233 
L 647.627483 508.157445 
L 651.628881 507.429137 
L 655.63028 506.827329 
L 659.631678 507.422316 
L 663.633077 506.478523 
L 667.634476 507.381699 
L 671.635874 507.931108 
L 675.637273 507.618888 
L 679.638671 506.117625 
L 683.64007 506.898021 
L 687.641469 507.292405 
L 695.644266 507.552847 
L 699.645664 507.102034 
L 703.647063 507.358135 
L 707.648462 506.978014 
L 711.64986 506.4593 
L 715.651259 507.542925 
L 719.652657 507.160323 
L 723.654056 506.889339 
L 727.655455 507.831272 
L 731.656853 505.645418 
L 735.658252 506.720982 
L 739.65965 508.118378 
L 747.662448 506.721912 
L 751.663846 507.473784 
L 755.665245 506.385198 
L 763.668042 508.259451 
L 767.669441 506.596032 
L 771.670839 507.515951 
L 775.672238 506.778652 
L 779.673636 507.147301 
L 783.675035 507.251168 
L 791.677832 507.000647 
L 795.679231 507.700431 
L 799.680629 508.021023 
L 803.682028 506.52069 
L 807.683427 507.096143 
L 811.684825 507.342633 
L 815.686224 507.300156 
L 819.687622 506.751987 
L 823.689021 506.495266 
L 831.691818 507.283103 
L 835.693217 506.15328 
L 839.694615 507.517811 
L 843.696014 506.817408 
L 847.697413 507.679657 
L 851.698811 506.184285 
L 859.701608 507.358755 
L 863.703007 507.295505 
L 867.704406 507.629429 
L 871.705804 507.050876 
L 875.707203 507.585092 
L 883.71 507.547266 
L 887.711399 507.274112 
L 891.712797 507.810188 
L 895.714196 507.106065 
L 899.715594 507.134589 
L 903.716993 506.64533 
L 907.718392 507.688339 
L 911.71979 507.853596 
L 915.721189 506.853994 
L 919.722587 507.413324 
L 923.723986 507.739187 
L 927.725385 506.874767 
L 931.726783 507.232875 
L 935.728182 507.721204 
L 939.72958 507.255819 
L 943.730979 508.106596 
L 947.732378 506.842522 
L 951.733776 507.898243 
L 955.735175 507.088082 
L 963.737972 507.564319 
L 967.739371 507.066068 
L 975.742168 507.382629 
L 979.743566 506.671684 
L 983.744965 507.370847 
L 987.746364 506.541773 
L 991.747762 506.978014 
L 999.750559 507.564629 
L 1003.751958 507.588193 
L 1007.753357 507.777013 
L 1011.754755 507.437508 
L 1015.756154 506.872907 
L 1019.757552 507.953742 
L 1023.758951 507.211482 
L 1027.76035 507.765851 
L 1031.761748 508.045827 
L 1035.763147 508.166126 
L 1039.764545 507.562458 
L 1043.765944 506.764079 
L 1047.767343 507.648342 
L 1051.768741 507.002818 
L 1055.77014 507.462312 
L 1059.771538 507.600595 
L 1063.772937 507.594704 
L 1067.774336 507.32651 
L 1075.777133 507.780734 
L 1079.778531 507.259229 
L 1083.77993 507.657644 
L 1087.781329 507.14048 
L 1091.782727 507.354725 
L 1091.782727 507.354725 
" clip-path="url(#p344b229615)" style="fill: none; stroke: #1f77b4; stroke-width: 5; stroke-linecap: square"/>
   </g>
   <g id="line2d_16">
    <path d="M 103.437273 510.581107 
L 107.438671 510.757836 
L 111.44007 510.583277 
L 115.441469 510.792251 
L 119.442867 510.529019 
L 123.444266 510.604981 
L 127.445664 509.882874 
L 131.447063 509.808772 
L 135.448462 510.279738 
L 139.44986 509.346177 
L 143.451259 509.785518 
L 147.452657 509.756373 
L 151.454056 509.526626 
L 155.455455 509.730949 
L 159.456853 509.220607 
L 163.458252 509.578715 
L 167.45965 509.330985 
L 171.461049 509.424 
L 175.462448 508.751501 
L 179.463846 508.739099 
L 183.465245 509.925041 
L 187.466643 508.567331 
L 191.468042 507.873749 
L 195.469441 505.023147 
L 199.470839 506.778341 
L 203.472238 505.301262 
L 207.473636 504.91587 
L 215.476434 505.669912 
L 219.477832 504.818824 
L 223.479231 505.237702 
L 227.480629 505.938105 
L 231.482028 505.230261 
L 235.483427 507.158153 
L 239.484825 505.406059 
L 243.486224 505.299712 
L 247.487622 504.653258 
L 251.489021 505.493494 
L 255.49042 506.58363 
L 259.491818 508.25232 
L 263.493217 505.714559 
L 267.494615 505.117403 
L 275.497413 505.693476 
L 279.498811 506.194207 
L 283.50021 507.294885 
L 287.501608 505.497524 
L 291.503007 505.420012 
L 295.504406 507.704461 
L 299.505804 505.740914 
L 303.507203 505.675183 
L 307.508601 505.976862 
L 311.51 506.612155 
L 315.511399 506.774931 
L 319.512797 505.725721 
L 327.515594 505.212898 
L 331.516993 507.368987 
L 335.518392 505.941826 
L 339.51979 506.051894 
L 343.521189 506.901431 
L 347.522587 507.885841 
L 351.523986 506.39822 
L 355.525385 505.310254 
L 363.528182 507.362786 
L 367.52958 506.907322 
L 371.530979 505.529769 
L 375.532378 506.094061 
L 379.533776 508.274334 
L 383.535175 506.816168 
L 387.536573 505.807574 
L 391.537972 505.485432 
L 395.539371 506.254977 
L 399.540769 505.399858 
L 407.543566 506.752297 
L 411.544965 506.556966 
L 415.546364 505.312114 
L 419.547762 506.256527 
L 423.549161 506.918174 
L 427.550559 506.684706 
L 431.551958 505.796723 
L 435.553357 506.265208 
L 439.554755 506.09065 
L 443.556154 505.788351 
L 451.558951 507.676867 
L 455.56035 505.558914 
L 459.561748 507.309767 
L 463.563147 505.146547 
L 467.564545 505.620614 
L 471.565944 507.602455 
L 475.567343 506.33776 
L 479.568741 506.290633 
L 483.57014 505.6572 
L 487.571538 506.880038 
L 491.572937 506.094991 
L 495.574336 506.652151 
L 499.575734 506.112044 
L 503.577133 507.071339 
L 507.578531 506.485344 
L 511.57993 506.691837 
L 515.581329 507.522152 
L 519.582727 506.614325 
L 523.584126 507.342013 
L 527.585524 506.259317 
L 531.586923 506.494646 
L 535.588322 506.233583 
L 543.591119 507.480295 
L 547.592517 507.858866 
L 551.593916 505.926634 
L 555.595315 506.605954 
L 563.598112 507.134899 
L 567.59951 507.835923 
L 571.600909 506.002596 
L 575.602308 507.248068 
L 579.603706 506.513869 
L 583.605105 507.717483 
L 587.606503 506.919414 
L 591.607902 506.637889 
L 595.609301 506.001976 
L 599.610699 506.691527 
L 603.612098 506.937707 
L 607.613497 506.300554 
L 611.614895 505.927874 
L 615.616294 505.927874 
L 619.617692 504.768906 
L 623.619091 506.230793 
L 627.62049 506.408452 
L 631.621888 505.72076 
L 635.623287 506.58177 
L 639.624685 506.006627 
L 643.626084 507.833132 
L 647.627483 507.715313 
L 651.628881 506.89399 
L 655.63028 505.754246 
L 659.631678 506.933367 
L 663.633077 506.321017 
L 667.634476 506.841592 
L 671.635874 507.501689 
L 675.637273 507.105444 
L 679.638671 505.540931 
L 683.64007 506.258077 
L 687.641469 506.390779 
L 691.642867 506.949799 
L 695.644266 506.534332 
L 703.647063 506.816478 
L 707.648462 506.284432 
L 711.64986 505.864624 
L 715.651259 506.934917 
L 723.654056 506.21219 
L 727.655455 507.308217 
L 731.656853 506.780202 
L 735.658252 506.139018 
L 739.65965 507.63501 
L 747.662448 506.046933 
L 751.663846 506.896781 
L 755.665245 505.917332 
L 759.666643 506.76749 
L 763.668042 507.807708 
L 767.669441 505.972211 
L 771.670839 506.964992 
L 775.672238 506.132817 
L 779.673636 506.676335 
L 783.675035 506.840662 
L 787.676434 506.58146 
L 791.677832 506.441627 
L 799.680629 507.644622 
L 803.682028 505.876716 
L 807.683427 506.497746 
L 811.684825 506.781752 
L 815.686224 506.816788 
L 819.687622 506.08662 
L 823.689021 505.713939 
L 827.69042 506.269549 
L 831.691818 506.678195 
L 835.693217 505.748975 
L 839.694615 507.039404 
L 843.696014 506.325978 
L 847.697413 506.933987 
L 851.698811 505.485122 
L 859.701608 506.660832 
L 863.703007 506.787333 
L 867.704406 507.054906 
L 871.705804 506.684706 
L 875.707203 507.087462 
L 887.711399 506.693388 
L 891.712797 507.445569 
L 895.714196 506.747026 
L 899.715594 506.548284 
L 903.716993 505.917022 
L 907.718392 507.253028 
L 911.71979 507.408674 
L 915.721189 506.321638 
L 919.722587 506.867636 
L 923.723986 507.170865 
L 927.725385 506.269549 
L 931.726783 506.676955 
L 935.728182 507.227294 
L 939.72958 506.698969 
L 943.730979 507.708182 
L 947.732378 506.316057 
L 951.733776 507.514711 
L 955.735175 506.544874 
L 959.736573 507.085911 
L 963.737972 507.046845 
L 967.739371 506.549834 
L 975.742168 506.934607 
L 979.743566 505.969421 
L 983.744965 506.883759 
L 987.746364 505.998875 
L 991.747762 506.374036 
L 999.750559 506.879418 
L 1003.751958 506.916004 
L 1007.753357 507.272872 
L 1011.754755 506.887479 
L 1015.756154 506.341791 
L 1019.757552 507.457971 
L 1023.758951 506.592001 
L 1027.76035 507.350384 
L 1031.761748 507.713763 
L 1035.763147 507.837783 
L 1043.765944 506.129716 
L 1047.767343 507.116606 
L 1051.768741 506.359464 
L 1055.77014 506.911663 
L 1059.771538 507.022661 
L 1063.772937 507.274732 
L 1067.774336 506.975533 
L 1071.775734 507.031342 
L 1075.777133 507.351934 
L 1079.778531 506.76687 
L 1083.77993 507.320619 
L 1087.781329 506.648741 
L 1091.782727 507.115056 
L 1091.782727 507.115056 
" clip-path="url(#p344b229615)" style="fill: none; stroke: #ff7f0e; stroke-width: 1.5; stroke-linecap: square"/>
   </g>
   <g id="line2d_17">
    <path d="M 103.437273 508.411996 
L 107.438671 508.786537 
L 111.44007 507.94351 
L 115.441469 509.049459 
L 119.442867 508.226276 
L 123.444266 508.211393 
L 127.445664 506.003526 
L 131.447063 506.031121 
L 135.448462 507.592843 
L 139.44986 503.635363 
L 143.451259 505.255375 
L 147.452657 505.051362 
L 151.454056 503.907897 
L 155.455455 504.785339 
L 159.456853 502.99914 
L 163.458252 504.785339 
L 167.45965 504.203065 
L 171.461049 503.027044 
L 175.462448 500.997146 
L 179.463846 502.667386 
L 183.465245 506.15297 
L 187.466643 501.532602 
L 191.468042 499.372173 
L 195.469441 493.210855 
L 199.470839 497.288946 
L 203.472238 493.909399 
L 207.473636 494.10349 
L 211.475035 494.117442 
L 215.476434 494.988373 
L 219.477832 492.749811 
L 223.479231 493.955286 
L 227.480629 496.029832 
L 231.482028 493.991562 
L 235.483427 497.845486 
L 239.484825 494.546552 
L 243.486224 493.829716 
L 247.487622 492.670438 
L 251.489021 495.209129 
L 255.49042 496.69706 
L 259.491818 500.996836 
L 263.493217 494.552443 
L 267.494615 493.652057 
L 271.496014 495.199517 
L 275.497413 495.061545 
L 283.50021 498.630533 
L 287.501608 494.989303 
L 291.503007 494.935045 
L 295.504406 500.199077 
L 299.505804 494.613523 
L 303.507203 494.949307 
L 307.508601 494.891327 
L 311.51 496.483745 
L 315.511399 497.508771 
L 319.512797 495.672034 
L 323.514196 494.913961 
L 327.515594 494.011095 
L 331.516993 499.220248 
L 335.518392 494.84823 
L 339.51979 495.493755 
L 343.521189 497.542567 
L 347.522587 501.122406 
L 351.523986 495.550494 
L 355.525385 494.712429 
L 359.526783 496.837823 
L 363.528182 498.826174 
L 367.52958 497.776034 
L 371.530979 494.877995 
L 375.532378 495.46058 
L 379.533776 501.585001 
L 383.535175 497.492338 
L 387.536573 494.456017 
L 391.537972 495.220291 
L 395.539371 495.70831 
L 399.540769 494.818156 
L 407.543566 496.94696 
L 415.546364 494.443305 
L 419.547762 496.524982 
L 423.549161 497.761772 
L 427.550559 497.797118 
L 431.551958 492.330933 
L 435.553357 494.731342 
L 439.554755 494.751185 
L 443.556154 494.066904 
L 447.557552 497.282745 
L 451.558951 499.966849 
L 455.56035 493.756234 
L 459.561748 499.009414 
L 463.563147 493.718408 
L 467.564545 493.462616 
L 471.565944 499.646567 
L 475.567343 494.935045 
L 479.568741 495.978984 
L 483.57014 494.763277 
L 487.571538 497.093614 
L 491.572937 494.052022 
L 495.574336 496.871928 
L 499.575734 495.497166 
L 503.577133 497.212053 
L 507.578531 496.350114 
L 511.57993 496.562188 
L 515.581329 499.877555 
L 519.582727 497.56334 
L 523.584126 499.507045 
L 527.585524 496.147961 
L 531.586923 495.781792 
L 535.588322 496.153232 
L 539.58972 497.540706 
L 543.591119 499.361631 
L 547.592517 500.608963 
L 551.593916 495.911703 
L 555.595315 496.785424 
L 563.598112 497.93137 
L 567.59951 500.462929 
L 571.600909 494.823116 
L 575.602308 498.563562 
L 579.603706 495.940537 
L 583.605105 500.195666 
L 587.606503 497.300107 
L 591.607902 496.6397 
L 595.609301 494.136975 
L 603.612098 498.467136 
L 607.613497 495.861785 
L 611.614895 493.728639 
L 615.616294 499.965609 
L 619.617692 495.574368 
L 623.619091 495.593591 
L 627.62049 495.754507 
L 631.621888 495.469571 
L 635.623287 495.512358 
L 639.624685 493.697634 
L 643.626084 500.574857 
L 647.627483 500.58912 
L 651.628881 497.377 
L 655.63028 494.561434 
L 659.631678 496.777053 
L 663.633077 495.502746 
L 667.634476 496.517541 
L 671.635874 498.812532 
L 675.637273 498.396755 
L 679.638671 494.84358 
L 683.64007 495.494065 
L 687.641469 495.320747 
L 691.642867 497.280574 
L 695.644266 497.74596 
L 699.645664 496.710082 
L 703.647063 497.528304 
L 707.648462 496.196639 
L 711.64986 492.411546 
L 715.651259 498.338155 
L 719.652657 496.445919 
L 723.654056 495.969682 
L 727.655455 498.821524 
L 731.656853 497.224455 
L 735.658252 495.820858 
L 739.65965 500.293332 
L 747.662448 493.803671 
L 751.663846 498.126701 
L 755.665245 494.567325 
L 759.666643 495.657151 
L 763.668042 500.52835 
L 767.669441 495.27641 
L 771.670839 496.591953 
L 775.672238 495.098751 
L 779.673636 496.430417 
L 783.675035 497.578222 
L 787.676434 496.586992 
L 791.677832 496.155402 
L 795.679231 498.717967 
L 799.680629 500.09676 
L 803.682028 493.636864 
L 807.683427 496.805887 
L 811.684825 497.235927 
L 815.686224 496.176175 
L 819.687622 494.802963 
L 823.689021 495.600412 
L 827.69042 495.749856 
L 831.691818 497.137951 
L 835.693217 495.804425 
L 839.694615 497.881451 
L 843.696014 495.272999 
L 847.697413 498.299399 
L 851.698811 495.436396 
L 855.70021 495.601962 
L 859.701608 496.555057 
L 863.703007 497.816031 
L 867.704406 498.254442 
L 871.705804 496.324689 
L 875.707203 498.106858 
L 879.708601 498.380322 
L 883.71 498.484499 
L 887.711399 497.433739 
L 891.712797 499.449375 
L 895.714196 498.523255 
L 899.715594 495.849383 
L 903.716993 495.783342 
L 907.718392 499.35295 
L 911.71979 499.612462 
L 915.721189 494.807304 
L 919.722587 496.288104 
L 923.723986 499.152967 
L 927.725385 496.382669 
L 931.726783 496.521881 
L 935.728182 498.85904 
L 939.72958 497.302898 
L 943.730979 501.501287 
L 947.732378 496.222993 
L 951.733776 500.28031 
L 955.735175 496.932698 
L 959.736573 498.560151 
L 963.737972 498.160807 
L 967.739371 496.931768 
L 971.740769 497.139501 
L 975.742168 496.970834 
L 979.743566 495.006666 
L 983.744965 497.413586 
L 987.746364 494.853811 
L 991.747762 494.306573 
L 995.749161 498.044538 
L 999.750559 497.910596 
L 1003.751958 498.73564 
L 1007.753357 499.316674 
L 1011.754755 497.693871 
L 1015.756154 496.395071 
L 1019.757552 500.892349 
L 1023.758951 496.746048 
L 1027.76035 499.54239 
L 1035.763147 500.799954 
L 1039.764545 497.708133 
L 1043.765944 495.442597 
L 1047.767343 498.375361 
L 1051.768741 495.349272 
L 1055.77014 498.682001 
L 1059.771538 497.920518 
L 1063.772937 499.194204 
L 1067.774336 498.749282 
L 1071.775734 497.679609 
L 1075.777133 500.393478 
L 1079.778531 498.529766 
L 1083.77993 500.253025 
L 1087.781329 498.48791 
L 1091.782727 499.66145 
L 1091.782727 499.66145 
" clip-path="url(#p344b229615)" style="fill: none; stroke: #2ca02c; stroke-width: 1.5; stroke-linecap: square"/>
   </g>
   <g id="line2d_18">
    <path d="M 103.437273 460.081683 
L 107.438671 466.225948 
L 111.44007 456.248223 
L 115.441469 470.120798 
L 119.442867 454.712544 
L 123.444266 459.903714 
L 127.445664 446.813706 
L 131.447063 444.652346 
L 135.448462 460.594196 
L 139.44986 420.385958 
L 143.451259 431.128267 
L 147.452657 432.806569 
L 151.454056 426.838102 
L 155.455455 424.935945 
L 159.456853 404.584561 
L 163.458252 427.576952 
L 167.45965 428.755453 
L 171.461049 417.423119 
L 175.462448 396.828035 
L 179.463846 416.647683 
L 183.465245 439.192052 
L 187.466643 400.508951 
L 191.468042 385.199293 
L 195.469441 316.595729 
L 199.470839 362.980787 
L 203.472238 328.131456 
L 207.473636 319.598565 
L 211.475035 334.250917 
L 215.476434 341.214644 
L 219.477832 319.739018 
L 223.479231 336.135712 
L 227.480629 350.686057 
L 231.482028 334.817068 
L 235.483427 365.064324 
L 239.484825 338.685874 
L 243.486224 327.374003 
L 247.487622 327.569335 
L 251.489021 340.506179 
L 255.49042 354.235821 
L 259.491818 392.989614 
L 263.493217 340.239536 
L 267.494615 329.437387 
L 271.496014 341.453072 
L 275.497413 339.859104 
L 279.498811 343.895338 
L 283.50021 374.213905 
L 287.501608 344.619615 
L 291.503007 341.972406 
L 295.504406 386.893097 
L 299.505804 345.063297 
L 303.507203 340.198609 
L 307.508601 347.158616 
L 311.51 352.152904 
L 315.511399 364.061622 
L 319.512797 350.648231 
L 327.515594 332.000572 
L 331.516993 375.961038 
L 335.518392 346.700982 
L 339.51979 347.261862 
L 343.521189 365.869834 
L 347.522587 391.910639 
L 351.523986 348.088456 
L 355.525385 342.203394 
L 359.526783 354.300312 
L 363.528182 380.36375 
L 371.530979 343.209507 
L 375.532378 347.638573 
L 379.533776 402.996794 
L 383.535175 358.484439 
L 387.536573 346.129869 
L 391.537972 342.068212 
L 395.539371 349.949687 
L 399.540769 337.419009 
L 403.542168 352.61891 
L 407.543566 357.338493 
L 411.544965 350.380967 
L 415.546364 346.044605 
L 419.547762 353.677421 
L 423.549161 366.640309 
L 427.550559 361.934677 
L 431.551958 327.684984 
L 435.553357 338.424502 
L 439.554755 344.875716 
L 443.556154 345.621697 
L 447.557552 361.532542 
L 451.558951 384.817931 
L 455.56035 345.008728 
L 459.561748 393.02837 
L 463.563147 339.147849 
L 467.564545 343.033088 
L 471.565944 374.331724 
L 475.567343 338.248083 
L 479.568741 349.712809 
L 483.57014 335.663505 
L 487.571538 367.842064 
L 491.572937 341.016522 
L 495.574336 356.375788 
L 499.575734 353.924221 
L 503.577133 357.364538 
L 507.578531 354.337828 
L 511.57993 349.78226 
L 515.581329 383.302406 
L 519.582727 356.173945 
L 523.584126 374.573873 
L 527.585524 348.958147 
L 531.586923 343.613502 
L 535.588322 349.922713 
L 539.58972 361.872047 
L 543.591119 382.568207 
L 547.592517 393.161072 
L 551.593916 351.645972 
L 555.595315 362.100244 
L 559.596713 357.658775 
L 563.598112 358.070522 
L 567.59951 388.259178 
L 571.600909 350.074018 
L 575.602308 370.594999 
L 579.603706 351.069589 
L 583.605105 383.166604 
L 587.606503 363.887373 
L 591.607902 356.646771 
L 595.609301 338.795012 
L 599.610699 352.027644 
L 603.612098 372.57932 
L 607.613497 353.061041 
L 611.614895 339.344421 
L 615.616294 387.054943 
L 619.617692 349.948757 
L 623.619091 349.750945 
L 627.62049 350.595522 
L 631.621888 346.882361 
L 635.623287 347.474557 
L 639.624685 339.258227 
L 643.626084 385.629953 
L 647.627483 390.836625 
L 651.628881 359.138955 
L 655.63028 339.040882 
L 659.631678 351.669226 
L 663.633077 351.744878 
L 667.634476 354.867393 
L 671.635874 367.613557 
L 675.637273 375.313343 
L 679.638671 343.812554 
L 683.64007 344.443816 
L 687.641469 345.904463 
L 691.642867 363.425709 
L 695.644266 361.586801 
L 699.645664 357.641102 
L 703.647063 362.391691 
L 707.648462 356.078139 
L 711.64986 334.276961 
L 715.651259 364.043019 
L 719.652657 350.423444 
L 723.654056 351.933389 
L 727.655455 374.126161 
L 731.656853 360.444266 
L 735.658252 351.713873 
L 739.65965 384.752511 
L 743.661049 359.058032 
L 747.662448 345.956241 
L 751.663846 362.029553 
L 755.665245 352.040976 
L 759.666643 347.165437 
L 763.668042 394.068278 
L 767.669441 349.757456 
L 771.670839 354.136605 
L 775.672238 347.751122 
L 779.673636 355.386417 
L 783.675035 365.149898 
L 787.676434 352.602787 
L 791.677832 353.599908 
L 795.679231 370.402148 
L 799.680629 391.845529 
L 803.682028 347.092265 
L 807.683427 358.624892 
L 811.684825 366.613025 
L 815.686224 350.638929 
L 819.687622 350.70714 
L 823.689021 349.619484 
L 827.69042 351.673877 
L 831.691818 357.220674 
L 835.693217 356.116896 
L 839.694615 371.816287 
L 843.696014 351.523192 
L 847.697413 371.657851 
L 851.698811 348.042879 
L 855.70021 351.080751 
L 859.701608 363.319051 
L 863.703007 371.089529 
L 867.704406 361.740586 
L 871.705804 352.959035 
L 875.707203 364.466547 
L 879.708601 371.287961 
L 883.71 368.163896 
L 887.711399 358.731549 
L 891.712797 376.34426 
L 895.714196 361.850034 
L 899.715594 348.675071 
L 903.716993 357.063789 
L 907.718392 385.501592 
L 911.71979 387.888358 
L 915.721189 334.216501 
L 919.722587 351.721624 
L 923.723986 371.824658 
L 927.725385 357.374769 
L 931.726783 352.25181 
L 935.728182 374.995231 
L 939.72958 362.736157 
L 943.730979 400.354236 
L 947.732378 356.08093 
L 951.733776 393.187116 
L 955.735175 354.247603 
L 959.736573 371.675834 
L 963.737972 364.802331 
L 967.739371 358.529396 
L 971.740769 361.973744 
L 975.742168 354.016926 
L 979.743566 347.80135 
L 983.744965 359.959038 
L 987.746364 351.451571 
L 991.747762 342.297959 
L 995.749161 368.825543 
L 999.750559 375.362641 
L 1003.751958 378.333542 
L 1007.753357 382.692847 
L 1011.754755 361.352713 
L 1015.756154 359.196624 
L 1019.757552 403.740914 
L 1023.758951 355.993496 
L 1027.76035 383.715083 
L 1031.761748 391.673141 
L 1035.763147 397.915381 
L 1039.764545 367.725795 
L 1043.765944 352.368699 
L 1047.767343 372.027741 
L 1051.768741 349.745985 
L 1055.77014 386.656839 
L 1059.771538 367.004928 
L 1063.772937 382.006396 
L 1067.774336 377.492375 
L 1071.775734 369.715697 
L 1075.777133 388.862536 
L 1079.778531 374.234368 
L 1083.77993 395.996481 
L 1087.781329 377.839942 
L 1091.782727 388.746887 
L 1091.782727 388.746887 
" clip-path="url(#p344b229615)" style="fill: none; stroke: #d62728; stroke-width: 1.5; stroke-linecap: square"/>
   </g>
   <g id="line2d_19">
    <path d="M 103.437273 476.722077 
L 115.441469 475.883701 
L 119.442867 475.480016 
L 123.444266 474.613425 
L 127.445664 474.596683 
L 131.447063 474.099362 
L 135.448462 471.338055 
L 139.44986 471.050019 
L 143.451259 468.988495 
L 147.452657 465.287426 
L 151.454056 462.375745 
L 159.456853 456.835148 
L 163.458252 453.332511 
L 167.45965 452.762018 
L 171.461049 451.056122 
L 175.462448 450.402847 
L 179.463846 450.283477 
L 183.465245 442.492226 
L 187.466643 405.737327 
L 191.468042 405.724925 
L 195.469441 384.31472 
L 199.470839 380.125012 
L 203.472238 376.803444 
L 207.473636 368.947392 
L 211.475035 365.549552 
L 215.476434 364.487321 
L 219.477832 363.971397 
L 223.479231 363.965506 
L 227.480629 361.049794 
L 231.482028 351.193919 
L 235.483427 349.09736 
L 239.484825 346.519912 
L 243.486224 343.159278 
L 247.487622 335.950612 
L 251.489021 331.575183 
L 255.49042 329.183766 
L 259.491818 327.014035 
L 263.493217 325.917698 
L 267.494615 322.909901 
L 271.496014 322.298482 
L 275.497413 321.183231 
L 279.498811 320.901086 
L 283.50021 320.021163 
L 287.501608 319.549267 
L 291.503007 318.472463 
L 295.504406 308.241117 
L 299.505804 306.995645 
L 303.507203 306.59506 
L 307.508601 305.035198 
L 311.51 304.136052 
L 315.511399 303.99808 
L 319.512797 302.818029 
L 323.514196 302.463021 
L 327.515594 301.165151 
L 331.516993 296.890799 
L 335.518392 296.77329 
L 339.51979 292.358486 
L 343.521189 292.089982 
L 347.522587 290.287351 
L 351.523986 290.142867 
L 355.525385 289.669111 
L 359.526783 284.556383 
L 363.528182 284.29253 
L 371.530979 281.612146 
L 375.532378 281.416815 
L 379.533776 280.980574 
L 383.535175 280.89035 
L 387.536573 280.506818 
L 391.537972 280.344661 
L 395.539371 279.948417 
L 399.540769 278.800301 
L 403.542168 278.228259 
L 407.543566 276.178517 
L 411.544965 275.811108 
L 415.546364 274.304574 
L 419.547762 273.957007 
L 423.549161 271.653955 
L 427.550559 270.847824 
L 435.553357 270.061847 
L 439.554755 268.145427 
L 443.556154 267.912269 
L 447.557552 267.818324 
L 451.558951 267.543619 
L 455.56035 266.818102 
L 459.561748 264.589151 
L 463.563147 264.327779 
L 467.564545 263.177493 
L 471.565944 263.09905 
L 475.567343 262.863102 
L 479.568741 260.453082 
L 483.57014 259.191798 
L 487.571538 259.08545 
L 491.572937 257.701696 
L 499.575734 257.529308 
L 507.578531 256.748912 
L 511.57993 256.064631 
L 515.581329 255.743729 
L 519.582727 254.469733 
L 531.586923 254.092402 
L 535.588322 250.98818 
L 539.58972 250.884313 
L 543.591119 249.888432 
L 551.593916 249.128809 
L 559.596713 247.552824 
L 567.59951 246.797231 
L 571.600909 246.600039 
L 579.603706 245.850338 
L 583.605105 245.757323 
L 587.606503 245.458125 
L 591.607902 244.657265 
L 595.609301 244.215444 
L 599.610699 243.241266 
L 603.612098 241.178192 
L 607.613497 240.938833 
L 611.614895 238.670816 
L 615.616294 238.546486 
L 619.617692 236.690836 
L 623.619091 235.938654 
L 631.621888 234.703414 
L 635.623287 234.359568 
L 639.624685 234.318332 
L 643.626084 233.543826 
L 647.627483 233.164635 
L 651.628881 233.007439 
L 655.63028 232.968683 
L 659.631678 232.161933 
L 667.634476 232.001327 
L 671.635874 229.500772 
L 675.637273 229.251802 
L 683.64007 227.891921 
L 691.642867 227.248257 
L 695.644266 227.160823 
L 703.647063 226.248966 
L 707.648462 226.206179 
L 711.64986 224.827075 
L 715.651259 224.30061 
L 719.652657 223.007391 
L 723.654056 222.495188 
L 727.655455 222.372408 
L 731.656853 221.777732 
L 735.658252 220.803244 
L 739.65965 220.615664 
L 743.661049 219.088977 
L 747.662448 218.4326 
L 751.663846 216.965753 
L 755.665245 216.407043 
L 767.669441 216.108464 
L 771.670839 214.922522 
L 775.672238 214.301182 
L 779.673636 210.40013 
L 783.675035 207.587045 
L 787.676434 207.160416 
L 791.677832 206.865248 
L 803.682028 204.646529 
L 811.684825 204.40562 
L 815.686224 204.353842 
L 819.687622 204.029219 
L 823.689021 202.660347 
L 827.69042 200.579911 
L 835.693217 200.068328 
L 839.694615 198.992454 
L 843.696014 198.794022 
L 847.697413 197.203464 
L 851.698811 197.141454 
L 855.70021 196.357027 
L 859.701608 193.485963 
L 863.703007 190.791626 
L 867.704406 190.38236 
L 871.705804 190.373059 
L 875.707203 190.202531 
L 879.708601 189.57933 
L 883.71 189.573129 
L 887.711399 188.469351 
L 891.712797 188.432145 
L 895.714196 187.864753 
L 899.715594 187.511295 
L 907.718392 186.593547 
L 915.721189 186.333105 
L 919.722587 186.081964 
L 923.723986 185.089804 
L 927.725385 183.933316 
L 931.726783 183.418633 
L 935.728182 182.172231 
L 939.72958 181.474618 
L 943.730979 181.350598 
L 947.732378 180.873121 
L 951.733776 179.028322 
L 955.735175 178.842292 
L 959.736573 178.45473 
L 963.737972 177.828428 
L 967.739371 177.750916 
L 971.740769 177.248634 
L 975.742168 177.0347 
L 979.743566 175.977429 
L 983.744965 175.041077 
L 987.746364 174.371369 
L 991.747762 170.418229 
L 995.749161 170.216696 
L 999.750559 166.158139 
L 1003.751958 164.449763 
L 1011.754755 163.798657 
L 1015.756154 159.30293 
L 1019.757552 157.796086 
L 1023.758951 157.2628 
L 1027.76035 156.934146 
L 1031.761748 156.465971 
L 1035.763147 153.216645 
L 1039.764545 152.565539 
L 1043.765944 152.38571 
L 1047.767343 151.495866 
L 1051.768741 147.198571 
L 1055.77014 142.395893 
L 1059.771538 135.590292 
L 1063.772937 132.511493 
L 1067.774336 128.859102 
L 1071.775734 128.533549 
L 1075.777133 109.143011 
L 1079.778531 92.564628 
L 1083.77993 66.762251 
L 1087.781329 57.008072 
L 1091.782727 49.932727 
L 1091.782727 49.932727 
" clip-path="url(#p344b229615)" style="fill: none; stroke: #9467bd; stroke-width: 5; stroke-linecap: square"/>
   </g>
   <g id="patch_3">
    <path d="M 54.02 534.04 
L 54.02 26.88 
" style="fill: none; stroke: #000000; stroke-width: 0.8; stroke-linejoin: miter; stroke-linecap: square"/>
   </g>
   <g id="patch_4">
    <path d="M 1141.2 534.04 
L 1141.2 26.88 
" style="fill: none; stroke: #000000; stroke-width: 0.8; stroke-linejoin: miter; stroke-linecap: square"/>
   </g>
   <g id="patch_5">
    <path d="M 54.02 534.04 
L 1141.2 534.04 
" style="fill: none; stroke: #000000; stroke-width: 0.8; stroke-linejoin: miter; stroke-linecap: square"/>
   </g>
   <g id="patch_6">
    <path d="M 54.02 26.88 
L 1141.2 26.88 
" style="fill: none; stroke: #000000; stroke-width: 0.8; stroke-linejoin: miter; stroke-linecap: square"/>
   </g>
   <g id="text_17">
    <!-- Encode times, CID22 set -->
    <g transform="translate(523.852188 20.88) scale(0.12 -0.12)">
     <defs>
      <path id="DejaVuSans-45" d="M 628 4666 
L 3578 4666 
L 3578 4134 
L 1259 4134 
L 1259 2753 
L 3481 2753 
L 3481 2222 
L 1259 2222 
L 1259 531 
L 3634 531 
L 3634 0 
L 628 0 
L 628 4666 
z
" transform="scale(0.015625)"/>
      <path id="DejaVuSans-74" d="M 1172 4494 
L 1172 3500 
L 2356 3500 
L 2356 3053 
L 1172 3053 
L 1172 1153 
Q 1172 725 1289 603 
Q 1406 481 1766 481 
L 2356 481 
L 2356 0 
L 1766 0 
Q 1100 0 847 248 
Q 594 497 594 1153 
L 594 3053 
L 172 3053 
L 172 3500 
L 594 3500 
L 594 4494 
L 1172 4494 
z
" transform="scale(0.015625)"/>
      <path id="DejaVuSans-2c" d="M 750 794 
L 1409 794 
L 1409 256 
L 897 -744 
L 494 -744 
L 750 256 
L 750 794 
z
" transform="scale(0.015625)"/>
      <path id="DejaVuSans-43" d="M 4122 4306 
L 4122 3641 
Q 3803 3938 3442 4084 
Q 3081 4231 2675 4231 
Q 1875 4231 1450 3742 
Q 1025 3253 1025 2328 
Q 1025 1406 1450 917 
Q 1875 428 2675 428 
Q 3081 428 3442 575 
Q 3803 722 4122 1019 
L 4122 359 
Q 3791 134 3420 21 
Q 3050 -91 2638 -91 
Q 1578 -91 968 557 
Q 359 1206 359 2328 
Q 359 3453 968 4101 
Q 1578 4750 2638 4750 
Q 3056 4750 3426 4639 
Q 3797 4528 4122 4306 
z
" transform="scale(0.015625)"/>
      <path id="DejaVuSans-49" d="M 628 4666 
L 1259 4666 
L 1259 0 
L 628 0 
L 628 4666 
z
" transform="scale(0.015625)"/>
      <path id="DejaVuSans-44" d="M 1259 4147 
L 1259 519 
L 2022 519 
Q 2988 519 3436 956 
Q 3884 1394 3884 2338 
Q 3884 3275 3436 3711 
Q 2988 4147 2022 4147 
L 1259 4147 
z
M 628 4666 
L 1925 4666 
Q 3281 4666 3915 4102 
Q 4550 3538 4550 2338 
Q 4550 1131 3912 565 
Q 3275 0 1925 0 
L 628 0 
L 628 4666 
z
" transform="scale(0.015625)"/>
     </defs>
     <use xlink:href="#DejaVuSans-45"/>
     <use xlink:href="#DejaVuSans-6e" x="63.183594"/>
     <use xlink:href="#DejaVuSans-63" x="126.5625"/>
     <use xlink:href="#DejaVuSans-6f" x="181.542969"/>
     <use xlink:href="#DejaVuSans-64" x="242.724609"/>
     <use xlink:href="#DejaVuSans-65" x="306.201172"/>
     <use xlink:href="#DejaVuSans-20" x="367.724609"/>
     <use xlink:href="#DejaVuSans-74" x="399.511719"/>
     <use xlink:href="#DejaVuSans-69" x="438.720703"/>
     <use xlink:href="#DejaVuSans-6d" x="466.503906"/>
     <use xlink:href="#DejaVuSans-65" x="563.916016"/>
     <use xlink:href="#DejaVuSans-73" x="625.439453"/>
     <use xlink:href="#DejaVuSans-2c" x="677.539062"/>
     <use xlink:href="#DejaVuSans-20" x="709.326172"/>
     <use xlink:href="#DejaVuSans-43" x="741.113281"/>
     <use xlink:href="#DejaVuSans-49" x="810.9375"/>
     <use xlink:href="#DejaVuSans-44" x="840.429688"/>
     <use xlink:href="#DejaVuSans-32" x="917.431641"/>
     <use xlink:href="#DejaVuSans-32" x="981.054688"/>
     <use xlink:href="#DejaVuSans-20" x="1044.677734"/>
     <use xlink:href="#DejaVuSans-73" x="1076.464844"/>
     <use xlink:href="#DejaVuSans-65" x="1128.564453"/>
     <use xlink:href="#DejaVuSans-74" x="1190.087891"/>
    </g>
   </g>
   <g id="legend_1">
    <g id="patch_7">
     <path d="M 61.02 108.270625 
L 189.393438 108.270625 
Q 191.393438 108.270625 191.393438 106.270625 
L 191.393438 33.88 
Q 191.393438 31.88 189.393438 31.88 
L 61.02 31.88 
Q 59.02 31.88 59.02 33.88 
L 59.02 106.270625 
Q 59.02 108.270625 61.02 108.270625 
z
" style="fill: #ffffff; opacity: 0.8; stroke: #cccccc; stroke-linejoin: miter"/>
    </g>
    <g id="line2d_20">
     <path d="M 63.02 39.978438 
L 73.02 39.978438 
L 83.02 39.978438 
" style="fill: none; stroke: #1f77b4; stroke-width: 5; stroke-linecap: square"/>
    </g>
    <g id="text_18">
     <!-- QB3 Fast -->
     <g transform="translate(91.02 43.478438) scale(0.1 -0.1)">
      <defs>
       <path id="DejaVuSans-51" d="M 2522 4238 
Q 1834 4238 1429 3725 
Q 1025 3213 1025 2328 
Q 1025 1447 1429 934 
Q 1834 422 2522 422 
Q 3209 422 3611 934 
Q 4013 1447 4013 2328 
Q 4013 3213 3611 3725 
Q 3209 4238 2522 4238 
z
M 3406 84 
L 4238 -825 
L 3475 -825 
L 2784 -78 
Q 2681 -84 2626 -87 
Q 2572 -91 2522 -91 
Q 1538 -91 948 567 
Q 359 1225 359 2328 
Q 359 3434 948 4092 
Q 1538 4750 2522 4750 
Q 3503 4750 4090 4092 
Q 4678 3434 4678 2328 
Q 4678 1516 4351 937 
Q 4025 359 3406 84 
z
" transform="scale(0.015625)"/>
       <path id="DejaVuSans-42" d="M 1259 2228 
L 1259 519 
L 2272 519 
Q 2781 519 3026 730 
Q 3272 941 3272 1375 
Q 3272 1813 3026 2020 
Q 2781 2228 2272 2228 
L 1259 2228 
z
M 1259 4147 
L 1259 2741 
L 2194 2741 
Q 2656 2741 2882 2914 
Q 3109 3088 3109 3444 
Q 3109 3797 2882 3972 
Q 2656 4147 2194 4147 
L 1259 4147 
z
M 628 4666 
L 2241 4666 
Q 2963 4666 3353 4366 
Q 3744 4066 3744 3513 
Q 3744 3084 3544 2831 
Q 3344 2578 2956 2516 
Q 3422 2416 3680 2098 
Q 3938 1781 3938 1306 
Q 3938 681 3513 340 
Q 3088 0 2303 0 
L 628 0 
L 628 4666 
z
" transform="scale(0.015625)"/>
       <path id="DejaVuSans-33" d="M 2597 2516 
Q 3050 2419 3304 2112 
Q 3559 1806 3559 1356 
Q 3559 666 3084 287 
Q 2609 -91 1734 -91 
Q 1441 -91 1130 -33 
Q 819 25 488 141 
L 488 750 
Q 750 597 1062 519 
Q 1375 441 1716 441 
Q 2309 441 2620 675 
Q 2931 909 2931 1356 
Q 2931 1769 2642 2001 
Q 2353 2234 1838 2234 
L 1294 2234 
L 1294 2753 
L 1863 2753 
Q 2328 2753 2575 2939 
Q 2822 3125 2822 3475 
Q 2822 3834 2567 4026 
Q 2313 4219 1838 4219 
Q 1578 4219 1281 4162 
Q 984 4106 628 3988 
L 628 4550 
Q 988 4650 1302 4700 
Q 1616 4750 1894 4750 
Q 2613 4750 3031 4423 
Q 3450 4097 3450 3541 
Q 3450 3153 3228 2886 
Q 3006 2619 2597 2516 
z
" transform="scale(0.015625)"/>
       <path id="DejaVuSans-61" d="M 2194 1759 
Q 1497 1759 1228 1600 
Q 959 1441 959 1056 
Q 959 750 1161 570 
Q 1363 391 1709 391 
Q 2188 391 2477 730 
Q 2766 1069 2766 1631 
L 2766 1759 
L 2194 1759 
z
M 3341 1997 
L 3341 0 
L 2766 0 
L 2766 531 
Q 2569 213 2275 61 
Q 1981 -91 1556 -91 
Q 1019 -91 701 211 
Q 384 513 384 1019 
Q 384 1609 779 1909 
Q 1175 2209 1959 2209 
L 2766 2209 
L 2766 2266 
Q 2766 2663 2505 2880 
Q 2244 3097 1772 3097 
Q 1472 3097 1187 3025 
Q 903 2953 641 2809 
L 641 3341 
Q 956 3463 1253 3523 
Q 1550 3584 1831 3584 
Q 2591 3584 2966 3190 
Q 3341 2797 3341 1997 
z
" transform="scale(0.015625)"/>
      </defs>
      <use xlink:href="#DejaVuSans-51"/>
      <use xlink:href="#DejaVuSans-42" x="78.710938"/>
      <use xlink:href="#DejaVuSans-33" x="147.314453"/>
      <use xlink:href="#DejaVuSans-20" x="210.9375"/>
      <use xlink:href="#DejaVuSans-46" x="242.724609"/>
      <use xlink:href="#DejaVuSans-61" x="291.119141"/>
      <use xlink:href="#DejaVuSans-73" x="352.398438"/>
      <use xlink:href="#DejaVuSans-74" x="404.498047"/>
     </g>
    </g>
    <g id="line2d_21">
     <path d="M 63.02 54.656563 
L 73.02 54.656563 
L 83.02 54.656563 
" style="fill: none; stroke: #ff7f0e; stroke-width: 1.5; stroke-linecap: square"/>
    </g>
    <g id="text_19">
     <!-- QB3 Base -->
     <g transform="translate(91.02 58.156563) scale(0.1 -0.1)">
      <use xlink:href="#DejaVuSans-51"/>
      <use xlink:href="#DejaVuSans-42" x="78.710938"/>
      <use xlink:href="#DejaVuSans-33" x="147.314453"/>
      <use xlink:href="#DejaVuSans-20" x="210.9375"/>
      <use xlink:href="#DejaVuSans-42" x="242.724609"/>
      <use xlink:href="#DejaVuSans-61" x="311.328125"/>
      <use xlink:href="#DejaVuSans-73" x="372.607422"/>
      <use xlink:href="#DejaVuSans-65" x="424.707031"/>
     </g>
    </g>
    <g id="line2d_22">
     <path d="M 63.02 69.334688 
L 73.02 69.334688 
L 83.02 69.334688 
" style="fill: none; stroke: #2ca02c; stroke-width: 1.5; stroke-linecap: square"/>
    </g>
    <g id="text_20">
     <!-- QB3 Best -->
     <g transform="translate(91.02 72.834688) scale(0.1 -0.1)">
      <use xlink:href="#DejaVuSans-51"/>
      <use xlink:href="#DejaVuSans-42" x="78.710938"/>
      <use xlink:href="#DejaVuSans-33" x="147.314453"/>
      <use xlink:href="#DejaVuSans-20" x="210.9375"/>
      <use xlink:href="#DejaVuSans-42" x="242.724609"/>
      <use xlink:href="#DejaVuSans-65" x="311.328125"/>
      <use xlink:href="#DejaVuSans-73" x="372.851562"/>
      <use xlink:href="#DejaVuSans-74" x="424.951172"/>
     </g>
    </g>
    <g id="line2d_23">
     <path d="M 63.02 84.012813 
L 73.02 84.012813 
L 83.02 84.012813 
" style="fill: none; stroke: #d62728; stroke-width: 1.5; stroke-linecap: square"/>
    </g>
    <g id="text_21">
     <!-- QB3 Best band mix -->
     <g transform="translate(91.02 87.512813) scale(0.1 -0.1)">
      <defs>
       <path id="DejaVuSans-78" d="M 3513 3500 
L 2247 1797 
L 3578 0 
L 2900 0 
L 1881 1375 
L 863 0 
L 184 0 
L 1544 1831 
L 300 3500 
L 978 3500 
L 1906 2253 
L 2834 3500 
L 3513 3500 
z
" transform="scale(0.015625)"/>
      </defs>
      <use xlink:href="#DejaVuSans-51"/>
      <use xlink:href="#DejaVuSans-42" x="78.710938"/>
      <use xlink:href="#DejaVuSans-33" x="147.314453"/>
      <use xlink:href="#DejaVuSans-20" x="210.9375"/>
      <use xlink:href="#DejaVuSans-42" x="242.724609"/>
      <use xlink:href="#DejaVuSans-65" x="311.328125"/>
      <use xlink:href="#DejaVuSans-73" x="372.851562"/>
      <use xlink:href="#DejaVuSans-74" x="424.951172"/>
      <use xlink:href="#DejaVuSans-20" x="464.160156"/>
      <use xlink:href="#DejaVuSans-62" x="495.947266"/>
      <use xlink:href="#DejaVuSans-61" x="559.423828"/>
      <use xlink:href="#DejaVuSans-6e" x="620.703125"/>
      <use xlink:href="#DejaVuSans-64" x="684.082031"/>
      <use xlink:href="#DejaVuSans-20" x="747.558594"/>
      <use xlink:href="#DejaVuSans-6d" x="779.345703"/>
      <use xlink:href="#DejaVuSans-69" x="876.757812"/>
      <use xlink:href="#DejaVuSans-78" x="904.541016"/>
     </g>
    </g>
    <g id="line2d_24">
     <path d="M 63.02 98.690938 
L 73.02 98.690938 
L 83.02 98.690938 
" style="fill: none; stroke: #9467bd; stroke-width: 5; stroke-linecap: square"/>
    </g>
    <g id="text_22">
     <!-- PNG encode -->
     <g transform="translate(91.02 102.190938) scale(0.1 -0.1)">
      <defs>
       <path id="DejaVuSans-50" d="M 1259 4147 
L 1259 2394 
L 2053 2394 
Q 2494 2394 2734 2622 
Q 2975 2850 2975 3272 
Q 2975 3691 2734 3919 
Q 2494 4147 2053 4147 
L 1259 4147 
z
M 628 4666 
L 2053 4666 
Q 2838 4666 3239 4311 
Q 3641 3956 3641 3272 
Q 3641 2581 3239 2228 
Q 2838 1875 2053 1875 
L 1259 1875 
L 1259 0 
L 628 0 
L 628 4666 
z
" transform="scale(0.015625)"/>
       <path id="DejaVuSans-4e" d="M 628 4666 
L 1478 4666 
L 3547 763 
L 3547 4666 
L 4159 4666 
L 4159 0 
L 3309 0 
L 1241 3903 
L 1241 0 
L 628 0 
L 628 4666 
z
" transform="scale(0.015625)"/>
       <path id="DejaVuSans-47" d="M 3809 666 
L 3809 1919 
L 2778 1919 
L 2778 2438 
L 4434 2438 
L 4434 434 
Q 4069 175 3628 42 
Q 3188 -91 2688 -91 
Q 1594 -91 976 548 
Q 359 1188 359 2328 
Q 359 3472 976 4111 
Q 1594 4750 2688 4750 
Q 3144 4750 3555 4637 
Q 3966 4525 4313 4306 
L 4313 3634 
Q 3963 3931 3569 4081 
Q 3175 4231 2741 4231 
Q 1884 4231 1454 3753 
Q 1025 3275 1025 2328 
Q 1025 1384 1454 906 
Q 1884 428 2741 428 
Q 3075 428 3337 486 
Q 3600 544 3809 666 
z
" transform="scale(0.015625)"/>
      </defs>
      <use xlink:href="#DejaVuSans-50"/>
      <use xlink:href="#DejaVuSans-4e" x="60.302734"/>
      <use xlink:href="#DejaVuSans-47" x="135.107422"/>
      <use xlink:href="#DejaVuSans-20" x="212.597656"/>
      <use xlink:href="#DejaVuSans-65" x="244.384766"/>
      <use xlink:href="#DejaVuSans-6e" x="305.908203"/>
      <use xlink:href="#DejaVuSans-63" x="369.287109"/>
      <use xlink:href="#DejaVuSans-6f" x="424.267578"/>
      <use xlink:href="#DejaVuSans-64" x="485.449219"/>
      <use xlink:href="#DejaVuSans-65" x="548.925781"/>
     </g>
    </g>
   </g>
  </g>
 </g>
 <defs>
  <clipPath id="p344b229615">
   <rect x="54.02" y="26.88" width="1087.18" height="507.16"/>
  </clipPath>
 </defs>
</svg>
