<?xml version="1.0" encoding="utf-8" standalone="no"?>
<!DOCTYPE svg PUBLIC "-//W3C//DTD SVG 1.1//EN"
  "http://www.w3.org/Graphics/SVG/1.1/DTD/svg11.dtd">
<svg xmlns:xlink="http://www.w3.org/1999/xlink" width="1440pt" height="720pt" viewBox="0 0 1440 720" xmlns="http://www.w3.org/2000/svg" version="1.1">
 <metadata>
  <rdf:RDF xmlns:dc="http://purl.org/dc/elements/1.1/" xmlns:cc="http://creativecommons.org/ns#" xmlns:rdf="http://www.w3.org/1999/02/22-rdf-syntax-ns#">
   <cc:Work>
    <dc:type rdf:resource="http://purl.org/dc/dcmitype/StillImage"/>
    <dc:date>2025-03-15T15:51:13.591372</dc:date>
    <dc:format>image/svg+xml</dc:format>
    <dc:creator>
     <cc:Agent>
      <dc:title>Matplotlib v3.9.0, https://matplotlib.org/</dc:title>
     </cc:Agent>
    </dc:creator>
   </cc:Work>
  </rdf:RDF>
 </metadata>
 <defs>
  <style type="text/css">*{stroke-linejoin: round; stroke-linecap: butt}</style>
 </defs>
 <g id="figure_1">
  <g id="patch_1">
   <path d="M 0 720 
L 1440 720 
L 1440 0 
L 0 0 
z
" style="fill: #ffffff"/>
  </g>
  <g id="axes_1">
   <g id="patch_2">
    <path d="M 44.66 678.04 
L 1419.75 678.04 
L 1419.75 26.88 
L 44.66 26.88 
z
" style="fill: #ffffff"/>
   </g>
   <g id="matplotlib.axis_1">
    <g id="xtick_1">
     <g id="line2d_1">
      <defs>
       <path id="m883459b5a5" d="M 0 0 
L 0 3.5 
" style="stroke: #000000; stroke-width: 0.8"/>
      </defs>
      <g>
       <use xlink:href="#m883459b5a5" x="44.66" y="678.04" style="stroke: #000000; stroke-width: 0.8"/>
      </g>
     </g>
     <g id="text_1">
      <!-- 0 -->
      <g transform="translate(41.47875 692.638438) scale(0.1 -0.1)">
       <defs>
        <path id="DejaVuSans-30" d="M 2034 4250 
Q 1547 4250 1301 3770 
Q 1056 3291 1056 2328 
Q 1056 1369 1301 889 
Q 1547 409 2034 409 
Q 2525 409 2770 889 
Q 3016 1369 3016 2328 
Q 3016 3291 2770 3770 
Q 2525 4250 2034 4250 
z
M 2034 4750 
Q 2819 4750 3233 4129 
Q 3647 3509 3647 2328 
Q 3647 1150 3233 529 
Q 2819 -91 2034 -91 
Q 1250 -91 836 529 
Q 422 1150 422 2328 
Q 422 3509 836 4129 
Q 1250 4750 2034 4750 
z
" transform="scale(0.015625)"/>
       </defs>
       <use xlink:href="#DejaVuSans-30"/>
      </g>
     </g>
    </g>
    <g id="xtick_2">
     <g id="line2d_2">
      <g>
       <use xlink:href="#m883459b5a5" x="319.678" y="678.04" style="stroke: #000000; stroke-width: 0.8"/>
      </g>
     </g>
     <g id="text_2">
      <!-- 50 -->
      <g transform="translate(313.3155 692.638438) scale(0.1 -0.1)">
       <defs>
        <path id="DejaVuSans-35" d="M 691 4666 
L 3169 4666 
L 3169 4134 
L 1269 4134 
L 1269 2991 
Q 1406 3038 1543 3061 
Q 1681 3084 1819 3084 
Q 2600 3084 3056 2656 
Q 3513 2228 3513 1497 
Q 3513 744 3044 326 
Q 2575 -91 1722 -91 
Q 1428 -91 1123 -41 
Q 819 9 494 109 
L 494 744 
Q 775 591 1075 516 
Q 1375 441 1709 441 
Q 2250 441 2565 725 
Q 2881 1009 2881 1497 
Q 2881 1984 2565 2268 
Q 2250 2553 1709 2553 
Q 1456 2553 1204 2497 
Q 953 2441 691 2322 
L 691 4666 
z
" transform="scale(0.015625)"/>
       </defs>
       <use xlink:href="#DejaVuSans-35"/>
       <use xlink:href="#DejaVuSans-30" x="63.623047"/>
      </g>
     </g>
    </g>
    <g id="xtick_3">
     <g id="line2d_3">
      <g>
       <use xlink:href="#m883459b5a5" x="594.696" y="678.04" style="stroke: #000000; stroke-width: 0.8"/>
      </g>
     </g>
     <g id="text_3">
      <!-- 100 -->
      <g transform="translate(585.15225 692.638438) scale(0.1 -0.1)">
       <defs>
        <path id="DejaVuSans-31" d="M 794 531 
L 1825 531 
L 1825 4091 
L 703 3866 
L 703 4441 
L 1819 4666 
L 2450 4666 
L 2450 531 
L 3481 531 
L 3481 0 
L 794 0 
L 794 531 
z
" transform="scale(0.015625)"/>
       </defs>
       <use xlink:href="#DejaVuSans-31"/>
       <use xlink:href="#DejaVuSans-30" x="63.623047"/>
       <use xlink:href="#DejaVuSans-30" x="127.246094"/>
      </g>
     </g>
    </g>
    <g id="xtick_4">
     <g id="line2d_4">
      <g>
       <use xlink:href="#m883459b5a5" x="869.714" y="678.04" style="stroke: #000000; stroke-width: 0.8"/>
      </g>
     </g>
     <g id="text_4">
      <!-- 150 -->
      <g transform="translate(860.17025 692.638438) scale(0.1 -0.1)">
       <use xlink:href="#DejaVuSans-31"/>
       <use xlink:href="#DejaVuSans-35" x="63.623047"/>
       <use xlink:href="#DejaVuSans-30" x="127.246094"/>
      </g>
     </g>
    </g>
    <g id="xtick_5">
     <g id="line2d_5">
      <g>
       <use xlink:href="#m883459b5a5" x="1144.732" y="678.04" style="stroke: #000000; stroke-width: 0.8"/>
      </g>
     </g>
     <g id="text_5">
      <!-- 200 -->
      <g transform="translate(1135.18825 692.638438) scale(0.1 -0.1)">
       <defs>
        <path id="DejaVuSans-32" d="M 1228 531 
L 3431 531 
L 3431 0 
L 469 0 
L 469 531 
Q 828 903 1448 1529 
Q 2069 2156 2228 2338 
Q 2531 2678 2651 2914 
Q 2772 3150 2772 3378 
Q 2772 3750 2511 3984 
Q 2250 4219 1831 4219 
Q 1534 4219 1204 4116 
Q 875 4013 500 3803 
L 500 4441 
Q 881 4594 1212 4672 
Q 1544 4750 1819 4750 
Q 2544 4750 2975 4387 
Q 3406 4025 3406 3419 
Q 3406 3131 3298 2873 
Q 3191 2616 2906 2266 
Q 2828 2175 2409 1742 
Q 1991 1309 1228 531 
z
" transform="scale(0.015625)"/>
       </defs>
       <use xlink:href="#DejaVuSans-32"/>
       <use xlink:href="#DejaVuSans-30" x="63.623047"/>
       <use xlink:href="#DejaVuSans-30" x="127.246094"/>
      </g>
     </g>
    </g>
    <g id="xtick_6">
     <g id="line2d_6">
      <g>
       <use xlink:href="#m883459b5a5" x="1419.75" y="678.04" style="stroke: #000000; stroke-width: 0.8"/>
      </g>
     </g>
     <g id="text_6">
      <!-- 250 -->
      <g transform="translate(1410.20625 692.638438) scale(0.1 -0.1)">
       <use xlink:href="#DejaVuSans-32"/>
       <use xlink:href="#DejaVuSans-35" x="63.623047"/>
       <use xlink:href="#DejaVuSans-30" x="127.246094"/>
      </g>
     </g>
    </g>
    <g id="text_7">
     <!-- File number, sorted by increasing loss, then increasing gain -->
     <g transform="translate(583.085469 706.316563) scale(0.1 -0.1)">
      <defs>
       <path id="DejaVuSans-46" d="M 628 4666 
L 3309 4666 
L 3309 4134 
L 1259 4134 
L 1259 2759 
L 3109 2759 
L 3109 2228 
L 1259 2228 
L 1259 0 
L 628 0 
L 628 4666 
z
" transform="scale(0.015625)"/>
       <path id="DejaVuSans-69" d="M 603 3500 
L 1178 3500 
L 1178 0 
L 603 0 
L 603 3500 
z
M 603 4863 
L 1178 4863 
L 1178 4134 
L 603 4134 
L 603 4863 
z
" transform="scale(0.015625)"/>
       <path id="DejaVuSans-6c" d="M 603 4863 
L 1178 4863 
L 1178 0 
L 603 0 
L 603 4863 
z
" transform="scale(0.015625)"/>
       <path id="DejaVuSans-65" d="M 3597 1894 
L 3597 1613 
L 953 1613 
Q 991 1019 1311 708 
Q 1631 397 2203 397 
Q 2534 397 2845 478 
Q 3156 559 3463 722 
L 3463 178 
Q 3153 47 2828 -22 
Q 2503 -91 2169 -91 
Q 1331 -91 842 396 
Q 353 884 353 1716 
Q 353 2575 817 3079 
Q 1281 3584 2069 3584 
Q 2775 3584 3186 3129 
Q 3597 2675 3597 1894 
z
M 3022 2063 
Q 3016 2534 2758 2815 
Q 2500 3097 2075 3097 
Q 1594 3097 1305 2825 
Q 1016 2553 972 2059 
L 3022 2063 
z
" transform="scale(0.015625)"/>
       <path id="DejaVuSans-20" transform="scale(0.015625)"/>
       <path id="DejaVuSans-6e" d="M 3513 2113 
L 3513 0 
L 2938 0 
L 2938 2094 
Q 2938 2591 2744 2837 
Q 2550 3084 2163 3084 
Q 1697 3084 1428 2787 
Q 1159 2491 1159 1978 
L 1159 0 
L 581 0 
L 581 3500 
L 1159 3500 
L 1159 2956 
Q 1366 3272 1645 3428 
Q 1925 3584 2291 3584 
Q 2894 3584 3203 3211 
Q 3513 2838 3513 2113 
z
" transform="scale(0.015625)"/>
       <path id="DejaVuSans-75" d="M 544 1381 
L 544 3500 
L 1119 3500 
L 1119 1403 
Q 1119 906 1312 657 
Q 1506 409 1894 409 
Q 2359 409 2629 706 
Q 2900 1003 2900 1516 
L 2900 3500 
L 3475 3500 
L 3475 0 
L 2900 0 
L 2900 538 
Q 2691 219 2414 64 
Q 2138 -91 1772 -91 
Q 1169 -91 856 284 
Q 544 659 544 1381 
z
M 1991 3584 
L 1991 3584 
z
" transform="scale(0.015625)"/>
       <path id="DejaVuSans-6d" d="M 3328 2828 
Q 3544 3216 3844 3400 
Q 4144 3584 4550 3584 
Q 5097 3584 5394 3201 
Q 5691 2819 5691 2113 
L 5691 0 
L 5113 0 
L 5113 2094 
Q 5113 2597 4934 2840 
Q 4756 3084 4391 3084 
Q 3944 3084 3684 2787 
Q 3425 2491 3425 1978 
L 3425 0 
L 2847 0 
L 2847 2094 
Q 2847 2600 2669 2842 
Q 2491 3084 2119 3084 
Q 1678 3084 1418 2786 
Q 1159 2488 1159 1978 
L 1159 0 
L 581 0 
L 581 3500 
L 1159 3500 
L 1159 2956 
Q 1356 3278 1631 3431 
Q 1906 3584 2284 3584 
Q 2666 3584 2933 3390 
Q 3200 3197 3328 2828 
z
" transform="scale(0.015625)"/>
       <path id="DejaVuSans-62" d="M 3116 1747 
Q 3116 2381 2855 2742 
Q 2594 3103 2138 3103 
Q 1681 3103 1420 2742 
Q 1159 2381 1159 1747 
Q 1159 1113 1420 752 
Q 1681 391 2138 391 
Q 2594 391 2855 752 
Q 3116 1113 3116 1747 
z
M 1159 2969 
Q 1341 3281 1617 3432 
Q 1894 3584 2278 3584 
Q 2916 3584 3314 3078 
Q 3713 2572 3713 1747 
Q 3713 922 3314 415 
Q 2916 -91 2278 -91 
Q 1894 -91 1617 61 
Q 1341 213 1159 525 
L 1159 0 
L 581 0 
L 581 4863 
L 1159 4863 
L 1159 2969 
z
" transform="scale(0.015625)"/>
       <path id="DejaVuSans-72" d="M 2631 2963 
Q 2534 3019 2420 3045 
Q 2306 3072 2169 3072 
Q 1681 3072 1420 2755 
Q 1159 2438 1159 1844 
L 1159 0 
L 581 0 
L 581 3500 
L 1159 3500 
L 1159 2956 
Q 1341 3275 1631 3429 
Q 1922 3584 2338 3584 
Q 2397 3584 2469 3576 
Q 2541 3569 2628 3553 
L 2631 2963 
z
" transform="scale(0.015625)"/>
       <path id="DejaVuSans-2c" d="M 750 794 
L 1409 794 
L 1409 256 
L 897 -744 
L 494 -744 
L 750 256 
L 750 794 
z
" transform="scale(0.015625)"/>
       <path id="DejaVuSans-73" d="M 2834 3397 
L 2834 2853 
Q 2591 2978 2328 3040 
Q 2066 3103 1784 3103 
Q 1356 3103 1142 2972 
Q 928 2841 928 2578 
Q 928 2378 1081 2264 
Q 1234 2150 1697 2047 
L 1894 2003 
Q 2506 1872 2764 1633 
Q 3022 1394 3022 966 
Q 3022 478 2636 193 
Q 2250 -91 1575 -91 
Q 1294 -91 989 -36 
Q 684 19 347 128 
L 347 722 
Q 666 556 975 473 
Q 1284 391 1588 391 
Q 1994 391 2212 530 
Q 2431 669 2431 922 
Q 2431 1156 2273 1281 
Q 2116 1406 1581 1522 
L 1381 1569 
Q 847 1681 609 1914 
Q 372 2147 372 2553 
Q 372 3047 722 3315 
Q 1072 3584 1716 3584 
Q 2034 3584 2315 3537 
Q 2597 3491 2834 3397 
z
" transform="scale(0.015625)"/>
       <path id="DejaVuSans-6f" d="M 1959 3097 
Q 1497 3097 1228 2736 
Q 959 2375 959 1747 
Q 959 1119 1226 758 
Q 1494 397 1959 397 
Q 2419 397 2687 759 
Q 2956 1122 2956 1747 
Q 2956 2369 2687 2733 
Q 2419 3097 1959 3097 
z
M 1959 3584 
Q 2709 3584 3137 3096 
Q 3566 2609 3566 1747 
Q 3566 888 3137 398 
Q 2709 -91 1959 -91 
Q 1206 -91 779 398 
Q 353 888 353 1747 
Q 353 2609 779 3096 
Q 1206 3584 1959 3584 
z
" transform="scale(0.015625)"/>
       <path id="DejaVuSans-74" d="M 1172 4494 
L 1172 3500 
L 2356 3500 
L 2356 3053 
L 1172 3053 
L 1172 1153 
Q 1172 725 1289 603 
Q 1406 481 1766 481 
L 2356 481 
L 2356 0 
L 1766 0 
Q 1100 0 847 248 
Q 594 497 594 1153 
L 594 3053 
L 172 3053 
L 172 3500 
L 594 3500 
L 594 4494 
L 1172 4494 
z
" transform="scale(0.015625)"/>
       <path id="DejaVuSans-64" d="M 2906 2969 
L 2906 4863 
L 3481 4863 
L 3481 0 
L 2906 0 
L 2906 525 
Q 2725 213 2448 61 
Q 2172 -91 1784 -91 
Q 1150 -91 751 415 
Q 353 922 353 1747 
Q 353 2572 751 3078 
Q 1150 3584 1784 3584 
Q 2172 3584 2448 3432 
Q 2725 3281 2906 2969 
z
M 947 1747 
Q 947 1113 1208 752 
Q 1469 391 1925 391 
Q 2381 391 2643 752 
Q 2906 1113 2906 1747 
Q 2906 2381 2643 2742 
Q 2381 3103 1925 3103 
Q 1469 3103 1208 2742 
Q 947 2381 947 1747 
z
" transform="scale(0.015625)"/>
       <path id="DejaVuSans-79" d="M 2059 -325 
Q 1816 -950 1584 -1140 
Q 1353 -1331 966 -1331 
L 506 -1331 
L 506 -850 
L 844 -850 
Q 1081 -850 1212 -737 
Q 1344 -625 1503 -206 
L 1606 56 
L 191 3500 
L 800 3500 
L 1894 763 
L 2988 3500 
L 3597 3500 
L 2059 -325 
z
" transform="scale(0.015625)"/>
       <path id="DejaVuSans-63" d="M 3122 3366 
L 3122 2828 
Q 2878 2963 2633 3030 
Q 2388 3097 2138 3097 
Q 1578 3097 1268 2742 
Q 959 2388 959 1747 
Q 959 1106 1268 751 
Q 1578 397 2138 397 
Q 2388 397 2633 464 
Q 2878 531 3122 666 
L 3122 134 
Q 2881 22 2623 -34 
Q 2366 -91 2075 -91 
Q 1284 -91 818 406 
Q 353 903 353 1747 
Q 353 2603 823 3093 
Q 1294 3584 2113 3584 
Q 2378 3584 2631 3529 
Q 2884 3475 3122 3366 
z
" transform="scale(0.015625)"/>
       <path id="DejaVuSans-61" d="M 2194 1759 
Q 1497 1759 1228 1600 
Q 959 1441 959 1056 
Q 959 750 1161 570 
Q 1363 391 1709 391 
Q 2188 391 2477 730 
Q 2766 1069 2766 1631 
L 2766 1759 
L 2194 1759 
z
M 3341 1997 
L 3341 0 
L 2766 0 
L 2766 531 
Q 2569 213 2275 61 
Q 1981 -91 1556 -91 
Q 1019 -91 701 211 
Q 384 513 384 1019 
Q 384 1609 779 1909 
Q 1175 2209 1959 2209 
L 2766 2209 
L 2766 2266 
Q 2766 2663 2505 2880 
Q 2244 3097 1772 3097 
Q 1472 3097 1187 3025 
Q 903 2953 641 2809 
L 641 3341 
Q 956 3463 1253 3523 
Q 1550 3584 1831 3584 
Q 2591 3584 2966 3190 
Q 3341 2797 3341 1997 
z
" transform="scale(0.015625)"/>
       <path id="DejaVuSans-67" d="M 2906 1791 
Q 2906 2416 2648 2759 
Q 2391 3103 1925 3103 
Q 1463 3103 1205 2759 
Q 947 2416 947 1791 
Q 947 1169 1205 825 
Q 1463 481 1925 481 
Q 2391 481 2648 825 
Q 2906 1169 2906 1791 
z
M 3481 434 
Q 3481 -459 3084 -895 
Q 2688 -1331 1869 -1331 
Q 1566 -1331 1297 -1286 
Q 1028 -1241 775 -1147 
L 775 -588 
Q 1028 -725 1275 -790 
Q 1522 -856 1778 -856 
Q 2344 -856 2625 -561 
Q 2906 -266 2906 331 
L 2906 616 
Q 2728 306 2450 153 
Q 2172 0 1784 0 
Q 1141 0 747 490 
Q 353 981 353 1791 
Q 353 2603 747 3093 
Q 1141 3584 1784 3584 
Q 2172 3584 2450 3431 
Q 2728 3278 2906 2969 
L 2906 3500 
L 3481 3500 
L 3481 434 
z
" transform="scale(0.015625)"/>
       <path id="DejaVuSans-68" d="M 3513 2113 
L 3513 0 
L 2938 0 
L 2938 2094 
Q 2938 2591 2744 2837 
Q 2550 3084 2163 3084 
Q 1697 3084 1428 2787 
Q 1159 2491 1159 1978 
L 1159 0 
L 581 0 
L 581 4863 
L 1159 4863 
L 1159 2956 
Q 1366 3272 1645 3428 
Q 1925 3584 2291 3584 
Q 2894 3584 3203 3211 
Q 3513 2838 3513 2113 
z
" transform="scale(0.015625)"/>
      </defs>
      <use xlink:href="#DejaVuSans-46"/>
      <use xlink:href="#DejaVuSans-69" x="50.269531"/>
      <use xlink:href="#DejaVuSans-6c" x="78.052734"/>
      <use xlink:href="#DejaVuSans-65" x="105.835938"/>
      <use xlink:href="#DejaVuSans-20" x="167.359375"/>
      <use xlink:href="#DejaVuSans-6e" x="199.146484"/>
      <use xlink:href="#DejaVuSans-75" x="262.525391"/>
      <use xlink:href="#DejaVuSans-6d" x="325.904297"/>
      <use xlink:href="#DejaVuSans-62" x="423.316406"/>
      <use xlink:href="#DejaVuSans-65" x="486.792969"/>
      <use xlink:href="#DejaVuSans-72" x="548.316406"/>
      <use xlink:href="#DejaVuSans-2c" x="589.429688"/>
      <use xlink:href="#DejaVuSans-20" x="621.216797"/>
      <use xlink:href="#DejaVuSans-73" x="653.003906"/>
      <use xlink:href="#DejaVuSans-6f" x="705.103516"/>
      <use xlink:href="#DejaVuSans-72" x="766.285156"/>
      <use xlink:href="#DejaVuSans-74" x="807.398438"/>
      <use xlink:href="#DejaVuSans-65" x="846.607422"/>
      <use xlink:href="#DejaVuSans-64" x="908.130859"/>
      <use xlink:href="#DejaVuSans-20" x="971.607422"/>
      <use xlink:href="#DejaVuSans-62" x="1003.394531"/>
      <use xlink:href="#DejaVuSans-79" x="1066.871094"/>
      <use xlink:href="#DejaVuSans-20" x="1126.050781"/>
      <use xlink:href="#DejaVuSans-69" x="1157.837891"/>
      <use xlink:href="#DejaVuSans-6e" x="1185.621094"/>
      <use xlink:href="#DejaVuSans-63" x="1249"/>
      <use xlink:href="#DejaVuSans-72" x="1303.980469"/>
      <use xlink:href="#DejaVuSans-65" x="1342.84375"/>
      <use xlink:href="#DejaVuSans-61" x="1404.367188"/>
      <use xlink:href="#DejaVuSans-73" x="1465.646484"/>
      <use xlink:href="#DejaVuSans-69" x="1517.746094"/>
      <use xlink:href="#DejaVuSans-6e" x="1545.529297"/>
      <use xlink:href="#DejaVuSans-67" x="1608.908203"/>
      <use xlink:href="#DejaVuSans-20" x="1672.384766"/>
      <use xlink:href="#DejaVuSans-6c" x="1704.171875"/>
      <use xlink:href="#DejaVuSans-6f" x="1731.955078"/>
      <use xlink:href="#DejaVuSans-73" x="1793.136719"/>
      <use xlink:href="#DejaVuSans-73" x="1845.236328"/>
      <use xlink:href="#DejaVuSans-2c" x="1897.335938"/>
      <use xlink:href="#DejaVuSans-20" x="1929.123047"/>
      <use xlink:href="#DejaVuSans-74" x="1960.910156"/>
      <use xlink:href="#DejaVuSans-68" x="2000.119141"/>
      <use xlink:href="#DejaVuSans-65" x="2063.498047"/>
      <use xlink:href="#DejaVuSans-6e" x="2125.021484"/>
      <use xlink:href="#DejaVuSans-20" x="2188.400391"/>
      <use xlink:href="#DejaVuSans-69" x="2220.1875"/>
      <use xlink:href="#DejaVuSans-6e" x="2247.970703"/>
      <use xlink:href="#DejaVuSans-63" x="2311.349609"/>
      <use xlink:href="#DejaVuSans-72" x="2366.330078"/>
      <use xlink:href="#DejaVuSans-65" x="2405.193359"/>
      <use xlink:href="#DejaVuSans-61" x="2466.716797"/>
      <use xlink:href="#DejaVuSans-73" x="2527.996094"/>
      <use xlink:href="#DejaVuSans-69" x="2580.095703"/>
      <use xlink:href="#DejaVuSans-6e" x="2607.878906"/>
      <use xlink:href="#DejaVuSans-67" x="2671.257812"/>
      <use xlink:href="#DejaVuSans-20" x="2734.734375"/>
      <use xlink:href="#DejaVuSans-67" x="2766.521484"/>
      <use xlink:href="#DejaVuSans-61" x="2829.998047"/>
      <use xlink:href="#DejaVuSans-69" x="2891.277344"/>
      <use xlink:href="#DejaVuSans-6e" x="2919.060547"/>
     </g>
    </g>
   </g>
   <g id="matplotlib.axis_2">
    <g id="ytick_1">
     <g id="line2d_7">
      <defs>
       <path id="m322f5f01e9" d="M 0 0 
L -3.5 0 
" style="stroke: #000000; stroke-width: 0.8"/>
      </defs>
      <g>
       <use xlink:href="#m322f5f01e9" x="44.66" y="678.04" style="stroke: #000000; stroke-width: 0.8"/>
      </g>
     </g>
     <g id="text_8">
      <!-- -2 -->
      <g transform="translate(27.689688 681.839219) scale(0.1 -0.1)">
       <defs>
        <path id="DejaVuSans-2d" d="M 313 2009 
L 1997 2009 
L 1997 1497 
L 313 1497 
L 313 2009 
z
" transform="scale(0.015625)"/>
       </defs>
       <use xlink:href="#DejaVuSans-2d"/>
       <use xlink:href="#DejaVuSans-32" x="36.083984"/>
      </g>
     </g>
    </g>
    <g id="ytick_2">
     <g id="line2d_8">
      <g>
       <use xlink:href="#m322f5f01e9" x="44.66" y="628.810334" style="stroke: #000000; stroke-width: 0.8"/>
      </g>
     </g>
     <g id="text_9">
      <!-- -1 -->
      <g transform="translate(27.689688 632.609553) scale(0.1 -0.1)">
       <use xlink:href="#DejaVuSans-2d"/>
       <use xlink:href="#DejaVuSans-31" x="36.083984"/>
      </g>
     </g>
    </g>
    <g id="ytick_3">
     <g id="line2d_9">
      <g>
       <use xlink:href="#m322f5f01e9" x="44.66" y="579.580668" style="stroke: #000000; stroke-width: 0.8"/>
      </g>
     </g>
     <g id="text_10">
      <!--  0 -->
      <g transform="translate(28.119375 583.379886) scale(0.1 -0.1)">
       <use xlink:href="#DejaVuSans-20"/>
       <use xlink:href="#DejaVuSans-30" x="31.787109"/>
      </g>
     </g>
    </g>
    <g id="ytick_4">
     <g id="line2d_10">
      <g>
       <use xlink:href="#m322f5f01e9" x="44.66" y="530.351001" style="stroke: #000000; stroke-width: 0.8"/>
      </g>
     </g>
     <g id="text_11">
      <!--  1 -->
      <g transform="translate(28.119375 534.15022) scale(0.1 -0.1)">
       <use xlink:href="#DejaVuSans-20"/>
       <use xlink:href="#DejaVuSans-31" x="31.787109"/>
      </g>
     </g>
    </g>
    <g id="ytick_5">
     <g id="line2d_11">
      <g>
       <use xlink:href="#m322f5f01e9" x="44.66" y="481.121335" style="stroke: #000000; stroke-width: 0.8"/>
      </g>
     </g>
     <g id="text_12">
      <!--  2 -->
      <g transform="translate(28.119375 484.920554) scale(0.1 -0.1)">
       <use xlink:href="#DejaVuSans-20"/>
       <use xlink:href="#DejaVuSans-32" x="31.787109"/>
      </g>
     </g>
    </g>
    <g id="ytick_6">
     <g id="line2d_12">
      <g>
       <use xlink:href="#m322f5f01e9" x="44.66" y="431.891669" style="stroke: #000000; stroke-width: 0.8"/>
      </g>
     </g>
     <g id="text_13">
      <!--  3 -->
      <g transform="translate(28.119375 435.690888) scale(0.1 -0.1)">
       <defs>
        <path id="DejaVuSans-33" d="M 2597 2516 
Q 3050 2419 3304 2112 
Q 3559 1806 3559 1356 
Q 3559 666 3084 287 
Q 2609 -91 1734 -91 
Q 1441 -91 1130 -33 
Q 819 25 488 141 
L 488 750 
Q 750 597 1062 519 
Q 1375 441 1716 441 
Q 2309 441 2620 675 
Q 2931 909 2931 1356 
Q 2931 1769 2642 2001 
Q 2353 2234 1838 2234 
L 1294 2234 
L 1294 2753 
L 1863 2753 
Q 2328 2753 2575 2939 
Q 2822 3125 2822 3475 
Q 2822 3834 2567 4026 
Q 2313 4219 1838 4219 
Q 1578 4219 1281 4162 
Q 984 4106 628 3988 
L 628 4550 
Q 988 4650 1302 4700 
Q 1616 4750 1894 4750 
Q 2613 4750 3031 4423 
Q 3450 4097 3450 3541 
Q 3450 3153 3228 2886 
Q 3006 2619 2597 2516 
z
" transform="scale(0.015625)"/>
       </defs>
       <use xlink:href="#DejaVuSans-20"/>
       <use xlink:href="#DejaVuSans-33" x="31.787109"/>
      </g>
     </g>
    </g>
    <g id="ytick_7">
     <g id="line2d_13">
      <g>
       <use xlink:href="#m322f5f01e9" x="44.66" y="382.662003" style="stroke: #000000; stroke-width: 0.8"/>
      </g>
     </g>
     <g id="text_14">
      <!--  4 -->
      <g transform="translate(28.119375 386.461221) scale(0.1 -0.1)">
       <defs>
        <path id="DejaVuSans-34" d="M 2419 4116 
L 825 1625 
L 2419 1625 
L 2419 4116 
z
M 2253 4666 
L 3047 4666 
L 3047 1625 
L 3713 1625 
L 3713 1100 
L 3047 1100 
L 3047 0 
L 2419 0 
L 2419 1100 
L 313 1100 
L 313 1709 
L 2253 4666 
z
" transform="scale(0.015625)"/>
       </defs>
       <use xlink:href="#DejaVuSans-20"/>
       <use xlink:href="#DejaVuSans-34" x="31.787109"/>
      </g>
     </g>
    </g>
    <g id="ytick_8">
     <g id="line2d_14">
      <g>
       <use xlink:href="#m322f5f01e9" x="44.66" y="333.432336" style="stroke: #000000; stroke-width: 0.8"/>
      </g>
     </g>
     <g id="text_15">
      <!--  5 -->
      <g transform="translate(28.119375 337.231555) scale(0.1 -0.1)">
       <use xlink:href="#DejaVuSans-20"/>
       <use xlink:href="#DejaVuSans-35" x="31.787109"/>
      </g>
     </g>
    </g>
    <g id="ytick_9">
     <g id="line2d_15">
      <g>
       <use xlink:href="#m322f5f01e9" x="44.66" y="284.20267" style="stroke: #000000; stroke-width: 0.8"/>
      </g>
     </g>
     <g id="text_16">
      <!--  6 -->
      <g transform="translate(28.119375 288.001889) scale(0.1 -0.1)">
       <defs>
        <path id="DejaVuSans-36" d="M 2113 2584 
Q 1688 2584 1439 2293 
Q 1191 2003 1191 1497 
Q 1191 994 1439 701 
Q 1688 409 2113 409 
Q 2538 409 2786 701 
Q 3034 994 3034 1497 
Q 3034 2003 2786 2293 
Q 2538 2584 2113 2584 
z
M 3366 4563 
L 3366 3988 
Q 3128 4100 2886 4159 
Q 2644 4219 2406 4219 
Q 1781 4219 1451 3797 
Q 1122 3375 1075 2522 
Q 1259 2794 1537 2939 
Q 1816 3084 2150 3084 
Q 2853 3084 3261 2657 
Q 3669 2231 3669 1497 
Q 3669 778 3244 343 
Q 2819 -91 2113 -91 
Q 1303 -91 875 529 
Q 447 1150 447 2328 
Q 447 3434 972 4092 
Q 1497 4750 2381 4750 
Q 2619 4750 2861 4703 
Q 3103 4656 3366 4563 
z
" transform="scale(0.015625)"/>
       </defs>
       <use xlink:href="#DejaVuSans-20"/>
       <use xlink:href="#DejaVuSans-36" x="31.787109"/>
      </g>
     </g>
    </g>
    <g id="ytick_10">
     <g id="line2d_16">
      <g>
       <use xlink:href="#m322f5f01e9" x="44.66" y="234.973004" style="stroke: #000000; stroke-width: 0.8"/>
      </g>
     </g>
     <g id="text_17">
      <!--  7 -->
      <g transform="translate(28.119375 238.772223) scale(0.1 -0.1)">
       <defs>
        <path id="DejaVuSans-37" d="M 525 4666 
L 3525 4666 
L 3525 4397 
L 1831 0 
L 1172 0 
L 2766 4134 
L 525 4134 
L 525 4666 
z
" transform="scale(0.015625)"/>
       </defs>
       <use xlink:href="#DejaVuSans-20"/>
       <use xlink:href="#DejaVuSans-37" x="31.787109"/>
      </g>
     </g>
    </g>
    <g id="ytick_11">
     <g id="line2d_17">
      <g>
       <use xlink:href="#m322f5f01e9" x="44.66" y="185.743338" style="stroke: #000000; stroke-width: 0.8"/>
      </g>
     </g>
     <g id="text_18">
      <!--  8 -->
      <g transform="translate(28.119375 189.542557) scale(0.1 -0.1)">
       <defs>
        <path id="DejaVuSans-38" d="M 2034 2216 
Q 1584 2216 1326 1975 
Q 1069 1734 1069 1313 
Q 1069 891 1326 650 
Q 1584 409 2034 409 
Q 2484 409 2743 651 
Q 3003 894 3003 1313 
Q 3003 1734 2745 1975 
Q 2488 2216 2034 2216 
z
M 1403 2484 
Q 997 2584 770 2862 
Q 544 3141 544 3541 
Q 544 4100 942 4425 
Q 1341 4750 2034 4750 
Q 2731 4750 3128 4425 
Q 3525 4100 3525 3541 
Q 3525 3141 3298 2862 
Q 3072 2584 2669 2484 
Q 3125 2378 3379 2068 
Q 3634 1759 3634 1313 
Q 3634 634 3220 271 
Q 2806 -91 2034 -91 
Q 1263 -91 848 271 
Q 434 634 434 1313 
Q 434 1759 690 2068 
Q 947 2378 1403 2484 
z
M 1172 3481 
Q 1172 3119 1398 2916 
Q 1625 2713 2034 2713 
Q 2441 2713 2670 2916 
Q 2900 3119 2900 3481 
Q 2900 3844 2670 4047 
Q 2441 4250 2034 4250 
Q 1625 4250 1398 4047 
Q 1172 3844 1172 3481 
z
" transform="scale(0.015625)"/>
       </defs>
       <use xlink:href="#DejaVuSans-20"/>
       <use xlink:href="#DejaVuSans-38" x="31.787109"/>
      </g>
     </g>
    </g>
    <g id="ytick_12">
     <g id="line2d_18">
      <g>
       <use xlink:href="#m322f5f01e9" x="44.66" y="136.513672" style="stroke: #000000; stroke-width: 0.8"/>
      </g>
     </g>
     <g id="text_19">
      <!--  9 -->
      <g transform="translate(28.119375 140.31289) scale(0.1 -0.1)">
       <defs>
        <path id="DejaVuSans-39" d="M 703 97 
L 703 672 
Q 941 559 1184 500 
Q 1428 441 1663 441 
Q 2288 441 2617 861 
Q 2947 1281 2994 2138 
Q 2813 1869 2534 1725 
Q 2256 1581 1919 1581 
Q 1219 1581 811 2004 
Q 403 2428 403 3163 
Q 403 3881 828 4315 
Q 1253 4750 1959 4750 
Q 2769 4750 3195 4129 
Q 3622 3509 3622 2328 
Q 3622 1225 3098 567 
Q 2575 -91 1691 -91 
Q 1453 -91 1209 -44 
Q 966 3 703 97 
z
M 1959 2075 
Q 2384 2075 2632 2365 
Q 2881 2656 2881 3163 
Q 2881 3666 2632 3958 
Q 2384 4250 1959 4250 
Q 1534 4250 1286 3958 
Q 1038 3666 1038 3163 
Q 1038 2656 1286 2365 
Q 1534 2075 1959 2075 
z
" transform="scale(0.015625)"/>
       </defs>
       <use xlink:href="#DejaVuSans-20"/>
       <use xlink:href="#DejaVuSans-39" x="31.787109"/>
      </g>
     </g>
    </g>
    <g id="ytick_13">
     <g id="line2d_19">
      <g>
       <use xlink:href="#m322f5f01e9" x="44.66" y="87.284005" style="stroke: #000000; stroke-width: 0.8"/>
      </g>
     </g>
     <g id="text_20">
      <!-- 10 -->
      <g transform="translate(24.935 91.083224) scale(0.1 -0.1)">
       <use xlink:href="#DejaVuSans-31"/>
       <use xlink:href="#DejaVuSans-30" x="63.623047"/>
      </g>
     </g>
    </g>
    <g id="ytick_14">
     <g id="line2d_20">
      <g>
       <use xlink:href="#m322f5f01e9" x="44.66" y="38.054339" style="stroke: #000000; stroke-width: 0.8"/>
      </g>
     </g>
     <g id="text_21">
      <!-- 11 -->
      <g transform="translate(24.935 41.853558) scale(0.1 -0.1)">
       <use xlink:href="#DejaVuSans-31"/>
       <use xlink:href="#DejaVuSans-31" x="63.623047"/>
      </g>
     </g>
    </g>
    <g id="text_22">
     <!-- MB -->
     <g transform="translate(18.855313 360.204531) rotate(-90) scale(0.1 -0.1)">
      <defs>
       <path id="DejaVuSans-4d" d="M 628 4666 
L 1569 4666 
L 2759 1491 
L 3956 4666 
L 4897 4666 
L 4897 0 
L 4281 0 
L 4281 4097 
L 3078 897 
L 2444 897 
L 1241 4097 
L 1241 0 
L 628 0 
L 628 4666 
z
" transform="scale(0.015625)"/>
       <path id="DejaVuSans-42" d="M 1259 2228 
L 1259 519 
L 2272 519 
Q 2781 519 3026 730 
Q 3272 941 3272 1375 
Q 3272 1813 3026 2020 
Q 2781 2228 2272 2228 
L 1259 2228 
z
M 1259 4147 
L 1259 2741 
L 2194 2741 
Q 2656 2741 2882 2914 
Q 3109 3088 3109 3444 
Q 3109 3797 2882 3972 
Q 2656 4147 2194 4147 
L 1259 4147 
z
M 628 4666 
L 2241 4666 
Q 2963 4666 3353 4366 
Q 3744 4066 3744 3513 
Q 3744 3084 3544 2831 
Q 3344 2578 2956 2516 
Q 3422 2416 3680 2098 
Q 3938 1781 3938 1306 
Q 3938 681 3513 340 
Q 3088 0 2303 0 
L 628 0 
L 628 4666 
z
" transform="scale(0.015625)"/>
      </defs>
      <use xlink:href="#DejaVuSans-4d"/>
      <use xlink:href="#DejaVuSans-42" x="86.279297"/>
     </g>
    </g>
   </g>
   <g id="line2d_21">
    <path d="M 44.66 579.587461 
L 66.66144 579.719101 
L 83.16252 580.023538 
L 105.16396 580.823077 
L 121.66504 581.603465 
L 138.16612 582.78803 
L 149.16684 583.730532 
L 165.66792 585.541248 
L 176.66864 586.974422 
L 198.67008 590.114487 
L 226.17188 594.326676 
L 237.1726 596.370298 
L 248.17332 598.763499 
L 259.17404 601.493924 
L 270.17476 604.404727 
L 281.17548 607.513482 
L 286.67584 609.205062 
L 292.1762 611.036849 
L 297.67656 613.086772 
L 303.17692 615.264102 
L 308.67728 617.64731 
L 319.678 622.828732 
L 330.67872 628.294259 
L 336.17908 631.168779 
L 341.67944 634.280193 
L 352.68016 641.972919 
L 358.18052 646.812835 
L 380.18196 646.419342 
L 407.68376 645.60725 
L 424.18484 644.973172 
L 435.18556 644.440014 
L 457.187 643.108992 
L 479.18844 641.49224 
L 495.68952 640.04986 
L 517.69096 637.892518 
L 539.6924 635.453237 
L 556.19348 633.443781 
L 578.19492 630.523871 
L 594.696 628.095224 
L 611.19708 625.486544 
L 633.19852 621.50923 
L 655.19996 617.334505 
L 677.2014 612.901472 
L 699.20284 608.211854 
L 715.70392 604.383361 
L 737.70536 599.076206 
L 759.7068 593.427791 
L 781.70824 587.582113 
L 814.7104 578.376411 
L 831.21148 573.646376 
L 858.71328 565.378893 
L 880.71472 558.599476 
L 908.21652 549.811439 
L 935.71832 540.695926 
L 957.71976 533.167824 
L 979.7212 525.493067 
L 1001.72264 517.533664 
L 1023.72408 509.296704 
L 1045.72552 500.821029 
L 1062.2266 494.121413 
L 1078.72768 487.027221 
L 1100.72912 477.355463 
L 1117.2302 469.848775 
L 1133.73128 461.928559 
L 1144.732 456.403317 
L 1172.2338 442.198195 
L 1188.73488 433.515953 
L 1210.73632 421.680008 
L 1221.73704 415.404949 
L 1238.23812 405.755688 
L 1260.23956 392.600488 
L 1276.74064 382.122593 
L 1298.74208 367.957298 
L 1309.7428 360.64177 
L 1326.24388 349.231859 
L 1342.74496 337.003998 
L 1353.74568 328.482786 
L 1359.24604 323.841561 
L 1370.24676 314.190577 
L 1375.74712 309.233445 
L 1381.24748 303.959569 
L 1392.2482 293.024577 
L 1403.24892 280.458114 
L 1408.74928 273.673872 
L 1414.24964 265.676661 
L 1414.24964 265.676661 
" clip-path="url(#p14612f53ed)" style="fill: none; stroke: #1f77b4; stroke-width: 1.5; stroke-linecap: square"/>
   </g>
   <g id="line2d_22">
    <path d="M 44.66 579.567474 
L 66.66144 579.596913 
L 83.16252 579.88535 
L 105.16396 580.617838 
L 121.66504 581.325662 
L 132.66576 582.053228 
L 149.16684 583.364509 
L 160.16756 584.480349 
L 171.16828 585.746683 
L 198.67008 589.569958 
L 226.17188 593.6701 
L 237.1726 595.667495 
L 248.17332 597.999603 
L 259.17404 600.663518 
L 270.17476 603.540402 
L 281.17548 606.616763 
L 286.67584 608.30027 
L 292.1762 610.125362 
L 297.67656 612.151556 
L 303.17692 614.310868 
L 308.67728 616.657006 
L 319.678 621.811795 
L 330.67872 627.245027 
L 336.17908 630.102613 
L 341.67944 633.207331 
L 352.68016 640.869928 
L 358.18052 645.689266 
L 374.6816 645.37011 
L 402.1834 644.478069 
L 424.18484 643.56668 
L 435.18556 643.017671 
L 457.187 641.60985 
L 479.18844 639.913839 
L 501.18988 637.845356 
L 517.69096 636.143634 
L 534.19204 634.256513 
L 556.19348 631.517719 
L 583.69528 627.714235 
L 605.69672 624.255704 
L 616.69744 622.353075 
L 638.69888 618.243875 
L 660.70032 613.908071 
L 677.2014 610.48715 
L 699.20284 605.698532 
L 715.70392 601.775518 
L 743.20572 594.929641 
L 765.20716 589.123691 
L 787.2086 583.144403 
L 820.21076 573.74838 
L 842.2122 567.180995 
L 869.714 558.70916 
L 891.71544 551.72155 
L 919.21724 542.711832 
L 946.71904 533.352879 
L 979.7212 521.745065 
L 1001.72264 513.66756 
L 1023.72408 505.325002 
L 1045.72552 496.762437 
L 1062.2266 489.994293 
L 1078.72768 482.829605 
L 1106.22948 470.563098 
L 1117.2302 465.486732 
L 1133.73128 457.485139 
L 1144.732 451.909337 
L 1172.2338 437.568391 
L 1188.73488 428.815012 
L 1210.73632 416.876178 
L 1227.2374 407.339899 
L 1243.73848 397.535713 
L 1260.23956 387.596046 
L 1276.74064 377.047458 
L 1298.74208 362.794042 
L 1309.7428 355.424853 
L 1326.24388 343.943116 
L 1342.74496 331.647121 
L 1353.74568 323.077713 
L 1359.24604 318.411233 
L 1375.74712 303.731291 
L 1381.24748 298.45072 
L 1392.2482 287.466302 
L 1403.24892 274.84992 
L 1408.74928 268.048989 
L 1414.24964 260.030264 
L 1414.24964 260.030264 
" clip-path="url(#p14612f53ed)" style="fill: none; stroke: #ff7f0e; stroke-width: 1.5; stroke-linecap: square"/>
   </g>
   <g id="line2d_23">
    <path d="M 44.66 579.524644 
L 61.16108 579.444597 
L 72.1618 579.531389 
L 83.16252 578.428841 
L 88.66288 578.583521 
L 94.16324 578.210803 
L 116.16468 578.958848 
L 138.16612 580.017925 
L 149.16684 580.905389 
L 165.66792 582.516676 
L 171.16828 583.155184 
L 176.66864 583.177633 
L 182.169 583.874381 
L 187.66936 584.012421 
L 193.16972 583.927893 
L 198.67008 583.998538 
L 204.17044 584.776859 
L 209.6708 584.98067 
L 226.17188 587.431175 
L 237.1726 589.404644 
L 248.17332 591.730205 
L 259.17404 594.303833 
L 264.6744 595.256722 
L 270.17476 596.73056 
L 275.67512 597.949634 
L 281.17548 599.508984 
L 286.67584 600.040025 
L 292.1762 601.377939 
L 297.67656 603.360812 
L 303.17692 605.47941 
L 308.67728 607.79158 
L 319.678 611.599544 
L 325.17836 614.237663 
L 341.67944 621.521586 
L 347.1798 624.695817 
L 352.68016 628.064209 
L 358.18052 632.19256 
L 374.6816 631.843324 
L 413.18412 630.321143 
L 429.6852 629.487882 
L 435.18556 628.58368 
L 462.68736 626.652253 
L 473.68808 625.75135 
L 506.69024 622.544776 
L 512.1906 621.987201 
L 556.19348 616.509317 
L 572.69456 614.171745 
L 589.19564 611.70332 
L 611.19708 608.102564 
L 627.69816 605.028614 
L 633.19852 603.677654 
L 660.70032 598.244619 
L 682.70176 593.577154 
L 704.7032 588.592503 
L 715.70392 585.861339 
L 732.205 581.69262 
L 748.70608 577.442328 
L 787.2086 566.980778 
L 809.21004 560.663233 
L 831.21148 554.138628 
L 858.71328 545.664086 
L 919.21724 525.913439 
L 963.22012 510.671836 
L 979.7212 504.778996 
L 996.22228 498.711193 
L 1001.72264 496.299629 
L 1023.72408 487.890316 
L 1040.22516 481.452503 
L 1051.22588 477.03227 
L 1067.72696 470.12264 
L 1084.22804 462.834434 
L 1100.72912 455.480014 
L 1122.73056 445.192146 
L 1139.23164 437.063984 
L 1161.23308 425.487775 
L 1188.73488 410.900435 
L 1205.23596 401.954223 
L 1216.23668 395.756897 
L 1232.73776 386.055847 
L 1254.7392 372.849496 
L 1265.73992 366.020111 
L 1298.74208 344.597379 
L 1309.7428 337.198554 
L 1326.24388 325.675563 
L 1342.74496 313.362534 
L 1353.74568 304.778702 
L 1359.24604 300.111385 
L 1370.24676 290.40295 
L 1375.74712 285.403677 
L 1386.74784 274.623906 
L 1392.2482 269.094135 
L 1403.24892 256.464855 
L 1408.74928 249.663776 
L 1414.24964 241.644559 
L 1414.24964 241.644559 
" clip-path="url(#p14612f53ed)" style="fill: none; stroke: #2ca02c; stroke-width: 1.5; stroke-linecap: square"/>
   </g>
   <g id="line2d_24">
    <path d="M 44.66 579.524644 
L 61.16108 579.444597 
L 66.66144 577.139565 
L 72.1618 576.772164 
L 83.16252 575.653666 
L 88.66288 575.808346 
L 94.16324 575.435628 
L 105.16396 575.767485 
L 110.66432 575.285921 
L 116.16468 574.931024 
L 121.66504 575.183572 
L 127.1654 574.733318 
L 132.66576 574.834977 
L 138.16612 574.682759 
L 149.16684 575.570222 
L 160.16756 576.614826 
L 165.66792 576.620832 
L 171.16828 577.259341 
L 176.66864 577.28179 
L 182.169 575.058726 
L 187.66936 575.196766 
L 193.16972 575.06547 
L 198.67008 575.136115 
L 204.17044 575.876037 
L 209.6708 576.079848 
L 215.17116 575.924085 
L 226.17188 577.558165 
L 231.67224 578.497861 
L 237.1726 577.303156 
L 242.67296 578.411365 
L 248.17332 577.84158 
L 259.17404 580.267569 
L 264.6744 581.163697 
L 270.17476 580.448094 
L 275.67512 581.667169 
L 281.17548 580.843507 
L 286.67584 580.824898 
L 292.1762 582.162813 
L 297.67656 581.574617 
L 303.17692 581.4287 
L 308.67728 583.74087 
L 319.678 587.238736 
L 325.17836 586.209984 
L 330.67872 588.622434 
L 336.17908 590.873953 
L 341.67944 593.339522 
L 352.68016 599.343868 
L 358.18052 603.472218 
L 369.18124 603.264125 
L 374.6816 602.884121 
L 385.68232 602.496585 
L 391.18268 600.832918 
L 418.68448 599.609314 
L 429.6852 599.066016 
L 435.18556 598.161814 
L 462.68736 596.230387 
L 473.68808 595.329484 
L 501.18988 592.65715 
L 512.1906 591.542344 
L 517.69096 590.79681 
L 523.19132 590.172627 
L 528.69168 589.3372 
L 561.69384 585.074403 
L 567.1942 584.221154 
L 572.69456 583.065882 
L 589.19564 580.597457 
L 600.19636 578.845521 
L 605.69672 577.764388 
L 616.69744 575.814401 
L 627.69816 573.762607 
L 633.19852 572.411647 
L 644.19924 570.270599 
L 649.6996 569.077814 
L 655.19996 567.417297 
L 666.20068 565.15416 
L 671.70104 563.59289 
L 688.20212 559.996122 
L 704.7032 556.236698 
L 715.70392 553.505535 
L 726.70464 550.685167 
L 732.205 549.102089 
L 743.20572 546.286152 
L 759.7068 541.803151 
L 787.2086 534.29799 
L 792.70896 532.584994 
L 820.21076 524.644052 
L 864.21364 511.040074 
L 880.71472 505.765066 
L 886.21508 503.995653 
L 891.71544 501.918112 
L 913.71688 494.647481 
L 919.21724 492.62616 
L 957.71976 479.287432 
L 979.7212 471.461195 
L 996.22228 465.393392 
L 1007.223 460.564897 
L 1029.22444 452.110293 
L 1045.72552 445.62202 
L 1062.2266 438.824043 
L 1078.72768 431.630013 
L 1106.22948 419.275976 
L 1111.72984 416.753005 
L 1128.23092 408.741123 
L 1133.73128 404.929959 
L 1144.732 399.303156 
L 1161.23308 390.596102 
L 1177.73416 381.877725 
L 1183.23452 378.685279 
L 1205.23596 366.778937 
L 1216.23668 360.581611 
L 1232.73776 350.863478 
L 1254.7392 337.657128 
L 1260.23956 334.30316 
L 1265.73992 330.275976 
L 1298.74208 308.853244 
L 1309.7428 301.454419 
L 1326.24388 289.931428 
L 1342.74496 277.618399 
L 1353.74568 269.034567 
L 1359.24604 264.36725 
L 1370.24676 254.658815 
L 1375.74712 249.659543 
L 1386.74784 238.879575 
L 1392.2482 233.349803 
L 1403.24892 220.720523 
L 1408.74928 213.919445 
L 1414.24964 205.263048 
L 1414.24964 205.263048 
" clip-path="url(#p14612f53ed)" style="fill: none; stroke: #d62728; stroke-width: 1.5; stroke-linecap: square"/>
   </g>
   <g id="line2d_25">
    <path d="M 44.66 578.853988 
L 50.16036 577.866589 
L 55.66072 577.234086 
L 61.16108 576.339731 
L 66.66144 573.606451 
L 83.16252 570.983642 
L 88.66288 570.615059 
L 105.16396 569.1586 
L 116.16468 567.146583 
L 121.66504 566.60038 
L 127.1654 565.713557 
L 138.16612 564.754612 
L 143.66648 564.541989 
L 149.16684 564.884283 
L 160.16756 564.072437 
L 165.66792 563.433189 
L 171.16828 563.03438 
L 176.66864 562.304402 
L 182.169 559.552562 
L 187.66936 559.17822 
L 193.16972 558.521595 
L 198.67008 558.042836 
L 204.17044 558.147203 
L 209.6708 557.595782 
L 215.17116 556.695273 
L 220.67152 557.088864 
L 226.17188 557.920205 
L 231.67224 558.046725 
L 237.1726 556.39635 
L 242.67296 557.170831 
L 248.17332 556.18865 
L 253.67368 556.393987 
L 259.17404 556.731555 
L 264.6744 556.731358 
L 270.17476 555.696107 
L 275.67512 555.950329 
L 281.17548 554.82681 
L 286.67584 553.936688 
L 292.1762 554.04391 
L 297.67656 552.817452 
L 303.17692 552.412686 
L 308.67728 553.741788 
L 319.678 553.734059 
L 325.17836 552.202278 
L 330.67872 553.088953 
L 336.17908 553.424011 
L 341.67944 553.938904 
L 347.1798 554.892728 
L 352.68016 555.576085 
L 358.18052 556.669722 
L 363.68088 555.920693 
L 369.18124 555.330823 
L 374.6816 554.355879 
L 380.18196 553.150047 
L 385.68232 552.430605 
L 391.18268 550.223295 
L 413.18412 546.34764 
L 418.68448 545.591177 
L 435.18556 542.72729 
L 440.68592 541.586491 
L 446.18628 540.797241 
L 451.68664 540.432794 
L 457.187 539.31533 
L 462.68736 538.585845 
L 484.6888 533.79506 
L 490.18916 532.974795 
L 495.68952 531.746367 
L 501.18988 530.371727 
L 506.69024 529.392007 
L 512.1906 528.722829 
L 523.19132 526.238109 
L 528.69168 525.070086 
L 539.6924 522.237805 
L 545.19276 521.077511 
L 561.69384 517.289977 
L 567.1942 515.720092 
L 578.19492 513.08153 
L 583.69528 511.602671 
L 589.19564 510.458426 
L 594.696 508.784075 
L 600.19636 507.465951 
L 616.69744 502.801342 
L 622.1978 500.97689 
L 627.69816 499.952126 
L 633.19852 498.175082 
L 638.69888 496.524707 
L 649.6996 492.861527 
L 655.19996 490.71664 
L 660.70032 489.121796 
L 666.20068 487.066999 
L 671.70104 485.131535 
L 677.2014 483.352473 
L 682.70176 481.714306 
L 693.70248 477.678065 
L 699.20284 475.985499 
L 704.7032 473.867295 
L 710.20356 472.127715 
L 715.70392 470.233308 
L 732.205 463.577901 
L 737.70536 461.880511 
L 759.7068 453.615834 
L 770.70752 449.261027 
L 776.20788 447.286622 
L 781.70824 445.443464 
L 787.2086 443.805839 
L 803.70968 436.81946 
L 809.21004 434.769537 
L 831.21148 424.983959 
L 836.71184 422.832623 
L 842.2122 420.397083 
L 847.71256 418.232947 
L 853.21292 416.529355 
L 875.21436 407.068102 
L 886.21508 402.425695 
L 891.71544 399.940779 
L 897.2158 397.242648 
L 913.71688 389.990675 
L 924.7176 385.07977 
L 935.71832 380.368442 
L 946.71904 375.444195 
L 952.2194 373.208184 
L 968.72048 365.874243 
L 979.7212 360.794874 
L 985.22156 357.982088 
L 996.22228 352.891051 
L 1001.72264 349.836055 
L 1012.72336 343.980285 
L 1034.7248 333.243885 
L 1040.22516 330.202673 
L 1045.72552 327.363057 
L 1051.22588 324.666158 
L 1056.72624 321.60102 
L 1067.72696 316.723591 
L 1089.7284 304.235895 
L 1095.22876 301.349954 
L 1100.72912 298.27822 
L 1106.22948 294.939316 
L 1111.72984 291.99297 
L 1117.2302 288.498106 
L 1122.73056 285.333525 
L 1128.23092 282.003089 
L 1133.73128 278.024396 
L 1139.23164 274.715178 
L 1155.73272 264.054346 
L 1161.23308 260.460531 
L 1177.73416 250.174928 
L 1194.23524 239.569578 
L 1199.7356 236.298021 
L 1205.23596 233.298211 
L 1210.73632 229.601014 
L 1216.23668 226.104969 
L 1221.73704 222.907847 
L 1227.2374 219.025251 
L 1243.73848 207.94321 
L 1254.7392 200.271948 
L 1260.23956 196.279766 
L 1265.73992 191.88528 
L 1287.74136 176.079456 
L 1298.74208 167.835998 
L 1304.24244 163.362449 
L 1315.24316 155.175457 
L 1320.74352 150.906161 
L 1331.74424 141.85834 
L 1337.2446 137.597118 
L 1348.24532 128.479932 
L 1353.74568 123.664187 
L 1359.24604 118.621642 
L 1364.7464 113.774686 
L 1375.74712 102.749899 
L 1392.2482 85.288382 
L 1397.74856 78.620569 
L 1403.24892 72.217069 
L 1408.74928 65.055925 
L 1414.24964 56.400611 
L 1414.24964 56.400611 
" clip-path="url(#p14612f53ed)" style="fill: none; stroke: #9467bd; stroke-width: 1.5; stroke-linecap: square"/>
   </g>
   <g id="line2d_26">
    <path d="M 44.66 579.580668 
L 1419.75 579.580668 
" clip-path="url(#p14612f53ed)" style="fill: none; stroke: #000000; stroke-width: 0.5; stroke-linecap: square"/>
   </g>
   <g id="patch_3">
    <path d="M 44.66 678.04 
L 44.66 26.88 
" style="fill: none; stroke: #000000; stroke-width: 0.8; stroke-linejoin: miter; stroke-linecap: square"/>
   </g>
   <g id="patch_4">
    <path d="M 1419.75 678.04 
L 1419.75 26.88 
" style="fill: none; stroke: #000000; stroke-width: 0.8; stroke-linejoin: miter; stroke-linecap: square"/>
   </g>
   <g id="patch_5">
    <path d="M 44.66 678.04 
L 1419.75 678.04 
" style="fill: none; stroke: #000000; stroke-width: 0.8; stroke-linejoin: miter; stroke-linecap: square"/>
   </g>
   <g id="patch_6">
    <path d="M 44.66 26.88 
L 1419.75 26.88 
" style="fill: none; stroke: #000000; stroke-width: 0.8; stroke-linejoin: miter; stroke-linecap: square"/>
   </g>
   <g id="text_23">
    <!-- QB3 cummulative savings vs PNG, total PNG size is 90.82 MB, CID22 set -->
    <g transform="translate(514.706875 20.88) scale(0.12 -0.12)">
     <defs>
      <path id="DejaVuSans-51" d="M 2522 4238 
Q 1834 4238 1429 3725 
Q 1025 3213 1025 2328 
Q 1025 1447 1429 934 
Q 1834 422 2522 422 
Q 3209 422 3611 934 
Q 4013 1447 4013 2328 
Q 4013 3213 3611 3725 
Q 3209 4238 2522 4238 
z
M 3406 84 
L 4238 -825 
L 3475 -825 
L 2784 -78 
Q 2681 -84 2626 -87 
Q 2572 -91 2522 -91 
Q 1538 -91 948 567 
Q 359 1225 359 2328 
Q 359 3434 948 4092 
Q 1538 4750 2522 4750 
Q 3503 4750 4090 4092 
Q 4678 3434 4678 2328 
Q 4678 1516 4351 937 
Q 4025 359 3406 84 
z
" transform="scale(0.015625)"/>
      <path id="DejaVuSans-76" d="M 191 3500 
L 800 3500 
L 1894 563 
L 2988 3500 
L 3597 3500 
L 2284 0 
L 1503 0 
L 191 3500 
z
" transform="scale(0.015625)"/>
      <path id="DejaVuSans-50" d="M 1259 4147 
L 1259 2394 
L 2053 2394 
Q 2494 2394 2734 2622 
Q 2975 2850 2975 3272 
Q 2975 3691 2734 3919 
Q 2494 4147 2053 4147 
L 1259 4147 
z
M 628 4666 
L 2053 4666 
Q 2838 4666 3239 4311 
Q 3641 3956 3641 3272 
Q 3641 2581 3239 2228 
Q 2838 1875 2053 1875 
L 1259 1875 
L 1259 0 
L 628 0 
L 628 4666 
z
" transform="scale(0.015625)"/>
      <path id="DejaVuSans-4e" d="M 628 4666 
L 1478 4666 
L 3547 763 
L 3547 4666 
L 4159 4666 
L 4159 0 
L 3309 0 
L 1241 3903 
L 1241 0 
L 628 0 
L 628 4666 
z
" transform="scale(0.015625)"/>
      <path id="DejaVuSans-47" d="M 3809 666 
L 3809 1919 
L 2778 1919 
L 2778 2438 
L 4434 2438 
L 4434 434 
Q 4069 175 3628 42 
Q 3188 -91 2688 -91 
Q 1594 -91 976 548 
Q 359 1188 359 2328 
Q 359 3472 976 4111 
Q 1594 4750 2688 4750 
Q 3144 4750 3555 4637 
Q 3966 4525 4313 4306 
L 4313 3634 
Q 3963 3931 3569 4081 
Q 3175 4231 2741 4231 
Q 1884 4231 1454 3753 
Q 1025 3275 1025 2328 
Q 1025 1384 1454 906 
Q 1884 428 2741 428 
Q 3075 428 3337 486 
Q 3600 544 3809 666 
z
" transform="scale(0.015625)"/>
      <path id="DejaVuSans-7a" d="M 353 3500 
L 3084 3500 
L 3084 2975 
L 922 459 
L 3084 459 
L 3084 0 
L 275 0 
L 275 525 
L 2438 3041 
L 353 3041 
L 353 3500 
z
" transform="scale(0.015625)"/>
      <path id="DejaVuSans-2e" d="M 684 794 
L 1344 794 
L 1344 0 
L 684 0 
L 684 794 
z
" transform="scale(0.015625)"/>
      <path id="DejaVuSans-43" d="M 4122 4306 
L 4122 3641 
Q 3803 3938 3442 4084 
Q 3081 4231 2675 4231 
Q 1875 4231 1450 3742 
Q 1025 3253 1025 2328 
Q 1025 1406 1450 917 
Q 1875 428 2675 428 
Q 3081 428 3442 575 
Q 3803 722 4122 1019 
L 4122 359 
Q 3791 134 3420 21 
Q 3050 -91 2638 -91 
Q 1578 -91 968 557 
Q 359 1206 359 2328 
Q 359 3453 968 4101 
Q 1578 4750 2638 4750 
Q 3056 4750 3426 4639 
Q 3797 4528 4122 4306 
z
" transform="scale(0.015625)"/>
      <path id="DejaVuSans-49" d="M 628 4666 
L 1259 4666 
L 1259 0 
L 628 0 
L 628 4666 
z
" transform="scale(0.015625)"/>
      <path id="DejaVuSans-44" d="M 1259 4147 
L 1259 519 
L 2022 519 
Q 2988 519 3436 956 
Q 3884 1394 3884 2338 
Q 3884 3275 3436 3711 
Q 2988 4147 2022 4147 
L 1259 4147 
z
M 628 4666 
L 1925 4666 
Q 3281 4666 3915 4102 
Q 4550 3538 4550 2338 
Q 4550 1131 3912 565 
Q 3275 0 1925 0 
L 628 0 
L 628 4666 
z
" transform="scale(0.015625)"/>
     </defs>
     <use xlink:href="#DejaVuSans-51"/>
     <use xlink:href="#DejaVuSans-42" x="78.710938"/>
     <use xlink:href="#DejaVuSans-33" x="147.314453"/>
     <use xlink:href="#DejaVuSans-20" x="210.9375"/>
     <use xlink:href="#DejaVuSans-63" x="242.724609"/>
     <use xlink:href="#DejaVuSans-75" x="297.705078"/>
     <use xlink:href="#DejaVuSans-6d" x="361.083984"/>
     <use xlink:href="#DejaVuSans-6d" x="458.496094"/>
     <use xlink:href="#DejaVuSans-75" x="555.908203"/>
     <use xlink:href="#DejaVuSans-6c" x="619.287109"/>
     <use xlink:href="#DejaVuSans-61" x="647.070312"/>
     <use xlink:href="#DejaVuSans-74" x="708.349609"/>
     <use xlink:href="#DejaVuSans-69" x="747.558594"/>
     <use xlink:href="#DejaVuSans-76" x="775.341797"/>
     <use xlink:href="#DejaVuSans-65" x="834.521484"/>
     <use xlink:href="#DejaVuSans-20" x="896.044922"/>
     <use xlink:href="#DejaVuSans-73" x="927.832031"/>
     <use xlink:href="#DejaVuSans-61" x="979.931641"/>
     <use xlink:href="#DejaVuSans-76" x="1041.210938"/>
     <use xlink:href="#DejaVuSans-69" x="1100.390625"/>
     <use xlink:href="#DejaVuSans-6e" x="1128.173828"/>
     <use xlink:href="#DejaVuSans-67" x="1191.552734"/>
     <use xlink:href="#DejaVuSans-73" x="1255.029297"/>
     <use xlink:href="#DejaVuSans-20" x="1307.128906"/>
     <use xlink:href="#DejaVuSans-76" x="1338.916016"/>
     <use xlink:href="#DejaVuSans-73" x="1398.095703"/>
     <use xlink:href="#DejaVuSans-20" x="1450.195312"/>
     <use xlink:href="#DejaVuSans-50" x="1481.982422"/>
     <use xlink:href="#DejaVuSans-4e" x="1542.285156"/>
     <use xlink:href="#DejaVuSans-47" x="1617.089844"/>
     <use xlink:href="#DejaVuSans-2c" x="1694.580078"/>
     <use xlink:href="#DejaVuSans-20" x="1726.367188"/>
     <use xlink:href="#DejaVuSans-74" x="1758.154297"/>
     <use xlink:href="#DejaVuSans-6f" x="1797.363281"/>
     <use xlink:href="#DejaVuSans-74" x="1858.544922"/>
     <use xlink:href="#DejaVuSans-61" x="1897.753906"/>
     <use xlink:href="#DejaVuSans-6c" x="1959.033203"/>
     <use xlink:href="#DejaVuSans-20" x="1986.816406"/>
     <use xlink:href="#DejaVuSans-50" x="2018.603516"/>
     <use xlink:href="#DejaVuSans-4e" x="2078.90625"/>
     <use xlink:href="#DejaVuSans-47" x="2153.710938"/>
     <use xlink:href="#DejaVuSans-20" x="2231.201172"/>
     <use xlink:href="#DejaVuSans-73" x="2262.988281"/>
     <use xlink:href="#DejaVuSans-69" x="2315.087891"/>
     <use xlink:href="#DejaVuSans-7a" x="2342.871094"/>
     <use xlink:href="#DejaVuSans-65" x="2395.361328"/>
     <use xlink:href="#DejaVuSans-20" x="2456.884766"/>
     <use xlink:href="#DejaVuSans-69" x="2488.671875"/>
     <use xlink:href="#DejaVuSans-73" x="2516.455078"/>
     <use xlink:href="#DejaVuSans-20" x="2568.554688"/>
     <use xlink:href="#DejaVuSans-39" x="2600.341797"/>
     <use xlink:href="#DejaVuSans-30" x="2663.964844"/>
     <use xlink:href="#DejaVuSans-2e" x="2727.587891"/>
     <use xlink:href="#DejaVuSans-38" x="2759.375"/>
     <use xlink:href="#DejaVuSans-32" x="2822.998047"/>
     <use xlink:href="#DejaVuSans-20" x="2886.621094"/>
     <use xlink:href="#DejaVuSans-4d" x="2918.408203"/>
     <use xlink:href="#DejaVuSans-42" x="3004.6875"/>
     <use xlink:href="#DejaVuSans-2c" x="3073.291016"/>
     <use xlink:href="#DejaVuSans-20" x="3105.078125"/>
     <use xlink:href="#DejaVuSans-43" x="3136.865234"/>
     <use xlink:href="#DejaVuSans-49" x="3206.689453"/>
     <use xlink:href="#DejaVuSans-44" x="3236.181641"/>
     <use xlink:href="#DejaVuSans-32" x="3313.183594"/>
     <use xlink:href="#DejaVuSans-32" x="3376.806641"/>
     <use xlink:href="#DejaVuSans-20" x="3440.429688"/>
     <use xlink:href="#DejaVuSans-73" x="3472.216797"/>
     <use xlink:href="#DejaVuSans-65" x="3524.316406"/>
     <use xlink:href="#DejaVuSans-74" x="3585.839844"/>
    </g>
   </g>
   <g id="legend_1">
    <g id="patch_7">
     <path d="M 51.66 108.270625 
L 180.033438 108.270625 
Q 182.033438 108.270625 182.033438 106.270625 
L 182.033438 33.88 
Q 182.033438 31.88 180.033438 31.88 
L 51.66 31.88 
Q 49.66 31.88 49.66 33.88 
L 49.66 106.270625 
Q 49.66 108.270625 51.66 108.270625 
z
" style="fill: #ffffff; opacity: 0.8; stroke: #cccccc; stroke-linejoin: miter"/>
    </g>
    <g id="line2d_27">
     <path d="M 53.66 39.978438 
L 63.66 39.978438 
L 73.66 39.978438 
" style="fill: none; stroke: #1f77b4; stroke-width: 1.5; stroke-linecap: square"/>
    </g>
    <g id="text_24">
     <!-- QB3 Fast -->
     <g transform="translate(81.66 43.478438) scale(0.1 -0.1)">
      <use xlink:href="#DejaVuSans-51"/>
      <use xlink:href="#DejaVuSans-42" x="78.710938"/>
      <use xlink:href="#DejaVuSans-33" x="147.314453"/>
      <use xlink:href="#DejaVuSans-20" x="210.9375"/>
      <use xlink:href="#DejaVuSans-46" x="242.724609"/>
      <use xlink:href="#DejaVuSans-61" x="291.119141"/>
      <use xlink:href="#DejaVuSans-73" x="352.398438"/>
      <use xlink:href="#DejaVuSans-74" x="404.498047"/>
     </g>
    </g>
    <g id="line2d_28">
     <path d="M 53.66 54.656563 
L 63.66 54.656563 
L 73.66 54.656563 
" style="fill: none; stroke: #ff7f0e; stroke-width: 1.5; stroke-linecap: square"/>
    </g>
    <g id="text_25">
     <!-- QB3 Base -->
     <g transform="translate(81.66 58.156563) scale(0.1 -0.1)">
      <use xlink:href="#DejaVuSans-51"/>
      <use xlink:href="#DejaVuSans-42" x="78.710938"/>
      <use xlink:href="#DejaVuSans-33" x="147.314453"/>
      <use xlink:href="#DejaVuSans-20" x="210.9375"/>
      <use xlink:href="#DejaVuSans-42" x="242.724609"/>
      <use xlink:href="#DejaVuSans-61" x="311.328125"/>
      <use xlink:href="#DejaVuSans-73" x="372.607422"/>
      <use xlink:href="#DejaVuSans-65" x="424.707031"/>
     </g>
    </g>
    <g id="line2d_29">
     <path d="M 53.66 69.334688 
L 63.66 69.334688 
L 73.66 69.334688 
" style="fill: none; stroke: #2ca02c; stroke-width: 1.5; stroke-linecap: square"/>
    </g>
    <g id="text_26">
     <!-- QB3 Best -->
     <g transform="translate(81.66 72.834688) scale(0.1 -0.1)">
      <use xlink:href="#DejaVuSans-51"/>
      <use xlink:href="#DejaVuSans-42" x="78.710938"/>
      <use xlink:href="#DejaVuSans-33" x="147.314453"/>
      <use xlink:href="#DejaVuSans-20" x="210.9375"/>
      <use xlink:href="#DejaVuSans-42" x="242.724609"/>
      <use xlink:href="#DejaVuSans-65" x="311.328125"/>
      <use xlink:href="#DejaVuSans-73" x="372.851562"/>
      <use xlink:href="#DejaVuSans-74" x="424.951172"/>
     </g>
    </g>
    <g id="line2d_30">
     <path d="M 53.66 84.012812 
L 63.66 84.012812 
L 73.66 84.012812 
" style="fill: none; stroke: #d62728; stroke-width: 1.5; stroke-linecap: square"/>
    </g>
    <g id="text_27">
     <!-- QB3 Best band mix -->
     <g transform="translate(81.66 87.512812) scale(0.1 -0.1)">
      <defs>
       <path id="DejaVuSans-78" d="M 3513 3500 
L 2247 1797 
L 3578 0 
L 2900 0 
L 1881 1375 
L 863 0 
L 184 0 
L 1544 1831 
L 300 3500 
L 978 3500 
L 1906 2253 
L 2834 3500 
L 3513 3500 
z
" transform="scale(0.015625)"/>
      </defs>
      <use xlink:href="#DejaVuSans-51"/>
      <use xlink:href="#DejaVuSans-42" x="78.710938"/>
      <use xlink:href="#DejaVuSans-33" x="147.314453"/>
      <use xlink:href="#DejaVuSans-20" x="210.9375"/>
      <use xlink:href="#DejaVuSans-42" x="242.724609"/>
      <use xlink:href="#DejaVuSans-65" x="311.328125"/>
      <use xlink:href="#DejaVuSans-73" x="372.851562"/>
      <use xlink:href="#DejaVuSans-74" x="424.951172"/>
      <use xlink:href="#DejaVuSans-20" x="464.160156"/>
      <use xlink:href="#DejaVuSans-62" x="495.947266"/>
      <use xlink:href="#DejaVuSans-61" x="559.423828"/>
      <use xlink:href="#DejaVuSans-6e" x="620.703125"/>
      <use xlink:href="#DejaVuSans-64" x="684.082031"/>
      <use xlink:href="#DejaVuSans-20" x="747.558594"/>
      <use xlink:href="#DejaVuSans-6d" x="779.345703"/>
      <use xlink:href="#DejaVuSans-69" x="876.757812"/>
      <use xlink:href="#DejaVuSans-78" x="904.541016"/>
     </g>
    </g>
    <g id="line2d_31">
     <path d="M 53.66 98.690938 
L 63.66 98.690938 
L 73.66 98.690938 
" style="fill: none; stroke: #9467bd; stroke-width: 1.5; stroke-linecap: square"/>
    </g>
    <g id="text_28">
     <!-- QB3 + Zstd -->
     <g transform="translate(81.66 102.190938) scale(0.1 -0.1)">
      <defs>
       <path id="DejaVuSans-2b" d="M 2944 4013 
L 2944 2272 
L 4684 2272 
L 4684 1741 
L 2944 1741 
L 2944 0 
L 2419 0 
L 2419 1741 
L 678 1741 
L 678 2272 
L 2419 2272 
L 2419 4013 
L 2944 4013 
z
" transform="scale(0.015625)"/>
       <path id="DejaVuSans-5a" d="M 359 4666 
L 4025 4666 
L 4025 4184 
L 1075 531 
L 4097 531 
L 4097 0 
L 288 0 
L 288 481 
L 3238 4134 
L 359 4134 
L 359 4666 
z
" transform="scale(0.015625)"/>
      </defs>
      <use xlink:href="#DejaVuSans-51"/>
      <use xlink:href="#DejaVuSans-42" x="78.710938"/>
      <use xlink:href="#DejaVuSans-33" x="147.314453"/>
      <use xlink:href="#DejaVuSans-20" x="210.9375"/>
      <use xlink:href="#DejaVuSans-2b" x="242.724609"/>
      <use xlink:href="#DejaVuSans-20" x="326.513672"/>
      <use xlink:href="#DejaVuSans-5a" x="358.300781"/>
      <use xlink:href="#DejaVuSans-73" x="426.806641"/>
      <use xlink:href="#DejaVuSans-74" x="478.90625"/>
      <use xlink:href="#DejaVuSans-64" x="518.115234"/>
     </g>
    </g>
   </g>
  </g>
 </g>
 <defs>
  <clipPath id="p14612f53ed">
   <rect x="44.66" y="26.88" width="1375.09" height="651.16"/>
  </clipPath>
 </defs>
</svg>
