<?xml version="1.0" encoding="utf-8" standalone="no"?>
<!DOCTYPE svg PUBLIC "-//W3C//DTD SVG 1.1//EN"
  "http://www.w3.org/Graphics/SVG/1.1/DTD/svg11.dtd">
<svg xmlns:xlink="http://www.w3.org/1999/xlink" width="1152pt" height="576pt" viewBox="0 0 1152 576" xmlns="http://www.w3.org/2000/svg" version="1.1">
 <metadata>
  <rdf:RDF xmlns:dc="http://purl.org/dc/elements/1.1/" xmlns:cc="http://creativecommons.org/ns#" xmlns:rdf="http://www.w3.org/1999/02/22-rdf-syntax-ns#">
   <cc:Work>
    <dc:type rdf:resource="http://purl.org/dc/dcmitype/StillImage"/>
    <dc:date>2025-04-26T15:46:21.816243</dc:date>
    <dc:format>image/svg+xml</dc:format>
    <dc:creator>
     <cc:Agent>
      <dc:title>Matplotlib v3.9.0, https://matplotlib.org/</dc:title>
     </cc:Agent>
    </dc:creator>
   </cc:Work>
  </rdf:RDF>
 </metadata>
 <defs>
  <style type="text/css">*{stroke-linejoin: round; stroke-linecap: butt}</style>
 </defs>
 <g id="figure_1">
  <g id="patch_1">
   <path d="M 0 576 
L 1152 576 
L 1152 0 
L 0 0 
z
" style="fill: #ffffff"/>
  </g>
  <g id="axes_1">
   <g id="patch_2">
    <path d="M 54.02 534.04 
L 1141.2 534.04 
L 1141.2 26.88 
L 54.02 26.88 
z
" style="fill: #ffffff"/>
   </g>
   <g id="matplotlib.axis_1">
    <g id="xtick_1">
     <g id="line2d_1">
      <defs>
       <path id="maf5542149f" d="M 0 0 
L 0 3.5 
" style="stroke: #000000; stroke-width: 0.8"/>
      </defs>
      <g>
       <use xlink:href="#maf5542149f" x="103.437273" y="534.04" style="stroke: #000000; stroke-width: 0.8"/>
      </g>
     </g>
     <g id="text_1">
      <!-- 0 -->
      <g transform="translate(100.256023 548.638438) scale(0.1 -0.1)">
       <defs>
        <path id="DejaVuSans-30" d="M 2034 4250 
Q 1547 4250 1301 3770 
Q 1056 3291 1056 2328 
Q 1056 1369 1301 889 
Q 1547 409 2034 409 
Q 2525 409 2770 889 
Q 3016 1369 3016 2328 
Q 3016 3291 2770 3770 
Q 2525 4250 2034 4250 
z
M 2034 4750 
Q 2819 4750 3233 4129 
Q 3647 3509 3647 2328 
Q 3647 1150 3233 529 
Q 2819 -91 2034 -91 
Q 1250 -91 836 529 
Q 422 1150 422 2328 
Q 422 3509 836 4129 
Q 1250 4750 2034 4750 
z
" transform="scale(0.015625)"/>
       </defs>
       <use xlink:href="#DejaVuSans-30"/>
      </g>
     </g>
    </g>
    <g id="xtick_2">
     <g id="line2d_2">
      <g>
       <use xlink:href="#maf5542149f" x="303.507203" y="534.04" style="stroke: #000000; stroke-width: 0.8"/>
      </g>
     </g>
     <g id="text_2">
      <!-- 50 -->
      <g transform="translate(297.144703 548.638438) scale(0.1 -0.1)">
       <defs>
        <path id="DejaVuSans-35" d="M 691 4666 
L 3169 4666 
L 3169 4134 
L 1269 4134 
L 1269 2991 
Q 1406 3038 1543 3061 
Q 1681 3084 1819 3084 
Q 2600 3084 3056 2656 
Q 3513 2228 3513 1497 
Q 3513 744 3044 326 
Q 2575 -91 1722 -91 
Q 1428 -91 1123 -41 
Q 819 9 494 109 
L 494 744 
Q 775 591 1075 516 
Q 1375 441 1709 441 
Q 2250 441 2565 725 
Q 2881 1009 2881 1497 
Q 2881 1984 2565 2268 
Q 2250 2553 1709 2553 
Q 1456 2553 1204 2497 
Q 953 2441 691 2322 
L 691 4666 
z
" transform="scale(0.015625)"/>
       </defs>
       <use xlink:href="#DejaVuSans-35"/>
       <use xlink:href="#DejaVuSans-30" x="63.623047"/>
      </g>
     </g>
    </g>
    <g id="xtick_3">
     <g id="line2d_3">
      <g>
       <use xlink:href="#maf5542149f" x="503.577133" y="534.04" style="stroke: #000000; stroke-width: 0.8"/>
      </g>
     </g>
     <g id="text_3">
      <!-- 100 -->
      <g transform="translate(494.033383 548.638438) scale(0.1 -0.1)">
       <defs>
        <path id="DejaVuSans-31" d="M 794 531 
L 1825 531 
L 1825 4091 
L 703 3866 
L 703 4441 
L 1819 4666 
L 2450 4666 
L 2450 531 
L 3481 531 
L 3481 0 
L 794 0 
L 794 531 
z
" transform="scale(0.015625)"/>
       </defs>
       <use xlink:href="#DejaVuSans-31"/>
       <use xlink:href="#DejaVuSans-30" x="63.623047"/>
       <use xlink:href="#DejaVuSans-30" x="127.246094"/>
      </g>
     </g>
    </g>
    <g id="xtick_4">
     <g id="line2d_4">
      <g>
       <use xlink:href="#maf5542149f" x="703.647063" y="534.04" style="stroke: #000000; stroke-width: 0.8"/>
      </g>
     </g>
     <g id="text_4">
      <!-- 150 -->
      <g transform="translate(694.103313 548.638438) scale(0.1 -0.1)">
       <use xlink:href="#DejaVuSans-31"/>
       <use xlink:href="#DejaVuSans-35" x="63.623047"/>
       <use xlink:href="#DejaVuSans-30" x="127.246094"/>
      </g>
     </g>
    </g>
    <g id="xtick_5">
     <g id="line2d_5">
      <g>
       <use xlink:href="#maf5542149f" x="903.716993" y="534.04" style="stroke: #000000; stroke-width: 0.8"/>
      </g>
     </g>
     <g id="text_5">
      <!-- 200 -->
      <g transform="translate(894.173243 548.638438) scale(0.1 -0.1)">
       <defs>
        <path id="DejaVuSans-32" d="M 1228 531 
L 3431 531 
L 3431 0 
L 469 0 
L 469 531 
Q 828 903 1448 1529 
Q 2069 2156 2228 2338 
Q 2531 2678 2651 2914 
Q 2772 3150 2772 3378 
Q 2772 3750 2511 3984 
Q 2250 4219 1831 4219 
Q 1534 4219 1204 4116 
Q 875 4013 500 3803 
L 500 4441 
Q 881 4594 1212 4672 
Q 1544 4750 1819 4750 
Q 2544 4750 2975 4387 
Q 3406 4025 3406 3419 
Q 3406 3131 3298 2873 
Q 3191 2616 2906 2266 
Q 2828 2175 2409 1742 
Q 1991 1309 1228 531 
z
" transform="scale(0.015625)"/>
       </defs>
       <use xlink:href="#DejaVuSans-32"/>
       <use xlink:href="#DejaVuSans-30" x="63.623047"/>
       <use xlink:href="#DejaVuSans-30" x="127.246094"/>
      </g>
     </g>
    </g>
    <g id="xtick_6">
     <g id="line2d_6">
      <g>
       <use xlink:href="#maf5542149f" x="1103.786923" y="534.04" style="stroke: #000000; stroke-width: 0.8"/>
      </g>
     </g>
     <g id="text_6">
      <!-- 250 -->
      <g transform="translate(1094.243173 548.638438) scale(0.1 -0.1)">
       <use xlink:href="#DejaVuSans-32"/>
       <use xlink:href="#DejaVuSans-35" x="63.623047"/>
       <use xlink:href="#DejaVuSans-30" x="127.246094"/>
      </g>
     </g>
    </g>
    <g id="text_7">
     <!-- File number -->
     <g transform="translate(568.138906 562.316562) scale(0.1 -0.1)">
      <defs>
       <path id="DejaVuSans-46" d="M 628 4666 
L 3309 4666 
L 3309 4134 
L 1259 4134 
L 1259 2759 
L 3109 2759 
L 3109 2228 
L 1259 2228 
L 1259 0 
L 628 0 
L 628 4666 
z
" transform="scale(0.015625)"/>
       <path id="DejaVuSans-69" d="M 603 3500 
L 1178 3500 
L 1178 0 
L 603 0 
L 603 3500 
z
M 603 4863 
L 1178 4863 
L 1178 4134 
L 603 4134 
L 603 4863 
z
" transform="scale(0.015625)"/>
       <path id="DejaVuSans-6c" d="M 603 4863 
L 1178 4863 
L 1178 0 
L 603 0 
L 603 4863 
z
" transform="scale(0.015625)"/>
       <path id="DejaVuSans-65" d="M 3597 1894 
L 3597 1613 
L 953 1613 
Q 991 1019 1311 708 
Q 1631 397 2203 397 
Q 2534 397 2845 478 
Q 3156 559 3463 722 
L 3463 178 
Q 3153 47 2828 -22 
Q 2503 -91 2169 -91 
Q 1331 -91 842 396 
Q 353 884 353 1716 
Q 353 2575 817 3079 
Q 1281 3584 2069 3584 
Q 2775 3584 3186 3129 
Q 3597 2675 3597 1894 
z
M 3022 2063 
Q 3016 2534 2758 2815 
Q 2500 3097 2075 3097 
Q 1594 3097 1305 2825 
Q 1016 2553 972 2059 
L 3022 2063 
z
" transform="scale(0.015625)"/>
       <path id="DejaVuSans-20" transform="scale(0.015625)"/>
       <path id="DejaVuSans-6e" d="M 3513 2113 
L 3513 0 
L 2938 0 
L 2938 2094 
Q 2938 2591 2744 2837 
Q 2550 3084 2163 3084 
Q 1697 3084 1428 2787 
Q 1159 2491 1159 1978 
L 1159 0 
L 581 0 
L 581 3500 
L 1159 3500 
L 1159 2956 
Q 1366 3272 1645 3428 
Q 1925 3584 2291 3584 
Q 2894 3584 3203 3211 
Q 3513 2838 3513 2113 
z
" transform="scale(0.015625)"/>
       <path id="DejaVuSans-75" d="M 544 1381 
L 544 3500 
L 1119 3500 
L 1119 1403 
Q 1119 906 1312 657 
Q 1506 409 1894 409 
Q 2359 409 2629 706 
Q 2900 1003 2900 1516 
L 2900 3500 
L 3475 3500 
L 3475 0 
L 2900 0 
L 2900 538 
Q 2691 219 2414 64 
Q 2138 -91 1772 -91 
Q 1169 -91 856 284 
Q 544 659 544 1381 
z
M 1991 3584 
L 1991 3584 
z
" transform="scale(0.015625)"/>
       <path id="DejaVuSans-6d" d="M 3328 2828 
Q 3544 3216 3844 3400 
Q 4144 3584 4550 3584 
Q 5097 3584 5394 3201 
Q 5691 2819 5691 2113 
L 5691 0 
L 5113 0 
L 5113 2094 
Q 5113 2597 4934 2840 
Q 4756 3084 4391 3084 
Q 3944 3084 3684 2787 
Q 3425 2491 3425 1978 
L 3425 0 
L 2847 0 
L 2847 2094 
Q 2847 2600 2669 2842 
Q 2491 3084 2119 3084 
Q 1678 3084 1418 2786 
Q 1159 2488 1159 1978 
L 1159 0 
L 581 0 
L 581 3500 
L 1159 3500 
L 1159 2956 
Q 1356 3278 1631 3431 
Q 1906 3584 2284 3584 
Q 2666 3584 2933 3390 
Q 3200 3197 3328 2828 
z
" transform="scale(0.015625)"/>
       <path id="DejaVuSans-62" d="M 3116 1747 
Q 3116 2381 2855 2742 
Q 2594 3103 2138 3103 
Q 1681 3103 1420 2742 
Q 1159 2381 1159 1747 
Q 1159 1113 1420 752 
Q 1681 391 2138 391 
Q 2594 391 2855 752 
Q 3116 1113 3116 1747 
z
M 1159 2969 
Q 1341 3281 1617 3432 
Q 1894 3584 2278 3584 
Q 2916 3584 3314 3078 
Q 3713 2572 3713 1747 
Q 3713 922 3314 415 
Q 2916 -91 2278 -91 
Q 1894 -91 1617 61 
Q 1341 213 1159 525 
L 1159 0 
L 581 0 
L 581 4863 
L 1159 4863 
L 1159 2969 
z
" transform="scale(0.015625)"/>
       <path id="DejaVuSans-72" d="M 2631 2963 
Q 2534 3019 2420 3045 
Q 2306 3072 2169 3072 
Q 1681 3072 1420 2755 
Q 1159 2438 1159 1844 
L 1159 0 
L 581 0 
L 581 3500 
L 1159 3500 
L 1159 2956 
Q 1341 3275 1631 3429 
Q 1922 3584 2338 3584 
Q 2397 3584 2469 3576 
Q 2541 3569 2628 3553 
L 2631 2963 
z
" transform="scale(0.015625)"/>
      </defs>
      <use xlink:href="#DejaVuSans-46"/>
      <use xlink:href="#DejaVuSans-69" x="50.269531"/>
      <use xlink:href="#DejaVuSans-6c" x="78.052734"/>
      <use xlink:href="#DejaVuSans-65" x="105.835938"/>
      <use xlink:href="#DejaVuSans-20" x="167.359375"/>
      <use xlink:href="#DejaVuSans-6e" x="199.146484"/>
      <use xlink:href="#DejaVuSans-75" x="262.525391"/>
      <use xlink:href="#DejaVuSans-6d" x="325.904297"/>
      <use xlink:href="#DejaVuSans-62" x="423.316406"/>
      <use xlink:href="#DejaVuSans-65" x="486.792969"/>
      <use xlink:href="#DejaVuSans-72" x="548.316406"/>
     </g>
    </g>
   </g>
   <g id="matplotlib.axis_2">
    <g id="ytick_1">
     <g id="line2d_7">
      <defs>
       <path id="m57eadce6c3" d="M 0 0 
L -3.5 0 
" style="stroke: #000000; stroke-width: 0.8"/>
      </defs>
      <g>
       <use xlink:href="#m57eadce6c3" x="54.02" y="513.677873" style="stroke: #000000; stroke-width: 0.8"/>
      </g>
     </g>
     <g id="text_8">
      <!-- 0.00 -->
      <g transform="translate(24.754375 517.477092) scale(0.1 -0.1)">
       <defs>
        <path id="DejaVuSans-2e" d="M 684 794 
L 1344 794 
L 1344 0 
L 684 0 
L 684 794 
z
" transform="scale(0.015625)"/>
       </defs>
       <use xlink:href="#DejaVuSans-30"/>
       <use xlink:href="#DejaVuSans-2e" x="63.623047"/>
       <use xlink:href="#DejaVuSans-30" x="95.410156"/>
       <use xlink:href="#DejaVuSans-30" x="159.033203"/>
      </g>
     </g>
    </g>
    <g id="ytick_2">
     <g id="line2d_8">
      <g>
       <use xlink:href="#m57eadce6c3" x="54.02" y="451.582316" style="stroke: #000000; stroke-width: 0.8"/>
      </g>
     </g>
     <g id="text_9">
      <!-- 0.02 -->
      <g transform="translate(24.754375 455.381535) scale(0.1 -0.1)">
       <use xlink:href="#DejaVuSans-30"/>
       <use xlink:href="#DejaVuSans-2e" x="63.623047"/>
       <use xlink:href="#DejaVuSans-30" x="95.410156"/>
       <use xlink:href="#DejaVuSans-32" x="159.033203"/>
      </g>
     </g>
    </g>
    <g id="ytick_3">
     <g id="line2d_9">
      <g>
       <use xlink:href="#m57eadce6c3" x="54.02" y="389.486759" style="stroke: #000000; stroke-width: 0.8"/>
      </g>
     </g>
     <g id="text_10">
      <!-- 0.04 -->
      <g transform="translate(24.754375 393.285977) scale(0.1 -0.1)">
       <defs>
        <path id="DejaVuSans-34" d="M 2419 4116 
L 825 1625 
L 2419 1625 
L 2419 4116 
z
M 2253 4666 
L 3047 4666 
L 3047 1625 
L 3713 1625 
L 3713 1100 
L 3047 1100 
L 3047 0 
L 2419 0 
L 2419 1100 
L 313 1100 
L 313 1709 
L 2253 4666 
z
" transform="scale(0.015625)"/>
       </defs>
       <use xlink:href="#DejaVuSans-30"/>
       <use xlink:href="#DejaVuSans-2e" x="63.623047"/>
       <use xlink:href="#DejaVuSans-30" x="95.410156"/>
       <use xlink:href="#DejaVuSans-34" x="159.033203"/>
      </g>
     </g>
    </g>
    <g id="ytick_4">
     <g id="line2d_10">
      <g>
       <use xlink:href="#m57eadce6c3" x="54.02" y="327.391201" style="stroke: #000000; stroke-width: 0.8"/>
      </g>
     </g>
     <g id="text_11">
      <!-- 0.06 -->
      <g transform="translate(24.754375 331.19042) scale(0.1 -0.1)">
       <defs>
        <path id="DejaVuSans-36" d="M 2113 2584 
Q 1688 2584 1439 2293 
Q 1191 2003 1191 1497 
Q 1191 994 1439 701 
Q 1688 409 2113 409 
Q 2538 409 2786 701 
Q 3034 994 3034 1497 
Q 3034 2003 2786 2293 
Q 2538 2584 2113 2584 
z
M 3366 4563 
L 3366 3988 
Q 3128 4100 2886 4159 
Q 2644 4219 2406 4219 
Q 1781 4219 1451 3797 
Q 1122 3375 1075 2522 
Q 1259 2794 1537 2939 
Q 1816 3084 2150 3084 
Q 2853 3084 3261 2657 
Q 3669 2231 3669 1497 
Q 3669 778 3244 343 
Q 2819 -91 2113 -91 
Q 1303 -91 875 529 
Q 447 1150 447 2328 
Q 447 3434 972 4092 
Q 1497 4750 2381 4750 
Q 2619 4750 2861 4703 
Q 3103 4656 3366 4563 
z
" transform="scale(0.015625)"/>
       </defs>
       <use xlink:href="#DejaVuSans-30"/>
       <use xlink:href="#DejaVuSans-2e" x="63.623047"/>
       <use xlink:href="#DejaVuSans-30" x="95.410156"/>
       <use xlink:href="#DejaVuSans-36" x="159.033203"/>
      </g>
     </g>
    </g>
    <g id="ytick_5">
     <g id="line2d_11">
      <g>
       <use xlink:href="#m57eadce6c3" x="54.02" y="265.295644" style="stroke: #000000; stroke-width: 0.8"/>
      </g>
     </g>
     <g id="text_12">
      <!-- 0.08 -->
      <g transform="translate(24.754375 269.094863) scale(0.1 -0.1)">
       <defs>
        <path id="DejaVuSans-38" d="M 2034 2216 
Q 1584 2216 1326 1975 
Q 1069 1734 1069 1313 
Q 1069 891 1326 650 
Q 1584 409 2034 409 
Q 2484 409 2743 651 
Q 3003 894 3003 1313 
Q 3003 1734 2745 1975 
Q 2488 2216 2034 2216 
z
M 1403 2484 
Q 997 2584 770 2862 
Q 544 3141 544 3541 
Q 544 4100 942 4425 
Q 1341 4750 2034 4750 
Q 2731 4750 3128 4425 
Q 3525 4100 3525 3541 
Q 3525 3141 3298 2862 
Q 3072 2584 2669 2484 
Q 3125 2378 3379 2068 
Q 3634 1759 3634 1313 
Q 3634 634 3220 271 
Q 2806 -91 2034 -91 
Q 1263 -91 848 271 
Q 434 634 434 1313 
Q 434 1759 690 2068 
Q 947 2378 1403 2484 
z
M 1172 3481 
Q 1172 3119 1398 2916 
Q 1625 2713 2034 2713 
Q 2441 2713 2670 2916 
Q 2900 3119 2900 3481 
Q 2900 3844 2670 4047 
Q 2441 4250 2034 4250 
Q 1625 4250 1398 4047 
Q 1172 3844 1172 3481 
z
" transform="scale(0.015625)"/>
       </defs>
       <use xlink:href="#DejaVuSans-30"/>
       <use xlink:href="#DejaVuSans-2e" x="63.623047"/>
       <use xlink:href="#DejaVuSans-30" x="95.410156"/>
       <use xlink:href="#DejaVuSans-38" x="159.033203"/>
      </g>
     </g>
    </g>
    <g id="ytick_6">
     <g id="line2d_12">
      <g>
       <use xlink:href="#m57eadce6c3" x="54.02" y="203.200087" style="stroke: #000000; stroke-width: 0.8"/>
      </g>
     </g>
     <g id="text_13">
      <!-- 0.10 -->
      <g transform="translate(24.754375 206.999305) scale(0.1 -0.1)">
       <use xlink:href="#DejaVuSans-30"/>
       <use xlink:href="#DejaVuSans-2e" x="63.623047"/>
       <use xlink:href="#DejaVuSans-31" x="95.410156"/>
       <use xlink:href="#DejaVuSans-30" x="159.033203"/>
      </g>
     </g>
    </g>
    <g id="ytick_7">
     <g id="line2d_13">
      <g>
       <use xlink:href="#m57eadce6c3" x="54.02" y="141.104529" style="stroke: #000000; stroke-width: 0.8"/>
      </g>
     </g>
     <g id="text_14">
      <!-- 0.12 -->
      <g transform="translate(24.754375 144.903748) scale(0.1 -0.1)">
       <use xlink:href="#DejaVuSans-30"/>
       <use xlink:href="#DejaVuSans-2e" x="63.623047"/>
       <use xlink:href="#DejaVuSans-31" x="95.410156"/>
       <use xlink:href="#DejaVuSans-32" x="159.033203"/>
      </g>
     </g>
    </g>
    <g id="ytick_8">
     <g id="line2d_14">
      <g>
       <use xlink:href="#m57eadce6c3" x="54.02" y="79.008972" style="stroke: #000000; stroke-width: 0.8"/>
      </g>
     </g>
     <g id="text_15">
      <!-- 0.14 -->
      <g transform="translate(24.754375 82.808191) scale(0.1 -0.1)">
       <use xlink:href="#DejaVuSans-30"/>
       <use xlink:href="#DejaVuSans-2e" x="63.623047"/>
       <use xlink:href="#DejaVuSans-31" x="95.410156"/>
       <use xlink:href="#DejaVuSans-34" x="159.033203"/>
      </g>
     </g>
    </g>
    <g id="text_16">
     <!-- Seconds -->
     <g transform="translate(18.674687 301.467031) rotate(-90) scale(0.1 -0.1)">
      <defs>
       <path id="DejaVuSans-53" d="M 3425 4513 
L 3425 3897 
Q 3066 4069 2747 4153 
Q 2428 4238 2131 4238 
Q 1616 4238 1336 4038 
Q 1056 3838 1056 3469 
Q 1056 3159 1242 3001 
Q 1428 2844 1947 2747 
L 2328 2669 
Q 3034 2534 3370 2195 
Q 3706 1856 3706 1288 
Q 3706 609 3251 259 
Q 2797 -91 1919 -91 
Q 1588 -91 1214 -16 
Q 841 59 441 206 
L 441 856 
Q 825 641 1194 531 
Q 1563 422 1919 422 
Q 2459 422 2753 634 
Q 3047 847 3047 1241 
Q 3047 1584 2836 1778 
Q 2625 1972 2144 2069 
L 1759 2144 
Q 1053 2284 737 2584 
Q 422 2884 422 3419 
Q 422 4038 858 4394 
Q 1294 4750 2059 4750 
Q 2388 4750 2728 4690 
Q 3069 4631 3425 4513 
z
" transform="scale(0.015625)"/>
       <path id="DejaVuSans-63" d="M 3122 3366 
L 3122 2828 
Q 2878 2963 2633 3030 
Q 2388 3097 2138 3097 
Q 1578 3097 1268 2742 
Q 959 2388 959 1747 
Q 959 1106 1268 751 
Q 1578 397 2138 397 
Q 2388 397 2633 464 
Q 2878 531 3122 666 
L 3122 134 
Q 2881 22 2623 -34 
Q 2366 -91 2075 -91 
Q 1284 -91 818 406 
Q 353 903 353 1747 
Q 353 2603 823 3093 
Q 1294 3584 2113 3584 
Q 2378 3584 2631 3529 
Q 2884 3475 3122 3366 
z
" transform="scale(0.015625)"/>
       <path id="DejaVuSans-6f" d="M 1959 3097 
Q 1497 3097 1228 2736 
Q 959 2375 959 1747 
Q 959 1119 1226 758 
Q 1494 397 1959 397 
Q 2419 397 2687 759 
Q 2956 1122 2956 1747 
Q 2956 2369 2687 2733 
Q 2419 3097 1959 3097 
z
M 1959 3584 
Q 2709 3584 3137 3096 
Q 3566 2609 3566 1747 
Q 3566 888 3137 398 
Q 2709 -91 1959 -91 
Q 1206 -91 779 398 
Q 353 888 353 1747 
Q 353 2609 779 3096 
Q 1206 3584 1959 3584 
z
" transform="scale(0.015625)"/>
       <path id="DejaVuSans-64" d="M 2906 2969 
L 2906 4863 
L 3481 4863 
L 3481 0 
L 2906 0 
L 2906 525 
Q 2725 213 2448 61 
Q 2172 -91 1784 -91 
Q 1150 -91 751 415 
Q 353 922 353 1747 
Q 353 2572 751 3078 
Q 1150 3584 1784 3584 
Q 2172 3584 2448 3432 
Q 2725 3281 2906 2969 
z
M 947 1747 
Q 947 1113 1208 752 
Q 1469 391 1925 391 
Q 2381 391 2643 752 
Q 2906 1113 2906 1747 
Q 2906 2381 2643 2742 
Q 2381 3103 1925 3103 
Q 1469 3103 1208 2742 
Q 947 2381 947 1747 
z
" transform="scale(0.015625)"/>
       <path id="DejaVuSans-73" d="M 2834 3397 
L 2834 2853 
Q 2591 2978 2328 3040 
Q 2066 3103 1784 3103 
Q 1356 3103 1142 2972 
Q 928 2841 928 2578 
Q 928 2378 1081 2264 
Q 1234 2150 1697 2047 
L 1894 2003 
Q 2506 1872 2764 1633 
Q 3022 1394 3022 966 
Q 3022 478 2636 193 
Q 2250 -91 1575 -91 
Q 1294 -91 989 -36 
Q 684 19 347 128 
L 347 722 
Q 666 556 975 473 
Q 1284 391 1588 391 
Q 1994 391 2212 530 
Q 2431 669 2431 922 
Q 2431 1156 2273 1281 
Q 2116 1406 1581 1522 
L 1381 1569 
Q 847 1681 609 1914 
Q 372 2147 372 2553 
Q 372 3047 722 3315 
Q 1072 3584 1716 3584 
Q 2034 3584 2315 3537 
Q 2597 3491 2834 3397 
z
" transform="scale(0.015625)"/>
      </defs>
      <use xlink:href="#DejaVuSans-53"/>
      <use xlink:href="#DejaVuSans-65" x="63.476562"/>
      <use xlink:href="#DejaVuSans-63" x="125"/>
      <use xlink:href="#DejaVuSans-6f" x="179.980469"/>
      <use xlink:href="#DejaVuSans-6e" x="241.162109"/>
      <use xlink:href="#DejaVuSans-64" x="304.541016"/>
      <use xlink:href="#DejaVuSans-73" x="368.017578"/>
     </g>
    </g>
   </g>
   <g id="line2d_15">
    <path d="M 103.437273 510.805333 
L 107.438671 510.952189 
L 111.44007 510.740753 
L 115.441469 510.987273 
L 119.442867 510.792603 
L 123.444266 510.110173 
L 127.445664 510.759072 
L 131.447063 510.05615 
L 135.448462 510.524971 
L 139.44986 509.717419 
L 143.451259 509.966111 
L 147.452657 510.08223 
L 151.454056 509.772373 
L 155.455455 509.942825 
L 159.456853 509.469347 
L 163.458252 509.747535 
L 167.45965 509.766785 
L 171.461049 509.670226 
L 175.462448 509.071314 
L 179.463846 509.391106 
L 183.465245 510.028207 
L 187.466643 508.849944 
L 191.468042 508.155094 
L 195.469441 505.698284 
L 199.470839 507.150699 
L 203.472238 505.90382 
L 207.473636 505.860664 
L 215.476434 505.967468 
L 219.477832 505.457042 
L 223.479231 505.843587 
L 227.480629 506.512667 
L 231.482028 507.500297 
L 235.483427 505.856006 
L 239.484825 505.924622 
L 243.486224 505.833341 
L 247.487622 505.33844 
L 255.49042 506.91753 
L 259.491818 508.482959 
L 263.493217 506.117118 
L 267.494615 505.703562 
L 271.496014 506.399963 
L 275.497413 506.065579 
L 279.498811 506.085449 
L 283.50021 507.488188 
L 287.501608 506.649277 
L 291.503007 505.94263 
L 295.504406 507.655846 
L 299.505804 506.211814 
L 307.508601 506.500248 
L 311.51 507.048241 
L 315.511399 507.184851 
L 319.512797 506.180766 
L 323.514196 505.859732 
L 327.515594 505.834894 
L 331.516993 506.381024 
L 335.518392 507.764203 
L 339.51979 506.49528 
L 347.522587 507.279547 
L 351.523986 505.968089 
L 355.525385 508.266556 
L 359.526783 507.672922 
L 363.528182 506.956029 
L 367.52958 507.277063 
L 371.530979 506.726586 
L 375.532378 508.558715 
L 379.533776 506.073962 
L 387.536573 506.589976 
L 391.537972 507.220556 
L 395.539371 506.213677 
L 399.540769 506.731864 
L 403.542168 506.256833 
L 407.543566 507.156287 
L 411.544965 506.980557 
L 415.546364 505.907546 
L 419.547762 506.718824 
L 423.549161 507.292898 
L 427.550559 507.273027 
L 431.551958 506.447156 
L 435.553357 506.753908 
L 439.554755 507.964151 
L 443.556154 506.603016 
L 447.557552 507.102885 
L 451.558951 506.234479 
L 455.56035 506.240067 
L 459.561748 505.831789 
L 463.563147 507.250673 
L 467.564545 506.247829 
L 471.565944 507.735949 
L 475.567343 507.915095 
L 479.568741 506.923429 
L 483.57014 506.789613 
L 487.571538 506.137299 
L 491.572937 506.832149 
L 495.574336 506.636237 
L 499.575734 506.639342 
L 503.577133 507.09978 
L 507.578531 507.267128 
L 511.57993 507.218072 
L 515.581329 507.559908 
L 519.582727 506.772226 
L 523.584126 507.777553 
L 527.585524 506.799238 
L 531.586923 507.904849 
L 535.588322 506.807931 
L 543.591119 507.919752 
L 547.592517 508.14578 
L 555.595315 506.462059 
L 559.596713 506.888345 
L 563.598112 507.52824 
L 567.59951 506.381645 
L 571.600909 507.590335 
L 575.602308 507.26837 
L 579.603706 508.096414 
L 583.605105 508.056052 
L 587.606503 506.945162 
L 591.607902 507.088293 
L 595.609301 506.949199 
L 599.610699 506.600532 
L 603.612098 507.35313 
L 607.613497 506.544957 
L 611.614895 507.994267 
L 615.616294 506.497764 
L 619.617692 506.74211 
L 627.62049 506.801101 
L 631.621888 506.209641 
L 635.623287 506.666664 
L 639.624685 506.957892 
L 643.626084 506.717582 
L 647.627483 508.115974 
L 651.628881 507.922236 
L 655.63028 505.984234 
L 659.631678 506.775952 
L 663.633077 507.352199 
L 671.635874 507.300039 
L 675.637273 507.819468 
L 679.638671 507.150699 
L 683.64007 507.493466 
L 687.641469 506.775331 
L 691.642867 507.426403 
L 695.644266 507.074321 
L 699.645664 507.313079 
L 703.647063 507.228939 
L 707.648462 506.881825 
L 711.64986 507.420193 
L 715.651259 507.709248 
L 719.652657 506.414866 
L 727.655455 507.241979 
L 735.658252 506.680014 
L 739.65965 507.894603 
L 743.661049 507.282652 
L 747.662448 507.449999 
L 751.663846 506.567621 
L 755.665245 507.001669 
L 759.666643 507.955768 
L 763.668042 507.395045 
L 767.669441 506.457712 
L 771.670839 506.548682 
L 775.672238 506.373883 
L 779.673636 507.057555 
L 783.675035 507.276442 
L 787.676434 507.009742 
L 791.677832 506.877168 
L 795.679231 507.569223 
L 799.680629 507.871007 
L 803.682028 507.259366 
L 807.683427 507.003532 
L 811.684825 506.618229 
L 815.686224 506.499627 
L 819.687622 507.205343 
L 823.689021 506.331037 
L 831.691818 507.220867 
L 835.693217 506.172383 
L 839.694615 505.724674 
L 843.696014 506.74242 
L 847.697413 507.404049 
L 851.698811 506.62537 
L 855.70021 507.187025 
L 859.701608 507.503712 
L 863.703007 507.673854 
L 867.704406 507.121203 
L 871.705804 507.448136 
L 875.707203 507.211242 
L 883.71 507.764513 
L 887.711399 507.297244 
L 895.714196 507.725393 
L 899.715594 507.131449 
L 903.716993 507.197891 
L 907.718392 506.988629 
L 911.71979 507.342574 
L 915.721189 506.408967 
L 919.722587 507.649016 
L 923.723986 506.829354 
L 927.725385 507.104438 
L 931.726783 506.764154 
L 935.728182 507.566428 
L 939.72958 508.150748 
L 943.730979 507.783763 
L 947.732378 506.798306 
L 951.733776 507.173364 
L 955.735175 507.019367 
L 967.739371 507.417399 
L 971.740769 506.840842 
L 975.742168 507.23577 
L 979.743566 507.308111 
L 983.744965 506.622576 
L 987.746364 506.453366 
L 991.747762 506.856366 
L 999.750559 507.390077 
L 1003.751958 507.651189 
L 1007.753357 507.347852 
L 1011.754755 507.259676 
L 1015.756154 506.535642 
L 1019.757552 507.813569 
L 1023.758951 507.064075 
L 1027.76035 507.800218 
L 1031.761748 507.652741 
L 1035.763147 508.04177 
L 1039.764545 507.409948 
L 1043.765944 506.602084 
L 1047.767343 507.369896 
L 1051.768741 506.865059 
L 1055.77014 507.306559 
L 1059.771538 507.490982 
L 1063.772937 507.551526 
L 1067.774336 507.409637 
L 1071.775734 507.40498 
L 1075.777133 507.713595 
L 1079.778531 507.142316 
L 1087.781329 507.000738 
L 1091.782727 507.468628 
L 1091.782727 507.468628 
" clip-path="url(#p61834436ee)" style="fill: none; stroke: #1f77b4; stroke-width: 5; stroke-linecap: square"/>
   </g>
   <g id="line2d_16">
    <path d="M 103.437273 510.562539 
L 107.438671 510.64078 
L 111.44007 510.533044 
L 115.441469 510.781736 
L 119.442867 510.601659 
L 123.444266 509.812425 
L 127.445664 510.565333 
L 131.447063 509.745672 
L 135.448462 510.289319 
L 139.44986 509.364716 
L 143.451259 509.239283 
L 147.452657 509.735426 
L 151.454056 509.455996 
L 155.455455 509.611235 
L 159.456853 509.129684 
L 163.458252 509.5302 
L 171.461049 509.361922 
L 175.462448 508.631678 
L 179.463846 509.067589 
L 183.465245 509.817392 
L 187.466643 508.400061 
L 191.468042 507.730671 
L 195.469441 504.696061 
L 199.470839 506.680635 
L 203.472238 504.964935 
L 211.475035 505.154327 
L 215.476434 505.339061 
L 219.477832 504.657562 
L 223.479231 505.105271 
L 227.480629 505.684312 
L 231.482028 506.93709 
L 235.483427 505.079812 
L 243.486224 505.120795 
L 247.487622 504.638933 
L 251.489021 505.376318 
L 255.49042 506.330416 
L 259.491818 507.870076 
L 263.493217 505.381286 
L 267.494615 504.958105 
L 271.496014 505.657301 
L 279.498811 505.211454 
L 283.50021 507.159392 
L 287.501608 506.009382 
L 291.503007 505.324158 
L 295.504406 507.568291 
L 299.505804 505.539629 
L 307.508601 505.794532 
L 311.51 506.425112 
L 315.511399 506.658281 
L 319.512797 505.563536 
L 327.515594 505.032619 
L 331.516993 505.787391 
L 335.518392 507.303454 
L 339.51979 505.896989 
L 347.522587 506.599911 
L 351.523986 505.154948 
L 355.525385 507.816363 
L 359.526783 507.258745 
L 363.528182 506.321102 
L 367.52958 506.814141 
L 371.530979 505.964053 
L 375.532378 508.12653 
L 379.533776 505.394326 
L 383.535175 505.508582 
L 387.536573 505.988891 
L 391.537972 506.676599 
L 395.539371 505.504235 
L 399.540769 506.104078 
L 403.542168 505.561363 
L 407.543566 506.439705 
L 411.544965 506.33259 
L 415.546364 505.178544 
L 419.547762 506.11836 
L 423.549161 506.508941 
L 427.550559 506.705784 
L 431.551958 505.667857 
L 435.553357 506.181698 
L 439.554755 507.487257 
L 443.556154 505.96902 
L 447.557552 506.530985 
L 451.558951 505.680276 
L 455.56035 505.706977 
L 459.561748 505.003124 
L 463.563147 506.725034 
L 467.564545 505.722501 
L 471.565944 507.17119 
L 475.567343 507.36586 
L 479.568741 506.304957 
L 483.57014 506.069615 
L 487.571538 505.464494 
L 491.572937 506.331037 
L 495.574336 505.98206 
L 499.575734 506.002241 
L 503.577133 506.429148 
L 507.578531 506.697401 
L 511.57993 506.538126 
L 515.581329 506.820971 
L 519.582727 506.382887 
L 523.584126 507.261539 
L 527.585524 506.143198 
L 531.586923 507.431992 
L 535.588322 506.252486 
L 539.58972 506.741489 
L 543.591119 507.45683 
L 547.592517 507.685652 
L 551.593916 506.710131 
L 555.595315 505.513239 
L 559.596713 506.467027 
L 563.598112 506.822213 
L 567.59951 505.824027 
L 571.600909 507.123998 
L 575.602308 506.557997 
L 579.603706 507.660193 
L 583.605105 507.718252 
L 587.606503 506.387544 
L 591.607902 506.558307 
L 595.609301 506.495591 
L 599.610699 505.825269 
L 603.612098 506.759186 
L 607.613497 506.087933 
L 611.614895 507.512095 
L 615.616294 505.838309 
L 619.617692 506.117118 
L 623.619091 505.959085 
L 627.62049 506.211503 
L 631.621888 505.595515 
L 635.623287 505.972436 
L 639.624685 506.47572 
L 643.626084 506.158412 
L 647.627483 507.666402 
L 651.628881 507.563634 
L 655.63028 505.317017 
L 659.631678 506.324207 
L 663.633077 506.807621 
L 667.634476 506.71634 
L 671.635874 506.770674 
L 675.637273 507.301591 
L 679.638671 506.361154 
L 683.64007 506.943921 
L 687.641469 506.129537 
L 691.642867 506.860092 
L 695.644266 506.52788 
L 699.645664 506.757323 
L 703.647063 506.662938 
L 707.648462 506.184802 
L 715.651259 507.214347 
L 719.652657 505.777455 
L 723.654056 506.118671 
L 727.655455 506.657039 
L 731.656853 506.392201 
L 735.658252 505.968399 
L 739.65965 507.370517 
L 743.661049 506.614193 
L 747.662448 506.788061 
L 751.663846 505.930521 
L 755.665245 506.715409 
L 759.666643 507.673854 
L 763.668042 506.856676 
L 767.669441 505.882397 
L 771.670839 505.935489 
L 775.672238 505.555464 
L 779.673636 506.530054 
L 783.675035 506.678152 
L 791.677832 506.361775 
L 799.680629 507.494708 
L 803.682028 506.567311 
L 807.683427 506.127985 
L 811.684825 504.567213 
L 815.686224 505.784596 
L 819.687622 506.539057 
L 823.689021 505.339682 
L 827.69042 506.169278 
L 831.691818 506.715719 
L 835.693217 505.456421 
L 839.694615 505.249954 
L 843.696014 506.168968 
L 847.697413 506.894555 
L 851.698811 505.885191 
L 855.70021 506.562964 
L 859.701608 507.077736 
L 863.703007 507.231423 
L 867.704406 506.464543 
L 871.705804 507.061902 
L 875.707203 506.752977 
L 879.708601 506.698954 
L 883.71 507.300349 
L 887.711399 506.646483 
L 891.712797 506.76167 
L 895.714196 507.250362 
L 899.715594 506.643378 
L 907.718392 506.38444 
L 911.71979 506.475099 
L 915.721189 505.714739 
L 919.722587 507.025887 
L 923.723986 506.302473 
L 927.725385 506.444672 
L 931.726783 506.2025 
L 935.728182 507.090156 
L 939.72958 507.32705 
L 943.730979 507.347542 
L 947.732378 506.197532 
L 951.733776 506.485966 
L 955.735175 506.350597 
L 959.736573 506.600532 
L 963.737972 507.030233 
L 967.739371 506.864749 
L 971.740769 506.331037 
L 975.742168 506.711683 
L 979.743566 506.723171 
L 983.744965 505.777455 
L 987.746364 505.811919 
L 995.749161 506.658591 
L 999.750559 506.606121 
L 1003.751958 507.134864 
L 1007.753357 506.804206 
L 1011.754755 506.836495 
L 1015.756154 506.223923 
L 1019.757552 507.176468 
L 1023.758951 506.401826 
L 1027.76035 507.419572 
L 1031.761748 507.232975 
L 1035.763147 507.651189 
L 1039.764545 506.894555 
L 1043.765944 506.018697 
L 1047.767343 507.029923 
L 1051.768741 506.320792 
L 1055.77014 506.741179 
L 1059.771538 506.954787 
L 1067.774336 506.875305 
L 1071.775734 506.879031 
L 1075.777133 507.237012 
L 1079.778531 506.628475 
L 1083.77993 507.005706 
L 1087.781329 506.514219 
L 1091.782727 506.798617 
L 1091.782727 506.798617 
" clip-path="url(#p61834436ee)" style="fill: none; stroke: #ff7f0e; stroke-width: 1.5; stroke-linecap: square"/>
   </g>
   <g id="line2d_17">
    <path d="M 103.437273 508.34045 
L 107.438671 508.456258 
L 111.44007 507.889015 
L 115.441469 509.009529 
L 119.442867 508.172792 
L 123.444266 506.101284 
L 127.445664 508.144849 
L 131.447063 505.948218 
L 135.448462 507.50868 
L 139.44986 503.419066 
L 143.451259 504.872723 
L 147.452657 505.028273 
L 151.454056 503.671795 
L 155.455455 504.757225 
L 159.456853 502.874488 
L 163.458252 504.647937 
L 167.45965 504.193087 
L 171.461049 503.082819 
L 175.462448 500.915063 
L 179.463846 502.730426 
L 183.465245 506.075204 
L 187.466643 501.434803 
L 191.468042 499.157759 
L 195.469441 492.811593 
L 199.470839 496.958955 
L 203.472238 493.890813 
L 207.473636 493.766622 
L 211.475035 494.085173 
L 215.476434 494.841186 
L 219.477832 492.351775 
L 223.479231 493.908821 
L 227.480629 496.025038 
L 231.482028 497.952794 
L 235.483427 494.178937 
L 239.484825 494.412416 
L 243.486224 493.943595 
L 247.487622 492.736147 
L 251.489021 494.964135 
L 255.49042 496.717403 
L 259.491818 500.903575 
L 263.493217 494.86323 
L 267.494615 494.067786 
L 275.497413 495.122168 
L 279.498811 495.040513 
L 283.50021 498.325057 
L 287.501608 496.750314 
L 291.503007 494.741833 
L 295.504406 500.041689 
L 299.505804 494.880927 
L 303.507203 494.604912 
L 307.508601 494.732208 
L 311.51 496.525528 
L 315.511399 497.389277 
L 319.512797 495.575466 
L 323.514196 495.035855 
L 327.515594 493.930244 
L 331.516993 494.571381 
L 335.518392 499.055922 
L 339.51979 495.303177 
L 343.521189 495.668299 
L 347.522587 497.120714 
L 351.523986 494.579764 
L 355.525385 500.90016 
L 359.526783 498.497372 
L 363.528182 496.750935 
L 367.52958 497.603817 
L 371.530979 495.749333 
L 375.532378 501.453742 
L 379.533776 494.667939 
L 383.535175 494.281705 
L 387.536573 495.221521 
L 391.537972 497.205474 
L 395.539371 494.644964 
L 399.540769 495.670162 
L 403.542168 495.514923 
L 407.543566 496.666795 
L 411.544965 495.400046 
L 415.546364 494.540643 
L 419.547762 496.246408 
L 423.549161 497.721799 
L 427.550559 497.628966 
L 431.551958 491.719021 
L 435.553357 494.687499 
L 439.554755 499.744562 
L 443.556154 494.706128 
L 447.557552 496.993107 
L 451.558951 493.958498 
L 459.561748 493.565122 
L 463.563147 497.160765 
L 467.564545 493.702664 
L 471.565944 498.755069 
L 475.567343 499.648624 
L 479.568741 494.615469 
L 483.57014 495.716423 
L 487.571538 494.549026 
L 491.572937 496.291428 
L 495.574336 495.726979 
L 499.575734 494.099144 
L 503.577133 496.788503 
L 507.578531 497.088114 
L 511.57993 496.287702 
L 515.581329 496.939705 
L 519.582727 495.617691 
L 523.584126 499.346529 
L 527.585524 495.951765 
L 531.586923 499.497111 
L 535.588322 495.85086 
L 543.591119 499.207125 
L 547.592517 500.440032 
L 551.593916 496.972926 
L 555.595315 495.633525 
L 563.598112 497.587051 
L 567.59951 494.526051 
L 571.600909 498.265445 
L 575.602308 497.765887 
L 579.603706 500.123965 
L 583.605105 499.980835 
L 587.606503 495.744987 
L 591.607902 496.434868 
L 595.609301 496.270315 
L 599.610699 493.764449 
L 603.612098 498.171992 
L 607.613497 495.735051 
L 611.614895 499.795169 
L 615.616294 493.59617 
L 619.617692 495.401288 
L 627.62049 495.750575 
L 631.621888 495.210965 
L 635.623287 493.701732 
L 639.624685 495.352853 
L 643.626084 494.034254 
L 647.627483 500.377005 
L 651.628881 500.276721 
L 655.63028 494.724136 
L 659.631678 495.140797 
L 663.633077 497.517194 
L 667.634476 496.199216 
L 671.635874 496.492307 
L 675.637273 498.857527 
L 679.638671 495.267161 
L 683.64007 498.161435 
L 687.641469 495.585712 
L 691.642867 497.450441 
L 695.644266 496.582345 
L 699.645664 497.078178 
L 703.647063 497.401386 
L 707.648462 495.882839 
L 711.64986 498.088784 
L 715.651259 498.675587 
L 719.652657 492.739251 
L 723.654056 496.103589 
L 727.655455 497.154556 
L 731.656853 496.129979 
L 735.658252 495.570498 
L 739.65965 500.077704 
L 743.661049 497.276884 
L 747.662448 497.997814 
L 751.663846 493.785251 
L 755.665245 495.328947 
L 759.666643 500.38663 
L 763.668042 496.310988 
L 767.669441 495.106023 
L 771.670839 493.157465 
L 775.672238 494.619815 
L 779.673636 496.365632 
L 783.675035 497.428087 
L 787.676434 496.125012 
L 791.677832 495.945555 
L 795.679231 498.726815 
L 799.680629 499.99015 
L 803.682028 495.741882 
L 807.683427 496.397611 
L 811.684825 495.452517 
L 815.686224 493.936454 
L 819.687622 496.998696 
L 823.689021 495.43544 
L 827.69042 495.352853 
L 831.691818 497.028191 
L 835.693217 495.676371 
L 839.694615 495.306282 
L 843.696014 495.213449 
L 847.697413 497.627414 
L 851.698811 495.301624 
L 855.70021 496.842215 
L 859.701608 497.960867 
L 863.703007 499.252454 
L 867.704406 496.062295 
L 871.705804 498.034139 
L 875.707203 497.56035 
L 879.708601 498.136287 
L 883.71 499.217681 
L 887.711399 497.505085 
L 891.712797 497.955899 
L 895.714196 499.058095 
L 899.715594 497.207337 
L 903.716993 498.225704 
L 907.718392 495.627626 
L 911.71979 496.120044 
L 915.721189 495.665815 
L 919.722587 498.979544 
L 923.723986 496.165063 
L 927.725385 496.319371 
L 931.726783 496.048324 
L 935.728182 498.53494 
L 939.72958 501.332655 
L 943.730979 499.968727 
L 947.732378 494.703023 
L 951.733776 497.076936 
L 955.735175 496.730443 
L 959.736573 496.690081 
L 963.737972 498.107412 
L 967.739371 498.012717 
L 971.740769 497.009873 
L 975.742168 496.837558 
L 979.743566 497.270985 
L 983.744965 494.959167 
L 987.746364 494.964756 
L 991.747762 494.190735 
L 995.749161 497.719936 
L 1003.751958 499.232584 
L 1007.753357 497.475279 
L 1011.754755 498.575302 
L 1015.756154 496.220639 
L 1019.757552 500.518893 
L 1023.758951 496.668348 
L 1027.76035 499.91905 
L 1031.761748 499.357396 
L 1035.763147 500.602412 
L 1039.764545 497.399523 
L 1043.765944 495.787212 
L 1047.767343 498.121694 
L 1051.768741 495.313423 
L 1055.77014 498.444902 
L 1059.771538 497.838228 
L 1063.772937 499.092869 
L 1067.774336 497.973596 
L 1075.777133 498.851627 
L 1079.778531 498.357657 
L 1083.77993 499.91905 
L 1087.781329 497.910259 
L 1091.782727 499.536852 
L 1091.782727 499.536852 
" clip-path="url(#p61834436ee)" style="fill: none; stroke: #2ca02c; stroke-width: 1.5; stroke-linecap: square"/>
   </g>
   <g id="line2d_18">
    <path d="M 103.437273 459.198026 
L 107.438671 466.517539 
L 111.44007 456.001967 
L 115.441469 469.935279 
L 119.442867 455.282901 
L 123.444266 446.483339 
L 127.445664 459.836368 
L 131.447063 444.166864 
L 135.448462 460.385293 
L 139.44986 420.042119 
L 143.451259 432.325552 
L 147.452657 431.227703 
L 151.454056 425.909529 
L 155.455455 424.908859 
L 159.456853 405.277659 
L 163.458252 427.279046 
L 167.45965 428.564424 
L 171.461049 416.511987 
L 175.462448 397.555455 
L 179.463846 415.777086 
L 183.465245 438.409675 
L 187.466643 400.066289 
L 191.468042 383.534899 
L 195.469441 318.626724 
L 199.470839 364.064216 
L 203.472238 327.427217 
L 207.473636 323.486322 
L 211.475035 333.489916 
L 215.476434 340.18568 
L 219.477832 319.70967 
L 227.480629 350.591964 
L 231.482028 365.399892 
L 235.483427 333.892917 
L 239.484825 339.439292 
L 243.486224 327.153375 
L 247.487622 328.691172 
L 251.489021 340.724049 
L 255.49042 353.726548 
L 259.491818 391.680284 
L 263.493217 343.692837 
L 267.494615 331.189276 
L 271.496014 339.582422 
L 275.497413 339.592357 
L 279.498811 340.748887 
L 283.50021 373.075524 
L 287.501608 348.04822 
L 291.503007 341.277941 
L 295.504406 384.849462 
L 299.505804 339.293988 
L 303.507203 344.142409 
L 307.508601 346.575934 
L 311.51 353.134777 
L 315.511399 362.869187 
L 319.512797 349.970077 
L 323.514196 339.472513 
L 327.515594 333.209555 
L 331.516993 346.427836 
L 335.518392 377.281566 
L 339.51979 347.239425 
L 343.521189 346.56041 
L 347.522587 365.425351 
L 351.523986 343.614597 
L 355.525385 390.155838 
L 359.526783 380.336357 
L 363.528182 353.515423 
L 367.52958 360.929322 
L 371.530979 349.264051 
L 375.532378 402.406671 
L 379.533776 342.610201 
L 383.535175 342.780964 
L 387.536573 346.396478 
L 391.537972 357.309462 
L 395.539371 336.250374 
L 399.540769 351.66156 
L 403.542168 340.957218 
L 407.543566 357.21073 
L 411.544965 348.739033 
L 415.546364 346.586801 
L 419.547762 353.004998 
L 423.549161 360.840215 
L 427.550559 366.597405 
L 431.551958 329.486305 
L 435.553357 338.093681 
L 439.554755 384.495828 
L 443.556154 344.248903 
L 447.557552 360.283218 
L 451.558951 345.019509 
L 455.56035 343.871673 
L 459.561748 339.474065 
L 463.563147 356.748118 
L 467.564545 343.621428 
L 471.565944 391.06647 
L 475.567343 373.48908 
L 479.568741 338.43738 
L 483.57014 348.09355 
L 487.571538 336.441939 
L 491.572937 354.729081 
L 495.574336 354.151903 
L 499.575734 340.788007 
L 503.577133 355.091719 
L 507.578531 366.552075 
L 511.57993 349.796831 
L 515.581329 356.982218 
L 519.582727 344.01915 
L 523.584126 374.110657 
L 527.585524 348.06778 
L 531.586923 383.00274 
L 535.588322 348.531013 
L 539.58972 362.22122 
L 543.591119 381.753999 
L 547.592517 391.656067 
L 551.593916 357.458802 
L 555.595315 351.431496 
L 559.596713 359.779313 
L 563.598112 361.071521 
L 567.59951 348.31461 
L 571.600909 370.357291 
L 575.602308 361.985878 
L 579.603706 387.360296 
L 583.605105 378.728082 
L 587.606503 351.270979 
L 591.607902 356.543513 
L 595.609301 351.222545 
L 599.610699 339.233445 
L 603.612098 370.723034 
L 607.613497 352.505439 
L 611.614895 384.949126 
L 615.616294 337.973526 
L 619.617692 348.662966 
L 623.619091 349.264672 
L 627.62049 348.791193 
L 631.621888 346.45609 
L 635.623287 338.487056 
L 639.624685 347.417639 
L 643.626084 338.761519 
L 647.627483 384.309231 
L 651.628881 389.551338 
L 655.63028 343.663653 
L 659.631678 343.443524 
L 663.633077 358.738281 
L 667.634476 353.803547 
L 671.635874 350.541356 
L 675.637273 367.164648 
L 679.638671 346.290916 
L 683.64007 372.872161 
L 687.641469 343.989965 
L 691.642867 361.364302 
L 695.644266 356.466825 
L 699.645664 362.237055 
L 703.647063 360.69398 
L 707.648462 354.650219 
L 711.64986 362.806471 
L 715.651259 372.595215 
L 719.652657 333.828648 
L 723.654056 352.866525 
L 727.655455 359.593336 
L 731.656853 350.895612 
L 735.658252 350.656544 
L 739.65965 382.835082 
L 743.661049 359.0174 
L 747.662448 360.034525 
L 751.663846 344.906185 
L 755.665245 345.755031 
L 759.666643 391.925251 
L 763.668042 348.885889 
L 767.669441 350.267826 
L 771.670839 346.570656 
L 775.672238 350.960191 
L 779.673636 354.641216 
L 783.675035 363.419975 
L 787.676434 353.119254 
L 791.677832 353.21426 
L 795.679231 368.497218 
L 799.680629 389.097419 
L 803.682028 350.88816 
L 807.683427 357.653471 
L 811.684825 350.664927 
L 815.686224 345.774281 
L 819.687622 355.360282 
L 823.689021 349.387311 
L 827.69042 350.798743 
L 831.691818 364.246777 
L 835.693217 355.267139 
L 839.694615 347.430059 
L 843.696014 349.673261 
L 847.697413 369.997447 
L 851.698811 350.513724 
L 855.70021 363.751565 
L 859.701608 370.579903 
L 863.703007 386.560195 
L 867.704406 352.111443 
L 871.705804 364.024786 
L 875.707203 369.34979 
L 879.708601 366.883976 
L 883.71 375.112569 
L 887.711399 370.498869 
L 891.712797 360.805442 
L 895.714196 384.013035 
L 899.715594 356.987807 
L 903.716993 362.206628 
L 907.718392 347.726254 
L 911.71979 349.935925 
L 915.721189 355.446905 
L 919.722587 370.855918 
L 923.723986 356.231172 
L 927.725385 350.975404 
L 931.726783 352.459178 
L 935.728182 373.569494 
L 939.72958 398.097239 
L 943.730979 391.149057 
L 947.732378 335.173948 
L 951.733776 361.778479 
L 955.735175 358.496418 
L 959.736573 361.990225 
L 963.737972 369.528005 
L 967.739371 364.993166 
L 971.740769 353.055295 
L 975.742168 353.615397 
L 979.743566 363.560621 
L 983.744965 348.670107 
L 987.746364 351.853746 
L 991.747762 339.94506 
L 995.749161 367.631296 
L 999.750559 375.688815 
L 1003.751958 381.292939 
L 1007.753357 360.53129 
L 1011.754755 376.326537 
L 1015.756154 357.777662 
L 1019.757552 401.524603 
L 1023.758951 356.080591 
L 1027.76035 389.421869 
L 1031.761748 381.272137 
L 1035.763147 395.783559 
L 1039.764545 366.154042 
L 1043.765944 353.72127 
L 1047.767343 370.925776 
L 1051.768741 348.700534 
L 1055.77014 386.197867 
L 1059.771538 365.410138 
L 1063.772937 381.15695 
L 1067.774336 366.764442 
L 1071.775734 375.671739 
L 1075.777133 382.104218 
L 1079.778531 371.690482 
L 1083.77993 393.514276 
L 1087.781329 375.885658 
L 1091.782727 388.079673 
L 1091.782727 388.079673 
" clip-path="url(#p61834436ee)" style="fill: none; stroke: #d62728; stroke-width: 1.5; stroke-linecap: square"/>
   </g>
   <g id="line2d_19">
    <path d="M 103.437273 476.84341 
L 107.438671 476.534484 
L 111.44007 475.92098 
L 115.441469 475.914771 
L 119.442867 475.477618 
L 123.444266 474.71229 
L 131.447063 474.008126 
L 135.448462 471.294551 
L 139.44986 470.966686 
L 143.451259 466.239351 
L 147.452657 465.658758 
L 155.455455 459.225658 
L 159.456853 457.05635 
L 163.458252 453.229401 
L 167.45965 452.816465 
L 171.461049 451.196702 
L 175.462448 450.350651 
L 179.463846 449.943925 
L 183.465245 442.247491 
L 187.466643 405.646196 
L 191.468042 405.500892 
L 195.469441 383.877977 
L 199.470839 380.310277 
L 203.472238 375.758052 
L 207.473636 367.826897 
L 211.475035 364.544836 
L 215.476434 364.426855 
L 219.477832 363.755291 
L 223.479231 363.646624 
L 227.480629 361.712347 
L 231.482028 349.00325 
L 235.483427 348.105348 
L 239.484825 344.221892 
L 243.486224 342.762336 
L 247.487622 335.68872 
L 251.489021 330.323043 
L 255.49042 329.096656 
L 259.491818 326.117 
L 263.493217 324.71985 
L 271.496014 324.086476 
L 275.497413 321.770001 
L 279.498811 321.181025 
L 283.50021 319.846902 
L 287.501608 318.140826 
L 291.503007 318.095807 
L 295.504406 308.234722 
L 299.505804 306.463136 
L 303.507203 306.176565 
L 307.508601 303.757943 
L 311.51 303.11277 
L 315.511399 302.999756 
L 319.512797 302.557636 
L 323.514196 301.980768 
L 327.515594 301.022633 
L 331.516993 296.772813 
L 335.518392 296.69892 
L 339.51979 291.94861 
L 343.521189 290.335367 
L 347.522587 290.256816 
L 355.525385 288.603832 
L 359.526783 283.739266 
L 367.52958 283.328815 
L 371.530979 282.286851 
L 375.532378 280.709935 
L 387.536573 280.548797 
L 391.537972 279.968514 
L 395.539371 278.915994 
L 399.540769 277.478171 
L 403.542168 276.751964 
L 407.543566 275.646042 
L 411.544965 275.272848 
L 415.546364 273.44848 
L 419.547762 273.357821 
L 423.549161 270.696095 
L 427.550559 270.642382 
L 431.551958 269.851595 
L 435.553357 269.204249 
L 439.554755 268.17843 
L 443.556154 267.505314 
L 451.558951 266.76141 
L 455.56035 266.051657 
L 459.561748 264.103099 
L 463.563147 263.25891 
L 467.564545 263.223826 
L 475.567343 262.83014 
L 479.568741 261.880388 
L 483.57014 260.331415 
L 487.571538 258.512946 
L 491.572937 257.602315 
L 495.574336 257.019548 
L 499.575734 257.010234 
L 503.577133 256.678643 
L 507.578531 256.577428 
L 511.57993 255.920146 
L 515.581329 254.883771 
L 519.582727 253.642481 
L 523.584126 253.47296 
L 527.585524 252.539354 
L 531.586923 251.350534 
L 535.588322 249.687926 
L 539.58972 249.478353 
L 543.591119 249.093671 
L 555.595315 248.740658 
L 559.596713 247.889638 
L 571.600909 246.294093 
L 575.602308 245.960019 
L 579.603706 245.383151 
L 583.605105 245.236916 
L 587.606503 244.456064 
L 591.607902 244.116091 
L 595.609301 242.953041 
L 599.610699 242.658088 
L 603.612098 241.733485 
L 607.613497 240.070566 
L 611.614895 238.211114 
L 615.616294 238.185966 
L 619.617692 235.776968 
L 623.619091 235.639737 
L 627.62049 234.585355 
L 631.621888 234.12771 
L 635.623287 234.122743 
L 639.624685 233.903235 
L 643.626084 233.257752 
L 647.627483 232.840469 
L 651.628881 232.595503 
L 655.63028 231.693565 
L 659.631678 231.372841 
L 667.634476 231.088133 
L 675.637273 229.550957 
L 679.638671 228.116239 
L 683.64007 228.055696 
L 687.641469 227.014043 
L 691.642867 226.313295 
L 695.644266 226.293424 
L 703.647063 225.623413 
L 707.648462 225.057412 
L 711.64986 223.987816 
L 715.651259 222.653693 
L 723.654056 222.390719 
L 727.655455 221.470152 
L 731.656853 221.036725 
L 735.658252 220.395899 
L 739.65965 220.002834 
L 743.661049 219.317299 
L 747.662448 219.200249 
L 751.663846 217.331794 
L 755.665245 216.090503 
L 767.669441 215.216508 
L 771.670839 213.827741 
L 775.672238 210.869198 
L 779.673636 209.469254 
L 783.675035 207.467293 
L 787.676434 206.013947 
L 795.679231 205.622745 
L 799.680629 204.167225 
L 803.682028 203.984354 
L 807.683427 203.951132 
L 811.684825 203.187668 
L 815.686224 203.023114 
L 819.687622 200.852875 
L 823.689021 200.769046 
L 827.69042 199.902813 
L 831.691818 199.511611 
L 835.693217 199.365686 
L 839.694615 199.067627 
L 847.697413 198.300747 
L 851.698811 196.459614 
L 855.70021 192.637632 
L 859.701608 191.898695 
L 863.703007 190.274896 
L 871.705804 190.194172 
L 875.707203 189.340358 
L 883.71 189.157176 
L 887.711399 188.89948 
L 891.712797 188.008409 
L 895.714196 187.732083 
L 899.715594 187.626521 
L 903.716993 186.79444 
L 911.71979 186.431181 
L 915.721189 185.285518 
L 919.722587 183.866635 
L 923.723986 182.748915 
L 927.725385 182.109331 
L 931.726783 180.889153 
L 935.728182 180.851896 
L 939.72958 180.696657 
L 943.730979 180.140901 
L 947.732378 180.09433 
L 951.733776 179.628613 
L 955.735175 178.352549 
L 959.736573 177.874414 
L 963.737972 177.688127 
L 967.739371 177.324868 
L 971.740769 176.564197 
L 975.742168 176.213357 
L 979.743566 173.841307 
L 983.744965 173.297971 
L 991.747762 171.105998 
L 995.749161 167.166035 
L 999.750559 165.467721 
L 1003.751958 164.145086 
L 1007.753357 163.226072 
L 1011.754755 162.943537 
L 1015.756154 158.730353 
L 1019.757552 157.687148 
L 1023.758951 155.951577 
L 1027.76035 155.253002 
L 1031.761748 154.809019 
L 1035.763147 152.011614 
L 1047.767343 150.869056 
L 1051.768741 146.429223 
L 1055.77014 141.564036 
L 1059.771538 134.876345 
L 1063.772937 131.765357 
L 1067.774336 129.725518 
L 1071.775734 128.331473 
L 1075.777133 106.178883 
L 1079.778531 91.785133 
L 1083.77993 66.655061 
L 1087.781329 56.325465 
L 1091.782727 49.932727 
L 1091.782727 49.932727 
" clip-path="url(#p61834436ee)" style="fill: none; stroke: #9467bd; stroke-width: 5; stroke-linecap: square"/>
   </g>
   <g id="patch_3">
    <path d="M 54.02 534.04 
L 54.02 26.88 
" style="fill: none; stroke: #000000; stroke-width: 0.8; stroke-linejoin: miter; stroke-linecap: square"/>
   </g>
   <g id="patch_4">
    <path d="M 1141.2 534.04 
L 1141.2 26.88 
" style="fill: none; stroke: #000000; stroke-width: 0.8; stroke-linejoin: miter; stroke-linecap: square"/>
   </g>
   <g id="patch_5">
    <path d="M 54.02 534.04 
L 1141.2 534.04 
" style="fill: none; stroke: #000000; stroke-width: 0.8; stroke-linejoin: miter; stroke-linecap: square"/>
   </g>
   <g id="patch_6">
    <path d="M 54.02 26.88 
L 1141.2 26.88 
" style="fill: none; stroke: #000000; stroke-width: 0.8; stroke-linejoin: miter; stroke-linecap: square"/>
   </g>
   <g id="text_17">
    <!-- Encode times, CID22 set -->
    <g transform="translate(523.852188 20.88) scale(0.12 -0.12)">
     <defs>
      <path id="DejaVuSans-45" d="M 628 4666 
L 3578 4666 
L 3578 4134 
L 1259 4134 
L 1259 2753 
L 3481 2753 
L 3481 2222 
L 1259 2222 
L 1259 531 
L 3634 531 
L 3634 0 
L 628 0 
L 628 4666 
z
" transform="scale(0.015625)"/>
      <path id="DejaVuSans-74" d="M 1172 4494 
L 1172 3500 
L 2356 3500 
L 2356 3053 
L 1172 3053 
L 1172 1153 
Q 1172 725 1289 603 
Q 1406 481 1766 481 
L 2356 481 
L 2356 0 
L 1766 0 
Q 1100 0 847 248 
Q 594 497 594 1153 
L 594 3053 
L 172 3053 
L 172 3500 
L 594 3500 
L 594 4494 
L 1172 4494 
z
" transform="scale(0.015625)"/>
      <path id="DejaVuSans-2c" d="M 750 794 
L 1409 794 
L 1409 256 
L 897 -744 
L 494 -744 
L 750 256 
L 750 794 
z
" transform="scale(0.015625)"/>
      <path id="DejaVuSans-43" d="M 4122 4306 
L 4122 3641 
Q 3803 3938 3442 4084 
Q 3081 4231 2675 4231 
Q 1875 4231 1450 3742 
Q 1025 3253 1025 2328 
Q 1025 1406 1450 917 
Q 1875 428 2675 428 
Q 3081 428 3442 575 
Q 3803 722 4122 1019 
L 4122 359 
Q 3791 134 3420 21 
Q 3050 -91 2638 -91 
Q 1578 -91 968 557 
Q 359 1206 359 2328 
Q 359 3453 968 4101 
Q 1578 4750 2638 4750 
Q 3056 4750 3426 4639 
Q 3797 4528 4122 4306 
z
" transform="scale(0.015625)"/>
      <path id="DejaVuSans-49" d="M 628 4666 
L 1259 4666 
L 1259 0 
L 628 0 
L 628 4666 
z
" transform="scale(0.015625)"/>
      <path id="DejaVuSans-44" d="M 1259 4147 
L 1259 519 
L 2022 519 
Q 2988 519 3436 956 
Q 3884 1394 3884 2338 
Q 3884 3275 3436 3711 
Q 2988 4147 2022 4147 
L 1259 4147 
z
M 628 4666 
L 1925 4666 
Q 3281 4666 3915 4102 
Q 4550 3538 4550 2338 
Q 4550 1131 3912 565 
Q 3275 0 1925 0 
L 628 0 
L 628 4666 
z
" transform="scale(0.015625)"/>
     </defs>
     <use xlink:href="#DejaVuSans-45"/>
     <use xlink:href="#DejaVuSans-6e" x="63.183594"/>
     <use xlink:href="#DejaVuSans-63" x="126.5625"/>
     <use xlink:href="#DejaVuSans-6f" x="181.542969"/>
     <use xlink:href="#DejaVuSans-64" x="242.724609"/>
     <use xlink:href="#DejaVuSans-65" x="306.201172"/>
     <use xlink:href="#DejaVuSans-20" x="367.724609"/>
     <use xlink:href="#DejaVuSans-74" x="399.511719"/>
     <use xlink:href="#DejaVuSans-69" x="438.720703"/>
     <use xlink:href="#DejaVuSans-6d" x="466.503906"/>
     <use xlink:href="#DejaVuSans-65" x="563.916016"/>
     <use xlink:href="#DejaVuSans-73" x="625.439453"/>
     <use xlink:href="#DejaVuSans-2c" x="677.539062"/>
     <use xlink:href="#DejaVuSans-20" x="709.326172"/>
     <use xlink:href="#DejaVuSans-43" x="741.113281"/>
     <use xlink:href="#DejaVuSans-49" x="810.9375"/>
     <use xlink:href="#DejaVuSans-44" x="840.429688"/>
     <use xlink:href="#DejaVuSans-32" x="917.431641"/>
     <use xlink:href="#DejaVuSans-32" x="981.054688"/>
     <use xlink:href="#DejaVuSans-20" x="1044.677734"/>
     <use xlink:href="#DejaVuSans-73" x="1076.464844"/>
     <use xlink:href="#DejaVuSans-65" x="1128.564453"/>
     <use xlink:href="#DejaVuSans-74" x="1190.087891"/>
    </g>
   </g>
   <g id="legend_1">
    <g id="patch_7">
     <path d="M 61.02 108.270625 
L 189.393438 108.270625 
Q 191.393438 108.270625 191.393438 106.270625 
L 191.393438 33.88 
Q 191.393438 31.88 189.393438 31.88 
L 61.02 31.88 
Q 59.02 31.88 59.02 33.88 
L 59.02 106.270625 
Q 59.02 108.270625 61.02 108.270625 
z
" style="fill: #ffffff; opacity: 0.8; stroke: #cccccc; stroke-linejoin: miter"/>
    </g>
    <g id="line2d_20">
     <path d="M 63.02 39.978438 
L 73.02 39.978438 
L 83.02 39.978438 
" style="fill: none; stroke: #1f77b4; stroke-width: 5; stroke-linecap: square"/>
    </g>
    <g id="text_18">
     <!-- QB3 Fast -->
     <g transform="translate(91.02 43.478438) scale(0.1 -0.1)">
      <defs>
       <path id="DejaVuSans-51" d="M 2522 4238 
Q 1834 4238 1429 3725 
Q 1025 3213 1025 2328 
Q 1025 1447 1429 934 
Q 1834 422 2522 422 
Q 3209 422 3611 934 
Q 4013 1447 4013 2328 
Q 4013 3213 3611 3725 
Q 3209 4238 2522 4238 
z
M 3406 84 
L 4238 -825 
L 3475 -825 
L 2784 -78 
Q 2681 -84 2626 -87 
Q 2572 -91 2522 -91 
Q 1538 -91 948 567 
Q 359 1225 359 2328 
Q 359 3434 948 4092 
Q 1538 4750 2522 4750 
Q 3503 4750 4090 4092 
Q 4678 3434 4678 2328 
Q 4678 1516 4351 937 
Q 4025 359 3406 84 
z
" transform="scale(0.015625)"/>
       <path id="DejaVuSans-42" d="M 1259 2228 
L 1259 519 
L 2272 519 
Q 2781 519 3026 730 
Q 3272 941 3272 1375 
Q 3272 1813 3026 2020 
Q 2781 2228 2272 2228 
L 1259 2228 
z
M 1259 4147 
L 1259 2741 
L 2194 2741 
Q 2656 2741 2882 2914 
Q 3109 3088 3109 3444 
Q 3109 3797 2882 3972 
Q 2656 4147 2194 4147 
L 1259 4147 
z
M 628 4666 
L 2241 4666 
Q 2963 4666 3353 4366 
Q 3744 4066 3744 3513 
Q 3744 3084 3544 2831 
Q 3344 2578 2956 2516 
Q 3422 2416 3680 2098 
Q 3938 1781 3938 1306 
Q 3938 681 3513 340 
Q 3088 0 2303 0 
L 628 0 
L 628 4666 
z
" transform="scale(0.015625)"/>
       <path id="DejaVuSans-33" d="M 2597 2516 
Q 3050 2419 3304 2112 
Q 3559 1806 3559 1356 
Q 3559 666 3084 287 
Q 2609 -91 1734 -91 
Q 1441 -91 1130 -33 
Q 819 25 488 141 
L 488 750 
Q 750 597 1062 519 
Q 1375 441 1716 441 
Q 2309 441 2620 675 
Q 2931 909 2931 1356 
Q 2931 1769 2642 2001 
Q 2353 2234 1838 2234 
L 1294 2234 
L 1294 2753 
L 1863 2753 
Q 2328 2753 2575 2939 
Q 2822 3125 2822 3475 
Q 2822 3834 2567 4026 
Q 2313 4219 1838 4219 
Q 1578 4219 1281 4162 
Q 984 4106 628 3988 
L 628 4550 
Q 988 4650 1302 4700 
Q 1616 4750 1894 4750 
Q 2613 4750 3031 4423 
Q 3450 4097 3450 3541 
Q 3450 3153 3228 2886 
Q 3006 2619 2597 2516 
z
" transform="scale(0.015625)"/>
       <path id="DejaVuSans-61" d="M 2194 1759 
Q 1497 1759 1228 1600 
Q 959 1441 959 1056 
Q 959 750 1161 570 
Q 1363 391 1709 391 
Q 2188 391 2477 730 
Q 2766 1069 2766 1631 
L 2766 1759 
L 2194 1759 
z
M 3341 1997 
L 3341 0 
L 2766 0 
L 2766 531 
Q 2569 213 2275 61 
Q 1981 -91 1556 -91 
Q 1019 -91 701 211 
Q 384 513 384 1019 
Q 384 1609 779 1909 
Q 1175 2209 1959 2209 
L 2766 2209 
L 2766 2266 
Q 2766 2663 2505 2880 
Q 2244 3097 1772 3097 
Q 1472 3097 1187 3025 
Q 903 2953 641 2809 
L 641 3341 
Q 956 3463 1253 3523 
Q 1550 3584 1831 3584 
Q 2591 3584 2966 3190 
Q 3341 2797 3341 1997 
z
" transform="scale(0.015625)"/>
      </defs>
      <use xlink:href="#DejaVuSans-51"/>
      <use xlink:href="#DejaVuSans-42" x="78.710938"/>
      <use xlink:href="#DejaVuSans-33" x="147.314453"/>
      <use xlink:href="#DejaVuSans-20" x="210.9375"/>
      <use xlink:href="#DejaVuSans-46" x="242.724609"/>
      <use xlink:href="#DejaVuSans-61" x="291.119141"/>
      <use xlink:href="#DejaVuSans-73" x="352.398438"/>
      <use xlink:href="#DejaVuSans-74" x="404.498047"/>
     </g>
    </g>
    <g id="line2d_21">
     <path d="M 63.02 54.656563 
L 73.02 54.656563 
L 83.02 54.656563 
" style="fill: none; stroke: #ff7f0e; stroke-width: 1.5; stroke-linecap: square"/>
    </g>
    <g id="text_19">
     <!-- QB3 Base -->
     <g transform="translate(91.02 58.156563) scale(0.1 -0.1)">
      <use xlink:href="#DejaVuSans-51"/>
      <use xlink:href="#DejaVuSans-42" x="78.710938"/>
      <use xlink:href="#DejaVuSans-33" x="147.314453"/>
      <use xlink:href="#DejaVuSans-20" x="210.9375"/>
      <use xlink:href="#DejaVuSans-42" x="242.724609"/>
      <use xlink:href="#DejaVuSans-61" x="311.328125"/>
      <use xlink:href="#DejaVuSans-73" x="372.607422"/>
      <use xlink:href="#DejaVuSans-65" x="424.707031"/>
     </g>
    </g>
    <g id="line2d_22">
     <path d="M 63.02 69.334688 
L 73.02 69.334688 
L 83.02 69.334688 
" style="fill: none; stroke: #2ca02c; stroke-width: 1.5; stroke-linecap: square"/>
    </g>
    <g id="text_20">
     <!-- QB3 Best -->
     <g transform="translate(91.02 72.834688) scale(0.1 -0.1)">
      <use xlink:href="#DejaVuSans-51"/>
      <use xlink:href="#DejaVuSans-42" x="78.710938"/>
      <use xlink:href="#DejaVuSans-33" x="147.314453"/>
      <use xlink:href="#DejaVuSans-20" x="210.9375"/>
      <use xlink:href="#DejaVuSans-42" x="242.724609"/>
      <use xlink:href="#DejaVuSans-65" x="311.328125"/>
      <use xlink:href="#DejaVuSans-73" x="372.851562"/>
      <use xlink:href="#DejaVuSans-74" x="424.951172"/>
     </g>
    </g>
    <g id="line2d_23">
     <path d="M 63.02 84.012813 
L 73.02 84.012813 
L 83.02 84.012813 
" style="fill: none; stroke: #d62728; stroke-width: 1.5; stroke-linecap: square"/>
    </g>
    <g id="text_21">
     <!-- QB3 Best band mix -->
     <g transform="translate(91.02 87.512813) scale(0.1 -0.1)">
      <defs>
       <path id="DejaVuSans-78" d="M 3513 3500 
L 2247 1797 
L 3578 0 
L 2900 0 
L 1881 1375 
L 863 0 
L 184 0 
L 1544 1831 
L 300 3500 
L 978 3500 
L 1906 2253 
L 2834 3500 
L 3513 3500 
z
" transform="scale(0.015625)"/>
      </defs>
      <use xlink:href="#DejaVuSans-51"/>
      <use xlink:href="#DejaVuSans-42" x="78.710938"/>
      <use xlink:href="#DejaVuSans-33" x="147.314453"/>
      <use xlink:href="#DejaVuSans-20" x="210.9375"/>
      <use xlink:href="#DejaVuSans-42" x="242.724609"/>
      <use xlink:href="#DejaVuSans-65" x="311.328125"/>
      <use xlink:href="#DejaVuSans-73" x="372.851562"/>
      <use xlink:href="#DejaVuSans-74" x="424.951172"/>
      <use xlink:href="#DejaVuSans-20" x="464.160156"/>
      <use xlink:href="#DejaVuSans-62" x="495.947266"/>
      <use xlink:href="#DejaVuSans-61" x="559.423828"/>
      <use xlink:href="#DejaVuSans-6e" x="620.703125"/>
      <use xlink:href="#DejaVuSans-64" x="684.082031"/>
      <use xlink:href="#DejaVuSans-20" x="747.558594"/>
      <use xlink:href="#DejaVuSans-6d" x="779.345703"/>
      <use xlink:href="#DejaVuSans-69" x="876.757812"/>
      <use xlink:href="#DejaVuSans-78" x="904.541016"/>
     </g>
    </g>
    <g id="line2d_24">
     <path d="M 63.02 98.690938 
L 73.02 98.690938 
L 83.02 98.690938 
" style="fill: none; stroke: #9467bd; stroke-width: 5; stroke-linecap: square"/>
    </g>
    <g id="text_22">
     <!-- PNG encode -->
     <g transform="translate(91.02 102.190938) scale(0.1 -0.1)">
      <defs>
       <path id="DejaVuSans-50" d="M 1259 4147 
L 1259 2394 
L 2053 2394 
Q 2494 2394 2734 2622 
Q 2975 2850 2975 3272 
Q 2975 3691 2734 3919 
Q 2494 4147 2053 4147 
L 1259 4147 
z
M 628 4666 
L 2053 4666 
Q 2838 4666 3239 4311 
Q 3641 3956 3641 3272 
Q 3641 2581 3239 2228 
Q 2838 1875 2053 1875 
L 1259 1875 
L 1259 0 
L 628 0 
L 628 4666 
z
" transform="scale(0.015625)"/>
       <path id="DejaVuSans-4e" d="M 628 4666 
L 1478 4666 
L 3547 763 
L 3547 4666 
L 4159 4666 
L 4159 0 
L 3309 0 
L 1241 3903 
L 1241 0 
L 628 0 
L 628 4666 
z
" transform="scale(0.015625)"/>
       <path id="DejaVuSans-47" d="M 3809 666 
L 3809 1919 
L 2778 1919 
L 2778 2438 
L 4434 2438 
L 4434 434 
Q 4069 175 3628 42 
Q 3188 -91 2688 -91 
Q 1594 -91 976 548 
Q 359 1188 359 2328 
Q 359 3472 976 4111 
Q 1594 4750 2688 4750 
Q 3144 4750 3555 4637 
Q 3966 4525 4313 4306 
L 4313 3634 
Q 3963 3931 3569 4081 
Q 3175 4231 2741 4231 
Q 1884 4231 1454 3753 
Q 1025 3275 1025 2328 
Q 1025 1384 1454 906 
Q 1884 428 2741 428 
Q 3075 428 3337 486 
Q 3600 544 3809 666 
z
" transform="scale(0.015625)"/>
      </defs>
      <use xlink:href="#DejaVuSans-50"/>
      <use xlink:href="#DejaVuSans-4e" x="60.302734"/>
      <use xlink:href="#DejaVuSans-47" x="135.107422"/>
      <use xlink:href="#DejaVuSans-20" x="212.597656"/>
      <use xlink:href="#DejaVuSans-65" x="244.384766"/>
      <use xlink:href="#DejaVuSans-6e" x="305.908203"/>
      <use xlink:href="#DejaVuSans-63" x="369.287109"/>
      <use xlink:href="#DejaVuSans-6f" x="424.267578"/>
      <use xlink:href="#DejaVuSans-64" x="485.449219"/>
      <use xlink:href="#DejaVuSans-65" x="548.925781"/>
     </g>
    </g>
   </g>
  </g>
 </g>
 <defs>
  <clipPath id="p61834436ee">
   <rect x="54.02" y="26.88" width="1087.18" height="507.16"/>
  </clipPath>
 </defs>
</svg>
