<?xml version="1.0" encoding="utf-8" standalone="no"?>
<!DOCTYPE svg PUBLIC "-//W3C//DTD SVG 1.1//EN"
  "http://www.w3.org/Graphics/SVG/1.1/DTD/svg11.dtd">
<svg xmlns:xlink="http://www.w3.org/1999/xlink" width="1440pt" height="720pt" viewBox="0 0 1440 720" xmlns="http://www.w3.org/2000/svg" version="1.1">
 <metadata>
  <rdf:RDF xmlns:dc="http://purl.org/dc/elements/1.1/" xmlns:cc="http://creativecommons.org/ns#" xmlns:rdf="http://www.w3.org/1999/02/22-rdf-syntax-ns#">
   <cc:Work>
    <dc:type rdf:resource="http://purl.org/dc/dcmitype/StillImage"/>
    <dc:date>2025-03-05T17:56:35.568682</dc:date>
    <dc:format>image/svg+xml</dc:format>
    <dc:creator>
     <cc:Agent>
      <dc:title>Matplotlib v3.9.0, https://matplotlib.org/</dc:title>
     </cc:Agent>
    </dc:creator>
   </cc:Work>
  </rdf:RDF>
 </metadata>
 <defs>
  <style type="text/css">*{stroke-linejoin: round; stroke-linecap: butt}</style>
 </defs>
 <g id="figure_1">
  <g id="patch_1">
   <path d="M 0 720 
L 1440 720 
L 1440 0 
L 0 0 
z
" style="fill: #ffffff"/>
  </g>
  <g id="axes_1">
   <g id="patch_2">
    <path d="M 180 640.8 
L 1296 640.8 
L 1296 86.4 
L 180 86.4 
z
" style="fill: #ffffff"/>
   </g>
   <g id="matplotlib.axis_1">
    <g id="xtick_1">
     <g id="line2d_1">
      <defs>
       <path id="me15e455b15" d="M 0 0 
L 0 3.5 
" style="stroke: #000000; stroke-width: 0.8"/>
      </defs>
      <g>
       <use xlink:href="#me15e455b15" x="180" y="640.8" style="stroke: #000000; stroke-width: 0.8"/>
      </g>
     </g>
     <g id="text_1">
      <!-- 0 -->
      <g transform="translate(176.81875 655.398438) scale(0.1 -0.1)">
       <defs>
        <path id="DejaVuSans-30" d="M 2034 4250 
Q 1547 4250 1301 3770 
Q 1056 3291 1056 2328 
Q 1056 1369 1301 889 
Q 1547 409 2034 409 
Q 2525 409 2770 889 
Q 3016 1369 3016 2328 
Q 3016 3291 2770 3770 
Q 2525 4250 2034 4250 
z
M 2034 4750 
Q 2819 4750 3233 4129 
Q 3647 3509 3647 2328 
Q 3647 1150 3233 529 
Q 2819 -91 2034 -91 
Q 1250 -91 836 529 
Q 422 1150 422 2328 
Q 422 3509 836 4129 
Q 1250 4750 2034 4750 
z
" transform="scale(0.015625)"/>
       </defs>
       <use xlink:href="#DejaVuSans-30"/>
      </g>
     </g>
    </g>
    <g id="xtick_2">
     <g id="line2d_2">
      <g>
       <use xlink:href="#me15e455b15" x="402.310757" y="640.8" style="stroke: #000000; stroke-width: 0.8"/>
      </g>
     </g>
     <g id="text_2">
      <!-- 50 -->
      <g transform="translate(395.948257 655.398438) scale(0.1 -0.1)">
       <defs>
        <path id="DejaVuSans-35" d="M 691 4666 
L 3169 4666 
L 3169 4134 
L 1269 4134 
L 1269 2991 
Q 1406 3038 1543 3061 
Q 1681 3084 1819 3084 
Q 2600 3084 3056 2656 
Q 3513 2228 3513 1497 
Q 3513 744 3044 326 
Q 2575 -91 1722 -91 
Q 1428 -91 1123 -41 
Q 819 9 494 109 
L 494 744 
Q 775 591 1075 516 
Q 1375 441 1709 441 
Q 2250 441 2565 725 
Q 2881 1009 2881 1497 
Q 2881 1984 2565 2268 
Q 2250 2553 1709 2553 
Q 1456 2553 1204 2497 
Q 953 2441 691 2322 
L 691 4666 
z
" transform="scale(0.015625)"/>
       </defs>
       <use xlink:href="#DejaVuSans-35"/>
       <use xlink:href="#DejaVuSans-30" x="63.623047"/>
      </g>
     </g>
    </g>
    <g id="xtick_3">
     <g id="line2d_3">
      <g>
       <use xlink:href="#me15e455b15" x="624.621514" y="640.8" style="stroke: #000000; stroke-width: 0.8"/>
      </g>
     </g>
     <g id="text_3">
      <!-- 100 -->
      <g transform="translate(615.077764 655.398438) scale(0.1 -0.1)">
       <defs>
        <path id="DejaVuSans-31" d="M 794 531 
L 1825 531 
L 1825 4091 
L 703 3866 
L 703 4441 
L 1819 4666 
L 2450 4666 
L 2450 531 
L 3481 531 
L 3481 0 
L 794 0 
L 794 531 
z
" transform="scale(0.015625)"/>
       </defs>
       <use xlink:href="#DejaVuSans-31"/>
       <use xlink:href="#DejaVuSans-30" x="63.623047"/>
       <use xlink:href="#DejaVuSans-30" x="127.246094"/>
      </g>
     </g>
    </g>
    <g id="xtick_4">
     <g id="line2d_4">
      <g>
       <use xlink:href="#me15e455b15" x="846.932271" y="640.8" style="stroke: #000000; stroke-width: 0.8"/>
      </g>
     </g>
     <g id="text_4">
      <!-- 150 -->
      <g transform="translate(837.388521 655.398438) scale(0.1 -0.1)">
       <use xlink:href="#DejaVuSans-31"/>
       <use xlink:href="#DejaVuSans-35" x="63.623047"/>
       <use xlink:href="#DejaVuSans-30" x="127.246094"/>
      </g>
     </g>
    </g>
    <g id="xtick_5">
     <g id="line2d_5">
      <g>
       <use xlink:href="#me15e455b15" x="1069.243028" y="640.8" style="stroke: #000000; stroke-width: 0.8"/>
      </g>
     </g>
     <g id="text_5">
      <!-- 200 -->
      <g transform="translate(1059.699278 655.398438) scale(0.1 -0.1)">
       <defs>
        <path id="DejaVuSans-32" d="M 1228 531 
L 3431 531 
L 3431 0 
L 469 0 
L 469 531 
Q 828 903 1448 1529 
Q 2069 2156 2228 2338 
Q 2531 2678 2651 2914 
Q 2772 3150 2772 3378 
Q 2772 3750 2511 3984 
Q 2250 4219 1831 4219 
Q 1534 4219 1204 4116 
Q 875 4013 500 3803 
L 500 4441 
Q 881 4594 1212 4672 
Q 1544 4750 1819 4750 
Q 2544 4750 2975 4387 
Q 3406 4025 3406 3419 
Q 3406 3131 3298 2873 
Q 3191 2616 2906 2266 
Q 2828 2175 2409 1742 
Q 1991 1309 1228 531 
z
" transform="scale(0.015625)"/>
       </defs>
       <use xlink:href="#DejaVuSans-32"/>
       <use xlink:href="#DejaVuSans-30" x="63.623047"/>
       <use xlink:href="#DejaVuSans-30" x="127.246094"/>
      </g>
     </g>
    </g>
    <g id="xtick_6">
     <g id="line2d_6">
      <g>
       <use xlink:href="#me15e455b15" x="1291.553785" y="640.8" style="stroke: #000000; stroke-width: 0.8"/>
      </g>
     </g>
     <g id="text_6">
      <!-- 250 -->
      <g transform="translate(1282.010035 655.398438) scale(0.1 -0.1)">
       <use xlink:href="#DejaVuSans-32"/>
       <use xlink:href="#DejaVuSans-35" x="63.623047"/>
       <use xlink:href="#DejaVuSans-30" x="127.246094"/>
      </g>
     </g>
    </g>
    <g id="text_7">
     <!-- File number -->
     <g transform="translate(708.528906 669.076563) scale(0.1 -0.1)">
      <defs>
       <path id="DejaVuSans-46" d="M 628 4666 
L 3309 4666 
L 3309 4134 
L 1259 4134 
L 1259 2759 
L 3109 2759 
L 3109 2228 
L 1259 2228 
L 1259 0 
L 628 0 
L 628 4666 
z
" transform="scale(0.015625)"/>
       <path id="DejaVuSans-69" d="M 603 3500 
L 1178 3500 
L 1178 0 
L 603 0 
L 603 3500 
z
M 603 4863 
L 1178 4863 
L 1178 4134 
L 603 4134 
L 603 4863 
z
" transform="scale(0.015625)"/>
       <path id="DejaVuSans-6c" d="M 603 4863 
L 1178 4863 
L 1178 0 
L 603 0 
L 603 4863 
z
" transform="scale(0.015625)"/>
       <path id="DejaVuSans-65" d="M 3597 1894 
L 3597 1613 
L 953 1613 
Q 991 1019 1311 708 
Q 1631 397 2203 397 
Q 2534 397 2845 478 
Q 3156 559 3463 722 
L 3463 178 
Q 3153 47 2828 -22 
Q 2503 -91 2169 -91 
Q 1331 -91 842 396 
Q 353 884 353 1716 
Q 353 2575 817 3079 
Q 1281 3584 2069 3584 
Q 2775 3584 3186 3129 
Q 3597 2675 3597 1894 
z
M 3022 2063 
Q 3016 2534 2758 2815 
Q 2500 3097 2075 3097 
Q 1594 3097 1305 2825 
Q 1016 2553 972 2059 
L 3022 2063 
z
" transform="scale(0.015625)"/>
       <path id="DejaVuSans-20" transform="scale(0.015625)"/>
       <path id="DejaVuSans-6e" d="M 3513 2113 
L 3513 0 
L 2938 0 
L 2938 2094 
Q 2938 2591 2744 2837 
Q 2550 3084 2163 3084 
Q 1697 3084 1428 2787 
Q 1159 2491 1159 1978 
L 1159 0 
L 581 0 
L 581 3500 
L 1159 3500 
L 1159 2956 
Q 1366 3272 1645 3428 
Q 1925 3584 2291 3584 
Q 2894 3584 3203 3211 
Q 3513 2838 3513 2113 
z
" transform="scale(0.015625)"/>
       <path id="DejaVuSans-75" d="M 544 1381 
L 544 3500 
L 1119 3500 
L 1119 1403 
Q 1119 906 1312 657 
Q 1506 409 1894 409 
Q 2359 409 2629 706 
Q 2900 1003 2900 1516 
L 2900 3500 
L 3475 3500 
L 3475 0 
L 2900 0 
L 2900 538 
Q 2691 219 2414 64 
Q 2138 -91 1772 -91 
Q 1169 -91 856 284 
Q 544 659 544 1381 
z
M 1991 3584 
L 1991 3584 
z
" transform="scale(0.015625)"/>
       <path id="DejaVuSans-6d" d="M 3328 2828 
Q 3544 3216 3844 3400 
Q 4144 3584 4550 3584 
Q 5097 3584 5394 3201 
Q 5691 2819 5691 2113 
L 5691 0 
L 5113 0 
L 5113 2094 
Q 5113 2597 4934 2840 
Q 4756 3084 4391 3084 
Q 3944 3084 3684 2787 
Q 3425 2491 3425 1978 
L 3425 0 
L 2847 0 
L 2847 2094 
Q 2847 2600 2669 2842 
Q 2491 3084 2119 3084 
Q 1678 3084 1418 2786 
Q 1159 2488 1159 1978 
L 1159 0 
L 581 0 
L 581 3500 
L 1159 3500 
L 1159 2956 
Q 1356 3278 1631 3431 
Q 1906 3584 2284 3584 
Q 2666 3584 2933 3390 
Q 3200 3197 3328 2828 
z
" transform="scale(0.015625)"/>
       <path id="DejaVuSans-62" d="M 3116 1747 
Q 3116 2381 2855 2742 
Q 2594 3103 2138 3103 
Q 1681 3103 1420 2742 
Q 1159 2381 1159 1747 
Q 1159 1113 1420 752 
Q 1681 391 2138 391 
Q 2594 391 2855 752 
Q 3116 1113 3116 1747 
z
M 1159 2969 
Q 1341 3281 1617 3432 
Q 1894 3584 2278 3584 
Q 2916 3584 3314 3078 
Q 3713 2572 3713 1747 
Q 3713 922 3314 415 
Q 2916 -91 2278 -91 
Q 1894 -91 1617 61 
Q 1341 213 1159 525 
L 1159 0 
L 581 0 
L 581 4863 
L 1159 4863 
L 1159 2969 
z
" transform="scale(0.015625)"/>
       <path id="DejaVuSans-72" d="M 2631 2963 
Q 2534 3019 2420 3045 
Q 2306 3072 2169 3072 
Q 1681 3072 1420 2755 
Q 1159 2438 1159 1844 
L 1159 0 
L 581 0 
L 581 3500 
L 1159 3500 
L 1159 2956 
Q 1341 3275 1631 3429 
Q 1922 3584 2338 3584 
Q 2397 3584 2469 3576 
Q 2541 3569 2628 3553 
L 2631 2963 
z
" transform="scale(0.015625)"/>
      </defs>
      <use xlink:href="#DejaVuSans-46"/>
      <use xlink:href="#DejaVuSans-69" x="50.269531"/>
      <use xlink:href="#DejaVuSans-6c" x="78.052734"/>
      <use xlink:href="#DejaVuSans-65" x="105.835938"/>
      <use xlink:href="#DejaVuSans-20" x="167.359375"/>
      <use xlink:href="#DejaVuSans-6e" x="199.146484"/>
      <use xlink:href="#DejaVuSans-75" x="262.525391"/>
      <use xlink:href="#DejaVuSans-6d" x="325.904297"/>
      <use xlink:href="#DejaVuSans-62" x="423.316406"/>
      <use xlink:href="#DejaVuSans-65" x="486.792969"/>
      <use xlink:href="#DejaVuSans-72" x="548.316406"/>
     </g>
    </g>
   </g>
   <g id="matplotlib.axis_2">
    <g id="ytick_1">
     <g id="line2d_7">
      <defs>
       <path id="mffa5728c84" d="M 0 0 
L -3.5 0 
" style="stroke: #000000; stroke-width: 0.8"/>
      </defs>
      <g>
       <use xlink:href="#mffa5728c84" x="180" y="640.8" style="stroke: #000000; stroke-width: 0.8"/>
      </g>
     </g>
     <g id="text_8">
      <!-- −2 -->
      <g transform="translate(158.257812 644.599219) scale(0.1 -0.1)">
       <defs>
        <path id="DejaVuSans-2212" d="M 678 2272 
L 4684 2272 
L 4684 1741 
L 678 1741 
L 678 2272 
z
" transform="scale(0.015625)"/>
       </defs>
       <use xlink:href="#DejaVuSans-2212"/>
       <use xlink:href="#DejaVuSans-32" x="83.789062"/>
      </g>
     </g>
    </g>
    <g id="ytick_2">
     <g id="line2d_8">
      <g>
       <use xlink:href="#mffa5728c84" x="180" y="584.675161" style="stroke: #000000; stroke-width: 0.8"/>
      </g>
     </g>
     <g id="text_9">
      <!-- −1 -->
      <g transform="translate(158.257812 588.47438) scale(0.1 -0.1)">
       <use xlink:href="#DejaVuSans-2212"/>
       <use xlink:href="#DejaVuSans-31" x="83.789062"/>
      </g>
     </g>
    </g>
    <g id="ytick_3">
     <g id="line2d_9">
      <g>
       <use xlink:href="#mffa5728c84" x="180" y="528.550322" style="stroke: #000000; stroke-width: 0.8"/>
      </g>
     </g>
     <g id="text_10">
      <!-- 0 -->
      <g transform="translate(166.6375 532.349541) scale(0.1 -0.1)">
       <use xlink:href="#DejaVuSans-30"/>
      </g>
     </g>
    </g>
    <g id="ytick_4">
     <g id="line2d_10">
      <g>
       <use xlink:href="#mffa5728c84" x="180" y="472.425483" style="stroke: #000000; stroke-width: 0.8"/>
      </g>
     </g>
     <g id="text_11">
      <!-- 1 -->
      <g transform="translate(166.6375 476.224702) scale(0.1 -0.1)">
       <use xlink:href="#DejaVuSans-31"/>
      </g>
     </g>
    </g>
    <g id="ytick_5">
     <g id="line2d_11">
      <g>
       <use xlink:href="#mffa5728c84" x="180" y="416.300644" style="stroke: #000000; stroke-width: 0.8"/>
      </g>
     </g>
     <g id="text_12">
      <!-- 2 -->
      <g transform="translate(166.6375 420.099863) scale(0.1 -0.1)">
       <use xlink:href="#DejaVuSans-32"/>
      </g>
     </g>
    </g>
    <g id="ytick_6">
     <g id="line2d_12">
      <g>
       <use xlink:href="#mffa5728c84" x="180" y="360.175805" style="stroke: #000000; stroke-width: 0.8"/>
      </g>
     </g>
     <g id="text_13">
      <!-- 3 -->
      <g transform="translate(166.6375 363.975024) scale(0.1 -0.1)">
       <defs>
        <path id="DejaVuSans-33" d="M 2597 2516 
Q 3050 2419 3304 2112 
Q 3559 1806 3559 1356 
Q 3559 666 3084 287 
Q 2609 -91 1734 -91 
Q 1441 -91 1130 -33 
Q 819 25 488 141 
L 488 750 
Q 750 597 1062 519 
Q 1375 441 1716 441 
Q 2309 441 2620 675 
Q 2931 909 2931 1356 
Q 2931 1769 2642 2001 
Q 2353 2234 1838 2234 
L 1294 2234 
L 1294 2753 
L 1863 2753 
Q 2328 2753 2575 2939 
Q 2822 3125 2822 3475 
Q 2822 3834 2567 4026 
Q 2313 4219 1838 4219 
Q 1578 4219 1281 4162 
Q 984 4106 628 3988 
L 628 4550 
Q 988 4650 1302 4700 
Q 1616 4750 1894 4750 
Q 2613 4750 3031 4423 
Q 3450 4097 3450 3541 
Q 3450 3153 3228 2886 
Q 3006 2619 2597 2516 
z
" transform="scale(0.015625)"/>
       </defs>
       <use xlink:href="#DejaVuSans-33"/>
      </g>
     </g>
    </g>
    <g id="ytick_7">
     <g id="line2d_13">
      <g>
       <use xlink:href="#mffa5728c84" x="180" y="304.050966" style="stroke: #000000; stroke-width: 0.8"/>
      </g>
     </g>
     <g id="text_14">
      <!-- 4 -->
      <g transform="translate(166.6375 307.850185) scale(0.1 -0.1)">
       <defs>
        <path id="DejaVuSans-34" d="M 2419 4116 
L 825 1625 
L 2419 1625 
L 2419 4116 
z
M 2253 4666 
L 3047 4666 
L 3047 1625 
L 3713 1625 
L 3713 1100 
L 3047 1100 
L 3047 0 
L 2419 0 
L 2419 1100 
L 313 1100 
L 313 1709 
L 2253 4666 
z
" transform="scale(0.015625)"/>
       </defs>
       <use xlink:href="#DejaVuSans-34"/>
      </g>
     </g>
    </g>
    <g id="ytick_8">
     <g id="line2d_14">
      <g>
       <use xlink:href="#mffa5728c84" x="180" y="247.926127" style="stroke: #000000; stroke-width: 0.8"/>
      </g>
     </g>
     <g id="text_15">
      <!-- 5 -->
      <g transform="translate(166.6375 251.725346) scale(0.1 -0.1)">
       <use xlink:href="#DejaVuSans-35"/>
      </g>
     </g>
    </g>
    <g id="ytick_9">
     <g id="line2d_15">
      <g>
       <use xlink:href="#mffa5728c84" x="180" y="191.801289" style="stroke: #000000; stroke-width: 0.8"/>
      </g>
     </g>
     <g id="text_16">
      <!-- 6 -->
      <g transform="translate(166.6375 195.600507) scale(0.1 -0.1)">
       <defs>
        <path id="DejaVuSans-36" d="M 2113 2584 
Q 1688 2584 1439 2293 
Q 1191 2003 1191 1497 
Q 1191 994 1439 701 
Q 1688 409 2113 409 
Q 2538 409 2786 701 
Q 3034 994 3034 1497 
Q 3034 2003 2786 2293 
Q 2538 2584 2113 2584 
z
M 3366 4563 
L 3366 3988 
Q 3128 4100 2886 4159 
Q 2644 4219 2406 4219 
Q 1781 4219 1451 3797 
Q 1122 3375 1075 2522 
Q 1259 2794 1537 2939 
Q 1816 3084 2150 3084 
Q 2853 3084 3261 2657 
Q 3669 2231 3669 1497 
Q 3669 778 3244 343 
Q 2819 -91 2113 -91 
Q 1303 -91 875 529 
Q 447 1150 447 2328 
Q 447 3434 972 4092 
Q 1497 4750 2381 4750 
Q 2619 4750 2861 4703 
Q 3103 4656 3366 4563 
z
" transform="scale(0.015625)"/>
       </defs>
       <use xlink:href="#DejaVuSans-36"/>
      </g>
     </g>
    </g>
    <g id="ytick_10">
     <g id="line2d_16">
      <g>
       <use xlink:href="#mffa5728c84" x="180" y="135.67645" style="stroke: #000000; stroke-width: 0.8"/>
      </g>
     </g>
     <g id="text_17">
      <!-- 7 -->
      <g transform="translate(166.6375 139.475668) scale(0.1 -0.1)">
       <defs>
        <path id="DejaVuSans-37" d="M 525 4666 
L 3525 4666 
L 3525 4397 
L 1831 0 
L 1172 0 
L 2766 4134 
L 525 4134 
L 525 4666 
z
" transform="scale(0.015625)"/>
       </defs>
       <use xlink:href="#DejaVuSans-37"/>
      </g>
     </g>
    </g>
    <g id="text_18">
     <!-- Total savings (bytes) -->
     <g transform="translate(152.178125 415.096094) rotate(-90) scale(0.1 -0.1)">
      <defs>
       <path id="DejaVuSans-54" d="M -19 4666 
L 3928 4666 
L 3928 4134 
L 2272 4134 
L 2272 0 
L 1638 0 
L 1638 4134 
L -19 4134 
L -19 4666 
z
" transform="scale(0.015625)"/>
       <path id="DejaVuSans-6f" d="M 1959 3097 
Q 1497 3097 1228 2736 
Q 959 2375 959 1747 
Q 959 1119 1226 758 
Q 1494 397 1959 397 
Q 2419 397 2687 759 
Q 2956 1122 2956 1747 
Q 2956 2369 2687 2733 
Q 2419 3097 1959 3097 
z
M 1959 3584 
Q 2709 3584 3137 3096 
Q 3566 2609 3566 1747 
Q 3566 888 3137 398 
Q 2709 -91 1959 -91 
Q 1206 -91 779 398 
Q 353 888 353 1747 
Q 353 2609 779 3096 
Q 1206 3584 1959 3584 
z
" transform="scale(0.015625)"/>
       <path id="DejaVuSans-74" d="M 1172 4494 
L 1172 3500 
L 2356 3500 
L 2356 3053 
L 1172 3053 
L 1172 1153 
Q 1172 725 1289 603 
Q 1406 481 1766 481 
L 2356 481 
L 2356 0 
L 1766 0 
Q 1100 0 847 248 
Q 594 497 594 1153 
L 594 3053 
L 172 3053 
L 172 3500 
L 594 3500 
L 594 4494 
L 1172 4494 
z
" transform="scale(0.015625)"/>
       <path id="DejaVuSans-61" d="M 2194 1759 
Q 1497 1759 1228 1600 
Q 959 1441 959 1056 
Q 959 750 1161 570 
Q 1363 391 1709 391 
Q 2188 391 2477 730 
Q 2766 1069 2766 1631 
L 2766 1759 
L 2194 1759 
z
M 3341 1997 
L 3341 0 
L 2766 0 
L 2766 531 
Q 2569 213 2275 61 
Q 1981 -91 1556 -91 
Q 1019 -91 701 211 
Q 384 513 384 1019 
Q 384 1609 779 1909 
Q 1175 2209 1959 2209 
L 2766 2209 
L 2766 2266 
Q 2766 2663 2505 2880 
Q 2244 3097 1772 3097 
Q 1472 3097 1187 3025 
Q 903 2953 641 2809 
L 641 3341 
Q 956 3463 1253 3523 
Q 1550 3584 1831 3584 
Q 2591 3584 2966 3190 
Q 3341 2797 3341 1997 
z
" transform="scale(0.015625)"/>
       <path id="DejaVuSans-73" d="M 2834 3397 
L 2834 2853 
Q 2591 2978 2328 3040 
Q 2066 3103 1784 3103 
Q 1356 3103 1142 2972 
Q 928 2841 928 2578 
Q 928 2378 1081 2264 
Q 1234 2150 1697 2047 
L 1894 2003 
Q 2506 1872 2764 1633 
Q 3022 1394 3022 966 
Q 3022 478 2636 193 
Q 2250 -91 1575 -91 
Q 1294 -91 989 -36 
Q 684 19 347 128 
L 347 722 
Q 666 556 975 473 
Q 1284 391 1588 391 
Q 1994 391 2212 530 
Q 2431 669 2431 922 
Q 2431 1156 2273 1281 
Q 2116 1406 1581 1522 
L 1381 1569 
Q 847 1681 609 1914 
Q 372 2147 372 2553 
Q 372 3047 722 3315 
Q 1072 3584 1716 3584 
Q 2034 3584 2315 3537 
Q 2597 3491 2834 3397 
z
" transform="scale(0.015625)"/>
       <path id="DejaVuSans-76" d="M 191 3500 
L 800 3500 
L 1894 563 
L 2988 3500 
L 3597 3500 
L 2284 0 
L 1503 0 
L 191 3500 
z
" transform="scale(0.015625)"/>
       <path id="DejaVuSans-67" d="M 2906 1791 
Q 2906 2416 2648 2759 
Q 2391 3103 1925 3103 
Q 1463 3103 1205 2759 
Q 947 2416 947 1791 
Q 947 1169 1205 825 
Q 1463 481 1925 481 
Q 2391 481 2648 825 
Q 2906 1169 2906 1791 
z
M 3481 434 
Q 3481 -459 3084 -895 
Q 2688 -1331 1869 -1331 
Q 1566 -1331 1297 -1286 
Q 1028 -1241 775 -1147 
L 775 -588 
Q 1028 -725 1275 -790 
Q 1522 -856 1778 -856 
Q 2344 -856 2625 -561 
Q 2906 -266 2906 331 
L 2906 616 
Q 2728 306 2450 153 
Q 2172 0 1784 0 
Q 1141 0 747 490 
Q 353 981 353 1791 
Q 353 2603 747 3093 
Q 1141 3584 1784 3584 
Q 2172 3584 2450 3431 
Q 2728 3278 2906 2969 
L 2906 3500 
L 3481 3500 
L 3481 434 
z
" transform="scale(0.015625)"/>
       <path id="DejaVuSans-28" d="M 1984 4856 
Q 1566 4138 1362 3434 
Q 1159 2731 1159 2009 
Q 1159 1288 1364 580 
Q 1569 -128 1984 -844 
L 1484 -844 
Q 1016 -109 783 600 
Q 550 1309 550 2009 
Q 550 2706 781 3412 
Q 1013 4119 1484 4856 
L 1984 4856 
z
" transform="scale(0.015625)"/>
       <path id="DejaVuSans-79" d="M 2059 -325 
Q 1816 -950 1584 -1140 
Q 1353 -1331 966 -1331 
L 506 -1331 
L 506 -850 
L 844 -850 
Q 1081 -850 1212 -737 
Q 1344 -625 1503 -206 
L 1606 56 
L 191 3500 
L 800 3500 
L 1894 763 
L 2988 3500 
L 3597 3500 
L 2059 -325 
z
" transform="scale(0.015625)"/>
       <path id="DejaVuSans-29" d="M 513 4856 
L 1013 4856 
Q 1481 4119 1714 3412 
Q 1947 2706 1947 2009 
Q 1947 1309 1714 600 
Q 1481 -109 1013 -844 
L 513 -844 
Q 928 -128 1133 580 
Q 1338 1288 1338 2009 
Q 1338 2731 1133 3434 
Q 928 4138 513 4856 
z
" transform="scale(0.015625)"/>
      </defs>
      <use xlink:href="#DejaVuSans-54"/>
      <use xlink:href="#DejaVuSans-6f" x="44.083984"/>
      <use xlink:href="#DejaVuSans-74" x="105.265625"/>
      <use xlink:href="#DejaVuSans-61" x="144.474609"/>
      <use xlink:href="#DejaVuSans-6c" x="205.753906"/>
      <use xlink:href="#DejaVuSans-20" x="233.537109"/>
      <use xlink:href="#DejaVuSans-73" x="265.324219"/>
      <use xlink:href="#DejaVuSans-61" x="317.423828"/>
      <use xlink:href="#DejaVuSans-76" x="378.703125"/>
      <use xlink:href="#DejaVuSans-69" x="437.882812"/>
      <use xlink:href="#DejaVuSans-6e" x="465.666016"/>
      <use xlink:href="#DejaVuSans-67" x="529.044922"/>
      <use xlink:href="#DejaVuSans-73" x="592.521484"/>
      <use xlink:href="#DejaVuSans-20" x="644.621094"/>
      <use xlink:href="#DejaVuSans-28" x="676.408203"/>
      <use xlink:href="#DejaVuSans-62" x="715.421875"/>
      <use xlink:href="#DejaVuSans-79" x="778.898438"/>
      <use xlink:href="#DejaVuSans-74" x="838.078125"/>
      <use xlink:href="#DejaVuSans-65" x="877.287109"/>
      <use xlink:href="#DejaVuSans-73" x="938.810547"/>
      <use xlink:href="#DejaVuSans-29" x="990.910156"/>
     </g>
    </g>
    <g id="text_19">
     <!-- 1e6 -->
     <g transform="translate(180 83.4) scale(0.1 -0.1)">
      <use xlink:href="#DejaVuSans-31"/>
      <use xlink:href="#DejaVuSans-65" x="63.623047"/>
      <use xlink:href="#DejaVuSans-36" x="125.146484"/>
     </g>
    </g>
   </g>
   <g id="line2d_17">
    <path d="M 180 528.550322 
L 184.446215 534.068123 
L 193.338645 542.838303 
L 197.784861 546.385505 
L 206.677291 552.838851 
L 215.569721 558.883665 
L 220.015936 561.800809 
L 224.462151 564.517813 
L 228.908367 567.000102 
L 233.354582 569.337141 
L 237.800797 571.42549 
L 246.693227 575.162169 
L 255.585657 578.603183 
L 268.924303 583.329512 
L 277.816733 586.057909 
L 286.709163 588.387763 
L 304.494024 592.247131 
L 322.278884 595.904843 
L 335.61753 598.40369 
L 348.956175 600.474247 
L 357.848606 601.680258 
L 371.187251 603.134172 
L 380.079681 603.890678 
L 397.864542 604.9236 
L 411.203187 605.516839 
L 428.988048 605.787698 
L 442.326693 605.851961 
L 460.111554 605.434055 
L 477.896414 604.757975 
L 495.681275 603.903812 
L 509.01992 603.030116 
L 526.804781 601.512669 
L 544.589641 599.669473 
L 557.928287 598.025071 
L 575.713147 595.565569 
L 589.051793 593.517349 
L 606.836653 590.493735 
L 624.621514 587.164859 
L 633.513944 585.352812 
L 651.298805 581.421997 
L 664.63745 578.040588 
L 682.422311 573.341648 
L 695.760956 569.644873 
L 709.099602 565.749753 
L 722.438247 561.727791 
L 735.776892 557.363075 
L 753.561753 551.312592 
L 771.346614 544.873053 
L 789.131474 538.208621 
L 811.36255 529.484127 
L 829.14741 522.321026 
L 846.932271 514.807033 
L 869.163347 505.166638 
L 891.394422 495.147736 
L 913.625498 484.755493 
L 931.410359 476.172995 
L 949.195219 467.423301 
L 966.98008 458.349093 
L 984.76494 448.958453 
L 1002.549801 439.295664 
L 1015.888446 431.657691 
L 1029.227092 423.569877 
L 1042.565737 415.311219 
L 1055.904382 406.753136 
L 1069.243028 397.723603 
L 1078.135458 391.424488 
L 1100.366534 375.229778 
L 1113.705179 365.331489 
L 1131.49004 351.837787 
L 1140.38247 344.683834 
L 1153.721116 333.683085 
L 1171.505976 318.68535 
L 1184.844622 306.739907 
L 1202.629482 290.590602 
L 1211.521912 282.250451 
L 1224.860558 269.242454 
L 1238.199203 255.301942 
L 1247.091633 245.587237 
L 1251.537849 240.295956 
L 1264.876494 223.641808 
L 1273.768924 211.175246 
L 1282.661355 196.848708 
L 1287.10757 189.114256 
L 1291.553785 179.996944 
L 1291.553785 179.996944 
" clip-path="url(#p8011cdb1d9)" style="fill: none; stroke: #1f77b4; stroke-width: 1.5; stroke-linecap: square"/>
   </g>
   <g id="line2d_18">
    <path d="M 180 528.550322 
L 184.446215 534.044663 
L 193.338645 542.780494 
L 197.784861 546.320064 
L 206.677291 552.738668 
L 215.569721 558.750649 
L 220.015936 561.64888 
L 224.462151 564.323621 
L 228.908367 566.785369 
L 233.354582 569.095355 
L 237.800797 571.176071 
L 242.247012 573.095372 
L 251.139442 576.602613 
L 260.031873 579.882437 
L 268.924303 582.919464 
L 273.370518 584.310181 
L 282.262948 586.760143 
L 286.709163 587.855363 
L 313.386454 593.452749 
L 322.278884 595.224161 
L 335.61753 597.638596 
L 348.956175 599.645788 
L 357.848606 600.793148 
L 371.187251 602.193463 
L 380.079681 602.889074 
L 397.864542 603.827426 
L 411.203187 604.385194 
L 424.541833 604.577983 
L 442.326693 604.567095 
L 460.111554 604.078921 
L 477.896414 603.282341 
L 495.681275 602.318565 
L 509.01992 601.396996 
L 526.804781 599.791994 
L 544.589641 597.858437 
L 562.374502 595.500239 
L 575.713147 593.560172 
L 589.051793 591.408739 
L 602.390438 589.110651 
L 620.175299 585.756574 
L 633.513944 582.987263 
L 651.298805 578.959015 
L 664.63745 575.518057 
L 677.976096 571.941389 
L 695.760956 566.935446 
L 709.099602 562.957206 
L 722.438247 558.850888 
L 735.776892 554.378412 
L 758.007968 546.573692 
L 771.346614 541.638466 
L 793.577689 533.137798 
L 820.25498 522.425755 
L 838.039841 514.938533 
L 860.270916 505.280122 
L 878.055777 497.313819 
L 895.840637 489.141032 
L 918.071713 478.538937 
L 940.302789 467.59016 
L 953.641434 460.854113 
L 966.98008 453.929935 
L 984.76494 444.418908 
L 1002.549801 434.657059 
L 1015.888446 426.94096 
L 1029.227092 418.772775 
L 1042.565737 410.428976 
L 1055.904382 401.772505 
L 1069.243028 392.650198 
L 1078.135458 386.293443 
L 1100.366534 369.943885 
L 1113.705179 359.964495 
L 1131.49004 346.353492 
L 1144.828685 335.48155 
L 1158.167331 324.304176 
L 1171.505976 312.972346 
L 1184.844622 300.946309 
L 1202.629482 284.69654 
L 1211.521912 276.295213 
L 1224.860558 263.205329 
L 1238.199203 249.18714 
L 1247.091633 239.41749 
L 1251.537849 234.097416 
L 1264.876494 217.361382 
L 1273.768924 204.838471 
L 1282.661355 190.455022 
L 1287.10757 182.701544 
L 1291.553785 173.559706 
L 1291.553785 173.559706 
" clip-path="url(#p8011cdb1d9)" style="fill: none; stroke: #ff7f0e; stroke-width: 1.5; stroke-linecap: square"/>
   </g>
   <g id="line2d_19">
    <path d="M 180 528.550322 
L 184.446215 533.256895 
L 188.89243 537.097069 
L 193.338645 540.715886 
L 197.784861 543.60379 
L 206.677291 549.020005 
L 211.123506 552.027623 
L 215.569721 554.264029 
L 220.015936 556.368935 
L 224.462151 559.004951 
L 228.908367 561.420283 
L 233.354582 563.680879 
L 237.800797 565.206184 
L 242.247012 565.811603 
L 246.693227 567.589357 
L 251.139442 568.979176 
L 255.585657 570.659442 
L 260.031873 571.745794 
L 268.924303 574.679889 
L 273.370518 576.067744 
L 282.262948 578.509735 
L 286.709163 579.581046 
L 300.047809 582.374772 
L 304.494024 582.607129 
L 308.940239 583.494463 
L 313.386454 583.575002 
L 317.832669 583.478636 
L 322.278884 583.63601 
L 326.7251 584.430345 
L 331.171315 584.455937 
L 340.063745 585.82993 
L 357.848606 588.183805 
L 366.741036 589.104365 
L 371.187251 589.220263 
L 380.079681 589.870413 
L 393.418327 590.53336 
L 397.864542 590.72323 
L 402.310757 590.298309 
L 406.756972 590.474653 
L 415.649402 589.217681 
L 424.541833 589.316629 
L 442.326693 589.1615 
L 455.665339 588.762677 
L 464.557769 588.370869 
L 482.342629 587.423033 
L 504.573705 585.916418 
L 509.01992 584.885573 
L 526.804781 583.209461 
L 549.035857 580.473431 
L 571.266932 577.365181 
L 606.836653 571.120058 
L 611.282869 570.272854 
L 615.729084 569.300098 
L 624.621514 567.548891 
L 633.513944 565.640927 
L 651.298805 561.535844 
L 664.63745 558.031353 
L 669.083665 556.491175 
L 691.314741 550.297182 
L 709.099602 544.975986 
L 726.884462 539.293178 
L 735.776892 536.179484 
L 749.115538 531.426889 
L 762.454183 526.581294 
L 793.577689 514.654486 
L 811.36255 507.452097 
L 824.701195 501.898657 
L 838.039841 496.176449 
L 855.824701 488.313752 
L 864.717131 484.278825 
L 878.055777 478.240241 
L 895.840637 469.951276 
L 913.625498 461.387074 
L 931.410359 452.663029 
L 949.195219 443.740639 
L 962.533865 436.822972 
L 966.98008 434.073641 
L 984.76494 424.486508 
L 998.103586 417.147007 
L 1006.996016 412.10767 
L 1020.334661 404.230268 
L 1033.673307 395.921266 
L 1047.011952 387.434124 
L 1055.904382 381.624979 
L 1069.243028 372.483028 
L 1078.135458 366.068128 
L 1087.027888 359.469474 
L 1122.59761 332.73306 
L 1131.49004 325.832231 
L 1140.38247 318.600208 
L 1153.721116 307.455892 
L 1171.505976 292.306956 
L 1180.398406 284.298727 
L 1202.629482 263.921538 
L 1211.521912 255.486424 
L 1224.860558 242.349507 
L 1238.199203 228.311899 
L 1247.091633 218.525804 
L 1251.537849 213.204776 
L 1260.430279 202.136565 
L 1264.876494 196.437088 
L 1273.768924 183.906151 
L 1282.661355 169.507997 
L 1287.10757 161.754351 
L 1291.553785 152.611951 
L 1291.553785 152.611951 
" clip-path="url(#p8011cdb1d9)" style="fill: none; stroke: #2ca02c; stroke-width: 1.5; stroke-linecap: square"/>
   </g>
   <g id="line2d_20">
    <path d="M 180 528.550322 
L 184.446215 533.256895 
L 193.338645 540.102217 
L 197.784861 542.913117 
L 202.231076 545.479987 
L 206.677291 548.230329 
L 211.123506 547.057488 
L 220.015936 551.04527 
L 224.462151 553.681285 
L 228.908367 553.514931 
L 233.354582 552.844352 
L 237.800797 554.369656 
L 242.247012 554.348441 
L 246.693227 553.409416 
L 251.139442 554.799236 
L 255.585657 553.983405 
L 260.031873 555.005046 
L 268.924303 557.770822 
L 273.370518 557.121233 
L 277.816733 558.384659 
L 282.262948 557.022621 
L 286.709163 558.093932 
L 295.601594 559.956884 
L 300.047809 559.779305 
L 304.494024 560.011662 
L 308.940239 560.855218 
L 313.386454 560.935757 
L 317.832669 560.786072 
L 322.278884 560.943446 
L 326.7251 558.409017 
L 331.171315 558.43461 
L 335.61753 559.162549 
L 340.063745 559.169396 
L 357.848606 561.523272 
L 362.294821 562.002466 
L 366.741036 561.828928 
L 371.187251 561.944826 
L 375.633466 561.431508 
L 380.079681 561.719428 
L 384.525896 561.314824 
L 388.972112 560.765811 
L 397.864542 561.144149 
L 402.310757 560.719228 
L 406.756972 560.895572 
L 415.649402 559.620416 
L 420.095618 559.201556 
L 424.541833 556.573679 
L 442.326693 556.41855 
L 455.665339 556.019727 
L 460.111554 555.586499 
L 469.003984 555.144684 
L 473.450199 553.248001 
L 495.681275 551.853019 
L 504.573705 551.233625 
L 509.01992 550.20278 
L 526.804781 548.526668 
L 544.589641 546.385168 
L 571.266932 542.656178 
L 575.713147 541.806223 
L 580.159363 541.094617 
L 584.605578 540.142178 
L 606.836653 536.129533 
L 611.282869 535.282328 
L 615.729084 534.309572 
L 620.175299 532.992491 
L 633.513944 530.178335 
L 642.406375 528.181021 
L 646.85259 526.948463 
L 655.74502 524.725358 
L 664.63745 522.386187 
L 669.083665 520.846009 
L 677.976096 518.405084 
L 682.422311 517.045235 
L 686.868526 515.152144 
L 695.760956 512.572029 
L 700.207171 510.792086 
L 713.545817 506.691549 
L 726.884462 502.405576 
L 735.776892 499.291882 
L 744.669323 496.07649 
L 749.115538 494.271684 
L 758.007968 491.061343 
L 771.346614 485.950447 
L 793.577689 477.394103 
L 798.023904 475.441183 
L 820.25498 466.388022 
L 855.824701 450.878652 
L 864.717131 446.843725 
L 873.609562 442.847581 
L 878.055777 440.479057 
L 895.840637 432.190091 
L 900.286853 429.885662 
L 931.410359 414.678693 
L 949.195219 405.756302 
L 962.533865 398.838635 
L 971.426295 393.333855 
L 984.76494 386.112889 
L 998.103586 378.773388 
L 1006.996016 373.734051 
L 1020.334661 365.856649 
L 1033.673307 357.547648 
L 1047.011952 349.060505 
L 1051.458167 346.184164 
L 1064.796813 337.050127 
L 1069.243028 332.705166 
L 1078.135458 326.290265 
L 1087.027888 319.691612 
L 1104.812749 306.424205 
L 1109.258964 302.784622 
L 1127.043825 289.210661 
L 1135.936255 282.14533 
L 1149.2749 271.066062 
L 1167.059761 256.010013 
L 1171.505976 252.186283 
L 1175.952191 247.595047 
L 1202.629482 223.171818 
L 1211.521912 214.736704 
L 1224.860558 201.599787 
L 1238.199203 187.562179 
L 1247.091633 177.776084 
L 1251.537849 172.455057 
L 1260.430279 161.386845 
L 1264.876494 155.687368 
L 1273.768924 143.156431 
L 1282.661355 128.758277 
L 1287.10757 121.004631 
L 1291.553785 111.135808 
L 1291.553785 111.135808 
" clip-path="url(#p8011cdb1d9)" style="fill: none; stroke: #d62728; stroke-width: 1.5; stroke-linecap: square"/>
   </g>
   <g id="line2d_21">
    <path d="M 180 528.550322 
L 1296 528.550322 
" clip-path="url(#p8011cdb1d9)" style="fill: none; stroke: #000000; stroke-width: 0.5; stroke-linecap: square"/>
   </g>
   <g id="patch_3">
    <path d="M 180 640.8 
L 180 86.4 
" style="fill: none; stroke: #000000; stroke-width: 0.8; stroke-linejoin: miter; stroke-linecap: square"/>
   </g>
   <g id="patch_4">
    <path d="M 1296 640.8 
L 1296 86.4 
" style="fill: none; stroke: #000000; stroke-width: 0.8; stroke-linejoin: miter; stroke-linecap: square"/>
   </g>
   <g id="patch_5">
    <path d="M 180 640.8 
L 1296 640.8 
" style="fill: none; stroke: #000000; stroke-width: 0.8; stroke-linejoin: miter; stroke-linecap: square"/>
   </g>
   <g id="patch_6">
    <path d="M 180 86.4 
L 1296 86.4 
" style="fill: none; stroke: #000000; stroke-width: 0.8; stroke-linejoin: miter; stroke-linecap: square"/>
   </g>
   <g id="text_20">
    <!-- QB3 size savings vs PNG -->
    <g transform="translate(663.891562 80.4) scale(0.12 -0.12)">
     <defs>
      <path id="DejaVuSans-51" d="M 2522 4238 
Q 1834 4238 1429 3725 
Q 1025 3213 1025 2328 
Q 1025 1447 1429 934 
Q 1834 422 2522 422 
Q 3209 422 3611 934 
Q 4013 1447 4013 2328 
Q 4013 3213 3611 3725 
Q 3209 4238 2522 4238 
z
M 3406 84 
L 4238 -825 
L 3475 -825 
L 2784 -78 
Q 2681 -84 2626 -87 
Q 2572 -91 2522 -91 
Q 1538 -91 948 567 
Q 359 1225 359 2328 
Q 359 3434 948 4092 
Q 1538 4750 2522 4750 
Q 3503 4750 4090 4092 
Q 4678 3434 4678 2328 
Q 4678 1516 4351 937 
Q 4025 359 3406 84 
z
" transform="scale(0.015625)"/>
      <path id="DejaVuSans-42" d="M 1259 2228 
L 1259 519 
L 2272 519 
Q 2781 519 3026 730 
Q 3272 941 3272 1375 
Q 3272 1813 3026 2020 
Q 2781 2228 2272 2228 
L 1259 2228 
z
M 1259 4147 
L 1259 2741 
L 2194 2741 
Q 2656 2741 2882 2914 
Q 3109 3088 3109 3444 
Q 3109 3797 2882 3972 
Q 2656 4147 2194 4147 
L 1259 4147 
z
M 628 4666 
L 2241 4666 
Q 2963 4666 3353 4366 
Q 3744 4066 3744 3513 
Q 3744 3084 3544 2831 
Q 3344 2578 2956 2516 
Q 3422 2416 3680 2098 
Q 3938 1781 3938 1306 
Q 3938 681 3513 340 
Q 3088 0 2303 0 
L 628 0 
L 628 4666 
z
" transform="scale(0.015625)"/>
      <path id="DejaVuSans-7a" d="M 353 3500 
L 3084 3500 
L 3084 2975 
L 922 459 
L 3084 459 
L 3084 0 
L 275 0 
L 275 525 
L 2438 3041 
L 353 3041 
L 353 3500 
z
" transform="scale(0.015625)"/>
      <path id="DejaVuSans-50" d="M 1259 4147 
L 1259 2394 
L 2053 2394 
Q 2494 2394 2734 2622 
Q 2975 2850 2975 3272 
Q 2975 3691 2734 3919 
Q 2494 4147 2053 4147 
L 1259 4147 
z
M 628 4666 
L 2053 4666 
Q 2838 4666 3239 4311 
Q 3641 3956 3641 3272 
Q 3641 2581 3239 2228 
Q 2838 1875 2053 1875 
L 1259 1875 
L 1259 0 
L 628 0 
L 628 4666 
z
" transform="scale(0.015625)"/>
      <path id="DejaVuSans-4e" d="M 628 4666 
L 1478 4666 
L 3547 763 
L 3547 4666 
L 4159 4666 
L 4159 0 
L 3309 0 
L 1241 3903 
L 1241 0 
L 628 0 
L 628 4666 
z
" transform="scale(0.015625)"/>
      <path id="DejaVuSans-47" d="M 3809 666 
L 3809 1919 
L 2778 1919 
L 2778 2438 
L 4434 2438 
L 4434 434 
Q 4069 175 3628 42 
Q 3188 -91 2688 -91 
Q 1594 -91 976 548 
Q 359 1188 359 2328 
Q 359 3472 976 4111 
Q 1594 4750 2688 4750 
Q 3144 4750 3555 4637 
Q 3966 4525 4313 4306 
L 4313 3634 
Q 3963 3931 3569 4081 
Q 3175 4231 2741 4231 
Q 1884 4231 1454 3753 
Q 1025 3275 1025 2328 
Q 1025 1384 1454 906 
Q 1884 428 2741 428 
Q 3075 428 3337 486 
Q 3600 544 3809 666 
z
" transform="scale(0.015625)"/>
     </defs>
     <use xlink:href="#DejaVuSans-51"/>
     <use xlink:href="#DejaVuSans-42" x="78.710938"/>
     <use xlink:href="#DejaVuSans-33" x="147.314453"/>
     <use xlink:href="#DejaVuSans-20" x="210.9375"/>
     <use xlink:href="#DejaVuSans-73" x="242.724609"/>
     <use xlink:href="#DejaVuSans-69" x="294.824219"/>
     <use xlink:href="#DejaVuSans-7a" x="322.607422"/>
     <use xlink:href="#DejaVuSans-65" x="375.097656"/>
     <use xlink:href="#DejaVuSans-20" x="436.621094"/>
     <use xlink:href="#DejaVuSans-73" x="468.408203"/>
     <use xlink:href="#DejaVuSans-61" x="520.507812"/>
     <use xlink:href="#DejaVuSans-76" x="581.787109"/>
     <use xlink:href="#DejaVuSans-69" x="640.966797"/>
     <use xlink:href="#DejaVuSans-6e" x="668.75"/>
     <use xlink:href="#DejaVuSans-67" x="732.128906"/>
     <use xlink:href="#DejaVuSans-73" x="795.605469"/>
     <use xlink:href="#DejaVuSans-20" x="847.705078"/>
     <use xlink:href="#DejaVuSans-76" x="879.492188"/>
     <use xlink:href="#DejaVuSans-73" x="938.671875"/>
     <use xlink:href="#DejaVuSans-20" x="990.771484"/>
     <use xlink:href="#DejaVuSans-50" x="1022.558594"/>
     <use xlink:href="#DejaVuSans-4e" x="1082.861328"/>
     <use xlink:href="#DejaVuSans-47" x="1157.666016"/>
    </g>
   </g>
   <g id="legend_1">
    <g id="patch_7">
     <path d="M 187 153.1125 
L 315.373438 153.1125 
Q 317.373438 153.1125 317.373438 151.1125 
L 317.373438 93.4 
Q 317.373438 91.4 315.373438 91.4 
L 187 91.4 
Q 185 91.4 185 93.4 
L 185 151.1125 
Q 185 153.1125 187 153.1125 
z
" style="fill: #ffffff; opacity: 0.8; stroke: #cccccc; stroke-linejoin: miter"/>
    </g>
    <g id="line2d_22">
     <path d="M 189 99.498437 
L 199 99.498437 
L 209 99.498437 
" style="fill: none; stroke: #1f77b4; stroke-width: 1.5; stroke-linecap: square"/>
    </g>
    <g id="text_21">
     <!-- QB3 Fast -->
     <g transform="translate(217 102.998437) scale(0.1 -0.1)">
      <use xlink:href="#DejaVuSans-51"/>
      <use xlink:href="#DejaVuSans-42" x="78.710938"/>
      <use xlink:href="#DejaVuSans-33" x="147.314453"/>
      <use xlink:href="#DejaVuSans-20" x="210.9375"/>
      <use xlink:href="#DejaVuSans-46" x="242.724609"/>
      <use xlink:href="#DejaVuSans-61" x="291.119141"/>
      <use xlink:href="#DejaVuSans-73" x="352.398438"/>
      <use xlink:href="#DejaVuSans-74" x="404.498047"/>
     </g>
    </g>
    <g id="line2d_23">
     <path d="M 189 114.176562 
L 199 114.176562 
L 209 114.176562 
" style="fill: none; stroke: #ff7f0e; stroke-width: 1.5; stroke-linecap: square"/>
    </g>
    <g id="text_22">
     <!-- QB3 Base -->
     <g transform="translate(217 117.676562) scale(0.1 -0.1)">
      <use xlink:href="#DejaVuSans-51"/>
      <use xlink:href="#DejaVuSans-42" x="78.710938"/>
      <use xlink:href="#DejaVuSans-33" x="147.314453"/>
      <use xlink:href="#DejaVuSans-20" x="210.9375"/>
      <use xlink:href="#DejaVuSans-42" x="242.724609"/>
      <use xlink:href="#DejaVuSans-61" x="311.328125"/>
      <use xlink:href="#DejaVuSans-73" x="372.607422"/>
      <use xlink:href="#DejaVuSans-65" x="424.707031"/>
     </g>
    </g>
    <g id="line2d_24">
     <path d="M 189 128.854687 
L 199 128.854687 
L 209 128.854687 
" style="fill: none; stroke: #2ca02c; stroke-width: 1.5; stroke-linecap: square"/>
    </g>
    <g id="text_23">
     <!-- QB3 Best -->
     <g transform="translate(217 132.354687) scale(0.1 -0.1)">
      <use xlink:href="#DejaVuSans-51"/>
      <use xlink:href="#DejaVuSans-42" x="78.710938"/>
      <use xlink:href="#DejaVuSans-33" x="147.314453"/>
      <use xlink:href="#DejaVuSans-20" x="210.9375"/>
      <use xlink:href="#DejaVuSans-42" x="242.724609"/>
      <use xlink:href="#DejaVuSans-65" x="311.328125"/>
      <use xlink:href="#DejaVuSans-73" x="372.851562"/>
      <use xlink:href="#DejaVuSans-74" x="424.951172"/>
     </g>
    </g>
    <g id="line2d_25">
     <path d="M 189 143.532812 
L 199 143.532812 
L 209 143.532812 
" style="fill: none; stroke: #d62728; stroke-width: 1.5; stroke-linecap: square"/>
    </g>
    <g id="text_24">
     <!-- QB3 Best band mix -->
     <g transform="translate(217 147.032812) scale(0.1 -0.1)">
      <defs>
       <path id="DejaVuSans-64" d="M 2906 2969 
L 2906 4863 
L 3481 4863 
L 3481 0 
L 2906 0 
L 2906 525 
Q 2725 213 2448 61 
Q 2172 -91 1784 -91 
Q 1150 -91 751 415 
Q 353 922 353 1747 
Q 353 2572 751 3078 
Q 1150 3584 1784 3584 
Q 2172 3584 2448 3432 
Q 2725 3281 2906 2969 
z
M 947 1747 
Q 947 1113 1208 752 
Q 1469 391 1925 391 
Q 2381 391 2643 752 
Q 2906 1113 2906 1747 
Q 2906 2381 2643 2742 
Q 2381 3103 1925 3103 
Q 1469 3103 1208 2742 
Q 947 2381 947 1747 
z
" transform="scale(0.015625)"/>
       <path id="DejaVuSans-78" d="M 3513 3500 
L 2247 1797 
L 3578 0 
L 2900 0 
L 1881 1375 
L 863 0 
L 184 0 
L 1544 1831 
L 300 3500 
L 978 3500 
L 1906 2253 
L 2834 3500 
L 3513 3500 
z
" transform="scale(0.015625)"/>
      </defs>
      <use xlink:href="#DejaVuSans-51"/>
      <use xlink:href="#DejaVuSans-42" x="78.710938"/>
      <use xlink:href="#DejaVuSans-33" x="147.314453"/>
      <use xlink:href="#DejaVuSans-20" x="210.9375"/>
      <use xlink:href="#DejaVuSans-42" x="242.724609"/>
      <use xlink:href="#DejaVuSans-65" x="311.328125"/>
      <use xlink:href="#DejaVuSans-73" x="372.851562"/>
      <use xlink:href="#DejaVuSans-74" x="424.951172"/>
      <use xlink:href="#DejaVuSans-20" x="464.160156"/>
      <use xlink:href="#DejaVuSans-62" x="495.947266"/>
      <use xlink:href="#DejaVuSans-61" x="559.423828"/>
      <use xlink:href="#DejaVuSans-6e" x="620.703125"/>
      <use xlink:href="#DejaVuSans-64" x="684.082031"/>
      <use xlink:href="#DejaVuSans-20" x="747.558594"/>
      <use xlink:href="#DejaVuSans-6d" x="779.345703"/>
      <use xlink:href="#DejaVuSans-69" x="876.757812"/>
      <use xlink:href="#DejaVuSans-78" x="904.541016"/>
     </g>
    </g>
   </g>
  </g>
 </g>
 <defs>
  <clipPath id="p8011cdb1d9">
   <rect x="180" y="86.4" width="1116" height="554.4"/>
  </clipPath>
 </defs>
</svg>
