<?xml version="1.0" encoding="utf-8" standalone="no"?>
<!DOCTYPE svg PUBLIC "-//W3C//DTD SVG 1.1//EN"
  "http://www.w3.org/Graphics/SVG/1.1/DTD/svg11.dtd">
<svg xmlns:xlink="http://www.w3.org/1999/xlink" width="1440pt" height="720pt" viewBox="0 0 1440 720" xmlns="http://www.w3.org/2000/svg" version="1.1">
 <metadata>
  <rdf:RDF xmlns:dc="http://purl.org/dc/elements/1.1/" xmlns:cc="http://creativecommons.org/ns#" xmlns:rdf="http://www.w3.org/1999/02/22-rdf-syntax-ns#">
   <cc:Work>
    <dc:type rdf:resource="http://purl.org/dc/dcmitype/StillImage"/>
    <dc:date>2025-03-20T10:56:40.030202</dc:date>
    <dc:format>image/svg+xml</dc:format>
    <dc:creator>
     <cc:Agent>
      <dc:title>Matplotlib v3.9.0, https://matplotlib.org/</dc:title>
     </cc:Agent>
    </dc:creator>
   </cc:Work>
  </rdf:RDF>
 </metadata>
 <defs>
  <style type="text/css">*{stroke-linejoin: round; stroke-linecap: butt}</style>
 </defs>
 <g id="figure_1">
  <g id="patch_1">
   <path d="M 0 720 
L 1440 720 
L 1440 0 
L 0 0 
z
" style="fill: #ffffff"/>
  </g>
  <g id="axes_1">
   <g id="patch_2">
    <path d="M 54.02 678.04 
L 1429.2 678.04 
L 1429.2 26.88 
L 54.02 26.88 
z
" style="fill: #ffffff"/>
   </g>
   <g id="matplotlib.axis_1">
    <g id="xtick_1">
     <g id="line2d_1">
      <defs>
       <path id="m5e9444b66a" d="M 0 0 
L 0 3.5 
" style="stroke: #000000; stroke-width: 0.8"/>
      </defs>
      <g>
       <use xlink:href="#m5e9444b66a" x="116.528182" y="678.04" style="stroke: #000000; stroke-width: 0.8"/>
      </g>
     </g>
     <g id="text_1">
      <!-- 0 -->
      <g transform="translate(113.346932 692.638438) scale(0.1 -0.1)">
       <defs>
        <path id="DejaVuSans-30" d="M 2034 4250 
Q 1547 4250 1301 3770 
Q 1056 3291 1056 2328 
Q 1056 1369 1301 889 
Q 1547 409 2034 409 
Q 2525 409 2770 889 
Q 3016 1369 3016 2328 
Q 3016 3291 2770 3770 
Q 2525 4250 2034 4250 
z
M 2034 4750 
Q 2819 4750 3233 4129 
Q 3647 3509 3647 2328 
Q 3647 1150 3233 529 
Q 2819 -91 2034 -91 
Q 1250 -91 836 529 
Q 422 1150 422 2328 
Q 422 3509 836 4129 
Q 1250 4750 2034 4750 
z
" transform="scale(0.015625)"/>
       </defs>
       <use xlink:href="#DejaVuSans-30"/>
      </g>
     </g>
    </g>
    <g id="xtick_2">
     <g id="line2d_2">
      <g>
       <use xlink:href="#m5e9444b66a" x="369.597744" y="678.04" style="stroke: #000000; stroke-width: 0.8"/>
      </g>
     </g>
     <g id="text_2">
      <!-- 50 -->
      <g transform="translate(363.235244 692.638438) scale(0.1 -0.1)">
       <defs>
        <path id="DejaVuSans-35" d="M 691 4666 
L 3169 4666 
L 3169 4134 
L 1269 4134 
L 1269 2991 
Q 1406 3038 1543 3061 
Q 1681 3084 1819 3084 
Q 2600 3084 3056 2656 
Q 3513 2228 3513 1497 
Q 3513 744 3044 326 
Q 2575 -91 1722 -91 
Q 1428 -91 1123 -41 
Q 819 9 494 109 
L 494 744 
Q 775 591 1075 516 
Q 1375 441 1709 441 
Q 2250 441 2565 725 
Q 2881 1009 2881 1497 
Q 2881 1984 2565 2268 
Q 2250 2553 1709 2553 
Q 1456 2553 1204 2497 
Q 953 2441 691 2322 
L 691 4666 
z
" transform="scale(0.015625)"/>
       </defs>
       <use xlink:href="#DejaVuSans-35"/>
       <use xlink:href="#DejaVuSans-30" x="63.623047"/>
      </g>
     </g>
    </g>
    <g id="xtick_3">
     <g id="line2d_3">
      <g>
       <use xlink:href="#m5e9444b66a" x="622.667306" y="678.04" style="stroke: #000000; stroke-width: 0.8"/>
      </g>
     </g>
     <g id="text_3">
      <!-- 100 -->
      <g transform="translate(613.123556 692.638438) scale(0.1 -0.1)">
       <defs>
        <path id="DejaVuSans-31" d="M 794 531 
L 1825 531 
L 1825 4091 
L 703 3866 
L 703 4441 
L 1819 4666 
L 2450 4666 
L 2450 531 
L 3481 531 
L 3481 0 
L 794 0 
L 794 531 
z
" transform="scale(0.015625)"/>
       </defs>
       <use xlink:href="#DejaVuSans-31"/>
       <use xlink:href="#DejaVuSans-30" x="63.623047"/>
       <use xlink:href="#DejaVuSans-30" x="127.246094"/>
      </g>
     </g>
    </g>
    <g id="xtick_4">
     <g id="line2d_4">
      <g>
       <use xlink:href="#m5e9444b66a" x="875.736868" y="678.04" style="stroke: #000000; stroke-width: 0.8"/>
      </g>
     </g>
     <g id="text_4">
      <!-- 150 -->
      <g transform="translate(866.193118 692.638438) scale(0.1 -0.1)">
       <use xlink:href="#DejaVuSans-31"/>
       <use xlink:href="#DejaVuSans-35" x="63.623047"/>
       <use xlink:href="#DejaVuSans-30" x="127.246094"/>
      </g>
     </g>
    </g>
    <g id="xtick_5">
     <g id="line2d_5">
      <g>
       <use xlink:href="#m5e9444b66a" x="1128.80643" y="678.04" style="stroke: #000000; stroke-width: 0.8"/>
      </g>
     </g>
     <g id="text_5">
      <!-- 200 -->
      <g transform="translate(1119.26268 692.638438) scale(0.1 -0.1)">
       <defs>
        <path id="DejaVuSans-32" d="M 1228 531 
L 3431 531 
L 3431 0 
L 469 0 
L 469 531 
Q 828 903 1448 1529 
Q 2069 2156 2228 2338 
Q 2531 2678 2651 2914 
Q 2772 3150 2772 3378 
Q 2772 3750 2511 3984 
Q 2250 4219 1831 4219 
Q 1534 4219 1204 4116 
Q 875 4013 500 3803 
L 500 4441 
Q 881 4594 1212 4672 
Q 1544 4750 1819 4750 
Q 2544 4750 2975 4387 
Q 3406 4025 3406 3419 
Q 3406 3131 3298 2873 
Q 3191 2616 2906 2266 
Q 2828 2175 2409 1742 
Q 1991 1309 1228 531 
z
" transform="scale(0.015625)"/>
       </defs>
       <use xlink:href="#DejaVuSans-32"/>
       <use xlink:href="#DejaVuSans-30" x="63.623047"/>
       <use xlink:href="#DejaVuSans-30" x="127.246094"/>
      </g>
     </g>
    </g>
    <g id="xtick_6">
     <g id="line2d_6">
      <g>
       <use xlink:href="#m5e9444b66a" x="1381.875992" y="678.04" style="stroke: #000000; stroke-width: 0.8"/>
      </g>
     </g>
     <g id="text_6">
      <!-- 250 -->
      <g transform="translate(1372.332242 692.638438) scale(0.1 -0.1)">
       <use xlink:href="#DejaVuSans-32"/>
       <use xlink:href="#DejaVuSans-35" x="63.623047"/>
       <use xlink:href="#DejaVuSans-30" x="127.246094"/>
      </g>
     </g>
    </g>
    <g id="text_7">
     <!-- File number -->
     <g transform="translate(712.138906 706.316563) scale(0.1 -0.1)">
      <defs>
       <path id="DejaVuSans-46" d="M 628 4666 
L 3309 4666 
L 3309 4134 
L 1259 4134 
L 1259 2759 
L 3109 2759 
L 3109 2228 
L 1259 2228 
L 1259 0 
L 628 0 
L 628 4666 
z
" transform="scale(0.015625)"/>
       <path id="DejaVuSans-69" d="M 603 3500 
L 1178 3500 
L 1178 0 
L 603 0 
L 603 3500 
z
M 603 4863 
L 1178 4863 
L 1178 4134 
L 603 4134 
L 603 4863 
z
" transform="scale(0.015625)"/>
       <path id="DejaVuSans-6c" d="M 603 4863 
L 1178 4863 
L 1178 0 
L 603 0 
L 603 4863 
z
" transform="scale(0.015625)"/>
       <path id="DejaVuSans-65" d="M 3597 1894 
L 3597 1613 
L 953 1613 
Q 991 1019 1311 708 
Q 1631 397 2203 397 
Q 2534 397 2845 478 
Q 3156 559 3463 722 
L 3463 178 
Q 3153 47 2828 -22 
Q 2503 -91 2169 -91 
Q 1331 -91 842 396 
Q 353 884 353 1716 
Q 353 2575 817 3079 
Q 1281 3584 2069 3584 
Q 2775 3584 3186 3129 
Q 3597 2675 3597 1894 
z
M 3022 2063 
Q 3016 2534 2758 2815 
Q 2500 3097 2075 3097 
Q 1594 3097 1305 2825 
Q 1016 2553 972 2059 
L 3022 2063 
z
" transform="scale(0.015625)"/>
       <path id="DejaVuSans-20" transform="scale(0.015625)"/>
       <path id="DejaVuSans-6e" d="M 3513 2113 
L 3513 0 
L 2938 0 
L 2938 2094 
Q 2938 2591 2744 2837 
Q 2550 3084 2163 3084 
Q 1697 3084 1428 2787 
Q 1159 2491 1159 1978 
L 1159 0 
L 581 0 
L 581 3500 
L 1159 3500 
L 1159 2956 
Q 1366 3272 1645 3428 
Q 1925 3584 2291 3584 
Q 2894 3584 3203 3211 
Q 3513 2838 3513 2113 
z
" transform="scale(0.015625)"/>
       <path id="DejaVuSans-75" d="M 544 1381 
L 544 3500 
L 1119 3500 
L 1119 1403 
Q 1119 906 1312 657 
Q 1506 409 1894 409 
Q 2359 409 2629 706 
Q 2900 1003 2900 1516 
L 2900 3500 
L 3475 3500 
L 3475 0 
L 2900 0 
L 2900 538 
Q 2691 219 2414 64 
Q 2138 -91 1772 -91 
Q 1169 -91 856 284 
Q 544 659 544 1381 
z
M 1991 3584 
L 1991 3584 
z
" transform="scale(0.015625)"/>
       <path id="DejaVuSans-6d" d="M 3328 2828 
Q 3544 3216 3844 3400 
Q 4144 3584 4550 3584 
Q 5097 3584 5394 3201 
Q 5691 2819 5691 2113 
L 5691 0 
L 5113 0 
L 5113 2094 
Q 5113 2597 4934 2840 
Q 4756 3084 4391 3084 
Q 3944 3084 3684 2787 
Q 3425 2491 3425 1978 
L 3425 0 
L 2847 0 
L 2847 2094 
Q 2847 2600 2669 2842 
Q 2491 3084 2119 3084 
Q 1678 3084 1418 2786 
Q 1159 2488 1159 1978 
L 1159 0 
L 581 0 
L 581 3500 
L 1159 3500 
L 1159 2956 
Q 1356 3278 1631 3431 
Q 1906 3584 2284 3584 
Q 2666 3584 2933 3390 
Q 3200 3197 3328 2828 
z
" transform="scale(0.015625)"/>
       <path id="DejaVuSans-62" d="M 3116 1747 
Q 3116 2381 2855 2742 
Q 2594 3103 2138 3103 
Q 1681 3103 1420 2742 
Q 1159 2381 1159 1747 
Q 1159 1113 1420 752 
Q 1681 391 2138 391 
Q 2594 391 2855 752 
Q 3116 1113 3116 1747 
z
M 1159 2969 
Q 1341 3281 1617 3432 
Q 1894 3584 2278 3584 
Q 2916 3584 3314 3078 
Q 3713 2572 3713 1747 
Q 3713 922 3314 415 
Q 2916 -91 2278 -91 
Q 1894 -91 1617 61 
Q 1341 213 1159 525 
L 1159 0 
L 581 0 
L 581 4863 
L 1159 4863 
L 1159 2969 
z
" transform="scale(0.015625)"/>
       <path id="DejaVuSans-72" d="M 2631 2963 
Q 2534 3019 2420 3045 
Q 2306 3072 2169 3072 
Q 1681 3072 1420 2755 
Q 1159 2438 1159 1844 
L 1159 0 
L 581 0 
L 581 3500 
L 1159 3500 
L 1159 2956 
Q 1341 3275 1631 3429 
Q 1922 3584 2338 3584 
Q 2397 3584 2469 3576 
Q 2541 3569 2628 3553 
L 2631 2963 
z
" transform="scale(0.015625)"/>
      </defs>
      <use xlink:href="#DejaVuSans-46"/>
      <use xlink:href="#DejaVuSans-69" x="50.269531"/>
      <use xlink:href="#DejaVuSans-6c" x="78.052734"/>
      <use xlink:href="#DejaVuSans-65" x="105.835938"/>
      <use xlink:href="#DejaVuSans-20" x="167.359375"/>
      <use xlink:href="#DejaVuSans-6e" x="199.146484"/>
      <use xlink:href="#DejaVuSans-75" x="262.525391"/>
      <use xlink:href="#DejaVuSans-6d" x="325.904297"/>
      <use xlink:href="#DejaVuSans-62" x="423.316406"/>
      <use xlink:href="#DejaVuSans-65" x="486.792969"/>
      <use xlink:href="#DejaVuSans-72" x="548.316406"/>
     </g>
    </g>
   </g>
   <g id="matplotlib.axis_2">
    <g id="ytick_1">
     <g id="line2d_7">
      <defs>
       <path id="m8cb1e6c302" d="M 0 0 
L -3.5 0 
" style="stroke: #000000; stroke-width: 0.8"/>
      </defs>
      <g>
       <use xlink:href="#m8cb1e6c302" x="54.02" y="652.241171" style="stroke: #000000; stroke-width: 0.8"/>
      </g>
     </g>
     <g id="text_8">
      <!-- 0.00 -->
      <g transform="translate(24.754375 656.04039) scale(0.1 -0.1)">
       <defs>
        <path id="DejaVuSans-2e" d="M 684 794 
L 1344 794 
L 1344 0 
L 684 0 
L 684 794 
z
" transform="scale(0.015625)"/>
       </defs>
       <use xlink:href="#DejaVuSans-30"/>
       <use xlink:href="#DejaVuSans-2e" x="63.623047"/>
       <use xlink:href="#DejaVuSans-30" x="95.410156"/>
       <use xlink:href="#DejaVuSans-30" x="159.033203"/>
      </g>
     </g>
    </g>
    <g id="ytick_2">
     <g id="line2d_8">
      <g>
       <use xlink:href="#m8cb1e6c302" x="54.02" y="573.375516" style="stroke: #000000; stroke-width: 0.8"/>
      </g>
     </g>
     <g id="text_9">
      <!-- 0.02 -->
      <g transform="translate(24.754375 577.174735) scale(0.1 -0.1)">
       <use xlink:href="#DejaVuSans-30"/>
       <use xlink:href="#DejaVuSans-2e" x="63.623047"/>
       <use xlink:href="#DejaVuSans-30" x="95.410156"/>
       <use xlink:href="#DejaVuSans-32" x="159.033203"/>
      </g>
     </g>
    </g>
    <g id="ytick_3">
     <g id="line2d_9">
      <g>
       <use xlink:href="#m8cb1e6c302" x="54.02" y="494.509861" style="stroke: #000000; stroke-width: 0.8"/>
      </g>
     </g>
     <g id="text_10">
      <!-- 0.04 -->
      <g transform="translate(24.754375 498.309079) scale(0.1 -0.1)">
       <defs>
        <path id="DejaVuSans-34" d="M 2419 4116 
L 825 1625 
L 2419 1625 
L 2419 4116 
z
M 2253 4666 
L 3047 4666 
L 3047 1625 
L 3713 1625 
L 3713 1100 
L 3047 1100 
L 3047 0 
L 2419 0 
L 2419 1100 
L 313 1100 
L 313 1709 
L 2253 4666 
z
" transform="scale(0.015625)"/>
       </defs>
       <use xlink:href="#DejaVuSans-30"/>
       <use xlink:href="#DejaVuSans-2e" x="63.623047"/>
       <use xlink:href="#DejaVuSans-30" x="95.410156"/>
       <use xlink:href="#DejaVuSans-34" x="159.033203"/>
      </g>
     </g>
    </g>
    <g id="ytick_4">
     <g id="line2d_10">
      <g>
       <use xlink:href="#m8cb1e6c302" x="54.02" y="415.644205" style="stroke: #000000; stroke-width: 0.8"/>
      </g>
     </g>
     <g id="text_11">
      <!-- 0.06 -->
      <g transform="translate(24.754375 419.443424) scale(0.1 -0.1)">
       <defs>
        <path id="DejaVuSans-36" d="M 2113 2584 
Q 1688 2584 1439 2293 
Q 1191 2003 1191 1497 
Q 1191 994 1439 701 
Q 1688 409 2113 409 
Q 2538 409 2786 701 
Q 3034 994 3034 1497 
Q 3034 2003 2786 2293 
Q 2538 2584 2113 2584 
z
M 3366 4563 
L 3366 3988 
Q 3128 4100 2886 4159 
Q 2644 4219 2406 4219 
Q 1781 4219 1451 3797 
Q 1122 3375 1075 2522 
Q 1259 2794 1537 2939 
Q 1816 3084 2150 3084 
Q 2853 3084 3261 2657 
Q 3669 2231 3669 1497 
Q 3669 778 3244 343 
Q 2819 -91 2113 -91 
Q 1303 -91 875 529 
Q 447 1150 447 2328 
Q 447 3434 972 4092 
Q 1497 4750 2381 4750 
Q 2619 4750 2861 4703 
Q 3103 4656 3366 4563 
z
" transform="scale(0.015625)"/>
       </defs>
       <use xlink:href="#DejaVuSans-30"/>
       <use xlink:href="#DejaVuSans-2e" x="63.623047"/>
       <use xlink:href="#DejaVuSans-30" x="95.410156"/>
       <use xlink:href="#DejaVuSans-36" x="159.033203"/>
      </g>
     </g>
    </g>
    <g id="ytick_5">
     <g id="line2d_11">
      <g>
       <use xlink:href="#m8cb1e6c302" x="54.02" y="336.77855" style="stroke: #000000; stroke-width: 0.8"/>
      </g>
     </g>
     <g id="text_12">
      <!-- 0.08 -->
      <g transform="translate(24.754375 340.577769) scale(0.1 -0.1)">
       <defs>
        <path id="DejaVuSans-38" d="M 2034 2216 
Q 1584 2216 1326 1975 
Q 1069 1734 1069 1313 
Q 1069 891 1326 650 
Q 1584 409 2034 409 
Q 2484 409 2743 651 
Q 3003 894 3003 1313 
Q 3003 1734 2745 1975 
Q 2488 2216 2034 2216 
z
M 1403 2484 
Q 997 2584 770 2862 
Q 544 3141 544 3541 
Q 544 4100 942 4425 
Q 1341 4750 2034 4750 
Q 2731 4750 3128 4425 
Q 3525 4100 3525 3541 
Q 3525 3141 3298 2862 
Q 3072 2584 2669 2484 
Q 3125 2378 3379 2068 
Q 3634 1759 3634 1313 
Q 3634 634 3220 271 
Q 2806 -91 2034 -91 
Q 1263 -91 848 271 
Q 434 634 434 1313 
Q 434 1759 690 2068 
Q 947 2378 1403 2484 
z
M 1172 3481 
Q 1172 3119 1398 2916 
Q 1625 2713 2034 2713 
Q 2441 2713 2670 2916 
Q 2900 3119 2900 3481 
Q 2900 3844 2670 4047 
Q 2441 4250 2034 4250 
Q 1625 4250 1398 4047 
Q 1172 3844 1172 3481 
z
" transform="scale(0.015625)"/>
       </defs>
       <use xlink:href="#DejaVuSans-30"/>
       <use xlink:href="#DejaVuSans-2e" x="63.623047"/>
       <use xlink:href="#DejaVuSans-30" x="95.410156"/>
       <use xlink:href="#DejaVuSans-38" x="159.033203"/>
      </g>
     </g>
    </g>
    <g id="ytick_6">
     <g id="line2d_12">
      <g>
       <use xlink:href="#m8cb1e6c302" x="54.02" y="257.912895" style="stroke: #000000; stroke-width: 0.8"/>
      </g>
     </g>
     <g id="text_13">
      <!-- 0.10 -->
      <g transform="translate(24.754375 261.712114) scale(0.1 -0.1)">
       <use xlink:href="#DejaVuSans-30"/>
       <use xlink:href="#DejaVuSans-2e" x="63.623047"/>
       <use xlink:href="#DejaVuSans-31" x="95.410156"/>
       <use xlink:href="#DejaVuSans-30" x="159.033203"/>
      </g>
     </g>
    </g>
    <g id="ytick_7">
     <g id="line2d_13">
      <g>
       <use xlink:href="#m8cb1e6c302" x="54.02" y="179.04724" style="stroke: #000000; stroke-width: 0.8"/>
      </g>
     </g>
     <g id="text_14">
      <!-- 0.12 -->
      <g transform="translate(24.754375 182.846459) scale(0.1 -0.1)">
       <use xlink:href="#DejaVuSans-30"/>
       <use xlink:href="#DejaVuSans-2e" x="63.623047"/>
       <use xlink:href="#DejaVuSans-31" x="95.410156"/>
       <use xlink:href="#DejaVuSans-32" x="159.033203"/>
      </g>
     </g>
    </g>
    <g id="ytick_8">
     <g id="line2d_14">
      <g>
       <use xlink:href="#m8cb1e6c302" x="54.02" y="100.181585" style="stroke: #000000; stroke-width: 0.8"/>
      </g>
     </g>
     <g id="text_15">
      <!-- 0.14 -->
      <g transform="translate(24.754375 103.980803) scale(0.1 -0.1)">
       <use xlink:href="#DejaVuSans-30"/>
       <use xlink:href="#DejaVuSans-2e" x="63.623047"/>
       <use xlink:href="#DejaVuSans-31" x="95.410156"/>
       <use xlink:href="#DejaVuSans-34" x="159.033203"/>
      </g>
     </g>
    </g>
    <g id="text_16">
     <!-- Seconds -->
     <g transform="translate(18.674687 373.467031) rotate(-90) scale(0.1 -0.1)">
      <defs>
       <path id="DejaVuSans-53" d="M 3425 4513 
L 3425 3897 
Q 3066 4069 2747 4153 
Q 2428 4238 2131 4238 
Q 1616 4238 1336 4038 
Q 1056 3838 1056 3469 
Q 1056 3159 1242 3001 
Q 1428 2844 1947 2747 
L 2328 2669 
Q 3034 2534 3370 2195 
Q 3706 1856 3706 1288 
Q 3706 609 3251 259 
Q 2797 -91 1919 -91 
Q 1588 -91 1214 -16 
Q 841 59 441 206 
L 441 856 
Q 825 641 1194 531 
Q 1563 422 1919 422 
Q 2459 422 2753 634 
Q 3047 847 3047 1241 
Q 3047 1584 2836 1778 
Q 2625 1972 2144 2069 
L 1759 2144 
Q 1053 2284 737 2584 
Q 422 2884 422 3419 
Q 422 4038 858 4394 
Q 1294 4750 2059 4750 
Q 2388 4750 2728 4690 
Q 3069 4631 3425 4513 
z
" transform="scale(0.015625)"/>
       <path id="DejaVuSans-63" d="M 3122 3366 
L 3122 2828 
Q 2878 2963 2633 3030 
Q 2388 3097 2138 3097 
Q 1578 3097 1268 2742 
Q 959 2388 959 1747 
Q 959 1106 1268 751 
Q 1578 397 2138 397 
Q 2388 397 2633 464 
Q 2878 531 3122 666 
L 3122 134 
Q 2881 22 2623 -34 
Q 2366 -91 2075 -91 
Q 1284 -91 818 406 
Q 353 903 353 1747 
Q 353 2603 823 3093 
Q 1294 3584 2113 3584 
Q 2378 3584 2631 3529 
Q 2884 3475 3122 3366 
z
" transform="scale(0.015625)"/>
       <path id="DejaVuSans-6f" d="M 1959 3097 
Q 1497 3097 1228 2736 
Q 959 2375 959 1747 
Q 959 1119 1226 758 
Q 1494 397 1959 397 
Q 2419 397 2687 759 
Q 2956 1122 2956 1747 
Q 2956 2369 2687 2733 
Q 2419 3097 1959 3097 
z
M 1959 3584 
Q 2709 3584 3137 3096 
Q 3566 2609 3566 1747 
Q 3566 888 3137 398 
Q 2709 -91 1959 -91 
Q 1206 -91 779 398 
Q 353 888 353 1747 
Q 353 2609 779 3096 
Q 1206 3584 1959 3584 
z
" transform="scale(0.015625)"/>
       <path id="DejaVuSans-64" d="M 2906 2969 
L 2906 4863 
L 3481 4863 
L 3481 0 
L 2906 0 
L 2906 525 
Q 2725 213 2448 61 
Q 2172 -91 1784 -91 
Q 1150 -91 751 415 
Q 353 922 353 1747 
Q 353 2572 751 3078 
Q 1150 3584 1784 3584 
Q 2172 3584 2448 3432 
Q 2725 3281 2906 2969 
z
M 947 1747 
Q 947 1113 1208 752 
Q 1469 391 1925 391 
Q 2381 391 2643 752 
Q 2906 1113 2906 1747 
Q 2906 2381 2643 2742 
Q 2381 3103 1925 3103 
Q 1469 3103 1208 2742 
Q 947 2381 947 1747 
z
" transform="scale(0.015625)"/>
       <path id="DejaVuSans-73" d="M 2834 3397 
L 2834 2853 
Q 2591 2978 2328 3040 
Q 2066 3103 1784 3103 
Q 1356 3103 1142 2972 
Q 928 2841 928 2578 
Q 928 2378 1081 2264 
Q 1234 2150 1697 2047 
L 1894 2003 
Q 2506 1872 2764 1633 
Q 3022 1394 3022 966 
Q 3022 478 2636 193 
Q 2250 -91 1575 -91 
Q 1294 -91 989 -36 
Q 684 19 347 128 
L 347 722 
Q 666 556 975 473 
Q 1284 391 1588 391 
Q 1994 391 2212 530 
Q 2431 669 2431 922 
Q 2431 1156 2273 1281 
Q 2116 1406 1581 1522 
L 1381 1569 
Q 847 1681 609 1914 
Q 372 2147 372 2553 
Q 372 3047 722 3315 
Q 1072 3584 1716 3584 
Q 2034 3584 2315 3537 
Q 2597 3491 2834 3397 
z
" transform="scale(0.015625)"/>
      </defs>
      <use xlink:href="#DejaVuSans-53"/>
      <use xlink:href="#DejaVuSans-65" x="63.476562"/>
      <use xlink:href="#DejaVuSans-63" x="125"/>
      <use xlink:href="#DejaVuSans-6f" x="179.980469"/>
      <use xlink:href="#DejaVuSans-6e" x="241.162109"/>
      <use xlink:href="#DejaVuSans-64" x="304.541016"/>
      <use xlink:href="#DejaVuSans-73" x="368.017578"/>
     </g>
    </g>
   </g>
   <g id="line2d_15">
    <path d="M 116.528182 648.140551 
L 126.650964 647.985186 
L 131.712356 648.441818 
L 136.773747 647.312856 
L 141.835138 648.20325 
L 146.896529 648.111765 
L 151.957921 647.083357 
L 157.019312 647.8243 
L 162.080703 646.547071 
L 167.142094 647.055754 
L 182.326268 646.892108 
L 187.387659 646.428772 
L 197.510442 646.875152 
L 202.571833 646.679565 
L 207.633224 646.29825 
L 212.694615 645.737909 
L 217.756007 647.138958 
L 222.817398 644.561234 
L 227.878789 645.011162 
L 232.94018 641.594702 
L 238.001572 643.558062 
L 243.062963 641.869549 
L 248.124354 641.697227 
L 253.185745 641.839974 
L 258.247137 641.698805 
L 263.308528 641.380976 
L 268.369919 642.08012 
L 273.43131 642.473265 
L 278.492702 641.770572 
L 283.554093 644.048607 
L 288.615484 641.918446 
L 293.676875 641.822624 
L 298.738266 641.091145 
L 303.799658 642.171999 
L 308.861049 643.099459 
L 313.92244 642.518613 
L 318.983831 641.714578 
L 324.045223 645.03009 
L 329.106614 641.626248 
L 334.168005 642.280833 
L 339.229396 642.793854 
L 344.290788 641.925938 
L 349.352179 644.104207 
L 354.41357 641.643204 
L 359.474961 644.112094 
L 364.536353 640.285926 
L 369.597744 642.219712 
L 374.659135 642.575396 
L 379.720526 643.537557 
L 384.781918 643.167283 
L 389.843309 642.041082 
L 394.9047 641.799358 
L 399.966091 642.326181 
L 405.027483 642.665698 
L 410.088874 644.046635 
L 415.150265 642.612463 
L 420.211656 642.974062 
L 425.273047 643.662559 
L 430.334439 644.920467 
L 435.39583 641.691707 
L 440.457221 643.289919 
L 445.518612 642.991018 
L 450.580004 643.763113 
L 455.641395 644.17282 
L 460.702786 642.164506 
L 465.764177 642.786756 
L 470.825569 645.225282 
L 475.88696 642.47642 
L 480.948351 642.242583 
L 486.009742 642.75521 
L 491.071134 643.41571 
L 496.132525 642.213797 
L 501.193916 643.299777 
L 506.255307 643.435032 
L 511.316699 641.875464 
L 516.37809 642.864439 
L 521.439481 643.688585 
L 531.562264 642.371134 
L 536.623655 643.650335 
L 541.685046 642.698821 
L 546.746437 644.449639 
L 551.807828 643.428328 
L 556.86922 642.266637 
L 566.992002 641.683032 
L 572.053393 642.019394 
L 577.114785 643.379826 
L 582.176176 643.955151 
L 587.237567 643.097487 
L 592.298958 644.442146 
L 597.36035 643.071856 
L 602.421741 642.247315 
L 607.483132 642.698427 
L 612.544523 643.330535 
L 617.605915 642.736282 
L 627.728697 644.013117 
L 632.790088 643.522573 
L 637.85148 643.161763 
L 642.912871 644.235518 
L 647.974262 643.0896 
L 653.035653 643.278484 
L 658.097045 644.27298 
L 663.158436 642.941333 
L 668.219827 644.415332 
L 673.281218 643.381403 
L 678.342609 642.084063 
L 683.404001 644.769045 
L 688.465392 643.427934 
L 693.526783 643.437004 
L 698.588174 642.674767 
L 703.649566 643.760747 
L 708.710957 643.259162 
L 713.772348 644.568726 
L 718.833739 643.239051 
L 723.895131 644.769439 
L 728.956522 643.44213 
L 734.017913 643.950813 
L 744.140696 642.936995 
L 749.202087 643.571864 
L 754.263478 642.862467 
L 759.324869 642.476814 
L 764.386261 644.403502 
L 769.447652 642.984709 
L 774.509043 642.827767 
L 779.570434 644.781663 
L 784.631826 642.962232 
L 789.693217 642.770589 
L 794.754608 642.897957 
L 799.815999 643.203956 
L 804.877391 643.70909 
L 809.938782 642.037533 
L 815.000173 643.722892 
L 820.061564 643.074616 
L 825.122955 644.446484 
L 830.184347 642.229965 
L 835.245738 643.678333 
L 840.307129 643.621549 
L 845.36852 644.246954 
L 850.429912 642.75245 
L 855.491303 643.080137 
L 860.552694 643.951602 
L 865.614085 643.037549 
L 870.675477 643.609325 
L 875.736868 643.432666 
L 880.798259 643.447256 
L 890.921042 644.004048 
L 895.982433 642.95474 
L 901.043824 642.57303 
L 906.105215 642.924771 
L 911.166607 644.436232 
L 916.227998 642.677527 
L 921.289389 643.746551 
L 926.35078 642.726424 
L 931.412172 643.87668 
L 936.473563 642.989441 
L 941.534954 642.46735 
L 946.596345 643.857752 
L 951.657736 643.504828 
L 956.719128 642.71696 
L 961.780519 644.645226 
L 966.84191 642.675556 
L 971.903301 643.460663 
L 976.964693 643.621155 
L 982.026084 644.018244 
L 987.087475 642.602605 
L 992.148866 643.38929 
L 997.210258 643.522573 
L 1002.271649 643.11602 
L 1007.33304 643.227615 
L 1012.394431 643.039521 
L 1017.455823 642.705525 
L 1022.517214 644.432288 
L 1027.578605 642.478392 
L 1032.639996 643.346308 
L 1037.701388 642.881789 
L 1042.762779 642.965781 
L 1047.82417 642.040293 
L 1052.885561 643.734722 
L 1057.946953 642.79346 
L 1063.008344 642.205122 
L 1068.069735 643.796237 
L 1073.131126 643.491027 
L 1078.192517 643.831726 
L 1083.253909 643.188183 
L 1088.3153 643.410978 
L 1093.376691 644.127473 
L 1103.499474 643.895213 
L 1113.622256 643.069884 
L 1123.745039 643.540712 
L 1128.80643 644.207521 
L 1133.867821 644.239067 
L 1138.929212 642.578551 
L 1143.990604 643.519813 
L 1149.051995 643.696866 
L 1154.113386 642.871931 
L 1159.174777 644.058465 
L 1164.236169 642.96657 
L 1169.29756 644.374716 
L 1174.358951 644.520618 
L 1179.420342 643.834092 
L 1184.481734 643.522573 
L 1189.543125 643.086052 
L 1199.665907 643.482746 
L 1204.727298 643.842767 
L 1209.78869 643.58882 
L 1214.850081 643.519813 
L 1219.911472 642.623504 
L 1224.972863 643.917296 
L 1230.034255 643.628253 
L 1235.095646 642.408201 
L 1240.157037 643.133371 
L 1245.218428 643.611297 
L 1250.27982 643.754044 
L 1255.341211 644.012329 
L 1260.402602 643.709485 
L 1265.463993 643.727624 
L 1270.525385 643.417682 
L 1275.586776 644.210281 
L 1285.709558 644.474481 
L 1290.77095 642.364431 
L 1295.832341 642.814754 
L 1300.893732 643.996161 
L 1305.955123 644.409023 
L 1311.016515 643.873131 
L 1316.077906 643.207505 
L 1326.200688 643.892059 
L 1331.262079 643.94135 
L 1336.323471 643.827783 
L 1341.384862 642.988258 
L 1346.446253 644.10263 
L 1351.507644 643.533614 
L 1356.569036 643.985909 
L 1361.630427 643.304904 
L 1366.691818 643.811221 
L 1366.691818 643.811221 
" clip-path="url(#pb8a4f6c212)" style="fill: none; stroke: #1f77b4; stroke-width: 5; stroke-linecap: square"/>
   </g>
   <g id="line2d_16">
    <path d="M 116.528182 648.044335 
L 121.589573 648.250963 
L 126.650964 648.030928 
L 131.712356 648.243865 
L 136.773747 647.048262 
L 141.835138 647.850326 
L 146.896529 648.049462 
L 151.957921 646.943765 
L 157.019312 647.723352 
L 162.080703 646.44494 
L 167.142094 646.987535 
L 177.264877 646.592419 
L 182.326268 646.861745 
L 187.387659 646.199273 
L 192.44905 646.597545 
L 202.571833 646.366468 
L 207.633224 646.080975 
L 212.694615 645.310457 
L 217.756007 646.995028 
L 222.817398 643.662954 
L 227.878789 645.091605 
L 232.94018 640.367947 
L 238.001572 642.759942 
L 243.062963 640.479936 
L 248.124354 640.697999 
L 253.185745 640.744136 
L 258.247137 640.625837 
L 263.308528 640.212187 
L 268.369919 641.212992 
L 273.43131 641.579718 
L 278.492702 640.745713 
L 283.554093 643.141652 
L 288.615484 640.925527 
L 293.676875 640.895164 
L 298.738266 639.953113 
L 303.799658 640.985465 
L 308.861049 642.451183 
L 313.92244 641.391623 
L 318.983831 641.133338 
L 324.045223 644.487494 
L 329.106614 640.512271 
L 334.168005 641.283183 
L 339.229396 641.697227 
L 344.290788 640.93854 
L 349.352179 643.30096 
L 354.41357 640.996506 
L 359.474961 643.897973 
L 364.536353 641.572225 
L 369.597744 641.117959 
L 374.659135 641.629797 
L 379.720526 642.672796 
L 384.781918 642.492587 
L 389.843309 640.931442 
L 394.9047 640.719688 
L 399.966091 641.202345 
L 405.027483 641.500458 
L 410.088874 643.60341 
L 415.150265 641.780036 
L 425.273047 642.758759 
L 430.334439 644.147583 
L 435.39583 640.666059 
L 440.457221 642.268609 
L 445.518612 641.979172 
L 450.580004 642.575396 
L 455.641395 643.446073 
L 460.702786 640.933413 
L 465.764177 641.865606 
L 470.825569 644.575429 
L 475.88696 641.053289 
L 480.948351 641.373484 
L 486.009742 641.968525 
L 491.071134 642.744958 
L 496.132525 641.156603 
L 501.193916 642.351024 
L 506.255307 642.356544 
L 511.316699 640.949187 
L 516.37809 641.918051 
L 521.439481 642.629419 
L 526.500872 641.784768 
L 531.562264 641.499669 
L 536.623655 642.844328 
L 541.685046 641.860479 
L 546.746437 643.780464 
L 556.86922 641.30211 
L 561.930611 641.36126 
L 566.992002 640.558802 
L 572.053393 641.569859 
L 577.114785 642.764674 
L 582.176176 643.054111 
L 587.237567 642.307253 
L 592.298958 643.721314 
L 597.36035 642.035561 
L 602.421741 641.159364 
L 607.483132 641.694073 
L 612.544523 642.541484 
L 617.605915 641.755588 
L 622.667306 642.304099 
L 627.728697 643.177536 
L 637.85148 642.10102 
L 642.912871 643.612085 
L 647.974262 642.291086 
L 653.035653 642.160563 
L 658.097045 643.4303 
L 663.158436 641.901489 
L 668.219827 643.454354 
L 673.281218 642.898351 
L 678.342609 641.627826 
L 683.404001 643.78283 
L 688.465392 642.540696 
L 693.526783 642.273735 
L 698.588174 641.684609 
L 703.649566 643.133765 
L 708.710957 642.622321 
L 713.772348 643.671235 
L 718.833739 642.29424 
L 723.895131 644.007991 
L 728.956522 642.465773 
L 734.017913 643.101036 
L 739.079304 642.540301 
L 744.140696 641.578929 
L 749.202087 643.028874 
L 754.263478 642.029252 
L 759.324869 641.697622 
L 764.386261 643.848288 
L 769.447652 642.041082 
L 774.509043 641.937768 
L 779.570434 643.86761 
L 784.631826 642.08288 
L 789.693217 641.636895 
L 794.754608 641.869154 
L 799.815999 642.477209 
L 804.877391 642.806473 
L 809.938782 628.202131 
L 815.000173 642.799375 
L 820.061564 642.168055 
L 825.122955 643.785196 
L 830.184347 640.947609 
L 835.245738 642.747718 
L 840.307129 642.657022 
L 845.36852 643.558851 
L 850.429912 641.839186 
L 855.491303 642.019788 
L 860.552694 643.112472 
L 865.614085 642.569481 
L 870.675477 642.610886 
L 875.736868 642.335645 
L 880.798259 642.843145 
L 885.85965 642.862862 
L 890.921042 643.375094 
L 895.982433 642.260328 
L 901.043824 641.334051 
L 906.105215 641.752828 
L 911.166607 643.587243 
L 916.227998 641.734689 
L 921.289389 642.440142 
L 926.35078 641.748096 
L 931.412172 642.760336 
L 936.473563 642.624293 
L 941.534954 641.349824 
L 946.596345 642.889676 
L 951.657736 642.640066 
L 956.719128 641.549354 
L 961.780519 643.57423 
L 966.84191 641.637684 
L 971.903301 642.407807 
L 982.026084 643.052928 
L 987.087475 641.537524 
L 992.148866 642.39716 
L 997.210258 642.664515 
L 1002.271649 641.655034 
L 1007.33304 642.633363 
L 1012.394431 642.319872 
L 1017.455823 640.213764 
L 1022.517214 643.429906 
L 1027.578605 640.738221 
L 1032.639996 642.434227 
L 1037.701388 641.960244 
L 1042.762779 641.93343 
L 1047.82417 641.05605 
L 1052.885561 643.069095 
L 1057.946953 641.824595 
L 1063.008344 641.426324 
L 1068.069735 643.046619 
L 1073.131126 642.629419 
L 1078.192517 642.921617 
L 1083.253909 642.681471 
L 1088.3153 642.631391 
L 1093.376691 643.265865 
L 1103.499474 642.901112 
L 1108.560865 642.88731 
L 1113.622256 642.026886 
L 1118.683647 642.399526 
L 1123.745039 642.553314 
L 1128.80643 643.442524 
L 1133.867821 643.163734 
L 1138.929212 641.440914 
L 1143.990604 642.633363 
L 1149.051995 642.78163 
L 1154.113386 642.048968 
L 1159.174777 643.16886 
L 1164.236169 641.948414 
L 1169.29756 643.472493 
L 1174.358951 643.929125 
L 1179.420342 643.050168 
L 1184.481734 642.568299 
L 1189.543125 642.220895 
L 1199.665907 642.531626 
L 1204.727298 642.92556 
L 1209.78869 642.558835 
L 1214.850081 642.743775 
L 1219.911472 641.79226 
L 1224.972863 643.141257 
L 1230.034255 642.807656 
L 1235.095646 641.734689 
L 1245.218428 642.550554 
L 1250.27982 642.761914 
L 1255.341211 643.250092 
L 1270.525385 642.434621 
L 1280.648167 643.653096 
L 1285.709558 643.669657 
L 1290.77095 641.665681 
L 1295.832341 641.832482 
L 1300.893732 643.148355 
L 1305.955123 643.86485 
L 1316.077906 642.213403 
L 1326.200688 643.037155 
L 1331.262079 643.134554 
L 1336.323471 642.877058 
L 1341.384862 642.731945 
L 1346.446253 643.369179 
L 1351.507644 642.701581 
L 1356.569036 643.199618 
L 1361.630427 642.450394 
L 1366.691818 642.614829 
L 1366.691818 642.614829 
" clip-path="url(#pb8a4f6c212)" style="fill: none; stroke: #ff7f0e; stroke-width: 1.5; stroke-linecap: square"/>
   </g>
   <g id="line2d_17">
    <path d="M 116.528182 645.521817 
L 121.589573 646.150377 
L 126.650964 644.97725 
L 131.712356 646.470177 
L 136.773747 642.608914 
L 141.835138 645.341215 
L 146.896529 645.181906 
L 151.957921 642.399132 
L 157.019312 644.545855 
L 162.080703 638.959012 
L 167.142094 641.35219 
L 172.203485 641.011096 
L 177.264877 639.590331 
L 182.326268 640.805651 
L 187.387659 638.426274 
L 192.44905 639.60571 
L 197.510442 640.655412 
L 202.571833 638.665632 
L 207.633224 637.867905 
L 212.694615 635.84855 
L 217.756007 642.683048 
L 222.817398 633.212466 
L 227.878789 636.461336 
L 232.94018 625.094824 
L 238.001572 630.974653 
L 243.062963 626.274654 
L 248.124354 626.557388 
L 253.185745 626.650843 
L 258.247137 626.879159 
L 263.308528 624.666189 
L 268.369919 627.753385 
L 273.43131 628.761683 
L 278.492702 626.394136 
L 283.554093 631.826008 
L 288.615484 626.684361 
L 293.676875 626.133879 
L 298.738266 624.459167 
L 303.799658 628.114196 
L 308.861049 629.857521 
L 313.92244 627.398095 
L 318.983831 627.870501 
L 324.045223 635.429774 
L 329.106614 626.32434 
L 334.168005 628.182809 
L 339.229396 630.1718 
L 344.290788 627.977364 
L 349.352179 632.443526 
L 354.41357 627.797156 
L 359.474961 634.602079 
L 364.536353 627.380745 
L 369.597744 627.742344 
L 374.659135 627.374041 
L 379.720526 630.50067 
L 384.781918 630.068092 
L 389.843309 627.739189 
L 394.9047 626.344056 
L 399.966091 628.509312 
L 405.027483 627.294781 
L 410.088874 633.108757 
L 415.150265 628.734868 
L 420.211656 628.421377 
L 425.273047 630.928516 
L 430.334439 635.820159 
L 435.39583 627.439894 
L 440.457221 630.391441 
L 445.518612 629.201753 
L 450.580004 631.251866 
L 455.641395 632.806702 
L 460.702786 627.135473 
L 465.764177 628.350004 
L 470.825569 636.317801 
L 475.88696 627.084604 
L 480.948351 627.598414 
L 486.009742 629.153645 
L 491.071134 630.982145 
L 496.132525 628.365777 
L 501.193916 628.721067 
L 506.255307 630.333475 
L 511.316699 627.333426 
L 516.37809 629.643401 
L 521.439481 631.39895 
L 526.500872 627.195805 
L 531.562264 624.141732 
L 536.623655 631.291298 
L 541.685046 627.431219 
L 546.746437 634.112323 
L 551.807828 630.650909 
L 556.86922 626.359435 
L 561.930611 626.316847 
L 566.992002 626.060928 
L 572.053393 626.358252 
L 577.114785 631.086248 
L 582.176176 632.834699 
L 587.237567 627.368915 
L 592.298958 633.514916 
L 597.36035 629.146941 
L 602.421741 627.532956 
L 607.483132 626.842487 
L 612.544523 630.347277 
L 617.605915 629.026277 
L 622.667306 630.563368 
L 627.728697 630.335841 
L 632.790088 629.97227 
L 637.85148 628.853955 
L 642.912871 633.814605 
L 647.974262 629.686382 
L 653.035653 628.687943 
L 658.097045 633.44788 
L 663.158436 629.238425 
L 668.219827 633.445514 
L 673.281218 631.426553 
L 678.342609 629.09765 
L 683.404001 635.174249 
L 688.465392 631.13475 
L 693.526783 630.34215 
L 698.588174 627.50969 
L 703.649566 632.050775 
L 708.710957 631.073629 
L 713.772348 634.491667 
L 718.833739 628.925723 
L 723.895131 634.254675 
L 728.956522 629.982523 
L 734.017913 631.271976 
L 739.079304 629.67613 
L 744.140696 625.687105 
L 749.202087 632.132006 
L 754.263478 629.31808 
L 759.324869 625.835767 
L 764.386261 634.29608 
L 769.447652 628.607895 
L 774.509043 628.593304 
L 779.570434 634.376917 
L 784.631826 628.961213 
L 789.693217 627.133107 
L 794.754608 626.200915 
L 799.815999 628.43439 
L 804.877391 629.812173 
L 809.938782 627.4951 
L 815.000173 630.571649 
L 820.061564 628.471851 
L 825.122955 635.005477 
L 830.184347 627.800705 
L 835.245738 630.032208 
L 840.307129 628.226185 
L 845.36852 632.783042 
L 850.429912 628.699379 
L 855.491303 629.447419 
L 860.552694 632.315763 
L 865.614085 631.066137 
L 870.675477 630.606745 
L 875.736868 630.273537 
L 880.798259 630.71203 
L 885.85965 632.164341 
L 890.921042 632.321284 
L 895.982433 629.488824 
L 901.043824 624.805781 
L 906.105215 629.307433 
L 911.166607 634.499553 
L 916.227998 628.843309 
L 921.289389 630.971498 
L 926.35078 626.153201 
L 931.412172 631.805503 
L 936.473563 630.349643 
L 941.534954 627.502592 
L 946.596345 629.836227 
L 951.657736 628.697407 
L 956.719128 627.885879 
L 961.780519 634.928582 
L 966.84191 628.004572 
L 971.903301 629.96951 
L 982.026084 632.592187 
L 987.087475 626.428442 
L 992.148866 629.603968 
L 997.210258 630.216754 
L 1002.271649 629.369342 
L 1007.33304 628.966733 
L 1012.394431 629.99593 
L 1017.455823 628.77785 
L 1022.517214 634.309881 
L 1027.578605 628.458838 
L 1032.639996 629.866985 
L 1037.701388 628.889051 
L 1042.762779 628.101183 
L 1047.82417 628.509707 
L 1052.885561 632.025538 
L 1057.946953 628.603557 
L 1063.008344 629.029037 
L 1068.069735 631.374502 
L 1073.131126 630.464392 
L 1078.192517 631.648954 
L 1083.253909 631.39619 
L 1088.3153 629.30625 
L 1093.376691 633.260968 
L 1098.438082 631.882397 
L 1103.499474 632.324833 
L 1108.560865 632.445103 
L 1113.622256 627.47144 
L 1118.683647 628.516805 
L 1123.745039 631.43996 
L 1128.80643 633.419883 
L 1133.867821 633.427769 
L 1138.929212 628.770752 
L 1143.990604 630.954936 
L 1149.051995 629.546002 
L 1154.113386 629.322023 
L 1159.174777 633.126897 
L 1164.236169 629.205302 
L 1169.29756 634.186062 
L 1174.358951 635.98972 
L 1179.420342 632.683672 
L 1184.481734 630.462815 
L 1189.543125 630.088597 
L 1194.604516 630.639474 
L 1199.665907 629.790091 
L 1204.727298 631.54288 
L 1209.78869 630.527879 
L 1214.850081 631.048787 
L 1219.911472 628.346061 
L 1224.972863 632.359139 
L 1235.095646 627.904807 
L 1240.157037 627.044383 
L 1245.218428 631.242402 
L 1250.27982 631.406048 
L 1255.341211 633.630059 
L 1260.402602 632.330748 
L 1265.463993 632.635169 
L 1270.525385 630.1718 
L 1275.586776 633.667915 
L 1280.648167 635.007842 
L 1285.709558 633.967999 
L 1290.77095 629.372103 
L 1295.832341 628.995125 
L 1300.893732 631.704949 
L 1305.955123 635.194754 
L 1311.016515 631.590594 
L 1316.077906 628.547168 
L 1321.139297 632.286583 
L 1326.200688 631.381205 
L 1331.262079 633.328398 
L 1336.323471 632.211266 
L 1341.384862 631.889889 
L 1346.446253 634.217214 
L 1351.507644 632.419472 
L 1356.569036 634.238902 
L 1361.630427 631.992414 
L 1366.691818 633.769652 
L 1366.691818 633.769652 
" clip-path="url(#pb8a4f6c212)" style="fill: none; stroke: #2ca02c; stroke-width: 1.5; stroke-linecap: square"/>
   </g>
   <g id="line2d_18">
    <path d="M 116.528182 583.535778 
L 121.589573 591.455862 
L 126.650964 578.956444 
L 131.712356 597.45951 
L 136.773747 565.903784 
L 141.835138 578.099963 
L 146.896529 584.616632 
L 151.957921 561.695512 
L 157.019312 586.001907 
L 162.080703 530.731279 
L 167.142094 546.270573 
L 172.203485 546.302908 
L 177.264877 540.016527 
L 182.326268 536.931697 
L 187.387659 512.175767 
L 192.44905 543.081246 
L 197.510442 541.466077 
L 202.571833 527.329014 
L 207.633224 527.213476 
L 212.694615 500.889698 
L 217.756007 554.330249 
L 222.817398 482.611005 
L 227.878789 506.49744 
L 232.94018 400.057592 
L 238.001572 459.840124 
L 243.062963 409.298675 
L 248.124354 405.360124 
L 253.185745 419.838281 
L 258.247137 417.574837 
L 263.308528 397.766939 
L 268.369919 427.87824 
L 273.43131 440.988867 
L 278.492702 418.193932 
L 283.554093 458.711557 
L 288.615484 425.950764 
L 293.676875 407.959142 
L 298.738266 410.868101 
L 303.799658 427.854975 
L 308.861049 443.148997 
L 313.92244 427.910181 
L 318.983831 431.601488 
L 324.045223 493.456216 
L 329.106614 415.14538 
L 334.168005 427.283593 
L 339.229396 438.97937 
L 344.290788 429.43426 
L 349.352179 468.270469 
L 354.41357 427.056066 
L 359.474961 482.887823 
L 364.536353 431.220961 
L 369.597744 424.430234 
L 374.659135 434.438285 
L 379.720526 456.590465 
L 384.781918 443.753108 
L 394.9047 414.898531 
L 399.966091 439.12882 
L 405.027483 434.44144 
L 410.088874 476.084478 
L 415.150265 436.435558 
L 420.211656 434.299088 
L 425.273047 460.707252 
L 430.334439 491.5662 
L 435.39583 430.611724 
L 440.457221 442.924624 
L 445.518612 438.654443 
L 450.580004 454.02536 
L 455.641395 477.590023 
L 460.702786 431.35385 
L 465.764177 433.692216 
L 470.825569 505.955239 
L 475.88696 433.23519 
L 480.948351 422.310719 
L 486.009742 442.425405 
L 491.071134 447.552461 
L 496.132525 425.758331 
L 501.193916 437.098424 
L 506.255307 448.90619 
L 511.316699 433.512403 
L 516.37809 442.306712 
L 521.439481 461.231315 
L 526.500872 423.037072 
L 531.562264 413.255759 
L 536.623655 452.312792 
L 541.685046 430.013922 
L 546.746437 484.583829 
L 551.807828 450.592732 
L 556.86922 433.560905 
L 561.930611 430.459119 
L 566.992002 426.223244 
L 572.053393 430.444529 
L 577.114785 443.160827 
L 582.176176 492.927421 
L 587.237567 424.220451 
L 592.298958 471.828887 
L 597.36035 435.696981 
L 602.421741 421.635629 
L 607.483132 427.795826 
L 612.544523 460.926893 
L 617.605915 442.96524 
L 622.667306 448.244113 
L 627.728697 447.300091 
L 632.790088 440.612678 
L 637.85148 437.312544 
L 642.912871 482.718262 
L 647.974262 446.718457 
L 653.035653 429.468172 
L 658.097045 470.789438 
L 663.158436 435.109432 
L 668.219827 480.793546 
L 673.281218 456.087302 
L 678.342609 440.143427 
L 683.404001 492.59382 
L 688.465392 448.543408 
L 693.526783 450.768602 
L 698.588174 437.042824 
L 703.649566 464.700615 
L 708.710957 451.009143 
L 713.772348 478.517483 
L 718.833739 441.847319 
L 723.895131 486.591749 
L 728.956522 448.599797 
L 734.017913 453.625511 
L 739.079304 440.359913 
L 744.140696 426.16449 
L 749.202087 467.581971 
L 754.263478 441.911989 
L 759.324869 425.546577 
L 764.386261 485.272721 
L 769.447652 437.822805 
L 774.509043 437.280209 
L 779.570434 482.774257 
L 784.631826 436.949368 
L 789.693217 424.481496 
L 794.754608 425.884122 
L 799.815999 434.700908 
L 804.877391 437.773514 
L 809.938782 428.229192 
L 815.000173 452.83922 
L 820.061564 439.785771 
L 825.122955 489.738094 
L 830.184347 431.921682 
L 835.245738 443.991282 
L 840.307129 434.560922 
L 845.36852 461.627614 
L 850.429912 429.462651 
L 855.491303 447.149063 
L 860.552694 470.533913 
L 865.614085 452.615636 
L 870.675477 452.336452 
L 875.736868 448.2867 
L 880.798259 456.86334 
L 885.85965 453.894837 
L 890.921042 468.216446 
L 895.982433 438.629995 
L 901.043824 416.222291 
L 906.105215 442.224297 
L 911.166607 480.187069 
L 916.227998 438.906813 
L 921.289389 450.138466 
L 926.35078 433.43748 
L 931.412172 454.308093 
L 936.473563 447.845053 
L 941.534954 440.053914 
L 946.596345 443.322502 
L 951.657736 432.616489 
L 956.719128 434.334183 
L 961.780519 492.842641 
L 966.84191 436.52231 
L 971.903301 445.617098 
L 976.964693 455.347148 
L 982.026084 463.443496 
L 987.087475 435.231674 
L 992.148866 444.069359 
L 997.210258 459.434755 
L 1002.271649 444.50943 
L 1007.33304 438.959653 
L 1012.394431 450.406609 
L 1017.455823 438.762095 
L 1022.517214 489.689986 
L 1027.578605 437.753403 
L 1032.639996 443.091425 
L 1037.701388 440.550374 
L 1042.762779 438.344896 
L 1047.82417 435.833813 
L 1052.885561 464.586259 
L 1057.946953 437.596066 
L 1063.008344 445.160466 
L 1068.069735 464.913552 
L 1073.131126 456.99544 
L 1078.192517 454.646032 
L 1083.253909 464.589414 
L 1088.3153 443.014531 
L 1093.376691 483.288461 
L 1098.438082 457.2624 
L 1103.499474 462.536541 
L 1108.560865 465.414349 
L 1113.622256 420.311475 
L 1118.683647 433.678415 
L 1123.745039 455.545889 
L 1128.80643 472.302081 
L 1133.867821 483.170162 
L 1138.929212 443.175811 
L 1143.990604 449.744926 
L 1149.051995 440.372532 
L 1154.113386 446.729498 
L 1159.174777 464.907637 
L 1164.236169 445.590283 
L 1169.29756 491.448296 
L 1174.358951 500.283221 
L 1179.420342 469.091854 
L 1184.481734 452.344338 
L 1189.543125 449.10296 
L 1194.604516 444.343812 
L 1199.665907 438.430465 
L 1204.727298 459.36141 
L 1209.78869 454.969776 
L 1214.850081 454.35699 
L 1219.911472 437.094086 
L 1224.972863 464.739653 
L 1230.034255 444.53861 
L 1235.095646 441.928157 
L 1240.157037 429.025341 
L 1245.218428 461.269959 
L 1250.27982 449.12307 
L 1255.341211 480.982035 
L 1260.402602 473.225598 
L 1265.463993 472.952723 
L 1270.525385 447.419967 
L 1275.586776 480.005678 
L 1280.648167 504.648829 
L 1285.709558 491.010592 
L 1290.77095 447.177849 
L 1295.832341 443.925035 
L 1300.893732 466.753093 
L 1305.955123 498.260317 
L 1311.016515 459.124813 
L 1316.077906 438.96478 
L 1321.139297 486.537332 
L 1326.200688 459.726558 
L 1331.262079 478.194528 
L 1336.323471 473.114397 
L 1341.384862 460.701732 
L 1346.446253 487.01644 
L 1351.507644 468.921505 
L 1356.569036 493.228294 
L 1361.630427 472.883321 
L 1366.691818 488.13515 
L 1366.691818 488.13515 
" clip-path="url(#pb8a4f6c212)" style="fill: none; stroke: #d62728; stroke-width: 1.5; stroke-linecap: square"/>
   </g>
   <g id="line2d_19">
    <path d="M 116.528182 605.297179 
L 126.650964 604.297162 
L 131.712356 603.997078 
L 136.773747 602.881129 
L 141.835138 602.658334 
L 151.957921 601.982455 
L 157.019312 598.083337 
L 162.080703 597.874737 
L 167.142094 595.011125 
L 172.203485 591.932999 
L 177.264877 586.665167 
L 187.387659 580.021919 
L 192.44905 574.923254 
L 197.510442 574.363703 
L 202.571833 572.567537 
L 207.633224 571.878646 
L 212.694615 570.462613 
L 217.756007 561.542907 
L 222.817398 514.004268 
L 227.878789 513.868619 
L 232.94018 484.80623 
L 238.001572 482.357846 
L 248.124354 466.817369 
L 253.185745 461.865789 
L 258.247137 461.1489 
L 263.308528 461.121691 
L 268.369919 460.136265 
L 273.43131 458.184734 
L 278.492702 442.025556 
L 283.554093 441.958126 
L 288.615484 438.478967 
L 293.676875 433.430777 
L 298.738266 423.945999 
L 303.799658 417.708908 
L 308.861049 416.08743 
L 313.92244 411.731286 
L 318.983831 411.169368 
L 324.045223 410.872833 
L 329.106614 410.810924 
L 334.168005 407.566785 
L 339.229396 407.138939 
L 344.290788 406.851474 
L 349.352179 404.364839 
L 354.41357 402.150292 
L 359.474961 388.997867 
L 364.536353 388.216308 
L 369.597744 385.894503 
L 374.659135 384.654735 
L 379.720526 384.142897 
L 384.781918 384.125546 
L 389.843309 381.526529 
L 394.9047 381.012719 
L 399.966091 376.644745 
L 405.027483 376.126992 
L 410.088874 374.75118 
L 415.150265 369.751098 
L 420.211656 366.076353 
L 430.334439 366.059396 
L 435.39583 363.625997 
L 440.457221 359.571119 
L 445.518612 357.459491 
L 455.641395 356.599461 
L 460.702786 355.48785 
L 465.764177 355.227593 
L 470.825569 353.748468 
L 475.88696 353.360449 
L 480.948351 352.485829 
L 486.009742 351.038249 
L 491.071134 350.942033 
L 496.132525 349.99604 
L 501.193916 347.560668 
L 506.255307 347.324071 
L 511.316699 346.314591 
L 516.37809 344.753445 
L 521.439481 341.47224 
L 526.500872 341.298735 
L 531.562264 340.573171 
L 536.623655 338.974959 
L 546.746437 338.320374 
L 551.807828 337.123982 
L 556.86922 335.413386 
L 561.930611 334.279298 
L 566.992002 333.630628 
L 572.053393 333.157434 
L 577.114785 332.322246 
L 587.237567 330.074575 
L 592.298958 329.886086 
L 597.36035 327.807188 
L 602.421741 327.275239 
L 607.483132 325.43412 
L 612.544523 324.590652 
L 617.605915 324.384418 
L 627.728697 322.887942 
L 632.790088 321.948258 
L 637.85148 321.435237 
L 642.912871 320.305092 
L 647.974262 319.792465 
L 653.035653 318.30782 
L 658.097045 316.560945 
L 663.158436 316.433972 
L 668.219827 314.975746 
L 678.342609 313.588893 
L 683.404001 313.116882 
L 688.465392 312.833754 
L 693.526783 312.295102 
L 698.588174 311.042715 
L 708.710957 309.663355 
L 713.772348 309.460276 
L 718.833739 309.104986 
L 723.895131 308.058439 
L 728.956522 307.496915 
L 734.017913 307.359295 
L 739.079304 305.667232 
L 744.140696 304.745293 
L 749.202087 304.565873 
L 754.263478 303.423504 
L 759.324869 300.171479 
L 764.386261 300.099317 
L 769.447652 296.788931 
L 774.509043 296.673787 
L 779.570434 293.836201 
L 784.631826 293.818456 
L 794.754608 291.969845 
L 804.877391 291.786877 
L 809.938782 291.333794 
L 825.122955 290.704052 
L 830.184347 290.342452 
L 835.245738 288.481617 
L 840.307129 287.348318 
L 845.36852 287.278916 
L 850.429912 287.022208 
L 855.491303 285.584093 
L 860.552694 285.171626 
L 865.614085 284.920833 
L 870.675477 284.469721 
L 875.736868 283.14123 
L 880.798259 282.901084 
L 885.85965 282.329702 
L 890.921042 280.327303 
L 901.043824 279.15181 
L 906.105215 278.76458 
L 911.166607 277.111162 
L 916.227998 276.081176 
L 921.289389 275.571704 
L 926.35078 274.682099 
L 931.412172 273.150134 
L 936.473563 272.992797 
L 941.534954 270.535343 
L 946.596345 270.22343 
L 956.719128 270.063332 
L 961.780519 266.950899 
L 966.84191 265.68826 
L 971.903301 261.629833 
L 976.964693 259.860482 
L 982.026084 259.796207 
L 987.087475 258.028433 
L 992.148866 257.404212 
L 997.210258 257.309573 
L 1002.271649 257.069033 
L 1012.394431 255.866331 
L 1017.455823 255.748033 
L 1027.578605 254.612367 
L 1032.639996 252.210908 
L 1037.701388 252.041347 
L 1042.762779 250.333906 
L 1047.82417 246.370906 
L 1057.946953 246.213175 
L 1063.008344 245.984465 
L 1068.069735 242.321155 
L 1073.131126 240.487529 
L 1083.253909 238.121559 
L 1088.3153 237.912565 
L 1098.438082 237.865246 
L 1103.499474 237.384165 
L 1108.560865 237.127852 
L 1113.622256 236.674374 
L 1123.745039 234.683016 
L 1128.80643 234.466136 
L 1133.867821 234.020545 
L 1138.929212 233.910133 
L 1143.990604 233.208229 
L 1149.051995 231.725554 
L 1154.113386 227.62454 
L 1159.174777 227.261758 
L 1164.236169 226.035397 
L 1169.29756 225.29406 
L 1179.420342 224.931278 
L 1184.481734 224.54878 
L 1189.543125 224.394992 
L 1194.604516 223.50381 
L 1199.665907 223.440717 
L 1204.727298 221.950156 
L 1209.78869 221.516395 
L 1214.850081 219.737975 
L 1224.972863 219.627563 
L 1230.034255 219.118879 
L 1235.095646 215.810465 
L 1240.157037 211.993367 
L 1245.218428 211.788317 
L 1250.27982 202.817348 
L 1255.341211 202.813405 
L 1260.402602 201.685626 
L 1265.463993 201.614647 
L 1270.525385 194.828257 
L 1275.586776 194.38661 
L 1280.648167 194.335347 
L 1285.709558 193.728082 
L 1290.77095 191.882625 
L 1295.832341 188.570268 
L 1300.893732 188.258748 
L 1305.955123 186.823393 
L 1311.016515 186.582853 
L 1316.077906 182.414803 
L 1321.139297 175.344497 
L 1331.262079 160.533527 
L 1336.323471 159.677835 
L 1341.384862 157.335525 
L 1346.446253 132.370602 
L 1351.507644 112.311122 
L 1356.569036 78.639431 
L 1361.630427 65.914457 
L 1366.691818 56.478182 
L 1366.691818 56.478182 
" clip-path="url(#pb8a4f6c212)" style="fill: none; stroke: #9467bd; stroke-width: 5; stroke-linecap: square"/>
   </g>
   <g id="patch_3">
    <path d="M 54.02 678.04 
L 54.02 26.88 
" style="fill: none; stroke: #000000; stroke-width: 0.8; stroke-linejoin: miter; stroke-linecap: square"/>
   </g>
   <g id="patch_4">
    <path d="M 1429.2 678.04 
L 1429.2 26.88 
" style="fill: none; stroke: #000000; stroke-width: 0.8; stroke-linejoin: miter; stroke-linecap: square"/>
   </g>
   <g id="patch_5">
    <path d="M 54.02 678.04 
L 1429.2 678.04 
" style="fill: none; stroke: #000000; stroke-width: 0.8; stroke-linejoin: miter; stroke-linecap: square"/>
   </g>
   <g id="patch_6">
    <path d="M 54.02 26.88 
L 1429.2 26.88 
" style="fill: none; stroke: #000000; stroke-width: 0.8; stroke-linejoin: miter; stroke-linecap: square"/>
   </g>
   <g id="text_17">
    <!-- Encode times, CID22 set -->
    <g transform="translate(667.852188 20.88) scale(0.12 -0.12)">
     <defs>
      <path id="DejaVuSans-45" d="M 628 4666 
L 3578 4666 
L 3578 4134 
L 1259 4134 
L 1259 2753 
L 3481 2753 
L 3481 2222 
L 1259 2222 
L 1259 531 
L 3634 531 
L 3634 0 
L 628 0 
L 628 4666 
z
" transform="scale(0.015625)"/>
      <path id="DejaVuSans-74" d="M 1172 4494 
L 1172 3500 
L 2356 3500 
L 2356 3053 
L 1172 3053 
L 1172 1153 
Q 1172 725 1289 603 
Q 1406 481 1766 481 
L 2356 481 
L 2356 0 
L 1766 0 
Q 1100 0 847 248 
Q 594 497 594 1153 
L 594 3053 
L 172 3053 
L 172 3500 
L 594 3500 
L 594 4494 
L 1172 4494 
z
" transform="scale(0.015625)"/>
      <path id="DejaVuSans-2c" d="M 750 794 
L 1409 794 
L 1409 256 
L 897 -744 
L 494 -744 
L 750 256 
L 750 794 
z
" transform="scale(0.015625)"/>
      <path id="DejaVuSans-43" d="M 4122 4306 
L 4122 3641 
Q 3803 3938 3442 4084 
Q 3081 4231 2675 4231 
Q 1875 4231 1450 3742 
Q 1025 3253 1025 2328 
Q 1025 1406 1450 917 
Q 1875 428 2675 428 
Q 3081 428 3442 575 
Q 3803 722 4122 1019 
L 4122 359 
Q 3791 134 3420 21 
Q 3050 -91 2638 -91 
Q 1578 -91 968 557 
Q 359 1206 359 2328 
Q 359 3453 968 4101 
Q 1578 4750 2638 4750 
Q 3056 4750 3426 4639 
Q 3797 4528 4122 4306 
z
" transform="scale(0.015625)"/>
      <path id="DejaVuSans-49" d="M 628 4666 
L 1259 4666 
L 1259 0 
L 628 0 
L 628 4666 
z
" transform="scale(0.015625)"/>
      <path id="DejaVuSans-44" d="M 1259 4147 
L 1259 519 
L 2022 519 
Q 2988 519 3436 956 
Q 3884 1394 3884 2338 
Q 3884 3275 3436 3711 
Q 2988 4147 2022 4147 
L 1259 4147 
z
M 628 4666 
L 1925 4666 
Q 3281 4666 3915 4102 
Q 4550 3538 4550 2338 
Q 4550 1131 3912 565 
Q 3275 0 1925 0 
L 628 0 
L 628 4666 
z
" transform="scale(0.015625)"/>
     </defs>
     <use xlink:href="#DejaVuSans-45"/>
     <use xlink:href="#DejaVuSans-6e" x="63.183594"/>
     <use xlink:href="#DejaVuSans-63" x="126.5625"/>
     <use xlink:href="#DejaVuSans-6f" x="181.542969"/>
     <use xlink:href="#DejaVuSans-64" x="242.724609"/>
     <use xlink:href="#DejaVuSans-65" x="306.201172"/>
     <use xlink:href="#DejaVuSans-20" x="367.724609"/>
     <use xlink:href="#DejaVuSans-74" x="399.511719"/>
     <use xlink:href="#DejaVuSans-69" x="438.720703"/>
     <use xlink:href="#DejaVuSans-6d" x="466.503906"/>
     <use xlink:href="#DejaVuSans-65" x="563.916016"/>
     <use xlink:href="#DejaVuSans-73" x="625.439453"/>
     <use xlink:href="#DejaVuSans-2c" x="677.539062"/>
     <use xlink:href="#DejaVuSans-20" x="709.326172"/>
     <use xlink:href="#DejaVuSans-43" x="741.113281"/>
     <use xlink:href="#DejaVuSans-49" x="810.9375"/>
     <use xlink:href="#DejaVuSans-44" x="840.429688"/>
     <use xlink:href="#DejaVuSans-32" x="917.431641"/>
     <use xlink:href="#DejaVuSans-32" x="981.054688"/>
     <use xlink:href="#DejaVuSans-20" x="1044.677734"/>
     <use xlink:href="#DejaVuSans-73" x="1076.464844"/>
     <use xlink:href="#DejaVuSans-65" x="1128.564453"/>
     <use xlink:href="#DejaVuSans-74" x="1190.087891"/>
    </g>
   </g>
   <g id="legend_1">
    <g id="patch_7">
     <path d="M 61.02 108.270625 
L 189.393438 108.270625 
Q 191.393438 108.270625 191.393438 106.270625 
L 191.393438 33.88 
Q 191.393438 31.88 189.393438 31.88 
L 61.02 31.88 
Q 59.02 31.88 59.02 33.88 
L 59.02 106.270625 
Q 59.02 108.270625 61.02 108.270625 
z
" style="fill: #ffffff; opacity: 0.8; stroke: #cccccc; stroke-linejoin: miter"/>
    </g>
    <g id="line2d_20">
     <path d="M 63.02 39.978438 
L 73.02 39.978438 
L 83.02 39.978438 
" style="fill: none; stroke: #1f77b4; stroke-width: 5; stroke-linecap: square"/>
    </g>
    <g id="text_18">
     <!-- QB3 Fast -->
     <g transform="translate(91.02 43.478438) scale(0.1 -0.1)">
      <defs>
       <path id="DejaVuSans-51" d="M 2522 4238 
Q 1834 4238 1429 3725 
Q 1025 3213 1025 2328 
Q 1025 1447 1429 934 
Q 1834 422 2522 422 
Q 3209 422 3611 934 
Q 4013 1447 4013 2328 
Q 4013 3213 3611 3725 
Q 3209 4238 2522 4238 
z
M 3406 84 
L 4238 -825 
L 3475 -825 
L 2784 -78 
Q 2681 -84 2626 -87 
Q 2572 -91 2522 -91 
Q 1538 -91 948 567 
Q 359 1225 359 2328 
Q 359 3434 948 4092 
Q 1538 4750 2522 4750 
Q 3503 4750 4090 4092 
Q 4678 3434 4678 2328 
Q 4678 1516 4351 937 
Q 4025 359 3406 84 
z
" transform="scale(0.015625)"/>
       <path id="DejaVuSans-42" d="M 1259 2228 
L 1259 519 
L 2272 519 
Q 2781 519 3026 730 
Q 3272 941 3272 1375 
Q 3272 1813 3026 2020 
Q 2781 2228 2272 2228 
L 1259 2228 
z
M 1259 4147 
L 1259 2741 
L 2194 2741 
Q 2656 2741 2882 2914 
Q 3109 3088 3109 3444 
Q 3109 3797 2882 3972 
Q 2656 4147 2194 4147 
L 1259 4147 
z
M 628 4666 
L 2241 4666 
Q 2963 4666 3353 4366 
Q 3744 4066 3744 3513 
Q 3744 3084 3544 2831 
Q 3344 2578 2956 2516 
Q 3422 2416 3680 2098 
Q 3938 1781 3938 1306 
Q 3938 681 3513 340 
Q 3088 0 2303 0 
L 628 0 
L 628 4666 
z
" transform="scale(0.015625)"/>
       <path id="DejaVuSans-33" d="M 2597 2516 
Q 3050 2419 3304 2112 
Q 3559 1806 3559 1356 
Q 3559 666 3084 287 
Q 2609 -91 1734 -91 
Q 1441 -91 1130 -33 
Q 819 25 488 141 
L 488 750 
Q 750 597 1062 519 
Q 1375 441 1716 441 
Q 2309 441 2620 675 
Q 2931 909 2931 1356 
Q 2931 1769 2642 2001 
Q 2353 2234 1838 2234 
L 1294 2234 
L 1294 2753 
L 1863 2753 
Q 2328 2753 2575 2939 
Q 2822 3125 2822 3475 
Q 2822 3834 2567 4026 
Q 2313 4219 1838 4219 
Q 1578 4219 1281 4162 
Q 984 4106 628 3988 
L 628 4550 
Q 988 4650 1302 4700 
Q 1616 4750 1894 4750 
Q 2613 4750 3031 4423 
Q 3450 4097 3450 3541 
Q 3450 3153 3228 2886 
Q 3006 2619 2597 2516 
z
" transform="scale(0.015625)"/>
       <path id="DejaVuSans-61" d="M 2194 1759 
Q 1497 1759 1228 1600 
Q 959 1441 959 1056 
Q 959 750 1161 570 
Q 1363 391 1709 391 
Q 2188 391 2477 730 
Q 2766 1069 2766 1631 
L 2766 1759 
L 2194 1759 
z
M 3341 1997 
L 3341 0 
L 2766 0 
L 2766 531 
Q 2569 213 2275 61 
Q 1981 -91 1556 -91 
Q 1019 -91 701 211 
Q 384 513 384 1019 
Q 384 1609 779 1909 
Q 1175 2209 1959 2209 
L 2766 2209 
L 2766 2266 
Q 2766 2663 2505 2880 
Q 2244 3097 1772 3097 
Q 1472 3097 1187 3025 
Q 903 2953 641 2809 
L 641 3341 
Q 956 3463 1253 3523 
Q 1550 3584 1831 3584 
Q 2591 3584 2966 3190 
Q 3341 2797 3341 1997 
z
" transform="scale(0.015625)"/>
      </defs>
      <use xlink:href="#DejaVuSans-51"/>
      <use xlink:href="#DejaVuSans-42" x="78.710938"/>
      <use xlink:href="#DejaVuSans-33" x="147.314453"/>
      <use xlink:href="#DejaVuSans-20" x="210.9375"/>
      <use xlink:href="#DejaVuSans-46" x="242.724609"/>
      <use xlink:href="#DejaVuSans-61" x="291.119141"/>
      <use xlink:href="#DejaVuSans-73" x="352.398438"/>
      <use xlink:href="#DejaVuSans-74" x="404.498047"/>
     </g>
    </g>
    <g id="line2d_21">
     <path d="M 63.02 54.656563 
L 73.02 54.656563 
L 83.02 54.656563 
" style="fill: none; stroke: #ff7f0e; stroke-width: 1.5; stroke-linecap: square"/>
    </g>
    <g id="text_19">
     <!-- QB3 Base -->
     <g transform="translate(91.02 58.156563) scale(0.1 -0.1)">
      <use xlink:href="#DejaVuSans-51"/>
      <use xlink:href="#DejaVuSans-42" x="78.710938"/>
      <use xlink:href="#DejaVuSans-33" x="147.314453"/>
      <use xlink:href="#DejaVuSans-20" x="210.9375"/>
      <use xlink:href="#DejaVuSans-42" x="242.724609"/>
      <use xlink:href="#DejaVuSans-61" x="311.328125"/>
      <use xlink:href="#DejaVuSans-73" x="372.607422"/>
      <use xlink:href="#DejaVuSans-65" x="424.707031"/>
     </g>
    </g>
    <g id="line2d_22">
     <path d="M 63.02 69.334688 
L 73.02 69.334688 
L 83.02 69.334688 
" style="fill: none; stroke: #2ca02c; stroke-width: 1.5; stroke-linecap: square"/>
    </g>
    <g id="text_20">
     <!-- QB3 Best -->
     <g transform="translate(91.02 72.834688) scale(0.1 -0.1)">
      <use xlink:href="#DejaVuSans-51"/>
      <use xlink:href="#DejaVuSans-42" x="78.710938"/>
      <use xlink:href="#DejaVuSans-33" x="147.314453"/>
      <use xlink:href="#DejaVuSans-20" x="210.9375"/>
      <use xlink:href="#DejaVuSans-42" x="242.724609"/>
      <use xlink:href="#DejaVuSans-65" x="311.328125"/>
      <use xlink:href="#DejaVuSans-73" x="372.851562"/>
      <use xlink:href="#DejaVuSans-74" x="424.951172"/>
     </g>
    </g>
    <g id="line2d_23">
     <path d="M 63.02 84.012812 
L 73.02 84.012812 
L 83.02 84.012812 
" style="fill: none; stroke: #d62728; stroke-width: 1.5; stroke-linecap: square"/>
    </g>
    <g id="text_21">
     <!-- QB3 Best band mix -->
     <g transform="translate(91.02 87.512812) scale(0.1 -0.1)">
      <defs>
       <path id="DejaVuSans-78" d="M 3513 3500 
L 2247 1797 
L 3578 0 
L 2900 0 
L 1881 1375 
L 863 0 
L 184 0 
L 1544 1831 
L 300 3500 
L 978 3500 
L 1906 2253 
L 2834 3500 
L 3513 3500 
z
" transform="scale(0.015625)"/>
      </defs>
      <use xlink:href="#DejaVuSans-51"/>
      <use xlink:href="#DejaVuSans-42" x="78.710938"/>
      <use xlink:href="#DejaVuSans-33" x="147.314453"/>
      <use xlink:href="#DejaVuSans-20" x="210.9375"/>
      <use xlink:href="#DejaVuSans-42" x="242.724609"/>
      <use xlink:href="#DejaVuSans-65" x="311.328125"/>
      <use xlink:href="#DejaVuSans-73" x="372.851562"/>
      <use xlink:href="#DejaVuSans-74" x="424.951172"/>
      <use xlink:href="#DejaVuSans-20" x="464.160156"/>
      <use xlink:href="#DejaVuSans-62" x="495.947266"/>
      <use xlink:href="#DejaVuSans-61" x="559.423828"/>
      <use xlink:href="#DejaVuSans-6e" x="620.703125"/>
      <use xlink:href="#DejaVuSans-64" x="684.082031"/>
      <use xlink:href="#DejaVuSans-20" x="747.558594"/>
      <use xlink:href="#DejaVuSans-6d" x="779.345703"/>
      <use xlink:href="#DejaVuSans-69" x="876.757812"/>
      <use xlink:href="#DejaVuSans-78" x="904.541016"/>
     </g>
    </g>
    <g id="line2d_24">
     <path d="M 63.02 98.690938 
L 73.02 98.690938 
L 83.02 98.690938 
" style="fill: none; stroke: #9467bd; stroke-width: 5; stroke-linecap: square"/>
    </g>
    <g id="text_22">
     <!-- PNG encode -->
     <g transform="translate(91.02 102.190938) scale(0.1 -0.1)">
      <defs>
       <path id="DejaVuSans-50" d="M 1259 4147 
L 1259 2394 
L 2053 2394 
Q 2494 2394 2734 2622 
Q 2975 2850 2975 3272 
Q 2975 3691 2734 3919 
Q 2494 4147 2053 4147 
L 1259 4147 
z
M 628 4666 
L 2053 4666 
Q 2838 4666 3239 4311 
Q 3641 3956 3641 3272 
Q 3641 2581 3239 2228 
Q 2838 1875 2053 1875 
L 1259 1875 
L 1259 0 
L 628 0 
L 628 4666 
z
" transform="scale(0.015625)"/>
       <path id="DejaVuSans-4e" d="M 628 4666 
L 1478 4666 
L 3547 763 
L 3547 4666 
L 4159 4666 
L 4159 0 
L 3309 0 
L 1241 3903 
L 1241 0 
L 628 0 
L 628 4666 
z
" transform="scale(0.015625)"/>
       <path id="DejaVuSans-47" d="M 3809 666 
L 3809 1919 
L 2778 1919 
L 2778 2438 
L 4434 2438 
L 4434 434 
Q 4069 175 3628 42 
Q 3188 -91 2688 -91 
Q 1594 -91 976 548 
Q 359 1188 359 2328 
Q 359 3472 976 4111 
Q 1594 4750 2688 4750 
Q 3144 4750 3555 4637 
Q 3966 4525 4313 4306 
L 4313 3634 
Q 3963 3931 3569 4081 
Q 3175 4231 2741 4231 
Q 1884 4231 1454 3753 
Q 1025 3275 1025 2328 
Q 1025 1384 1454 906 
Q 1884 428 2741 428 
Q 3075 428 3337 486 
Q 3600 544 3809 666 
z
" transform="scale(0.015625)"/>
      </defs>
      <use xlink:href="#DejaVuSans-50"/>
      <use xlink:href="#DejaVuSans-4e" x="60.302734"/>
      <use xlink:href="#DejaVuSans-47" x="135.107422"/>
      <use xlink:href="#DejaVuSans-20" x="212.597656"/>
      <use xlink:href="#DejaVuSans-65" x="244.384766"/>
      <use xlink:href="#DejaVuSans-6e" x="305.908203"/>
      <use xlink:href="#DejaVuSans-63" x="369.287109"/>
      <use xlink:href="#DejaVuSans-6f" x="424.267578"/>
      <use xlink:href="#DejaVuSans-64" x="485.449219"/>
      <use xlink:href="#DejaVuSans-65" x="548.925781"/>
     </g>
    </g>
   </g>
  </g>
 </g>
 <defs>
  <clipPath id="pb8a4f6c212">
   <rect x="54.02" y="26.88" width="1375.18" height="651.16"/>
  </clipPath>
 </defs>
</svg>
