<?xml version="1.0" encoding="utf-8" standalone="no"?>
<!DOCTYPE svg PUBLIC "-//W3C//DTD SVG 1.1//EN"
  "http://www.w3.org/Graphics/SVG/1.1/DTD/svg11.dtd">
<svg xmlns:xlink="http://www.w3.org/1999/xlink" width="1152pt" height="576pt" viewBox="0 0 1152 576" xmlns="http://www.w3.org/2000/svg" version="1.1">
 <metadata>
  <rdf:RDF xmlns:dc="http://purl.org/dc/elements/1.1/" xmlns:cc="http://creativecommons.org/ns#" xmlns:rdf="http://www.w3.org/1999/02/22-rdf-syntax-ns#">
   <cc:Work>
    <dc:type rdf:resource="http://purl.org/dc/dcmitype/StillImage"/>
    <dc:date>2025-12-09T17:00:34.719804</dc:date>
    <dc:format>image/svg+xml</dc:format>
    <dc:creator>
     <cc:Agent>
      <dc:title>Matplotlib v3.9.0, https://matplotlib.org/</dc:title>
     </cc:Agent>
    </dc:creator>
   </cc:Work>
  </rdf:RDF>
 </metadata>
 <defs>
  <style type="text/css">*{stroke-linejoin: round; stroke-linecap: butt}</style>
 </defs>
 <g id="figure_1">
  <g id="patch_1">
   <path d="M 0 576 
L 1152 576 
L 1152 0 
L 0 0 
z
" style="fill: #ffffff"/>
  </g>
  <g id="axes_1">
   <g id="patch_2">
    <path d="M 54.02 534.04 
L 1141.2 534.04 
L 1141.2 26.88 
L 54.02 26.88 
z
" style="fill: #ffffff"/>
   </g>
   <g id="matplotlib.axis_1">
    <g id="xtick_1">
     <g id="line2d_1">
      <defs>
       <path id="m3b866252b1" d="M 0 0 
L 0 3.5 
" style="stroke: #000000; stroke-width: 0.8"/>
      </defs>
      <g>
       <use xlink:href="#m3b866252b1" x="103.437273" y="534.04" style="stroke: #000000; stroke-width: 0.8"/>
      </g>
     </g>
     <g id="text_1">
      <!-- 0 -->
      <g transform="translate(100.256023 548.638438) scale(0.1 -0.1)">
       <defs>
        <path id="DejaVuSans-30" d="M 2034 4250 
Q 1547 4250 1301 3770 
Q 1056 3291 1056 2328 
Q 1056 1369 1301 889 
Q 1547 409 2034 409 
Q 2525 409 2770 889 
Q 3016 1369 3016 2328 
Q 3016 3291 2770 3770 
Q 2525 4250 2034 4250 
z
M 2034 4750 
Q 2819 4750 3233 4129 
Q 3647 3509 3647 2328 
Q 3647 1150 3233 529 
Q 2819 -91 2034 -91 
Q 1250 -91 836 529 
Q 422 1150 422 2328 
Q 422 3509 836 4129 
Q 1250 4750 2034 4750 
z
" transform="scale(0.015625)"/>
       </defs>
       <use xlink:href="#DejaVuSans-30"/>
      </g>
     </g>
    </g>
    <g id="xtick_2">
     <g id="line2d_2">
      <g>
       <use xlink:href="#m3b866252b1" x="303.507203" y="534.04" style="stroke: #000000; stroke-width: 0.8"/>
      </g>
     </g>
     <g id="text_2">
      <!-- 50 -->
      <g transform="translate(297.144703 548.638438) scale(0.1 -0.1)">
       <defs>
        <path id="DejaVuSans-35" d="M 691 4666 
L 3169 4666 
L 3169 4134 
L 1269 4134 
L 1269 2991 
Q 1406 3038 1543 3061 
Q 1681 3084 1819 3084 
Q 2600 3084 3056 2656 
Q 3513 2228 3513 1497 
Q 3513 744 3044 326 
Q 2575 -91 1722 -91 
Q 1428 -91 1123 -41 
Q 819 9 494 109 
L 494 744 
Q 775 591 1075 516 
Q 1375 441 1709 441 
Q 2250 441 2565 725 
Q 2881 1009 2881 1497 
Q 2881 1984 2565 2268 
Q 2250 2553 1709 2553 
Q 1456 2553 1204 2497 
Q 953 2441 691 2322 
L 691 4666 
z
" transform="scale(0.015625)"/>
       </defs>
       <use xlink:href="#DejaVuSans-35"/>
       <use xlink:href="#DejaVuSans-30" x="63.623047"/>
      </g>
     </g>
    </g>
    <g id="xtick_3">
     <g id="line2d_3">
      <g>
       <use xlink:href="#m3b866252b1" x="503.577133" y="534.04" style="stroke: #000000; stroke-width: 0.8"/>
      </g>
     </g>
     <g id="text_3">
      <!-- 100 -->
      <g transform="translate(494.033383 548.638438) scale(0.1 -0.1)">
       <defs>
        <path id="DejaVuSans-31" d="M 794 531 
L 1825 531 
L 1825 4091 
L 703 3866 
L 703 4441 
L 1819 4666 
L 2450 4666 
L 2450 531 
L 3481 531 
L 3481 0 
L 794 0 
L 794 531 
z
" transform="scale(0.015625)"/>
       </defs>
       <use xlink:href="#DejaVuSans-31"/>
       <use xlink:href="#DejaVuSans-30" x="63.623047"/>
       <use xlink:href="#DejaVuSans-30" x="127.246094"/>
      </g>
     </g>
    </g>
    <g id="xtick_4">
     <g id="line2d_4">
      <g>
       <use xlink:href="#m3b866252b1" x="703.647063" y="534.04" style="stroke: #000000; stroke-width: 0.8"/>
      </g>
     </g>
     <g id="text_4">
      <!-- 150 -->
      <g transform="translate(694.103313 548.638438) scale(0.1 -0.1)">
       <use xlink:href="#DejaVuSans-31"/>
       <use xlink:href="#DejaVuSans-35" x="63.623047"/>
       <use xlink:href="#DejaVuSans-30" x="127.246094"/>
      </g>
     </g>
    </g>
    <g id="xtick_5">
     <g id="line2d_5">
      <g>
       <use xlink:href="#m3b866252b1" x="903.716993" y="534.04" style="stroke: #000000; stroke-width: 0.8"/>
      </g>
     </g>
     <g id="text_5">
      <!-- 200 -->
      <g transform="translate(894.173243 548.638438) scale(0.1 -0.1)">
       <defs>
        <path id="DejaVuSans-32" d="M 1228 531 
L 3431 531 
L 3431 0 
L 469 0 
L 469 531 
Q 828 903 1448 1529 
Q 2069 2156 2228 2338 
Q 2531 2678 2651 2914 
Q 2772 3150 2772 3378 
Q 2772 3750 2511 3984 
Q 2250 4219 1831 4219 
Q 1534 4219 1204 4116 
Q 875 4013 500 3803 
L 500 4441 
Q 881 4594 1212 4672 
Q 1544 4750 1819 4750 
Q 2544 4750 2975 4387 
Q 3406 4025 3406 3419 
Q 3406 3131 3298 2873 
Q 3191 2616 2906 2266 
Q 2828 2175 2409 1742 
Q 1991 1309 1228 531 
z
" transform="scale(0.015625)"/>
       </defs>
       <use xlink:href="#DejaVuSans-32"/>
       <use xlink:href="#DejaVuSans-30" x="63.623047"/>
       <use xlink:href="#DejaVuSans-30" x="127.246094"/>
      </g>
     </g>
    </g>
    <g id="xtick_6">
     <g id="line2d_6">
      <g>
       <use xlink:href="#m3b866252b1" x="1103.786923" y="534.04" style="stroke: #000000; stroke-width: 0.8"/>
      </g>
     </g>
     <g id="text_6">
      <!-- 250 -->
      <g transform="translate(1094.243173 548.638438) scale(0.1 -0.1)">
       <use xlink:href="#DejaVuSans-32"/>
       <use xlink:href="#DejaVuSans-35" x="63.623047"/>
       <use xlink:href="#DejaVuSans-30" x="127.246094"/>
      </g>
     </g>
    </g>
    <g id="text_7">
     <!-- File number -->
     <g transform="translate(568.138906 562.316562) scale(0.1 -0.1)">
      <defs>
       <path id="DejaVuSans-46" d="M 628 4666 
L 3309 4666 
L 3309 4134 
L 1259 4134 
L 1259 2759 
L 3109 2759 
L 3109 2228 
L 1259 2228 
L 1259 0 
L 628 0 
L 628 4666 
z
" transform="scale(0.015625)"/>
       <path id="DejaVuSans-69" d="M 603 3500 
L 1178 3500 
L 1178 0 
L 603 0 
L 603 3500 
z
M 603 4863 
L 1178 4863 
L 1178 4134 
L 603 4134 
L 603 4863 
z
" transform="scale(0.015625)"/>
       <path id="DejaVuSans-6c" d="M 603 4863 
L 1178 4863 
L 1178 0 
L 603 0 
L 603 4863 
z
" transform="scale(0.015625)"/>
       <path id="DejaVuSans-65" d="M 3597 1894 
L 3597 1613 
L 953 1613 
Q 991 1019 1311 708 
Q 1631 397 2203 397 
Q 2534 397 2845 478 
Q 3156 559 3463 722 
L 3463 178 
Q 3153 47 2828 -22 
Q 2503 -91 2169 -91 
Q 1331 -91 842 396 
Q 353 884 353 1716 
Q 353 2575 817 3079 
Q 1281 3584 2069 3584 
Q 2775 3584 3186 3129 
Q 3597 2675 3597 1894 
z
M 3022 2063 
Q 3016 2534 2758 2815 
Q 2500 3097 2075 3097 
Q 1594 3097 1305 2825 
Q 1016 2553 972 2059 
L 3022 2063 
z
" transform="scale(0.015625)"/>
       <path id="DejaVuSans-20" transform="scale(0.015625)"/>
       <path id="DejaVuSans-6e" d="M 3513 2113 
L 3513 0 
L 2938 0 
L 2938 2094 
Q 2938 2591 2744 2837 
Q 2550 3084 2163 3084 
Q 1697 3084 1428 2787 
Q 1159 2491 1159 1978 
L 1159 0 
L 581 0 
L 581 3500 
L 1159 3500 
L 1159 2956 
Q 1366 3272 1645 3428 
Q 1925 3584 2291 3584 
Q 2894 3584 3203 3211 
Q 3513 2838 3513 2113 
z
" transform="scale(0.015625)"/>
       <path id="DejaVuSans-75" d="M 544 1381 
L 544 3500 
L 1119 3500 
L 1119 1403 
Q 1119 906 1312 657 
Q 1506 409 1894 409 
Q 2359 409 2629 706 
Q 2900 1003 2900 1516 
L 2900 3500 
L 3475 3500 
L 3475 0 
L 2900 0 
L 2900 538 
Q 2691 219 2414 64 
Q 2138 -91 1772 -91 
Q 1169 -91 856 284 
Q 544 659 544 1381 
z
M 1991 3584 
L 1991 3584 
z
" transform="scale(0.015625)"/>
       <path id="DejaVuSans-6d" d="M 3328 2828 
Q 3544 3216 3844 3400 
Q 4144 3584 4550 3584 
Q 5097 3584 5394 3201 
Q 5691 2819 5691 2113 
L 5691 0 
L 5113 0 
L 5113 2094 
Q 5113 2597 4934 2840 
Q 4756 3084 4391 3084 
Q 3944 3084 3684 2787 
Q 3425 2491 3425 1978 
L 3425 0 
L 2847 0 
L 2847 2094 
Q 2847 2600 2669 2842 
Q 2491 3084 2119 3084 
Q 1678 3084 1418 2786 
Q 1159 2488 1159 1978 
L 1159 0 
L 581 0 
L 581 3500 
L 1159 3500 
L 1159 2956 
Q 1356 3278 1631 3431 
Q 1906 3584 2284 3584 
Q 2666 3584 2933 3390 
Q 3200 3197 3328 2828 
z
" transform="scale(0.015625)"/>
       <path id="DejaVuSans-62" d="M 3116 1747 
Q 3116 2381 2855 2742 
Q 2594 3103 2138 3103 
Q 1681 3103 1420 2742 
Q 1159 2381 1159 1747 
Q 1159 1113 1420 752 
Q 1681 391 2138 391 
Q 2594 391 2855 752 
Q 3116 1113 3116 1747 
z
M 1159 2969 
Q 1341 3281 1617 3432 
Q 1894 3584 2278 3584 
Q 2916 3584 3314 3078 
Q 3713 2572 3713 1747 
Q 3713 922 3314 415 
Q 2916 -91 2278 -91 
Q 1894 -91 1617 61 
Q 1341 213 1159 525 
L 1159 0 
L 581 0 
L 581 4863 
L 1159 4863 
L 1159 2969 
z
" transform="scale(0.015625)"/>
       <path id="DejaVuSans-72" d="M 2631 2963 
Q 2534 3019 2420 3045 
Q 2306 3072 2169 3072 
Q 1681 3072 1420 2755 
Q 1159 2438 1159 1844 
L 1159 0 
L 581 0 
L 581 3500 
L 1159 3500 
L 1159 2956 
Q 1341 3275 1631 3429 
Q 1922 3584 2338 3584 
Q 2397 3584 2469 3576 
Q 2541 3569 2628 3553 
L 2631 2963 
z
" transform="scale(0.015625)"/>
      </defs>
      <use xlink:href="#DejaVuSans-46"/>
      <use xlink:href="#DejaVuSans-69" x="50.269531"/>
      <use xlink:href="#DejaVuSans-6c" x="78.052734"/>
      <use xlink:href="#DejaVuSans-65" x="105.835938"/>
      <use xlink:href="#DejaVuSans-20" x="167.359375"/>
      <use xlink:href="#DejaVuSans-6e" x="199.146484"/>
      <use xlink:href="#DejaVuSans-75" x="262.525391"/>
      <use xlink:href="#DejaVuSans-6d" x="325.904297"/>
      <use xlink:href="#DejaVuSans-62" x="423.316406"/>
      <use xlink:href="#DejaVuSans-65" x="486.792969"/>
      <use xlink:href="#DejaVuSans-72" x="548.316406"/>
     </g>
    </g>
   </g>
   <g id="matplotlib.axis_2">
    <g id="ytick_1">
     <g id="line2d_7">
      <defs>
       <path id="m428c76f415" d="M 0 0 
L -3.5 0 
" style="stroke: #000000; stroke-width: 0.8"/>
      </defs>
      <g>
       <use xlink:href="#m428c76f415" x="54.02" y="513.293769" style="stroke: #000000; stroke-width: 0.8"/>
      </g>
     </g>
     <g id="text_8">
      <!-- 0.00 -->
      <g transform="translate(24.754375 517.092987) scale(0.1 -0.1)">
       <defs>
        <path id="DejaVuSans-2e" d="M 684 794 
L 1344 794 
L 1344 0 
L 684 0 
L 684 794 
z
" transform="scale(0.015625)"/>
       </defs>
       <use xlink:href="#DejaVuSans-30"/>
       <use xlink:href="#DejaVuSans-2e" x="63.623047"/>
       <use xlink:href="#DejaVuSans-30" x="95.410156"/>
       <use xlink:href="#DejaVuSans-30" x="159.033203"/>
      </g>
     </g>
    </g>
    <g id="ytick_2">
     <g id="line2d_8">
      <g>
       <use xlink:href="#m428c76f415" x="54.02" y="451.282856" style="stroke: #000000; stroke-width: 0.8"/>
      </g>
     </g>
     <g id="text_9">
      <!-- 0.02 -->
      <g transform="translate(24.754375 455.082075) scale(0.1 -0.1)">
       <use xlink:href="#DejaVuSans-30"/>
       <use xlink:href="#DejaVuSans-2e" x="63.623047"/>
       <use xlink:href="#DejaVuSans-30" x="95.410156"/>
       <use xlink:href="#DejaVuSans-32" x="159.033203"/>
      </g>
     </g>
    </g>
    <g id="ytick_3">
     <g id="line2d_9">
      <g>
       <use xlink:href="#m428c76f415" x="54.02" y="389.271944" style="stroke: #000000; stroke-width: 0.8"/>
      </g>
     </g>
     <g id="text_10">
      <!-- 0.04 -->
      <g transform="translate(24.754375 393.071162) scale(0.1 -0.1)">
       <defs>
        <path id="DejaVuSans-34" d="M 2419 4116 
L 825 1625 
L 2419 1625 
L 2419 4116 
z
M 2253 4666 
L 3047 4666 
L 3047 1625 
L 3713 1625 
L 3713 1100 
L 3047 1100 
L 3047 0 
L 2419 0 
L 2419 1100 
L 313 1100 
L 313 1709 
L 2253 4666 
z
" transform="scale(0.015625)"/>
       </defs>
       <use xlink:href="#DejaVuSans-30"/>
       <use xlink:href="#DejaVuSans-2e" x="63.623047"/>
       <use xlink:href="#DejaVuSans-30" x="95.410156"/>
       <use xlink:href="#DejaVuSans-34" x="159.033203"/>
      </g>
     </g>
    </g>
    <g id="ytick_4">
     <g id="line2d_10">
      <g>
       <use xlink:href="#m428c76f415" x="54.02" y="327.261031" style="stroke: #000000; stroke-width: 0.8"/>
      </g>
     </g>
     <g id="text_11">
      <!-- 0.06 -->
      <g transform="translate(24.754375 331.06025) scale(0.1 -0.1)">
       <defs>
        <path id="DejaVuSans-36" d="M 2113 2584 
Q 1688 2584 1439 2293 
Q 1191 2003 1191 1497 
Q 1191 994 1439 701 
Q 1688 409 2113 409 
Q 2538 409 2786 701 
Q 3034 994 3034 1497 
Q 3034 2003 2786 2293 
Q 2538 2584 2113 2584 
z
M 3366 4563 
L 3366 3988 
Q 3128 4100 2886 4159 
Q 2644 4219 2406 4219 
Q 1781 4219 1451 3797 
Q 1122 3375 1075 2522 
Q 1259 2794 1537 2939 
Q 1816 3084 2150 3084 
Q 2853 3084 3261 2657 
Q 3669 2231 3669 1497 
Q 3669 778 3244 343 
Q 2819 -91 2113 -91 
Q 1303 -91 875 529 
Q 447 1150 447 2328 
Q 447 3434 972 4092 
Q 1497 4750 2381 4750 
Q 2619 4750 2861 4703 
Q 3103 4656 3366 4563 
z
" transform="scale(0.015625)"/>
       </defs>
       <use xlink:href="#DejaVuSans-30"/>
       <use xlink:href="#DejaVuSans-2e" x="63.623047"/>
       <use xlink:href="#DejaVuSans-30" x="95.410156"/>
       <use xlink:href="#DejaVuSans-36" x="159.033203"/>
      </g>
     </g>
    </g>
    <g id="ytick_5">
     <g id="line2d_11">
      <g>
       <use xlink:href="#m428c76f415" x="54.02" y="265.250118" style="stroke: #000000; stroke-width: 0.8"/>
      </g>
     </g>
     <g id="text_12">
      <!-- 0.08 -->
      <g transform="translate(24.754375 269.049337) scale(0.1 -0.1)">
       <defs>
        <path id="DejaVuSans-38" d="M 2034 2216 
Q 1584 2216 1326 1975 
Q 1069 1734 1069 1313 
Q 1069 891 1326 650 
Q 1584 409 2034 409 
Q 2484 409 2743 651 
Q 3003 894 3003 1313 
Q 3003 1734 2745 1975 
Q 2488 2216 2034 2216 
z
M 1403 2484 
Q 997 2584 770 2862 
Q 544 3141 544 3541 
Q 544 4100 942 4425 
Q 1341 4750 2034 4750 
Q 2731 4750 3128 4425 
Q 3525 4100 3525 3541 
Q 3525 3141 3298 2862 
Q 3072 2584 2669 2484 
Q 3125 2378 3379 2068 
Q 3634 1759 3634 1313 
Q 3634 634 3220 271 
Q 2806 -91 2034 -91 
Q 1263 -91 848 271 
Q 434 634 434 1313 
Q 434 1759 690 2068 
Q 947 2378 1403 2484 
z
M 1172 3481 
Q 1172 3119 1398 2916 
Q 1625 2713 2034 2713 
Q 2441 2713 2670 2916 
Q 2900 3119 2900 3481 
Q 2900 3844 2670 4047 
Q 2441 4250 2034 4250 
Q 1625 4250 1398 4047 
Q 1172 3844 1172 3481 
z
" transform="scale(0.015625)"/>
       </defs>
       <use xlink:href="#DejaVuSans-30"/>
       <use xlink:href="#DejaVuSans-2e" x="63.623047"/>
       <use xlink:href="#DejaVuSans-30" x="95.410156"/>
       <use xlink:href="#DejaVuSans-38" x="159.033203"/>
      </g>
     </g>
    </g>
    <g id="ytick_6">
     <g id="line2d_12">
      <g>
       <use xlink:href="#m428c76f415" x="54.02" y="203.239206" style="stroke: #000000; stroke-width: 0.8"/>
      </g>
     </g>
     <g id="text_13">
      <!-- 0.10 -->
      <g transform="translate(24.754375 207.038425) scale(0.1 -0.1)">
       <use xlink:href="#DejaVuSans-30"/>
       <use xlink:href="#DejaVuSans-2e" x="63.623047"/>
       <use xlink:href="#DejaVuSans-31" x="95.410156"/>
       <use xlink:href="#DejaVuSans-30" x="159.033203"/>
      </g>
     </g>
    </g>
    <g id="ytick_7">
     <g id="line2d_13">
      <g>
       <use xlink:href="#m428c76f415" x="54.02" y="141.228293" style="stroke: #000000; stroke-width: 0.8"/>
      </g>
     </g>
     <g id="text_14">
      <!-- 0.12 -->
      <g transform="translate(24.754375 145.027512) scale(0.1 -0.1)">
       <use xlink:href="#DejaVuSans-30"/>
       <use xlink:href="#DejaVuSans-2e" x="63.623047"/>
       <use xlink:href="#DejaVuSans-31" x="95.410156"/>
       <use xlink:href="#DejaVuSans-32" x="159.033203"/>
      </g>
     </g>
    </g>
    <g id="ytick_8">
     <g id="line2d_14">
      <g>
       <use xlink:href="#m428c76f415" x="54.02" y="79.217381" style="stroke: #000000; stroke-width: 0.8"/>
      </g>
     </g>
     <g id="text_15">
      <!-- 0.14 -->
      <g transform="translate(24.754375 83.016599) scale(0.1 -0.1)">
       <use xlink:href="#DejaVuSans-30"/>
       <use xlink:href="#DejaVuSans-2e" x="63.623047"/>
       <use xlink:href="#DejaVuSans-31" x="95.410156"/>
       <use xlink:href="#DejaVuSans-34" x="159.033203"/>
      </g>
     </g>
    </g>
    <g id="text_16">
     <!-- Seconds -->
     <g transform="translate(18.674687 301.467031) rotate(-90) scale(0.1 -0.1)">
      <defs>
       <path id="DejaVuSans-53" d="M 3425 4513 
L 3425 3897 
Q 3066 4069 2747 4153 
Q 2428 4238 2131 4238 
Q 1616 4238 1336 4038 
Q 1056 3838 1056 3469 
Q 1056 3159 1242 3001 
Q 1428 2844 1947 2747 
L 2328 2669 
Q 3034 2534 3370 2195 
Q 3706 1856 3706 1288 
Q 3706 609 3251 259 
Q 2797 -91 1919 -91 
Q 1588 -91 1214 -16 
Q 841 59 441 206 
L 441 856 
Q 825 641 1194 531 
Q 1563 422 1919 422 
Q 2459 422 2753 634 
Q 3047 847 3047 1241 
Q 3047 1584 2836 1778 
Q 2625 1972 2144 2069 
L 1759 2144 
Q 1053 2284 737 2584 
Q 422 2884 422 3419 
Q 422 4038 858 4394 
Q 1294 4750 2059 4750 
Q 2388 4750 2728 4690 
Q 3069 4631 3425 4513 
z
" transform="scale(0.015625)"/>
       <path id="DejaVuSans-63" d="M 3122 3366 
L 3122 2828 
Q 2878 2963 2633 3030 
Q 2388 3097 2138 3097 
Q 1578 3097 1268 2742 
Q 959 2388 959 1747 
Q 959 1106 1268 751 
Q 1578 397 2138 397 
Q 2388 397 2633 464 
Q 2878 531 3122 666 
L 3122 134 
Q 2881 22 2623 -34 
Q 2366 -91 2075 -91 
Q 1284 -91 818 406 
Q 353 903 353 1747 
Q 353 2603 823 3093 
Q 1294 3584 2113 3584 
Q 2378 3584 2631 3529 
Q 2884 3475 3122 3366 
z
" transform="scale(0.015625)"/>
       <path id="DejaVuSans-6f" d="M 1959 3097 
Q 1497 3097 1228 2736 
Q 959 2375 959 1747 
Q 959 1119 1226 758 
Q 1494 397 1959 397 
Q 2419 397 2687 759 
Q 2956 1122 2956 1747 
Q 2956 2369 2687 2733 
Q 2419 3097 1959 3097 
z
M 1959 3584 
Q 2709 3584 3137 3096 
Q 3566 2609 3566 1747 
Q 3566 888 3137 398 
Q 2709 -91 1959 -91 
Q 1206 -91 779 398 
Q 353 888 353 1747 
Q 353 2609 779 3096 
Q 1206 3584 1959 3584 
z
" transform="scale(0.015625)"/>
       <path id="DejaVuSans-64" d="M 2906 2969 
L 2906 4863 
L 3481 4863 
L 3481 0 
L 2906 0 
L 2906 525 
Q 2725 213 2448 61 
Q 2172 -91 1784 -91 
Q 1150 -91 751 415 
Q 353 922 353 1747 
Q 353 2572 751 3078 
Q 1150 3584 1784 3584 
Q 2172 3584 2448 3432 
Q 2725 3281 2906 2969 
z
M 947 1747 
Q 947 1113 1208 752 
Q 1469 391 1925 391 
Q 2381 391 2643 752 
Q 2906 1113 2906 1747 
Q 2906 2381 2643 2742 
Q 2381 3103 1925 3103 
Q 1469 3103 1208 2742 
Q 947 2381 947 1747 
z
" transform="scale(0.015625)"/>
       <path id="DejaVuSans-73" d="M 2834 3397 
L 2834 2853 
Q 2591 2978 2328 3040 
Q 2066 3103 1784 3103 
Q 1356 3103 1142 2972 
Q 928 2841 928 2578 
Q 928 2378 1081 2264 
Q 1234 2150 1697 2047 
L 1894 2003 
Q 2506 1872 2764 1633 
Q 3022 1394 3022 966 
Q 3022 478 2636 193 
Q 2250 -91 1575 -91 
Q 1294 -91 989 -36 
Q 684 19 347 128 
L 347 722 
Q 666 556 975 473 
Q 1284 391 1588 391 
Q 1994 391 2212 530 
Q 2431 669 2431 922 
Q 2431 1156 2273 1281 
Q 2116 1406 1581 1522 
L 1381 1569 
Q 847 1681 609 1914 
Q 372 2147 372 2553 
Q 372 3047 722 3315 
Q 1072 3584 1716 3584 
Q 2034 3584 2315 3537 
Q 2597 3491 2834 3397 
z
" transform="scale(0.015625)"/>
      </defs>
      <use xlink:href="#DejaVuSans-53"/>
      <use xlink:href="#DejaVuSans-65" x="63.476562"/>
      <use xlink:href="#DejaVuSans-63" x="125"/>
      <use xlink:href="#DejaVuSans-6f" x="179.980469"/>
      <use xlink:href="#DejaVuSans-6e" x="241.162109"/>
      <use xlink:href="#DejaVuSans-64" x="304.541016"/>
      <use xlink:href="#DejaVuSans-73" x="368.017578"/>
     </g>
    </g>
   </g>
   <g id="line2d_15">
    <path d="M 103.437273 510.732718 
L 107.438671 510.935184 
L 111.44007 510.763413 
L 115.441469 510.987273 
L 119.442867 510.755352 
L 123.444266 510.114159 
L 127.445664 510.790078 
L 131.447063 510.013701 
L 135.448462 510.500487 
L 139.44986 509.709538 
L 143.451259 510.050288 
L 147.452657 509.752325 
L 151.454056 509.693415 
L 155.455455 509.880998 
L 159.456853 509.463355 
L 163.458252 509.714189 
L 167.45965 509.77744 
L 175.462448 509.361347 
L 179.463846 509.065865 
L 183.465245 510.078193 
L 187.466643 508.745268 
L 191.468042 508.096944 
L 195.469441 505.57279 
L 199.470839 507.058261 
L 203.472238 505.899587 
L 207.473636 505.670457 
L 215.476434 506.014618 
L 219.477832 505.80068 
L 223.479231 505.300562 
L 227.480629 506.381722 
L 231.482028 505.790448 
L 235.483427 507.45017 
L 239.484825 505.904238 
L 243.486224 505.835716 
L 247.487622 505.23483 
L 255.49042 506.864787 
L 259.491818 508.347778 
L 263.493217 506.014618 
L 267.494615 506.277854 
L 271.496014 505.601005 
L 275.497413 505.988573 
L 279.498811 506.514426 
L 283.50021 507.595896 
L 287.501608 505.873853 
L 291.503007 505.938654 
L 295.504406 508.024701 
L 299.505804 506.037872 
L 303.507203 506.346686 
L 307.508601 506.446834 
L 311.51 506.948502 
L 315.511399 507.099809 
L 319.512797 506.102673 
L 323.514196 505.990743 
L 327.515594 505.757582 
L 331.516993 507.648915 
L 335.518392 506.392574 
L 339.51979 506.503884 
L 343.521189 507.157789 
L 347.522587 506.741696 
L 351.523986 505.898347 
L 355.525385 507.767356 
L 359.526783 507.133605 
L 363.528182 507.608608 
L 367.52958 506.864167 
L 371.530979 506.610232 
L 375.532378 505.949506 
L 379.533776 506.208712 
L 383.535175 507.101359 
L 387.536573 508.440174 
L 391.537972 506.136779 
L 395.539371 506.248089 
L 399.540769 506.129028 
L 407.543566 506.927418 
L 411.544965 507.10973 
L 415.546364 505.74177 
L 419.547762 506.546671 
L 423.549161 506.298938 
L 427.550559 507.158409 
L 431.551958 507.208948 
L 435.553357 506.609612 
L 439.554755 506.431641 
L 443.556154 507.882386 
L 451.558951 506.173366 
L 455.56035 506.222044 
L 459.561748 507.685502 
L 463.563147 507.173292 
L 467.564545 505.774325 
L 471.565944 507.853551 
L 475.567343 506.640928 
L 479.568741 506.182977 
L 487.571538 507.151588 
L 491.572937 506.252429 
L 495.574336 506.677824 
L 499.575734 506.13926 
L 503.577133 506.988809 
L 507.578531 506.490861 
L 511.57993 507.431257 
L 515.581329 507.021985 
L 519.582727 506.854555 
L 523.584126 507.79092 
L 527.585524 506.665732 
L 531.586923 507.490477 
L 535.588322 507.181973 
L 539.58972 508.030592 
L 543.591119 507.885177 
L 547.592517 507.140426 
L 555.595315 506.413348 
L 559.596713 507.039038 
L 563.598112 507.358084 
L 567.59951 507.498539 
L 571.600909 508.002067 
L 575.602308 507.239023 
L 579.603706 508.047645 
L 583.605105 506.413348 
L 587.606503 506.853625 
L 595.609301 507.04834 
L 599.610699 506.591319 
L 603.612098 506.606202 
L 607.613497 507.882076 
L 611.614895 506.623875 
L 615.616294 506.359708 
L 619.617692 507.245534 
L 623.619091 506.557213 
L 627.62049 506.137709 
L 631.621888 506.665422 
L 635.623287 506.916256 
L 639.624685 506.48249 
L 643.626084 507.117792 
L 647.627483 506.609612 
L 651.628881 508.044235 
L 655.63028 507.552488 
L 659.631678 507.214219 
L 663.633077 505.898037 
L 667.634476 507.117172 
L 671.635874 506.690847 
L 675.637273 507.701314 
L 679.638671 507.045549 
L 683.64007 507.430327 
L 687.641469 507.265378 
L 691.642867 506.804637 
L 695.644266 507.251425 
L 699.645664 506.635967 
L 707.648462 507.262277 
L 711.64986 506.743866 
L 715.651259 505.652784 
L 723.654056 507.604888 
L 727.655455 506.908505 
L 731.656853 507.110971 
L 735.658252 507.876185 
L 739.65965 506.586048 
L 743.661049 507.177012 
L 747.662448 507.200886 
L 751.663846 506.42513 
L 755.665245 506.296457 
L 759.666643 506.399705 
L 763.668042 508.086092 
L 767.669441 507.044929 
L 771.670839 507.296693 
L 775.672238 506.578917 
L 779.673636 506.916876 
L 783.675035 507.083996 
L 787.676434 506.925868 
L 791.677832 507.44986 
L 795.679231 506.746036 
L 799.680629 506.375211 
L 807.683427 507.838049 
L 811.684825 507.092367 
L 815.686224 506.87781 
L 823.689021 506.19662 
L 827.69042 507.072214 
L 831.691818 506.080349 
L 835.693217 505.975551 
L 843.696014 507.27592 
L 847.697413 506.603101 
L 851.698811 506.412418 
L 855.70021 507.240263 
L 859.701608 507.11004 
L 863.703007 507.630312 
L 867.704406 507.135465 
L 871.705804 507.412654 
L 875.707203 506.411487 
L 879.708601 507.233442 
L 883.71 506.675964 
L 887.711399 507.303825 
L 891.712797 507.258867 
L 895.714196 507.656357 
L 899.715594 506.972376 
L 903.716993 507.655736 
L 907.718392 507.088957 
L 911.71979 506.88029 
L 915.721189 507.067563 
L 919.722587 506.181737 
L 923.723986 507.478075 
L 927.725385 506.742626 
L 931.726783 507.028496 
L 935.728182 507.029426 
L 939.72958 508.140662 
L 943.730979 506.657671 
L 947.732378 507.714337 
L 951.733776 506.896723 
L 955.735175 506.876569 
L 963.737972 507.2784 
L 967.739371 507.33762 
L 971.740769 507.102289 
L 975.742168 506.459856 
L 979.743566 507.461952 
L 983.744965 507.178252 
L 987.746364 506.326533 
L 995.749161 507.157479 
L 1003.751958 507.545977 
L 1007.753357 507.297623 
L 1011.754755 506.53706 
L 1015.756154 505.975551 
L 1019.757552 507.807043 
L 1023.758951 506.955943 
L 1027.76035 507.873395 
L 1031.761748 508.000207 
L 1035.763147 507.579463 
L 1039.764545 506.54109 
L 1043.765944 507.341031 
L 1047.767343 507.388779 
L 1051.768741 506.82541 
L 1055.77014 507.255456 
L 1063.772937 507.499779 
L 1067.774336 507.160269 
L 1071.775734 507.308475 
L 1075.777133 507.630932 
L 1079.778531 507.121822 
L 1083.77993 507.478075 
L 1087.781329 506.888661 
L 1091.782727 507.363975 
L 1091.782727 507.363975 
" clip-path="url(#p2e38018c6e)" style="fill: none; stroke: #1f77b4; stroke-width: 5; stroke-linecap: square"/>
   </g>
   <g id="line2d_16">
    <path d="M 103.437273 509.547999 
L 107.438671 510.249343 
L 111.44007 510.081913 
L 115.441469 510.241592 
L 119.442867 510.107338 
L 123.444266 509.270811 
L 127.445664 510.038196 
L 131.447063 509.148649 
L 135.448462 509.775579 
L 139.44986 508.788366 
L 147.452657 509.131906 
L 151.454056 508.849757 
L 155.455455 509.086638 
L 159.456853 508.564196 
L 163.458252 508.496914 
L 167.45965 508.846966 
L 171.461049 508.821232 
L 179.463846 508.055087 
L 183.465245 509.293755 
L 187.466643 507.749063 
L 191.468042 506.48373 
L 195.469441 503.891364 
L 199.470839 505.838817 
L 203.472238 504.260639 
L 207.473636 504.072126 
L 211.475035 504.424038 
L 215.476434 504.647587 
L 219.477832 504.190567 
L 223.479231 503.311252 
L 227.480629 504.879508 
L 231.482028 504.274591 
L 235.483427 506.179877 
L 239.484825 504.328231 
L 243.486224 504.355516 
L 247.487622 503.843926 
L 251.489021 504.426828 
L 255.49042 505.449388 
L 259.491818 507.353123 
L 263.493217 504.516124 
L 267.494615 504.858734 
L 271.496014 504.080187 
L 279.498811 504.997019 
L 283.50021 506.268862 
L 287.501608 504.576585 
L 291.503007 504.402334 
L 295.504406 506.82231 
L 299.505804 504.582476 
L 303.507203 504.474577 
L 307.508601 504.867726 
L 311.51 505.445978 
L 315.511399 505.737429 
L 319.512797 504.582166 
L 323.514196 504.484188 
L 327.515594 504.130726 
L 331.516993 506.479079 
L 335.518392 504.857804 
L 339.51979 505.079183 
L 343.521189 505.842847 
L 347.522587 505.438226 
L 351.523986 504.263119 
L 355.525385 507.025085 
L 359.526783 505.928112 
L 363.528182 506.324672 
L 371.530979 504.643556 
L 375.532378 504.564182 
L 379.533776 504.744944 
L 383.535175 505.869202 
L 387.536573 507.339171 
L 391.537972 504.710218 
L 395.539371 505.110188 
L 399.540769 504.592087 
L 403.542168 505.246923 
L 407.543566 505.534653 
L 411.544965 505.670147 
L 415.546364 504.015696 
L 419.547762 505.203205 
L 423.549161 504.759207 
L 427.550559 505.795099 
L 431.551958 505.817423 
L 435.553357 505.202585 
L 439.554755 505.056239 
L 443.556154 506.636277 
L 451.558951 504.789592 
L 455.56035 504.741534 
L 459.561748 506.430401 
L 463.563147 505.899587 
L 467.564545 504.224673 
L 471.565944 506.647439 
L 475.567343 505.331878 
L 479.568741 504.782151 
L 483.57014 505.219328 
L 487.571538 505.898657 
L 491.572937 505.028334 
L 495.574336 505.51853 
L 499.575734 504.557671 
L 503.577133 505.548606 
L 507.578531 505.152046 
L 511.57993 506.14298 
L 519.582727 505.501787 
L 523.584126 506.566825 
L 527.585524 505.293431 
L 531.586923 506.463887 
L 535.588322 505.842537 
L 539.58972 506.899513 
L 543.591119 506.610853 
L 547.592517 505.883465 
L 551.593916 505.283819 
L 555.595315 504.849743 
L 559.596713 505.740529 
L 567.59951 506.133989 
L 571.600909 506.887731 
L 575.602308 505.873543 
L 579.603706 506.919977 
L 583.605105 504.206379 
L 587.606503 505.131892 
L 591.607902 505.648133 
L 599.610699 505.151116 
L 603.612098 505.22987 
L 607.613497 506.745726 
L 611.614895 505.179951 
L 615.616294 504.926326 
L 619.617692 505.904238 
L 627.62049 504.511783 
L 631.621888 505.386757 
L 635.623287 505.607516 
L 639.624685 505.075152 
L 643.626084 505.939274 
L 647.627483 505.28847 
L 651.628881 506.694877 
L 655.63028 506.736735 
L 659.631678 505.896797 
L 663.633077 503.841755 
L 667.634476 505.895867 
L 671.635874 505.337458 
L 675.637273 506.452415 
L 679.638671 505.693091 
L 683.64007 505.937414 
L 687.641469 506.018028 
L 691.642867 505.833546 
L 695.644266 505.794169 
L 699.645664 505.294981 
L 707.648462 506.012447 
L 711.64986 505.212506 
L 715.651259 504.816877 
L 719.652657 505.11763 
L 723.654056 506.393814 
L 727.655455 505.580541 
L 731.656853 505.869822 
L 735.658252 506.685266 
L 739.65965 505.081043 
L 743.661049 505.955087 
L 747.662448 505.884085 
L 751.663846 505.057169 
L 755.665245 504.791142 
L 759.666643 504.899351 
L 763.668042 506.82169 
L 767.669441 505.795409 
L 771.670839 505.974621 
L 775.672238 505.044147 
L 783.675035 505.783317 
L 787.676434 505.608756 
L 791.677832 506.162824 
L 799.680629 504.924156 
L 807.683427 506.59752 
L 811.684825 505.768744 
L 815.686224 505.585192 
L 819.687622 505.021203 
L 823.689021 504.611001 
L 827.69042 505.680689 
L 831.691818 504.650998 
L 835.693217 504.433649 
L 843.696014 506.069187 
L 847.697413 505.369084 
L 851.698811 504.906793 
L 855.70021 506.214293 
L 859.701608 505.666736 
L 863.703007 506.374281 
L 867.704406 505.754792 
L 871.705804 505.929973 
L 875.707203 505.543645 
L 879.708601 505.707044 
L 883.71 505.420553 
L 887.711399 505.91323 
L 891.712797 505.929973 
L 895.714196 506.099573 
L 899.715594 505.774945 
L 903.716993 506.379862 
L 911.71979 505.523801 
L 915.721189 505.738049 
L 919.722587 504.796413 
L 923.723986 506.246228 
L 927.725385 505.282269 
L 931.726783 505.712314 
L 935.728182 505.63015 
L 939.72958 506.718131 
L 943.730979 505.330327 
L 947.732378 506.474119 
L 951.733776 505.585192 
L 955.735175 505.475743 
L 967.739371 506.191969 
L 975.742168 504.960122 
L 979.743566 506.191039 
L 983.744965 505.899587 
L 987.746364 504.990507 
L 995.749161 505.784247 
L 999.750559 505.926872 
L 1003.751958 506.276304 
L 1011.754755 505.854009 
L 1015.756154 505.284749 
L 1019.757552 506.551942 
L 1023.758951 505.605036 
L 1027.76035 506.71255 
L 1031.761748 506.787274 
L 1035.763147 506.354748 
L 1039.764545 505.090655 
L 1043.765944 506.077559 
L 1047.767343 506.107944 
L 1051.768741 505.427684 
L 1055.77014 505.884395 
L 1059.771538 505.936794 
L 1063.772937 506.218944 
L 1067.774336 506.021439 
L 1071.775734 506.015548 
L 1075.777133 506.334904 
L 1079.778531 505.734638 
L 1083.77993 506.351957 
L 1087.781329 505.627049 
L 1091.782727 505.937104 
L 1091.782727 505.937104 
" clip-path="url(#p2e38018c6e)" style="fill: none; stroke: #ff7f0e; stroke-width: 1.5; stroke-linecap: square"/>
   </g>
   <g id="line2d_17">
    <path d="M 103.437273 508.266544 
L 107.438671 508.776274 
L 111.44007 507.254836 
L 115.441469 509.010675 
L 119.442867 508.092293 
L 123.444266 506.205301 
L 127.445664 508.107486 
L 131.447063 506.055545 
L 135.448462 507.441179 
L 139.44986 503.835244 
L 143.451259 505.247543 
L 147.452657 505.069261 
L 151.454056 503.888574 
L 155.455455 504.931287 
L 159.456853 503.18506 
L 163.458252 504.340633 
L 167.45965 504.912994 
L 171.461049 503.277766 
L 175.462448 502.945077 
L 179.463846 500.577501 
L 183.465245 506.192899 
L 187.466643 500.930033 
L 191.468042 499.950881 
L 195.469441 493.7532 
L 199.470839 497.595396 
L 203.472238 494.37734 
L 207.473636 494.741964 
L 211.475035 494.596858 
L 215.476434 495.358972 
L 219.477832 494.617322 
L 223.479231 493.257423 
L 227.480629 496.459666 
L 231.482028 494.870326 
L 235.483427 498.637179 
L 239.484825 494.957452 
L 243.486224 494.632515 
L 247.487622 492.744282 
L 251.489021 495.542215 
L 255.49042 497.428587 
L 259.491818 501.403796 
L 263.493217 495.632131 
L 267.494615 495.320526 
L 271.496014 494.746925 
L 275.497413 495.632441 
L 279.498811 497.623301 
L 283.50021 499.011415 
L 287.501608 495.85692 
L 291.503007 495.496637 
L 295.504406 500.57192 
L 299.505804 495.416023 
L 303.507203 495.213867 
L 307.508601 495.40424 
L 311.51 496.854676 
L 315.511399 498.157835 
L 319.512797 496.358278 
L 323.514196 495.23061 
L 327.515594 494.579805 
L 331.516993 499.546879 
L 335.518392 495.447958 
L 339.51979 496.102793 
L 343.521189 498.004978 
L 347.522587 496.457806 
L 351.523986 495.134803 
L 355.525385 501.572776 
L 359.526783 498.379524 
L 363.528182 499.528896 
L 367.52958 497.376187 
L 371.530979 496.623685 
L 375.532378 495.474313 
L 379.533776 495.147515 
L 383.535175 497.914442 
L 387.536573 501.942051 
L 391.537972 496.246969 
L 395.539371 496.13876 
L 399.540769 495.425324 
L 403.542168 496.270843 
L 407.543566 496.087291 
L 411.544965 497.457732 
L 415.546364 495.264716 
L 419.547762 497.197286 
L 423.549161 492.659327 
L 427.550559 498.496725 
L 431.551958 498.261393 
L 435.553357 495.522371 
L 439.554755 495.641432 
L 443.556154 500.2321 
L 447.557552 497.849021 
L 451.558951 494.37734 
L 455.56035 494.346024 
L 459.561748 499.820038 
L 463.563147 498.307281 
L 467.564545 494.230374 
L 471.565944 500.134433 
L 475.567343 495.589343 
L 479.568741 494.212391 
L 483.57014 496.590199 
L 487.571538 498.008699 
L 491.572937 494.843042 
L 495.574336 496.998541 
L 499.575734 495.350291 
L 503.577133 497.472304 
L 507.578531 496.466797 
L 511.57993 497.911032 
L 515.581329 497.178063 
L 519.582727 496.293167 
L 523.584126 500.321086 
L 527.585524 496.796695 
L 531.586923 499.83182 
L 535.588322 498.276276 
L 539.58972 501.120096 
L 543.591119 500.043587 
L 547.592517 498.152254 
L 551.593916 496.777782 
L 555.595315 496.371611 
L 563.598112 498.678107 
L 567.59951 499.047072 
L 571.600909 500.888796 
L 575.602308 498.52618 
L 579.603706 500.787408 
L 583.605105 495.396799 
L 587.606503 496.114575 
L 591.607902 497.452771 
L 595.609301 497.149228 
L 599.610699 494.812966 
L 603.612098 496.341535 
L 607.613497 500.624319 
L 611.614895 496.250069 
L 615.616294 494.419197 
L 619.617692 499.022577 
L 623.619091 496.377192 
L 627.62049 496.011327 
L 631.621888 496.53842 
L 635.623287 496.115506 
L 639.624685 494.440591 
L 643.626084 498.230388 
L 647.627483 495.363933 
L 651.628881 501.040412 
L 655.63028 500.895307 
L 659.631678 497.411844 
L 663.633077 495.340369 
L 667.634476 497.076985 
L 671.635874 496.277974 
L 675.637273 499.700667 
L 679.638671 496.168525 
L 683.64007 499.014206 
L 687.641469 498.031953 
L 691.642867 498.333016 
L 695.644266 497.78763 
L 699.645664 496.457806 
L 703.647063 497.407813 
L 707.648462 499.003974 
L 711.64986 496.924748 
L 715.651259 493.459268 
L 719.652657 496.76755 
L 723.654056 499.567033 
L 727.655455 497.10613 
L 731.656853 497.908241 
L 735.658252 500.789888 
L 739.65965 496.400446 
L 743.661049 498.101405 
L 747.662448 498.623227 
L 751.663846 494.894821 
L 755.665245 495.442997 
L 759.666643 495.779096 
L 763.668042 501.287836 
L 767.669441 496.193949 
L 771.670839 497.252166 
L 775.672238 495.478033 
L 779.673636 497.246895 
L 783.675035 498.238759 
L 787.676434 497.204107 
L 791.677832 499.403014 
L 795.679231 496.856226 
L 799.680629 494.545389 
L 803.682028 498.194732 
L 807.683427 500.945846 
L 811.684825 497.000711 
L 815.686224 497.286892 
L 819.687622 495.964819 
L 823.689021 496.094112 
L 827.69042 497.90359 
L 831.691818 496.582448 
L 835.693217 496.075819 
L 839.694615 496.272083 
L 843.696014 498.522149 
L 847.697413 496.059696 
L 851.698811 495.846688 
L 855.70021 498.837785 
L 859.701608 497.841889 
L 863.703007 500.23086 
L 867.704406 498.417041 
L 871.705804 498.784145 
L 875.707203 497.053111 
L 879.708601 498.80833 
L 883.71 495.536014 
L 887.711399 499.024127 
L 891.712797 499.127686 
L 895.714196 499.907163 
L 899.715594 498.055207 
L 903.716993 499.760817 
L 907.718392 497.061172 
L 911.71979 496.232086 
L 915.721189 498.538272 
L 919.722587 495.620659 
L 923.723986 499.871507 
L 927.725385 497.124423 
L 931.726783 497.230462 
L 935.728182 498.026372 
L 939.72958 501.913836 
L 943.730979 496.82336 
L 947.732378 500.899958 
L 951.733776 497.590435 
L 955.735175 497.568421 
L 959.736573 497.78608 
L 963.737972 498.876542 
L 967.739371 499.162722 
L 971.740769 497.849331 
L 975.742168 495.873973 
L 979.743566 499.49417 
L 983.744965 497.897389 
L 987.746364 495.763904 
L 991.747762 495.276808 
L 995.749161 498.543853 
L 999.750559 499.289534 
L 1003.751958 500.148385 
L 1007.753357 499.43464 
L 1011.754755 498.345728 
L 1015.756154 497.015594 
L 1019.757552 502.058631 
L 1023.758951 497.514782 
L 1027.76035 500.852209 
L 1031.761748 501.48348 
L 1035.763147 499.953051 
L 1039.764545 496.405097 
L 1043.765944 498.561216 
L 1047.767343 498.995913 
L 1051.768741 496.283245 
L 1055.77014 499.234655 
L 1059.771538 498.653922 
L 1063.772937 499.913054 
L 1067.774336 498.839025 
L 1071.775734 499.394953 
L 1075.777133 500.878564 
L 1079.778531 499.09544 
L 1083.77993 500.870812 
L 1087.781329 499.15342 
L 1091.782727 500.356742 
L 1091.782727 500.356742 
" clip-path="url(#p2e38018c6e)" style="fill: none; stroke: #2ca02c; stroke-width: 1.5; stroke-linecap: square"/>
   </g>
   <g id="line2d_18">
    <path d="M 103.437273 453.840186 
L 107.438671 461.172046 
L 111.44007 450.087286 
L 115.441469 465.084005 
L 119.442867 448.74599 
L 123.444266 440.68054 
L 127.445664 454.751747 
L 131.447063 438.339008 
L 135.448462 455.369995 
L 139.44986 413.295901 
L 143.451259 423.696682 
L 147.452657 425.826446 
L 151.454056 419.260111 
L 155.455455 417.781151 
L 159.456853 396.833864 
L 163.458252 421.106176 
L 167.45965 421.155474 
L 171.461049 407.752126 
L 175.462448 408.258755 
L 179.463846 386.414171 
L 183.465245 432.063504 
L 187.466643 391.366672 
L 191.468042 376.568388 
L 195.469441 301.716566 
L 199.470839 353.648535 
L 203.472238 311.993324 
L 207.473636 306.507839 
L 211.475035 320.974985 
L 215.476434 328.294443 
L 219.477832 323.314036 
L 223.479231 303.815945 
L 227.480629 337.304628 
L 231.482028 321.725937 
L 235.483427 354.75977 
L 239.484825 326.397219 
L 243.486224 314.166497 
L 247.487622 315.754596 
L 251.489021 328.749293 
L 255.49042 342.675704 
L 259.491818 385.411144 
L 263.493217 331.990603 
L 267.494615 328.180033 
L 271.496014 317.42207 
L 275.497413 330.831929 
L 279.498811 338.121932 
L 283.50021 365.278061 
L 287.501608 326.360633 
L 291.503007 328.409783 
L 295.504406 378.62684 
L 299.505804 328.485436 
L 303.507203 333.267098 
L 307.508601 335.070995 
L 311.51 341.767554 
L 315.511399 353.375687 
L 319.512797 339.422921 
L 323.514196 329.406609 
L 327.515594 318.111941 
L 331.516993 367.703618 
L 335.518392 335.963022 
L 339.51979 336.199594 
L 343.521189 356.455148 
L 347.522587 335.395933 
L 351.523986 331.691091 
L 355.525385 383.310214 
L 359.526783 351.365913 
L 363.528182 373.597755 
L 367.52958 343.592225 
L 371.530979 339.380444 
L 375.532378 329.081671 
L 379.533776 333.603507 
L 383.535175 347.722772 
L 387.536573 396.690619 
L 391.537972 329.821462 
L 395.539371 335.634675 
L 399.540769 324.676726 
L 403.542168 341.330997 
L 407.543566 339.717473 
L 411.544965 345.642306 
L 415.546364 335.26571 
L 419.547762 343.270078 
L 423.549161 315.957992 
L 427.550559 351.582021 
L 431.551958 354.142141 
L 435.553357 325.862375 
L 439.554755 333.771867 
L 443.556154 377.064785 
L 447.557552 352.297317 
L 451.558951 334.957515 
L 455.56035 333.464913 
L 459.561748 387.045132 
L 463.563147 348.653246 
L 467.564545 326.215217 
L 471.565944 365.821277 
L 475.567343 325.55015 
L 479.568741 331.213296 
L 483.57014 339.401837 
L 487.571538 360.142007 
L 491.572937 329.774023 
L 495.574336 344.295739 
L 499.575734 324.028092 
L 503.577133 346.128781 
L 507.578531 343.212098 
L 511.57993 348.656346 
L 515.581329 339.576398 
L 519.582727 332.478319 
L 523.584126 374.76294 
L 527.585524 337.716071 
L 531.586923 364.868479 
L 535.588322 351.68899 
L 539.58972 385.100779 
L 543.591119 374.918898 
L 547.592517 347.88431 
L 551.593916 339.180459 
L 555.595315 339.523069 
L 559.596713 350.190186 
L 563.598112 353.171051 
L 567.59951 361.727936 
L 571.600909 381.640881 
L 575.602308 354.397006 
L 579.603706 375.67047 
L 583.605105 337.782112 
L 587.606503 340.729801 
L 591.607902 347.974846 
L 595.609301 341.559507 
L 599.610699 328.695963 
L 603.612098 341.209146 
L 607.613497 378.783728 
L 611.614895 337.900553 
L 615.616294 327.831531 
L 619.617692 363.383628 
L 623.619091 338.969001 
L 627.62049 334.106726 
L 631.621888 338.500819 
L 635.623287 338.606237 
L 639.624685 327.097632 
L 643.626084 349.403888 
L 647.627483 326.022363 
L 651.628881 378.951777 
L 655.63028 383.197975 
L 659.631678 341.056289 
L 663.633077 332.513355 
L 667.634476 344.893834 
L 671.635874 340.707787 
L 675.637273 359.75785 
L 679.638671 336.094485 
L 683.64007 366.999174 
L 687.641469 353.041448 
L 691.642867 350.467995 
L 695.644266 354.957275 
L 699.645664 335.004024 
L 703.647063 347.846484 
L 707.648462 353.691322 
L 711.64986 344.684237 
L 715.651259 323.297914 
L 719.652657 342.530908 
L 723.654056 367.14521 
L 727.655455 340.506562 
L 731.656853 350.068645 
L 735.658252 376.137722 
L 739.65965 339.405558 
L 743.661049 349.460007 
L 747.662448 350.959741 
L 751.663846 335.064484 
L 755.665245 340.66686 
L 759.666643 338.876605 
L 763.668042 387.803525 
L 767.669441 337.174405 
L 771.670839 343.989095 
L 775.672238 335.021697 
L 783.675035 355.122224 
L 787.676434 343.368986 
L 791.677832 358.780248 
L 795.679231 342.739885 
L 799.680629 332.857826 
L 803.682028 356.341979 
L 807.683427 385.126514 
L 811.684825 340.9518 
L 815.686224 348.766725 
L 819.687622 338.825446 
L 823.689021 337.306179 
L 827.69042 346.183661 
L 831.691818 345.442631 
L 835.693217 335.985036 
L 839.694615 339.739487 
L 843.696014 363.389209 
L 847.697413 339.172087 
L 851.698811 339.335796 
L 855.70021 363.074193 
L 859.701608 355.15881 
L 863.703007 381.945044 
L 867.704406 361.937223 
L 871.705804 356.965498 
L 875.707203 344.227527 
L 879.708601 351.80154 
L 883.71 313.763116 
L 887.711399 362.124806 
L 891.712797 358.975582 
L 895.714196 368.705094 
L 899.715594 347.820749 
L 903.716993 378.269967 
L 907.718392 340.120544 
L 911.71979 337.08759 
L 915.721189 352.662871 
L 919.722587 345.912983 
L 923.723986 361.971019 
L 927.725385 346.598204 
L 931.726783 341.701822 
L 935.728182 351.118489 
L 939.72958 394.70782 
L 943.730979 346.093125 
L 947.732378 386.555245 
L 951.733776 348.382568 
L 955.735175 343.057071 
L 959.736573 353.380957 
L 963.737972 355.928056 
L 967.739371 361.330136 
L 971.740769 345.027467 
L 975.742168 337.403536 
L 979.743566 366.271786 
L 983.744965 355.025177 
L 987.746364 338.159759 
L 991.747762 330.021447 
L 995.749161 359.207813 
L 999.750559 368.708195 
L 1003.751958 375.990446 
L 1007.753357 371.108327 
L 1011.754755 352.539159 
L 1015.756154 348.248934 
L 1019.757552 398.158107 
L 1023.758951 346.265515 
L 1027.76035 383.594224 
L 1031.761748 391.781215 
L 1035.763147 376.06703 
L 1039.764545 342.009396 
L 1043.765944 358.5105 
L 1047.767343 363.027685 
L 1051.768741 338.036667 
L 1055.77014 380.481897 
L 1059.771538 357.702188 
L 1063.772937 375.545828 
L 1067.774336 359.812729 
L 1071.775734 367.616493 
L 1075.777133 381.789087 
L 1079.778531 363.853981 
L 1083.77993 389.1966 
L 1087.781329 370.61472 
L 1091.782727 382.54438 
L 1091.782727 382.54438 
" clip-path="url(#p2e38018c6e)" style="fill: none; stroke: #d62728; stroke-width: 1.5; stroke-linecap: square"/>
   </g>
   <g id="line2d_19">
    <path d="M 103.437273 476.376502 
L 107.438671 476.202561 
L 115.441469 475.304953 
L 119.442867 475.160158 
L 131.447063 473.761192 
L 135.448462 470.956128 
L 143.451259 468.770243 
L 147.452657 465.995565 
L 151.454056 461.999892 
L 155.455455 459.003525 
L 159.456853 456.829112 
L 163.458252 452.618571 
L 167.45965 451.245029 
L 171.461049 450.919162 
L 175.462448 450.271458 
L 179.463846 449.99675 
L 183.465245 442.134386 
L 187.466643 405.523453 
L 191.468042 405.348583 
L 195.469441 383.486325 
L 199.470839 380.655837 
L 203.472238 376.386696 
L 207.473636 368.655485 
L 211.475035 365.401773 
L 215.476434 364.507576 
L 219.477832 363.746082 
L 223.479231 363.601906 
L 227.480629 360.863504 
L 231.482028 350.152669 
L 235.483427 348.700374 
L 239.484825 346.384266 
L 243.486224 343.519362 
L 247.487622 335.133006 
L 251.489021 331.28833 
L 259.491818 326.716265 
L 263.493217 325.433879 
L 267.494615 325.427988 
L 271.496014 324.776254 
L 275.497413 321.63261 
L 279.498811 320.445101 
L 283.50021 319.861579 
L 287.501608 319.854138 
L 291.503007 317.005356 
L 295.504406 308.002302 
L 299.505804 306.90967 
L 303.507203 306.782857 
L 307.508601 304.122589 
L 311.51 303.642625 
L 315.511399 303.542167 
L 319.512797 302.131729 
L 323.514196 301.088085 
L 327.515594 299.35364 
L 331.516993 296.79507 
L 335.518392 295.963813 
L 339.51979 292.07945 
L 347.522587 289.868761 
L 351.523986 289.75094 
L 355.525385 289.5215 
L 359.526783 283.845021 
L 363.528182 283.844401 
L 367.52958 283.433578 
L 371.530979 282.103134 
L 375.532378 281.17018 
L 379.533776 280.993449 
L 383.535175 280.632545 
L 391.537972 280.362488 
L 399.540769 278.530375 
L 403.542168 278.093509 
L 407.543566 275.832901 
L 415.546364 274.154575 
L 419.547762 273.748404 
L 423.549161 270.129757 
L 427.550559 270.094411 
L 431.551958 269.330126 
L 435.553357 268.997438 
L 439.554755 268.234084 
L 447.557552 267.98511 
L 451.558951 267.655832 
L 455.56035 266.629551 
L 459.561748 264.164307 
L 463.563147 263.564972 
L 467.564545 263.397542 
L 471.565944 262.683177 
L 479.568741 262.269564 
L 483.57014 260.274983 
L 487.571538 258.985156 
L 491.572937 258.15545 
L 495.574336 257.58898 
L 499.575734 257.562316 
L 503.577133 257.368841 
L 507.578531 256.273419 
L 515.581329 256.146296 
L 519.582727 255.147921 
L 523.584126 255.066996 
L 527.585524 253.844451 
L 531.586923 253.491609 
L 535.588322 250.507024 
L 539.58972 250.004115 
L 543.591119 249.68693 
L 551.593916 249.476403 
L 555.595315 249.184331 
L 563.598112 247.369582 
L 567.59951 246.417714 
L 571.600909 246.28098 
L 575.602308 245.88349 
L 579.603706 245.850935 
L 583.605105 245.206331 
L 587.606503 244.783107 
L 591.607902 243.931387 
L 595.609301 243.281512 
L 599.610699 243.274691 
L 603.612098 239.251113 
L 607.613497 238.329631 
L 611.614895 236.519532 
L 615.616294 235.843924 
L 619.617692 235.612003 
L 623.619091 235.53821 
L 627.62049 234.468832 
L 635.623287 234.254274 
L 639.624685 234.052118 
L 643.626084 233.568433 
L 647.627483 233.54952 
L 651.628881 233.304267 
L 655.63028 232.683227 
L 659.631678 232.389916 
L 663.633077 231.50223 
L 667.634476 231.484866 
L 671.635874 230.840573 
L 675.637273 229.110469 
L 679.638671 228.636705 
L 683.64007 227.823432 
L 687.641469 227.448266 
L 691.642867 226.73452 
L 699.645664 226.719018 
L 703.647063 226.497019 
L 707.648462 225.497403 
L 715.651259 224.607546 
L 719.652657 222.69854 
L 723.654056 222.404298 
L 727.655455 221.711016 
L 731.656853 221.666369 
L 735.658252 219.959828 
L 739.65965 219.935024 
L 743.661049 218.510633 
L 747.662448 218.510633 
L 751.663846 217.671936 
L 755.665245 216.281341 
L 759.666643 216.244134 
L 763.668042 215.804787 
L 771.670839 215.233667 
L 775.672238 213.226683 
L 779.673636 209.51316 
L 783.675035 206.766697 
L 787.676434 206.38967 
L 795.679231 206.278981 
L 799.680629 205.234717 
L 811.684825 204.23076 
L 815.686224 203.665221 
L 819.687622 203.331602 
L 823.689021 202.064099 
L 827.69042 201.552509 
L 831.691818 199.639472 
L 835.693217 199.304613 
L 839.694615 199.245703 
L 843.696014 199.006961 
L 847.697413 198.594588 
L 851.698811 197.072221 
L 855.70021 196.780769 
L 859.701608 193.078718 
L 863.703007 191.21529 
L 867.704406 190.821521 
L 879.708601 190.356439 
L 883.71 189.891357 
L 887.711399 189.764235 
L 891.712797 189.39527 
L 895.714196 189.184433 
L 899.715594 187.894606 
L 903.716993 187.844997 
L 907.718392 186.731901 
L 911.71979 186.657488 
L 915.721189 186.297825 
L 919.722587 186.254417 
L 923.723986 184.043728 
L 927.725385 183.386412 
L 931.726783 183.287195 
L 935.728182 181.860944 
L 943.730979 181.274941 
L 947.732378 180.484301 
L 951.733776 178.760398 
L 959.736573 178.456545 
L 963.737972 177.721715 
L 971.740769 177.265935 
L 975.742168 175.805578 
L 979.743566 175.213374 
L 983.744965 174.363824 
L 987.746364 174.075474 
L 991.747762 171.731461 
L 995.749161 167.927092 
L 999.750559 165.939642 
L 1003.751958 164.234342 
L 1007.753357 163.183257 
L 1011.754755 163.02823 
L 1015.756154 159.577322 
L 1019.757552 157.397639 
L 1023.758951 157.06278 
L 1027.76035 156.365157 
L 1031.761748 152.929752 
L 1035.763147 152.827434 
L 1039.764545 152.101907 
L 1043.765944 151.791852 
L 1047.767343 150.923699 
L 1051.768741 146.83718 
L 1055.77014 141.451533 
L 1059.771538 135.464379 
L 1063.772937 132.202605 
L 1067.774336 130.001218 
L 1071.775734 129.554739 
L 1075.777133 107.40134 
L 1079.778531 92.217969 
L 1083.77993 67.27718 
L 1087.781329 56.874849 
L 1091.782727 49.932727 
L 1091.782727 49.932727 
" clip-path="url(#p2e38018c6e)" style="fill: none; stroke: #9467bd; stroke-width: 5; stroke-linecap: square"/>
   </g>
   <g id="patch_3">
    <path d="M 54.02 534.04 
L 54.02 26.88 
" style="fill: none; stroke: #000000; stroke-width: 0.8; stroke-linejoin: miter; stroke-linecap: square"/>
   </g>
   <g id="patch_4">
    <path d="M 1141.2 534.04 
L 1141.2 26.88 
" style="fill: none; stroke: #000000; stroke-width: 0.8; stroke-linejoin: miter; stroke-linecap: square"/>
   </g>
   <g id="patch_5">
    <path d="M 54.02 534.04 
L 1141.2 534.04 
" style="fill: none; stroke: #000000; stroke-width: 0.8; stroke-linejoin: miter; stroke-linecap: square"/>
   </g>
   <g id="patch_6">
    <path d="M 54.02 26.88 
L 1141.2 26.88 
" style="fill: none; stroke: #000000; stroke-width: 0.8; stroke-linejoin: miter; stroke-linecap: square"/>
   </g>
   <g id="text_17">
    <!-- Encode times, CID22 set -->
    <g transform="translate(523.852188 20.88) scale(0.12 -0.12)">
     <defs>
      <path id="DejaVuSans-45" d="M 628 4666 
L 3578 4666 
L 3578 4134 
L 1259 4134 
L 1259 2753 
L 3481 2753 
L 3481 2222 
L 1259 2222 
L 1259 531 
L 3634 531 
L 3634 0 
L 628 0 
L 628 4666 
z
" transform="scale(0.015625)"/>
      <path id="DejaVuSans-74" d="M 1172 4494 
L 1172 3500 
L 2356 3500 
L 2356 3053 
L 1172 3053 
L 1172 1153 
Q 1172 725 1289 603 
Q 1406 481 1766 481 
L 2356 481 
L 2356 0 
L 1766 0 
Q 1100 0 847 248 
Q 594 497 594 1153 
L 594 3053 
L 172 3053 
L 172 3500 
L 594 3500 
L 594 4494 
L 1172 4494 
z
" transform="scale(0.015625)"/>
      <path id="DejaVuSans-2c" d="M 750 794 
L 1409 794 
L 1409 256 
L 897 -744 
L 494 -744 
L 750 256 
L 750 794 
z
" transform="scale(0.015625)"/>
      <path id="DejaVuSans-43" d="M 4122 4306 
L 4122 3641 
Q 3803 3938 3442 4084 
Q 3081 4231 2675 4231 
Q 1875 4231 1450 3742 
Q 1025 3253 1025 2328 
Q 1025 1406 1450 917 
Q 1875 428 2675 428 
Q 3081 428 3442 575 
Q 3803 722 4122 1019 
L 4122 359 
Q 3791 134 3420 21 
Q 3050 -91 2638 -91 
Q 1578 -91 968 557 
Q 359 1206 359 2328 
Q 359 3453 968 4101 
Q 1578 4750 2638 4750 
Q 3056 4750 3426 4639 
Q 3797 4528 4122 4306 
z
" transform="scale(0.015625)"/>
      <path id="DejaVuSans-49" d="M 628 4666 
L 1259 4666 
L 1259 0 
L 628 0 
L 628 4666 
z
" transform="scale(0.015625)"/>
      <path id="DejaVuSans-44" d="M 1259 4147 
L 1259 519 
L 2022 519 
Q 2988 519 3436 956 
Q 3884 1394 3884 2338 
Q 3884 3275 3436 3711 
Q 2988 4147 2022 4147 
L 1259 4147 
z
M 628 4666 
L 1925 4666 
Q 3281 4666 3915 4102 
Q 4550 3538 4550 2338 
Q 4550 1131 3912 565 
Q 3275 0 1925 0 
L 628 0 
L 628 4666 
z
" transform="scale(0.015625)"/>
     </defs>
     <use xlink:href="#DejaVuSans-45"/>
     <use xlink:href="#DejaVuSans-6e" x="63.183594"/>
     <use xlink:href="#DejaVuSans-63" x="126.5625"/>
     <use xlink:href="#DejaVuSans-6f" x="181.542969"/>
     <use xlink:href="#DejaVuSans-64" x="242.724609"/>
     <use xlink:href="#DejaVuSans-65" x="306.201172"/>
     <use xlink:href="#DejaVuSans-20" x="367.724609"/>
     <use xlink:href="#DejaVuSans-74" x="399.511719"/>
     <use xlink:href="#DejaVuSans-69" x="438.720703"/>
     <use xlink:href="#DejaVuSans-6d" x="466.503906"/>
     <use xlink:href="#DejaVuSans-65" x="563.916016"/>
     <use xlink:href="#DejaVuSans-73" x="625.439453"/>
     <use xlink:href="#DejaVuSans-2c" x="677.539062"/>
     <use xlink:href="#DejaVuSans-20" x="709.326172"/>
     <use xlink:href="#DejaVuSans-43" x="741.113281"/>
     <use xlink:href="#DejaVuSans-49" x="810.9375"/>
     <use xlink:href="#DejaVuSans-44" x="840.429688"/>
     <use xlink:href="#DejaVuSans-32" x="917.431641"/>
     <use xlink:href="#DejaVuSans-32" x="981.054688"/>
     <use xlink:href="#DejaVuSans-20" x="1044.677734"/>
     <use xlink:href="#DejaVuSans-73" x="1076.464844"/>
     <use xlink:href="#DejaVuSans-65" x="1128.564453"/>
     <use xlink:href="#DejaVuSans-74" x="1190.087891"/>
    </g>
   </g>
   <g id="legend_1">
    <g id="patch_7">
     <path d="M 61.02 108.270625 
L 189.393438 108.270625 
Q 191.393438 108.270625 191.393438 106.270625 
L 191.393438 33.88 
Q 191.393438 31.88 189.393438 31.88 
L 61.02 31.88 
Q 59.02 31.88 59.02 33.88 
L 59.02 106.270625 
Q 59.02 108.270625 61.02 108.270625 
z
" style="fill: #ffffff; opacity: 0.8; stroke: #cccccc; stroke-linejoin: miter"/>
    </g>
    <g id="line2d_20">
     <path d="M 63.02 39.978438 
L 73.02 39.978438 
L 83.02 39.978438 
" style="fill: none; stroke: #1f77b4; stroke-width: 5; stroke-linecap: square"/>
    </g>
    <g id="text_18">
     <!-- QB3 Fast -->
     <g transform="translate(91.02 43.478438) scale(0.1 -0.1)">
      <defs>
       <path id="DejaVuSans-51" d="M 2522 4238 
Q 1834 4238 1429 3725 
Q 1025 3213 1025 2328 
Q 1025 1447 1429 934 
Q 1834 422 2522 422 
Q 3209 422 3611 934 
Q 4013 1447 4013 2328 
Q 4013 3213 3611 3725 
Q 3209 4238 2522 4238 
z
M 3406 84 
L 4238 -825 
L 3475 -825 
L 2784 -78 
Q 2681 -84 2626 -87 
Q 2572 -91 2522 -91 
Q 1538 -91 948 567 
Q 359 1225 359 2328 
Q 359 3434 948 4092 
Q 1538 4750 2522 4750 
Q 3503 4750 4090 4092 
Q 4678 3434 4678 2328 
Q 4678 1516 4351 937 
Q 4025 359 3406 84 
z
" transform="scale(0.015625)"/>
       <path id="DejaVuSans-42" d="M 1259 2228 
L 1259 519 
L 2272 519 
Q 2781 519 3026 730 
Q 3272 941 3272 1375 
Q 3272 1813 3026 2020 
Q 2781 2228 2272 2228 
L 1259 2228 
z
M 1259 4147 
L 1259 2741 
L 2194 2741 
Q 2656 2741 2882 2914 
Q 3109 3088 3109 3444 
Q 3109 3797 2882 3972 
Q 2656 4147 2194 4147 
L 1259 4147 
z
M 628 4666 
L 2241 4666 
Q 2963 4666 3353 4366 
Q 3744 4066 3744 3513 
Q 3744 3084 3544 2831 
Q 3344 2578 2956 2516 
Q 3422 2416 3680 2098 
Q 3938 1781 3938 1306 
Q 3938 681 3513 340 
Q 3088 0 2303 0 
L 628 0 
L 628 4666 
z
" transform="scale(0.015625)"/>
       <path id="DejaVuSans-33" d="M 2597 2516 
Q 3050 2419 3304 2112 
Q 3559 1806 3559 1356 
Q 3559 666 3084 287 
Q 2609 -91 1734 -91 
Q 1441 -91 1130 -33 
Q 819 25 488 141 
L 488 750 
Q 750 597 1062 519 
Q 1375 441 1716 441 
Q 2309 441 2620 675 
Q 2931 909 2931 1356 
Q 2931 1769 2642 2001 
Q 2353 2234 1838 2234 
L 1294 2234 
L 1294 2753 
L 1863 2753 
Q 2328 2753 2575 2939 
Q 2822 3125 2822 3475 
Q 2822 3834 2567 4026 
Q 2313 4219 1838 4219 
Q 1578 4219 1281 4162 
Q 984 4106 628 3988 
L 628 4550 
Q 988 4650 1302 4700 
Q 1616 4750 1894 4750 
Q 2613 4750 3031 4423 
Q 3450 4097 3450 3541 
Q 3450 3153 3228 2886 
Q 3006 2619 2597 2516 
z
" transform="scale(0.015625)"/>
       <path id="DejaVuSans-61" d="M 2194 1759 
Q 1497 1759 1228 1600 
Q 959 1441 959 1056 
Q 959 750 1161 570 
Q 1363 391 1709 391 
Q 2188 391 2477 730 
Q 2766 1069 2766 1631 
L 2766 1759 
L 2194 1759 
z
M 3341 1997 
L 3341 0 
L 2766 0 
L 2766 531 
Q 2569 213 2275 61 
Q 1981 -91 1556 -91 
Q 1019 -91 701 211 
Q 384 513 384 1019 
Q 384 1609 779 1909 
Q 1175 2209 1959 2209 
L 2766 2209 
L 2766 2266 
Q 2766 2663 2505 2880 
Q 2244 3097 1772 3097 
Q 1472 3097 1187 3025 
Q 903 2953 641 2809 
L 641 3341 
Q 956 3463 1253 3523 
Q 1550 3584 1831 3584 
Q 2591 3584 2966 3190 
Q 3341 2797 3341 1997 
z
" transform="scale(0.015625)"/>
      </defs>
      <use xlink:href="#DejaVuSans-51"/>
      <use xlink:href="#DejaVuSans-42" x="78.710938"/>
      <use xlink:href="#DejaVuSans-33" x="147.314453"/>
      <use xlink:href="#DejaVuSans-20" x="210.9375"/>
      <use xlink:href="#DejaVuSans-46" x="242.724609"/>
      <use xlink:href="#DejaVuSans-61" x="291.119141"/>
      <use xlink:href="#DejaVuSans-73" x="352.398438"/>
      <use xlink:href="#DejaVuSans-74" x="404.498047"/>
     </g>
    </g>
    <g id="line2d_21">
     <path d="M 63.02 54.656563 
L 73.02 54.656563 
L 83.02 54.656563 
" style="fill: none; stroke: #ff7f0e; stroke-width: 1.5; stroke-linecap: square"/>
    </g>
    <g id="text_19">
     <!-- QB3 Base -->
     <g transform="translate(91.02 58.156563) scale(0.1 -0.1)">
      <use xlink:href="#DejaVuSans-51"/>
      <use xlink:href="#DejaVuSans-42" x="78.710938"/>
      <use xlink:href="#DejaVuSans-33" x="147.314453"/>
      <use xlink:href="#DejaVuSans-20" x="210.9375"/>
      <use xlink:href="#DejaVuSans-42" x="242.724609"/>
      <use xlink:href="#DejaVuSans-61" x="311.328125"/>
      <use xlink:href="#DejaVuSans-73" x="372.607422"/>
      <use xlink:href="#DejaVuSans-65" x="424.707031"/>
     </g>
    </g>
    <g id="line2d_22">
     <path d="M 63.02 69.334688 
L 73.02 69.334688 
L 83.02 69.334688 
" style="fill: none; stroke: #2ca02c; stroke-width: 1.5; stroke-linecap: square"/>
    </g>
    <g id="text_20">
     <!-- QB3 Best -->
     <g transform="translate(91.02 72.834688) scale(0.1 -0.1)">
      <use xlink:href="#DejaVuSans-51"/>
      <use xlink:href="#DejaVuSans-42" x="78.710938"/>
      <use xlink:href="#DejaVuSans-33" x="147.314453"/>
      <use xlink:href="#DejaVuSans-20" x="210.9375"/>
      <use xlink:href="#DejaVuSans-42" x="242.724609"/>
      <use xlink:href="#DejaVuSans-65" x="311.328125"/>
      <use xlink:href="#DejaVuSans-73" x="372.851562"/>
      <use xlink:href="#DejaVuSans-74" x="424.951172"/>
     </g>
    </g>
    <g id="line2d_23">
     <path d="M 63.02 84.012813 
L 73.02 84.012813 
L 83.02 84.012813 
" style="fill: none; stroke: #d62728; stroke-width: 1.5; stroke-linecap: square"/>
    </g>
    <g id="text_21">
     <!-- QB3 Best band mix -->
     <g transform="translate(91.02 87.512813) scale(0.1 -0.1)">
      <defs>
       <path id="DejaVuSans-78" d="M 3513 3500 
L 2247 1797 
L 3578 0 
L 2900 0 
L 1881 1375 
L 863 0 
L 184 0 
L 1544 1831 
L 300 3500 
L 978 3500 
L 1906 2253 
L 2834 3500 
L 3513 3500 
z
" transform="scale(0.015625)"/>
      </defs>
      <use xlink:href="#DejaVuSans-51"/>
      <use xlink:href="#DejaVuSans-42" x="78.710938"/>
      <use xlink:href="#DejaVuSans-33" x="147.314453"/>
      <use xlink:href="#DejaVuSans-20" x="210.9375"/>
      <use xlink:href="#DejaVuSans-42" x="242.724609"/>
      <use xlink:href="#DejaVuSans-65" x="311.328125"/>
      <use xlink:href="#DejaVuSans-73" x="372.851562"/>
      <use xlink:href="#DejaVuSans-74" x="424.951172"/>
      <use xlink:href="#DejaVuSans-20" x="464.160156"/>
      <use xlink:href="#DejaVuSans-62" x="495.947266"/>
      <use xlink:href="#DejaVuSans-61" x="559.423828"/>
      <use xlink:href="#DejaVuSans-6e" x="620.703125"/>
      <use xlink:href="#DejaVuSans-64" x="684.082031"/>
      <use xlink:href="#DejaVuSans-20" x="747.558594"/>
      <use xlink:href="#DejaVuSans-6d" x="779.345703"/>
      <use xlink:href="#DejaVuSans-69" x="876.757812"/>
      <use xlink:href="#DejaVuSans-78" x="904.541016"/>
     </g>
    </g>
    <g id="line2d_24">
     <path d="M 63.02 98.690938 
L 73.02 98.690938 
L 83.02 98.690938 
" style="fill: none; stroke: #9467bd; stroke-width: 5; stroke-linecap: square"/>
    </g>
    <g id="text_22">
     <!-- PNG encode -->
     <g transform="translate(91.02 102.190938) scale(0.1 -0.1)">
      <defs>
       <path id="DejaVuSans-50" d="M 1259 4147 
L 1259 2394 
L 2053 2394 
Q 2494 2394 2734 2622 
Q 2975 2850 2975 3272 
Q 2975 3691 2734 3919 
Q 2494 4147 2053 4147 
L 1259 4147 
z
M 628 4666 
L 2053 4666 
Q 2838 4666 3239 4311 
Q 3641 3956 3641 3272 
Q 3641 2581 3239 2228 
Q 2838 1875 2053 1875 
L 1259 1875 
L 1259 0 
L 628 0 
L 628 4666 
z
" transform="scale(0.015625)"/>
       <path id="DejaVuSans-4e" d="M 628 4666 
L 1478 4666 
L 3547 763 
L 3547 4666 
L 4159 4666 
L 4159 0 
L 3309 0 
L 1241 3903 
L 1241 0 
L 628 0 
L 628 4666 
z
" transform="scale(0.015625)"/>
       <path id="DejaVuSans-47" d="M 3809 666 
L 3809 1919 
L 2778 1919 
L 2778 2438 
L 4434 2438 
L 4434 434 
Q 4069 175 3628 42 
Q 3188 -91 2688 -91 
Q 1594 -91 976 548 
Q 359 1188 359 2328 
Q 359 3472 976 4111 
Q 1594 4750 2688 4750 
Q 3144 4750 3555 4637 
Q 3966 4525 4313 4306 
L 4313 3634 
Q 3963 3931 3569 4081 
Q 3175 4231 2741 4231 
Q 1884 4231 1454 3753 
Q 1025 3275 1025 2328 
Q 1025 1384 1454 906 
Q 1884 428 2741 428 
Q 3075 428 3337 486 
Q 3600 544 3809 666 
z
" transform="scale(0.015625)"/>
      </defs>
      <use xlink:href="#DejaVuSans-50"/>
      <use xlink:href="#DejaVuSans-4e" x="60.302734"/>
      <use xlink:href="#DejaVuSans-47" x="135.107422"/>
      <use xlink:href="#DejaVuSans-20" x="212.597656"/>
      <use xlink:href="#DejaVuSans-65" x="244.384766"/>
      <use xlink:href="#DejaVuSans-6e" x="305.908203"/>
      <use xlink:href="#DejaVuSans-63" x="369.287109"/>
      <use xlink:href="#DejaVuSans-6f" x="424.267578"/>
      <use xlink:href="#DejaVuSans-64" x="485.449219"/>
      <use xlink:href="#DejaVuSans-65" x="548.925781"/>
     </g>
    </g>
   </g>
  </g>
 </g>
 <defs>
  <clipPath id="p2e38018c6e">
   <rect x="54.02" y="26.88" width="1087.18" height="507.16"/>
  </clipPath>
 </defs>
</svg>
