<?xml version="1.0" encoding="utf-8" standalone="no"?>
<!DOCTYPE svg PUBLIC "-//W3C//DTD SVG 1.1//EN"
  "http://www.w3.org/Graphics/SVG/1.1/DTD/svg11.dtd">
<svg xmlns:xlink="http://www.w3.org/1999/xlink" width="1152pt" height="576pt" viewBox="0 0 1152 576" xmlns="http://www.w3.org/2000/svg" version="1.1">
 <metadata>
  <rdf:RDF xmlns:dc="http://purl.org/dc/elements/1.1/" xmlns:cc="http://creativecommons.org/ns#" xmlns:rdf="http://www.w3.org/1999/02/22-rdf-syntax-ns#">
   <cc:Work>
    <dc:type rdf:resource="http://purl.org/dc/dcmitype/StillImage"/>
    <dc:date>2025-12-09T17:08:06.950413</dc:date>
    <dc:format>image/svg+xml</dc:format>
    <dc:creator>
     <cc:Agent>
      <dc:title>Matplotlib v3.9.0, https://matplotlib.org/</dc:title>
     </cc:Agent>
    </dc:creator>
   </cc:Work>
  </rdf:RDF>
 </metadata>
 <defs>
  <style type="text/css">*{stroke-linejoin: round; stroke-linecap: butt}</style>
 </defs>
 <g id="figure_1">
  <g id="patch_1">
   <path d="M 0 576 
L 1152 576 
L 1152 0 
L 0 0 
z
" style="fill: #ffffff"/>
  </g>
  <g id="axes_1">
   <g id="patch_2">
    <path d="M 47.72 548.12 
L 1141.2 548.12 
L 1141.2 10.8 
L 47.72 10.8 
z
" style="fill: #ffffff"/>
   </g>
   <g id="matplotlib.axis_1">
    <g id="xtick_1">
     <g id="line2d_1">
      <defs>
       <path id="m2b4f2212b8" d="M 0 0 
L 0 3.5 
" style="stroke: #000000; stroke-width: 0.8"/>
      </defs>
      <g>
       <use xlink:href="#m2b4f2212b8" x="97.423636" y="548.12" style="stroke: #000000; stroke-width: 0.8"/>
      </g>
     </g>
     <g id="text_1">
      <!-- 0 -->
      <g transform="translate(94.242386 562.718437) scale(0.1 -0.1)">
       <defs>
        <path id="DejaVuSans-30" d="M 2034 4250 
Q 1547 4250 1301 3770 
Q 1056 3291 1056 2328 
Q 1056 1369 1301 889 
Q 1547 409 2034 409 
Q 2525 409 2770 889 
Q 3016 1369 3016 2328 
Q 3016 3291 2770 3770 
Q 2525 4250 2034 4250 
z
M 2034 4750 
Q 2819 4750 3233 4129 
Q 3647 3509 3647 2328 
Q 3647 1150 3233 529 
Q 2819 -91 2034 -91 
Q 1250 -91 836 529 
Q 422 1150 422 2328 
Q 422 3509 836 4129 
Q 1250 4750 2034 4750 
z
" transform="scale(0.015625)"/>
       </defs>
       <use xlink:href="#DejaVuSans-30"/>
      </g>
     </g>
    </g>
    <g id="xtick_2">
     <g id="line2d_2">
      <g>
       <use xlink:href="#m2b4f2212b8" x="298.652933" y="548.12" style="stroke: #000000; stroke-width: 0.8"/>
      </g>
     </g>
     <g id="text_2">
      <!-- 50 -->
      <g transform="translate(292.290433 562.718437) scale(0.1 -0.1)">
       <defs>
        <path id="DejaVuSans-35" d="M 691 4666 
L 3169 4666 
L 3169 4134 
L 1269 4134 
L 1269 2991 
Q 1406 3038 1543 3061 
Q 1681 3084 1819 3084 
Q 2600 3084 3056 2656 
Q 3513 2228 3513 1497 
Q 3513 744 3044 326 
Q 2575 -91 1722 -91 
Q 1428 -91 1123 -41 
Q 819 9 494 109 
L 494 744 
Q 775 591 1075 516 
Q 1375 441 1709 441 
Q 2250 441 2565 725 
Q 2881 1009 2881 1497 
Q 2881 1984 2565 2268 
Q 2250 2553 1709 2553 
Q 1456 2553 1204 2497 
Q 953 2441 691 2322 
L 691 4666 
z
" transform="scale(0.015625)"/>
       </defs>
       <use xlink:href="#DejaVuSans-35"/>
       <use xlink:href="#DejaVuSans-30" x="63.623047"/>
      </g>
     </g>
    </g>
    <g id="xtick_3">
     <g id="line2d_3">
      <g>
       <use xlink:href="#m2b4f2212b8" x="499.88223" y="548.12" style="stroke: #000000; stroke-width: 0.8"/>
      </g>
     </g>
     <g id="text_3">
      <!-- 100 -->
      <g transform="translate(490.33848 562.718437) scale(0.1 -0.1)">
       <defs>
        <path id="DejaVuSans-31" d="M 794 531 
L 1825 531 
L 1825 4091 
L 703 3866 
L 703 4441 
L 1819 4666 
L 2450 4666 
L 2450 531 
L 3481 531 
L 3481 0 
L 794 0 
L 794 531 
z
" transform="scale(0.015625)"/>
       </defs>
       <use xlink:href="#DejaVuSans-31"/>
       <use xlink:href="#DejaVuSans-30" x="63.623047"/>
       <use xlink:href="#DejaVuSans-30" x="127.246094"/>
      </g>
     </g>
    </g>
    <g id="xtick_4">
     <g id="line2d_4">
      <g>
       <use xlink:href="#m2b4f2212b8" x="701.111527" y="548.12" style="stroke: #000000; stroke-width: 0.8"/>
      </g>
     </g>
     <g id="text_4">
      <!-- 150 -->
      <g transform="translate(691.567777 562.718437) scale(0.1 -0.1)">
       <use xlink:href="#DejaVuSans-31"/>
       <use xlink:href="#DejaVuSans-35" x="63.623047"/>
       <use xlink:href="#DejaVuSans-30" x="127.246094"/>
      </g>
     </g>
    </g>
    <g id="xtick_5">
     <g id="line2d_5">
      <g>
       <use xlink:href="#m2b4f2212b8" x="902.340824" y="548.12" style="stroke: #000000; stroke-width: 0.8"/>
      </g>
     </g>
     <g id="text_5">
      <!-- 200 -->
      <g transform="translate(892.797074 562.718437) scale(0.1 -0.1)">
       <defs>
        <path id="DejaVuSans-32" d="M 1228 531 
L 3431 531 
L 3431 0 
L 469 0 
L 469 531 
Q 828 903 1448 1529 
Q 2069 2156 2228 2338 
Q 2531 2678 2651 2914 
Q 2772 3150 2772 3378 
Q 2772 3750 2511 3984 
Q 2250 4219 1831 4219 
Q 1534 4219 1204 4116 
Q 875 4013 500 3803 
L 500 4441 
Q 881 4594 1212 4672 
Q 1544 4750 1819 4750 
Q 2544 4750 2975 4387 
Q 3406 4025 3406 3419 
Q 3406 3131 3298 2873 
Q 3191 2616 2906 2266 
Q 2828 2175 2409 1742 
Q 1991 1309 1228 531 
z
" transform="scale(0.015625)"/>
       </defs>
       <use xlink:href="#DejaVuSans-32"/>
       <use xlink:href="#DejaVuSans-30" x="63.623047"/>
       <use xlink:href="#DejaVuSans-30" x="127.246094"/>
      </g>
     </g>
    </g>
    <g id="xtick_6">
     <g id="line2d_6">
      <g>
       <use xlink:href="#m2b4f2212b8" x="1103.570121" y="548.12" style="stroke: #000000; stroke-width: 0.8"/>
      </g>
     </g>
     <g id="text_6">
      <!-- 250 -->
      <g transform="translate(1094.026371 562.718437) scale(0.1 -0.1)">
       <use xlink:href="#DejaVuSans-32"/>
       <use xlink:href="#DejaVuSans-35" x="63.623047"/>
       <use xlink:href="#DejaVuSans-30" x="127.246094"/>
      </g>
     </g>
    </g>
   </g>
   <g id="matplotlib.axis_2">
    <g id="ytick_1">
     <g id="line2d_7">
      <defs>
       <path id="m8bc2429a6c" d="M 0 0 
L -3.5 0 
" style="stroke: #000000; stroke-width: 0.8"/>
      </defs>
      <g>
       <use xlink:href="#m8bc2429a6c" x="47.72" y="548.12" style="stroke: #000000; stroke-width: 0.8"/>
      </g>
     </g>
     <g id="text_7">
      <!-- 0.0 -->
      <g transform="translate(24.816875 551.919219) scale(0.1 -0.1)">
       <defs>
        <path id="DejaVuSans-2e" d="M 684 794 
L 1344 794 
L 1344 0 
L 684 0 
L 684 794 
z
" transform="scale(0.015625)"/>
       </defs>
       <use xlink:href="#DejaVuSans-30"/>
       <use xlink:href="#DejaVuSans-2e" x="63.623047"/>
       <use xlink:href="#DejaVuSans-30" x="95.410156"/>
      </g>
     </g>
    </g>
    <g id="ytick_2">
     <g id="line2d_8">
      <g>
       <use xlink:href="#m8bc2429a6c" x="47.72" y="487.400318" style="stroke: #000000; stroke-width: 0.8"/>
      </g>
     </g>
     <g id="text_8">
      <!-- 0.5 -->
      <g transform="translate(24.816875 491.199537) scale(0.1 -0.1)">
       <use xlink:href="#DejaVuSans-30"/>
       <use xlink:href="#DejaVuSans-2e" x="63.623047"/>
       <use xlink:href="#DejaVuSans-35" x="95.410156"/>
      </g>
     </g>
    </g>
    <g id="ytick_3">
     <g id="line2d_9">
      <g>
       <use xlink:href="#m8bc2429a6c" x="47.72" y="426.680637" style="stroke: #000000; stroke-width: 0.8"/>
      </g>
     </g>
     <g id="text_9">
      <!-- 1.0 -->
      <g transform="translate(24.816875 430.479855) scale(0.1 -0.1)">
       <use xlink:href="#DejaVuSans-31"/>
       <use xlink:href="#DejaVuSans-2e" x="63.623047"/>
       <use xlink:href="#DejaVuSans-30" x="95.410156"/>
      </g>
     </g>
    </g>
    <g id="ytick_4">
     <g id="line2d_10">
      <g>
       <use xlink:href="#m8bc2429a6c" x="47.72" y="365.960955" style="stroke: #000000; stroke-width: 0.8"/>
      </g>
     </g>
     <g id="text_10">
      <!-- 1.5 -->
      <g transform="translate(24.816875 369.760174) scale(0.1 -0.1)">
       <use xlink:href="#DejaVuSans-31"/>
       <use xlink:href="#DejaVuSans-2e" x="63.623047"/>
       <use xlink:href="#DejaVuSans-35" x="95.410156"/>
      </g>
     </g>
    </g>
    <g id="ytick_5">
     <g id="line2d_11">
      <g>
       <use xlink:href="#m8bc2429a6c" x="47.72" y="305.241273" style="stroke: #000000; stroke-width: 0.8"/>
      </g>
     </g>
     <g id="text_11">
      <!-- 2.0 -->
      <g transform="translate(24.816875 309.040492) scale(0.1 -0.1)">
       <use xlink:href="#DejaVuSans-32"/>
       <use xlink:href="#DejaVuSans-2e" x="63.623047"/>
       <use xlink:href="#DejaVuSans-30" x="95.410156"/>
      </g>
     </g>
    </g>
    <g id="ytick_6">
     <g id="line2d_12">
      <g>
       <use xlink:href="#m8bc2429a6c" x="47.72" y="244.521592" style="stroke: #000000; stroke-width: 0.8"/>
      </g>
     </g>
     <g id="text_12">
      <!-- 2.5 -->
      <g transform="translate(24.816875 248.32081) scale(0.1 -0.1)">
       <use xlink:href="#DejaVuSans-32"/>
       <use xlink:href="#DejaVuSans-2e" x="63.623047"/>
       <use xlink:href="#DejaVuSans-35" x="95.410156"/>
      </g>
     </g>
    </g>
    <g id="ytick_7">
     <g id="line2d_13">
      <g>
       <use xlink:href="#m8bc2429a6c" x="47.72" y="183.80191" style="stroke: #000000; stroke-width: 0.8"/>
      </g>
     </g>
     <g id="text_13">
      <!-- 3.0 -->
      <g transform="translate(24.816875 187.601129) scale(0.1 -0.1)">
       <defs>
        <path id="DejaVuSans-33" d="M 2597 2516 
Q 3050 2419 3304 2112 
Q 3559 1806 3559 1356 
Q 3559 666 3084 287 
Q 2609 -91 1734 -91 
Q 1441 -91 1130 -33 
Q 819 25 488 141 
L 488 750 
Q 750 597 1062 519 
Q 1375 441 1716 441 
Q 2309 441 2620 675 
Q 2931 909 2931 1356 
Q 2931 1769 2642 2001 
Q 2353 2234 1838 2234 
L 1294 2234 
L 1294 2753 
L 1863 2753 
Q 2328 2753 2575 2939 
Q 2822 3125 2822 3475 
Q 2822 3834 2567 4026 
Q 2313 4219 1838 4219 
Q 1578 4219 1281 4162 
Q 984 4106 628 3988 
L 628 4550 
Q 988 4650 1302 4700 
Q 1616 4750 1894 4750 
Q 2613 4750 3031 4423 
Q 3450 4097 3450 3541 
Q 3450 3153 3228 2886 
Q 3006 2619 2597 2516 
z
" transform="scale(0.015625)"/>
       </defs>
       <use xlink:href="#DejaVuSans-33"/>
       <use xlink:href="#DejaVuSans-2e" x="63.623047"/>
       <use xlink:href="#DejaVuSans-30" x="95.410156"/>
      </g>
     </g>
    </g>
    <g id="ytick_8">
     <g id="line2d_14">
      <g>
       <use xlink:href="#m8bc2429a6c" x="47.72" y="123.082228" style="stroke: #000000; stroke-width: 0.8"/>
      </g>
     </g>
     <g id="text_14">
      <!-- 3.5 -->
      <g transform="translate(24.816875 126.881447) scale(0.1 -0.1)">
       <use xlink:href="#DejaVuSans-33"/>
       <use xlink:href="#DejaVuSans-2e" x="63.623047"/>
       <use xlink:href="#DejaVuSans-35" x="95.410156"/>
      </g>
     </g>
    </g>
    <g id="ytick_9">
     <g id="line2d_15">
      <g>
       <use xlink:href="#m8bc2429a6c" x="47.72" y="62.362546" style="stroke: #000000; stroke-width: 0.8"/>
      </g>
     </g>
     <g id="text_15">
      <!-- 4.0 -->
      <g transform="translate(24.816875 66.161765) scale(0.1 -0.1)">
       <defs>
        <path id="DejaVuSans-34" d="M 2419 4116 
L 825 1625 
L 2419 1625 
L 2419 4116 
z
M 2253 4666 
L 3047 4666 
L 3047 1625 
L 3713 1625 
L 3713 1100 
L 3047 1100 
L 3047 0 
L 2419 0 
L 2419 1100 
L 313 1100 
L 313 1709 
L 2253 4666 
z
" transform="scale(0.015625)"/>
       </defs>
       <use xlink:href="#DejaVuSans-34"/>
       <use xlink:href="#DejaVuSans-2e" x="63.623047"/>
       <use xlink:href="#DejaVuSans-30" x="95.410156"/>
      </g>
     </g>
    </g>
    <g id="text_16">
     <!-- milliseconds -->
     <g transform="translate(18.737187 310.324063) rotate(-90) scale(0.1 -0.1)">
      <defs>
       <path id="DejaVuSans-6d" d="M 3328 2828 
Q 3544 3216 3844 3400 
Q 4144 3584 4550 3584 
Q 5097 3584 5394 3201 
Q 5691 2819 5691 2113 
L 5691 0 
L 5113 0 
L 5113 2094 
Q 5113 2597 4934 2840 
Q 4756 3084 4391 3084 
Q 3944 3084 3684 2787 
Q 3425 2491 3425 1978 
L 3425 0 
L 2847 0 
L 2847 2094 
Q 2847 2600 2669 2842 
Q 2491 3084 2119 3084 
Q 1678 3084 1418 2786 
Q 1159 2488 1159 1978 
L 1159 0 
L 581 0 
L 581 3500 
L 1159 3500 
L 1159 2956 
Q 1356 3278 1631 3431 
Q 1906 3584 2284 3584 
Q 2666 3584 2933 3390 
Q 3200 3197 3328 2828 
z
" transform="scale(0.015625)"/>
       <path id="DejaVuSans-69" d="M 603 3500 
L 1178 3500 
L 1178 0 
L 603 0 
L 603 3500 
z
M 603 4863 
L 1178 4863 
L 1178 4134 
L 603 4134 
L 603 4863 
z
" transform="scale(0.015625)"/>
       <path id="DejaVuSans-6c" d="M 603 4863 
L 1178 4863 
L 1178 0 
L 603 0 
L 603 4863 
z
" transform="scale(0.015625)"/>
       <path id="DejaVuSans-73" d="M 2834 3397 
L 2834 2853 
Q 2591 2978 2328 3040 
Q 2066 3103 1784 3103 
Q 1356 3103 1142 2972 
Q 928 2841 928 2578 
Q 928 2378 1081 2264 
Q 1234 2150 1697 2047 
L 1894 2003 
Q 2506 1872 2764 1633 
Q 3022 1394 3022 966 
Q 3022 478 2636 193 
Q 2250 -91 1575 -91 
Q 1294 -91 989 -36 
Q 684 19 347 128 
L 347 722 
Q 666 556 975 473 
Q 1284 391 1588 391 
Q 1994 391 2212 530 
Q 2431 669 2431 922 
Q 2431 1156 2273 1281 
Q 2116 1406 1581 1522 
L 1381 1569 
Q 847 1681 609 1914 
Q 372 2147 372 2553 
Q 372 3047 722 3315 
Q 1072 3584 1716 3584 
Q 2034 3584 2315 3537 
Q 2597 3491 2834 3397 
z
" transform="scale(0.015625)"/>
       <path id="DejaVuSans-65" d="M 3597 1894 
L 3597 1613 
L 953 1613 
Q 991 1019 1311 708 
Q 1631 397 2203 397 
Q 2534 397 2845 478 
Q 3156 559 3463 722 
L 3463 178 
Q 3153 47 2828 -22 
Q 2503 -91 2169 -91 
Q 1331 -91 842 396 
Q 353 884 353 1716 
Q 353 2575 817 3079 
Q 1281 3584 2069 3584 
Q 2775 3584 3186 3129 
Q 3597 2675 3597 1894 
z
M 3022 2063 
Q 3016 2534 2758 2815 
Q 2500 3097 2075 3097 
Q 1594 3097 1305 2825 
Q 1016 2553 972 2059 
L 3022 2063 
z
" transform="scale(0.015625)"/>
       <path id="DejaVuSans-63" d="M 3122 3366 
L 3122 2828 
Q 2878 2963 2633 3030 
Q 2388 3097 2138 3097 
Q 1578 3097 1268 2742 
Q 959 2388 959 1747 
Q 959 1106 1268 751 
Q 1578 397 2138 397 
Q 2388 397 2633 464 
Q 2878 531 3122 666 
L 3122 134 
Q 2881 22 2623 -34 
Q 2366 -91 2075 -91 
Q 1284 -91 818 406 
Q 353 903 353 1747 
Q 353 2603 823 3093 
Q 1294 3584 2113 3584 
Q 2378 3584 2631 3529 
Q 2884 3475 3122 3366 
z
" transform="scale(0.015625)"/>
       <path id="DejaVuSans-6f" d="M 1959 3097 
Q 1497 3097 1228 2736 
Q 959 2375 959 1747 
Q 959 1119 1226 758 
Q 1494 397 1959 397 
Q 2419 397 2687 759 
Q 2956 1122 2956 1747 
Q 2956 2369 2687 2733 
Q 2419 3097 1959 3097 
z
M 1959 3584 
Q 2709 3584 3137 3096 
Q 3566 2609 3566 1747 
Q 3566 888 3137 398 
Q 2709 -91 1959 -91 
Q 1206 -91 779 398 
Q 353 888 353 1747 
Q 353 2609 779 3096 
Q 1206 3584 1959 3584 
z
" transform="scale(0.015625)"/>
       <path id="DejaVuSans-6e" d="M 3513 2113 
L 3513 0 
L 2938 0 
L 2938 2094 
Q 2938 2591 2744 2837 
Q 2550 3084 2163 3084 
Q 1697 3084 1428 2787 
Q 1159 2491 1159 1978 
L 1159 0 
L 581 0 
L 581 3500 
L 1159 3500 
L 1159 2956 
Q 1366 3272 1645 3428 
Q 1925 3584 2291 3584 
Q 2894 3584 3203 3211 
Q 3513 2838 3513 2113 
z
" transform="scale(0.015625)"/>
       <path id="DejaVuSans-64" d="M 2906 2969 
L 2906 4863 
L 3481 4863 
L 3481 0 
L 2906 0 
L 2906 525 
Q 2725 213 2448 61 
Q 2172 -91 1784 -91 
Q 1150 -91 751 415 
Q 353 922 353 1747 
Q 353 2572 751 3078 
Q 1150 3584 1784 3584 
Q 2172 3584 2448 3432 
Q 2725 3281 2906 2969 
z
M 947 1747 
Q 947 1113 1208 752 
Q 1469 391 1925 391 
Q 2381 391 2643 752 
Q 2906 1113 2906 1747 
Q 2906 2381 2643 2742 
Q 2381 3103 1925 3103 
Q 1469 3103 1208 2742 
Q 947 2381 947 1747 
z
" transform="scale(0.015625)"/>
      </defs>
      <use xlink:href="#DejaVuSans-6d"/>
      <use xlink:href="#DejaVuSans-69" x="97.412109"/>
      <use xlink:href="#DejaVuSans-6c" x="125.195312"/>
      <use xlink:href="#DejaVuSans-6c" x="152.978516"/>
      <use xlink:href="#DejaVuSans-69" x="180.761719"/>
      <use xlink:href="#DejaVuSans-73" x="208.544922"/>
      <use xlink:href="#DejaVuSans-65" x="260.644531"/>
      <use xlink:href="#DejaVuSans-63" x="322.167969"/>
      <use xlink:href="#DejaVuSans-6f" x="377.148438"/>
      <use xlink:href="#DejaVuSans-6e" x="438.330078"/>
      <use xlink:href="#DejaVuSans-64" x="501.708984"/>
      <use xlink:href="#DejaVuSans-73" x="565.185547"/>
     </g>
    </g>
   </g>
   <g id="line2d_16">
    <path d="M 97.423636 387.006397 
L 101.448222 384.031132 
L 105.472808 375.991846 
L 109.497394 375.931127 
L 113.52198 373.308036 
L 117.546566 367.308932 
L 121.571152 361.722721 
L 125.595738 360.872646 
L 129.620324 357.933813 
L 133.64491 355.432162 
L 137.669496 354.521367 
L 141.694082 352.821216 
L 145.718668 351.910421 
L 149.743254 347.562891 
L 153.76784 347.490028 
L 157.792425 346.967839 
L 161.817011 346.020611 
L 165.841597 344.915513 
L 169.866183 334.544592 
L 173.890769 317.166619 
L 177.915355 309.868113 
L 181.939941 278.051 
L 185.964527 269.780979 
L 189.989113 242.906448 
L 194.013699 222.893241 
L 198.038285 221.824575 
L 202.062871 213.469546 
L 206.087457 211.757251 
L 210.112043 211.295782 
L 214.136629 195.55724 
L 218.161215 195.180778 
L 222.185801 191.367582 
L 226.210386 191.294719 
L 230.234972 189.558136 
L 234.259558 189.327401 
L 238.284144 188.440894 
L 242.30873 186.874326 
L 250.357902 185.963531 
L 258.407074 183.085418 
L 262.43166 181.445986 
L 266.456246 181.239539 
L 270.480832 180.547335 
L 274.505418 179.612252 
L 278.530004 176.855578 
L 282.55459 176.199806 
L 286.579176 175.0097 
L 290.603762 174.511799 
L 294.628347 172.872367 
L 298.652933 171.378663 
L 302.677519 171.24508 
L 306.702105 170.747178 
L 310.726691 169.180611 
L 314.751277 168.124088 
L 322.800449 167.371164 
L 326.825035 165.926036 
L 330.849621 164.784506 
L 334.874207 163.400097 
L 338.898793 162.707892 
L 342.923379 160.206242 
L 346.947965 160.084802 
L 350.972551 159.550469 
L 354.997137 158.117485 
L 359.021722 157.789598 
L 363.046308 157.728879 
L 367.070894 157.510288 
L 371.09548 157.437424 
L 375.120066 156.465909 
L 379.144652 156.235174 
L 383.169238 155.020781 
L 391.21841 154.06141 
L 395.242996 153.308486 
L 399.267582 152.883448 
L 403.292168 152.640569 
L 411.34134 151.31688 
L 419.390512 150.782547 
L 423.415098 150.11463 
L 427.439683 148.766654 
L 431.464269 147.710131 
L 435.488855 147.357957 
L 439.513441 147.333669 
L 443.538027 146.787192 
L 447.562613 146.459306 
L 451.587199 146.325722 
L 455.611785 145.682094 
L 459.636371 145.378495 
L 463.660957 144.722723 
L 467.685543 144.613427 
L 471.710129 144.236965 
L 475.734715 143.994087 
L 479.759301 142.755405 
L 487.808473 141.796034 
L 491.833059 141.480292 
L 499.88223 139.172944 
L 507.931402 137.266346 
L 511.955988 137.266346 
L 515.980574 137.096331 
L 520.00516 136.671293 
L 524.029746 136.53771 
L 528.054332 135.578339 
L 532.078918 134.910422 
L 536.103504 134.060347 
L 540.12809 133.79318 
L 544.152676 133.149551 
L 548.177262 133.137407 
L 552.201848 132.542355 
L 556.226434 132.481635 
L 560.25102 132.153749 
L 568.300191 131.728711 
L 572.324777 131.194378 
L 576.349363 131.072938 
L 580.373949 130.575037 
L 584.398535 130.356446 
L 592.447707 130.198575 
L 596.472293 130.101423 
L 600.496879 129.68853 
L 604.521465 129.044901 
L 608.546051 129.032757 
L 612.570637 126.725409 
L 616.595223 126.54325 
L 624.644395 126.470386 
L 628.66898 126.118212 
L 632.693566 126.093924 
L 636.718152 125.535303 
L 640.742738 124.770235 
L 644.767324 124.758091 
L 648.79191 124.029455 
L 656.841082 123.786576 
L 660.865668 123.203668 
L 664.890254 122.936501 
L 668.91484 122.839349 
L 672.939426 122.462887 
L 676.964012 122.353592 
L 680.988598 120.957039 
L 685.013184 120.89632 
L 689.03777 120.641297 
L 693.062356 120.228403 
L 697.086941 120.204115 
L 701.111527 119.961237 
L 705.136113 119.402615 
L 709.160699 119.01401 
L 713.185285 118.21251 
L 717.209871 118.042495 
L 725.259043 116.706662 
L 729.283629 115.552988 
L 737.332801 114.690768 
L 741.357387 114.423602 
L 749.406559 114.205011 
L 753.431145 113.804261 
L 757.455731 113.658534 
L 761.480317 113.330647 
L 773.554074 113.160632 
L 777.57866 112.929897 
L 781.603246 112.091966 
L 785.627832 110.367527 
L 793.677004 109.651035 
L 797.70159 109.541739 
L 801.726176 108.764527 
L 805.750762 107.622997 
L 809.775348 107.173672 
L 821.849106 106.687914 
L 825.873692 106.469323 
L 829.898278 106.39646 
L 833.922863 105.813551 
L 837.947449 105.376369 
L 841.972035 105.291361 
L 845.996621 104.963475 
L 850.021207 104.914899 
L 854.045793 103.275468 
L 858.070379 102.498256 
L 862.094965 102.182514 
L 866.119551 101.988211 
L 874.168723 101.223143 
L 878.193309 100.56737 
L 882.217895 99.693007 
L 886.242481 99.255825 
L 890.267067 99.219393 
L 894.291653 98.830787 
L 898.316238 98.090007 
L 906.36541 97.871416 
L 910.389996 96.839182 
L 914.414582 96.12269 
L 918.439168 94.386107 
L 926.48834 94.301099 
L 930.512926 92.260918 
L 934.537512 91.763016 
L 938.562098 91.750872 
L 942.586684 90.815789 
L 954.660442 89.528532 
L 958.685028 86.966162 
L 962.709614 85.38745 
L 966.734199 85.120283 
L 970.758785 84.64667 
L 974.783371 84.294496 
L 986.857129 84.003041 
L 990.881715 82.278602 
L 994.906301 82.084299 
L 998.930887 81.44067 
L 1006.980059 80.772754 
L 1011.004645 79.206186 
L 1015.029231 78.319679 
L 1019.053817 75.890892 
L 1023.078403 75.004384 
L 1035.15216 74.785793 
L 1039.176746 73.923574 
L 1047.225918 73.377097 
L 1051.250504 72.393438 
L 1055.27509 72.357006 
L 1059.299676 71.931968 
L 1063.324262 71.701234 
L 1067.348848 69.612476 
L 1071.373434 64.77919 
L 1075.39802 63.042607 
L 1079.422606 57.055646 
L 1083.447192 56.26629 
L 1087.471778 45.142445 
L 1091.496364 36.386667 
L 1091.496364 36.386667 
" clip-path="url(#p4dc7efd15d)" style="fill: none; stroke: #1f77b4; stroke-width: 5; stroke-linecap: square"/>
   </g>
   <g id="line2d_17">
    <path d="M 97.423636 317.458073 
L 101.448222 310.463166 
L 105.472808 318.00455 
L 109.497394 313.426286 
L 113.52198 313.462718 
L 117.546566 319.14608 
L 121.571152 308.544424 
L 125.595738 317.943831 
L 129.620324 319.643982 
L 133.64491 312.01759 
L 137.669496 309.200196 
L 141.694082 310.256719 
L 145.718668 305.690599 
L 149.743254 312.345476 
L 153.76784 307.742924 
L 157.792425 310.75462 
L 161.817011 304.536925 
L 165.841597 301.792395 
L 169.866183 305.78775 
L 173.890769 302.411736 
L 177.915355 305.872758 
L 181.939941 295.003935 
L 185.964527 291.34861 
L 189.989113 281.973491 
L 194.013699 290.134216 
L 198.038285 285.738111 
L 202.062871 281.779188 
L 206.087457 285.750255 
L 210.112043 277.65025 
L 214.136629 282.27709 
L 218.161215 281.657749 
L 222.185801 281.742756 
L 226.210386 286.236013 
L 230.234972 282.884286 
L 234.259558 285.288786 
L 238.284144 282.945006 
L 242.30873 283.187885 
L 246.333316 285.458801 
L 250.357902 277.844553 
L 254.382488 282.374241 
L 258.407074 275.233607 
L 262.43166 277.905273 
L 266.456246 281.584885 
L 270.480832 287.802581 
L 274.505418 279.921166 
L 278.530004 283.042158 
L 282.55459 288.057603 
L 286.579176 275.233607 
L 290.603762 274.517114 
L 294.628347 279.022515 
L 298.652933 284.705877 
L 302.677519 282.228514 
L 306.702105 275.549349 
L 310.726691 278.512469 
L 314.751277 277.577386 
L 318.775863 281.682037 
L 322.800449 283.612923 
L 326.825035 277.99028 
L 330.849621 278.937507 
L 334.874207 277.601674 
L 338.898793 278.524613 
L 342.923379 274.249948 
L 346.947965 274.213516 
L 350.972551 271.833304 
L 354.997137 279.374689 
L 359.021722 277.638106 
L 363.046308 278.718916 
L 367.070894 278.026712 
L 371.09548 282.945006 
L 375.120066 280.249052 
L 379.144652 270.886077 
L 383.169238 275.330758 
L 387.193824 276.520864 
L 391.21841 273.229857 
L 395.242996 272.804819 
L 399.267582 271.286827 
L 403.292168 275.986531 
L 407.316754 275.573637 
L 411.34134 278.184583 
L 415.365926 274.990728 
L 419.390512 274.347099 
L 423.415098 272.088327 
L 427.439683 231.709739 
L 431.464269 269.817411 
L 435.488855 276.50872 
L 439.513441 275.403622 
L 443.538027 279.289681 
L 447.562613 274.662842 
L 451.587199 278.160295 
L 455.611785 270.971085 
L 459.636371 275.622213 
L 463.660957 274.954296 
L 467.685543 273.472736 
L 471.710129 275.998675 
L 475.734715 277.978136 
L 479.759301 276.593727 
L 483.783887 272.719812 
L 487.808473 273.727758 
L 491.833059 275.02716 
L 495.857644 274.055645 
L 499.88223 271.979032 
L 503.906816 266.004215 
L 507.931402 268.554442 
L 511.955988 256.677672 
L 515.980574 271.347547 
L 520.00516 274.541402 
L 524.029746 273.812766 
L 528.054332 275.209319 
L 532.078918 274.808569 
L 536.103504 271.153244 
L 540.12809 276.095826 
L 544.152676 272.877683 
L 548.177262 271.274683 
L 552.201848 276.715167 
L 556.226434 274.577834 
L 560.25102 271.590426 
L 564.275605 273.630607 
L 568.300191 274.638554 
L 572.324777 273.229857 
L 576.349363 277.006621 
L 580.373949 272.428357 
L 584.398535 273.497024 
L 588.423121 270.521759 
L 592.447707 277.103773 
L 596.472293 277.18878 
L 600.496879 241.947077 
L 604.521465 268.821608 
L 608.546051 273.375584 
L 612.570637 276.035106 
L 616.595223 265.955639 
L 620.619809 269.5381 
L 624.644395 261.195216 
L 628.66898 270.776782 
L 632.693566 265.846344 
L 636.718152 274.16494 
L 640.742738 270.995373 
L 644.767324 272.112615 
L 648.79191 274.347099 
L 652.816496 273.594175 
L 656.841082 265.227003 
L 660.865668 270.983229 
L 664.890254 268.445146 
L 668.91484 270.655343 
L 672.939426 272.610516 
L 676.964012 271.578282 
L 680.988598 273.399872 
L 685.013184 270.631055 
L 689.03777 276.520864 
L 693.062356 265.591321 
L 697.086941 264.886973 
L 701.111527 268.627305 
L 705.136113 274.638554 
L 709.160699 273.339152 
L 713.185285 269.064487 
L 717.209871 272.088327 
L 721.234457 271.383979 
L 725.259043 268.007964 
L 729.283629 268.190123 
L 733.308215 266.562836 
L 737.332801 271.699721 
L 741.357387 266.769283 
L 745.381973 268.736601 
L 749.406559 255.123248 
L 753.431145 268.007964 
L 757.455731 265.105564 
L 761.480317 262.494617 
L 765.504902 259.118603 
L 769.529488 265.979927 
L 773.554074 270.072434 
L 777.57866 275.185031 
L 781.603246 270.351744 
L 785.627832 256.98127 
L 789.652418 271.238252 
L 793.677004 273.582031 
L 797.70159 272.416213 
L 801.726176 270.06029 
L 805.750762 268.45729 
L 809.775348 270.3396 
L 813.799934 271.796873 
L 817.82452 272.319062 
L 821.849106 268.347995 
L 825.873692 268.773032 
L 829.898278 273.812766 
L 833.922863 256.070475 
L 837.947449 271.614714 
L 841.972035 268.226555 
L 845.996621 270.533903 
L 850.021207 268.092972 
L 854.045793 270.837502 
L 858.070379 279.313969 
L 862.094965 267.352192 
L 866.119551 266.830003 
L 870.144137 267.25504 
L 874.168723 265.664185 
L 878.193309 267.728654 
L 882.217895 266.441397 
L 886.242481 266.599268 
L 890.267067 259.871527 
L 894.291653 269.805267 
L 898.316238 262.470329 
L 902.340824 267.728654 
L 906.36541 265.700617 
L 910.389996 268.190123 
L 914.414582 263.259685 
L 918.439168 267.801518 
L 922.463754 267.072881 
L 926.48834 267.25504 
L 930.512926 268.007964 
L 934.537512 264.2312 
L 938.562098 269.015911 
L 942.586684 269.610964 
L 946.61127 265.275579 
L 950.635856 266.502116 
L 954.660442 266.028503 
L 958.685028 267.182177 
L 962.709614 255.912604 
L 966.734199 258.1228 
L 970.758785 273.472736 
L 974.783371 266.465685 
L 978.807957 270.278881 
L 982.832543 275.270038 
L 986.857129 267.303616 
L 990.881715 267.595071 
L 994.906301 255.596861 
L 998.930887 267.157889 
L 1002.955473 264.146193 
L 1006.980059 270.303168 
L 1011.004645 263.393269 
L 1015.029231 262.033148 
L 1019.053817 266.356389 
L 1023.078403 268.141548 
L 1027.102989 258.972876 
L 1031.127575 262.68892 
L 1035.15216 264.340496 
L 1039.176746 262.336746 
L 1043.201332 264.911261 
L 1047.225918 256.204058 
L 1051.250504 254.35818 
L 1055.27509 264.255488 
L 1059.299676 261.60811 
L 1063.324262 265.105564 
L 1067.348848 264.134049 
L 1071.373434 256.64124 
L 1075.39802 266.283525 
L 1079.422606 269.525956 
L 1083.447192 263.866882 
L 1087.471778 260.588019 
L 1091.496364 258.341391 
L 1091.496364 258.341391 
" clip-path="url(#p4dc7efd15d)" style="fill: none; stroke: #ff7f0e; stroke-width: 1.5; stroke-linecap: square"/>
   </g>
   <g id="patch_3">
    <path d="M 47.72 548.12 
L 47.72 10.8 
" style="fill: none; stroke: #000000; stroke-width: 0.8; stroke-linejoin: miter; stroke-linecap: square"/>
   </g>
   <g id="patch_4">
    <path d="M 1141.2 548.12 
L 1141.2 10.8 
" style="fill: none; stroke: #000000; stroke-width: 0.8; stroke-linejoin: miter; stroke-linecap: square"/>
   </g>
   <g id="patch_5">
    <path d="M 47.72 548.12 
L 1141.2 548.12 
" style="fill: none; stroke: #000000; stroke-width: 0.8; stroke-linejoin: miter; stroke-linecap: square"/>
   </g>
   <g id="patch_6">
    <path d="M 47.72 10.8 
L 1141.2 10.8 
" style="fill: none; stroke: #000000; stroke-width: 0.8; stroke-linejoin: miter; stroke-linecap: square"/>
   </g>
   <g id="legend_1">
    <g id="patch_7">
     <path d="M 54.72 48.15625 
L 147.777813 48.15625 
Q 149.777813 48.15625 149.777813 46.15625 
L 149.777813 17.8 
Q 149.777813 15.8 147.777813 15.8 
L 54.72 15.8 
Q 52.72 15.8 52.72 17.8 
L 52.72 46.15625 
Q 52.72 48.15625 54.72 48.15625 
z
" style="fill: #ffffff; opacity: 0.8; stroke: #cccccc; stroke-linejoin: miter"/>
    </g>
    <g id="line2d_18">
     <path d="M 56.72 23.898438 
L 66.72 23.898438 
L 76.72 23.898438 
" style="fill: none; stroke: #1f77b4; stroke-width: 5; stroke-linecap: square"/>
    </g>
    <g id="text_17">
     <!-- PNG decode -->
     <g transform="translate(84.72 27.398438) scale(0.1 -0.1)">
      <defs>
       <path id="DejaVuSans-50" d="M 1259 4147 
L 1259 2394 
L 2053 2394 
Q 2494 2394 2734 2622 
Q 2975 2850 2975 3272 
Q 2975 3691 2734 3919 
Q 2494 4147 2053 4147 
L 1259 4147 
z
M 628 4666 
L 2053 4666 
Q 2838 4666 3239 4311 
Q 3641 3956 3641 3272 
Q 3641 2581 3239 2228 
Q 2838 1875 2053 1875 
L 1259 1875 
L 1259 0 
L 628 0 
L 628 4666 
z
" transform="scale(0.015625)"/>
       <path id="DejaVuSans-4e" d="M 628 4666 
L 1478 4666 
L 3547 763 
L 3547 4666 
L 4159 4666 
L 4159 0 
L 3309 0 
L 1241 3903 
L 1241 0 
L 628 0 
L 628 4666 
z
" transform="scale(0.015625)"/>
       <path id="DejaVuSans-47" d="M 3809 666 
L 3809 1919 
L 2778 1919 
L 2778 2438 
L 4434 2438 
L 4434 434 
Q 4069 175 3628 42 
Q 3188 -91 2688 -91 
Q 1594 -91 976 548 
Q 359 1188 359 2328 
Q 359 3472 976 4111 
Q 1594 4750 2688 4750 
Q 3144 4750 3555 4637 
Q 3966 4525 4313 4306 
L 4313 3634 
Q 3963 3931 3569 4081 
Q 3175 4231 2741 4231 
Q 1884 4231 1454 3753 
Q 1025 3275 1025 2328 
Q 1025 1384 1454 906 
Q 1884 428 2741 428 
Q 3075 428 3337 486 
Q 3600 544 3809 666 
z
" transform="scale(0.015625)"/>
       <path id="DejaVuSans-20" transform="scale(0.015625)"/>
      </defs>
      <use xlink:href="#DejaVuSans-50"/>
      <use xlink:href="#DejaVuSans-4e" x="60.302734"/>
      <use xlink:href="#DejaVuSans-47" x="135.107422"/>
      <use xlink:href="#DejaVuSans-20" x="212.597656"/>
      <use xlink:href="#DejaVuSans-64" x="244.384766"/>
      <use xlink:href="#DejaVuSans-65" x="307.861328"/>
      <use xlink:href="#DejaVuSans-63" x="369.384766"/>
      <use xlink:href="#DejaVuSans-6f" x="424.365234"/>
      <use xlink:href="#DejaVuSans-64" x="485.546875"/>
      <use xlink:href="#DejaVuSans-65" x="549.023438"/>
     </g>
    </g>
    <g id="line2d_19">
     <path d="M 56.72 38.576563 
L 66.72 38.576563 
L 76.72 38.576563 
" style="fill: none; stroke: #ff7f0e; stroke-width: 1.5; stroke-linecap: square"/>
    </g>
    <g id="text_18">
     <!-- QB3 decode -->
     <g transform="translate(84.72 42.076563) scale(0.1 -0.1)">
      <defs>
       <path id="DejaVuSans-51" d="M 2522 4238 
Q 1834 4238 1429 3725 
Q 1025 3213 1025 2328 
Q 1025 1447 1429 934 
Q 1834 422 2522 422 
Q 3209 422 3611 934 
Q 4013 1447 4013 2328 
Q 4013 3213 3611 3725 
Q 3209 4238 2522 4238 
z
M 3406 84 
L 4238 -825 
L 3475 -825 
L 2784 -78 
Q 2681 -84 2626 -87 
Q 2572 -91 2522 -91 
Q 1538 -91 948 567 
Q 359 1225 359 2328 
Q 359 3434 948 4092 
Q 1538 4750 2522 4750 
Q 3503 4750 4090 4092 
Q 4678 3434 4678 2328 
Q 4678 1516 4351 937 
Q 4025 359 3406 84 
z
" transform="scale(0.015625)"/>
       <path id="DejaVuSans-42" d="M 1259 2228 
L 1259 519 
L 2272 519 
Q 2781 519 3026 730 
Q 3272 941 3272 1375 
Q 3272 1813 3026 2020 
Q 2781 2228 2272 2228 
L 1259 2228 
z
M 1259 4147 
L 1259 2741 
L 2194 2741 
Q 2656 2741 2882 2914 
Q 3109 3088 3109 3444 
Q 3109 3797 2882 3972 
Q 2656 4147 2194 4147 
L 1259 4147 
z
M 628 4666 
L 2241 4666 
Q 2963 4666 3353 4366 
Q 3744 4066 3744 3513 
Q 3744 3084 3544 2831 
Q 3344 2578 2956 2516 
Q 3422 2416 3680 2098 
Q 3938 1781 3938 1306 
Q 3938 681 3513 340 
Q 3088 0 2303 0 
L 628 0 
L 628 4666 
z
" transform="scale(0.015625)"/>
      </defs>
      <use xlink:href="#DejaVuSans-51"/>
      <use xlink:href="#DejaVuSans-42" x="78.710938"/>
      <use xlink:href="#DejaVuSans-33" x="147.314453"/>
      <use xlink:href="#DejaVuSans-20" x="210.9375"/>
      <use xlink:href="#DejaVuSans-64" x="242.724609"/>
      <use xlink:href="#DejaVuSans-65" x="306.201172"/>
      <use xlink:href="#DejaVuSans-63" x="367.724609"/>
      <use xlink:href="#DejaVuSans-6f" x="422.705078"/>
      <use xlink:href="#DejaVuSans-64" x="483.886719"/>
      <use xlink:href="#DejaVuSans-65" x="547.363281"/>
     </g>
    </g>
   </g>
  </g>
 </g>
 <defs>
  <clipPath id="p4dc7efd15d">
   <rect x="47.72" y="10.8" width="1093.48" height="537.32"/>
  </clipPath>
 </defs>
</svg>
