<?xml version="1.0" encoding="utf-8" standalone="no"?>
<!DOCTYPE svg PUBLIC "-//W3C//DTD SVG 1.1//EN"
  "http://www.w3.org/Graphics/SVG/1.1/DTD/svg11.dtd">
<svg xmlns:xlink="http://www.w3.org/1999/xlink" width="1152pt" height="576pt" viewBox="0 0 1152 576" xmlns="http://www.w3.org/2000/svg" version="1.1">
 <metadata>
  <rdf:RDF xmlns:dc="http://purl.org/dc/elements/1.1/" xmlns:cc="http://creativecommons.org/ns#" xmlns:rdf="http://www.w3.org/1999/02/22-rdf-syntax-ns#">
   <cc:Work>
    <dc:type rdf:resource="http://purl.org/dc/dcmitype/StillImage"/>
    <dc:date>2025-04-17T15:30:30.099640</dc:date>
    <dc:format>image/svg+xml</dc:format>
    <dc:creator>
     <cc:Agent>
      <dc:title>Matplotlib v3.9.0, https://matplotlib.org/</dc:title>
     </cc:Agent>
    </dc:creator>
   </cc:Work>
  </rdf:RDF>
 </metadata>
 <defs>
  <style type="text/css">*{stroke-linejoin: round; stroke-linecap: butt}</style>
 </defs>
 <g id="figure_1">
  <g id="patch_1">
   <path d="M 0 576 
L 1152 576 
L 1152 0 
L 0 0 
z
" style="fill: #ffffff"/>
  </g>
  <g id="axes_1">
   <g id="patch_2">
    <path d="M 47.72 548.12 
L 1141.2 548.12 
L 1141.2 10.8 
L 47.72 10.8 
z
" style="fill: #ffffff"/>
   </g>
   <g id="matplotlib.axis_1">
    <g id="xtick_1">
     <g id="line2d_1">
      <defs>
       <path id="m7f5e3247c5" d="M 0 0 
L 0 3.5 
" style="stroke: #000000; stroke-width: 0.8"/>
      </defs>
      <g>
       <use xlink:href="#m7f5e3247c5" x="97.423636" y="548.12" style="stroke: #000000; stroke-width: 0.8"/>
      </g>
     </g>
     <g id="text_1">
      <!-- 0 -->
      <g transform="translate(94.242386 562.718437) scale(0.1 -0.1)">
       <defs>
        <path id="DejaVuSans-30" d="M 2034 4250 
Q 1547 4250 1301 3770 
Q 1056 3291 1056 2328 
Q 1056 1369 1301 889 
Q 1547 409 2034 409 
Q 2525 409 2770 889 
Q 3016 1369 3016 2328 
Q 3016 3291 2770 3770 
Q 2525 4250 2034 4250 
z
M 2034 4750 
Q 2819 4750 3233 4129 
Q 3647 3509 3647 2328 
Q 3647 1150 3233 529 
Q 2819 -91 2034 -91 
Q 1250 -91 836 529 
Q 422 1150 422 2328 
Q 422 3509 836 4129 
Q 1250 4750 2034 4750 
z
" transform="scale(0.015625)"/>
       </defs>
       <use xlink:href="#DejaVuSans-30"/>
      </g>
     </g>
    </g>
    <g id="xtick_2">
     <g id="line2d_2">
      <g>
       <use xlink:href="#m7f5e3247c5" x="298.652933" y="548.12" style="stroke: #000000; stroke-width: 0.8"/>
      </g>
     </g>
     <g id="text_2">
      <!-- 50 -->
      <g transform="translate(292.290433 562.718437) scale(0.1 -0.1)">
       <defs>
        <path id="DejaVuSans-35" d="M 691 4666 
L 3169 4666 
L 3169 4134 
L 1269 4134 
L 1269 2991 
Q 1406 3038 1543 3061 
Q 1681 3084 1819 3084 
Q 2600 3084 3056 2656 
Q 3513 2228 3513 1497 
Q 3513 744 3044 326 
Q 2575 -91 1722 -91 
Q 1428 -91 1123 -41 
Q 819 9 494 109 
L 494 744 
Q 775 591 1075 516 
Q 1375 441 1709 441 
Q 2250 441 2565 725 
Q 2881 1009 2881 1497 
Q 2881 1984 2565 2268 
Q 2250 2553 1709 2553 
Q 1456 2553 1204 2497 
Q 953 2441 691 2322 
L 691 4666 
z
" transform="scale(0.015625)"/>
       </defs>
       <use xlink:href="#DejaVuSans-35"/>
       <use xlink:href="#DejaVuSans-30" x="63.623047"/>
      </g>
     </g>
    </g>
    <g id="xtick_3">
     <g id="line2d_3">
      <g>
       <use xlink:href="#m7f5e3247c5" x="499.88223" y="548.12" style="stroke: #000000; stroke-width: 0.8"/>
      </g>
     </g>
     <g id="text_3">
      <!-- 100 -->
      <g transform="translate(490.33848 562.718437) scale(0.1 -0.1)">
       <defs>
        <path id="DejaVuSans-31" d="M 794 531 
L 1825 531 
L 1825 4091 
L 703 3866 
L 703 4441 
L 1819 4666 
L 2450 4666 
L 2450 531 
L 3481 531 
L 3481 0 
L 794 0 
L 794 531 
z
" transform="scale(0.015625)"/>
       </defs>
       <use xlink:href="#DejaVuSans-31"/>
       <use xlink:href="#DejaVuSans-30" x="63.623047"/>
       <use xlink:href="#DejaVuSans-30" x="127.246094"/>
      </g>
     </g>
    </g>
    <g id="xtick_4">
     <g id="line2d_4">
      <g>
       <use xlink:href="#m7f5e3247c5" x="701.111527" y="548.12" style="stroke: #000000; stroke-width: 0.8"/>
      </g>
     </g>
     <g id="text_4">
      <!-- 150 -->
      <g transform="translate(691.567777 562.718437) scale(0.1 -0.1)">
       <use xlink:href="#DejaVuSans-31"/>
       <use xlink:href="#DejaVuSans-35" x="63.623047"/>
       <use xlink:href="#DejaVuSans-30" x="127.246094"/>
      </g>
     </g>
    </g>
    <g id="xtick_5">
     <g id="line2d_5">
      <g>
       <use xlink:href="#m7f5e3247c5" x="902.340824" y="548.12" style="stroke: #000000; stroke-width: 0.8"/>
      </g>
     </g>
     <g id="text_5">
      <!-- 200 -->
      <g transform="translate(892.797074 562.718437) scale(0.1 -0.1)">
       <defs>
        <path id="DejaVuSans-32" d="M 1228 531 
L 3431 531 
L 3431 0 
L 469 0 
L 469 531 
Q 828 903 1448 1529 
Q 2069 2156 2228 2338 
Q 2531 2678 2651 2914 
Q 2772 3150 2772 3378 
Q 2772 3750 2511 3984 
Q 2250 4219 1831 4219 
Q 1534 4219 1204 4116 
Q 875 4013 500 3803 
L 500 4441 
Q 881 4594 1212 4672 
Q 1544 4750 1819 4750 
Q 2544 4750 2975 4387 
Q 3406 4025 3406 3419 
Q 3406 3131 3298 2873 
Q 3191 2616 2906 2266 
Q 2828 2175 2409 1742 
Q 1991 1309 1228 531 
z
" transform="scale(0.015625)"/>
       </defs>
       <use xlink:href="#DejaVuSans-32"/>
       <use xlink:href="#DejaVuSans-30" x="63.623047"/>
       <use xlink:href="#DejaVuSans-30" x="127.246094"/>
      </g>
     </g>
    </g>
    <g id="xtick_6">
     <g id="line2d_6">
      <g>
       <use xlink:href="#m7f5e3247c5" x="1103.570121" y="548.12" style="stroke: #000000; stroke-width: 0.8"/>
      </g>
     </g>
     <g id="text_6">
      <!-- 250 -->
      <g transform="translate(1094.026371 562.718437) scale(0.1 -0.1)">
       <use xlink:href="#DejaVuSans-32"/>
       <use xlink:href="#DejaVuSans-35" x="63.623047"/>
       <use xlink:href="#DejaVuSans-30" x="127.246094"/>
      </g>
     </g>
    </g>
   </g>
   <g id="matplotlib.axis_2">
    <g id="ytick_1">
     <g id="line2d_7">
      <defs>
       <path id="mce36389207" d="M 0 0 
L -3.5 0 
" style="stroke: #000000; stroke-width: 0.8"/>
      </defs>
      <g>
       <use xlink:href="#mce36389207" x="47.72" y="548.12" style="stroke: #000000; stroke-width: 0.8"/>
      </g>
     </g>
     <g id="text_7">
      <!-- 0.0 -->
      <g transform="translate(24.816875 551.919219) scale(0.1 -0.1)">
       <defs>
        <path id="DejaVuSans-2e" d="M 684 794 
L 1344 794 
L 1344 0 
L 684 0 
L 684 794 
z
" transform="scale(0.015625)"/>
       </defs>
       <use xlink:href="#DejaVuSans-30"/>
       <use xlink:href="#DejaVuSans-2e" x="63.623047"/>
       <use xlink:href="#DejaVuSans-30" x="95.410156"/>
      </g>
     </g>
    </g>
    <g id="ytick_2">
     <g id="line2d_8">
      <g>
       <use xlink:href="#mce36389207" x="47.72" y="486.216275" style="stroke: #000000; stroke-width: 0.8"/>
      </g>
     </g>
     <g id="text_8">
      <!-- 0.5 -->
      <g transform="translate(24.816875 490.015494) scale(0.1 -0.1)">
       <use xlink:href="#DejaVuSans-30"/>
       <use xlink:href="#DejaVuSans-2e" x="63.623047"/>
       <use xlink:href="#DejaVuSans-35" x="95.410156"/>
      </g>
     </g>
    </g>
    <g id="ytick_3">
     <g id="line2d_9">
      <g>
       <use xlink:href="#mce36389207" x="47.72" y="424.31255" style="stroke: #000000; stroke-width: 0.8"/>
      </g>
     </g>
     <g id="text_9">
      <!-- 1.0 -->
      <g transform="translate(24.816875 428.111769) scale(0.1 -0.1)">
       <use xlink:href="#DejaVuSans-31"/>
       <use xlink:href="#DejaVuSans-2e" x="63.623047"/>
       <use xlink:href="#DejaVuSans-30" x="95.410156"/>
      </g>
     </g>
    </g>
    <g id="ytick_4">
     <g id="line2d_10">
      <g>
       <use xlink:href="#mce36389207" x="47.72" y="362.408825" style="stroke: #000000; stroke-width: 0.8"/>
      </g>
     </g>
     <g id="text_10">
      <!-- 1.5 -->
      <g transform="translate(24.816875 366.208044) scale(0.1 -0.1)">
       <use xlink:href="#DejaVuSans-31"/>
       <use xlink:href="#DejaVuSans-2e" x="63.623047"/>
       <use xlink:href="#DejaVuSans-35" x="95.410156"/>
      </g>
     </g>
    </g>
    <g id="ytick_5">
     <g id="line2d_11">
      <g>
       <use xlink:href="#mce36389207" x="47.72" y="300.5051" style="stroke: #000000; stroke-width: 0.8"/>
      </g>
     </g>
     <g id="text_11">
      <!-- 2.0 -->
      <g transform="translate(24.816875 304.304319) scale(0.1 -0.1)">
       <use xlink:href="#DejaVuSans-32"/>
       <use xlink:href="#DejaVuSans-2e" x="63.623047"/>
       <use xlink:href="#DejaVuSans-30" x="95.410156"/>
      </g>
     </g>
    </g>
    <g id="ytick_6">
     <g id="line2d_12">
      <g>
       <use xlink:href="#mce36389207" x="47.72" y="238.601375" style="stroke: #000000; stroke-width: 0.8"/>
      </g>
     </g>
     <g id="text_12">
      <!-- 2.5 -->
      <g transform="translate(24.816875 242.400594) scale(0.1 -0.1)">
       <use xlink:href="#DejaVuSans-32"/>
       <use xlink:href="#DejaVuSans-2e" x="63.623047"/>
       <use xlink:href="#DejaVuSans-35" x="95.410156"/>
      </g>
     </g>
    </g>
    <g id="ytick_7">
     <g id="line2d_13">
      <g>
       <use xlink:href="#mce36389207" x="47.72" y="176.69765" style="stroke: #000000; stroke-width: 0.8"/>
      </g>
     </g>
     <g id="text_13">
      <!-- 3.0 -->
      <g transform="translate(24.816875 180.496869) scale(0.1 -0.1)">
       <defs>
        <path id="DejaVuSans-33" d="M 2597 2516 
Q 3050 2419 3304 2112 
Q 3559 1806 3559 1356 
Q 3559 666 3084 287 
Q 2609 -91 1734 -91 
Q 1441 -91 1130 -33 
Q 819 25 488 141 
L 488 750 
Q 750 597 1062 519 
Q 1375 441 1716 441 
Q 2309 441 2620 675 
Q 2931 909 2931 1356 
Q 2931 1769 2642 2001 
Q 2353 2234 1838 2234 
L 1294 2234 
L 1294 2753 
L 1863 2753 
Q 2328 2753 2575 2939 
Q 2822 3125 2822 3475 
Q 2822 3834 2567 4026 
Q 2313 4219 1838 4219 
Q 1578 4219 1281 4162 
Q 984 4106 628 3988 
L 628 4550 
Q 988 4650 1302 4700 
Q 1616 4750 1894 4750 
Q 2613 4750 3031 4423 
Q 3450 4097 3450 3541 
Q 3450 3153 3228 2886 
Q 3006 2619 2597 2516 
z
" transform="scale(0.015625)"/>
       </defs>
       <use xlink:href="#DejaVuSans-33"/>
       <use xlink:href="#DejaVuSans-2e" x="63.623047"/>
       <use xlink:href="#DejaVuSans-30" x="95.410156"/>
      </g>
     </g>
    </g>
    <g id="ytick_8">
     <g id="line2d_14">
      <g>
       <use xlink:href="#mce36389207" x="47.72" y="114.793925" style="stroke: #000000; stroke-width: 0.8"/>
      </g>
     </g>
     <g id="text_14">
      <!-- 3.5 -->
      <g transform="translate(24.816875 118.593144) scale(0.1 -0.1)">
       <use xlink:href="#DejaVuSans-33"/>
       <use xlink:href="#DejaVuSans-2e" x="63.623047"/>
       <use xlink:href="#DejaVuSans-35" x="95.410156"/>
      </g>
     </g>
    </g>
    <g id="ytick_9">
     <g id="line2d_15">
      <g>
       <use xlink:href="#mce36389207" x="47.72" y="52.8902" style="stroke: #000000; stroke-width: 0.8"/>
      </g>
     </g>
     <g id="text_15">
      <!-- 4.0 -->
      <g transform="translate(24.816875 56.689419) scale(0.1 -0.1)">
       <defs>
        <path id="DejaVuSans-34" d="M 2419 4116 
L 825 1625 
L 2419 1625 
L 2419 4116 
z
M 2253 4666 
L 3047 4666 
L 3047 1625 
L 3713 1625 
L 3713 1100 
L 3047 1100 
L 3047 0 
L 2419 0 
L 2419 1100 
L 313 1100 
L 313 1709 
L 2253 4666 
z
" transform="scale(0.015625)"/>
       </defs>
       <use xlink:href="#DejaVuSans-34"/>
       <use xlink:href="#DejaVuSans-2e" x="63.623047"/>
       <use xlink:href="#DejaVuSans-30" x="95.410156"/>
      </g>
     </g>
    </g>
    <g id="text_16">
     <!-- milliseconds -->
     <g transform="translate(18.737187 310.324063) rotate(-90) scale(0.1 -0.1)">
      <defs>
       <path id="DejaVuSans-6d" d="M 3328 2828 
Q 3544 3216 3844 3400 
Q 4144 3584 4550 3584 
Q 5097 3584 5394 3201 
Q 5691 2819 5691 2113 
L 5691 0 
L 5113 0 
L 5113 2094 
Q 5113 2597 4934 2840 
Q 4756 3084 4391 3084 
Q 3944 3084 3684 2787 
Q 3425 2491 3425 1978 
L 3425 0 
L 2847 0 
L 2847 2094 
Q 2847 2600 2669 2842 
Q 2491 3084 2119 3084 
Q 1678 3084 1418 2786 
Q 1159 2488 1159 1978 
L 1159 0 
L 581 0 
L 581 3500 
L 1159 3500 
L 1159 2956 
Q 1356 3278 1631 3431 
Q 1906 3584 2284 3584 
Q 2666 3584 2933 3390 
Q 3200 3197 3328 2828 
z
" transform="scale(0.015625)"/>
       <path id="DejaVuSans-69" d="M 603 3500 
L 1178 3500 
L 1178 0 
L 603 0 
L 603 3500 
z
M 603 4863 
L 1178 4863 
L 1178 4134 
L 603 4134 
L 603 4863 
z
" transform="scale(0.015625)"/>
       <path id="DejaVuSans-6c" d="M 603 4863 
L 1178 4863 
L 1178 0 
L 603 0 
L 603 4863 
z
" transform="scale(0.015625)"/>
       <path id="DejaVuSans-73" d="M 2834 3397 
L 2834 2853 
Q 2591 2978 2328 3040 
Q 2066 3103 1784 3103 
Q 1356 3103 1142 2972 
Q 928 2841 928 2578 
Q 928 2378 1081 2264 
Q 1234 2150 1697 2047 
L 1894 2003 
Q 2506 1872 2764 1633 
Q 3022 1394 3022 966 
Q 3022 478 2636 193 
Q 2250 -91 1575 -91 
Q 1294 -91 989 -36 
Q 684 19 347 128 
L 347 722 
Q 666 556 975 473 
Q 1284 391 1588 391 
Q 1994 391 2212 530 
Q 2431 669 2431 922 
Q 2431 1156 2273 1281 
Q 2116 1406 1581 1522 
L 1381 1569 
Q 847 1681 609 1914 
Q 372 2147 372 2553 
Q 372 3047 722 3315 
Q 1072 3584 1716 3584 
Q 2034 3584 2315 3537 
Q 2597 3491 2834 3397 
z
" transform="scale(0.015625)"/>
       <path id="DejaVuSans-65" d="M 3597 1894 
L 3597 1613 
L 953 1613 
Q 991 1019 1311 708 
Q 1631 397 2203 397 
Q 2534 397 2845 478 
Q 3156 559 3463 722 
L 3463 178 
Q 3153 47 2828 -22 
Q 2503 -91 2169 -91 
Q 1331 -91 842 396 
Q 353 884 353 1716 
Q 353 2575 817 3079 
Q 1281 3584 2069 3584 
Q 2775 3584 3186 3129 
Q 3597 2675 3597 1894 
z
M 3022 2063 
Q 3016 2534 2758 2815 
Q 2500 3097 2075 3097 
Q 1594 3097 1305 2825 
Q 1016 2553 972 2059 
L 3022 2063 
z
" transform="scale(0.015625)"/>
       <path id="DejaVuSans-63" d="M 3122 3366 
L 3122 2828 
Q 2878 2963 2633 3030 
Q 2388 3097 2138 3097 
Q 1578 3097 1268 2742 
Q 959 2388 959 1747 
Q 959 1106 1268 751 
Q 1578 397 2138 397 
Q 2388 397 2633 464 
Q 2878 531 3122 666 
L 3122 134 
Q 2881 22 2623 -34 
Q 2366 -91 2075 -91 
Q 1284 -91 818 406 
Q 353 903 353 1747 
Q 353 2603 823 3093 
Q 1294 3584 2113 3584 
Q 2378 3584 2631 3529 
Q 2884 3475 3122 3366 
z
" transform="scale(0.015625)"/>
       <path id="DejaVuSans-6f" d="M 1959 3097 
Q 1497 3097 1228 2736 
Q 959 2375 959 1747 
Q 959 1119 1226 758 
Q 1494 397 1959 397 
Q 2419 397 2687 759 
Q 2956 1122 2956 1747 
Q 2956 2369 2687 2733 
Q 2419 3097 1959 3097 
z
M 1959 3584 
Q 2709 3584 3137 3096 
Q 3566 2609 3566 1747 
Q 3566 888 3137 398 
Q 2709 -91 1959 -91 
Q 1206 -91 779 398 
Q 353 888 353 1747 
Q 353 2609 779 3096 
Q 1206 3584 1959 3584 
z
" transform="scale(0.015625)"/>
       <path id="DejaVuSans-6e" d="M 3513 2113 
L 3513 0 
L 2938 0 
L 2938 2094 
Q 2938 2591 2744 2837 
Q 2550 3084 2163 3084 
Q 1697 3084 1428 2787 
Q 1159 2491 1159 1978 
L 1159 0 
L 581 0 
L 581 3500 
L 1159 3500 
L 1159 2956 
Q 1366 3272 1645 3428 
Q 1925 3584 2291 3584 
Q 2894 3584 3203 3211 
Q 3513 2838 3513 2113 
z
" transform="scale(0.015625)"/>
       <path id="DejaVuSans-64" d="M 2906 2969 
L 2906 4863 
L 3481 4863 
L 3481 0 
L 2906 0 
L 2906 525 
Q 2725 213 2448 61 
Q 2172 -91 1784 -91 
Q 1150 -91 751 415 
Q 353 922 353 1747 
Q 353 2572 751 3078 
Q 1150 3584 1784 3584 
Q 2172 3584 2448 3432 
Q 2725 3281 2906 2969 
z
M 947 1747 
Q 947 1113 1208 752 
Q 1469 391 1925 391 
Q 2381 391 2643 752 
Q 2906 1113 2906 1747 
Q 2906 2381 2643 2742 
Q 2381 3103 1925 3103 
Q 1469 3103 1208 2742 
Q 947 2381 947 1747 
z
" transform="scale(0.015625)"/>
      </defs>
      <use xlink:href="#DejaVuSans-6d"/>
      <use xlink:href="#DejaVuSans-69" x="97.412109"/>
      <use xlink:href="#DejaVuSans-6c" x="125.195312"/>
      <use xlink:href="#DejaVuSans-6c" x="152.978516"/>
      <use xlink:href="#DejaVuSans-69" x="180.761719"/>
      <use xlink:href="#DejaVuSans-73" x="208.544922"/>
      <use xlink:href="#DejaVuSans-65" x="260.644531"/>
      <use xlink:href="#DejaVuSans-63" x="322.167969"/>
      <use xlink:href="#DejaVuSans-6f" x="377.148438"/>
      <use xlink:href="#DejaVuSans-6e" x="438.330078"/>
      <use xlink:href="#DejaVuSans-64" x="501.708984"/>
      <use xlink:href="#DejaVuSans-73" x="565.185547"/>
     </g>
    </g>
   </g>
   <g id="line2d_16">
    <path d="M 97.423636 383.839895 
L 101.448222 374.442909 
L 105.472808 373.947679 
L 109.497394 372.994362 
L 113.52198 372.9696 
L 117.546566 364.15451 
L 121.571152 360.068864 
L 125.595738 357.902234 
L 129.620324 355.215612 
L 133.64491 351.897572 
L 137.669496 351.154728 
L 141.694082 348.641436 
L 145.718668 346.932894 
L 149.743254 344.951974 
L 153.76784 343.837707 
L 157.792425 343.466285 
L 161.817011 342.612014 
L 165.841597 341.968215 
L 169.866183 331.036017 
L 173.890769 311.053495 
L 177.915355 307.376413 
L 181.939941 273.874117 
L 185.964527 269.503714 
L 189.989113 245.348881 
L 194.013699 218.507426 
L 198.038285 215.276051 
L 202.062871 210.323753 
L 206.087457 206.535245 
L 210.112043 205.841924 
L 214.136629 191.232644 
L 218.161215 187.766036 
L 222.185801 184.84418 
L 226.210386 182.974688 
L 230.234972 182.801357 
L 234.259558 181.724232 
L 238.284144 180.795676 
L 242.30873 179.681409 
L 246.333316 179.669029 
L 258.407074 176.771934 
L 262.43166 176.623365 
L 266.456246 176.02909 
L 270.480832 175.806236 
L 274.505418 175.249103 
L 278.530004 173.268183 
L 282.55459 170.197759 
L 286.579176 168.006367 
L 290.603762 167.473995 
L 294.628347 165.431172 
L 298.652933 164.935942 
L 302.677519 162.992165 
L 306.702105 161.692187 
L 310.726691 161.271242 
L 314.751277 159.674125 
L 322.800449 156.9256 
L 326.825035 155.737049 
L 330.849621 155.439911 
L 334.874207 154.040886 
L 338.898793 153.842795 
L 342.923379 153.137092 
L 346.947965 152.939 
L 350.972551 152.592339 
L 354.997137 151.799972 
L 359.021722 151.713306 
L 363.046308 150.834274 
L 367.070894 150.834274 
L 371.09548 149.422869 
L 379.144652 147.602899 
L 383.169238 147.553376 
L 387.193824 147.29338 
L 391.21841 146.860054 
L 395.242996 146.711485 
L 399.267582 146.092448 
L 403.292168 145.943879 
L 407.316754 145.609599 
L 411.34134 145.547695 
L 415.365926 145.312461 
L 419.390512 144.334382 
L 423.415098 144.099148 
L 427.439683 142.885835 
L 431.464269 142.613459 
L 439.513441 141.622999 
L 451.587199 141.028723 
L 455.611785 140.47159 
L 459.636371 140.409686 
L 463.660957 139.332561 
L 471.710129 138.81257 
L 475.734715 138.738286 
L 479.759301 138.14401 
L 483.783887 137.747826 
L 487.808473 137.029743 
L 491.833059 136.98022 
L 495.857644 136.472609 
L 499.88223 135.271677 
L 503.906816 134.788828 
L 507.931402 133.525992 
L 511.955988 133.476469 
L 515.980574 132.882193 
L 520.00516 131.594596 
L 524.029746 130.579375 
L 528.054332 130.00986 
L 532.078918 129.242254 
L 536.103504 127.880372 
L 540.12809 126.84039 
L 548.177262 126.642298 
L 552.201848 126.122306 
L 556.226434 125.280416 
L 560.25102 125.230893 
L 564.275605 124.983278 
L 572.324777 124.884232 
L 576.349363 124.116626 
L 580.373949 123.906153 
L 584.398535 123.571873 
L 588.423121 123.559492 
L 592.447707 123.138547 
L 596.472293 122.556652 
L 600.496879 122.445225 
L 604.521465 122.073803 
L 608.546051 121.925234 
L 612.570637 121.504289 
L 616.595223 121.380481 
L 628.66898 120.142407 
L 632.693566 120.117645 
L 636.718152 118.359579 
L 640.742738 117.393881 
L 644.767324 115.895811 
L 652.816496 115.846288 
L 656.841082 115.611054 
L 660.865668 114.608214 
L 664.890254 114.063461 
L 672.939426 113.87775 
L 676.964012 112.912052 
L 685.013184 112.565391 
L 693.062356 111.921592 
L 697.086941 111.290174 
L 701.111527 111.067321 
L 705.136113 110.435903 
L 709.160699 110.373999 
L 713.185285 110.089242 
L 717.209871 109.56925 
L 725.259043 109.247351 
L 729.283629 108.380699 
L 737.332801 107.749281 
L 741.357387 107.340716 
L 749.406559 107.06834 
L 753.431145 106.226449 
L 757.455731 105.991215 
L 765.504902 105.966454 
L 769.529488 105.842646 
L 773.554074 105.136944 
L 777.57866 104.24553 
L 785.627832 103.973154 
L 789.652418 103.391259 
L 793.677004 103.279832 
L 797.70159 102.957933 
L 801.726176 102.933171 
L 805.750762 102.574129 
L 809.775348 101.794143 
L 813.799934 101.546528 
L 817.82452 100.717018 
L 821.849106 100.531307 
L 825.873692 100.481784 
L 829.898278 99.986554 
L 837.947449 99.837985 
L 841.972035 99.218948 
L 845.996621 98.909429 
L 850.021207 98.278011 
L 854.045793 98.216107 
L 858.070379 97.312313 
L 862.094965 97.250409 
L 866.119551 96.495184 
L 870.144137 94.922829 
L 886.242481 94.365696 
L 890.267067 93.27619 
L 894.291653 93.053337 
L 898.316238 92.681914 
L 902.340824 92.050496 
L 906.36541 91.93907 
L 910.389996 90.94861 
L 914.414582 89.524824 
L 918.439168 88.967691 
L 922.463754 88.559126 
L 926.48834 87.779139 
L 934.537512 86.503922 
L 938.562098 83.829682 
L 942.586684 83.495401 
L 946.61127 83.458259 
L 950.635856 83.099218 
L 954.660442 80.82116 
L 958.685028 80.64783 
L 962.709614 79.533563 
L 970.758785 79.298329 
L 982.832543 77.540263 
L 986.857129 77.342171 
L 990.881715 76.438377 
L 998.930887 76.017431 
L 1002.955473 75.410775 
L 1006.980059 75.311729 
L 1011.004645 74.742215 
L 1015.029231 74.506981 
L 1019.053817 73.726994 
L 1023.078403 73.689851 
L 1027.102989 72.587965 
L 1031.127575 71.944166 
L 1035.15216 70.210862 
L 1039.176746 66.34807 
L 1043.201332 65.989028 
L 1047.225918 65.790936 
L 1051.250504 64.986188 
L 1055.27509 64.429054 
L 1059.299676 64.379531 
L 1063.324262 63.834778 
L 1067.348848 62.658608 
L 1071.373434 61.891001 
L 1075.39802 61.432914 
L 1079.422606 59.860559 
L 1083.447192 44.793193 
L 1091.496364 36.386667 
L 1091.496364 36.386667 
" clip-path="url(#p999284f480)" style="fill: none; stroke: #1f77b4; stroke-width: 5; stroke-linecap: square"/>
   </g>
   <g id="line2d_17">
    <path d="M 97.423636 324.313273 
L 101.448222 321.044756 
L 105.472808 329.674135 
L 109.497394 327.185605 
L 113.52198 317.776239 
L 117.546566 328.869387 
L 121.571152 318.1229 
L 125.595738 328.176065 
L 129.620324 321.242848 
L 133.64491 329.996034 
L 137.669496 312.242046 
L 141.694082 316.996252 
L 145.718668 316.761018 
L 149.743254 316.216265 
L 153.76784 321.738078 
L 157.792425 318.964791 
L 161.817011 321.601889 
L 165.841597 307.834501 
L 169.866183 310.929687 
L 173.890769 309.30781 
L 177.915355 313.442978 
L 181.939941 298.722273 
L 185.964527 294.970907 
L 189.989113 284.137755 
L 194.013699 293.844259 
L 198.038285 284.422512 
L 202.062871 289.548141 
L 206.087457 278.492135 
L 210.112043 280.980665 
L 214.136629 285.982486 
L 218.161215 278.294043 
L 222.185801 284.112993 
L 226.210386 281.624464 
L 230.234972 282.8873 
L 234.259558 285.363449 
L 238.284144 289.510998 
L 242.30873 285.499637 
L 246.333316 286.88628 
L 250.357902 277.774052 
L 254.382488 286.205339 
L 258.407074 289.969086 
L 262.43166 275.396949 
L 266.456246 277.538818 
L 270.480832 281.983505 
L 274.505418 279.73021 
L 278.530004 287.195799 
L 282.55459 275.557899 
L 286.579176 275.235999 
L 290.603762 266.09901 
L 294.628347 286.972946 
L 298.652933 274.74077 
L 302.677519 276.734069 
L 306.702105 286.576762 
L 310.726691 281.054949 
L 314.751277 276.300743 
L 318.775863 280.138774 
L 322.800449 282.491116 
L 326.825035 278.306424 
L 330.849621 270.25894 
L 334.874207 278.554039 
L 338.898793 270.085609 
L 342.923379 276.139794 
L 346.947965 268.909439 
L 350.972551 269.59038 
L 354.997137 268.092309 
L 359.021722 275.644564 
L 363.046308 282.39207 
L 367.070894 270.556078 
L 371.09548 270.642743 
L 375.120066 273.41603 
L 379.144652 223.521627 
L 383.169238 273.242699 
L 387.193824 280.138774 
L 391.21841 267.708506 
L 395.242996 275.966463 
L 399.267582 272.153194 
L 403.292168 278.727369 
L 407.316754 275.595041 
L 411.34134 278.603562 
L 415.365926 266.804712 
L 419.390512 269.169434 
L 423.415098 276.944542 
L 427.439683 264.972362 
L 431.464269 258.13819 
L 435.488855 268.884677 
L 439.513441 265.826633 
L 443.538027 265.182834 
L 447.562613 284.521558 
L 451.587199 279.445453 
L 455.611785 273.180796 
L 459.636371 262.038125 
L 463.660957 272.660804 
L 467.685543 272.351286 
L 471.710129 277.848337 
L 475.734715 276.882638 
L 479.759301 266.866616 
L 483.783887 277.08073 
L 487.808473 270.667504 
L 491.833059 276.857877 
L 495.857644 272.710327 
L 499.88223 269.404668 
L 503.906816 272.400809 
L 507.931402 268.079929 
L 511.955988 272.512235 
L 515.980574 272.388428 
L 520.00516 268.971342 
L 524.029746 265.727587 
L 528.054332 273.304603 
L 532.078918 268.290401 
L 536.103504 277.291203 
L 540.12809 268.030406 
L 544.152676 267.126611 
L 548.177262 270.184655 
L 552.201848 277.142634 
L 556.226434 272.883658 
L 560.25102 271.905579 
L 564.275605 271.08845 
L 568.300191 271.769391 
L 572.324777 252.64114 
L 576.349363 270.357986 
L 580.373949 263.461911 
L 584.398535 273.440791 
L 588.423121 270.531316 
L 592.447707 272.660804 
L 596.472293 271.274161 
L 600.496879 267.795172 
L 604.521465 253.928737 
L 608.546051 268.352305 
L 612.570637 268.154213 
L 616.595223 271.051308 
L 620.619809 271.571299 
L 624.644395 270.357986 
L 628.66898 263.684764 
L 632.693566 267.039946 
L 636.718152 266.928519 
L 640.742738 271.459872 
L 644.767324 269.677045 
L 648.79191 270.717027 
L 652.816496 264.576178 
L 656.841082 269.93704 
L 660.865668 268.43897 
L 664.890254 267.943741 
L 668.91484 259.029604 
L 672.939426 267.510414 
L 676.964012 267.646603 
L 680.988598 264.811412 
L 685.013184 266.841854 
L 689.03777 272.549378 
L 693.062356 265.999964 
L 697.086941 271.113211 
L 701.111527 262.496213 
L 705.136113 264.489513 
L 709.160699 270.518935 
L 713.185285 262.397167 
L 717.209871 263.771429 
L 721.234457 262.347644 
L 725.259043 258.472471 
L 729.283629 265.145692 
L 733.308215 264.600939 
L 737.332801 264.650462 
L 741.357387 263.759049 
L 745.381973 261.047666 
L 749.406559 268.302782 
L 753.431145 261.047666 
L 757.455731 266.284721 
L 761.480317 261.072427 
L 765.504902 265.653303 
L 769.529488 264.984742 
L 773.554074 267.138992 
L 777.57866 266.730428 
L 781.603246 265.962821 
L 785.627832 269.033246 
L 789.652418 261.220996 
L 793.677004 248.035503 
L 797.70159 263.300961 
L 805.750762 263.697145 
L 809.775348 261.381946 
L 813.799934 254.015402 
L 817.82452 262.78097 
L 821.849106 267.745649 
L 825.873692 266.321863 
L 829.898278 267.176134 
L 837.947449 263.969521 
L 841.972035 264.600939 
L 845.996621 268.513255 
L 850.021207 260.007683 
L 854.045793 270.023706 
L 858.070379 262.9543 
L 862.094965 245.881253 
L 866.119551 255.736326 
L 870.144137 262.78097 
L 874.168723 259.376265 
L 878.193309 257.395346 
L 882.217895 261.183854 
L 886.242481 265.418069 
L 890.267067 262.260979 
L 894.291653 256.256317 
L 898.316238 260.601959 
L 902.340824 262.508593 
L 906.36541 256.293459 
L 910.389996 260.205775 
L 914.414582 259.549595 
L 918.439168 259.648641 
L 922.463754 252.938278 
L 926.48834 262.372405 
L 930.512926 258.274379 
L 934.537512 261.233377 
L 938.562098 257.073446 
L 942.586684 261.084808 
L 946.61127 257.259158 
L 950.635856 254.089687 
L 954.660442 260.800051 
L 958.685028 270.011325 
L 962.709614 262.867635 
L 966.734199 264.328563 
L 970.758785 264.551416 
L 974.783371 257.358204 
L 978.807957 260.639101 
L 982.832543 257.667722 
L 986.857129 257.605818 
L 990.881715 256.318221 
L 994.906301 257.927718 
L 998.930887 261.468611 
L 1002.955473 258.200094 
L 1006.980059 260.552436 
L 1011.004645 252.764947 
L 1015.029231 259.264838 
L 1019.053817 262.025744 
L 1023.078403 260.750528 
L 1027.102989 260.849574 
L 1031.127575 258.831512 
L 1035.15216 254.547774 
L 1039.176746 264.675224 
L 1043.201332 256.80107 
L 1051.250504 255.736326 
L 1055.27509 259.846733 
L 1059.299676 249.904995 
L 1063.324262 260.181013 
L 1067.348848 248.444067 
L 1071.373434 256.194414 
L 1075.39802 255.303 
L 1079.422606 256.64012 
L 1083.447192 258.29914 
L 1087.471778 258.720085 
L 1091.496364 255.699184 
L 1091.496364 255.699184 
" clip-path="url(#p999284f480)" style="fill: none; stroke: #ff7f0e; stroke-width: 1.5; stroke-linecap: square"/>
   </g>
   <g id="patch_3">
    <path d="M 47.72 548.12 
L 47.72 10.8 
" style="fill: none; stroke: #000000; stroke-width: 0.8; stroke-linejoin: miter; stroke-linecap: square"/>
   </g>
   <g id="patch_4">
    <path d="M 1141.2 548.12 
L 1141.2 10.8 
" style="fill: none; stroke: #000000; stroke-width: 0.8; stroke-linejoin: miter; stroke-linecap: square"/>
   </g>
   <g id="patch_5">
    <path d="M 47.72 548.12 
L 1141.2 548.12 
" style="fill: none; stroke: #000000; stroke-width: 0.8; stroke-linejoin: miter; stroke-linecap: square"/>
   </g>
   <g id="patch_6">
    <path d="M 47.72 10.8 
L 1141.2 10.8 
" style="fill: none; stroke: #000000; stroke-width: 0.8; stroke-linejoin: miter; stroke-linecap: square"/>
   </g>
   <g id="legend_1">
    <g id="patch_7">
     <path d="M 54.72 48.15625 
L 147.777813 48.15625 
Q 149.777813 48.15625 149.777813 46.15625 
L 149.777813 17.8 
Q 149.777813 15.8 147.777813 15.8 
L 54.72 15.8 
Q 52.72 15.8 52.72 17.8 
L 52.72 46.15625 
Q 52.72 48.15625 54.72 48.15625 
z
" style="fill: #ffffff; opacity: 0.8; stroke: #cccccc; stroke-linejoin: miter"/>
    </g>
    <g id="line2d_18">
     <path d="M 56.72 23.898438 
L 66.72 23.898438 
L 76.72 23.898438 
" style="fill: none; stroke: #1f77b4; stroke-width: 5; stroke-linecap: square"/>
    </g>
    <g id="text_17">
     <!-- PNG decode -->
     <g transform="translate(84.72 27.398438) scale(0.1 -0.1)">
      <defs>
       <path id="DejaVuSans-50" d="M 1259 4147 
L 1259 2394 
L 2053 2394 
Q 2494 2394 2734 2622 
Q 2975 2850 2975 3272 
Q 2975 3691 2734 3919 
Q 2494 4147 2053 4147 
L 1259 4147 
z
M 628 4666 
L 2053 4666 
Q 2838 4666 3239 4311 
Q 3641 3956 3641 3272 
Q 3641 2581 3239 2228 
Q 2838 1875 2053 1875 
L 1259 1875 
L 1259 0 
L 628 0 
L 628 4666 
z
" transform="scale(0.015625)"/>
       <path id="DejaVuSans-4e" d="M 628 4666 
L 1478 4666 
L 3547 763 
L 3547 4666 
L 4159 4666 
L 4159 0 
L 3309 0 
L 1241 3903 
L 1241 0 
L 628 0 
L 628 4666 
z
" transform="scale(0.015625)"/>
       <path id="DejaVuSans-47" d="M 3809 666 
L 3809 1919 
L 2778 1919 
L 2778 2438 
L 4434 2438 
L 4434 434 
Q 4069 175 3628 42 
Q 3188 -91 2688 -91 
Q 1594 -91 976 548 
Q 359 1188 359 2328 
Q 359 3472 976 4111 
Q 1594 4750 2688 4750 
Q 3144 4750 3555 4637 
Q 3966 4525 4313 4306 
L 4313 3634 
Q 3963 3931 3569 4081 
Q 3175 4231 2741 4231 
Q 1884 4231 1454 3753 
Q 1025 3275 1025 2328 
Q 1025 1384 1454 906 
Q 1884 428 2741 428 
Q 3075 428 3337 486 
Q 3600 544 3809 666 
z
" transform="scale(0.015625)"/>
       <path id="DejaVuSans-20" transform="scale(0.015625)"/>
      </defs>
      <use xlink:href="#DejaVuSans-50"/>
      <use xlink:href="#DejaVuSans-4e" x="60.302734"/>
      <use xlink:href="#DejaVuSans-47" x="135.107422"/>
      <use xlink:href="#DejaVuSans-20" x="212.597656"/>
      <use xlink:href="#DejaVuSans-64" x="244.384766"/>
      <use xlink:href="#DejaVuSans-65" x="307.861328"/>
      <use xlink:href="#DejaVuSans-63" x="369.384766"/>
      <use xlink:href="#DejaVuSans-6f" x="424.365234"/>
      <use xlink:href="#DejaVuSans-64" x="485.546875"/>
      <use xlink:href="#DejaVuSans-65" x="549.023438"/>
     </g>
    </g>
    <g id="line2d_19">
     <path d="M 56.72 38.576563 
L 66.72 38.576563 
L 76.72 38.576563 
" style="fill: none; stroke: #ff7f0e; stroke-width: 1.5; stroke-linecap: square"/>
    </g>
    <g id="text_18">
     <!-- QB3 decode -->
     <g transform="translate(84.72 42.076563) scale(0.1 -0.1)">
      <defs>
       <path id="DejaVuSans-51" d="M 2522 4238 
Q 1834 4238 1429 3725 
Q 1025 3213 1025 2328 
Q 1025 1447 1429 934 
Q 1834 422 2522 422 
Q 3209 422 3611 934 
Q 4013 1447 4013 2328 
Q 4013 3213 3611 3725 
Q 3209 4238 2522 4238 
z
M 3406 84 
L 4238 -825 
L 3475 -825 
L 2784 -78 
Q 2681 -84 2626 -87 
Q 2572 -91 2522 -91 
Q 1538 -91 948 567 
Q 359 1225 359 2328 
Q 359 3434 948 4092 
Q 1538 4750 2522 4750 
Q 3503 4750 4090 4092 
Q 4678 3434 4678 2328 
Q 4678 1516 4351 937 
Q 4025 359 3406 84 
z
" transform="scale(0.015625)"/>
       <path id="DejaVuSans-42" d="M 1259 2228 
L 1259 519 
L 2272 519 
Q 2781 519 3026 730 
Q 3272 941 3272 1375 
Q 3272 1813 3026 2020 
Q 2781 2228 2272 2228 
L 1259 2228 
z
M 1259 4147 
L 1259 2741 
L 2194 2741 
Q 2656 2741 2882 2914 
Q 3109 3088 3109 3444 
Q 3109 3797 2882 3972 
Q 2656 4147 2194 4147 
L 1259 4147 
z
M 628 4666 
L 2241 4666 
Q 2963 4666 3353 4366 
Q 3744 4066 3744 3513 
Q 3744 3084 3544 2831 
Q 3344 2578 2956 2516 
Q 3422 2416 3680 2098 
Q 3938 1781 3938 1306 
Q 3938 681 3513 340 
Q 3088 0 2303 0 
L 628 0 
L 628 4666 
z
" transform="scale(0.015625)"/>
      </defs>
      <use xlink:href="#DejaVuSans-51"/>
      <use xlink:href="#DejaVuSans-42" x="78.710938"/>
      <use xlink:href="#DejaVuSans-33" x="147.314453"/>
      <use xlink:href="#DejaVuSans-20" x="210.9375"/>
      <use xlink:href="#DejaVuSans-64" x="242.724609"/>
      <use xlink:href="#DejaVuSans-65" x="306.201172"/>
      <use xlink:href="#DejaVuSans-63" x="367.724609"/>
      <use xlink:href="#DejaVuSans-6f" x="422.705078"/>
      <use xlink:href="#DejaVuSans-64" x="483.886719"/>
      <use xlink:href="#DejaVuSans-65" x="547.363281"/>
     </g>
    </g>
   </g>
  </g>
 </g>
 <defs>
  <clipPath id="p999284f480">
   <rect x="47.72" y="10.8" width="1093.48" height="537.32"/>
  </clipPath>
 </defs>
</svg>
