<?xml version="1.0" encoding="utf-8" standalone="no"?>
<!DOCTYPE svg PUBLIC "-//W3C//DTD SVG 1.1//EN"
  "http://www.w3.org/Graphics/SVG/1.1/DTD/svg11.dtd">
<svg xmlns:xlink="http://www.w3.org/1999/xlink" width="1440pt" height="720pt" viewBox="0 0 1440 720" xmlns="http://www.w3.org/2000/svg" version="1.1">
 <metadata>
  <rdf:RDF xmlns:dc="http://purl.org/dc/elements/1.1/" xmlns:cc="http://creativecommons.org/ns#" xmlns:rdf="http://www.w3.org/1999/02/22-rdf-syntax-ns#">
   <cc:Work>
    <dc:type rdf:resource="http://purl.org/dc/dcmitype/StillImage"/>
    <dc:date>2025-03-19T14:11:23.319940</dc:date>
    <dc:format>image/svg+xml</dc:format>
    <dc:creator>
     <cc:Agent>
      <dc:title>Matplotlib v3.9.0, https://matplotlib.org/</dc:title>
     </cc:Agent>
    </dc:creator>
   </cc:Work>
  </rdf:RDF>
 </metadata>
 <defs>
  <style type="text/css">*{stroke-linejoin: round; stroke-linecap: butt}</style>
 </defs>
 <g id="figure_1">
  <g id="patch_1">
   <path d="M 0 720 
L 1440 720 
L 1440 0 
L 0 0 
z
" style="fill: #ffffff"/>
  </g>
  <g id="axes_1">
   <g id="patch_2">
    <path d="M 54.02 678.04 
L 1429.2 678.04 
L 1429.2 26.88 
L 54.02 26.88 
z
" style="fill: #ffffff"/>
   </g>
   <g id="matplotlib.axis_1">
    <g id="xtick_1">
     <g id="line2d_1">
      <defs>
       <path id="m17a936c24d" d="M 0 0 
L 0 3.5 
" style="stroke: #000000; stroke-width: 0.8"/>
      </defs>
      <g>
       <use xlink:href="#m17a936c24d" x="116.528182" y="678.04" style="stroke: #000000; stroke-width: 0.8"/>
      </g>
     </g>
     <g id="text_1">
      <!-- 0 -->
      <g transform="translate(113.346932 692.638438) scale(0.1 -0.1)">
       <defs>
        <path id="DejaVuSans-30" d="M 2034 4250 
Q 1547 4250 1301 3770 
Q 1056 3291 1056 2328 
Q 1056 1369 1301 889 
Q 1547 409 2034 409 
Q 2525 409 2770 889 
Q 3016 1369 3016 2328 
Q 3016 3291 2770 3770 
Q 2525 4250 2034 4250 
z
M 2034 4750 
Q 2819 4750 3233 4129 
Q 3647 3509 3647 2328 
Q 3647 1150 3233 529 
Q 2819 -91 2034 -91 
Q 1250 -91 836 529 
Q 422 1150 422 2328 
Q 422 3509 836 4129 
Q 1250 4750 2034 4750 
z
" transform="scale(0.015625)"/>
       </defs>
       <use xlink:href="#DejaVuSans-30"/>
      </g>
     </g>
    </g>
    <g id="xtick_2">
     <g id="line2d_2">
      <g>
       <use xlink:href="#m17a936c24d" x="369.597744" y="678.04" style="stroke: #000000; stroke-width: 0.8"/>
      </g>
     </g>
     <g id="text_2">
      <!-- 50 -->
      <g transform="translate(363.235244 692.638438) scale(0.1 -0.1)">
       <defs>
        <path id="DejaVuSans-35" d="M 691 4666 
L 3169 4666 
L 3169 4134 
L 1269 4134 
L 1269 2991 
Q 1406 3038 1543 3061 
Q 1681 3084 1819 3084 
Q 2600 3084 3056 2656 
Q 3513 2228 3513 1497 
Q 3513 744 3044 326 
Q 2575 -91 1722 -91 
Q 1428 -91 1123 -41 
Q 819 9 494 109 
L 494 744 
Q 775 591 1075 516 
Q 1375 441 1709 441 
Q 2250 441 2565 725 
Q 2881 1009 2881 1497 
Q 2881 1984 2565 2268 
Q 2250 2553 1709 2553 
Q 1456 2553 1204 2497 
Q 953 2441 691 2322 
L 691 4666 
z
" transform="scale(0.015625)"/>
       </defs>
       <use xlink:href="#DejaVuSans-35"/>
       <use xlink:href="#DejaVuSans-30" x="63.623047"/>
      </g>
     </g>
    </g>
    <g id="xtick_3">
     <g id="line2d_3">
      <g>
       <use xlink:href="#m17a936c24d" x="622.667306" y="678.04" style="stroke: #000000; stroke-width: 0.8"/>
      </g>
     </g>
     <g id="text_3">
      <!-- 100 -->
      <g transform="translate(613.123556 692.638438) scale(0.1 -0.1)">
       <defs>
        <path id="DejaVuSans-31" d="M 794 531 
L 1825 531 
L 1825 4091 
L 703 3866 
L 703 4441 
L 1819 4666 
L 2450 4666 
L 2450 531 
L 3481 531 
L 3481 0 
L 794 0 
L 794 531 
z
" transform="scale(0.015625)"/>
       </defs>
       <use xlink:href="#DejaVuSans-31"/>
       <use xlink:href="#DejaVuSans-30" x="63.623047"/>
       <use xlink:href="#DejaVuSans-30" x="127.246094"/>
      </g>
     </g>
    </g>
    <g id="xtick_4">
     <g id="line2d_4">
      <g>
       <use xlink:href="#m17a936c24d" x="875.736868" y="678.04" style="stroke: #000000; stroke-width: 0.8"/>
      </g>
     </g>
     <g id="text_4">
      <!-- 150 -->
      <g transform="translate(866.193118 692.638438) scale(0.1 -0.1)">
       <use xlink:href="#DejaVuSans-31"/>
       <use xlink:href="#DejaVuSans-35" x="63.623047"/>
       <use xlink:href="#DejaVuSans-30" x="127.246094"/>
      </g>
     </g>
    </g>
    <g id="xtick_5">
     <g id="line2d_5">
      <g>
       <use xlink:href="#m17a936c24d" x="1128.80643" y="678.04" style="stroke: #000000; stroke-width: 0.8"/>
      </g>
     </g>
     <g id="text_5">
      <!-- 200 -->
      <g transform="translate(1119.26268 692.638438) scale(0.1 -0.1)">
       <defs>
        <path id="DejaVuSans-32" d="M 1228 531 
L 3431 531 
L 3431 0 
L 469 0 
L 469 531 
Q 828 903 1448 1529 
Q 2069 2156 2228 2338 
Q 2531 2678 2651 2914 
Q 2772 3150 2772 3378 
Q 2772 3750 2511 3984 
Q 2250 4219 1831 4219 
Q 1534 4219 1204 4116 
Q 875 4013 500 3803 
L 500 4441 
Q 881 4594 1212 4672 
Q 1544 4750 1819 4750 
Q 2544 4750 2975 4387 
Q 3406 4025 3406 3419 
Q 3406 3131 3298 2873 
Q 3191 2616 2906 2266 
Q 2828 2175 2409 1742 
Q 1991 1309 1228 531 
z
" transform="scale(0.015625)"/>
       </defs>
       <use xlink:href="#DejaVuSans-32"/>
       <use xlink:href="#DejaVuSans-30" x="63.623047"/>
       <use xlink:href="#DejaVuSans-30" x="127.246094"/>
      </g>
     </g>
    </g>
    <g id="xtick_6">
     <g id="line2d_6">
      <g>
       <use xlink:href="#m17a936c24d" x="1381.875992" y="678.04" style="stroke: #000000; stroke-width: 0.8"/>
      </g>
     </g>
     <g id="text_6">
      <!-- 250 -->
      <g transform="translate(1372.332242 692.638438) scale(0.1 -0.1)">
       <use xlink:href="#DejaVuSans-32"/>
       <use xlink:href="#DejaVuSans-35" x="63.623047"/>
       <use xlink:href="#DejaVuSans-30" x="127.246094"/>
      </g>
     </g>
    </g>
    <g id="text_7">
     <!-- File number -->
     <g transform="translate(712.138906 706.316563) scale(0.1 -0.1)">
      <defs>
       <path id="DejaVuSans-46" d="M 628 4666 
L 3309 4666 
L 3309 4134 
L 1259 4134 
L 1259 2759 
L 3109 2759 
L 3109 2228 
L 1259 2228 
L 1259 0 
L 628 0 
L 628 4666 
z
" transform="scale(0.015625)"/>
       <path id="DejaVuSans-69" d="M 603 3500 
L 1178 3500 
L 1178 0 
L 603 0 
L 603 3500 
z
M 603 4863 
L 1178 4863 
L 1178 4134 
L 603 4134 
L 603 4863 
z
" transform="scale(0.015625)"/>
       <path id="DejaVuSans-6c" d="M 603 4863 
L 1178 4863 
L 1178 0 
L 603 0 
L 603 4863 
z
" transform="scale(0.015625)"/>
       <path id="DejaVuSans-65" d="M 3597 1894 
L 3597 1613 
L 953 1613 
Q 991 1019 1311 708 
Q 1631 397 2203 397 
Q 2534 397 2845 478 
Q 3156 559 3463 722 
L 3463 178 
Q 3153 47 2828 -22 
Q 2503 -91 2169 -91 
Q 1331 -91 842 396 
Q 353 884 353 1716 
Q 353 2575 817 3079 
Q 1281 3584 2069 3584 
Q 2775 3584 3186 3129 
Q 3597 2675 3597 1894 
z
M 3022 2063 
Q 3016 2534 2758 2815 
Q 2500 3097 2075 3097 
Q 1594 3097 1305 2825 
Q 1016 2553 972 2059 
L 3022 2063 
z
" transform="scale(0.015625)"/>
       <path id="DejaVuSans-20" transform="scale(0.015625)"/>
       <path id="DejaVuSans-6e" d="M 3513 2113 
L 3513 0 
L 2938 0 
L 2938 2094 
Q 2938 2591 2744 2837 
Q 2550 3084 2163 3084 
Q 1697 3084 1428 2787 
Q 1159 2491 1159 1978 
L 1159 0 
L 581 0 
L 581 3500 
L 1159 3500 
L 1159 2956 
Q 1366 3272 1645 3428 
Q 1925 3584 2291 3584 
Q 2894 3584 3203 3211 
Q 3513 2838 3513 2113 
z
" transform="scale(0.015625)"/>
       <path id="DejaVuSans-75" d="M 544 1381 
L 544 3500 
L 1119 3500 
L 1119 1403 
Q 1119 906 1312 657 
Q 1506 409 1894 409 
Q 2359 409 2629 706 
Q 2900 1003 2900 1516 
L 2900 3500 
L 3475 3500 
L 3475 0 
L 2900 0 
L 2900 538 
Q 2691 219 2414 64 
Q 2138 -91 1772 -91 
Q 1169 -91 856 284 
Q 544 659 544 1381 
z
M 1991 3584 
L 1991 3584 
z
" transform="scale(0.015625)"/>
       <path id="DejaVuSans-6d" d="M 3328 2828 
Q 3544 3216 3844 3400 
Q 4144 3584 4550 3584 
Q 5097 3584 5394 3201 
Q 5691 2819 5691 2113 
L 5691 0 
L 5113 0 
L 5113 2094 
Q 5113 2597 4934 2840 
Q 4756 3084 4391 3084 
Q 3944 3084 3684 2787 
Q 3425 2491 3425 1978 
L 3425 0 
L 2847 0 
L 2847 2094 
Q 2847 2600 2669 2842 
Q 2491 3084 2119 3084 
Q 1678 3084 1418 2786 
Q 1159 2488 1159 1978 
L 1159 0 
L 581 0 
L 581 3500 
L 1159 3500 
L 1159 2956 
Q 1356 3278 1631 3431 
Q 1906 3584 2284 3584 
Q 2666 3584 2933 3390 
Q 3200 3197 3328 2828 
z
" transform="scale(0.015625)"/>
       <path id="DejaVuSans-62" d="M 3116 1747 
Q 3116 2381 2855 2742 
Q 2594 3103 2138 3103 
Q 1681 3103 1420 2742 
Q 1159 2381 1159 1747 
Q 1159 1113 1420 752 
Q 1681 391 2138 391 
Q 2594 391 2855 752 
Q 3116 1113 3116 1747 
z
M 1159 2969 
Q 1341 3281 1617 3432 
Q 1894 3584 2278 3584 
Q 2916 3584 3314 3078 
Q 3713 2572 3713 1747 
Q 3713 922 3314 415 
Q 2916 -91 2278 -91 
Q 1894 -91 1617 61 
Q 1341 213 1159 525 
L 1159 0 
L 581 0 
L 581 4863 
L 1159 4863 
L 1159 2969 
z
" transform="scale(0.015625)"/>
       <path id="DejaVuSans-72" d="M 2631 2963 
Q 2534 3019 2420 3045 
Q 2306 3072 2169 3072 
Q 1681 3072 1420 2755 
Q 1159 2438 1159 1844 
L 1159 0 
L 581 0 
L 581 3500 
L 1159 3500 
L 1159 2956 
Q 1341 3275 1631 3429 
Q 1922 3584 2338 3584 
Q 2397 3584 2469 3576 
Q 2541 3569 2628 3553 
L 2631 2963 
z
" transform="scale(0.015625)"/>
      </defs>
      <use xlink:href="#DejaVuSans-46"/>
      <use xlink:href="#DejaVuSans-69" x="50.269531"/>
      <use xlink:href="#DejaVuSans-6c" x="78.052734"/>
      <use xlink:href="#DejaVuSans-65" x="105.835938"/>
      <use xlink:href="#DejaVuSans-20" x="167.359375"/>
      <use xlink:href="#DejaVuSans-6e" x="199.146484"/>
      <use xlink:href="#DejaVuSans-75" x="262.525391"/>
      <use xlink:href="#DejaVuSans-6d" x="325.904297"/>
      <use xlink:href="#DejaVuSans-62" x="423.316406"/>
      <use xlink:href="#DejaVuSans-65" x="486.792969"/>
      <use xlink:href="#DejaVuSans-72" x="548.316406"/>
     </g>
    </g>
   </g>
   <g id="matplotlib.axis_2">
    <g id="ytick_1">
     <g id="line2d_7">
      <defs>
       <path id="mf6bf9f6f82" d="M 0 0 
L -3.5 0 
" style="stroke: #000000; stroke-width: 0.8"/>
      </defs>
      <g>
       <use xlink:href="#mf6bf9f6f82" x="54.02" y="652.209796" style="stroke: #000000; stroke-width: 0.8"/>
      </g>
     </g>
     <g id="text_8">
      <!-- 0.00 -->
      <g transform="translate(24.754375 656.009015) scale(0.1 -0.1)">
       <defs>
        <path id="DejaVuSans-2e" d="M 684 794 
L 1344 794 
L 1344 0 
L 684 0 
L 684 794 
z
" transform="scale(0.015625)"/>
       </defs>
       <use xlink:href="#DejaVuSans-30"/>
       <use xlink:href="#DejaVuSans-2e" x="63.623047"/>
       <use xlink:href="#DejaVuSans-30" x="95.410156"/>
       <use xlink:href="#DejaVuSans-30" x="159.033203"/>
      </g>
     </g>
    </g>
    <g id="ytick_2">
     <g id="line2d_8">
      <g>
       <use xlink:href="#mf6bf9f6f82" x="54.02" y="573.995409" style="stroke: #000000; stroke-width: 0.8"/>
      </g>
     </g>
     <g id="text_9">
      <!-- 0.02 -->
      <g transform="translate(24.754375 577.794628) scale(0.1 -0.1)">
       <use xlink:href="#DejaVuSans-30"/>
       <use xlink:href="#DejaVuSans-2e" x="63.623047"/>
       <use xlink:href="#DejaVuSans-30" x="95.410156"/>
       <use xlink:href="#DejaVuSans-32" x="159.033203"/>
      </g>
     </g>
    </g>
    <g id="ytick_3">
     <g id="line2d_9">
      <g>
       <use xlink:href="#mf6bf9f6f82" x="54.02" y="495.781021" style="stroke: #000000; stroke-width: 0.8"/>
      </g>
     </g>
     <g id="text_10">
      <!-- 0.04 -->
      <g transform="translate(24.754375 499.58024) scale(0.1 -0.1)">
       <defs>
        <path id="DejaVuSans-34" d="M 2419 4116 
L 825 1625 
L 2419 1625 
L 2419 4116 
z
M 2253 4666 
L 3047 4666 
L 3047 1625 
L 3713 1625 
L 3713 1100 
L 3047 1100 
L 3047 0 
L 2419 0 
L 2419 1100 
L 313 1100 
L 313 1709 
L 2253 4666 
z
" transform="scale(0.015625)"/>
       </defs>
       <use xlink:href="#DejaVuSans-30"/>
       <use xlink:href="#DejaVuSans-2e" x="63.623047"/>
       <use xlink:href="#DejaVuSans-30" x="95.410156"/>
       <use xlink:href="#DejaVuSans-34" x="159.033203"/>
      </g>
     </g>
    </g>
    <g id="ytick_4">
     <g id="line2d_10">
      <g>
       <use xlink:href="#mf6bf9f6f82" x="54.02" y="417.566634" style="stroke: #000000; stroke-width: 0.8"/>
      </g>
     </g>
     <g id="text_11">
      <!-- 0.06 -->
      <g transform="translate(24.754375 421.365853) scale(0.1 -0.1)">
       <defs>
        <path id="DejaVuSans-36" d="M 2113 2584 
Q 1688 2584 1439 2293 
Q 1191 2003 1191 1497 
Q 1191 994 1439 701 
Q 1688 409 2113 409 
Q 2538 409 2786 701 
Q 3034 994 3034 1497 
Q 3034 2003 2786 2293 
Q 2538 2584 2113 2584 
z
M 3366 4563 
L 3366 3988 
Q 3128 4100 2886 4159 
Q 2644 4219 2406 4219 
Q 1781 4219 1451 3797 
Q 1122 3375 1075 2522 
Q 1259 2794 1537 2939 
Q 1816 3084 2150 3084 
Q 2853 3084 3261 2657 
Q 3669 2231 3669 1497 
Q 3669 778 3244 343 
Q 2819 -91 2113 -91 
Q 1303 -91 875 529 
Q 447 1150 447 2328 
Q 447 3434 972 4092 
Q 1497 4750 2381 4750 
Q 2619 4750 2861 4703 
Q 3103 4656 3366 4563 
z
" transform="scale(0.015625)"/>
       </defs>
       <use xlink:href="#DejaVuSans-30"/>
       <use xlink:href="#DejaVuSans-2e" x="63.623047"/>
       <use xlink:href="#DejaVuSans-30" x="95.410156"/>
       <use xlink:href="#DejaVuSans-36" x="159.033203"/>
      </g>
     </g>
    </g>
    <g id="ytick_5">
     <g id="line2d_11">
      <g>
       <use xlink:href="#mf6bf9f6f82" x="54.02" y="339.352246" style="stroke: #000000; stroke-width: 0.8"/>
      </g>
     </g>
     <g id="text_12">
      <!-- 0.08 -->
      <g transform="translate(24.754375 343.151465) scale(0.1 -0.1)">
       <defs>
        <path id="DejaVuSans-38" d="M 2034 2216 
Q 1584 2216 1326 1975 
Q 1069 1734 1069 1313 
Q 1069 891 1326 650 
Q 1584 409 2034 409 
Q 2484 409 2743 651 
Q 3003 894 3003 1313 
Q 3003 1734 2745 1975 
Q 2488 2216 2034 2216 
z
M 1403 2484 
Q 997 2584 770 2862 
Q 544 3141 544 3541 
Q 544 4100 942 4425 
Q 1341 4750 2034 4750 
Q 2731 4750 3128 4425 
Q 3525 4100 3525 3541 
Q 3525 3141 3298 2862 
Q 3072 2584 2669 2484 
Q 3125 2378 3379 2068 
Q 3634 1759 3634 1313 
Q 3634 634 3220 271 
Q 2806 -91 2034 -91 
Q 1263 -91 848 271 
Q 434 634 434 1313 
Q 434 1759 690 2068 
Q 947 2378 1403 2484 
z
M 1172 3481 
Q 1172 3119 1398 2916 
Q 1625 2713 2034 2713 
Q 2441 2713 2670 2916 
Q 2900 3119 2900 3481 
Q 2900 3844 2670 4047 
Q 2441 4250 2034 4250 
Q 1625 4250 1398 4047 
Q 1172 3844 1172 3481 
z
" transform="scale(0.015625)"/>
       </defs>
       <use xlink:href="#DejaVuSans-30"/>
       <use xlink:href="#DejaVuSans-2e" x="63.623047"/>
       <use xlink:href="#DejaVuSans-30" x="95.410156"/>
       <use xlink:href="#DejaVuSans-38" x="159.033203"/>
      </g>
     </g>
    </g>
    <g id="ytick_6">
     <g id="line2d_12">
      <g>
       <use xlink:href="#mf6bf9f6f82" x="54.02" y="261.137859" style="stroke: #000000; stroke-width: 0.8"/>
      </g>
     </g>
     <g id="text_13">
      <!-- 0.10 -->
      <g transform="translate(24.754375 264.937078) scale(0.1 -0.1)">
       <use xlink:href="#DejaVuSans-30"/>
       <use xlink:href="#DejaVuSans-2e" x="63.623047"/>
       <use xlink:href="#DejaVuSans-31" x="95.410156"/>
       <use xlink:href="#DejaVuSans-30" x="159.033203"/>
      </g>
     </g>
    </g>
    <g id="ytick_7">
     <g id="line2d_13">
      <g>
       <use xlink:href="#mf6bf9f6f82" x="54.02" y="182.923471" style="stroke: #000000; stroke-width: 0.8"/>
      </g>
     </g>
     <g id="text_14">
      <!-- 0.12 -->
      <g transform="translate(24.754375 186.72269) scale(0.1 -0.1)">
       <use xlink:href="#DejaVuSans-30"/>
       <use xlink:href="#DejaVuSans-2e" x="63.623047"/>
       <use xlink:href="#DejaVuSans-31" x="95.410156"/>
       <use xlink:href="#DejaVuSans-32" x="159.033203"/>
      </g>
     </g>
    </g>
    <g id="ytick_8">
     <g id="line2d_14">
      <g>
       <use xlink:href="#mf6bf9f6f82" x="54.02" y="104.709084" style="stroke: #000000; stroke-width: 0.8"/>
      </g>
     </g>
     <g id="text_15">
      <!-- 0.14 -->
      <g transform="translate(24.754375 108.508303) scale(0.1 -0.1)">
       <use xlink:href="#DejaVuSans-30"/>
       <use xlink:href="#DejaVuSans-2e" x="63.623047"/>
       <use xlink:href="#DejaVuSans-31" x="95.410156"/>
       <use xlink:href="#DejaVuSans-34" x="159.033203"/>
      </g>
     </g>
    </g>
    <g id="text_16">
     <!-- Seconds -->
     <g transform="translate(18.674687 373.467031) rotate(-90) scale(0.1 -0.1)">
      <defs>
       <path id="DejaVuSans-53" d="M 3425 4513 
L 3425 3897 
Q 3066 4069 2747 4153 
Q 2428 4238 2131 4238 
Q 1616 4238 1336 4038 
Q 1056 3838 1056 3469 
Q 1056 3159 1242 3001 
Q 1428 2844 1947 2747 
L 2328 2669 
Q 3034 2534 3370 2195 
Q 3706 1856 3706 1288 
Q 3706 609 3251 259 
Q 2797 -91 1919 -91 
Q 1588 -91 1214 -16 
Q 841 59 441 206 
L 441 856 
Q 825 641 1194 531 
Q 1563 422 1919 422 
Q 2459 422 2753 634 
Q 3047 847 3047 1241 
Q 3047 1584 2836 1778 
Q 2625 1972 2144 2069 
L 1759 2144 
Q 1053 2284 737 2584 
Q 422 2884 422 3419 
Q 422 4038 858 4394 
Q 1294 4750 2059 4750 
Q 2388 4750 2728 4690 
Q 3069 4631 3425 4513 
z
" transform="scale(0.015625)"/>
       <path id="DejaVuSans-63" d="M 3122 3366 
L 3122 2828 
Q 2878 2963 2633 3030 
Q 2388 3097 2138 3097 
Q 1578 3097 1268 2742 
Q 959 2388 959 1747 
Q 959 1106 1268 751 
Q 1578 397 2138 397 
Q 2388 397 2633 464 
Q 2878 531 3122 666 
L 3122 134 
Q 2881 22 2623 -34 
Q 2366 -91 2075 -91 
Q 1284 -91 818 406 
Q 353 903 353 1747 
Q 353 2603 823 3093 
Q 1294 3584 2113 3584 
Q 2378 3584 2631 3529 
Q 2884 3475 3122 3366 
z
" transform="scale(0.015625)"/>
       <path id="DejaVuSans-6f" d="M 1959 3097 
Q 1497 3097 1228 2736 
Q 959 2375 959 1747 
Q 959 1119 1226 758 
Q 1494 397 1959 397 
Q 2419 397 2687 759 
Q 2956 1122 2956 1747 
Q 2956 2369 2687 2733 
Q 2419 3097 1959 3097 
z
M 1959 3584 
Q 2709 3584 3137 3096 
Q 3566 2609 3566 1747 
Q 3566 888 3137 398 
Q 2709 -91 1959 -91 
Q 1206 -91 779 398 
Q 353 888 353 1747 
Q 353 2609 779 3096 
Q 1206 3584 1959 3584 
z
" transform="scale(0.015625)"/>
       <path id="DejaVuSans-64" d="M 2906 2969 
L 2906 4863 
L 3481 4863 
L 3481 0 
L 2906 0 
L 2906 525 
Q 2725 213 2448 61 
Q 2172 -91 1784 -91 
Q 1150 -91 751 415 
Q 353 922 353 1747 
Q 353 2572 751 3078 
Q 1150 3584 1784 3584 
Q 2172 3584 2448 3432 
Q 2725 3281 2906 2969 
z
M 947 1747 
Q 947 1113 1208 752 
Q 1469 391 1925 391 
Q 2381 391 2643 752 
Q 2906 1113 2906 1747 
Q 2906 2381 2643 2742 
Q 2381 3103 1925 3103 
Q 1469 3103 1208 2742 
Q 947 2381 947 1747 
z
" transform="scale(0.015625)"/>
       <path id="DejaVuSans-73" d="M 2834 3397 
L 2834 2853 
Q 2591 2978 2328 3040 
Q 2066 3103 1784 3103 
Q 1356 3103 1142 2972 
Q 928 2841 928 2578 
Q 928 2378 1081 2264 
Q 1234 2150 1697 2047 
L 1894 2003 
Q 2506 1872 2764 1633 
Q 3022 1394 3022 966 
Q 3022 478 2636 193 
Q 2250 -91 1575 -91 
Q 1294 -91 989 -36 
Q 684 19 347 128 
L 347 722 
Q 666 556 975 473 
Q 1284 391 1588 391 
Q 1994 391 2212 530 
Q 2431 669 2431 922 
Q 2431 1156 2273 1281 
Q 2116 1406 1581 1522 
L 1381 1569 
Q 847 1681 609 1914 
Q 372 2147 372 2553 
Q 372 3047 722 3315 
Q 1072 3584 1716 3584 
Q 2034 3584 2315 3537 
Q 2597 3491 2834 3397 
z
" transform="scale(0.015625)"/>
      </defs>
      <use xlink:href="#DejaVuSans-53"/>
      <use xlink:href="#DejaVuSans-65" x="63.476562"/>
      <use xlink:href="#DejaVuSans-63" x="125"/>
      <use xlink:href="#DejaVuSans-6f" x="179.980469"/>
      <use xlink:href="#DejaVuSans-6e" x="241.162109"/>
      <use xlink:href="#DejaVuSans-64" x="304.541016"/>
      <use xlink:href="#DejaVuSans-73" x="368.017578"/>
     </g>
    </g>
   </g>
   <g id="line2d_15">
    <path d="M 116.528182 648.143039 
L 126.650964 647.988957 
L 136.773747 648.441818 
L 141.835138 647.322179 
L 146.896529 647.094575 
L 151.957921 648.114491 
L 157.019312 647.8294 
L 162.080703 646.562718 
L 167.142094 647.0672 
L 182.326268 646.904905 
L 187.387659 646.445396 
L 192.44905 646.888089 
L 197.510442 646.695682 
L 202.571833 646.694118 
L 207.633224 645.760238 
L 212.694615 646.315951 
L 217.756007 647.149717 
L 222.817398 645.039492 
L 227.878789 644.593279 
L 232.94018 641.651245 
L 238.001572 643.598392 
L 243.062963 641.923822 
L 248.124354 641.752924 
L 253.185745 641.754488 
L 258.247137 641.894492 
L 263.308528 642.522553 
L 268.369919 641.439284 
L 273.43131 642.132655 
L 278.492702 644.084886 
L 283.554093 641.825663 
L 288.615484 641.972315 
L 293.676875 641.877285 
L 298.738266 641.151846 
L 303.799658 642.223774 
L 308.861049 643.143576 
L 313.92244 645.058264 
L 318.983831 641.682531 
L 324.045223 642.567527 
L 329.106614 641.770131 
L 334.168005 642.33171 
L 339.229396 641.979745 
L 344.290788 642.840495 
L 349.352179 641.699347 
L 354.41357 644.147848 
L 364.536353 640.353277 
L 369.597744 643.21084 
L 374.659135 643.578056 
L 379.720526 642.376684 
L 384.781918 642.623841 
L 389.843309 642.093938 
L 394.9047 641.854211 
L 399.966091 642.713396 
L 405.027483 644.08293 
L 410.088874 642.660602 
L 415.150265 643.702026 
L 420.211656 641.747449 
L 425.273047 643.019215 
L 430.334439 644.949546 
L 435.39583 643.332463 
L 440.457221 644.208073 
L 445.518612 643.80175 
L 455.641395 642.216344 
L 460.702786 643.457215 
L 465.764177 642.265228 
L 475.88696 642.833456 
L 480.948351 645.251844 
L 486.009742 642.80217 
L 491.071134 642.293776 
L 496.132525 643.34224 
L 501.193916 641.929688 
L 506.255307 643.476378 
L 511.316699 643.727837 
L 516.37809 642.421266 
L 521.439481 642.910497 
L 526.500872 643.081786 
L 531.562264 642.746246 
L 536.623655 644.482606 
L 541.685046 644.140027 
L 546.746437 643.46973 
L 551.807828 642.317632 
L 561.930611 641.738845 
L 566.992002 643.14162 
L 572.053393 643.421628 
L 577.114785 642.061088 
L 582.176176 643.116201 
L 587.237567 643.689903 
L 592.298958 643.992202 
L 597.36035 644.475176 
L 607.483132 642.298469 
L 612.544523 643.434924 
L 622.667306 642.783398 
L 627.728697 642.745855 
L 637.85148 643.563196 
L 642.912871 644.307406 
L 647.974262 644.270254 
L 653.035653 642.986756 
L 658.097045 644.049689 
L 663.158436 643.321122 
L 668.219827 643.469338 
L 673.281218 643.423192 
L 678.342609 644.448583 
L 683.404001 642.722391 
L 688.465392 643.30196 
L 693.526783 642.136565 
L 698.588174 644.799374 
L 703.649566 643.282015 
L 708.710957 643.799403 
L 713.772348 643.9879 
L 718.833739 643.483417 
L 723.895131 644.60071 
L 728.956522 643.478333 
L 734.017913 644.799765 
L 739.079304 643.474814 
L 744.140696 642.982454 
L 749.202087 643.61208 
L 754.263478 642.526073 
L 759.324869 644.43685 
L 764.386261 642.908541 
L 769.447652 642.943738 
L 774.509043 642.281262 
L 779.570434 642.874127 
L 784.631826 644.811888 
L 789.693217 643.007483 
L 794.754608 643.24721 
L 799.815999 644.479477 
L 804.877391 643.029774 
L 809.938782 642.090419 
L 815.000173 642.817422 
L 820.061564 643.76186 
L 825.122955 643.988682 
L 830.184347 643.717669 
L 835.245738 643.748173 
L 840.307129 643.118938 
L 845.36852 644.281595 
L 850.429912 643.661355 
L 855.491303 643.649232 
L 860.552694 643.488501 
L 865.614085 642.799432 
L 870.675477 643.474031 
L 875.736868 643.082177 
L 880.798259 643.73253 
L 885.85965 642.970331 
L 890.921042 643.034467 
L 895.982433 644.469309 
L 901.043824 642.621495 
L 906.105215 643.000052 
L 911.166607 643.914378 
L 916.227998 643.124413 
L 921.289389 643.785325 
L 926.35078 644.040695 
L 931.412172 642.725129 
L 946.596345 642.764236 
L 951.657736 643.895607 
L 956.719128 642.516687 
L 966.84191 644.676578 
L 971.903301 643.660964 
L 976.964693 643.431013 
L 982.026084 644.054773 
L 987.087475 643.160001 
L 992.148866 644.465399 
L 1002.271649 642.650825 
L 1007.33304 642.527637 
L 1012.394431 643.270674 
L 1022.517214 642.927704 
L 1027.578605 643.563196 
L 1032.639996 643.011002 
L 1037.701388 642.752895 
L 1042.762779 642.840104 
L 1047.82417 642.093156 
L 1052.885561 643.388387 
L 1057.946953 643.8346 
L 1063.008344 642.256624 
L 1068.069735 643.773592 
L 1073.131126 643.53191 
L 1078.192517 643.869796 
L 1083.253909 644.00237 
L 1088.3153 643.932759 
L 1093.376691 644.273773 
L 1098.438082 644.1631 
L 1103.499474 643.311737 
L 1108.560865 643.114245 
L 1113.622256 643.452522 
L 1118.683647 643.231567 
L 1123.745039 644.242488 
L 1128.80643 643.474031 
L 1133.867821 643.73605 
L 1138.929212 642.62697 
L 1143.990604 643.560458 
L 1154.113386 643.563196 
L 1164.236169 644.094663 
L 1169.29756 643.581185 
L 1174.358951 642.917927 
L 1179.420342 643.282015 
L 1184.481734 644.408302 
L 1189.543125 643.628896 
L 1194.604516 644.552999 
L 1199.665907 643.011784 
L 1204.727298 643.668003 
L 1209.78869 643.130279 
L 1214.850081 643.880746 
L 1219.911472 643.954659 
L 1224.972863 643.560458 
L 1230.034255 642.671552 
L 1235.095646 642.458026 
L 1240.157037 643.177208 
L 1250.27982 644.048907 
L 1255.341211 643.792755 
L 1260.402602 643.766553 
L 1265.463993 642.414617 
L 1270.525385 643.748564 
L 1275.586776 643.459171 
L 1280.648167 644.507243 
L 1285.709558 644.404391 
L 1290.77095 642.861222 
L 1295.832341 644.245225 
L 1300.893732 643.910859 
L 1305.955123 644.442325 
L 1311.016515 644.032873 
L 1316.077906 643.250729 
L 1326.200688 643.92963 
L 1331.262079 643.033293 
L 1336.323471 643.978514 
L 1341.384862 643.865885 
L 1346.446253 644.138463 
L 1351.507644 643.574146 
L 1356.569036 644.022705 
L 1361.630427 643.347324 
L 1366.691818 643.84946 
L 1366.691818 643.84946 
" clip-path="url(#p99c04597e2)" style="fill: none; stroke: #1f77b4; stroke-width: 5; stroke-linecap: square"/>
   </g>
   <g id="line2d_16">
    <path d="M 116.528182 648.047618 
L 121.589573 648.252539 
L 131.712356 647.85521 
L 136.773747 648.2455 
L 141.835138 647.05977 
L 146.896529 646.956136 
L 151.957921 648.052702 
L 157.019312 647.729285 
L 162.080703 646.46143 
L 167.142094 646.999545 
L 177.264877 646.607691 
L 182.326268 646.874793 
L 187.387659 646.217792 
L 192.44905 646.526739 
L 197.510442 646.612775 
L 202.571833 646.383607 
L 207.633224 645.336316 
L 212.694615 646.10047 
L 217.756007 647.006975 
L 222.817398 645.119271 
L 227.878789 643.702417 
L 232.94018 640.43462 
L 238.001572 642.806863 
L 243.062963 640.545685 
L 248.124354 640.761947 
L 253.185745 640.690381 
L 258.247137 640.807703 
L 263.308528 641.636384 
L 268.369919 640.280147 
L 273.43131 641.272687 
L 278.492702 643.18542 
L 283.554093 640.809267 
L 288.615484 640.987596 
L 293.676875 640.957483 
L 298.738266 640.023213 
L 303.799658 641.047039 
L 308.861049 642.500653 
L 313.92244 644.520149 
L 318.983831 640.577753 
L 324.045223 641.449843 
L 329.106614 641.193691 
L 334.168005 641.342298 
L 339.229396 641.000501 
L 344.290788 641.752924 
L 349.352179 641.057989 
L 354.41357 643.935496 
L 359.474961 641.178439 
L 364.536353 641.628954 
L 369.597744 642.541716 
L 374.659135 642.720436 
L 379.720526 641.262128 
L 384.781918 641.68605 
L 389.843309 640.993462 
L 394.9047 640.783456 
L 399.966091 641.557779 
L 405.027483 643.643366 
L 410.088874 641.835049 
L 415.150265 642.805689 
L 420.211656 640.730271 
L 425.273047 642.297687 
L 430.334439 644.183045 
L 435.39583 642.319587 
L 440.457221 643.487328 
L 445.518612 642.623841 
L 450.580004 642.03254 
L 455.641395 640.995417 
L 460.702786 642.792002 
L 465.764177 641.216764 
L 470.825569 641.114303 
L 475.88696 641.919911 
L 480.948351 644.607358 
L 486.009742 642.021981 
L 491.071134 641.431854 
L 496.132525 642.401321 
L 501.193916 641.01106 
L 506.255307 642.406796 
L 511.316699 642.677418 
L 516.37809 641.556997 
L 521.439481 641.971924 
L 526.500872 641.839742 
L 531.562264 641.914828 
L 536.623655 643.818957 
L 541.685046 643.343413 
L 546.746437 642.569091 
L 551.807828 641.36107 
L 556.86922 641.626608 
L 561.930611 640.623899 
L 566.992002 642.357912 
L 572.053393 642.811555 
L 577.114785 641.41973 
L 582.176176 642.088463 
L 587.237567 642.890552 
L 592.298958 643.098602 
L 597.36035 643.760296 
L 602.421741 642.590209 
L 607.483132 641.219502 
L 612.544523 642.354783 
L 617.605915 642.341878 
L 622.667306 641.810802 
L 627.728697 641.749795 
L 632.790088 642.153381 
L 637.85148 642.704793 
L 642.912871 643.471685 
L 647.974262 643.651969 
L 653.035653 641.955499 
L 658.097045 643.221008 
L 663.158436 642.212433 
L 673.281218 642.944129 
L 678.342609 643.49554 
L 683.404001 641.740409 
L 688.465392 642.670379 
L 693.526783 641.684095 
L 698.588174 643.821303 
L 703.649566 642.345007 
L 708.710957 643.177599 
L 713.772348 643.14514 
L 718.833739 642.515123 
L 723.895131 643.71063 
L 728.956522 642.324671 
L 734.017913 644.044605 
L 739.079304 642.589036 
L 744.140696 641.635602 
L 749.202087 643.073574 
L 754.263478 641.753315 
L 759.324869 643.886221 
L 764.386261 642.082206 
L 769.447652 641.923431 
L 774.509043 641.009496 
L 779.570434 641.991478 
L 784.631826 643.905384 
L 789.693217 642.135392 
L 794.754608 642.526464 
L 799.815999 643.82365 
L 804.877391 642.093938 
L 809.938782 628.369269 
L 815.000173 641.69309 
L 820.061564 642.84597 
L 825.122955 643.156481 
L 830.184347 642.794739 
L 835.245738 642.853009 
L 840.307129 642.219864 
L 845.36852 643.599174 
L 850.429912 642.704793 
L 855.491303 642.659037 
L 860.552694 642.889379 
L 865.614085 641.89371 
L 870.675477 642.386069 
L 880.798259 642.908932 
L 885.85965 641.808065 
L 895.982433 643.627332 
L 901.043824 641.392747 
L 906.105215 642.311374 
L 911.166607 642.807254 
L 916.227998 642.072821 
L 921.289389 642.489703 
L 926.35078 643.416935 
L 931.412172 641.790076 
L 936.473563 641.803372 
L 946.596345 641.606272 
L 951.657736 642.935525 
L 956.719128 641.408389 
L 961.780519 642.687977 
L 966.84191 643.614426 
L 971.903301 642.782225 
L 976.964693 642.447076 
L 982.026084 643.097429 
L 987.087475 641.711079 
L 992.148866 643.471294 
L 997.210258 642.457635 
L 1007.33304 640.801837 
L 1012.394431 642.681329 
L 1022.517214 642.013769 
L 1027.578605 642.712223 
L 1032.639996 641.987176 
L 1037.701388 640.281711 
L 1042.762779 641.87924 
L 1047.82417 641.117041 
L 1052.885561 642.483837 
L 1057.946953 643.091172 
L 1063.008344 641.484257 
L 1068.069735 643.113463 
L 1073.131126 642.677418 
L 1078.192517 642.967202 
L 1083.253909 643.11229 
L 1088.3153 642.946866 
L 1093.376691 643.20732 
L 1098.438082 643.308608 
L 1103.499474 642.449423 
L 1108.560865 642.07986 
L 1113.622256 642.679373 
L 1118.683647 642.729039 
L 1123.745039 643.483808 
L 1128.80643 642.933179 
L 1133.867821 642.828372 
L 1138.929212 641.498727 
L 1143.990604 642.681329 
L 1149.051995 642.580432 
L 1154.113386 642.616802 
L 1159.174777 643.094692 
L 1164.236169 643.212404 
L 1174.358951 642.10176 
L 1179.420342 642.377075 
L 1184.481734 643.51353 
L 1189.543125 642.607416 
L 1194.604516 643.966391 
L 1199.665907 642.002037 
L 1204.727298 642.854182 
L 1209.78869 642.272267 
L 1214.850081 642.971113 
L 1219.911472 643.185029 
L 1224.972863 642.790829 
L 1230.034255 641.847172 
L 1235.095646 641.790076 
L 1245.218428 642.599203 
L 1250.27982 643.292965 
L 1255.341211 642.808818 
L 1260.402602 642.739989 
L 1265.463993 641.721638 
L 1270.525385 642.996141 
L 1275.586776 642.484228 
L 1280.648167 643.709066 
L 1285.709558 643.692641 
L 1290.77095 641.887061 
L 1295.832341 643.118938 
L 1300.893732 643.108379 
L 1305.955123 643.902646 
L 1311.016515 643.192068 
L 1316.077906 642.264837 
L 1326.200688 643.081786 
L 1331.262079 642.779097 
L 1336.323471 643.178381 
L 1341.384862 642.923011 
L 1346.446253 643.411069 
L 1351.507644 642.748984 
L 1356.569036 643.242908 
L 1361.630427 642.499871 
L 1366.691818 642.662948 
L 1366.691818 642.662948 
" clip-path="url(#p99c04597e2)" style="fill: none; stroke: #ff7f0e; stroke-width: 1.5; stroke-linecap: square"/>
   </g>
   <g id="line2d_17">
    <path d="M 116.528182 645.54593 
L 121.589573 646.169299 
L 126.650964 645.00586 
L 131.712356 645.36682 
L 136.773747 646.486458 
L 141.835138 642.657082 
L 146.896529 642.449032 
L 151.957921 645.208826 
L 157.019312 644.578027 
L 162.080703 639.03732 
L 167.142094 641.410736 
L 172.203485 641.072459 
L 177.264877 639.663426 
L 182.326268 640.86871 
L 187.387659 638.508982 
L 192.44905 640.719712 
L 202.571833 638.746363 
L 207.633224 635.952545 
L 212.694615 637.955224 
L 217.756007 642.730604 
L 222.817398 636.560271 
L 227.878789 633.338229 
L 232.94018 625.287622 
L 238.001572 631.118896 
L 243.062963 626.457709 
L 253.185745 627.057222 
L 258.247137 626.830792 
L 263.308528 628.9242 
L 268.369919 624.862527 
L 273.43131 627.924229 
L 278.492702 631.96322 
L 283.554093 626.576204 
L 288.615484 626.864033 
L 293.676875 626.318097 
L 298.738266 624.657214 
L 303.799658 628.28206 
L 308.861049 630.010989 
L 313.92244 635.537226 
L 318.983831 626.506984 
L 324.045223 627.571873 
L 329.106614 628.040377 
L 334.168005 628.350106 
L 339.229396 628.146358 
L 344.290788 630.322673 
L 349.352179 627.967638 
L 354.41357 634.716366 
L 359.474961 627.913279 
L 364.536353 627.554666 
L 369.597744 630.219821 
L 374.659135 630.648827 
L 379.720526 628.673914 
L 384.781918 627.548018 
L 389.843309 627.91015 
L 394.9047 626.526538 
L 399.966091 627.469412 
L 405.027483 633.235377 
L 410.088874 628.897607 
L 415.150265 631.07314 
L 420.211656 627.613327 
L 425.273047 628.586705 
L 430.334439 635.924388 
L 435.39583 630.5405 
L 440.457221 632.935816 
L 445.518612 631.393819 
L 455.641395 627.311419 
L 460.702786 631.126326 
L 465.764177 628.531564 
L 470.825569 627.260971 
L 475.88696 628.515921 
L 480.948351 636.41792 
L 486.009742 629.312925 
L 491.071134 627.770538 
L 496.132525 628.88392 
L 501.193916 627.507737 
L 506.255307 630.483013 
L 511.316699 631.539689 
L 516.37809 624.342401 
L 521.439481 629.798637 
L 526.500872 627.371253 
L 531.562264 627.604723 
L 536.623655 634.230655 
L 541.685046 632.575639 
L 546.746437 630.797826 
L 551.807828 626.54179 
L 556.86922 626.540616 
L 561.930611 626.245748 
L 566.992002 627.542934 
L 572.053393 631.229569 
L 577.114785 626.499554 
L 582.176176 629.306277 
L 587.237567 631.432926 
L 592.298958 632.963582 
L 597.36035 633.638181 
L 602.421741 630.4967 
L 607.483132 627.70562 
L 612.544523 630.711008 
L 617.605915 629.841264 
L 622.667306 629.186609 
L 627.728697 627.020853 
L 632.790088 629.015711 
L 637.85148 630.124791 
L 642.912871 633.571699 
L 647.974262 633.935396 
L 653.035653 629.397006 
L 658.097045 630.485359 
L 663.158436 628.851069 
L 668.219827 631.277671 
L 673.281218 631.567064 
L 678.342609 633.569352 
L 683.404001 627.682547 
L 688.465392 631.217055 
L 693.526783 629.257393 
L 698.588174 635.283812 
L 703.649566 629.086886 
L 708.710957 632.186131 
L 713.772348 631.413764 
L 718.833739 630.134959 
L 723.895131 634.606866 
L 728.956522 630.491616 
L 734.017913 634.371832 
L 739.079304 629.831096 
L 744.140696 625.875012 
L 749.202087 632.266692 
L 754.263478 626.022446 
L 759.324869 634.412895 
L 764.386261 629.476002 
L 769.447652 626.384579 
L 774.509043 627.971158 
L 779.570434 628.757212 
L 784.631826 634.493064 
L 789.693217 629.122082 
L 794.754608 628.59961 
L 799.815999 635.116433 
L 804.877391 628.771682 
L 809.938782 627.668077 
L 815.000173 627.309073 
L 820.061564 630.71922 
L 825.122955 632.448931 
L 830.184347 630.184234 
L 835.245738 629.966016 
L 840.307129 628.636762 
L 845.36852 632.912352 
L 850.429912 628.393124 
L 855.491303 630.754026 
L 860.552694 630.858442 
L 865.614085 628.862411 
L 870.675477 630.42357 
L 875.736868 631.209624 
L 880.798259 632.29876 
L 885.85965 629.465443 
L 890.921042 630.499047 
L 895.982433 634.614688 
L 901.043824 625.000966 
L 906.105215 629.645337 
L 911.166607 631.942884 
L 916.227998 629.604274 
L 921.289389 631.115767 
L 926.35078 632.454406 
L 931.412172 629.005152 
L 936.473563 626.337259 
L 941.534954 628.173342 
L 946.596345 628.055629 
L 951.657736 629.989871 
L 956.719128 627.675507 
L 961.780519 628.860455 
L 966.84191 635.040174 
L 971.903301 631.400859 
L 976.964693 629.75953 
L 982.026084 632.723073 
L 987.087475 629.526842 
L 992.148866 634.426582 
L 997.210258 630.122053 
L 1002.271649 626.610227 
L 1007.33304 628.623857 
L 1012.394431 629.127557 
L 1017.455823 630.148255 
L 1022.517214 629.050516 
L 1027.578605 630.367255 
L 1032.639996 628.269154 
L 1037.701388 628.940234 
L 1047.82417 628.674305 
L 1052.885561 630.020375 
L 1057.946953 631.515443 
L 1063.008344 629.189347 
L 1068.069735 632.161102 
L 1073.131126 630.612849 
L 1078.192517 631.787629 
L 1083.253909 632.019143 
L 1088.3153 632.457926 
L 1093.376691 633.551754 
L 1098.438082 633.386331 
L 1103.499474 628.681344 
L 1108.560865 627.644613 
L 1113.622256 629.46427 
L 1123.745039 633.543933 
L 1128.80643 632.577203 
L 1133.867821 629.702042 
L 1138.929212 628.933195 
L 1143.990604 631.099342 
L 1149.051995 629.944116 
L 1154.113386 630.611284 
L 1159.174777 632.813801 
L 1164.236169 633.253366 
L 1169.29756 631.580361 
L 1174.358951 629.479913 
L 1179.420342 630.786484 
L 1184.481734 634.303785 
L 1189.543125 630.675811 
L 1194.604516 636.092549 
L 1199.665907 629.364156 
L 1204.727298 630.326975 
L 1209.78869 630.240157 
L 1214.850081 631.68243 
L 1219.911472 632.491949 
L 1224.972863 631.192417 
L 1230.034255 628.51201 
L 1235.095646 628.074401 
L 1240.157037 627.221082 
L 1245.218428 631.384433 
L 1250.27982 633.752374 
L 1255.341211 631.546728 
L 1260.402602 632.7657 
L 1265.463993 629.529579 
L 1270.525385 632.463792 
L 1275.586776 630.322673 
L 1280.648167 634.087523 
L 1285.709558 635.118779 
L 1290.77095 629.155715 
L 1295.832341 633.789917 
L 1300.893732 631.72975 
L 1305.955123 635.304148 
L 1311.016515 631.843161 
L 1316.077906 628.711457 
L 1321.139297 632.419992 
L 1326.200688 631.522091 
L 1331.262079 632.026574 
L 1336.323471 633.453204 
L 1341.384862 632.345297 
L 1346.446253 634.33468 
L 1351.507644 632.551783 
L 1356.569036 634.356189 
L 1361.630427 632.128252 
L 1366.691818 633.890814 
L 1366.691818 633.890814 
" clip-path="url(#p99c04597e2)" style="fill: none; stroke: #2ca02c; stroke-width: 1.5; stroke-linecap: square"/>
   </g>
   <g id="line2d_18">
    <path d="M 116.528182 584.071768 
L 121.589573 591.926448 
L 126.650964 579.53025 
L 131.712356 578.680842 
L 136.773747 597.880518 
L 141.835138 566.585378 
L 146.896529 562.411858 
L 151.957921 585.143697 
L 157.019312 586.517532 
L 162.080703 531.703325 
L 167.142094 547.114297 
L 172.203485 547.146365 
L 177.264877 540.911896 
L 182.326268 537.85254 
L 187.387659 513.301044 
L 192.44905 542.349477 
L 197.510442 543.951307 
L 202.571833 528.329157 
L 207.633224 502.108174 
L 212.694615 528.214572 
L 217.756007 555.107416 
L 222.817398 507.669608 
L 227.878789 483.980426 
L 232.94018 402.108733 
L 238.001572 461.397586 
L 243.062963 411.273504 
L 248.124354 407.367478 
L 253.185745 419.481322 
L 258.247137 421.726075 
L 263.308528 442.702 
L 268.369919 399.836996 
L 273.43131 429.699641 
L 278.492702 460.278338 
L 283.554093 420.095305 
L 288.615484 427.788081 
L 293.676875 409.945033 
L 298.738266 412.829971 
L 303.799658 429.676567 
L 308.861049 444.844293 
L 313.92244 494.736077 
L 318.983831 417.071928 
L 324.045223 429.731318 
L 329.106614 433.392142 
L 334.168005 429.109904 
L 339.229396 431.242811 
L 344.290788 440.709098 
L 349.352179 428.884256 
L 354.41357 484.254958 
L 359.474961 426.280108 
L 364.536353 433.014758 
L 369.597744 445.443415 
L 374.659135 458.174762 
L 379.720526 440.857314 
L 384.781918 436.205513 
L 389.843309 431.202139 
L 394.9047 416.827117 
L 399.966091 436.208642 
L 405.027483 477.507794 
L 410.088874 438.186293 
L 415.150265 462.257553 
L 420.211656 432.410551 
L 425.273047 436.067465 
L 430.334439 492.861669 
L 435.39583 444.621773 
L 440.457221 479.000907 
L 445.518612 455.630839 
L 450.580004 440.386855 
L 455.641395 433.146549 
L 460.702786 449.211393 
L 465.764177 427.597238 
L 470.825569 435.012353 
L 475.88696 435.465605 
L 480.948351 507.131884 
L 486.009742 444.126676 
L 491.071134 424.178096 
L 496.132525 438.843685 
L 501.193916 435.287277 
L 506.255307 450.553943 
L 511.316699 462.777287 
L 516.37809 415.197911 
L 521.439481 444.008963 
L 526.500872 424.898451 
L 531.562264 431.817686 
L 536.623655 485.936959 
L 541.685046 469.758312 
L 546.746437 452.226557 
L 551.807828 435.335378 
L 556.86922 432.244737 
L 561.930611 428.058312 
L 566.992002 426.072057 
L 572.053393 444.856025 
L 577.114785 432.259207 
L 582.176176 437.453815 
L 587.237567 453.932413 
L 592.298958 494.21165 
L 597.36035 473.287346 
L 602.421741 462.47538 
L 607.483132 423.508581 
L 612.544523 449.897333 
L 617.605915 448.384276 
L 622.667306 444.662053 
L 627.728697 429.617907 
L 632.790088 439.056037 
L 637.85148 442.328918 
L 642.912871 472.25648 
L 647.974262 484.086797 
L 653.035653 436.871118 
L 658.097045 448.961107 
L 663.158436 431.276443 
L 668.219827 450.194157 
L 673.281218 457.675754 
L 678.342609 482.177975 
L 683.404001 438.788544 
L 688.465392 452.639529 
L 693.526783 441.863542 
L 698.588174 493.880803 
L 703.649566 443.553364 
L 708.710957 466.217938 
L 713.772348 455.234292 
L 718.833739 450.25008 
L 723.895131 479.920708 
L 728.956522 452.400976 
L 734.017913 487.928297 
L 739.079304 442.078241 
L 744.140696 428.000042 
L 749.202087 469.075501 
L 754.263478 427.387232 
L 759.324869 486.620161 
L 764.386261 443.6175 
L 769.447652 427.72199 
L 774.509043 433.709692 
L 779.570434 439.023969 
L 784.631826 484.142329 
L 789.693217 438.69586 
L 794.754608 436.465967 
L 799.815999 491.04866 
L 804.877391 439.562084 
L 809.938782 430.047695 
L 815.000173 426.330947 
L 820.061564 454.454494 
L 825.122955 472.003065 
L 830.184347 445.679622 
L 835.245738 439.5132 
L 840.307129 441.50884 
L 845.36852 463.170315 
L 850.429912 436.327137 
L 855.491303 453.955878 
L 860.552694 458.445383 
L 865.614085 431.270968 
L 870.675477 449.939569 
L 875.736868 454.232757 
L 880.798259 455.501394 
L 885.85965 443.927229 
L 890.921042 449.501568 
L 895.982433 481.576506 
L 901.043824 418.139945 
L 906.105215 440.362608 
L 911.166607 455.911237 
L 916.227998 448.811326 
L 921.289389 451.776043 
L 926.35078 469.704736 
L 931.412172 440.637141 
L 936.473563 435.212973 
L 941.534954 438.272329 
L 946.596345 436.10227 
L 951.657736 445.016364 
L 956.719128 441.774769 
L 961.780519 434.398761 
L 966.84191 494.127569 
L 971.903301 456.941712 
L 976.964693 445.757054 
L 982.026084 464.971201 
L 987.087475 446.193491 
L 992.148866 491.000949 
L 997.210258 447.292012 
L 1002.271649 436.99235 
L 1007.33304 439.493255 
L 1012.394431 440.689544 
L 1017.455823 452.041972 
L 1022.517214 442.267128 
L 1027.578605 460.995564 
L 1032.639996 440.079863 
L 1037.701388 440.493617 
L 1042.762779 439.337218 
L 1047.82417 437.589517 
L 1052.885561 444.787196 
L 1057.946953 466.429117 
L 1063.008344 446.83915 
L 1068.069735 466.104527 
L 1073.131126 458.576393 
L 1078.192517 456.246386 
L 1083.253909 458.841148 
L 1088.3153 464.071735 
L 1093.376691 484.534966 
L 1098.438082 484.652287 
L 1103.499474 435.451918 
L 1108.560865 422.195361 
L 1113.622256 444.710937 
L 1118.683647 466.107656 
L 1123.745039 473.756632 
L 1128.80643 466.925778 
L 1133.867821 442.090755 
L 1138.929212 444.870885 
L 1143.990604 451.385753 
L 1149.051995 440.164726 
L 1154.113386 453.963699 
L 1159.174777 470.572915 
L 1164.236169 466.423251 
L 1169.29756 457.138812 
L 1174.358951 448.395226 
L 1179.420342 446.029241 
L 1184.481734 492.744739 
L 1189.543125 456.567456 
L 1194.604516 501.506706 
L 1199.665907 447.265419 
L 1204.727298 446.22243 
L 1209.78869 450.749088 
L 1214.850081 460.922824 
L 1219.911472 466.256654 
L 1224.972863 455.95973 
L 1230.034255 438.839383 
L 1235.095646 443.633534 
L 1240.157037 430.837269 
L 1245.218428 462.815612 
L 1250.27982 482.364907 
L 1255.341211 450.769032 
L 1260.402602 474.401901 
L 1265.463993 448.839875 
L 1270.525385 474.672522 
L 1275.586776 449.079993 
L 1280.648167 492.310649 
L 1285.709558 505.836263 
L 1290.77095 445.613922 
L 1295.832341 481.396613 
L 1300.893732 460.688181 
L 1305.955123 499.500507 
L 1311.016515 468.253468 
L 1316.077906 440.694628 
L 1321.139297 487.874329 
L 1326.200688 461.284957 
L 1331.262079 462.252078 
L 1336.323471 479.60042 
L 1341.384862 474.56224 
L 1346.446253 488.349481 
L 1351.507644 470.403972 
L 1356.569036 494.510038 
L 1361.630427 474.333072 
L 1366.691818 489.458952 
L 1366.691818 489.458952 
" clip-path="url(#p99c04597e2)" style="fill: none; stroke: #d62728; stroke-width: 1.5; stroke-linecap: square"/>
   </g>
   <g id="line2d_19">
    <path d="M 116.528182 646.100862 
L 121.589573 645.577216 
L 126.650964 646.99407 
L 136.773747 646.369919 
L 141.835138 645.559618 
L 146.896529 646.478637 
L 151.957921 646.524392 
L 157.019312 645.799736 
L 162.080703 645.935829 
L 167.142094 645.428218 
L 172.203485 646.630764 
L 177.264877 645.712136 
L 182.326268 646.123935 
L 187.387659 645.910801 
L 192.44905 645.922533 
L 197.510442 644.459533 
L 202.571833 645.321455 
L 207.633224 645.675375 
L 212.694615 644.803676 
L 217.756007 645.91784 
L 222.817398 643.505317 
L 227.878789 643.362185 
L 232.94018 637.142968 
L 238.001572 640.486242 
L 243.062963 636.824244 
L 248.124354 637.458954 
L 258.247137 637.528956 
L 263.308528 639.279394 
L 268.369919 636.417138 
L 278.492702 640.027514 
L 283.554093 637.185986 
L 288.615484 637.684602 
L 293.676875 637.385432 
L 298.738266 636.447251 
L 303.799658 637.52309 
L 308.861049 639.520685 
L 313.92244 642.309419 
L 318.983831 636.376467 
L 324.045223 637.249339 
L 329.106614 637.408115 
L 334.168005 637.200846 
L 339.229396 637.986119 
L 344.290788 638.255958 
L 349.352179 636.416747 
L 354.41357 641.453363 
L 359.474961 637.344761 
L 364.536353 637.655272 
L 369.597744 638.909831 
L 374.659135 639.501914 
L 379.720526 637.795667 
L 384.781918 637.03816 
L 389.843309 636.806255 
L 394.9047 635.817625 
L 399.966091 637.73114 
L 405.027483 640.41272 
L 410.088874 637.813656 
L 415.150265 639.669292 
L 420.211656 636.715135 
L 425.273047 637.484374 
L 430.334439 641.447106 
L 435.39583 638.316575 
L 440.457221 640.576579 
L 445.518612 638.47183 
L 450.580004 637.155482 
L 455.641395 637.225093 
L 460.702786 638.768263 
L 465.764177 636.60016 
L 470.825569 637.116766 
L 475.88696 637.310347 
L 480.948351 641.443195 
L 486.009742 637.713151 
L 491.071134 637.291575 
L 496.132525 638.706864 
L 501.193916 636.941957 
L 506.255307 639.257885 
L 511.316699 639.785441 
L 516.37809 637.828908 
L 521.439481 638.239533 
L 531.562264 637.856283 
L 536.623655 641.283246 
L 541.685046 639.34001 
L 546.746437 638.113217 
L 551.807828 637.521134 
L 556.86922 637.270066 
L 561.930611 636.852792 
L 566.992002 637.990421 
L 572.053393 639.407274 
L 577.114785 637.163695 
L 582.176176 637.1766 
L 587.237567 639.114752 
L 592.298958 641.26995 
L 597.36035 639.968854 
L 602.421741 639.916059 
L 607.483132 636.863351 
L 612.544523 638.62865 
L 617.605915 637.885613 
L 622.667306 637.387779 
L 627.728697 637.78589 
L 632.790088 637.792929 
L 637.85148 638.623175 
L 642.912871 639.309506 
L 647.974262 639.39828 
L 653.035653 638.343559 
L 658.097045 640.107293 
L 663.158436 637.735442 
L 668.219827 638.883629 
L 673.281218 638.57038 
L 678.342609 640.367747 
L 683.404001 637.386215 
L 688.465392 639.279785 
L 693.526783 638.009974 
L 698.588174 640.383781 
L 703.649566 638.494903 
L 708.710957 639.567614 
L 713.772348 639.775664 
L 718.833739 638.992738 
L 723.895131 640.472945 
L 728.956522 639.185145 
L 734.017913 640.81396 
L 739.079304 639.355653 
L 744.140696 638.101485 
L 749.202087 639.645828 
L 754.263478 637.027993 
L 759.324869 640.494845 
L 764.386261 638.261825 
L 769.447652 638.277467 
L 774.509043 637.260289 
L 779.570434 638.26026 
L 784.631826 639.451465 
L 789.693217 637.901256 
L 794.754608 638.576246 
L 799.815999 640.583619 
L 809.938782 636.645133 
L 815.000173 637.201237 
L 820.061564 638.435069 
L 825.122955 639.910193 
L 830.184347 639.201179 
L 835.245738 638.629041 
L 840.307129 638.207075 
L 845.36852 639.571916 
L 850.429912 639.770189 
L 855.491303 637.902821 
L 860.552694 639.09559 
L 865.614085 637.097212 
L 870.675477 638.542223 
L 875.736868 637.330682 
L 880.798259 638.53362 
L 885.85965 638.164839 
L 890.921042 639.052963 
L 895.982433 640.286795 
L 901.043824 637.613036 
L 906.105215 638.795247 
L 911.166607 638.314619 
L 921.289389 638.304842 
L 926.35078 640.014609 
L 931.412172 638.314228 
L 936.473563 637.680692 
L 946.596345 637.085871 
L 951.657736 639.289171 
L 956.719128 638.043998 
L 961.780519 639.043968 
L 966.84191 640.493281 
L 971.903301 638.264171 
L 976.964693 638.27121 
L 982.026084 639.542976 
L 987.087475 638.033439 
L 992.148866 640.56211 
L 997.210258 638.554346 
L 1002.271649 637.572365 
L 1007.33304 638.153107 
L 1012.394431 639.038102 
L 1017.455823 638.564514 
L 1022.517214 637.580186 
L 1027.578605 639.880862 
L 1032.639996 637.83321 
L 1042.762779 638.110871 
L 1047.82417 637.134755 
L 1052.885561 638.645857 
L 1057.946953 640.291879 
L 1063.008344 637.40264 
L 1068.069735 639.050617 
L 1073.131126 639.491746 
L 1078.192517 638.799548 
L 1083.253909 638.866422 
L 1088.3153 639.058438 
L 1093.376691 640.254336 
L 1098.438082 639.250846 
L 1103.499474 638.410432 
L 1113.622256 639.783877 
L 1118.683647 639.46789 
L 1123.745039 638.594627 
L 1128.80643 638.894579 
L 1133.867821 638.648204 
L 1138.929212 637.70924 
L 1143.990604 638.188303 
L 1149.051995 638.467137 
L 1154.113386 638.366632 
L 1159.174777 638.402219 
L 1164.236169 639.286433 
L 1169.29756 638.429203 
L 1174.358951 638.105396 
L 1179.420342 638.057294 
L 1184.481734 640.070532 
L 1189.543125 638.517195 
L 1194.604516 640.79949 
L 1199.665907 637.998633 
L 1204.727298 638.611052 
L 1209.78869 638.349816 
L 1214.850081 638.650941 
L 1219.911472 638.80385 
L 1224.972863 638.43898 
L 1230.034255 637.66896 
L 1235.095646 637.598567 
L 1245.218428 638.551609 
L 1250.27982 639.059611 
L 1255.341211 638.753011 
L 1260.402602 638.67245 
L 1265.463993 638.333 
L 1270.525385 638.978659 
L 1275.586776 637.935671 
L 1280.648167 640.367356 
L 1285.709558 640.246906 
L 1290.77095 638.009192 
L 1295.832341 639.11397 
L 1300.893732 638.941117 
L 1305.955123 640.225397 
L 1311.016515 639.250063 
L 1316.077906 638.009974 
L 1321.139297 640.00053 
L 1326.200688 639.225035 
L 1331.262079 638.679489 
L 1336.323471 639.537501 
L 1341.384862 638.629041 
L 1346.446253 639.52968 
L 1351.507644 638.578984 
L 1356.569036 638.993911 
L 1361.630427 638.378364 
L 1366.691818 638.956759 
L 1366.691818 638.956759 
" clip-path="url(#p99c04597e2)" style="fill: none; stroke: #9467bd; stroke-width: 1.5; stroke-linecap: square"/>
   </g>
   <g id="line2d_20">
    <path d="M 116.528182 605.145462 
L 121.589573 604.899087 
L 131.712356 603.722351 
L 136.773747 603.431002 
L 146.896529 602.075938 
L 151.957921 601.633636 
L 157.019312 598.49763 
L 162.080703 596.994349 
L 167.142094 595.180949 
L 172.203485 590.465795 
L 177.264877 586.023217 
L 182.326268 583.405773 
L 187.387659 580.143451 
L 192.44905 575.018062 
L 197.510442 574.934373 
L 202.571833 572.424864 
L 207.633224 570.734651 
L 212.694615 570.366261 
L 217.756007 560.657118 
L 222.817398 514.377274 
L 227.878789 512.368729 
L 232.94018 487.121124 
L 238.001572 481.390356 
L 243.062963 476.105801 
L 248.124354 468.101732 
L 253.185745 462.031513 
L 258.247137 459.568542 
L 263.308528 457.777824 
L 268.369919 457.722291 
L 273.43131 457.51385 
L 278.492702 442.743845 
L 283.554093 442.421602 
L 288.615484 438.837819 
L 293.676875 433.554437 
L 298.738266 426.838167 
L 303.799658 419.52082 
L 308.861049 417.483336 
L 313.92244 413.254284 
L 318.983831 412.222245 
L 324.045223 411.308701 
L 329.106614 410.853102 
L 334.168005 409.205907 
L 339.229396 404.640142 
L 344.290788 403.941296 
L 349.352179 401.970685 
L 354.41357 391.288164 
L 359.474961 388.459932 
L 364.536353 386.605077 
L 369.597744 386.354009 
L 374.659135 384.859723 
L 379.720526 384.483903 
L 384.781918 383.185544 
L 389.843309 382.650167 
L 394.9047 380.196582 
L 399.966091 376.701572 
L 405.027483 373.780264 
L 410.088874 369.738927 
L 415.150265 368.697893 
L 420.211656 366.872761 
L 425.273047 364.893155 
L 430.334439 364.706613 
L 435.39583 360.549127 
L 440.457221 360.158056 
L 450.580004 358.572259 
L 455.641395 356.402201 
L 460.702786 355.705702 
L 465.764177 354.132028 
L 475.88696 353.534861 
L 480.948351 352.715957 
L 486.009742 352.186054 
L 491.071134 350.269411 
L 496.132525 348.622998 
L 501.193916 346.392323 
L 506.255307 346.156507 
L 511.316699 344.750994 
L 516.37809 343.608282 
L 521.439481 343.444423 
L 526.500872 339.766 
L 531.562264 339.260344 
L 536.623655 338.511833 
L 541.685046 338.454736 
L 546.746437 338.068748 
L 551.807828 335.355882 
L 556.86922 335.219398 
L 561.930611 334.189706 
L 566.992002 333.507285 
L 572.053393 333.407953 
L 582.176176 332.496364 
L 587.237567 331.48427 
L 592.298958 329.499189 
L 597.36035 328.588382 
L 607.483132 327.036218 
L 612.544523 326.886437 
L 617.605915 326.371787 
L 622.667306 325.376117 
L 627.728697 322.574478 
L 632.790088 321.89675 
L 637.85148 320.898735 
L 642.912871 320.412632 
L 647.974262 318.428724 
L 663.158436 317.779154 
L 668.219827 315.71625 
L 673.281218 314.740525 
L 678.342609 314.422584 
L 683.404001 313.584516 
L 688.465392 313.064391 
L 693.526783 312.305711 
L 698.588174 311.32764 
L 703.649566 310.786006 
L 708.710957 310.730864 
L 713.772348 310.13448 
L 723.895131 307.961293 
L 728.956522 307.364126 
L 734.017913 307.323064 
L 739.079304 306.029789 
L 744.140696 305.078702 
L 749.202087 304.596119 
L 754.263478 303.780734 
L 759.324869 302.195328 
L 764.386261 300.33891 
L 769.447652 298.352264 
L 774.509043 297.715599 
L 779.570434 295.039885 
L 784.631826 294.111871 
L 789.693217 293.587444 
L 794.754608 293.287101 
L 804.877391 293.1338 
L 815.000173 292.330539 
L 820.061564 291.666107 
L 830.184347 289.031456 
L 835.245738 289.00017 
L 840.307129 288.457753 
L 845.36852 288.339259 
L 855.491303 287.544209 
L 865.614085 287.177775 
L 870.675477 283.161466 
L 880.798259 282.512678 
L 885.85965 281.405944 
L 890.921042 280.520948 
L 895.982433 280.395805 
L 901.043824 279.966408 
L 906.105215 277.940656 
L 916.227998 277.615675 
L 921.289389 277.039626 
L 926.35078 276.705651 
L 936.473563 273.304107 
L 941.534954 273.299805 
L 951.657736 270.929127 
L 956.719128 270.595934 
L 961.780519 269.797365 
L 966.84191 265.929663 
L 971.903301 263.636026 
L 976.964693 260.930591 
L 982.026084 260.449572 
L 987.087475 260.265768 
L 997.210258 258.975231 
L 1002.271649 256.077388 
L 1007.33304 255.744977 
L 1012.394431 255.16228 
L 1022.517214 254.176778 
L 1027.578605 254.153314 
L 1032.639996 252.604669 
L 1037.701388 252.44433 
L 1042.762779 250.395113 
L 1047.82417 249.804594 
L 1052.885561 248.80345 
L 1057.946953 247.01234 
L 1063.008344 246.742501 
L 1068.069735 245.823482 
L 1073.131126 243.128996 
L 1078.192517 241.599905 
L 1083.253909 241.310512 
L 1088.3153 239.949581 
L 1093.376691 238.068525 
L 1098.438082 237.622703 
L 1108.560865 237.44281 
L 1113.622256 236.523791 
L 1118.683647 236.007576 
L 1123.745039 235.86679 
L 1128.80643 235.86679 
L 1133.867821 233.273983 
L 1138.929212 232.190714 
L 1143.990604 232.155518 
L 1149.051995 230.313569 
L 1154.113386 229.746514 
L 1159.174777 229.637014 
L 1164.236169 229.093424 
L 1169.29756 229.030853 
L 1174.358951 226.156474 
L 1179.420342 224.858115 
L 1189.543125 223.203881 
L 1194.604516 222.750237 
L 1199.665907 222.597719 
L 1204.727298 222.226201 
L 1209.78869 220.912199 
L 1214.850081 220.392074 
L 1219.911472 217.842285 
L 1224.972863 217.822731 
L 1230.034255 216.895891 
L 1235.095646 215.382442 
L 1240.157037 212.547171 
L 1245.218428 209.12138 
L 1250.27982 208.104593 
L 1255.341211 205.453126 
L 1260.402602 204.846964 
L 1265.463993 200.951888 
L 1270.525385 200.42003 
L 1275.586776 199.665261 
L 1280.648167 194.291933 
L 1285.709558 193.939968 
L 1290.77095 193.771807 
L 1295.832341 191.609179 
L 1300.893732 191.476215 
L 1305.955123 189.571694 
L 1311.016515 188.938158 
L 1316.077906 179.775342 
L 1321.139297 177.624447 
L 1326.200688 168.977846 
L 1331.262079 162.654213 
L 1336.323471 162.075426 
L 1341.384862 158.481475 
L 1346.446253 135.255713 
L 1351.507644 111.361218 
L 1356.569036 83.724164 
L 1361.630427 56.720646 
L 1366.691818 56.478182 
L 1366.691818 56.478182 
" clip-path="url(#p99c04597e2)" style="fill: none; stroke: #8c564b; stroke-width: 5; stroke-linecap: square"/>
   </g>
   <g id="patch_3">
    <path d="M 54.02 678.04 
L 54.02 26.88 
" style="fill: none; stroke: #000000; stroke-width: 0.8; stroke-linejoin: miter; stroke-linecap: square"/>
   </g>
   <g id="patch_4">
    <path d="M 1429.2 678.04 
L 1429.2 26.88 
" style="fill: none; stroke: #000000; stroke-width: 0.8; stroke-linejoin: miter; stroke-linecap: square"/>
   </g>
   <g id="patch_5">
    <path d="M 54.02 678.04 
L 1429.2 678.04 
" style="fill: none; stroke: #000000; stroke-width: 0.8; stroke-linejoin: miter; stroke-linecap: square"/>
   </g>
   <g id="patch_6">
    <path d="M 54.02 26.88 
L 1429.2 26.88 
" style="fill: none; stroke: #000000; stroke-width: 0.8; stroke-linejoin: miter; stroke-linecap: square"/>
   </g>
   <g id="text_17">
    <!-- Encode times, CID22 set -->
    <g transform="translate(667.852188 20.88) scale(0.12 -0.12)">
     <defs>
      <path id="DejaVuSans-45" d="M 628 4666 
L 3578 4666 
L 3578 4134 
L 1259 4134 
L 1259 2753 
L 3481 2753 
L 3481 2222 
L 1259 2222 
L 1259 531 
L 3634 531 
L 3634 0 
L 628 0 
L 628 4666 
z
" transform="scale(0.015625)"/>
      <path id="DejaVuSans-74" d="M 1172 4494 
L 1172 3500 
L 2356 3500 
L 2356 3053 
L 1172 3053 
L 1172 1153 
Q 1172 725 1289 603 
Q 1406 481 1766 481 
L 2356 481 
L 2356 0 
L 1766 0 
Q 1100 0 847 248 
Q 594 497 594 1153 
L 594 3053 
L 172 3053 
L 172 3500 
L 594 3500 
L 594 4494 
L 1172 4494 
z
" transform="scale(0.015625)"/>
      <path id="DejaVuSans-2c" d="M 750 794 
L 1409 794 
L 1409 256 
L 897 -744 
L 494 -744 
L 750 256 
L 750 794 
z
" transform="scale(0.015625)"/>
      <path id="DejaVuSans-43" d="M 4122 4306 
L 4122 3641 
Q 3803 3938 3442 4084 
Q 3081 4231 2675 4231 
Q 1875 4231 1450 3742 
Q 1025 3253 1025 2328 
Q 1025 1406 1450 917 
Q 1875 428 2675 428 
Q 3081 428 3442 575 
Q 3803 722 4122 1019 
L 4122 359 
Q 3791 134 3420 21 
Q 3050 -91 2638 -91 
Q 1578 -91 968 557 
Q 359 1206 359 2328 
Q 359 3453 968 4101 
Q 1578 4750 2638 4750 
Q 3056 4750 3426 4639 
Q 3797 4528 4122 4306 
z
" transform="scale(0.015625)"/>
      <path id="DejaVuSans-49" d="M 628 4666 
L 1259 4666 
L 1259 0 
L 628 0 
L 628 4666 
z
" transform="scale(0.015625)"/>
      <path id="DejaVuSans-44" d="M 1259 4147 
L 1259 519 
L 2022 519 
Q 2988 519 3436 956 
Q 3884 1394 3884 2338 
Q 3884 3275 3436 3711 
Q 2988 4147 2022 4147 
L 1259 4147 
z
M 628 4666 
L 1925 4666 
Q 3281 4666 3915 4102 
Q 4550 3538 4550 2338 
Q 4550 1131 3912 565 
Q 3275 0 1925 0 
L 628 0 
L 628 4666 
z
" transform="scale(0.015625)"/>
     </defs>
     <use xlink:href="#DejaVuSans-45"/>
     <use xlink:href="#DejaVuSans-6e" x="63.183594"/>
     <use xlink:href="#DejaVuSans-63" x="126.5625"/>
     <use xlink:href="#DejaVuSans-6f" x="181.542969"/>
     <use xlink:href="#DejaVuSans-64" x="242.724609"/>
     <use xlink:href="#DejaVuSans-65" x="306.201172"/>
     <use xlink:href="#DejaVuSans-20" x="367.724609"/>
     <use xlink:href="#DejaVuSans-74" x="399.511719"/>
     <use xlink:href="#DejaVuSans-69" x="438.720703"/>
     <use xlink:href="#DejaVuSans-6d" x="466.503906"/>
     <use xlink:href="#DejaVuSans-65" x="563.916016"/>
     <use xlink:href="#DejaVuSans-73" x="625.439453"/>
     <use xlink:href="#DejaVuSans-2c" x="677.539062"/>
     <use xlink:href="#DejaVuSans-20" x="709.326172"/>
     <use xlink:href="#DejaVuSans-43" x="741.113281"/>
     <use xlink:href="#DejaVuSans-49" x="810.9375"/>
     <use xlink:href="#DejaVuSans-44" x="840.429688"/>
     <use xlink:href="#DejaVuSans-32" x="917.431641"/>
     <use xlink:href="#DejaVuSans-32" x="981.054688"/>
     <use xlink:href="#DejaVuSans-20" x="1044.677734"/>
     <use xlink:href="#DejaVuSans-73" x="1076.464844"/>
     <use xlink:href="#DejaVuSans-65" x="1128.564453"/>
     <use xlink:href="#DejaVuSans-74" x="1190.087891"/>
    </g>
   </g>
   <g id="legend_1">
    <g id="patch_7">
     <path d="M 61.02 122.94875 
L 189.393438 122.94875 
Q 191.393438 122.94875 191.393438 120.94875 
L 191.393438 33.88 
Q 191.393438 31.88 189.393438 31.88 
L 61.02 31.88 
Q 59.02 31.88 59.02 33.88 
L 59.02 120.94875 
Q 59.02 122.94875 61.02 122.94875 
z
" style="fill: #ffffff; opacity: 0.8; stroke: #cccccc; stroke-linejoin: miter"/>
    </g>
    <g id="line2d_21">
     <path d="M 63.02 39.978438 
L 73.02 39.978438 
L 83.02 39.978438 
" style="fill: none; stroke: #1f77b4; stroke-width: 5; stroke-linecap: square"/>
    </g>
    <g id="text_18">
     <!-- QB3 Fast -->
     <g transform="translate(91.02 43.478438) scale(0.1 -0.1)">
      <defs>
       <path id="DejaVuSans-51" d="M 2522 4238 
Q 1834 4238 1429 3725 
Q 1025 3213 1025 2328 
Q 1025 1447 1429 934 
Q 1834 422 2522 422 
Q 3209 422 3611 934 
Q 4013 1447 4013 2328 
Q 4013 3213 3611 3725 
Q 3209 4238 2522 4238 
z
M 3406 84 
L 4238 -825 
L 3475 -825 
L 2784 -78 
Q 2681 -84 2626 -87 
Q 2572 -91 2522 -91 
Q 1538 -91 948 567 
Q 359 1225 359 2328 
Q 359 3434 948 4092 
Q 1538 4750 2522 4750 
Q 3503 4750 4090 4092 
Q 4678 3434 4678 2328 
Q 4678 1516 4351 937 
Q 4025 359 3406 84 
z
" transform="scale(0.015625)"/>
       <path id="DejaVuSans-42" d="M 1259 2228 
L 1259 519 
L 2272 519 
Q 2781 519 3026 730 
Q 3272 941 3272 1375 
Q 3272 1813 3026 2020 
Q 2781 2228 2272 2228 
L 1259 2228 
z
M 1259 4147 
L 1259 2741 
L 2194 2741 
Q 2656 2741 2882 2914 
Q 3109 3088 3109 3444 
Q 3109 3797 2882 3972 
Q 2656 4147 2194 4147 
L 1259 4147 
z
M 628 4666 
L 2241 4666 
Q 2963 4666 3353 4366 
Q 3744 4066 3744 3513 
Q 3744 3084 3544 2831 
Q 3344 2578 2956 2516 
Q 3422 2416 3680 2098 
Q 3938 1781 3938 1306 
Q 3938 681 3513 340 
Q 3088 0 2303 0 
L 628 0 
L 628 4666 
z
" transform="scale(0.015625)"/>
       <path id="DejaVuSans-33" d="M 2597 2516 
Q 3050 2419 3304 2112 
Q 3559 1806 3559 1356 
Q 3559 666 3084 287 
Q 2609 -91 1734 -91 
Q 1441 -91 1130 -33 
Q 819 25 488 141 
L 488 750 
Q 750 597 1062 519 
Q 1375 441 1716 441 
Q 2309 441 2620 675 
Q 2931 909 2931 1356 
Q 2931 1769 2642 2001 
Q 2353 2234 1838 2234 
L 1294 2234 
L 1294 2753 
L 1863 2753 
Q 2328 2753 2575 2939 
Q 2822 3125 2822 3475 
Q 2822 3834 2567 4026 
Q 2313 4219 1838 4219 
Q 1578 4219 1281 4162 
Q 984 4106 628 3988 
L 628 4550 
Q 988 4650 1302 4700 
Q 1616 4750 1894 4750 
Q 2613 4750 3031 4423 
Q 3450 4097 3450 3541 
Q 3450 3153 3228 2886 
Q 3006 2619 2597 2516 
z
" transform="scale(0.015625)"/>
       <path id="DejaVuSans-61" d="M 2194 1759 
Q 1497 1759 1228 1600 
Q 959 1441 959 1056 
Q 959 750 1161 570 
Q 1363 391 1709 391 
Q 2188 391 2477 730 
Q 2766 1069 2766 1631 
L 2766 1759 
L 2194 1759 
z
M 3341 1997 
L 3341 0 
L 2766 0 
L 2766 531 
Q 2569 213 2275 61 
Q 1981 -91 1556 -91 
Q 1019 -91 701 211 
Q 384 513 384 1019 
Q 384 1609 779 1909 
Q 1175 2209 1959 2209 
L 2766 2209 
L 2766 2266 
Q 2766 2663 2505 2880 
Q 2244 3097 1772 3097 
Q 1472 3097 1187 3025 
Q 903 2953 641 2809 
L 641 3341 
Q 956 3463 1253 3523 
Q 1550 3584 1831 3584 
Q 2591 3584 2966 3190 
Q 3341 2797 3341 1997 
z
" transform="scale(0.015625)"/>
      </defs>
      <use xlink:href="#DejaVuSans-51"/>
      <use xlink:href="#DejaVuSans-42" x="78.710938"/>
      <use xlink:href="#DejaVuSans-33" x="147.314453"/>
      <use xlink:href="#DejaVuSans-20" x="210.9375"/>
      <use xlink:href="#DejaVuSans-46" x="242.724609"/>
      <use xlink:href="#DejaVuSans-61" x="291.119141"/>
      <use xlink:href="#DejaVuSans-73" x="352.398438"/>
      <use xlink:href="#DejaVuSans-74" x="404.498047"/>
     </g>
    </g>
    <g id="line2d_22">
     <path d="M 63.02 54.656563 
L 73.02 54.656563 
L 83.02 54.656563 
" style="fill: none; stroke: #ff7f0e; stroke-width: 1.5; stroke-linecap: square"/>
    </g>
    <g id="text_19">
     <!-- QB3 Base -->
     <g transform="translate(91.02 58.156563) scale(0.1 -0.1)">
      <use xlink:href="#DejaVuSans-51"/>
      <use xlink:href="#DejaVuSans-42" x="78.710938"/>
      <use xlink:href="#DejaVuSans-33" x="147.314453"/>
      <use xlink:href="#DejaVuSans-20" x="210.9375"/>
      <use xlink:href="#DejaVuSans-42" x="242.724609"/>
      <use xlink:href="#DejaVuSans-61" x="311.328125"/>
      <use xlink:href="#DejaVuSans-73" x="372.607422"/>
      <use xlink:href="#DejaVuSans-65" x="424.707031"/>
     </g>
    </g>
    <g id="line2d_23">
     <path d="M 63.02 69.334688 
L 73.02 69.334688 
L 83.02 69.334688 
" style="fill: none; stroke: #2ca02c; stroke-width: 1.5; stroke-linecap: square"/>
    </g>
    <g id="text_20">
     <!-- QB3 Best -->
     <g transform="translate(91.02 72.834688) scale(0.1 -0.1)">
      <use xlink:href="#DejaVuSans-51"/>
      <use xlink:href="#DejaVuSans-42" x="78.710938"/>
      <use xlink:href="#DejaVuSans-33" x="147.314453"/>
      <use xlink:href="#DejaVuSans-20" x="210.9375"/>
      <use xlink:href="#DejaVuSans-42" x="242.724609"/>
      <use xlink:href="#DejaVuSans-65" x="311.328125"/>
      <use xlink:href="#DejaVuSans-73" x="372.851562"/>
      <use xlink:href="#DejaVuSans-74" x="424.951172"/>
     </g>
    </g>
    <g id="line2d_24">
     <path d="M 63.02 84.012812 
L 73.02 84.012812 
L 83.02 84.012812 
" style="fill: none; stroke: #d62728; stroke-width: 1.5; stroke-linecap: square"/>
    </g>
    <g id="text_21">
     <!-- QB3 Best band mix -->
     <g transform="translate(91.02 87.512812) scale(0.1 -0.1)">
      <defs>
       <path id="DejaVuSans-78" d="M 3513 3500 
L 2247 1797 
L 3578 0 
L 2900 0 
L 1881 1375 
L 863 0 
L 184 0 
L 1544 1831 
L 300 3500 
L 978 3500 
L 1906 2253 
L 2834 3500 
L 3513 3500 
z
" transform="scale(0.015625)"/>
      </defs>
      <use xlink:href="#DejaVuSans-51"/>
      <use xlink:href="#DejaVuSans-42" x="78.710938"/>
      <use xlink:href="#DejaVuSans-33" x="147.314453"/>
      <use xlink:href="#DejaVuSans-20" x="210.9375"/>
      <use xlink:href="#DejaVuSans-42" x="242.724609"/>
      <use xlink:href="#DejaVuSans-65" x="311.328125"/>
      <use xlink:href="#DejaVuSans-73" x="372.851562"/>
      <use xlink:href="#DejaVuSans-74" x="424.951172"/>
      <use xlink:href="#DejaVuSans-20" x="464.160156"/>
      <use xlink:href="#DejaVuSans-62" x="495.947266"/>
      <use xlink:href="#DejaVuSans-61" x="559.423828"/>
      <use xlink:href="#DejaVuSans-6e" x="620.703125"/>
      <use xlink:href="#DejaVuSans-64" x="684.082031"/>
      <use xlink:href="#DejaVuSans-20" x="747.558594"/>
      <use xlink:href="#DejaVuSans-6d" x="779.345703"/>
      <use xlink:href="#DejaVuSans-69" x="876.757812"/>
      <use xlink:href="#DejaVuSans-78" x="904.541016"/>
     </g>
    </g>
    <g id="line2d_25">
     <path d="M 63.02 98.690938 
L 73.02 98.690938 
L 83.02 98.690938 
" style="fill: none; stroke: #9467bd; stroke-width: 1.5; stroke-linecap: square"/>
    </g>
    <g id="text_22">
     <!-- PNG decode -->
     <g transform="translate(91.02 102.190938) scale(0.1 -0.1)">
      <defs>
       <path id="DejaVuSans-50" d="M 1259 4147 
L 1259 2394 
L 2053 2394 
Q 2494 2394 2734 2622 
Q 2975 2850 2975 3272 
Q 2975 3691 2734 3919 
Q 2494 4147 2053 4147 
L 1259 4147 
z
M 628 4666 
L 2053 4666 
Q 2838 4666 3239 4311 
Q 3641 3956 3641 3272 
Q 3641 2581 3239 2228 
Q 2838 1875 2053 1875 
L 1259 1875 
L 1259 0 
L 628 0 
L 628 4666 
z
" transform="scale(0.015625)"/>
       <path id="DejaVuSans-4e" d="M 628 4666 
L 1478 4666 
L 3547 763 
L 3547 4666 
L 4159 4666 
L 4159 0 
L 3309 0 
L 1241 3903 
L 1241 0 
L 628 0 
L 628 4666 
z
" transform="scale(0.015625)"/>
       <path id="DejaVuSans-47" d="M 3809 666 
L 3809 1919 
L 2778 1919 
L 2778 2438 
L 4434 2438 
L 4434 434 
Q 4069 175 3628 42 
Q 3188 -91 2688 -91 
Q 1594 -91 976 548 
Q 359 1188 359 2328 
Q 359 3472 976 4111 
Q 1594 4750 2688 4750 
Q 3144 4750 3555 4637 
Q 3966 4525 4313 4306 
L 4313 3634 
Q 3963 3931 3569 4081 
Q 3175 4231 2741 4231 
Q 1884 4231 1454 3753 
Q 1025 3275 1025 2328 
Q 1025 1384 1454 906 
Q 1884 428 2741 428 
Q 3075 428 3337 486 
Q 3600 544 3809 666 
z
" transform="scale(0.015625)"/>
      </defs>
      <use xlink:href="#DejaVuSans-50"/>
      <use xlink:href="#DejaVuSans-4e" x="60.302734"/>
      <use xlink:href="#DejaVuSans-47" x="135.107422"/>
      <use xlink:href="#DejaVuSans-20" x="212.597656"/>
      <use xlink:href="#DejaVuSans-64" x="244.384766"/>
      <use xlink:href="#DejaVuSans-65" x="307.861328"/>
      <use xlink:href="#DejaVuSans-63" x="369.384766"/>
      <use xlink:href="#DejaVuSans-6f" x="424.365234"/>
      <use xlink:href="#DejaVuSans-64" x="485.546875"/>
      <use xlink:href="#DejaVuSans-65" x="549.023438"/>
     </g>
    </g>
    <g id="line2d_26">
     <path d="M 63.02 113.369063 
L 73.02 113.369063 
L 83.02 113.369063 
" style="fill: none; stroke: #8c564b; stroke-width: 5; stroke-linecap: square"/>
    </g>
    <g id="text_23">
     <!-- PNG encode -->
     <g transform="translate(91.02 116.869063) scale(0.1 -0.1)">
      <use xlink:href="#DejaVuSans-50"/>
      <use xlink:href="#DejaVuSans-4e" x="60.302734"/>
      <use xlink:href="#DejaVuSans-47" x="135.107422"/>
      <use xlink:href="#DejaVuSans-20" x="212.597656"/>
      <use xlink:href="#DejaVuSans-65" x="244.384766"/>
      <use xlink:href="#DejaVuSans-6e" x="305.908203"/>
      <use xlink:href="#DejaVuSans-63" x="369.287109"/>
      <use xlink:href="#DejaVuSans-6f" x="424.267578"/>
      <use xlink:href="#DejaVuSans-64" x="485.449219"/>
      <use xlink:href="#DejaVuSans-65" x="548.925781"/>
     </g>
    </g>
   </g>
  </g>
 </g>
 <defs>
  <clipPath id="p99c04597e2">
   <rect x="54.02" y="26.88" width="1375.18" height="651.16"/>
  </clipPath>
 </defs>
</svg>
