<?xml version="1.0" encoding="utf-8" standalone="no"?>
<!DOCTYPE svg PUBLIC "-//W3C//DTD SVG 1.1//EN"
  "http://www.w3.org/Graphics/SVG/1.1/DTD/svg11.dtd">
<svg xmlns:xlink="http://www.w3.org/1999/xlink" width="1008pt" height="504pt" viewBox="0 0 1008 504" xmlns="http://www.w3.org/2000/svg" version="1.1">
 <metadata>
  <rdf:RDF xmlns:dc="http://purl.org/dc/elements/1.1/" xmlns:cc="http://creativecommons.org/ns#" xmlns:rdf="http://www.w3.org/1999/02/22-rdf-syntax-ns#">
   <cc:Work>
    <dc:type rdf:resource="http://purl.org/dc/dcmitype/StillImage"/>
    <dc:date>2025-12-09T17:19:12.431736</dc:date>
    <dc:format>image/svg+xml</dc:format>
    <dc:creator>
     <cc:Agent>
      <dc:title>Matplotlib v3.9.0, https://matplotlib.org/</dc:title>
     </cc:Agent>
    </dc:creator>
   </cc:Work>
  </rdf:RDF>
 </metadata>
 <defs>
  <style type="text/css">*{stroke-linejoin: round; stroke-linecap: butt}</style>
 </defs>
 <g id="figure_1">
  <g id="patch_1">
   <path d="M 0 504 
L 1008 504 
L 1008 0 
L 0 0 
z
" style="fill: #ffffff"/>
  </g>
  <g id="axes_1">
   <g id="patch_2">
    <path d="M 44.66 462.04 
L 997.2 462.04 
L 997.2 26.88 
L 44.66 26.88 
z
" style="fill: #ffffff"/>
   </g>
   <g id="matplotlib.axis_1">
    <g id="xtick_1">
     <g id="line2d_1">
      <defs>
       <path id="me04ca89759" d="M 0 0 
L 0 3.5 
" style="stroke: #000000; stroke-width: 0.8"/>
      </defs>
      <g>
       <use xlink:href="#me04ca89759" x="44.66" y="462.04" style="stroke: #000000; stroke-width: 0.8"/>
      </g>
     </g>
     <g id="text_1">
      <!-- 0 -->
      <g transform="translate(41.47875 476.638438) scale(0.1 -0.1)">
       <defs>
        <path id="DejaVuSans-30" d="M 2034 4250 
Q 1547 4250 1301 3770 
Q 1056 3291 1056 2328 
Q 1056 1369 1301 889 
Q 1547 409 2034 409 
Q 2525 409 2770 889 
Q 3016 1369 3016 2328 
Q 3016 3291 2770 3770 
Q 2525 4250 2034 4250 
z
M 2034 4750 
Q 2819 4750 3233 4129 
Q 3647 3509 3647 2328 
Q 3647 1150 3233 529 
Q 2819 -91 2034 -91 
Q 1250 -91 836 529 
Q 422 1150 422 2328 
Q 422 3509 836 4129 
Q 1250 4750 2034 4750 
z
" transform="scale(0.015625)"/>
       </defs>
       <use xlink:href="#DejaVuSans-30"/>
      </g>
     </g>
    </g>
    <g id="xtick_2">
     <g id="line2d_2">
      <g>
       <use xlink:href="#me04ca89759" x="236.704355" y="462.04" style="stroke: #000000; stroke-width: 0.8"/>
      </g>
     </g>
     <g id="text_2">
      <!-- 50 -->
      <g transform="translate(230.341855 476.638438) scale(0.1 -0.1)">
       <defs>
        <path id="DejaVuSans-35" d="M 691 4666 
L 3169 4666 
L 3169 4134 
L 1269 4134 
L 1269 2991 
Q 1406 3038 1543 3061 
Q 1681 3084 1819 3084 
Q 2600 3084 3056 2656 
Q 3513 2228 3513 1497 
Q 3513 744 3044 326 
Q 2575 -91 1722 -91 
Q 1428 -91 1123 -41 
Q 819 9 494 109 
L 494 744 
Q 775 591 1075 516 
Q 1375 441 1709 441 
Q 2250 441 2565 725 
Q 2881 1009 2881 1497 
Q 2881 1984 2565 2268 
Q 2250 2553 1709 2553 
Q 1456 2553 1204 2497 
Q 953 2441 691 2322 
L 691 4666 
z
" transform="scale(0.015625)"/>
       </defs>
       <use xlink:href="#DejaVuSans-35"/>
       <use xlink:href="#DejaVuSans-30" x="63.623047"/>
      </g>
     </g>
    </g>
    <g id="xtick_3">
     <g id="line2d_3">
      <g>
       <use xlink:href="#me04ca89759" x="428.74871" y="462.04" style="stroke: #000000; stroke-width: 0.8"/>
      </g>
     </g>
     <g id="text_3">
      <!-- 100 -->
      <g transform="translate(419.20496 476.638438) scale(0.1 -0.1)">
       <defs>
        <path id="DejaVuSans-31" d="M 794 531 
L 1825 531 
L 1825 4091 
L 703 3866 
L 703 4441 
L 1819 4666 
L 2450 4666 
L 2450 531 
L 3481 531 
L 3481 0 
L 794 0 
L 794 531 
z
" transform="scale(0.015625)"/>
       </defs>
       <use xlink:href="#DejaVuSans-31"/>
       <use xlink:href="#DejaVuSans-30" x="63.623047"/>
       <use xlink:href="#DejaVuSans-30" x="127.246094"/>
      </g>
     </g>
    </g>
    <g id="xtick_4">
     <g id="line2d_4">
      <g>
       <use xlink:href="#me04ca89759" x="620.793065" y="462.04" style="stroke: #000000; stroke-width: 0.8"/>
      </g>
     </g>
     <g id="text_4">
      <!-- 150 -->
      <g transform="translate(611.249315 476.638438) scale(0.1 -0.1)">
       <use xlink:href="#DejaVuSans-31"/>
       <use xlink:href="#DejaVuSans-35" x="63.623047"/>
       <use xlink:href="#DejaVuSans-30" x="127.246094"/>
      </g>
     </g>
    </g>
    <g id="xtick_5">
     <g id="line2d_5">
      <g>
       <use xlink:href="#me04ca89759" x="812.837419" y="462.04" style="stroke: #000000; stroke-width: 0.8"/>
      </g>
     </g>
     <g id="text_5">
      <!-- 200 -->
      <g transform="translate(803.293669 476.638438) scale(0.1 -0.1)">
       <defs>
        <path id="DejaVuSans-32" d="M 1228 531 
L 3431 531 
L 3431 0 
L 469 0 
L 469 531 
Q 828 903 1448 1529 
Q 2069 2156 2228 2338 
Q 2531 2678 2651 2914 
Q 2772 3150 2772 3378 
Q 2772 3750 2511 3984 
Q 2250 4219 1831 4219 
Q 1534 4219 1204 4116 
Q 875 4013 500 3803 
L 500 4441 
Q 881 4594 1212 4672 
Q 1544 4750 1819 4750 
Q 2544 4750 2975 4387 
Q 3406 4025 3406 3419 
Q 3406 3131 3298 2873 
Q 3191 2616 2906 2266 
Q 2828 2175 2409 1742 
Q 1991 1309 1228 531 
z
" transform="scale(0.015625)"/>
       </defs>
       <use xlink:href="#DejaVuSans-32"/>
       <use xlink:href="#DejaVuSans-30" x="63.623047"/>
       <use xlink:href="#DejaVuSans-30" x="127.246094"/>
      </g>
     </g>
    </g>
    <g id="text_6">
     <!-- File number, sorted by increasing loss, then increasing gain -->
     <g transform="translate(371.810469 490.316563) scale(0.1 -0.1)">
      <defs>
       <path id="DejaVuSans-46" d="M 628 4666 
L 3309 4666 
L 3309 4134 
L 1259 4134 
L 1259 2759 
L 3109 2759 
L 3109 2228 
L 1259 2228 
L 1259 0 
L 628 0 
L 628 4666 
z
" transform="scale(0.015625)"/>
       <path id="DejaVuSans-69" d="M 603 3500 
L 1178 3500 
L 1178 0 
L 603 0 
L 603 3500 
z
M 603 4863 
L 1178 4863 
L 1178 4134 
L 603 4134 
L 603 4863 
z
" transform="scale(0.015625)"/>
       <path id="DejaVuSans-6c" d="M 603 4863 
L 1178 4863 
L 1178 0 
L 603 0 
L 603 4863 
z
" transform="scale(0.015625)"/>
       <path id="DejaVuSans-65" d="M 3597 1894 
L 3597 1613 
L 953 1613 
Q 991 1019 1311 708 
Q 1631 397 2203 397 
Q 2534 397 2845 478 
Q 3156 559 3463 722 
L 3463 178 
Q 3153 47 2828 -22 
Q 2503 -91 2169 -91 
Q 1331 -91 842 396 
Q 353 884 353 1716 
Q 353 2575 817 3079 
Q 1281 3584 2069 3584 
Q 2775 3584 3186 3129 
Q 3597 2675 3597 1894 
z
M 3022 2063 
Q 3016 2534 2758 2815 
Q 2500 3097 2075 3097 
Q 1594 3097 1305 2825 
Q 1016 2553 972 2059 
L 3022 2063 
z
" transform="scale(0.015625)"/>
       <path id="DejaVuSans-20" transform="scale(0.015625)"/>
       <path id="DejaVuSans-6e" d="M 3513 2113 
L 3513 0 
L 2938 0 
L 2938 2094 
Q 2938 2591 2744 2837 
Q 2550 3084 2163 3084 
Q 1697 3084 1428 2787 
Q 1159 2491 1159 1978 
L 1159 0 
L 581 0 
L 581 3500 
L 1159 3500 
L 1159 2956 
Q 1366 3272 1645 3428 
Q 1925 3584 2291 3584 
Q 2894 3584 3203 3211 
Q 3513 2838 3513 2113 
z
" transform="scale(0.015625)"/>
       <path id="DejaVuSans-75" d="M 544 1381 
L 544 3500 
L 1119 3500 
L 1119 1403 
Q 1119 906 1312 657 
Q 1506 409 1894 409 
Q 2359 409 2629 706 
Q 2900 1003 2900 1516 
L 2900 3500 
L 3475 3500 
L 3475 0 
L 2900 0 
L 2900 538 
Q 2691 219 2414 64 
Q 2138 -91 1772 -91 
Q 1169 -91 856 284 
Q 544 659 544 1381 
z
M 1991 3584 
L 1991 3584 
z
" transform="scale(0.015625)"/>
       <path id="DejaVuSans-6d" d="M 3328 2828 
Q 3544 3216 3844 3400 
Q 4144 3584 4550 3584 
Q 5097 3584 5394 3201 
Q 5691 2819 5691 2113 
L 5691 0 
L 5113 0 
L 5113 2094 
Q 5113 2597 4934 2840 
Q 4756 3084 4391 3084 
Q 3944 3084 3684 2787 
Q 3425 2491 3425 1978 
L 3425 0 
L 2847 0 
L 2847 2094 
Q 2847 2600 2669 2842 
Q 2491 3084 2119 3084 
Q 1678 3084 1418 2786 
Q 1159 2488 1159 1978 
L 1159 0 
L 581 0 
L 581 3500 
L 1159 3500 
L 1159 2956 
Q 1356 3278 1631 3431 
Q 1906 3584 2284 3584 
Q 2666 3584 2933 3390 
Q 3200 3197 3328 2828 
z
" transform="scale(0.015625)"/>
       <path id="DejaVuSans-62" d="M 3116 1747 
Q 3116 2381 2855 2742 
Q 2594 3103 2138 3103 
Q 1681 3103 1420 2742 
Q 1159 2381 1159 1747 
Q 1159 1113 1420 752 
Q 1681 391 2138 391 
Q 2594 391 2855 752 
Q 3116 1113 3116 1747 
z
M 1159 2969 
Q 1341 3281 1617 3432 
Q 1894 3584 2278 3584 
Q 2916 3584 3314 3078 
Q 3713 2572 3713 1747 
Q 3713 922 3314 415 
Q 2916 -91 2278 -91 
Q 1894 -91 1617 61 
Q 1341 213 1159 525 
L 1159 0 
L 581 0 
L 581 4863 
L 1159 4863 
L 1159 2969 
z
" transform="scale(0.015625)"/>
       <path id="DejaVuSans-72" d="M 2631 2963 
Q 2534 3019 2420 3045 
Q 2306 3072 2169 3072 
Q 1681 3072 1420 2755 
Q 1159 2438 1159 1844 
L 1159 0 
L 581 0 
L 581 3500 
L 1159 3500 
L 1159 2956 
Q 1341 3275 1631 3429 
Q 1922 3584 2338 3584 
Q 2397 3584 2469 3576 
Q 2541 3569 2628 3553 
L 2631 2963 
z
" transform="scale(0.015625)"/>
       <path id="DejaVuSans-2c" d="M 750 794 
L 1409 794 
L 1409 256 
L 897 -744 
L 494 -744 
L 750 256 
L 750 794 
z
" transform="scale(0.015625)"/>
       <path id="DejaVuSans-73" d="M 2834 3397 
L 2834 2853 
Q 2591 2978 2328 3040 
Q 2066 3103 1784 3103 
Q 1356 3103 1142 2972 
Q 928 2841 928 2578 
Q 928 2378 1081 2264 
Q 1234 2150 1697 2047 
L 1894 2003 
Q 2506 1872 2764 1633 
Q 3022 1394 3022 966 
Q 3022 478 2636 193 
Q 2250 -91 1575 -91 
Q 1294 -91 989 -36 
Q 684 19 347 128 
L 347 722 
Q 666 556 975 473 
Q 1284 391 1588 391 
Q 1994 391 2212 530 
Q 2431 669 2431 922 
Q 2431 1156 2273 1281 
Q 2116 1406 1581 1522 
L 1381 1569 
Q 847 1681 609 1914 
Q 372 2147 372 2553 
Q 372 3047 722 3315 
Q 1072 3584 1716 3584 
Q 2034 3584 2315 3537 
Q 2597 3491 2834 3397 
z
" transform="scale(0.015625)"/>
       <path id="DejaVuSans-6f" d="M 1959 3097 
Q 1497 3097 1228 2736 
Q 959 2375 959 1747 
Q 959 1119 1226 758 
Q 1494 397 1959 397 
Q 2419 397 2687 759 
Q 2956 1122 2956 1747 
Q 2956 2369 2687 2733 
Q 2419 3097 1959 3097 
z
M 1959 3584 
Q 2709 3584 3137 3096 
Q 3566 2609 3566 1747 
Q 3566 888 3137 398 
Q 2709 -91 1959 -91 
Q 1206 -91 779 398 
Q 353 888 353 1747 
Q 353 2609 779 3096 
Q 1206 3584 1959 3584 
z
" transform="scale(0.015625)"/>
       <path id="DejaVuSans-74" d="M 1172 4494 
L 1172 3500 
L 2356 3500 
L 2356 3053 
L 1172 3053 
L 1172 1153 
Q 1172 725 1289 603 
Q 1406 481 1766 481 
L 2356 481 
L 2356 0 
L 1766 0 
Q 1100 0 847 248 
Q 594 497 594 1153 
L 594 3053 
L 172 3053 
L 172 3500 
L 594 3500 
L 594 4494 
L 1172 4494 
z
" transform="scale(0.015625)"/>
       <path id="DejaVuSans-64" d="M 2906 2969 
L 2906 4863 
L 3481 4863 
L 3481 0 
L 2906 0 
L 2906 525 
Q 2725 213 2448 61 
Q 2172 -91 1784 -91 
Q 1150 -91 751 415 
Q 353 922 353 1747 
Q 353 2572 751 3078 
Q 1150 3584 1784 3584 
Q 2172 3584 2448 3432 
Q 2725 3281 2906 2969 
z
M 947 1747 
Q 947 1113 1208 752 
Q 1469 391 1925 391 
Q 2381 391 2643 752 
Q 2906 1113 2906 1747 
Q 2906 2381 2643 2742 
Q 2381 3103 1925 3103 
Q 1469 3103 1208 2742 
Q 947 2381 947 1747 
z
" transform="scale(0.015625)"/>
       <path id="DejaVuSans-79" d="M 2059 -325 
Q 1816 -950 1584 -1140 
Q 1353 -1331 966 -1331 
L 506 -1331 
L 506 -850 
L 844 -850 
Q 1081 -850 1212 -737 
Q 1344 -625 1503 -206 
L 1606 56 
L 191 3500 
L 800 3500 
L 1894 763 
L 2988 3500 
L 3597 3500 
L 2059 -325 
z
" transform="scale(0.015625)"/>
       <path id="DejaVuSans-63" d="M 3122 3366 
L 3122 2828 
Q 2878 2963 2633 3030 
Q 2388 3097 2138 3097 
Q 1578 3097 1268 2742 
Q 959 2388 959 1747 
Q 959 1106 1268 751 
Q 1578 397 2138 397 
Q 2388 397 2633 464 
Q 2878 531 3122 666 
L 3122 134 
Q 2881 22 2623 -34 
Q 2366 -91 2075 -91 
Q 1284 -91 818 406 
Q 353 903 353 1747 
Q 353 2603 823 3093 
Q 1294 3584 2113 3584 
Q 2378 3584 2631 3529 
Q 2884 3475 3122 3366 
z
" transform="scale(0.015625)"/>
       <path id="DejaVuSans-61" d="M 2194 1759 
Q 1497 1759 1228 1600 
Q 959 1441 959 1056 
Q 959 750 1161 570 
Q 1363 391 1709 391 
Q 2188 391 2477 730 
Q 2766 1069 2766 1631 
L 2766 1759 
L 2194 1759 
z
M 3341 1997 
L 3341 0 
L 2766 0 
L 2766 531 
Q 2569 213 2275 61 
Q 1981 -91 1556 -91 
Q 1019 -91 701 211 
Q 384 513 384 1019 
Q 384 1609 779 1909 
Q 1175 2209 1959 2209 
L 2766 2209 
L 2766 2266 
Q 2766 2663 2505 2880 
Q 2244 3097 1772 3097 
Q 1472 3097 1187 3025 
Q 903 2953 641 2809 
L 641 3341 
Q 956 3463 1253 3523 
Q 1550 3584 1831 3584 
Q 2591 3584 2966 3190 
Q 3341 2797 3341 1997 
z
" transform="scale(0.015625)"/>
       <path id="DejaVuSans-67" d="M 2906 1791 
Q 2906 2416 2648 2759 
Q 2391 3103 1925 3103 
Q 1463 3103 1205 2759 
Q 947 2416 947 1791 
Q 947 1169 1205 825 
Q 1463 481 1925 481 
Q 2391 481 2648 825 
Q 2906 1169 2906 1791 
z
M 3481 434 
Q 3481 -459 3084 -895 
Q 2688 -1331 1869 -1331 
Q 1566 -1331 1297 -1286 
Q 1028 -1241 775 -1147 
L 775 -588 
Q 1028 -725 1275 -790 
Q 1522 -856 1778 -856 
Q 2344 -856 2625 -561 
Q 2906 -266 2906 331 
L 2906 616 
Q 2728 306 2450 153 
Q 2172 0 1784 0 
Q 1141 0 747 490 
Q 353 981 353 1791 
Q 353 2603 747 3093 
Q 1141 3584 1784 3584 
Q 2172 3584 2450 3431 
Q 2728 3278 2906 2969 
L 2906 3500 
L 3481 3500 
L 3481 434 
z
" transform="scale(0.015625)"/>
       <path id="DejaVuSans-68" d="M 3513 2113 
L 3513 0 
L 2938 0 
L 2938 2094 
Q 2938 2591 2744 2837 
Q 2550 3084 2163 3084 
Q 1697 3084 1428 2787 
Q 1159 2491 1159 1978 
L 1159 0 
L 581 0 
L 581 4863 
L 1159 4863 
L 1159 2956 
Q 1366 3272 1645 3428 
Q 1925 3584 2291 3584 
Q 2894 3584 3203 3211 
Q 3513 2838 3513 2113 
z
" transform="scale(0.015625)"/>
      </defs>
      <use xlink:href="#DejaVuSans-46"/>
      <use xlink:href="#DejaVuSans-69" x="50.269531"/>
      <use xlink:href="#DejaVuSans-6c" x="78.052734"/>
      <use xlink:href="#DejaVuSans-65" x="105.835938"/>
      <use xlink:href="#DejaVuSans-20" x="167.359375"/>
      <use xlink:href="#DejaVuSans-6e" x="199.146484"/>
      <use xlink:href="#DejaVuSans-75" x="262.525391"/>
      <use xlink:href="#DejaVuSans-6d" x="325.904297"/>
      <use xlink:href="#DejaVuSans-62" x="423.316406"/>
      <use xlink:href="#DejaVuSans-65" x="486.792969"/>
      <use xlink:href="#DejaVuSans-72" x="548.316406"/>
      <use xlink:href="#DejaVuSans-2c" x="589.429688"/>
      <use xlink:href="#DejaVuSans-20" x="621.216797"/>
      <use xlink:href="#DejaVuSans-73" x="653.003906"/>
      <use xlink:href="#DejaVuSans-6f" x="705.103516"/>
      <use xlink:href="#DejaVuSans-72" x="766.285156"/>
      <use xlink:href="#DejaVuSans-74" x="807.398438"/>
      <use xlink:href="#DejaVuSans-65" x="846.607422"/>
      <use xlink:href="#DejaVuSans-64" x="908.130859"/>
      <use xlink:href="#DejaVuSans-20" x="971.607422"/>
      <use xlink:href="#DejaVuSans-62" x="1003.394531"/>
      <use xlink:href="#DejaVuSans-79" x="1066.871094"/>
      <use xlink:href="#DejaVuSans-20" x="1126.050781"/>
      <use xlink:href="#DejaVuSans-69" x="1157.837891"/>
      <use xlink:href="#DejaVuSans-6e" x="1185.621094"/>
      <use xlink:href="#DejaVuSans-63" x="1249"/>
      <use xlink:href="#DejaVuSans-72" x="1303.980469"/>
      <use xlink:href="#DejaVuSans-65" x="1342.84375"/>
      <use xlink:href="#DejaVuSans-61" x="1404.367188"/>
      <use xlink:href="#DejaVuSans-73" x="1465.646484"/>
      <use xlink:href="#DejaVuSans-69" x="1517.746094"/>
      <use xlink:href="#DejaVuSans-6e" x="1545.529297"/>
      <use xlink:href="#DejaVuSans-67" x="1608.908203"/>
      <use xlink:href="#DejaVuSans-20" x="1672.384766"/>
      <use xlink:href="#DejaVuSans-6c" x="1704.171875"/>
      <use xlink:href="#DejaVuSans-6f" x="1731.955078"/>
      <use xlink:href="#DejaVuSans-73" x="1793.136719"/>
      <use xlink:href="#DejaVuSans-73" x="1845.236328"/>
      <use xlink:href="#DejaVuSans-2c" x="1897.335938"/>
      <use xlink:href="#DejaVuSans-20" x="1929.123047"/>
      <use xlink:href="#DejaVuSans-74" x="1960.910156"/>
      <use xlink:href="#DejaVuSans-68" x="2000.119141"/>
      <use xlink:href="#DejaVuSans-65" x="2063.498047"/>
      <use xlink:href="#DejaVuSans-6e" x="2125.021484"/>
      <use xlink:href="#DejaVuSans-20" x="2188.400391"/>
      <use xlink:href="#DejaVuSans-69" x="2220.1875"/>
      <use xlink:href="#DejaVuSans-6e" x="2247.970703"/>
      <use xlink:href="#DejaVuSans-63" x="2311.349609"/>
      <use xlink:href="#DejaVuSans-72" x="2366.330078"/>
      <use xlink:href="#DejaVuSans-65" x="2405.193359"/>
      <use xlink:href="#DejaVuSans-61" x="2466.716797"/>
      <use xlink:href="#DejaVuSans-73" x="2527.996094"/>
      <use xlink:href="#DejaVuSans-69" x="2580.095703"/>
      <use xlink:href="#DejaVuSans-6e" x="2607.878906"/>
      <use xlink:href="#DejaVuSans-67" x="2671.257812"/>
      <use xlink:href="#DejaVuSans-20" x="2734.734375"/>
      <use xlink:href="#DejaVuSans-67" x="2766.521484"/>
      <use xlink:href="#DejaVuSans-61" x="2829.998047"/>
      <use xlink:href="#DejaVuSans-69" x="2891.277344"/>
      <use xlink:href="#DejaVuSans-6e" x="2919.060547"/>
     </g>
    </g>
   </g>
   <g id="matplotlib.axis_2">
    <g id="ytick_1">
     <g id="line2d_6">
      <defs>
       <path id="m1007338614" d="M 0 0 
L -3.5 0 
" style="stroke: #000000; stroke-width: 0.8"/>
      </defs>
      <g>
       <use xlink:href="#m1007338614" x="44.66" y="462.04" style="stroke: #000000; stroke-width: 0.8"/>
      </g>
     </g>
     <g id="text_7">
      <!-- -2 -->
      <g transform="translate(27.689688 465.839219) scale(0.1 -0.1)">
       <defs>
        <path id="DejaVuSans-2d" d="M 313 2009 
L 1997 2009 
L 1997 1497 
L 313 1497 
L 313 2009 
z
" transform="scale(0.015625)"/>
       </defs>
       <use xlink:href="#DejaVuSans-2d"/>
       <use xlink:href="#DejaVuSans-32" x="36.083984"/>
      </g>
     </g>
    </g>
    <g id="ytick_2">
     <g id="line2d_7">
      <g>
       <use xlink:href="#m1007338614" x="44.66" y="429.183674" style="stroke: #000000; stroke-width: 0.8"/>
      </g>
     </g>
     <g id="text_8">
      <!-- -1 -->
      <g transform="translate(27.689688 432.982893) scale(0.1 -0.1)">
       <use xlink:href="#DejaVuSans-2d"/>
       <use xlink:href="#DejaVuSans-31" x="36.083984"/>
      </g>
     </g>
    </g>
    <g id="ytick_3">
     <g id="line2d_8">
      <g>
       <use xlink:href="#m1007338614" x="44.66" y="396.327348" style="stroke: #000000; stroke-width: 0.8"/>
      </g>
     </g>
     <g id="text_9">
      <!--  0 -->
      <g transform="translate(28.119375 400.126567) scale(0.1 -0.1)">
       <use xlink:href="#DejaVuSans-20"/>
       <use xlink:href="#DejaVuSans-30" x="31.787109"/>
      </g>
     </g>
    </g>
    <g id="ytick_4">
     <g id="line2d_9">
      <g>
       <use xlink:href="#m1007338614" x="44.66" y="363.471022" style="stroke: #000000; stroke-width: 0.8"/>
      </g>
     </g>
     <g id="text_10">
      <!--  1 -->
      <g transform="translate(28.119375 367.270241) scale(0.1 -0.1)">
       <use xlink:href="#DejaVuSans-20"/>
       <use xlink:href="#DejaVuSans-31" x="31.787109"/>
      </g>
     </g>
    </g>
    <g id="ytick_5">
     <g id="line2d_10">
      <g>
       <use xlink:href="#m1007338614" x="44.66" y="330.614696" style="stroke: #000000; stroke-width: 0.8"/>
      </g>
     </g>
     <g id="text_11">
      <!--  2 -->
      <g transform="translate(28.119375 334.413915) scale(0.1 -0.1)">
       <use xlink:href="#DejaVuSans-20"/>
       <use xlink:href="#DejaVuSans-32" x="31.787109"/>
      </g>
     </g>
    </g>
    <g id="ytick_6">
     <g id="line2d_11">
      <g>
       <use xlink:href="#m1007338614" x="44.66" y="297.75837" style="stroke: #000000; stroke-width: 0.8"/>
      </g>
     </g>
     <g id="text_12">
      <!--  3 -->
      <g transform="translate(28.119375 301.557589) scale(0.1 -0.1)">
       <defs>
        <path id="DejaVuSans-33" d="M 2597 2516 
Q 3050 2419 3304 2112 
Q 3559 1806 3559 1356 
Q 3559 666 3084 287 
Q 2609 -91 1734 -91 
Q 1441 -91 1130 -33 
Q 819 25 488 141 
L 488 750 
Q 750 597 1062 519 
Q 1375 441 1716 441 
Q 2309 441 2620 675 
Q 2931 909 2931 1356 
Q 2931 1769 2642 2001 
Q 2353 2234 1838 2234 
L 1294 2234 
L 1294 2753 
L 1863 2753 
Q 2328 2753 2575 2939 
Q 2822 3125 2822 3475 
Q 2822 3834 2567 4026 
Q 2313 4219 1838 4219 
Q 1578 4219 1281 4162 
Q 984 4106 628 3988 
L 628 4550 
Q 988 4650 1302 4700 
Q 1616 4750 1894 4750 
Q 2613 4750 3031 4423 
Q 3450 4097 3450 3541 
Q 3450 3153 3228 2886 
Q 3006 2619 2597 2516 
z
" transform="scale(0.015625)"/>
       </defs>
       <use xlink:href="#DejaVuSans-20"/>
       <use xlink:href="#DejaVuSans-33" x="31.787109"/>
      </g>
     </g>
    </g>
    <g id="ytick_7">
     <g id="line2d_12">
      <g>
       <use xlink:href="#m1007338614" x="44.66" y="264.902044" style="stroke: #000000; stroke-width: 0.8"/>
      </g>
     </g>
     <g id="text_13">
      <!--  4 -->
      <g transform="translate(28.119375 268.701263) scale(0.1 -0.1)">
       <defs>
        <path id="DejaVuSans-34" d="M 2419 4116 
L 825 1625 
L 2419 1625 
L 2419 4116 
z
M 2253 4666 
L 3047 4666 
L 3047 1625 
L 3713 1625 
L 3713 1100 
L 3047 1100 
L 3047 0 
L 2419 0 
L 2419 1100 
L 313 1100 
L 313 1709 
L 2253 4666 
z
" transform="scale(0.015625)"/>
       </defs>
       <use xlink:href="#DejaVuSans-20"/>
       <use xlink:href="#DejaVuSans-34" x="31.787109"/>
      </g>
     </g>
    </g>
    <g id="ytick_8">
     <g id="line2d_13">
      <g>
       <use xlink:href="#m1007338614" x="44.66" y="232.045718" style="stroke: #000000; stroke-width: 0.8"/>
      </g>
     </g>
     <g id="text_14">
      <!--  5 -->
      <g transform="translate(28.119375 235.844936) scale(0.1 -0.1)">
       <use xlink:href="#DejaVuSans-20"/>
       <use xlink:href="#DejaVuSans-35" x="31.787109"/>
      </g>
     </g>
    </g>
    <g id="ytick_9">
     <g id="line2d_14">
      <g>
       <use xlink:href="#m1007338614" x="44.66" y="199.189392" style="stroke: #000000; stroke-width: 0.8"/>
      </g>
     </g>
     <g id="text_15">
      <!--  6 -->
      <g transform="translate(28.119375 202.98861) scale(0.1 -0.1)">
       <defs>
        <path id="DejaVuSans-36" d="M 2113 2584 
Q 1688 2584 1439 2293 
Q 1191 2003 1191 1497 
Q 1191 994 1439 701 
Q 1688 409 2113 409 
Q 2538 409 2786 701 
Q 3034 994 3034 1497 
Q 3034 2003 2786 2293 
Q 2538 2584 2113 2584 
z
M 3366 4563 
L 3366 3988 
Q 3128 4100 2886 4159 
Q 2644 4219 2406 4219 
Q 1781 4219 1451 3797 
Q 1122 3375 1075 2522 
Q 1259 2794 1537 2939 
Q 1816 3084 2150 3084 
Q 2853 3084 3261 2657 
Q 3669 2231 3669 1497 
Q 3669 778 3244 343 
Q 2819 -91 2113 -91 
Q 1303 -91 875 529 
Q 447 1150 447 2328 
Q 447 3434 972 4092 
Q 1497 4750 2381 4750 
Q 2619 4750 2861 4703 
Q 3103 4656 3366 4563 
z
" transform="scale(0.015625)"/>
       </defs>
       <use xlink:href="#DejaVuSans-20"/>
       <use xlink:href="#DejaVuSans-36" x="31.787109"/>
      </g>
     </g>
    </g>
    <g id="ytick_10">
     <g id="line2d_15">
      <g>
       <use xlink:href="#m1007338614" x="44.66" y="166.333066" style="stroke: #000000; stroke-width: 0.8"/>
      </g>
     </g>
     <g id="text_16">
      <!--  7 -->
      <g transform="translate(28.119375 170.132284) scale(0.1 -0.1)">
       <defs>
        <path id="DejaVuSans-37" d="M 525 4666 
L 3525 4666 
L 3525 4397 
L 1831 0 
L 1172 0 
L 2766 4134 
L 525 4134 
L 525 4666 
z
" transform="scale(0.015625)"/>
       </defs>
       <use xlink:href="#DejaVuSans-20"/>
       <use xlink:href="#DejaVuSans-37" x="31.787109"/>
      </g>
     </g>
    </g>
    <g id="ytick_11">
     <g id="line2d_16">
      <g>
       <use xlink:href="#m1007338614" x="44.66" y="133.47674" style="stroke: #000000; stroke-width: 0.8"/>
      </g>
     </g>
     <g id="text_17">
      <!--  8 -->
      <g transform="translate(28.119375 137.275958) scale(0.1 -0.1)">
       <defs>
        <path id="DejaVuSans-38" d="M 2034 2216 
Q 1584 2216 1326 1975 
Q 1069 1734 1069 1313 
Q 1069 891 1326 650 
Q 1584 409 2034 409 
Q 2484 409 2743 651 
Q 3003 894 3003 1313 
Q 3003 1734 2745 1975 
Q 2488 2216 2034 2216 
z
M 1403 2484 
Q 997 2584 770 2862 
Q 544 3141 544 3541 
Q 544 4100 942 4425 
Q 1341 4750 2034 4750 
Q 2731 4750 3128 4425 
Q 3525 4100 3525 3541 
Q 3525 3141 3298 2862 
Q 3072 2584 2669 2484 
Q 3125 2378 3379 2068 
Q 3634 1759 3634 1313 
Q 3634 634 3220 271 
Q 2806 -91 2034 -91 
Q 1263 -91 848 271 
Q 434 634 434 1313 
Q 434 1759 690 2068 
Q 947 2378 1403 2484 
z
M 1172 3481 
Q 1172 3119 1398 2916 
Q 1625 2713 2034 2713 
Q 2441 2713 2670 2916 
Q 2900 3119 2900 3481 
Q 2900 3844 2670 4047 
Q 2441 4250 2034 4250 
Q 1625 4250 1398 4047 
Q 1172 3844 1172 3481 
z
" transform="scale(0.015625)"/>
       </defs>
       <use xlink:href="#DejaVuSans-20"/>
       <use xlink:href="#DejaVuSans-38" x="31.787109"/>
      </g>
     </g>
    </g>
    <g id="ytick_12">
     <g id="line2d_17">
      <g>
       <use xlink:href="#m1007338614" x="44.66" y="100.620414" style="stroke: #000000; stroke-width: 0.8"/>
      </g>
     </g>
     <g id="text_18">
      <!--  9 -->
      <g transform="translate(28.119375 104.419632) scale(0.1 -0.1)">
       <defs>
        <path id="DejaVuSans-39" d="M 703 97 
L 703 672 
Q 941 559 1184 500 
Q 1428 441 1663 441 
Q 2288 441 2617 861 
Q 2947 1281 2994 2138 
Q 2813 1869 2534 1725 
Q 2256 1581 1919 1581 
Q 1219 1581 811 2004 
Q 403 2428 403 3163 
Q 403 3881 828 4315 
Q 1253 4750 1959 4750 
Q 2769 4750 3195 4129 
Q 3622 3509 3622 2328 
Q 3622 1225 3098 567 
Q 2575 -91 1691 -91 
Q 1453 -91 1209 -44 
Q 966 3 703 97 
z
M 1959 2075 
Q 2384 2075 2632 2365 
Q 2881 2656 2881 3163 
Q 2881 3666 2632 3958 
Q 2384 4250 1959 4250 
Q 1534 4250 1286 3958 
Q 1038 3666 1038 3163 
Q 1038 2656 1286 2365 
Q 1534 2075 1959 2075 
z
" transform="scale(0.015625)"/>
       </defs>
       <use xlink:href="#DejaVuSans-20"/>
       <use xlink:href="#DejaVuSans-39" x="31.787109"/>
      </g>
     </g>
    </g>
    <g id="ytick_13">
     <g id="line2d_18">
      <g>
       <use xlink:href="#m1007338614" x="44.66" y="67.764088" style="stroke: #000000; stroke-width: 0.8"/>
      </g>
     </g>
     <g id="text_19">
      <!-- 10 -->
      <g transform="translate(24.935 71.563306) scale(0.1 -0.1)">
       <use xlink:href="#DejaVuSans-31"/>
       <use xlink:href="#DejaVuSans-30" x="63.623047"/>
      </g>
     </g>
    </g>
    <g id="ytick_14">
     <g id="line2d_19">
      <g>
       <use xlink:href="#m1007338614" x="44.66" y="34.907761" style="stroke: #000000; stroke-width: 0.8"/>
      </g>
     </g>
     <g id="text_20">
      <!-- 11 -->
      <g transform="translate(24.935 38.70698) scale(0.1 -0.1)">
       <use xlink:href="#DejaVuSans-31"/>
       <use xlink:href="#DejaVuSans-31" x="63.623047"/>
      </g>
     </g>
    </g>
    <g id="text_21">
     <!-- MB -->
     <g transform="translate(18.855313 252.204531) rotate(-90) scale(0.1 -0.1)">
      <defs>
       <path id="DejaVuSans-4d" d="M 628 4666 
L 1569 4666 
L 2759 1491 
L 3956 4666 
L 4897 4666 
L 4897 0 
L 4281 0 
L 4281 4097 
L 3078 897 
L 2444 897 
L 1241 4097 
L 1241 0 
L 628 0 
L 628 4666 
z
" transform="scale(0.015625)"/>
       <path id="DejaVuSans-42" d="M 1259 2228 
L 1259 519 
L 2272 519 
Q 2781 519 3026 730 
Q 3272 941 3272 1375 
Q 3272 1813 3026 2020 
Q 2781 2228 2272 2228 
L 1259 2228 
z
M 1259 4147 
L 1259 2741 
L 2194 2741 
Q 2656 2741 2882 2914 
Q 3109 3088 3109 3444 
Q 3109 3797 2882 3972 
Q 2656 4147 2194 4147 
L 1259 4147 
z
M 628 4666 
L 2241 4666 
Q 2963 4666 3353 4366 
Q 3744 4066 3744 3513 
Q 3744 3084 3544 2831 
Q 3344 2578 2956 2516 
Q 3422 2416 3680 2098 
Q 3938 1781 3938 1306 
Q 3938 681 3513 340 
Q 3088 0 2303 0 
L 628 0 
L 628 4666 
z
" transform="scale(0.015625)"/>
      </defs>
      <use xlink:href="#DejaVuSans-4d"/>
      <use xlink:href="#DejaVuSans-42" x="86.279297"/>
     </g>
    </g>
   </g>
   <g id="line2d_20">
    <path d="M 44.66 396.380805 
L 60.023548 396.729805 
L 75.387097 397.215159 
L 86.909758 397.948446 
L 94.591532 398.518076 
L 106.114194 399.602138 
L 113.795968 400.506213 
L 133.000403 403.063289 
L 152.204839 405.860512 
L 159.886613 407.296695 
L 167.568387 408.951931 
L 175.250161 410.78262 
L 186.772823 413.781483 
L 194.454597 416.12473 
L 202.136371 418.880949 
L 205.977258 420.434593 
L 217.499919 425.633811 
L 225.181694 429.390603 
L 229.022581 431.460453 
L 236.704355 436.575362 
L 240.545242 439.794197 
L 263.590565 439.678674 
L 278.954113 439.256175 
L 305.840323 438.209668 
L 321.203871 437.356751 
L 336.567419 436.284485 
L 351.930968 434.99172 
L 367.294516 433.470997 
L 378.817177 432.227911 
L 394.180726 430.410726 
L 409.544274 428.404026 
L 424.907823 426.203835 
L 440.271371 423.715626 
L 463.316694 419.476305 
L 478.680242 416.449449 
L 497.884677 412.463385 
L 509.407339 409.848383 
L 532.452661 404.329079 
L 555.497984 398.31762 
L 570.861532 394.150156 
L 590.065968 388.735664 
L 609.270403 383.098734 
L 632.315726 376.07093 
L 655.361048 368.746072 
L 670.724597 363.697106 
L 693.769919 355.862778 
L 709.133468 350.470792 
L 728.337903 343.417952 
L 747.542339 336.056985 
L 759.065 331.394836 
L 774.428548 324.825871 
L 785.95121 319.762186 
L 793.632984 316.263151 
L 805.155645 310.828682 
L 828.200968 299.251788 
L 843.564516 291.340938 
L 858.928065 283.20765 
L 870.450726 276.734757 
L 881.973387 270.091635 
L 893.496048 263.251933 
L 912.700484 251.345984 
L 924.223145 243.959093 
L 935.745806 236.224385 
L 947.268468 227.969562 
L 954.950242 222.212115 
L 962.632016 215.84538 
L 970.31379 209.2361 
L 977.995565 201.872176 
L 985.677339 193.444397 
L 989.518226 188.883709 
L 993.359113 183.529081 
L 993.359113 183.529081 
" clip-path="url(#pbccbe64e0b)" style="fill: none; stroke: #1f77b4; stroke-width: 1.5; stroke-linecap: square"/>
   </g>
   <g id="line2d_21">
    <path d="M 44.66 396.379819 
L 60.023548 396.696456 
L 75.387097 397.141823 
L 86.909758 397.851159 
L 94.591532 398.397954 
L 106.114194 399.436772 
L 113.795968 400.302208 
L 136.84129 403.35571 
L 152.204839 405.576338 
L 159.886613 406.975689 
L 167.568387 408.59843 
L 175.250161 410.407598 
L 186.772823 413.378631 
L 194.454597 415.714026 
L 202.136371 418.448954 
L 205.977258 419.983377 
L 217.499919 425.159234 
L 225.181694 428.901767 
L 229.022581 430.96912 
L 236.704355 436.067337 
L 240.545242 439.275429 
L 263.590565 439.094555 
L 278.954113 438.625596 
L 305.840323 437.493729 
L 321.203871 436.606049 
L 340.408306 435.186032 
L 355.771855 433.789408 
L 378.817177 431.311252 
L 394.180726 429.429702 
L 409.544274 427.391493 
L 424.907823 425.136103 
L 440.271371 422.605082 
L 459.475806 419.048352 
L 478.680242 415.229297 
L 497.884677 411.18304 
L 505.566452 409.420495 
L 528.611774 403.881017 
L 543.975323 399.885754 
L 567.020645 393.690036 
L 586.225081 388.259707 
L 609.270403 381.440837 
L 632.315726 374.345776 
L 655.361048 366.956684 
L 674.565484 360.552066 
L 701.451694 351.25067 
L 716.815242 345.67988 
L 732.17879 339.91642 
L 747.542339 333.961178 
L 759.065 329.260128 
L 774.428548 322.64523 
L 785.95121 317.543562 
L 793.632984 314.00556 
L 805.155645 308.534062 
L 832.041855 294.909989 
L 847.405403 286.906188 
L 858.928065 280.728213 
L 870.450726 274.216484 
L 881.973387 267.542411 
L 893.496048 260.671956 
L 916.541371 246.268827 
L 924.223145 241.28288 
L 935.745806 233.510683 
L 947.268468 225.220079 
L 954.950242 219.438778 
L 962.632016 213.04267 
L 970.31379 206.412132 
L 977.995565 199.021824 
L 985.677339 190.567136 
L 989.518226 185.997708 
L 993.359113 180.631284 
L 993.359113 180.631284 
" clip-path="url(#pbccbe64e0b)" style="fill: none; stroke: #ff7f0e; stroke-width: 1.5; stroke-linecap: square"/>
   </g>
   <g id="line2d_22">
    <path d="M 44.66 395.963464 
L 52.341774 396.07787 
L 56.182661 395.703801 
L 67.705323 395.941286 
L 71.54621 395.690001 
L 79.227984 396.002826 
L 83.068871 396.235482 
L 86.909758 396.303593 
L 98.432419 397.155196 
L 109.955081 398.195986 
L 113.795968 398.645756 
L 117.636855 398.658767 
L 121.477742 399.128185 
L 125.318629 399.216076 
L 129.159516 399.726006 
L 133.000403 399.668639 
L 136.84129 400.180541 
L 144.523065 400.361053 
L 152.204839 401.484707 
L 159.886613 402.879261 
L 182.931935 407.699317 
L 186.772823 408.720426 
L 190.61371 409.07488 
L 194.454597 409.96361 
L 202.136371 412.642091 
L 205.977258 414.153449 
L 213.659032 416.689859 
L 217.499919 418.414915 
L 229.022581 423.253041 
L 236.704355 427.608246 
L 240.545242 430.356908 
L 259.749677 430.169331 
L 271.272339 429.885682 
L 305.840323 428.288011 
L 309.68121 427.683388 
L 325.044758 426.694314 
L 336.567419 425.785968 
L 348.090081 424.718105 
L 367.294516 422.741206 
L 374.97629 421.850471 
L 390.339839 419.941912 
L 405.703387 417.850771 
L 428.74871 414.397966 
L 440.271371 412.432665 
L 444.112258 411.518109 
L 459.475806 408.60763 
L 478.680242 404.748983 
L 494.04379 401.486448 
L 501.725565 399.773549 
L 520.93 395.042698 
L 532.452661 392.185677 
L 551.657097 387.069552 
L 567.020645 382.885496 
L 586.225081 377.392083 
L 613.11129 369.273383 
L 663.042823 353.176412 
L 693.769919 342.620956 
L 709.133468 337.126754 
L 712.974355 335.488045 
L 728.337903 329.726984 
L 743.701452 323.806964 
L 759.065 317.55746 
L 774.428548 310.906354 
L 785.95121 305.777449 
L 793.632984 302.224892 
L 805.155645 296.728653 
L 820.519194 288.875695 
L 839.723629 278.968494 
L 855.087177 270.844767 
L 866.609839 264.380154 
L 885.814274 253.217151 
L 893.496048 248.587958 
L 912.700484 236.566945 
L 924.223145 229.115229 
L 935.745806 221.315137 
L 947.268468 213.013034 
L 954.950242 207.221646 
L 962.632016 200.82498 
L 970.31379 194.175746 
L 977.995565 186.780576 
L 985.677339 178.317049 
L 989.518226 173.747523 
L 993.359113 168.38077 
L 993.359113 168.38077 
" clip-path="url(#pbccbe64e0b)" style="fill: none; stroke: #2ca02c; stroke-width: 1.5; stroke-linecap: square"/>
   </g>
   <g id="line2d_23">
    <path d="M 44.66 395.962807 
L 52.341774 396.077213 
L 56.182661 395.692564 
L 60.023548 395.756929 
L 67.705323 395.096221 
L 71.54621 394.844936 
L 75.387097 394.971236 
L 79.227984 394.649704 
L 83.068871 394.526328 
L 86.909758 394.59444 
L 98.432419 395.446043 
L 102.273306 395.396495 
L 109.955081 396.108853 
L 113.795968 394.597922 
L 117.636855 394.610802 
L 121.477742 395.049795 
L 125.318629 395.137686 
L 129.159516 394.816055 
L 133.000403 394.727311 
L 136.84129 395.232674 
L 144.523065 395.413186 
L 152.204839 396.53684 
L 156.045726 395.723252 
L 159.886613 396.440209 
L 163.7275 396.038705 
L 171.409274 397.589294 
L 175.250161 398.180839 
L 179.091048 397.448471 
L 182.931935 398.241393 
L 186.772823 397.677973 
L 190.61371 397.665389 
L 194.454597 398.55412 
L 198.295484 398.117558 
L 202.136371 398.002363 
L 205.977258 399.513722 
L 213.659032 401.842644 
L 217.499919 401.123287 
L 229.022581 405.852627 
L 236.704355 409.84674 
L 240.545242 412.595402 
L 244.386129 410.973417 
L 255.90879 410.837161 
L 259.749677 410.24831 
L 271.272339 409.964662 
L 278.954113 409.64497 
L 282.795 408.314288 
L 286.635887 408.003172 
L 305.840323 407.044457 
L 309.68121 406.439835 
L 325.044758 405.450761 
L 336.567419 404.542415 
L 348.090081 403.474552 
L 371.135403 401.076171 
L 386.498952 399.010001 
L 398.021613 397.529035 
L 401.8625 396.742356 
L 413.385161 395.05479 
L 424.907823 393.310776 
L 428.74871 392.69886 
L 432.589597 391.943985 
L 440.271371 390.627071 
L 444.112258 389.712515 
L 459.475806 386.802036 
L 467.157581 385.221253 
L 470.998468 384.066254 
L 478.680242 382.481791 
L 482.521129 381.402165 
L 497.884677 378.086337 
L 505.566452 376.255451 
L 520.93 372.492515 
L 524.770887 371.396165 
L 532.452661 369.474497 
L 547.81621 365.321063 
L 563.179758 361.185832 
L 570.861532 358.926565 
L 593.906855 352.238725 
L 620.793065 343.975491 
L 632.315726 340.329391 
L 636.156613 338.920841 
L 643.838387 336.457635 
L 651.520161 333.832349 
L 674.565484 326.067545 
L 701.451694 316.712856 
L 709.133468 313.928808 
L 716.815242 310.645705 
L 732.17879 304.839532 
L 747.542339 298.84805 
L 759.065 294.133693 
L 774.428548 287.482587 
L 785.95121 282.353681 
L 797.473871 276.919179 
L 801.314758 274.357536 
L 808.996532 270.548436 
L 835.882742 256.548881 
L 855.087177 246.412771 
L 866.609839 239.948157 
L 889.655161 226.486756 
L 893.496048 223.769603 
L 912.700484 211.748591 
L 924.223145 204.296875 
L 935.745806 196.496783 
L 947.268468 188.194679 
L 954.950242 182.403292 
L 962.632016 176.006625 
L 970.31379 169.357392 
L 977.995565 161.962221 
L 985.677339 153.498695 
L 989.518226 148.929168 
L 993.359113 143.134758 
L 993.359113 143.134758 
" clip-path="url(#pbccbe64e0b)" style="fill: none; stroke: #d62728; stroke-width: 1.5; stroke-linecap: square"/>
   </g>
   <g id="line2d_24">
    <path d="M 44.66 395.79501 
L 48.500887 395.510835 
L 52.341774 395.083736 
L 56.182661 394.47389 
L 60.023548 394.198094 
L 67.705323 392.801831 
L 75.387097 392.055336 
L 79.227984 391.454623 
L 83.068871 391.105032 
L 90.750645 390.718937 
L 94.591532 390.993978 
L 98.432419 390.689268 
L 102.273306 390.213936 
L 109.955081 389.646868 
L 113.795968 387.795743 
L 117.636855 387.310915 
L 121.477742 387.33582 
L 125.318629 387.084995 
L 129.159516 386.306004 
L 133.000403 385.884753 
L 136.84129 386.186079 
L 144.523065 385.509107 
L 148.363952 386.047392 
L 152.204839 386.102689 
L 156.045726 384.992145 
L 159.886613 385.49649 
L 163.7275 384.830098 
L 175.250161 385.111907 
L 179.091048 384.143467 
L 182.931935 384.307025 
L 186.772823 383.55018 
L 190.61371 382.937311 
L 194.454597 382.999968 
L 198.295484 382.137029 
L 202.136371 381.853183 
L 205.977258 382.72312 
L 213.659032 382.72887 
L 217.499919 381.671554 
L 221.340806 382.214044 
L 225.181694 382.441903 
L 229.022581 382.782623 
L 232.863468 383.418919 
L 236.704355 383.867703 
L 240.545242 384.605229 
L 244.386129 382.702815 
L 252.067903 381.410444 
L 255.90879 380.962744 
L 259.749677 379.985794 
L 271.272339 378.528222 
L 275.113226 377.697253 
L 278.954113 377.198855 
L 282.795 375.502844 
L 290.476774 374.156721 
L 298.158548 372.804781 
L 301.999435 372.27793 
L 317.362984 369.606842 
L 321.203871 369.351121 
L 325.044758 368.807711 
L 332.726532 367.21316 
L 336.567419 366.705004 
L 351.930968 363.379977 
L 355.771855 362.805221 
L 359.612742 361.869572 
L 363.453629 361.393845 
L 367.294516 360.711485 
L 394.180726 354.682776 
L 409.544274 350.880281 
L 417.226048 349.124241 
L 421.066935 348.094886 
L 428.74871 346.413266 
L 432.589597 345.369059 
L 436.430484 344.206799 
L 440.271371 343.192032 
L 444.112258 341.999807 
L 447.953145 341.294875 
L 455.634919 338.861042 
L 463.316694 336.492791 
L 467.157581 335.244218 
L 470.998468 333.776033 
L 474.839355 332.680899 
L 482.521129 329.961249 
L 494.04379 326.30365 
L 497.884677 324.906238 
L 501.725565 323.746377 
L 505.566452 322.467181 
L 509.407339 321.012796 
L 513.248226 319.824251 
L 524.770887 315.336406 
L 528.611774 314.304684 
L 543.975323 308.708168 
L 547.81621 307.210018 
L 551.657097 305.950963 
L 555.497984 304.453766 
L 559.338871 303.102156 
L 563.179758 301.987932 
L 586.225081 292.565592 
L 590.065968 290.864948 
L 593.906855 289.423246 
L 597.747742 287.715899 
L 601.588629 286.562938 
L 605.429516 285.090613 
L 636.156613 272.199795 
L 639.9975 270.364934 
L 647.679274 267.140381 
L 670.724597 257.242314 
L 674.565484 255.865141 
L 686.088145 250.906005 
L 697.610806 245.780845 
L 701.451694 244.046261 
L 705.292581 242.142105 
L 709.133468 240.433741 
L 716.815242 236.405128 
L 720.656129 234.42491 
L 736.019677 227.125713 
L 743.701452 223.121742 
L 747.542339 221.293222 
L 751.383226 219.673898 
L 755.224113 217.572506 
L 759.065 215.899035 
L 778.269435 205.346766 
L 782.110323 203.357545 
L 797.473871 194.372819 
L 801.314758 191.704819 
L 805.155645 189.473119 
L 816.678306 182.277781 
L 832.041855 172.931306 
L 839.723629 168.043927 
L 851.24629 161.527204 
L 855.087177 159.042017 
L 858.928065 156.696929 
L 862.768952 154.553054 
L 866.609839 152.097175 
L 870.450726 149.447608 
L 874.291613 147.143131 
L 881.973387 141.973616 
L 889.655161 136.623883 
L 893.496048 133.672563 
L 901.177823 128.504986 
L 908.859597 123.022415 
L 916.541371 117.492433 
L 920.382258 114.493932 
L 928.064032 108.973904 
L 931.904919 105.911958 
L 943.427581 97.128246 
L 951.109355 91.003104 
L 954.950242 87.76071 
L 962.632016 81.120907 
L 970.31379 73.71059 
L 977.995565 65.890521 
L 981.836452 61.424262 
L 985.677339 57.140323 
L 989.518226 52.336268 
L 993.359113 46.542581 
L 993.359113 46.542581 
" clip-path="url(#pbccbe64e0b)" style="fill: none; stroke: #9467bd; stroke-width: 1.5; stroke-linecap: square"/>
   </g>
   <g id="line2d_25">
    <path d="M 44.66 396.327348 
L 997.2 396.327348 
" clip-path="url(#pbccbe64e0b)" style="fill: none; stroke: #000000; stroke-width: 0.5; stroke-linecap: square"/>
   </g>
   <g id="line2d_26">
    <path d="M 44.66 462.04 
L 997.2 462.04 
" clip-path="url(#pbccbe64e0b)" style="fill: none; stroke-dasharray: 1.85,0.8; stroke-dashoffset: 0; stroke: #808080; stroke-width: 0.5"/>
   </g>
   <g id="line2d_27">
    <path d="M 44.66 429.183674 
L 997.2 429.183674 
" clip-path="url(#pbccbe64e0b)" style="fill: none; stroke-dasharray: 1.85,0.8; stroke-dashoffset: 0; stroke: #808080; stroke-width: 0.5"/>
   </g>
   <g id="line2d_28">
    <path d="M 44.66 396.327348 
L 997.2 396.327348 
" clip-path="url(#pbccbe64e0b)" style="fill: none; stroke-dasharray: 1.85,0.8; stroke-dashoffset: 0; stroke: #808080; stroke-width: 0.5"/>
   </g>
   <g id="line2d_29">
    <path d="M 44.66 363.471022 
L 997.2 363.471022 
" clip-path="url(#pbccbe64e0b)" style="fill: none; stroke-dasharray: 1.85,0.8; stroke-dashoffset: 0; stroke: #808080; stroke-width: 0.5"/>
   </g>
   <g id="line2d_30">
    <path d="M 44.66 330.614696 
L 997.2 330.614696 
" clip-path="url(#pbccbe64e0b)" style="fill: none; stroke-dasharray: 1.85,0.8; stroke-dashoffset: 0; stroke: #808080; stroke-width: 0.5"/>
   </g>
   <g id="line2d_31">
    <path d="M 44.66 297.75837 
L 997.2 297.75837 
" clip-path="url(#pbccbe64e0b)" style="fill: none; stroke-dasharray: 1.85,0.8; stroke-dashoffset: 0; stroke: #808080; stroke-width: 0.5"/>
   </g>
   <g id="line2d_32">
    <path d="M 44.66 264.902044 
L 997.2 264.902044 
" clip-path="url(#pbccbe64e0b)" style="fill: none; stroke-dasharray: 1.85,0.8; stroke-dashoffset: 0; stroke: #808080; stroke-width: 0.5"/>
   </g>
   <g id="line2d_33">
    <path d="M 44.66 232.045718 
L 997.2 232.045718 
" clip-path="url(#pbccbe64e0b)" style="fill: none; stroke-dasharray: 1.85,0.8; stroke-dashoffset: 0; stroke: #808080; stroke-width: 0.5"/>
   </g>
   <g id="line2d_34">
    <path d="M 44.66 199.189392 
L 997.2 199.189392 
" clip-path="url(#pbccbe64e0b)" style="fill: none; stroke-dasharray: 1.85,0.8; stroke-dashoffset: 0; stroke: #808080; stroke-width: 0.5"/>
   </g>
   <g id="line2d_35">
    <path d="M 44.66 166.333066 
L 997.2 166.333066 
" clip-path="url(#pbccbe64e0b)" style="fill: none; stroke-dasharray: 1.85,0.8; stroke-dashoffset: 0; stroke: #808080; stroke-width: 0.5"/>
   </g>
   <g id="line2d_36">
    <path d="M 44.66 133.47674 
L 997.2 133.47674 
" clip-path="url(#pbccbe64e0b)" style="fill: none; stroke-dasharray: 1.85,0.8; stroke-dashoffset: 0; stroke: #808080; stroke-width: 0.5"/>
   </g>
   <g id="line2d_37">
    <path d="M 44.66 100.620414 
L 997.2 100.620414 
" clip-path="url(#pbccbe64e0b)" style="fill: none; stroke-dasharray: 1.85,0.8; stroke-dashoffset: 0; stroke: #808080; stroke-width: 0.5"/>
   </g>
   <g id="line2d_38">
    <path d="M 44.66 67.764088 
L 997.2 67.764088 
" clip-path="url(#pbccbe64e0b)" style="fill: none; stroke-dasharray: 1.85,0.8; stroke-dashoffset: 0; stroke: #808080; stroke-width: 0.5"/>
   </g>
   <g id="line2d_39">
    <path d="M 44.66 34.907761 
L 997.2 34.907761 
" clip-path="url(#pbccbe64e0b)" style="fill: none; stroke-dasharray: 1.85,0.8; stroke-dashoffset: 0; stroke: #808080; stroke-width: 0.5"/>
   </g>
   <g id="patch_3">
    <path d="M 44.66 462.04 
L 44.66 26.88 
" style="fill: none; stroke: #000000; stroke-width: 0.8; stroke-linejoin: miter; stroke-linecap: square"/>
   </g>
   <g id="patch_4">
    <path d="M 997.2 462.04 
L 997.2 26.88 
" style="fill: none; stroke: #000000; stroke-width: 0.8; stroke-linejoin: miter; stroke-linecap: square"/>
   </g>
   <g id="patch_5">
    <path d="M 44.66 462.04 
L 997.2 462.04 
" style="fill: none; stroke: #000000; stroke-width: 0.8; stroke-linejoin: miter; stroke-linecap: square"/>
   </g>
   <g id="patch_6">
    <path d="M 44.66 26.88 
L 997.2 26.88 
" style="fill: none; stroke: #000000; stroke-width: 0.8; stroke-linejoin: miter; stroke-linecap: square"/>
   </g>
   <g id="text_22">
    <!-- QB3 cummulative savings vs PNG, total PNG size is 90.43 MB, CID22 set -->
    <g transform="translate(303.431875 20.88) scale(0.12 -0.12)">
     <defs>
      <path id="DejaVuSans-51" d="M 2522 4238 
Q 1834 4238 1429 3725 
Q 1025 3213 1025 2328 
Q 1025 1447 1429 934 
Q 1834 422 2522 422 
Q 3209 422 3611 934 
Q 4013 1447 4013 2328 
Q 4013 3213 3611 3725 
Q 3209 4238 2522 4238 
z
M 3406 84 
L 4238 -825 
L 3475 -825 
L 2784 -78 
Q 2681 -84 2626 -87 
Q 2572 -91 2522 -91 
Q 1538 -91 948 567 
Q 359 1225 359 2328 
Q 359 3434 948 4092 
Q 1538 4750 2522 4750 
Q 3503 4750 4090 4092 
Q 4678 3434 4678 2328 
Q 4678 1516 4351 937 
Q 4025 359 3406 84 
z
" transform="scale(0.015625)"/>
      <path id="DejaVuSans-76" d="M 191 3500 
L 800 3500 
L 1894 563 
L 2988 3500 
L 3597 3500 
L 2284 0 
L 1503 0 
L 191 3500 
z
" transform="scale(0.015625)"/>
      <path id="DejaVuSans-50" d="M 1259 4147 
L 1259 2394 
L 2053 2394 
Q 2494 2394 2734 2622 
Q 2975 2850 2975 3272 
Q 2975 3691 2734 3919 
Q 2494 4147 2053 4147 
L 1259 4147 
z
M 628 4666 
L 2053 4666 
Q 2838 4666 3239 4311 
Q 3641 3956 3641 3272 
Q 3641 2581 3239 2228 
Q 2838 1875 2053 1875 
L 1259 1875 
L 1259 0 
L 628 0 
L 628 4666 
z
" transform="scale(0.015625)"/>
      <path id="DejaVuSans-4e" d="M 628 4666 
L 1478 4666 
L 3547 763 
L 3547 4666 
L 4159 4666 
L 4159 0 
L 3309 0 
L 1241 3903 
L 1241 0 
L 628 0 
L 628 4666 
z
" transform="scale(0.015625)"/>
      <path id="DejaVuSans-47" d="M 3809 666 
L 3809 1919 
L 2778 1919 
L 2778 2438 
L 4434 2438 
L 4434 434 
Q 4069 175 3628 42 
Q 3188 -91 2688 -91 
Q 1594 -91 976 548 
Q 359 1188 359 2328 
Q 359 3472 976 4111 
Q 1594 4750 2688 4750 
Q 3144 4750 3555 4637 
Q 3966 4525 4313 4306 
L 4313 3634 
Q 3963 3931 3569 4081 
Q 3175 4231 2741 4231 
Q 1884 4231 1454 3753 
Q 1025 3275 1025 2328 
Q 1025 1384 1454 906 
Q 1884 428 2741 428 
Q 3075 428 3337 486 
Q 3600 544 3809 666 
z
" transform="scale(0.015625)"/>
      <path id="DejaVuSans-7a" d="M 353 3500 
L 3084 3500 
L 3084 2975 
L 922 459 
L 3084 459 
L 3084 0 
L 275 0 
L 275 525 
L 2438 3041 
L 353 3041 
L 353 3500 
z
" transform="scale(0.015625)"/>
      <path id="DejaVuSans-2e" d="M 684 794 
L 1344 794 
L 1344 0 
L 684 0 
L 684 794 
z
" transform="scale(0.015625)"/>
      <path id="DejaVuSans-43" d="M 4122 4306 
L 4122 3641 
Q 3803 3938 3442 4084 
Q 3081 4231 2675 4231 
Q 1875 4231 1450 3742 
Q 1025 3253 1025 2328 
Q 1025 1406 1450 917 
Q 1875 428 2675 428 
Q 3081 428 3442 575 
Q 3803 722 4122 1019 
L 4122 359 
Q 3791 134 3420 21 
Q 3050 -91 2638 -91 
Q 1578 -91 968 557 
Q 359 1206 359 2328 
Q 359 3453 968 4101 
Q 1578 4750 2638 4750 
Q 3056 4750 3426 4639 
Q 3797 4528 4122 4306 
z
" transform="scale(0.015625)"/>
      <path id="DejaVuSans-49" d="M 628 4666 
L 1259 4666 
L 1259 0 
L 628 0 
L 628 4666 
z
" transform="scale(0.015625)"/>
      <path id="DejaVuSans-44" d="M 1259 4147 
L 1259 519 
L 2022 519 
Q 2988 519 3436 956 
Q 3884 1394 3884 2338 
Q 3884 3275 3436 3711 
Q 2988 4147 2022 4147 
L 1259 4147 
z
M 628 4666 
L 1925 4666 
Q 3281 4666 3915 4102 
Q 4550 3538 4550 2338 
Q 4550 1131 3912 565 
Q 3275 0 1925 0 
L 628 0 
L 628 4666 
z
" transform="scale(0.015625)"/>
     </defs>
     <use xlink:href="#DejaVuSans-51"/>
     <use xlink:href="#DejaVuSans-42" x="78.710938"/>
     <use xlink:href="#DejaVuSans-33" x="147.314453"/>
     <use xlink:href="#DejaVuSans-20" x="210.9375"/>
     <use xlink:href="#DejaVuSans-63" x="242.724609"/>
     <use xlink:href="#DejaVuSans-75" x="297.705078"/>
     <use xlink:href="#DejaVuSans-6d" x="361.083984"/>
     <use xlink:href="#DejaVuSans-6d" x="458.496094"/>
     <use xlink:href="#DejaVuSans-75" x="555.908203"/>
     <use xlink:href="#DejaVuSans-6c" x="619.287109"/>
     <use xlink:href="#DejaVuSans-61" x="647.070312"/>
     <use xlink:href="#DejaVuSans-74" x="708.349609"/>
     <use xlink:href="#DejaVuSans-69" x="747.558594"/>
     <use xlink:href="#DejaVuSans-76" x="775.341797"/>
     <use xlink:href="#DejaVuSans-65" x="834.521484"/>
     <use xlink:href="#DejaVuSans-20" x="896.044922"/>
     <use xlink:href="#DejaVuSans-73" x="927.832031"/>
     <use xlink:href="#DejaVuSans-61" x="979.931641"/>
     <use xlink:href="#DejaVuSans-76" x="1041.210938"/>
     <use xlink:href="#DejaVuSans-69" x="1100.390625"/>
     <use xlink:href="#DejaVuSans-6e" x="1128.173828"/>
     <use xlink:href="#DejaVuSans-67" x="1191.552734"/>
     <use xlink:href="#DejaVuSans-73" x="1255.029297"/>
     <use xlink:href="#DejaVuSans-20" x="1307.128906"/>
     <use xlink:href="#DejaVuSans-76" x="1338.916016"/>
     <use xlink:href="#DejaVuSans-73" x="1398.095703"/>
     <use xlink:href="#DejaVuSans-20" x="1450.195312"/>
     <use xlink:href="#DejaVuSans-50" x="1481.982422"/>
     <use xlink:href="#DejaVuSans-4e" x="1542.285156"/>
     <use xlink:href="#DejaVuSans-47" x="1617.089844"/>
     <use xlink:href="#DejaVuSans-2c" x="1694.580078"/>
     <use xlink:href="#DejaVuSans-20" x="1726.367188"/>
     <use xlink:href="#DejaVuSans-74" x="1758.154297"/>
     <use xlink:href="#DejaVuSans-6f" x="1797.363281"/>
     <use xlink:href="#DejaVuSans-74" x="1858.544922"/>
     <use xlink:href="#DejaVuSans-61" x="1897.753906"/>
     <use xlink:href="#DejaVuSans-6c" x="1959.033203"/>
     <use xlink:href="#DejaVuSans-20" x="1986.816406"/>
     <use xlink:href="#DejaVuSans-50" x="2018.603516"/>
     <use xlink:href="#DejaVuSans-4e" x="2078.90625"/>
     <use xlink:href="#DejaVuSans-47" x="2153.710938"/>
     <use xlink:href="#DejaVuSans-20" x="2231.201172"/>
     <use xlink:href="#DejaVuSans-73" x="2262.988281"/>
     <use xlink:href="#DejaVuSans-69" x="2315.087891"/>
     <use xlink:href="#DejaVuSans-7a" x="2342.871094"/>
     <use xlink:href="#DejaVuSans-65" x="2395.361328"/>
     <use xlink:href="#DejaVuSans-20" x="2456.884766"/>
     <use xlink:href="#DejaVuSans-69" x="2488.671875"/>
     <use xlink:href="#DejaVuSans-73" x="2516.455078"/>
     <use xlink:href="#DejaVuSans-20" x="2568.554688"/>
     <use xlink:href="#DejaVuSans-39" x="2600.341797"/>
     <use xlink:href="#DejaVuSans-30" x="2663.964844"/>
     <use xlink:href="#DejaVuSans-2e" x="2727.587891"/>
     <use xlink:href="#DejaVuSans-34" x="2759.375"/>
     <use xlink:href="#DejaVuSans-33" x="2822.998047"/>
     <use xlink:href="#DejaVuSans-20" x="2886.621094"/>
     <use xlink:href="#DejaVuSans-4d" x="2918.408203"/>
     <use xlink:href="#DejaVuSans-42" x="3004.6875"/>
     <use xlink:href="#DejaVuSans-2c" x="3073.291016"/>
     <use xlink:href="#DejaVuSans-20" x="3105.078125"/>
     <use xlink:href="#DejaVuSans-43" x="3136.865234"/>
     <use xlink:href="#DejaVuSans-49" x="3206.689453"/>
     <use xlink:href="#DejaVuSans-44" x="3236.181641"/>
     <use xlink:href="#DejaVuSans-32" x="3313.183594"/>
     <use xlink:href="#DejaVuSans-32" x="3376.806641"/>
     <use xlink:href="#DejaVuSans-20" x="3440.429688"/>
     <use xlink:href="#DejaVuSans-73" x="3472.216797"/>
     <use xlink:href="#DejaVuSans-65" x="3524.316406"/>
     <use xlink:href="#DejaVuSans-74" x="3585.839844"/>
    </g>
   </g>
   <g id="legend_1">
    <g id="patch_7">
     <path d="M 51.66 108.270625 
L 180.033438 108.270625 
Q 182.033438 108.270625 182.033438 106.270625 
L 182.033438 33.88 
Q 182.033438 31.88 180.033438 31.88 
L 51.66 31.88 
Q 49.66 31.88 49.66 33.88 
L 49.66 106.270625 
Q 49.66 108.270625 51.66 108.270625 
z
" style="fill: #ffffff; opacity: 0.8; stroke: #cccccc; stroke-linejoin: miter"/>
    </g>
    <g id="line2d_40">
     <path d="M 53.66 39.978437 
L 63.66 39.978437 
L 73.66 39.978437 
" style="fill: none; stroke: #1f77b4; stroke-width: 1.5; stroke-linecap: square"/>
    </g>
    <g id="text_23">
     <!-- QB3 Fast -->
     <g transform="translate(81.66 43.478437) scale(0.1 -0.1)">
      <use xlink:href="#DejaVuSans-51"/>
      <use xlink:href="#DejaVuSans-42" x="78.710938"/>
      <use xlink:href="#DejaVuSans-33" x="147.314453"/>
      <use xlink:href="#DejaVuSans-20" x="210.9375"/>
      <use xlink:href="#DejaVuSans-46" x="242.724609"/>
      <use xlink:href="#DejaVuSans-61" x="291.119141"/>
      <use xlink:href="#DejaVuSans-73" x="352.398438"/>
      <use xlink:href="#DejaVuSans-74" x="404.498047"/>
     </g>
    </g>
    <g id="line2d_41">
     <path d="M 53.66 54.656562 
L 63.66 54.656562 
L 73.66 54.656562 
" style="fill: none; stroke: #ff7f0e; stroke-width: 1.5; stroke-linecap: square"/>
    </g>
    <g id="text_24">
     <!-- QB3 Base -->
     <g transform="translate(81.66 58.156562) scale(0.1 -0.1)">
      <use xlink:href="#DejaVuSans-51"/>
      <use xlink:href="#DejaVuSans-42" x="78.710938"/>
      <use xlink:href="#DejaVuSans-33" x="147.314453"/>
      <use xlink:href="#DejaVuSans-20" x="210.9375"/>
      <use xlink:href="#DejaVuSans-42" x="242.724609"/>
      <use xlink:href="#DejaVuSans-61" x="311.328125"/>
      <use xlink:href="#DejaVuSans-73" x="372.607422"/>
      <use xlink:href="#DejaVuSans-65" x="424.707031"/>
     </g>
    </g>
    <g id="line2d_42">
     <path d="M 53.66 69.334687 
L 63.66 69.334687 
L 73.66 69.334687 
" style="fill: none; stroke: #2ca02c; stroke-width: 1.5; stroke-linecap: square"/>
    </g>
    <g id="text_25">
     <!-- QB3 Best -->
     <g transform="translate(81.66 72.834687) scale(0.1 -0.1)">
      <use xlink:href="#DejaVuSans-51"/>
      <use xlink:href="#DejaVuSans-42" x="78.710938"/>
      <use xlink:href="#DejaVuSans-33" x="147.314453"/>
      <use xlink:href="#DejaVuSans-20" x="210.9375"/>
      <use xlink:href="#DejaVuSans-42" x="242.724609"/>
      <use xlink:href="#DejaVuSans-65" x="311.328125"/>
      <use xlink:href="#DejaVuSans-73" x="372.851562"/>
      <use xlink:href="#DejaVuSans-74" x="424.951172"/>
     </g>
    </g>
    <g id="line2d_43">
     <path d="M 53.66 84.012812 
L 63.66 84.012812 
L 73.66 84.012812 
" style="fill: none; stroke: #d62728; stroke-width: 1.5; stroke-linecap: square"/>
    </g>
    <g id="text_26">
     <!-- QB3 Best band mix -->
     <g transform="translate(81.66 87.512812) scale(0.1 -0.1)">
      <defs>
       <path id="DejaVuSans-78" d="M 3513 3500 
L 2247 1797 
L 3578 0 
L 2900 0 
L 1881 1375 
L 863 0 
L 184 0 
L 1544 1831 
L 300 3500 
L 978 3500 
L 1906 2253 
L 2834 3500 
L 3513 3500 
z
" transform="scale(0.015625)"/>
      </defs>
      <use xlink:href="#DejaVuSans-51"/>
      <use xlink:href="#DejaVuSans-42" x="78.710938"/>
      <use xlink:href="#DejaVuSans-33" x="147.314453"/>
      <use xlink:href="#DejaVuSans-20" x="210.9375"/>
      <use xlink:href="#DejaVuSans-42" x="242.724609"/>
      <use xlink:href="#DejaVuSans-65" x="311.328125"/>
      <use xlink:href="#DejaVuSans-73" x="372.851562"/>
      <use xlink:href="#DejaVuSans-74" x="424.951172"/>
      <use xlink:href="#DejaVuSans-20" x="464.160156"/>
      <use xlink:href="#DejaVuSans-62" x="495.947266"/>
      <use xlink:href="#DejaVuSans-61" x="559.423828"/>
      <use xlink:href="#DejaVuSans-6e" x="620.703125"/>
      <use xlink:href="#DejaVuSans-64" x="684.082031"/>
      <use xlink:href="#DejaVuSans-20" x="747.558594"/>
      <use xlink:href="#DejaVuSans-6d" x="779.345703"/>
      <use xlink:href="#DejaVuSans-69" x="876.757812"/>
      <use xlink:href="#DejaVuSans-78" x="904.541016"/>
     </g>
    </g>
    <g id="line2d_44">
     <path d="M 53.66 98.690937 
L 63.66 98.690937 
L 73.66 98.690937 
" style="fill: none; stroke: #9467bd; stroke-width: 1.5; stroke-linecap: square"/>
    </g>
    <g id="text_27">
     <!-- QB3 + Zstd -->
     <g transform="translate(81.66 102.190937) scale(0.1 -0.1)">
      <defs>
       <path id="DejaVuSans-2b" d="M 2944 4013 
L 2944 2272 
L 4684 2272 
L 4684 1741 
L 2944 1741 
L 2944 0 
L 2419 0 
L 2419 1741 
L 678 1741 
L 678 2272 
L 2419 2272 
L 2419 4013 
L 2944 4013 
z
" transform="scale(0.015625)"/>
       <path id="DejaVuSans-5a" d="M 359 4666 
L 4025 4666 
L 4025 4184 
L 1075 531 
L 4097 531 
L 4097 0 
L 288 0 
L 288 481 
L 3238 4134 
L 359 4134 
L 359 4666 
z
" transform="scale(0.015625)"/>
      </defs>
      <use xlink:href="#DejaVuSans-51"/>
      <use xlink:href="#DejaVuSans-42" x="78.710938"/>
      <use xlink:href="#DejaVuSans-33" x="147.314453"/>
      <use xlink:href="#DejaVuSans-20" x="210.9375"/>
      <use xlink:href="#DejaVuSans-2b" x="242.724609"/>
      <use xlink:href="#DejaVuSans-20" x="326.513672"/>
      <use xlink:href="#DejaVuSans-5a" x="358.300781"/>
      <use xlink:href="#DejaVuSans-73" x="426.806641"/>
      <use xlink:href="#DejaVuSans-74" x="478.90625"/>
      <use xlink:href="#DejaVuSans-64" x="518.115234"/>
     </g>
    </g>
   </g>
  </g>
 </g>
 <defs>
  <clipPath id="pbccbe64e0b">
   <rect x="44.66" y="26.88" width="952.54" height="435.16"/>
  </clipPath>
 </defs>
</svg>
